<svg id="Sprites" xmlns="http://www.w3.org/2000/svg" viewBox="0 0 16 16"><defs><style>.cls-1{fill:none;}.cls-2{fill:#fff;}</style></defs><g id="airport_airport_pnt_black_fill"><rect id="bbox_16" class="cls-1" width="16" height="16"/><circle id="circle_fill" class="cls-2" cx="8" cy="8" r="7"/><path id="airport_airport" d="M8,15a7,7,0,1,1,7-7A7,7,0,0,1,8,15ZM8,2a6,6,0,1,0,6,6A6,6,0,0,0,8,2Zm4,7-2,.5-1.5-2L12,6l-1-.5L7,6,5.5,4.5a.71.71,0,0,0-1,1L6,7l-.5,4L6,12,7.5,8.5l2,1.5L9,12l.5.5,1-2,2-1Z"/></g></svg>