<svg id="Sprites" xmlns="http://www.w3.org/2000/svg" viewBox="0 0 16 16"><path d="M14,11.5a1.74,1.74,0,0,0-1.35.65c-.25.24-.37.35-.65.35s-.4-.11-.65-.35a2.71,2.71,0,0,0-.39-.34L9.1,7.17A2,2,0,1,0,6,5.5a2,2,0,0,0,.9,1.66L5,11.81a2.26,2.26,0,0,0-.39.34c-.25.24-.37.35-.65.35s-.4-.11-.65-.35A1.74,1.74,0,0,0,2,11.5a.5.5,0,0,0,0,1c.28,0,.4.11.65.35a1.73,1.73,0,0,0,2.7,0c.25-.24.37-.35.65-.35s.4.11.65.35a1.73,1.73,0,0,0,2.7,0c.25-.24.37-.35.65-.35s.4.11.65.35a1.73,1.73,0,0,0,2.7,0c.25-.24.37-.35.65-.35a.5.5,0,0,0,0-1Zm-6-7a1,1,0,1,1-1,1A1,1,0,0,1,8,4.5Zm.65,7.65c-.25.24-.37.35-.65.35s-.4-.11-.65-.35a1.86,1.86,0,0,0-1.12-.62l1.61-4h.32l1.61,4A1.86,1.86,0,0,0,8.65,12.15Z"/></svg>