<svg id="Sprites" xmlns="http://www.w3.org/2000/svg" viewBox="0 0 16 16"><defs><style>.cls-1{fill:#0984ba;}</style></defs><g id="beacon_pnt_beacon_water"><path id="beacon_pnt_beacon_water_water" class="cls-1" d="M14.5,12a.5.5,0,0,1-.5.5c-.28,0-.4.11-.65.35a1.73,1.73,0,0,1-2.7,0c-.25-.24-.37-.35-.65-.35s-.4.11-.65.35a1.73,1.73,0,0,1-2.7,0c-.25-.24-.37-.35-.65-.35s-.4.11-.65.35a1.73,1.73,0,0,1-2.7,0c-.25-.24-.37-.35-.65-.35a.5.5,0,0,1,0-1,1.74,1.74,0,0,1,1.35.65c.25.24.37.35.65.35s.4-.11.65-.35A2.71,2.71,0,0,1,5,11.81h0a1.6,1.6,0,0,1,1-.29.86.86,0,0,1,.23,0,1.75,1.75,0,0,1,1.12.63c.25.24.37.35.65.35s.4-.11.65-.35a1.75,1.75,0,0,1,1.12-.63.86.86,0,0,1,.23,0,1.6,1.6,0,0,1,.95.29h0a2.71,2.71,0,0,1,.39.34c.25.24.37.35.65.35s.4-.11.65-.35A1.74,1.74,0,0,1,14,11.5.5.5,0,0,1,14.5,12Z"/><path id="beacon_pnt_beacon_water_beacon" d="M9.1,7.17a2,2,0,1,0-2.2,0L5.05,11.79a1.6,1.6,0,0,1,1-.29.86.86,0,0,1,.23,0l1.61-4h.32l1.61,4a.86.86,0,0,1,.23,0,1.6,1.6,0,0,1,.95.29ZM8,4.5a1,1,0,1,1-1,1A1,1,0,0,1,8,4.5Z"/></g></svg>