<svg id="Sprites" xmlns="http://www.w3.org/2000/svg" viewBox="0 0 16 16"><defs><style>.cls-1,.cls-2{fill:none;}.cls-2{stroke:#0984ba;stroke-linecap:round;stroke-linejoin:round;}</style></defs><g id="beacon_lighthouse_water_pnt_dual"><rect id="bbox_16" class="cls-1" width="16" height="16"/><path id="water_wave" class="cls-2" d="M2,12c1,0,1,1,2,1s1-1,2-1,1,1,2,1,1-1,2-1,1,1,2,1,1-1,2-1"/><path id="beacon_lighthouse_water" d="M13.5,6.5a.54.54,0,0,1-.22,0l-2-1a.5.5,0,0,1,.44-.9l2,1a.5.5,0,0,1-.22,1ZM11.72,4l2-1a.5.5,0,1,0-.44-.9l-2,1a.5.5,0,0,0,.22,1A.54.54,0,0,0,11.72,4Zm-9,2.5,2-1a.5.5,0,0,0-.44-.9l-2,1a.5.5,0,0,0,.22,1A.54.54,0,0,0,2.72,6.45ZM5,3.72a.51.51,0,0,0-.23-.67l-2-1a.5.5,0,1,0-.44.9l2,1A.54.54,0,0,0,4.5,4,.5.5,0,0,0,5,3.72Zm7.17,8.77H12c-.28,0-.4-.11-.65-.35A1.75,1.75,0,0,0,10,11.5h0a1.74,1.74,0,0,0-1.35.65c-.25.24-.37.35-.65.35s-.4-.11-.65-.35A1.74,1.74,0,0,0,6,11.5H6a1.75,1.75,0,0,0-1.33.65c-.25.24-.37.35-.65.35H3.88c1.39-.88,1.62-2.23,1.62-5V7h-1V6h1V5a2.5,2.5,0,0,1,5,0V6h1V7h-1v.5C10.5,10.26,10.73,11.61,12.12,12.49ZM6.5,6h3V5a1.5,1.5,0,0,0-3,0Z"/></g></svg>