<svg id="Sprites" xmlns="http://www.w3.org/2000/svg" viewBox="0 0 16 16"><defs><style>.cls-1{fill:none;}</style></defs><g id="beacon_lighthouse_land_pnt_black"><rect id="bbox_16" class="cls-1" width="16" height="16"/><path id="beacon_lighthouse_land" d="M2.5,12.5a.5.5,0,0,1,0-1h2c.78-.72,1-1.66,1-4V7h-1V6h1V5a2.5,2.5,0,0,1,5,0V6h1V7h-1v.5c0,2.34.18,3.28,1,4h2a.5.5,0,0,1,0,1ZM6.5,6h3V5a1.5,1.5,0,0,0-3,0Zm7,.5a.54.54,0,0,1-.22,0l-2-1a.5.5,0,0,1,.44-.9l2,1a.5.5,0,0,1-.22,1ZM11.72,4l2-1a.5.5,0,1,0-.44-.9l-2,1a.5.5,0,0,0,.22,1A.54.54,0,0,0,11.72,4Zm-9,2.5,2-1a.5.5,0,0,0-.44-.9l-2,1a.5.5,0,0,0,.22,1A.54.54,0,0,0,2.72,6.45ZM5,3.72a.51.51,0,0,0-.23-.67l-2-1a.5.5,0,1,0-.44.9l2,1A.54.54,0,0,0,4.5,4,.5.5,0,0,0,5,3.72Z"/></g></svg>