<svg id="Layer_1" data-name="Layer 1" xmlns="http://www.w3.org/2000/svg" viewBox="0 0 16 16"><defs><style>.cls-1{fill:#fff;stroke:#231f20;stroke-miterlimit:10;stroke-width:0.8px;}.cls-2{fill:#231f20;}</style></defs><circle class="cls-1" cx="8.07" cy="8" r="6.75"/><polygon class="cls-2" points="4.94 9.71 5.03 6.82 5.56 7.09 5.56 9.71 4.94 9.71"/><circle class="cls-2" cx="5.25" cy="8.55" r="0.83"/><polygon class="cls-2" points="3.89 6.24 8.09 4.37 12.26 6.35 8.07 8.35 5.03 6.82 3.89 6.24"/><path class="cls-2" d="M4.94,9.66c-.46,1.6-.26,1.84-.16,1.9a.56.56,0,0,0,.19,0h.78a.22.22,0,0,0,.15,0c.34-.23-.22-1.59-.34-1.87Z"/><path class="cls-2" d="M6.61,10.8a3.25,3.25,0,0,0,.5.17A4.31,4.31,0,0,0,8.87,11,2.31,2.31,0,0,0,10.4,9.75V7.84L8,9,6.62,8.32a1,1,0,0,1,0,.47,1.06,1.06,0,0,1-.42.6,2,2,0,0,1,.29.48A1.9,1.9,0,0,1,6.61,10.8Z"/></svg>