<svg id="Layer_1" data-name="Layer 1" xmlns="http://www.w3.org/2000/svg" viewBox="0 0 16 16"><defs><style>.cls-1,.cls-3{fill:#fff;}.cls-1{stroke:#231f20;stroke-miterlimit:10;}.cls-2{fill:#231f20;}</style></defs><circle class="cls-1" cx="8.07" cy="8" r="6.75"/><polygon class="cls-2" points="3.85 8.65 3.85 7.95 4.89 7.39 4.89 6.85 4.97 6.79 5.33 6.79 5.39 6.85 5.39 7.09 7.73 5.72 7.73 5.15 7.83 5.06 8.11 5.06 8.22 5.11 8.22 5.72 10.56 7.11 10.56 6.91 10.65 6.86 11.04 6.86 11.11 6.92 11.11 7.4 12.15 8.01 12.15 8.71 11.07 8.14 11.06 10.51 4.89 10.51 4.89 8.07 3.85 8.65"/><polygon class="cls-3" points="5.32 10.36 5.32 7.86 8 6.42 10.54 7.83 10.54 10.36 5.32 10.36"/></svg>