<svg id="Layer_1" data-name="Layer 1" xmlns="http://www.w3.org/2000/svg" viewBox="0 0 16 16"><defs><style>.cls-1,.cls-3{fill:#fff;}.cls-1{stroke:#231f20;stroke-miterlimit:10;stroke-width:0.8px;}.cls-2{fill:#231f20;}</style></defs><circle class="cls-1" cx="8.02" cy="8.08" r="7.41"/><circle class="cls-2" cx="3.75" cy="11.29" r="1.12"/><circle class="cls-2" cx="6.32" cy="11.29" r="1.12"/><circle class="cls-2" cx="12.09" cy="11.29" r="1.12"/><path class="cls-2" d="M14.31,8.85a13.21,13.21,0,0,1,0,1.79c0,.69-.34.81-.34.81s-.33,0-.4,0c-.35-.32-.06-1.48-1.53-1.44a1.17,1.17,0,0,0-1,.45,1.32,1.32,0,0,0-.29.9c0,.17-.12.13-.18.13H7.77a.11.11,0,0,1-.11-.13A1.31,1.31,0,0,0,6.22,10a1.22,1.22,0,0,0-1,.5c-.14.15-.19.21-.76-.25A1.34,1.34,0,0,0,3.86,10a1.39,1.39,0,0,0-1.48,1.48H2s-.09.05-.1-.1,0-.35,0-.35a5.76,5.76,0,0,1,0-.87c.16-.71,1-2.79,1.25-2.62L5.1,9s1,.44,1.08.48S7.84,9.3,7.84,9.3l1.6-.39s.22-1.08.44-1.8c0-.1.46-.07.8-.06a5.49,5.49,0,0,1,0-.81H13a.42.42,0,0,1,.39.24A16.63,16.63,0,0,1,14.31,8.85Z"/><polygon class="cls-2" points="9.67 7.08 9.24 8.78 7.9 9.12 6.23 9.31 5.2 8.85 2.76 6.89 1.79 5.35 2.63 3.75 5.36 4.14 8.07 5.21 9.21 6.28 9.67 7.08"/><polygon class="cls-3" points="11.18 6.89 11.22 8.46 13.71 8.5 12.99 6.89 11.18 6.89"/></svg>