<svg id="Layer_1" data-name="Layer 1" xmlns="http://www.w3.org/2000/svg" viewBox="0 0 16 16"><defs><style>.cls-1{fill:#fff;stroke:#231f20;stroke-miterlimit:10;stroke-width:0.8px;}.cls-2{fill:#231f20;}</style></defs><circle class="cls-1" cx="8.07" cy="8" r="6.75"/><path class="cls-2" d="M4.66,9.17l.17-3.46S7.52,4.47,7.73,6V9A3.09,3.09,0,0,0,4.66,9.17Z"/><path class="cls-2" d="M11.48,9.17l-.16-3.46S8.62,4.47,8.41,6V9A3.09,3.09,0,0,1,11.48,9.17Z"/><path class="cls-2" d="M4.52,10.68v-.49a2.58,2.58,0,0,1,2.8-.54,1.5,1.5,0,0,1,.49.49l.56,0a1.45,1.45,0,0,1,.5-.49,2,2,0,0,1,1.45,0,3.67,3.67,0,0,1,1.32.6v.49c-.15-.11-1.39-1-2.39-.54a1.1,1.1,0,0,0-.35.24v.38H7.26l0-.41A1.83,1.83,0,0,0,6.6,10,2.44,2.44,0,0,0,4.52,10.68Z"/></svg>