<svg id="Layer_1" data-name="Layer 1" xmlns="http://www.w3.org/2000/svg" viewBox="0 0 16 16"><defs><style>.cls-1,.cls-3{fill:#fff;}.cls-1{stroke:#231f20;stroke-miterlimit:10;stroke-width:0.8px;}.cls-2{fill:#231f20;}</style></defs><circle class="cls-1" cx="8" cy="8" r="7.41"/><polygon class="cls-2" points="3.18 7.17 3.18 6.44 3.92 5.7 6.88 5.7 6.88 3.62 7.88 2.88 8.87 3.58 8.87 5.7 11.87 5.7 12.57 6.42 12.57 7.17 3.18 7.17"/><polyline class="cls-2" points="4.02 7.63 11.93 7.63 11.93 10.46 12.7 11.56 12.7 12.61 3.3 12.61 3.3 11.53 4.09 10.46 4.11 7.63"/><rect class="cls-3" x="5.42" y="8.19" width="0.85" height="3.43"/><rect class="cls-3" x="7.57" y="8.19" width="0.85" height="3.43"/><rect class="cls-3" x="9.7" y="8.19" width="0.87" height="3.43"/><circle class="cls-3" cx="7.87" cy="4.31" r="0.65"/></svg>