<svg id="Layer_1" data-name="Layer 1" xmlns="http://www.w3.org/2000/svg" viewBox="0 0 16 16"><defs><style>.cls-1{fill:#fff;stroke:#231f20;stroke-miterlimit:10;stroke-width:0.8px;}.cls-2{fill:#231f20;}</style></defs><circle class="cls-1" cx="8" cy="8" r="7.41"/><path class="cls-2" d="M3.21,9.64l.23-4.86S7.23,3,7.52,5.19V9.45A4.3,4.3,0,0,0,3.21,9.64Z"/><path class="cls-2" d="M12.79,9.64l-.23-4.86S8.76,3,8.47,5.19V9.45A4.32,4.32,0,0,1,12.79,9.64Z"/><path class="cls-2" d="M3,11.76l0-.69C4.36,10,5.91,9.7,6.92,10.32a2,2,0,0,1,.7.69l.78,0a2,2,0,0,1,.71-.69,2.74,2.74,0,0,1,2,0,5.14,5.14,0,0,1,1.85.83l0,.69c-.21-.15-1.95-1.43-3.36-.75a2,2,0,0,0-.5.33v.54H6.85l0-.58a2.71,2.71,0,0,0-.9-.45A3.41,3.41,0,0,0,3,11.76Z"/></svg>