<svg id="Layer_1" data-name="Layer 1" xmlns="http://www.w3.org/2000/svg" viewBox="0 0 16 16"><defs><style>.cls-1{fill:#fff;stroke:#231f20;stroke-miterlimit:10;stroke-width:0.8px;}.cls-2{fill:#231f20;}</style></defs><circle class="cls-1" cx="8.07" cy="8" r="7.41"/><polygon class="cls-2" points="3.64 10.38 3.77 6.08 4.56 6.48 4.56 10.38 3.64 10.38"/><circle class="cls-2" cx="4.1" cy="8.66" r="1.23"/><polygon class="cls-2" points="2.07 5.22 8.31 2.44 14.52 5.38 8.29 8.36 3.77 6.08 2.07 5.22"/><path class="cls-2" d="M3.64,10.3C3,12.68,3.25,13,3.4,13.12s.09,0,.28,0c.48,0,.87,0,1.16,0a.45.45,0,0,0,.22-.05c.51-.35-.32-2.37-.5-2.79Z"/><path class="cls-2" d="M6.12,12a4.58,4.58,0,0,0,.74.25,6.06,6.06,0,0,0,2.61.1,3.44,3.44,0,0,0,1.16-.53,3.54,3.54,0,0,0,1.12-1.38l0-2.85L8.16,9.26l-2-.94a1.56,1.56,0,0,1,0,.69,1.53,1.53,0,0,1-.63.89,2.63,2.63,0,0,1,.43.72A2.81,2.81,0,0,1,6.12,12Z"/></svg>