<svg id="Layer_1" data-name="Layer 1" xmlns="http://www.w3.org/2000/svg" viewBox="0 0 16 16"><defs><style>.cls-1,.cls-3{fill:#fff;}.cls-1{stroke:#231f20;stroke-miterlimit:10;stroke-width:0.8px;}.cls-2{fill:#231f20;}</style></defs><circle class="cls-1" cx="8.02" cy="8" r="7.41"/><path class="cls-2" d="M3.33,12.07a.28.28,0,0,1-.2-.3c0-.25,0-.61,0-.61a.84.84,0,0,1,.2-.54A11.65,11.65,0,0,0,4,9.52a6.91,6.91,0,0,0,.39-.73,3.09,3.09,0,0,0,.16-.9c0-.22-.09-.59-.29-.63H3.9a.28.28,0,0,1-.29-.2.26.26,0,0,1,.11-.27l.12-.16V5.86h.53L4.48,5h.13c.15,0,.19,0,.32.11l.27.32h8.59v.88h-.45v.93s0,.28-.2.32-3,0-3,0l-.13,0c-.1.05-.15.07-.18.11a.31.31,0,0,0,0,.2,1.39,1.39,0,0,1-.14.71.85.85,0,0,1-.46.3,1.72,1.72,0,0,1-.6.1H7.78a.9.9,0,0,1-.53-.12.19.19,0,0,0-.09,0C7.06,8.89,7,9,7,9s-.89,2.34-.86,2.45-.11.61-.21.61Z"/><path class="cls-3" d="M7.74,7.5a.61.61,0,0,0-.47.6.72.72,0,0,0,.14.44c.13.16.35.19.67.21a2.79,2.79,0,0,0,.74,0,.63.63,0,0,0,.57-.48.67.67,0,0,0-.27-.66.6.6,0,0,0-.33-.08H8.42s-.15.09-.14.2,0,.72,0,.72a.3.3,0,0,1-.19,0,.46.46,0,0,1-.21-.24A1.69,1.69,0,0,1,7.74,7.5Z"/></svg>