<svg id="Layer_1" data-name="Layer 1" xmlns="http://www.w3.org/2000/svg" viewBox="0 0 16 16"><defs><style>.cls-1,.cls-3{fill:#fff;}.cls-1{stroke:#231f20;stroke-miterlimit:10;stroke-width:0.8px;}.cls-2{fill:#ed1c24;}</style></defs><circle class="cls-1" cx="8.07" cy="8" r="6.75"/><polygon class="cls-2" points="3.5 8.9 3.5 8.1 4.69 7.46 4.69 6.84 4.77 6.78 5.19 6.78 5.25 6.84 5.25 7.12 7.92 5.55 7.92 4.91 8.04 4.8 8.36 4.8 8.48 4.86 8.48 5.56 11.15 7.14 11.15 6.91 11.25 6.85 11.7 6.85 11.77 6.92 11.77 7.47 12.96 8.17 12.96 8.96 11.73 8.31 11.72 11.01 4.69 11.01 4.69 8.24 3.5 8.9"/><polygon class="cls-3" points="5.17 7.99 8 6.35 8 10.84 7.5 10.82 7.49 8.83 7.68 8.83 7.67 8.59 6.13 8.6 6.13 8.83 6.31 8.83 6.32 10.82 5.17 10.84 5.17 7.99"/><polygon class="cls-3" points="8.39 6.35 8.39 10.84 11.13 10.84 11.13 7.96 8.39 6.35"/><polygon class="cls-2" points="8.94 9.61 8.94 8.74 8.77 8.74 8.77 8.49 10.74 8.49 10.74 8.77 10.55 8.77 10.56 9.61 8.94 9.61"/></svg>