<svg id="Layer_1" data-name="Layer 1" xmlns="http://www.w3.org/2000/svg" viewBox="0 0 16 16"><defs><style>.cls-1,.cls-3{fill:#fff;}.cls-1{stroke:#231f20;stroke-miterlimit:10;}.cls-2{fill:#231f20;}</style></defs><circle class="cls-1" cx="8" cy="8.13" r="6.75"/><circle class="cls-2" cx="4.95" cy="10.39" r="0.79"/><circle class="cls-2" cx="6.77" cy="10.39" r="0.79"/><circle class="cls-2" cx="10.84" cy="10.39" r="0.79"/><path class="cls-2" d="M12.4,8.68a8.58,8.58,0,0,1,0,1.25c0,.49-.24.58-.24.58s-.23,0-.28,0c-.25-.23,0-1.05-1.08-1a.84.84,0,0,0-.68.31.93.93,0,0,0-.2.63c0,.12-.08.1-.13.1h-2a.08.08,0,0,1-.08-.09.92.92,0,0,0-1-.95A.87.87,0,0,0,6,9.81c-.1.11-.14.15-.54-.17A.87.87,0,0,0,5,9.46a1,1,0,0,0-1,1H3.73s-.07,0-.08-.07v-.25a4,4,0,0,1,0-.61c.11-.5.72-2,.88-1.85L5.9,8.78s.68.31.77.33A9.4,9.4,0,0,0,7.84,9L9,8.72s.15-.76.3-1.28c0-.06.33,0,.57,0a3.63,3.63,0,0,1,0-.57h1.58a.3.3,0,0,1,.28.17A11.64,11.64,0,0,1,12.4,8.68Z"/><polygon class="cls-2" points="9.13 7.43 8.83 8.62 7.88 8.86 6.71 9 5.98 8.67 4.25 7.29 3.57 6.21 4.17 5.08 6.09 5.35 8 6.11 8.8 6.86 9.13 7.43"/><polygon class="cls-3" points="10.2 7.29 10.22 8.4 11.97 8.43 11.47 7.29 10.2 7.29"/></svg>