<svg id="Layer_1" data-name="Layer 1" xmlns="http://www.w3.org/2000/svg" viewBox="0 0 16 16"><defs><style>.cls-1{fill:#fff;stroke:#231f20;stroke-miterlimit:10;}.cls-2{fill:#231f20;}</style></defs><circle class="cls-1" cx="8.07" cy="8" r="6.75"/><polygon class="cls-2" points="4.61 9.85 4.71 6.66 5.3 6.96 5.3 9.85 4.61 9.85"/><circle class="cls-2" cx="4.96" cy="8.57" r="0.92"/><polygon class="cls-2" points="3.44 6.02 8.09 3.95 12.7 6.14 8.07 8.36 4.71 6.66 3.44 6.02"/><path class="cls-2" d="M4.61,9.8c-.5,1.77-.29,2-.17,2.1s.07,0,.2,0c.36,0,.65,0,.87,0a.25.25,0,0,0,.16,0c.38-.26-.24-1.76-.37-2.07Z"/><path class="cls-2" d="M6.46,11.07c.17.06.35.13.55.18A4.68,4.68,0,0,0,9,11.33a2.75,2.75,0,0,0,.86-.4,2.57,2.57,0,0,0,.83-1l0-2.11L8,9l-1.51-.7a1.09,1.09,0,0,1,0,.52A1.16,1.16,0,0,1,6,9.5a2.13,2.13,0,0,1,.32.54A2.23,2.23,0,0,1,6.46,11.07Z"/></svg>