<svg id="Layer_1" data-name="Layer 1" xmlns="http://www.w3.org/2000/svg" viewBox="0 0 16 16"><defs><style>.cls-1,.cls-3{fill:#fff;}.cls-1{stroke:#231f20;stroke-miterlimit:10;stroke-width:0.8px;}.cls-2{fill:#231f20;}</style></defs><circle class="cls-1" cx="8" cy="8.13" r="6.75"/><circle class="cls-2" cx="5.58" cy="10.35" r="0.63"/><circle class="cls-2" cx="7.02" cy="10.35" r="0.63"/><circle class="cls-2" cx="10.26" cy="10.35" r="0.63"/><path class="cls-2" d="M11.5,9a8.26,8.26,0,0,1,0,1c0,.39-.19.46-.19.46s-.19,0-.23,0c-.19-.18,0-.83-.86-.81a.66.66,0,0,0-.53.25.73.73,0,0,0-.17.51c0,.09-.06.07-.1.07H7.83s-.06,0-.06-.08A.73.73,0,0,0,7,9.61a.66.66,0,0,0-.54.28C6.34,10,6.31,10,6,9.75a.75.75,0,0,0-.35-.14.79.79,0,0,0-.83.83H4.6s0,0,0-.06a1.22,1.22,0,0,1,0-.2,3.45,3.45,0,0,1,0-.49c.09-.39.58-1.56.7-1.46l1.09.84.61.26a7.72,7.72,0,0,0,.93-.09L8.77,9s.12-.61.24-1c0-.06.26,0,.45,0a2.27,2.27,0,0,1,0-.45h1.26a.24.24,0,0,1,.21.14A8.15,8.15,0,0,1,11.5,9Z"/><polygon class="cls-2" points="8.9 7.99 8.66 8.94 7.91 9.13 6.97 9.24 6.39 8.98 5.02 7.89 4.48 7.02 4.95 6.13 6.48 6.34 8 6.94 8.64 7.54 8.9 7.99"/><polygon class="cls-3" points="9.75 7.89 9.77 8.76 11.16 8.79 10.76 7.89 9.75 7.89"/></svg>