<svg id="Layer_1" data-name="Layer 1" xmlns="http://www.w3.org/2000/svg" viewBox="0 0 16 16"><defs><style>.cls-1,.cls-3{fill:#fff;}.cls-1{stroke:#231f20;stroke-miterlimit:10;}.cls-2{fill:#231f20;}</style></defs><circle class="cls-1" cx="8" cy="8" r="6.75"/><polygon class="cls-2" points="4.64 7.08 4.64 6.56 5.17 6.03 7.29 6.03 7.29 4.54 8 4.02 8.71 4.52 8.71 6.03 10.85 6.03 11.35 6.54 11.35 7.08 4.64 7.08"/><polyline class="cls-2" points="5.33 7.46 10.97 7.46 10.97 9.48 11.52 10.27 11.52 11.01 4.82 11.01 4.82 10.24 5.38 9.48 5.39 7.46"/><rect class="cls-3" x="6.4" y="7.86" width="0.61" height="2.45"/><rect class="cls-3" x="7.94" y="7.86" width="0.61" height="2.45"/><rect class="cls-3" x="9.45" y="7.86" width="0.62" height="2.45"/><circle class="cls-3" cx="8" cy="5.09" r="0.46"/></svg>