<svg id="Layer_1" data-name="Layer 1" xmlns="http://www.w3.org/2000/svg" viewBox="0 0 16 16"><defs><style>.cls-1,.cls-3{fill:#fff;}.cls-1{stroke:#231f20;stroke-miterlimit:10;}.cls-2{fill:#231f20;}</style></defs><circle class="cls-1" cx="8.11" cy="8" r="6.75"/><path class="cls-2" d="M7.85,6.83v0"/><polygon class="cls-2" points="7.96 3.74 7.96 3.3 8.27 3.3 8.27 3.74 8.72 3.74 8.72 4.04 8.27 4.04 8.27 5.22 7.96 5.22 7.96 4.04 7.5 4.04 7.5 3.74 7.96 3.74"/><path class="cls-2" d="M5.33,11.5h5.55v-4L8.12,5.33,5.36,7.43Z"/><path class="cls-3" d="M7.68,11.27H8.6c0-.13,0-.32,0-.56a2.31,2.31,0,0,0,0-.53,1,1,0,0,0-.45-.54,1,1,0,0,0-.43.55,2.07,2.07,0,0,0,0,.56C7.68,11,7.68,11.15,7.68,11.27Z"/><path class="cls-3" d="M7.67,10.45H8.6v1.06H7.67Z"/><path class="cls-2" d="M5.16,7.45l3-2.26,3,2.33.16-.21L8.12,4.86,5,7.22Z"/></svg>