<svg id="Layer_1" data-name="Layer 1" xmlns="http://www.w3.org/2000/svg" viewBox="0 0 16 16"><defs><style>.cls-1,.cls-3{fill:#fff;}.cls-1{stroke:#231f20;stroke-miterlimit:10;stroke-width:0.8px;}.cls-2{fill:#231f20;}</style></defs><circle class="cls-1" cx="8" cy="8" r="7.41"/><polygon class="cls-2" points="2.46 6.38 2.46 5.53 3.32 4.67 6.77 4.67 6.77 2.25 7.94 1.39 9.1 2.2 9.1 4.68 12.6 4.68 13.41 5.51 13.41 6.38 2.46 6.38"/><polyline class="cls-2" points="3.37 6.58 12.59 6.58 12.59 9.88 13.49 11.16 13.49 12.38 2.54 12.38 2.54 11.12 3.46 9.88 3.48 6.58"/><rect class="cls-3" x="5.01" y="7.23" width="1" height="4"/><rect class="cls-3" x="7.43" y="7.15" width="1" height="4"/><rect class="cls-3" x="9.91" y="7.15" width="1.01" height="4"/><circle class="cls-3" cx="7.93" cy="3.13" r="0.89"/></svg>