<svg id="Layer_1" data-name="Layer 1" xmlns="http://www.w3.org/2000/svg" viewBox="0 0 16 16"><defs><style>.cls-1,.cls-3{fill:#fff;}.cls-1{stroke:#231f20;stroke-miterlimit:10;}.cls-2{fill:#231f20;}</style></defs><circle class="cls-1" cx="8" cy="8" r="6.75"/><path class="cls-2" d="M4.75,10.84a.19.19,0,0,1-.13-.2c0-.17,0-.41,0-.41a.61.61,0,0,1,.13-.36,7.12,7.12,0,0,0,.46-.74,4.37,4.37,0,0,0,.26-.49A2.11,2.11,0,0,0,5.58,8c0-.15-.07-.39-.2-.42s0,0-.06,0H5.14A.18.18,0,0,1,5,7.48.18.18,0,0,1,5,7.29l.08-.1V6.67h.36l.07-.56h.08c.11,0,.14,0,.22.08L6,6.4h5.77V7h-.3v.63s0,.18-.13.21-2,0-2,0l-.08,0-.13.07a.22.22,0,0,0,0,.13.94.94,0,0,1-.1.48.52.52,0,0,1-.3.2,1,1,0,0,1-.41.07H7.74c-.22,0-.31,0-.35-.08l-.06,0c-.07,0-.12.08-.12.08s-.59,1.57-.57,1.64-.08.41-.14.41Z"/><path class="cls-3" d="M7.72,7.77a.41.41,0,0,0-.32.4.46.46,0,0,0,.1.3c.08.11.23.13.45.14a1.7,1.7,0,0,0,.49,0,.41.41,0,0,0,.2-.76.38.38,0,0,0-.22-.06H8.17s-.1.06-.09.13,0,.49,0,.49a.2.2,0,0,1-.13,0s-.09-.07-.14-.16A1.2,1.2,0,0,1,7.72,7.77Z"/></svg>