<svg id="Layer_1" data-name="Layer 1" xmlns="http://www.w3.org/2000/svg" viewBox="0 0 16 16"><defs><style>.cls-1,.cls-3{fill:#fff;}.cls-1{stroke:#231f20;stroke-miterlimit:10;}.cls-2{fill:#231f20;}</style></defs><circle class="cls-1" cx="8" cy="8" r="6.75"/><path class="cls-2" d="M4,11.39a.24.24,0,0,1-.17-.25,3.93,3.93,0,0,0,0-.51A.73.73,0,0,1,4,10.19a8.67,8.67,0,0,0,.55-.91,6.54,6.54,0,0,0,.32-.6A2.51,2.51,0,0,0,5,7.93c0-.18-.08-.48-.24-.52h-.3a.23.23,0,0,1-.24-.16A.21.21,0,0,1,4.29,7l.09-.13V6.25h.44l.09-.68H5c.12,0,.16,0,.26.09l.23.26h7.1v.73h-.38v.77s0,.23-.16.26-2.51,0-2.51,0l-.11.05c-.08,0-.13.06-.15.09a.24.24,0,0,0,0,.16,1,1,0,0,1-.12.59.71.71,0,0,1-.38.25,1.7,1.7,0,0,1-.49.08H7.64c-.28,0-.39-.05-.44-.1a.09.09,0,0,0-.07,0c-.08,0-.15.09-.15.09s-.73,1.93-.7,2-.1.51-.18.51Z"/><path class="cls-3" d="M7.61,7.61a.5.5,0,0,0-.39.49.56.56,0,0,0,.11.37c.11.13.29.15.56.18a2.75,2.75,0,0,0,.61,0A.52.52,0,0,0,9,8.22a.55.55,0,0,0-.23-.55.57.57,0,0,0-.27-.06h-.3s-.13.07-.12.16,0,.6,0,.6a.29.29,0,0,1-.16,0,.39.39,0,0,1-.17-.2A1.38,1.38,0,0,1,7.61,7.61Z"/></svg>