<svg id="Layer_1" data-name="Layer 1" xmlns="http://www.w3.org/2000/svg" viewBox="0 0 16 16"><defs><style>.cls-1{fill:#fff;stroke:#231f20;stroke-miterlimit:10;stroke-width:0.8px;}.cls-2{fill:#231f20;}</style></defs><circle class="cls-1" cx="8" cy="8" r="6.75"/><path class="cls-2" d="M10.2,8.08a8.53,8.53,0,0,0-1,1.41c0,.23-.09,1.55-.09,1.55H9.05s-.31-1.61-.32-1.77a14.66,14.66,0,0,1-1.92,0l0,1.75H6.66a17.38,17.38,0,0,1-.31-1.77H5.66l0,.3a4.44,4.44,0,0,1-.3.46,6.77,6.77,0,0,0,.05,1H5.22a5.24,5.24,0,0,1-.28-1c0-.11.16-.28.16-.31a8.68,8.68,0,0,0-.16-.93,8.16,8.16,0,0,1,0-1.9l.1-.12a1.25,1.25,0,0,1,.77-.44l.68.1a1.26,1.26,0,0,0,.33,0,5.22,5.22,0,0,0,.89,0,2.79,2.79,0,0,1,.84-.15,4.71,4.71,0,0,1,.56.24h.74V6.06a1,1,0,0,1,.23.27c0,.11.21-.65,1-.56l.16,0s-.66.25-.66.54a13,13,0,0,0,1.14,1c.09,0,.23-.09.28,0a1.59,1.59,0,0,1,0,.49.28.28,0,0,1-.22.2,5.09,5.09,0,0,1-.69,0l-.9.08h-.07"/></svg>