<svg id="Layer_1" data-name="Layer 1" xmlns="http://www.w3.org/2000/svg" viewBox="0 0 16 16"><defs><style>.cls-1{fill:#fff;stroke:#231f20;stroke-miterlimit:10;stroke-width:0.8px;}.cls-2{fill:#231f20;}</style></defs><circle class="cls-1" cx="8" cy="8.09" r="7.41"/><path class="cls-2" d="M2.25,9.65l.28-5.76s4.64-2.06,5,.5v5A5.46,5.46,0,0,0,2.25,9.65Z"/><path class="cls-2" d="M13.75,9.65l-.28-5.76s-4.64-2.06-5,.5v5A5.46,5.46,0,0,1,13.75,9.65Z"/><path class="cls-2" d="M1.89,11.3l0-.81c1.67-1.26,3.57-1.64,4.81-.9a2.57,2.57,0,0,1,.85.82l1,0a2.39,2.39,0,0,1,.87-.82,3.48,3.48,0,0,1,2.48-.07,6.5,6.5,0,0,1,2.27,1l0,.81c-.25-.18-2.38-1.69-4.11-.89a2.22,2.22,0,0,0-.61.39v.64H6.59l0-.68a3.17,3.17,0,0,0-1.09-.53A4.28,4.28,0,0,0,1.89,11.3Z"/></svg>