<svg id="Layer_1" data-name="Layer 1" xmlns="http://www.w3.org/2000/svg" viewBox="0 0 16 16"><defs><style>.cls-1,.cls-3{fill:#fff;}.cls-1{stroke:#231f20;stroke-miterlimit:10;stroke-width:0.8px;}.cls-2{fill:#ed1c24;}</style></defs><circle class="cls-1" cx="8" cy="8.09" r="7.41"/><polygon class="cls-2" points="1.13 9.04 1.13 7.86 2.86 6.93 2.86 6.03 2.98 5.93 3.58 5.93 3.68 6.02 3.68 6.43 7.55 4.13 7.55 3.19 7.71 3.04 8.19 3.04 8.37 3.12 8.37 4.15 12.24 6.46 12.24 6.12 12.38 6.04 13.03 6.04 13.14 6.14 13.14 6.95 14.87 7.97 14.87 9.13 13.09 8.18 13.07 12.13 2.86 12.13 2.86 8.07 1.13 9.04"/><polygon class="cls-3" points="3.56 7.71 7.67 5.3 7.67 11.88 6.93 11.85 6.93 8.94 7.2 8.94 7.19 8.59 4.95 8.59 4.95 8.95 5.21 8.93 5.22 11.85 3.56 11.88 3.56 7.71"/><polygon class="cls-3" points="8.23 5.3 8.23 11.88 12.2 11.88 12.2 7.66 8.23 5.3"/><polygon class="cls-2" points="9.03 10.08 9.03 8.81 8.78 8.81 8.78 8.45 11.65 8.45 11.65 8.85 11.37 8.85 11.38 10.08 9.03 10.08"/></svg>