<svg id="Layer_1" data-name="Layer 1" xmlns="http://www.w3.org/2000/svg" viewBox="0 0 16 16"><defs><style>.cls-1{fill:#fff;stroke:#231f20;stroke-miterlimit:10;}.cls-2{fill:#231f20;}</style></defs><circle class="cls-1" cx="8" cy="8" r="6.75"/><path class="cls-2" d="M10.23,8.05A9.88,9.88,0,0,0,9.16,9.59c0,.26-.1,1.7-.1,1.7H9s-.34-1.76-.35-1.94a17.22,17.22,0,0,1-2.1,0l0,1.91H6.35A17.71,17.71,0,0,1,6,9.35H5.26l-.06.33a4,4,0,0,1-.33.51,10,10,0,0,0,.06,1.11H4.78a5.18,5.18,0,0,1-.31-1.08,3.6,3.6,0,0,0,.17-.33s-.11-.82-.17-1a9.16,9.16,0,0,1,0-2.08l.11-.14a1.36,1.36,0,0,1,.84-.47l.75.11a1.57,1.57,0,0,0,.37,0,5.19,5.19,0,0,0,1,0,2.94,2.94,0,0,1,.91-.16,4.29,4.29,0,0,1,.61.26h.81V5.84a1,1,0,0,1,.26.29c0,.12.23-.71,1.07-.61l.18,0s-.73.27-.72.59A15.45,15.45,0,0,0,11.9,7.2c.1,0,.25-.09.31,0a1.61,1.61,0,0,1,0,.54A.31.31,0,0,1,12,8a6.17,6.17,0,0,1-.76,0l-1,.09h-.08"/></svg>