<svg id="Layer_1" data-name="Layer 1" xmlns="http://www.w3.org/2000/svg" viewBox="0 0 16 16"><defs><style>.cls-1{fill:#fff;stroke:#231f20;stroke-miterlimit:10;stroke-width:0.8px;}.cls-2{fill:#231f20;}</style></defs><circle class="cls-1" cx="8" cy="8" r="7.41"/><path class="cls-2" d="M11.65,7.84A15.08,15.08,0,0,0,10,10.25c0,.4-.16,2.65-.16,2.65H9.69s-.54-2.75-.55-3a28.18,28.18,0,0,1-3.28,0l-.07,3h-.2a27.42,27.42,0,0,1-.51-3l-1.18,0-.09.51a8.21,8.21,0,0,1-.52.8,14,14,0,0,0,.09,1.73H3.15a8.67,8.67,0,0,1-.49-1.68c.07-.18.27-.46.27-.52a15.06,15.06,0,0,0-.27-1.59,14.48,14.48,0,0,1,.06-3.26l.17-.2A2.17,2.17,0,0,1,4.2,4.9l1.16.17a1.79,1.79,0,0,0,.57.07,8.47,8.47,0,0,0,1.52,0,4.66,4.66,0,0,1,1.43-.25,5.79,5.79,0,0,1,.95.41H11.1V4.39a1.39,1.39,0,0,1,.39.46c.07.18.36-1.11,1.68-.95a1.51,1.51,0,0,1,.28.05c.06,0-1.13.42-1.13.92a24.43,24.43,0,0,0,1.94,1.65c.16,0,.39-.14.48,0a2.59,2.59,0,0,1,0,.84.48.48,0,0,1-.37.35,11.19,11.19,0,0,1-1.18,0s-1.09.11-1.54.13h-.12"/></svg>