<svg id="Layer_1" data-name="Layer 1" xmlns="http://www.w3.org/2000/svg" viewBox="0 0 16 16"><defs><style>.cls-1,.cls-3{fill:#fff;}.cls-1{stroke:#231f20;stroke-miterlimit:10;stroke-width:0.8px;}.cls-2{fill:#231f20;}</style></defs><circle class="cls-1" cx="8" cy="8" r="6.75"/><path class="cls-2" d="M4.12,10.83A.23.23,0,0,1,4,10.6c0-.19,0-.47,0-.47a.6.6,0,0,1,.15-.4,9.13,9.13,0,0,0,.51-.83,5.51,5.51,0,0,0,.29-.55,2.38,2.38,0,0,0,.13-.69c0-.16-.08-.44-.22-.47a.08.08,0,0,0-.07,0H4.55A.22.22,0,0,1,4.33,7a.22.22,0,0,1,.09-.21l.09-.11V6.13h.4L5,5.5h.1c.11,0,.14,0,.24.09l.21.24H12V6.5h-.34v.7s0,.21-.15.24-2.3,0-2.3,0l-.1,0A.43.43,0,0,0,9,7.56a.21.21,0,0,0,0,.15,1,1,0,0,1-.12.54.65.65,0,0,1-.34.23,1.93,1.93,0,0,1-.45.07H7.48c-.25,0-.35-.05-.39-.09a.11.11,0,0,0-.07,0c-.08,0-.13.08-.13.08s-.67,1.77-.65,1.86-.09.46-.16.46Z"/><path class="cls-3" d="M7.45,7.37a.46.46,0,0,0-.35.45.59.59,0,0,0,.1.34c.1.12.27.14.51.16a2.3,2.3,0,0,0,.56,0,.46.46,0,0,0,.43-.36.48.48,0,0,0-.21-.5.45.45,0,0,0-.24-.06H8s-.12.07-.11.15,0,.54,0,.54a.17.17,0,0,1-.14,0,.3.3,0,0,1-.16-.17A1.62,1.62,0,0,1,7.45,7.37Z"/></svg>