<svg id="Layer_1" data-name="Layer 1" xmlns="http://www.w3.org/2000/svg" viewBox="0 0 16 16"><defs><style>.cls-1,.cls-3{fill:#fff;}.cls-1{stroke:#231f20;stroke-miterlimit:10;stroke-width:0.8px;}.cls-2{fill:#ed1c24;}</style></defs><circle class="cls-1" cx="8" cy="8.09" r="7.41"/><polygon class="cls-2" points="1.89 9.29 1.89 8.25 3.43 7.42 3.43 6.62 3.54 6.53 4.07 6.53 4.16 6.61 4.16 6.98 7.6 4.93 7.6 4.09 7.75 3.96 8.17 3.96 8.33 4.03 8.33 4.94 11.77 7 11.77 6.7 11.9 6.62 12.48 6.62 12.57 6.72 12.57 7.43 14.11 8.34 14.11 9.38 12.52 8.53 12.51 12.04 3.42 12.04 3.42 8.43 1.89 9.29"/><polygon class="cls-3" points="4.05 8.11 7.7 5.97 7.7 11.82 7.05 11.79 7.05 9.21 7.29 9.21 7.28 8.9 5.29 8.9 5.29 9.21 5.52 9.2 5.53 11.79 4.05 11.82 4.05 8.11"/><polygon class="cls-3" points="8.2 5.97 8.2 11.82 11.73 11.82 11.73 8.06 8.2 5.97"/><polygon class="cls-2" points="8.92 10.21 8.92 9.09 8.69 9.09 8.69 8.77 11.24 8.77 11.24 9.12 11 9.12 11.01 10.21 8.92 10.21"/></svg>