<svg id="Layer_1" data-name="Layer 1" xmlns="http://www.w3.org/2000/svg" viewBox="0 0 16 16"><defs><style>.cls-1,.cls-3{fill:#fff;}.cls-1{stroke:#231f20;stroke-miterlimit:10;stroke-width:0.8px;}.cls-2{fill:#231f20;}</style></defs><circle class="cls-1" cx="8" cy="8" r="6.75"/><polygon class="cls-2" points="4.35 7.54 4.35 6.98 4.91 6.42 7.15 6.42 7.15 4.84 7.91 4.29 8.67 4.81 8.67 6.42 10.94 6.42 11.47 6.97 11.47 7.54 4.35 7.54"/><polyline class="cls-2" points="5.07 7.94 11.07 7.94 11.07 10.09 11.65 10.92 11.65 11.71 4.53 11.71 4.53 10.89 5.13 10.09 5.14 7.94"/><rect class="cls-3" x="6.22" y="8.36" width="0.65" height="2.6"/><rect class="cls-3" x="7.85" y="8.36" width="0.65" height="2.6"/><rect class="cls-3" x="9.46" y="8.36" width="0.66" height="2.6"/><circle class="cls-3" cx="7.91" cy="5.42" r="0.49"/></svg>