<svg id="Layer_1" data-name="Layer 1" xmlns="http://www.w3.org/2000/svg" viewBox="0 0 16 16"><defs><style>.cls-1,.cls-3{fill:#fff;}.cls-1{stroke:#231f20;stroke-miterlimit:10;stroke-width:0.8px;}.cls-2{fill:#231f20;}</style></defs><circle class="cls-1" cx="8.02" cy="8" r="7.41"/><path class="cls-2" d="M2.8,12.43a.32.32,0,0,1-.22-.34c0-.27,0-.67,0-.67a1,1,0,0,1,.22-.59,10.72,10.72,0,0,0,.74-1.21A8.28,8.28,0,0,0,4,8.82a3.48,3.48,0,0,0,.18-1c0-.24-.1-.65-.32-.7H3.44a.29.29,0,0,1-.32-.21.28.28,0,0,1,.12-.3l.13-.17V5.58H4l.12-.91h.14c.16,0,.21,0,.35.12l.3.35h9.47v1h-.5v1s0,.3-.22.35-3.35,0-3.35,0l-.14.06a.6.6,0,0,0-.21.12.35.35,0,0,0,0,.21,1.43,1.43,0,0,1-.16.8,1,1,0,0,1-.5.33,2.41,2.41,0,0,1-.66.1,7.54,7.54,0,0,1-.85,0C7.34,9.1,7.19,9,7.13,9a.19.19,0,0,0-.1,0c-.11,0-.19.12-.19.12s-1,2.58-1,2.7-.12.67-.23.67Z"/><path class="cls-3" d="M7.67,7.39a.67.67,0,0,0-.52.66.75.75,0,0,0,.15.49c.15.17.39.2.74.23a3,3,0,0,0,.82,0,.72.72,0,0,0,.63-.54.71.71,0,0,0-.31-.72.66.66,0,0,0-.36-.09H8.41s-.16.1-.15.23,0,.79,0,.79a.33.33,0,0,1-.21,0c-.09,0-.16-.1-.23-.26A1.85,1.85,0,0,1,7.67,7.39Z"/></svg>