<svg id="Layer_1" data-name="Layer 1" xmlns="http://www.w3.org/2000/svg" viewBox="0 0 16 16"><defs><style>.cls-1{fill:#fff;stroke:#231f20;stroke-miterlimit:10;}.cls-2{fill:#231f20;}</style></defs><circle class="cls-1" cx="8.07" cy="8" r="6.75"/><path class="cls-2" d="M4.9,9.56l.15-3.23s2.52-1.15,2.71.28V9.44A2.85,2.85,0,0,0,4.9,9.56Z"/><path class="cls-2" d="M11.25,9.56,11.1,6.33s-2.52-1.15-2.71.28V9.44A2.85,2.85,0,0,1,11.25,9.56Z"/><path class="cls-2" d="M4.77,11v-.46A2.41,2.41,0,0,1,7.37,10a1.58,1.58,0,0,1,.46.45h.51A1.37,1.37,0,0,1,8.81,10a1.86,1.86,0,0,1,1.35,0,3.56,3.56,0,0,1,1.23.56V11c-.14-.11-1.29-1-2.23-.51a1.42,1.42,0,0,0-.33.23V11H7.32l0-.38a1.72,1.72,0,0,0-.59-.3A2.27,2.27,0,0,0,4.77,11Z"/></svg>