<svg id="Layer_1" data-name="Layer 1" xmlns="http://www.w3.org/2000/svg" viewBox="0 0 16 16"><defs><style>.cls-1,.cls-3{fill:#fff;}.cls-1{stroke:#231f20;stroke-miterlimit:10;stroke-width:0.8px;}.cls-2{fill:#231f20;}</style></defs><circle class="cls-1" cx="8.02" cy="8.08" r="7.41"/><circle class="cls-2" cx="4.3" cy="10.88" r="0.98"/><circle class="cls-2" cx="6.55" cy="10.88" r="0.98"/><circle class="cls-2" cx="11.59" cy="10.88" r="0.98"/><path class="cls-2" d="M13.53,8.75a11.48,11.48,0,0,1,0,1.56c0,.61-.3.72-.3.72s-.29,0-.35,0c-.3-.28-.05-1.3-1.34-1.26a1,1,0,0,0-.83.39,1.16,1.16,0,0,0-.26.79c0,.14-.1.11-.16.11H7.82a.1.1,0,0,1-.1-.12A1.14,1.14,0,0,0,6.46,9.73a1.06,1.06,0,0,0-.85.43c-.13.14-.17.19-.66-.21a1.18,1.18,0,0,0-.55-.22A1.21,1.21,0,0,0,3.11,11H2.78s-.08,0-.09-.09v-.31a4.65,4.65,0,0,1,0-.76c.14-.62.89-2.44,1.09-2.29l1.7,1.32.95.41a13.55,13.55,0,0,0,1.45-.15l1.4-.34s.19-.94.38-1.58c0-.09.4-.06.7-.05a4.29,4.29,0,0,1,0-.71h2a.38.38,0,0,1,.34.21A14.79,14.79,0,0,1,13.53,8.75Z"/><polygon class="cls-2" points="9.47 7.21 9.1 8.69 7.93 8.98 6.47 9.16 5.57 8.75 3.44 7.04 2.6 5.7 3.33 4.3 5.71 4.64 8.08 5.57 9.07 6.51 9.47 7.21"/><polygon class="cls-3" points="10.8 7.04 10.83 8.41 13 8.45 12.37 7.04 10.8 7.04"/></svg>