<svg id="Layer_1" data-name="Layer 1" xmlns="http://www.w3.org/2000/svg" viewBox="0 0 16 16"><defs><style>.cls-1,.cls-3{fill:#fff;}.cls-1{stroke:#231f20;stroke-miterlimit:10;}.cls-2{fill:#231f20;}</style></defs><circle class="cls-1" cx="8" cy="8" r="6.75"/><polygon class="cls-2" points="3.76 6.83 3.76 6.19 4.42 5.54 7.02 5.54 7.02 3.71 7.9 3.06 8.77 3.67 8.77 5.54 11.41 5.54 12.02 6.17 12.02 6.83 3.76 6.83"/><polyline class="cls-2" points="4.6 7.3 11.56 7.3 11.56 9.79 12.24 10.76 12.24 11.68 3.98 11.68 3.98 10.73 4.67 9.79 4.68 7.3"/><rect class="cls-3" x="5.93" y="7.79" width="0.75" height="3.02"/><rect class="cls-3" x="7.82" y="7.79" width="0.75" height="3.02"/><rect class="cls-3" x="9.69" y="7.79" width="0.76" height="3.02"/><circle class="cls-3" cx="7.89" cy="4.38" r="0.57"/></svg>