<svg id="Layer_1" data-name="Layer 1" xmlns="http://www.w3.org/2000/svg" viewBox="0 0 16 16"><defs><style>.cls-1{fill:#fff;stroke:#231f20;stroke-miterlimit:10;}.cls-2{fill:#231f20;}</style></defs><circle class="cls-1" cx="8" cy="8" r="6.75"/><path class="cls-2" d="M9.06,9.45C9,9.67,9,10.93,9,10.93H8.89s-.3-1.54-.31-1.69c0,0-1.7,0-1.83,0l0,1.67H6.6a16.24,16.24,0,0,1-.3-1.69H5.64l0,.28A4.18,4.18,0,0,1,5.3,10a7.68,7.68,0,0,0,0,1H5.22A4.82,4.82,0,0,1,5,10c0-.1.15-.26.15-.29A7.57,7.57,0,0,0,5,8.8,8,8,0,0,1,5,7l.1-.12a1.24,1.24,0,0,1,.73-.42l.66.1a1.21,1.21,0,0,0,.32,0,4.77,4.77,0,0,0,.85,0,2.53,2.53,0,0,1,.8-.14A3.42,3.42,0,0,1,9,6.67h.71V6.16a.82.82,0,0,1,.22.25c0,.11.2-.61.94-.53l.16,0s-.64.23-.63.52a13.21,13.21,0,0,0,1.08.92c.09,0,.23-.08.28,0a1.46,1.46,0,0,1,0,.47.28.28,0,0,1-.22.2c-.17,0-.66,0-.66,0s-.61.06-.86.07H9.92A8.52,8.52,0,0,0,9.06,9.45Z"/><path class="cls-2" d="M8.66,10.93H8.55L8.23,9.25h.46Z"/></svg>