<svg id="Layer_1" data-name="Layer 1" xmlns="http://www.w3.org/2000/svg" viewBox="0 0 16 16"><defs><style>.cls-1{fill:#fff;stroke:#231f20;stroke-miterlimit:10;}.cls-2{fill:#231f20;}</style></defs><circle class="cls-1" cx="8.07" cy="8" r="6.75"/><path class="cls-2" d="M4.08,9.36l.19-4s3.16-1.45,3.41.34V9.21A3.62,3.62,0,0,0,4.08,9.36Z"/><path class="cls-2" d="M12.06,9.36l-.19-4s-3.16-1.45-3.41.34V9.21A3.62,3.62,0,0,1,12.06,9.36Z"/><path class="cls-2" d="M3.92,11.13v-.57a3,3,0,0,1,3.27-.63,1.8,1.8,0,0,1,.58.57l.65,0A1.61,1.61,0,0,1,9,9.91a2.3,2.3,0,0,1,1.69-.05,4.32,4.32,0,0,1,1.54.7v.57c-.17-.13-1.62-1.19-2.79-.63a1.3,1.3,0,0,0-.41.28v.45H7.12l0-.48a2.2,2.2,0,0,0-.75-.38A2.89,2.89,0,0,0,3.92,11.13Z"/></svg>