<svg id="Layer_1" data-name="Layer 1" xmlns="http://www.w3.org/2000/svg" viewBox="0 0 16 16"><defs><style>.cls-1{fill:#fff;stroke:#231f20;stroke-miterlimit:10;}.cls-2{fill:#231f20;}</style></defs><circle class="cls-1" cx="8.07" cy="8" r="6.75"/><polygon class="cls-2" points="5.46 9.59 5.54 6.94 6.03 7.18 6.03 9.59 5.46 9.59"/><circle class="cls-2" cx="5.74" cy="8.53" r="0.76"/><polygon class="cls-2" points="4.48 6.41 8.34 4.69 12.18 6.51 8.33 8.35 5.54 6.94 4.48 6.41"/><path class="cls-2" d="M5.45,9.55C5,11,5.21,11.24,5.31,11.29s.06,0,.17,0H6.2a.23.23,0,0,0,.13,0c.32-.22-.2-1.46-.31-1.72Z"/><path class="cls-2" d="M7,10.6a2.76,2.76,0,0,0,.46.15,3.94,3.94,0,0,0,1.61.07,2.12,2.12,0,0,0,.71-.34,2.16,2.16,0,0,0,.7-.85V7.87l-2.23,1L7,8.32a1,1,0,0,1,0,.43,1,1,0,0,1-.39.55,1.89,1.89,0,0,1,.26.44A1.74,1.74,0,0,1,7,10.6Z"/></svg>