<svg id="Layer_1" data-name="Layer 1" xmlns="http://www.w3.org/2000/svg" viewBox="0 0 16 16"><defs><style>.cls-1,.cls-3{fill:#fff;}.cls-1{stroke:#231f20;stroke-miterlimit:10;}.cls-2{fill:#ed1c24;}</style></defs><circle class="cls-1" cx="8.07" cy="8" r="6.75"/><polygon class="cls-2" points="2.97 8.84 2.97 7.99 4.24 7.31 4.24 6.66 4.33 6.59 4.77 6.59 4.84 6.65 4.84 6.95 7.67 5.28 7.67 4.6 7.79 4.49 8.14 4.49 8.27 4.55 8.27 5.29 11.1 6.97 11.1 6.72 11.21 6.66 11.68 6.66 11.76 6.74 11.76 7.32 13.03 8.06 13.03 8.91 11.72 8.22 11.71 11.08 4.24 11.08 4.24 8.13 2.97 8.84"/><polygon class="cls-3" points="4.75 7.87 7.75 6.13 7.75 10.9 7.22 10.88 7.21 8.77 7.41 8.77 7.41 8.52 5.76 8.52 5.77 8.77 5.96 8.76 5.97 10.88 4.75 10.9 4.75 7.87"/><polygon class="cls-3" points="8.16 6.13 8.16 10.9 11.07 10.9 11.07 7.84 8.16 6.13"/><polygon class="cls-2" points="8.76 9.59 8.76 8.67 8.57 8.67 8.57 8.41 10.67 8.41 10.67 8.7 10.47 8.7 10.48 9.59 8.76 9.59"/></svg>