<svg id="Layer_1" data-name="Layer 1" xmlns="http://www.w3.org/2000/svg" viewBox="0 0 16 16"><defs><style>.cls-1,.cls-3{fill:#fff;}.cls-1{stroke:#231f20;stroke-miterlimit:10;}.cls-2{fill:#231f20;}</style></defs><circle class="cls-1" cx="8" cy="8.13" r="6.75"/><circle class="cls-2" cx="5.26" cy="10.16" r="0.71"/><circle class="cls-2" cx="6.89" cy="10.16" r="0.71"/><circle class="cls-2" cx="10.55" cy="10.16" r="0.71"/><path class="cls-2" d="M12,8.62a7,7,0,0,1,0,1.13c0,.44-.21.52-.21.52a.66.66,0,0,1-.26,0c-.22-.2,0-.94-1-.91a.72.72,0,0,0-.6.28.86.86,0,0,0-.19.57c0,.11-.07.09-.11.09H7.81a.07.07,0,0,1-.07-.08.82.82,0,0,0-.91-.85.76.76,0,0,0-.62.31c-.09.1-.13.13-.48-.15a.89.89,0,0,0-.4-.17.89.89,0,0,0-.93.94H4.16s-.06,0-.06-.06a1.58,1.58,0,0,1,0-.23,3,3,0,0,1,0-.55c.1-.45.65-1.77.79-1.66l1.24,1s.61.28.69.3a9.51,9.51,0,0,0,1-.11l1-.24S9,8,9.14,7.51c0-.06.3,0,.51,0a2.91,2.91,0,0,1,0-.51H11.1a.27.27,0,0,1,.25.15A10.91,10.91,0,0,1,12,8.62Z"/><polygon class="cls-2" points="9.01 7.5 8.74 8.57 7.89 8.79 6.84 8.91 6.18 8.62 4.63 7.38 4.03 6.4 4.56 5.39 6.29 5.63 8 6.31 8.72 6.99 9.01 7.5"/><polygon class="cls-3" points="9.97 7.38 9.99 8.37 11.57 8.4 11.12 7.38 9.97 7.38"/></svg>