<svg id="Layer_1" data-name="Layer 1" xmlns="http://www.w3.org/2000/svg" viewBox="0 0 16 16"><defs><style>.cls-1{fill:#fff;stroke:#231f20;stroke-miterlimit:10;stroke-width:0.8px;}.cls-2{fill:#231f20;}</style></defs><circle class="cls-1" cx="8.07" cy="8" r="7.41"/><polygon class="cls-2" points="4.2 10.36 4.32 6.42 5.04 6.79 5.04 10.36 4.2 10.36"/><circle class="cls-2" cx="4.62" cy="8.79" r="1.13"/><polygon class="cls-2" points="2.76 5.63 8.48 3.09 14.17 5.78 8.47 8.52 4.32 6.42 2.76 5.63"/><path class="cls-2" d="M4.2,10.29c-.62,2.18-.36,2.52-.22,2.59a.58.58,0,0,0,.26,0c.44,0,.8,0,1.06,0a.3.3,0,0,0,.2,0c.47-.32-.29-2.17-.45-2.56Z"/><path class="cls-2" d="M6.47,11.86a5.6,5.6,0,0,0,.69.22,5.68,5.68,0,0,0,2.39.1,3.28,3.28,0,0,0,1.06-.49,3.16,3.16,0,0,0,1-1.27l0-2.61L8.34,9.34,6.48,8.48a1.41,1.41,0,0,1,0,.63,1.43,1.43,0,0,1-.58.82,2.21,2.21,0,0,1,.39.66A2.54,2.54,0,0,1,6.47,11.86Z"/></svg>