<svg id="Layer_1" data-name="Layer 1" xmlns="http://www.w3.org/2000/svg" viewBox="0 0 16 16"><defs><style>.cls-1{fill:#fff;stroke:#231f20;stroke-miterlimit:10;stroke-width:0.8px;}.cls-2{fill:#231f20;}</style></defs><circle class="cls-1" cx="8" cy="8" r="7.41"/><path class="cls-2" d="M10.83,8A11.44,11.44,0,0,0,9.51,9.88c0,.31-.13,2.11-.13,2.11H9.26s-.42-2.2-.43-2.41a21.69,21.69,0,0,1-2.62,0L6.15,12H6a22.56,22.56,0,0,1-.42-2.41H4.64l-.07.4a5.78,5.78,0,0,1-.42.64A12.34,12.34,0,0,0,4.23,12H4a7.44,7.44,0,0,1-.39-1.34c.06-.14.22-.37.22-.41A11.78,11.78,0,0,0,3.65,9a11.51,11.51,0,0,1,.05-2.6l.13-.17a1.76,1.76,0,0,1,1-.6l.93.14a1.93,1.93,0,0,0,.46.06,8.06,8.06,0,0,0,1.21,0,3.45,3.45,0,0,1,1.14-.2,5.38,5.38,0,0,1,.76.33h1V5.2a1.08,1.08,0,0,1,.31.36c.06.15.29-.88,1.35-.76l.22,0c.05,0-.91.34-.9.74A20,20,0,0,0,12.92,6.9c.12,0,.31-.12.38,0a2.12,2.12,0,0,1,0,.67.37.37,0,0,1-.3.27,7.1,7.1,0,0,1-.94,0s-.87.09-1.23.11h-.1"/></svg>