<svg id="Sprites" xmlns="http://www.w3.org/2000/svg" viewBox="0 0 16 16"><defs><style>.cls-1{fill:none;}.cls-2{fill:#fff;}</style></defs><g id="building_pnt_school"><rect class="cls-1" width="16" height="16"/><circle class="cls-2" cx="8" cy="8" r="7"/><path d="M8,2A6,6,0,1,1,2,8,6,6,0,0,1,8,2M8,1a7,7,0,1,0,7,7A7,7,0,0,0,8,1Z"/><path d="M11.75,9.58V7.68L13.12,7,8,4.44,2.88,7,5.25,8.18V9.5c0,.81,1.42,1.25,2.75,1.25s2.75-.44,2.75-1.25V8.18l.5-.25V9.58A.48.48,0,0,0,11,10a.5.5,0,0,0,1,0A.48.48,0,0,0,11.75,9.58Zm-1.5-.08c0,.31-.88.75-2.25.75S5.75,9.81,5.75,9.5V8.43L8,9.56l2.25-1.13Z"/></g></svg>