<svg id="Sprites" xmlns="http://www.w3.org/2000/svg" viewBox="0 0 16 16"><defs><style>.cls-1{fill:none;}</style></defs><g id="cave_pnt_black"><rect id="bbox_16" class="cls-1" width="16" height="16"/><path id="cave" d="M14.16,11.5a11.43,11.43,0,0,1-1.67-2.68,12.58,12.58,0,0,0-1.64-2.67A3.63,3.63,0,0,0,8,5,3.63,3.63,0,0,0,5.15,6.15,12.66,12.66,0,0,0,3.5,8.83,11.7,11.7,0,0,1,1.84,11.5H1v1H15v-1ZM4.39,9.3A13.23,13.23,0,0,1,5.85,6.85,2.71,2.71,0,0,1,8,6a2.71,2.71,0,0,1,2.15.85A13.35,13.35,0,0,1,11.6,9.28a23,23,0,0,0,1.26,2.22H11A15.66,15.66,0,0,0,9,8,1.52,1.52,0,0,0,7,8a15.66,15.66,0,0,0-2,3.5H3.14C3.5,11,3.9,10.23,4.39,9.3Z"/></g></svg>