<svg id="Sprites" xmlns="http://www.w3.org/2000/svg" viewBox="0 0 64 64"><defs><style>.cls-1{fill:none;}</style></defs><g id="cemetery_poly_half"><rect id="bbox_64" class="cls-1" width="64" height="64"/><path id="cemetery" d="M4.5,4.83V2.33h-1v2.5H1v1H3.5v2.5h1V5.83H7v-1Zm16,0V2.33h-1v2.5H17v1h2.5v2.5h1V5.83H23v-1ZM9.83,15.5V13h-1v2.5H6.33v1h2.5V19h1V16.5h2.5v-1Zm16,0V13h-1v2.5h-2.5v1h2.5V19h1V16.5h2.5v-1Zm5.34,10.66v-2.5h-1v2.5h-2.5v1h2.5v2.5h1v-2.5H32v-1Zm-16,0v-2.5h-1v2.5h-2.5v1h2.5v2.5h1v-2.5h2.5v-1ZM0,26.16v1H1.67v-1Z"/><path id="cemetery-2" data-name="cemetery" d="M36.5,4.83V2.33h-1v2.5H33v1h2.5v2.5h1V5.83H39v-1Zm16,0V2.33h-1v2.5H49v1h2.5v2.5h1V5.83H55v-1ZM41.83,15.5V13h-1v2.5h-2.5v1h2.5V19h1V16.5h2.5v-1Zm16,0V13h-1v2.5h-2.5v1h2.5V19h1V16.5h2.5v-1Zm5.34,10.66v-2.5h-1v2.5h-2.5v1h2.5v2.5h1v-2.5H64v-1Zm-16,0v-2.5h-1v2.5h-2.5v1h2.5v2.5h1v-2.5h2.5v-1ZM32,26.16v1h1.67v-1Z"/><path id="cemetery-3" data-name="cemetery" d="M4.5,36.83v-2.5h-1v2.5H1v1H3.5v2.5h1v-2.5H7v-1Zm16,0v-2.5h-1v2.5H17v1h2.5v2.5h1v-2.5H23v-1ZM9.83,47.5V45h-1v2.5H6.33v1h2.5V51h1V48.5h2.5v-1Zm16,0V45h-1v2.5h-2.5v1h2.5V51h1V48.5h2.5v-1Zm5.34,10.66v-2.5h-1v2.5h-2.5v1h2.5v2.5h1v-2.5H32v-1Zm-16,0v-2.5h-1v2.5h-2.5v1h2.5v2.5h1v-2.5h2.5v-1ZM0,58.16v1H1.67v-1Z"/><path id="cemetery-4" data-name="cemetery" d="M36.5,36.83v-2.5h-1v2.5H33v1h2.5v2.5h1v-2.5H39v-1Zm16,0v-2.5h-1v2.5H49v1h2.5v2.5h1v-2.5H55v-1ZM41.83,47.5V45h-1v2.5h-2.5v1h2.5V51h1V48.5h2.5v-1Zm16,0V45h-1v2.5h-2.5v1h2.5V51h1V48.5h2.5v-1Zm5.34,10.66v-2.5h-1v2.5h-2.5v1h2.5v2.5h1v-2.5H64v-1Zm-16,0v-2.5h-1v2.5h-2.5v1h2.5v2.5h1v-2.5h2.5v-1ZM32,58.16v1h1.67v-1Z"/></g></svg>