<svg id="Sprites" xmlns="http://www.w3.org/2000/svg" viewBox="0 0 32 16"><path id="Embankment_Line" d="M1.5,6.5H.5L1,1ZM3,1,2.5,6.5h1ZM5,1,4.5,6.5h1ZM7,1,6.5,6.5h1ZM9,1,8.5,6.5h1Zm2,0-.5,5.5h1Zm2,0-.5,5.5h1Zm2,0-.5,5.5h1Zm2,0-.5,5.5h1Zm2,0-.5,5.5h1Zm2,0-.5,5.5h1Zm2,0-.5,5.5h1Zm2,0-.5,5.5h1Zm2,0-.5,5.5h1Zm2,0-.5,5.5h1Zm2,0-.5,5.5h1ZM1.5,9.5H.5l.5,5Zm2,0h-1l.5,5Zm2,0h-1l.5,5Zm2,0h-1l.5,5Zm2,0h-1l.5,5Zm2,0h-1l.5,5Zm2,0h-1l.5,5Zm2,0h-1l.5,5Zm2,0h-1l.5,5Zm2,0h-1l.5,5Zm2,0h-1l.5,5Zm2,0h-1l.5,5Zm2,0h-1l.5,5Zm2,0h-1l.5,5Zm2,0h-1l.5,5Zm2,0h-1l.5,5Z"/></svg>