<svg id="Sprites" xmlns="http://www.w3.org/2000/svg" viewBox="0 0 64 32"><defs><style>.cls-1{fill:none;}</style></defs><g id="embankment_gap_cl_black_thick"><rect id="bbox_32" class="cls-1" width="32" height="32"/><path id="embankment_gap_thick" d="M5,20H2L3.5,30Zm8,0H10l1.5,10Zm8,0H18l1.5,10Zm8,0H26l1.5,10ZM3.5,2,2,12H5Zm8,0L10,12h3Zm8,0L18,12h3Zm8,0L26,12h3Z"/></g><g id="embankment_gap_cl_black_thick-2" data-name="embankment_gap_cl_black_thick"><rect id="bbox_32-2" data-name="bbox_32" class="cls-1" x="32" width="32" height="32"/><path id="embankment_gap_thick-2" data-name="embankment_gap_thick" d="M37,20H34l1.5,10Zm8,0H42l1.5,10Zm8,0H50l1.5,10Zm8,0H58l1.5,10ZM35.5,2,34,12h3Zm8,0L42,12h3Zm8,0L50,12h3Zm8,0L58,12h3Z"/></g></svg>