<svg id="Sprites" xmlns="http://www.w3.org/2000/svg" viewBox="0 0 64 32"><defs><style>.cls-1{fill:none;}</style></defs><g id="embankment_gap_cl_black_thin"><rect id="bbox_32" class="cls-1" width="32" height="32"/><path id="embankment_gap_thin" d="M4,20H2L3,30Zm8,0H10l1,10Zm8,0H18l1,10Zm8,0H26l1,10ZM3,2,2,12H4Zm8,0L10,12h2Zm8,0L18,12h2Zm8,0L26,12h2Z"/></g><g id="embankment_gap_cl_black_thin-2" data-name="embankment_gap_cl_black_thin"><rect id="bbox_32-2" data-name="bbox_32" class="cls-1" x="32" width="32" height="32"/><path id="embankment_gap_thin-2" data-name="embankment_gap_thin" d="M36,20H34l1,10Zm8,0H42l1,10Zm8,0H50l1,10Zm8,0H58l1,10ZM35,2,34,12h2Zm8,0L42,12h2Zm8,0L50,12h2Zm8,0L58,12h2Z"/></g></svg>