<svg id="Sprites" xmlns="http://www.w3.org/2000/svg" viewBox="0 0 64 64"><defs><style>.cls-1{fill:none;}.cls-2{fill:#236035;}</style></defs><g id="exotic_non_poly_random_dense_half"><rect id="bbox_64" class="cls-1" width="32" height="32"/><path id="exotic_non_random_dense" class="cls-2" d="M1,2.37a.38.38,0,0,1,.09.25A.37.37,0,0,1,.75,3,.32.32,0,0,1,.61,3a.38.38,0,0,1-.36.28l-.13,0A.38.38,0,0,0,0,3.5v-3A.37.37,0,0,1,.25.87a.37.37,0,0,1,.37.38v0a.38.38,0,0,1,.26.35.29.29,0,0,1,0,.14.38.38,0,0,1,.27.36A.35.35,0,0,1,1,2.37ZM5,3.75a.38.38,0,0,0-.28-.36.32.32,0,0,0,0-.14A.38.38,0,0,0,4.5,2.9v0a.38.38,0,0,0-.38-.37.37.37,0,1,0-.74,0A.38.38,0,0,0,3,2.87v0a.38.38,0,0,0-.25.35.32.32,0,0,0,0,.14A.37.37,0,0,0,2.6,4a.37.37,0,0,0,.28.62L3,4.6a.38.38,0,0,0,.37.27.25.25,0,0,0,.12,0,.37.37,0,0,1,.12.27v.25h.26V5.12A.37.37,0,0,1,4,4.85a.25.25,0,0,0,.12,0,.38.38,0,0,0,.37-.27l.13,0A.37.37,0,0,0,4.9,4,.37.37,0,0,0,5,3.75ZM12.5,5a.38.38,0,0,0-.28-.36.32.32,0,0,0,0-.14A.38.38,0,0,0,12,4.15v0a.38.38,0,0,0-.38-.37.37.37,0,1,0-.74,0,.38.38,0,0,0-.38.37v0a.38.38,0,0,0-.25.35.32.32,0,0,0,0,.14.37.37,0,0,0-.18.61.37.37,0,0,0,.28.62l.13,0a.38.38,0,0,0,.37.27.25.25,0,0,0,.12,0,.37.37,0,0,1,.12.27v.25h.26V6.37a.37.37,0,0,1,.12-.27.25.25,0,0,0,.12,0A.38.38,0,0,0,12,5.85l.13,0a.37.37,0,0,0,.28-.62A.37.37,0,0,0,12.5,5ZM7.25,10A.38.38,0,0,0,7,9.64.32.32,0,0,0,7,9.5a.38.38,0,0,0-.25-.35v0a.38.38,0,0,0-.37-.37.38.38,0,1,0-.76,0,.38.38,0,0,0-.37.37v0A.38.38,0,0,0,5,9.5a.32.32,0,0,0,0,.14.37.37,0,0,0-.18.61.37.37,0,0,0-.1.25.37.37,0,0,0,.37.37l.14,0a.37.37,0,0,0,.36.27.27.27,0,0,0,.13,0,.39.39,0,0,1,.13.27v.25h.24v-.25a.39.39,0,0,1,.13-.27.27.27,0,0,0,.13,0,.38.38,0,0,0,.36-.27l.14,0a.37.37,0,0,0,.37-.37.37.37,0,0,0-.1-.25A.37.37,0,0,0,7.25,10Zm6.5,2.5a.38.38,0,0,0-.28-.36.32.32,0,0,0,0-.14.38.38,0,0,0-.25-.35v0a.38.38,0,0,0-.37-.37.38.38,0,0,0-.76,0,.38.38,0,0,0-.37.37v0a.38.38,0,0,0-.25.35.32.32,0,0,0,0,.14.37.37,0,0,0-.18.61.37.37,0,0,0-.1.25.37.37,0,0,0,.37.37l.14,0a.37.37,0,0,0,.36.27.27.27,0,0,0,.13,0,.39.39,0,0,1,.13.27v.25h.24v-.25a.39.39,0,0,1,.13-.27.27.27,0,0,0,.13,0,.38.38,0,0,0,.36-.27l.14,0a.37.37,0,0,0,.37-.37.37.37,0,0,0-.1-.25A.37.37,0,0,0,13.75,12.5ZM15.88.5a.38.38,0,0,0-.38.37.38.38,0,0,0-.38.38v0a.37.37,0,0,0-.25.35.3.3,0,0,0,0,.14.38.38,0,0,0-.28.36.36.36,0,0,0,.1.25.39.39,0,0,0-.1.25A.38.38,0,0,0,15,3a.32.32,0,0,0,.14,0,.38.38,0,0,0,.36.28l.13,0a.38.38,0,0,1,.12.27v.25H16V.52Zm-12.5,13a.38.38,0,0,0-.28-.36.59.59,0,0,0,0-.14.37.37,0,0,0-.25-.35v0a.38.38,0,0,0-.38-.37.38.38,0,1,0-.75,0,.37.37,0,0,0-.37.37v0a.38.38,0,0,0-.26.35.58.58,0,0,0,0,.14.38.38,0,0,0-.18.61.38.38,0,0,0,.28.62l.14,0a.37.37,0,0,0,.36.27.3.3,0,0,0,.13,0,.42.42,0,0,1,.12.27v.25h.25v-.25a.42.42,0,0,1,.12-.27.3.3,0,0,0,.13,0,.37.37,0,0,0,.36-.27l.14,0a.37.37,0,0,0,.28-.62A.37.37,0,0,0,3.38,13.5ZM16,8.17a.38.38,0,0,0-.28-.36.32.32,0,0,0,0-.14.38.38,0,0,0-.25-.35v0a.38.38,0,0,0-.38-.38.37.37,0,0,0-.74,0A.38.38,0,0,0,14,7.3v0a.38.38,0,0,0-.25.35.32.32,0,0,0,0,.14.38.38,0,0,0-.28.36.36.36,0,0,0,.1.25.39.39,0,0,0-.1.25.38.38,0,0,0,.38.38A.31.31,0,0,0,14,9a.39.39,0,0,0,.37.28l.12,0a.34.34,0,0,1,.12.27V9.8h.26V9.55A.34.34,0,0,1,15,9.28l.12,0A.39.39,0,0,0,15.49,9a.31.31,0,0,0,.13,0A.38.38,0,0,0,16,8.67a.39.39,0,0,0-.1-.25A.36.36,0,0,0,16,8.17ZM9.53.12A.24.24,0,0,0,9.6,0H7.15a.24.24,0,0,0,.07.12.39.39,0,0,0-.1.25A.38.38,0,0,0,7.5.75a.32.32,0,0,0,.14,0A.38.38,0,0,0,8,1l.13,0a.38.38,0,0,1,.12.27V1.5H8.5V1.25A.38.38,0,0,1,8.62,1l.13,0A.38.38,0,0,0,9.11.72a.32.32,0,0,0,.14,0A.37.37,0,0,0,9.62.37.38.38,0,0,0,9.53.12ZM9.35,15.51a.29.29,0,0,0,0-.14A.38.38,0,0,0,9.12,15v0a.37.37,0,0,0-.37-.38.38.38,0,0,0-.75,0,.38.38,0,0,0-.38.38v0a.37.37,0,0,0-.25.35.3.3,0,0,0,0,.14.38.38,0,0,0-.28.36.28.28,0,0,0,0,.13H9.6a.27.27,0,0,0,0-.13A.38.38,0,0,0,9.35,15.51Z"/><path id="exotic_non_random_dense-2" data-name="exotic_non_random_dense" class="cls-2" d="M1,18.37a.38.38,0,0,1,.09.25A.37.37,0,0,1,.75,19a.32.32,0,0,1-.14,0,.38.38,0,0,1-.36.28l-.13,0A.38.38,0,0,0,0,19.5v-3a.37.37,0,0,1,.25.35.37.37,0,0,1,.37.38v0a.38.38,0,0,1,.26.35.29.29,0,0,1,0,.14.37.37,0,0,1,.27.36A.35.35,0,0,1,1,18.37Zm4,1.38a.38.38,0,0,0-.28-.36.32.32,0,0,0,0-.14.38.38,0,0,0-.25-.35v0a.38.38,0,0,0-.38-.37.37.37,0,1,0-.74,0,.38.38,0,0,0-.38.37v0a.38.38,0,0,0-.25.35.32.32,0,0,0,0,.14A.37.37,0,0,0,2.6,20a.37.37,0,0,0,.28.62l.13,0a.38.38,0,0,0,.37.27.25.25,0,0,0,.12,0,.37.37,0,0,1,.12.27v.25h.26v-.25A.37.37,0,0,1,4,20.85a.25.25,0,0,0,.12,0,.38.38,0,0,0,.37-.27l.13,0A.37.37,0,0,0,4.9,20,.37.37,0,0,0,5,19.75ZM12.5,21a.38.38,0,0,0-.28-.36.32.32,0,0,0,0-.14.38.38,0,0,0-.25-.35v0a.38.38,0,0,0-.38-.37.37.37,0,1,0-.74,0,.38.38,0,0,0-.38.37v0a.38.38,0,0,0-.25.35.32.32,0,0,0,0,.14.37.37,0,0,0-.18.61.37.37,0,0,0,.28.62l.13,0a.38.38,0,0,0,.37.27.25.25,0,0,0,.12,0,.37.37,0,0,1,.12.27v.25h.26v-.25a.37.37,0,0,1,.12-.27.25.25,0,0,0,.12,0,.38.38,0,0,0,.37-.27l.13,0a.37.37,0,0,0,.28-.62A.37.37,0,0,0,12.5,21ZM7.25,26A.38.38,0,0,0,7,25.64a.32.32,0,0,0,0-.14.38.38,0,0,0-.25-.35v0a.38.38,0,0,0-.37-.37.38.38,0,0,0-.76,0,.38.38,0,0,0-.37.37v0A.38.38,0,0,0,5,25.5a.32.32,0,0,0,0,.14.37.37,0,0,0-.18.61.37.37,0,0,0-.1.25.37.37,0,0,0,.37.37l.14,0a.37.37,0,0,0,.36.27.27.27,0,0,0,.13,0,.39.39,0,0,1,.13.27v.25h.24v-.25a.39.39,0,0,1,.13-.27.27.27,0,0,0,.13,0,.38.38,0,0,0,.36-.27l.14,0a.37.37,0,0,0,.37-.37.37.37,0,0,0-.1-.25A.37.37,0,0,0,7.25,26Zm6.5,2.5a.38.38,0,0,0-.28-.36.32.32,0,0,0,0-.14.38.38,0,0,0-.25-.35v0a.38.38,0,0,0-.37-.37.38.38,0,1,0-.76,0,.38.38,0,0,0-.37.37v0a.38.38,0,0,0-.25.35.32.32,0,0,0,0,.14.37.37,0,0,0-.18.61.37.37,0,0,0-.1.25.37.37,0,0,0,.37.37l.14,0a.38.38,0,0,0,.36.27.27.27,0,0,0,.13,0,.39.39,0,0,1,.13.27v.25h.24v-.25a.39.39,0,0,1,.13-.27.27.27,0,0,0,.13,0,.37.37,0,0,0,.36-.27l.14,0a.37.37,0,0,0,.37-.37.37.37,0,0,0-.1-.25A.37.37,0,0,0,13.75,28.5Zm2.13-12a.38.38,0,0,0-.38.37.38.38,0,0,0-.38.38v0a.37.37,0,0,0-.25.35.3.3,0,0,0,0,.14.38.38,0,0,0-.28.36.36.36,0,0,0,.1.25.39.39,0,0,0-.1.25A.38.38,0,0,0,15,19a.32.32,0,0,0,.14,0,.38.38,0,0,0,.36.28l.13,0a.38.38,0,0,1,.12.27v.25H16V16.52Zm-12.5,13a.38.38,0,0,0-.28-.36.59.59,0,0,0,0-.14.37.37,0,0,0-.25-.35v0a.38.38,0,0,0-.38-.37.38.38,0,1,0-.75,0,.37.37,0,0,0-.37.37v0a.38.38,0,0,0-.26.35.58.58,0,0,0,0,.14.38.38,0,0,0-.18.61.38.38,0,0,0,.28.62l.14,0a.37.37,0,0,0,.36.27.3.3,0,0,0,.13,0,.42.42,0,0,1,.12.27v.25h.25v-.25a.42.42,0,0,1,.12-.27.3.3,0,0,0,.13,0,.37.37,0,0,0,.36-.27l.14,0a.37.37,0,0,0,.28-.62A.37.37,0,0,0,3.38,29.5ZM16,24.17a.38.38,0,0,0-.28-.36.32.32,0,0,0,0-.14.38.38,0,0,0-.25-.35v0a.38.38,0,0,0-.38-.38.37.37,0,0,0-.74,0,.38.38,0,0,0-.38.38v0a.38.38,0,0,0-.25.35.32.32,0,0,0,0,.14.38.38,0,0,0-.28.36.36.36,0,0,0,.1.25.39.39,0,0,0-.1.25.38.38,0,0,0,.38.38A.31.31,0,0,0,14,25a.39.39,0,0,0,.37.28l.12,0a.34.34,0,0,1,.12.27v.25h.26v-.25a.34.34,0,0,1,.12-.27l.12,0a.39.39,0,0,0,.37-.28.31.31,0,0,0,.13,0,.38.38,0,0,0,.38-.38.39.39,0,0,0-.1-.25A.36.36,0,0,0,16,24.17Zm-6.47-8A.24.24,0,0,0,9.6,16H7.15a.24.24,0,0,0,.07.12.39.39,0,0,0-.1.25.38.38,0,0,0,.38.38.32.32,0,0,0,.14,0A.38.38,0,0,0,8,17l.13,0a.38.38,0,0,1,.12.27v.25H8.5v-.25A.38.38,0,0,1,8.62,17l.13,0a.38.38,0,0,0,.36-.28.32.32,0,0,0,.14,0,.37.37,0,0,0,.37-.38A.38.38,0,0,0,9.53,16.12ZM9.35,31.51a.29.29,0,0,0,0-.14A.38.38,0,0,0,9.12,31v0a.37.37,0,0,0-.37-.38.38.38,0,0,0-.75,0,.38.38,0,0,0-.38.38v0a.37.37,0,0,0-.25.35.3.3,0,0,0,0,.14.38.38,0,0,0-.28.36.28.28,0,0,0,0,.13H9.6a.27.27,0,0,0,0-.13A.38.38,0,0,0,9.35,31.51Z"/><path id="exotic_non_random_dense-3" data-name="exotic_non_random_dense" class="cls-2" d="M17,2.37a.38.38,0,0,1,.09.25.37.37,0,0,1-.37.38.32.32,0,0,1-.14,0,.38.38,0,0,1-.36.28l-.13,0A.38.38,0,0,0,16,3.5v-3a.37.37,0,0,1,.25.35.37.37,0,0,1,.37.38v0a.38.38,0,0,1,.26.35.29.29,0,0,1,0,.14.38.38,0,0,1,.27.36A.35.35,0,0,1,17,2.37Zm4,1.38a.38.38,0,0,0-.28-.36.32.32,0,0,0,0-.14.38.38,0,0,0-.25-.35v0a.38.38,0,0,0-.38-.37.37.37,0,1,0-.74,0,.38.38,0,0,0-.38.37v0a.38.38,0,0,0-.25.35.32.32,0,0,0,0,.14A.37.37,0,0,0,18.6,4a.37.37,0,0,0,.28.62l.13,0a.38.38,0,0,0,.37.27.25.25,0,0,0,.12,0,.37.37,0,0,1,.12.27v.25h.26V5.12A.37.37,0,0,1,20,4.85a.25.25,0,0,0,.12,0,.38.38,0,0,0,.37-.27l.13,0A.37.37,0,0,0,20.9,4,.37.37,0,0,0,21,3.75ZM28.5,5a.38.38,0,0,0-.28-.36.32.32,0,0,0,0-.14A.38.38,0,0,0,28,4.15v0a.38.38,0,0,0-.38-.37.37.37,0,1,0-.74,0,.38.38,0,0,0-.38.37v0a.38.38,0,0,0-.25.35.32.32,0,0,0,0,.14.37.37,0,0,0-.18.61.37.37,0,0,0,.28.62l.13,0a.38.38,0,0,0,.37.27.25.25,0,0,0,.12,0,.37.37,0,0,1,.12.27v.25h.26V6.37a.37.37,0,0,1,.12-.27.25.25,0,0,0,.12,0A.38.38,0,0,0,28,5.85l.13,0a.37.37,0,0,0,.28-.62A.37.37,0,0,0,28.5,5Zm-5.25,5A.38.38,0,0,0,23,9.64a.32.32,0,0,0,0-.14.38.38,0,0,0-.25-.35v0a.38.38,0,0,0-.37-.37.38.38,0,1,0-.76,0,.38.38,0,0,0-.37.37v0A.38.38,0,0,0,21,9.5a.32.32,0,0,0,0,.14.37.37,0,0,0-.18.61.37.37,0,0,0-.1.25.37.37,0,0,0,.37.37l.14,0a.38.38,0,0,0,.36.27.27.27,0,0,0,.13,0,.39.39,0,0,1,.13.27v.25h.24v-.25a.39.39,0,0,1,.13-.27.27.27,0,0,0,.13,0,.37.37,0,0,0,.36-.27l.14,0a.37.37,0,0,0,.37-.37.37.37,0,0,0-.1-.25A.37.37,0,0,0,23.25,10Zm6.5,2.5a.38.38,0,0,0-.28-.36.32.32,0,0,0,0-.14.38.38,0,0,0-.25-.35v0a.38.38,0,0,0-.37-.37.38.38,0,0,0-.76,0,.38.38,0,0,0-.37.37v0a.38.38,0,0,0-.25.35.32.32,0,0,0,0,.14.37.37,0,0,0-.18.61.37.37,0,0,0-.1.25.37.37,0,0,0,.37.37l.14,0a.37.37,0,0,0,.36.27.27.27,0,0,0,.13,0,.39.39,0,0,1,.13.27v.25h.24v-.25a.39.39,0,0,1,.13-.27.27.27,0,0,0,.13,0,.38.38,0,0,0,.36-.27l.14,0a.37.37,0,0,0,.37-.37.37.37,0,0,0-.1-.25A.37.37,0,0,0,29.75,12.5ZM31.88.5a.38.38,0,0,0-.38.37.38.38,0,0,0-.38.38v0a.37.37,0,0,0-.25.35.3.3,0,0,0,0,.14.38.38,0,0,0-.28.36.36.36,0,0,0,.1.25.39.39,0,0,0-.1.25A.38.38,0,0,0,31,3a.32.32,0,0,0,.14,0,.38.38,0,0,0,.36.28l.13,0a.38.38,0,0,1,.12.27v.25H32V.52Zm-12.5,13a.38.38,0,0,0-.28-.36.59.59,0,0,0,0-.14.37.37,0,0,0-.25-.35v0a.38.38,0,0,0-.38-.37.38.38,0,1,0-.75,0,.37.37,0,0,0-.37.37v0a.38.38,0,0,0-.26.35.58.58,0,0,0,0,.14.38.38,0,0,0-.18.61.38.38,0,0,0,.28.62l.14,0a.37.37,0,0,0,.36.27.3.3,0,0,0,.13,0,.42.42,0,0,1,.12.27v.25h.25v-.25a.42.42,0,0,1,.12-.27.3.3,0,0,0,.13,0,.37.37,0,0,0,.36-.27l.14,0a.37.37,0,0,0,.28-.62A.37.37,0,0,0,19.38,13.5ZM32,8.17a.38.38,0,0,0-.28-.36.32.32,0,0,0,0-.14.38.38,0,0,0-.25-.35v0a.38.38,0,0,0-.38-.38.37.37,0,0,0-.74,0A.38.38,0,0,0,30,7.3v0a.38.38,0,0,0-.25.35.32.32,0,0,0,0,.14.38.38,0,0,0-.28.36.36.36,0,0,0,.1.25.39.39,0,0,0-.1.25.38.38,0,0,0,.38.38A.31.31,0,0,0,30,9a.39.39,0,0,0,.37.28l.12,0a.34.34,0,0,1,.12.27V9.8h.26V9.55A.34.34,0,0,1,31,9.28l.12,0A.39.39,0,0,0,31.49,9a.31.31,0,0,0,.13,0A.38.38,0,0,0,32,8.67a.39.39,0,0,0-.1-.25A.36.36,0,0,0,32,8.17Zm-6.47-8A.24.24,0,0,0,25.6,0H23.15a.24.24,0,0,0,.07.12.39.39,0,0,0-.1.25.38.38,0,0,0,.38.38.32.32,0,0,0,.14,0A.38.38,0,0,0,24,1l.13,0a.38.38,0,0,1,.12.27V1.5h.25V1.25A.38.38,0,0,1,24.62,1l.13,0a.38.38,0,0,0,.36-.28.32.32,0,0,0,.14,0,.37.37,0,0,0,.37-.38A.38.38,0,0,0,25.53.12Zm-.18,15.39a.29.29,0,0,0,0-.14.38.38,0,0,0-.26-.35v0a.37.37,0,0,0-.37-.38.38.38,0,0,0-.75,0,.38.38,0,0,0-.38.38v0a.37.37,0,0,0-.25.35.3.3,0,0,0,0,.14.38.38,0,0,0-.28.36.28.28,0,0,0,0,.13H25.6a.27.27,0,0,0,0-.13A.37.37,0,0,0,25.35,15.51Z"/><path id="exotic_non_random_dense-4" data-name="exotic_non_random_dense" class="cls-2" d="M17,18.37a.38.38,0,0,1,.09.25.37.37,0,0,1-.37.38.32.32,0,0,1-.14,0,.38.38,0,0,1-.36.28l-.13,0a.38.38,0,0,0-.12.27v-3a.37.37,0,0,1,.25.35.37.37,0,0,1,.37.38v0a.38.38,0,0,1,.26.35.29.29,0,0,1,0,.14.38.38,0,0,1,.27.36A.35.35,0,0,1,17,18.37Zm4,1.38a.38.38,0,0,0-.28-.36.32.32,0,0,0,0-.14.38.38,0,0,0-.25-.35v0a.38.38,0,0,0-.38-.37.37.37,0,1,0-.74,0,.38.38,0,0,0-.38.37v0a.38.38,0,0,0-.25.35.32.32,0,0,0,0,.14.37.37,0,0,0-.18.61.37.37,0,0,0,.28.62l.13,0a.38.38,0,0,0,.37.27.25.25,0,0,0,.12,0,.37.37,0,0,1,.12.27v.25h.26v-.25a.37.37,0,0,1,.12-.27.25.25,0,0,0,.12,0,.38.38,0,0,0,.37-.27l.13,0A.37.37,0,0,0,20.9,20,.37.37,0,0,0,21,19.75ZM28.5,21a.38.38,0,0,0-.28-.36.32.32,0,0,0,0-.14.38.38,0,0,0-.25-.35v0a.38.38,0,0,0-.38-.37.37.37,0,1,0-.74,0,.38.38,0,0,0-.38.37v0a.38.38,0,0,0-.25.35.32.32,0,0,0,0,.14.37.37,0,0,0-.18.61.37.37,0,0,0,.28.62l.13,0a.38.38,0,0,0,.37.27.25.25,0,0,0,.12,0,.37.37,0,0,1,.12.27v.25h.26v-.25a.37.37,0,0,1,.12-.27.25.25,0,0,0,.12,0,.38.38,0,0,0,.37-.27l.13,0a.37.37,0,0,0,.28-.62A.37.37,0,0,0,28.5,21Zm-5.25,5a.38.38,0,0,0-.28-.36.32.32,0,0,0,0-.14.38.38,0,0,0-.25-.35v0a.38.38,0,0,0-.37-.37.38.38,0,0,0-.76,0,.38.38,0,0,0-.37.37v0a.38.38,0,0,0-.25.35.32.32,0,0,0,0,.14.37.37,0,0,0-.18.61.37.37,0,0,0-.1.25.37.37,0,0,0,.37.37l.14,0a.38.38,0,0,0,.36.27.27.27,0,0,0,.13,0,.39.39,0,0,1,.13.27v.25h.24v-.25a.39.39,0,0,1,.13-.27.27.27,0,0,0,.13,0,.37.37,0,0,0,.36-.27l.14,0a.37.37,0,0,0,.37-.37.37.37,0,0,0-.1-.25A.37.37,0,0,0,23.25,26Zm6.5,2.5a.38.38,0,0,0-.28-.36.32.32,0,0,0,0-.14.38.38,0,0,0-.25-.35v0a.38.38,0,0,0-.37-.37.38.38,0,0,0-.76,0,.38.38,0,0,0-.37.37v0a.38.38,0,0,0-.25.35.32.32,0,0,0,0,.14.37.37,0,0,0-.18.61.37.37,0,0,0-.1.25.37.37,0,0,0,.37.37l.14,0a.38.38,0,0,0,.36.27.27.27,0,0,0,.13,0,.39.39,0,0,1,.13.27v.25h.24v-.25a.39.39,0,0,1,.13-.27.27.27,0,0,0,.13,0,.37.37,0,0,0,.36-.27l.14,0a.37.37,0,0,0,.37-.37.37.37,0,0,0-.1-.25A.37.37,0,0,0,29.75,28.5Zm2.13-12a.38.38,0,0,0-.38.37.38.38,0,0,0-.38.38v0a.37.37,0,0,0-.25.35.3.3,0,0,0,0,.14.38.38,0,0,0-.28.36.36.36,0,0,0,.1.25.39.39,0,0,0-.1.25A.38.38,0,0,0,31,19a.32.32,0,0,0,.14,0,.38.38,0,0,0,.36.28l.13,0a.38.38,0,0,1,.12.27v.25H32V16.52Zm-12.5,13a.38.38,0,0,0-.28-.36.59.59,0,0,0,0-.14.37.37,0,0,0-.25-.35v0a.38.38,0,0,0-.38-.37.38.38,0,1,0-.75,0,.37.37,0,0,0-.37.37v0a.38.38,0,0,0-.26.35.58.58,0,0,0,0,.14.38.38,0,0,0-.18.61.38.38,0,0,0,.28.62l.14,0a.37.37,0,0,0,.36.27.3.3,0,0,0,.13,0,.42.42,0,0,1,.12.27v.25h.25v-.25a.42.42,0,0,1,.12-.27.3.3,0,0,0,.13,0,.37.37,0,0,0,.36-.27l.14,0a.37.37,0,0,0,.28-.62A.37.37,0,0,0,19.38,29.5ZM32,24.17a.38.38,0,0,0-.28-.36.32.32,0,0,0,0-.14.38.38,0,0,0-.25-.35v0a.38.38,0,0,0-.38-.38.37.37,0,0,0-.74,0,.38.38,0,0,0-.38.38v0a.38.38,0,0,0-.25.35.32.32,0,0,0,0,.14.38.38,0,0,0-.28.36.36.36,0,0,0,.1.25.39.39,0,0,0-.1.25.38.38,0,0,0,.38.38A.31.31,0,0,0,30,25a.39.39,0,0,0,.37.28l.12,0a.34.34,0,0,1,.12.27v.25h.26v-.25a.34.34,0,0,1,.12-.27l.12,0a.39.39,0,0,0,.37-.28.31.31,0,0,0,.13,0,.38.38,0,0,0,.38-.38.39.39,0,0,0-.1-.25A.36.36,0,0,0,32,24.17Zm-6.47-8A.24.24,0,0,0,25.6,16H23.15a.24.24,0,0,0,.07.12.39.39,0,0,0-.1.25.38.38,0,0,0,.38.38.32.32,0,0,0,.14,0A.38.38,0,0,0,24,17l.13,0a.38.38,0,0,1,.12.27v.25h.25v-.25a.38.38,0,0,1,.12-.27l.13,0a.38.38,0,0,0,.36-.28.32.32,0,0,0,.14,0,.37.37,0,0,0,.37-.38A.38.38,0,0,0,25.53,16.12Zm-.18,15.39a.29.29,0,0,0,0-.14.38.38,0,0,0-.26-.35v0a.37.37,0,0,0-.37-.38.38.38,0,0,0-.75,0,.38.38,0,0,0-.38.38v0a.37.37,0,0,0-.25.35.3.3,0,0,0,0,.14.38.38,0,0,0-.28.36.28.28,0,0,0,0,.13H25.6a.27.27,0,0,0,0-.13A.38.38,0,0,0,25.35,31.51Z"/></g><g id="exotic_non_poly_random_dense_half-2" data-name="exotic_non_poly_random_dense_half"><rect id="bbox_64-2" data-name="bbox_64" class="cls-1" x="32" width="32" height="32"/><path id="exotic_non_random_dense-5" data-name="exotic_non_random_dense" class="cls-2" d="M33,2.37a.38.38,0,0,1,.09.25.37.37,0,0,1-.37.38.32.32,0,0,1-.14,0,.38.38,0,0,1-.36.28l-.13,0A.38.38,0,0,0,32,3.5v-3a.37.37,0,0,1,.25.35.37.37,0,0,1,.37.38v0a.38.38,0,0,1,.26.35.29.29,0,0,1,0,.14.37.37,0,0,1,.27.36A.35.35,0,0,1,33,2.37Zm4,1.38a.38.38,0,0,0-.28-.36.32.32,0,0,0,0-.14.38.38,0,0,0-.25-.35v0a.38.38,0,0,0-.38-.37.37.37,0,1,0-.74,0,.38.38,0,0,0-.38.37v0a.38.38,0,0,0-.25.35.32.32,0,0,0,0,.14A.37.37,0,0,0,34.6,4a.37.37,0,0,0,.28.62l.13,0a.38.38,0,0,0,.37.27.25.25,0,0,0,.12,0,.37.37,0,0,1,.12.27v.25h.26V5.12A.37.37,0,0,1,36,4.85a.25.25,0,0,0,.12,0,.38.38,0,0,0,.37-.27l.13,0A.37.37,0,0,0,36.9,4,.37.37,0,0,0,37,3.75ZM44.5,5a.38.38,0,0,0-.28-.36.32.32,0,0,0,0-.14A.38.38,0,0,0,44,4.15v0a.38.38,0,0,0-.38-.37.37.37,0,1,0-.74,0,.38.38,0,0,0-.38.37v0a.38.38,0,0,0-.25.35.32.32,0,0,0,0,.14.37.37,0,0,0-.18.61.37.37,0,0,0,.28.62l.13,0a.38.38,0,0,0,.37.27.25.25,0,0,0,.12,0,.37.37,0,0,1,.12.27v.25h.26V6.37a.37.37,0,0,1,.12-.27.25.25,0,0,0,.12,0A.38.38,0,0,0,44,5.85l.13,0a.37.37,0,0,0,.28-.62A.37.37,0,0,0,44.5,5Zm-5.25,5A.38.38,0,0,0,39,9.64a.32.32,0,0,0,0-.14.38.38,0,0,0-.25-.35v0a.38.38,0,0,0-.37-.37.38.38,0,1,0-.76,0,.38.38,0,0,0-.37.37v0A.38.38,0,0,0,37,9.5a.32.32,0,0,0,0,.14.37.37,0,0,0-.18.61.37.37,0,0,0-.1.25.37.37,0,0,0,.37.37l.14,0a.38.38,0,0,0,.36.27.27.27,0,0,0,.13,0,.39.39,0,0,1,.13.27v.25h.24v-.25a.39.39,0,0,1,.13-.27.27.27,0,0,0,.13,0,.37.37,0,0,0,.36-.27l.14,0a.37.37,0,0,0,.37-.37.37.37,0,0,0-.1-.25A.37.37,0,0,0,39.25,10Zm6.5,2.5a.38.38,0,0,0-.28-.36.32.32,0,0,0,0-.14.38.38,0,0,0-.25-.35v0a.38.38,0,0,0-.37-.37.38.38,0,1,0-.76,0,.38.38,0,0,0-.37.37v0a.38.38,0,0,0-.25.35.32.32,0,0,0,0,.14.37.37,0,0,0-.18.61.37.37,0,0,0-.1.25.37.37,0,0,0,.37.37l.14,0a.38.38,0,0,0,.36.27.27.27,0,0,0,.13,0,.39.39,0,0,1,.13.27v.25h.24v-.25a.39.39,0,0,1,.13-.27.27.27,0,0,0,.13,0,.37.37,0,0,0,.36-.27l.14,0a.37.37,0,0,0,.37-.37.37.37,0,0,0-.1-.25A.37.37,0,0,0,45.75,12.5ZM47.88.5a.38.38,0,0,0-.38.37.38.38,0,0,0-.38.38v0a.37.37,0,0,0-.25.35.3.3,0,0,0,0,.14.38.38,0,0,0-.28.36.36.36,0,0,0,.1.25.39.39,0,0,0-.1.25A.38.38,0,0,0,47,3a.32.32,0,0,0,.14,0,.38.38,0,0,0,.36.28l.13,0a.38.38,0,0,1,.12.27v.25H48V.52Zm-12.5,13a.38.38,0,0,0-.28-.36.59.59,0,0,0,0-.14.37.37,0,0,0-.25-.35v0a.38.38,0,0,0-.38-.37.38.38,0,1,0-.75,0,.37.37,0,0,0-.37.37v0a.38.38,0,0,0-.26.35.58.58,0,0,0,0,.14.38.38,0,0,0-.18.61.38.38,0,0,0,.28.62l.14,0a.37.37,0,0,0,.36.27.3.3,0,0,0,.13,0,.42.42,0,0,1,.12.27v.25h.25v-.25a.42.42,0,0,1,.12-.27.3.3,0,0,0,.13,0,.37.37,0,0,0,.36-.27l.14,0a.37.37,0,0,0,.28-.62A.37.37,0,0,0,35.38,13.5ZM48,8.17a.38.38,0,0,0-.28-.36.32.32,0,0,0,0-.14.38.38,0,0,0-.25-.35v0a.38.38,0,0,0-.38-.38.37.37,0,1,0-.74,0A.38.38,0,0,0,46,7.3v0a.38.38,0,0,0-.25.35.32.32,0,0,0,0,.14.38.38,0,0,0-.28.36.36.36,0,0,0,.1.25.39.39,0,0,0-.1.25.38.38,0,0,0,.38.38A.31.31,0,0,0,46,9a.39.39,0,0,0,.37.28l.12,0a.34.34,0,0,1,.12.27V9.8h.26V9.55A.34.34,0,0,1,47,9.28l.12,0A.39.39,0,0,0,47.49,9a.31.31,0,0,0,.13,0A.38.38,0,0,0,48,8.67a.39.39,0,0,0-.1-.25A.36.36,0,0,0,48,8.17Zm-6.47-8A.24.24,0,0,0,41.6,0H39.15a.24.24,0,0,0,.07.12.39.39,0,0,0-.1.25.38.38,0,0,0,.38.38.32.32,0,0,0,.14,0A.38.38,0,0,0,40,1l.13,0a.38.38,0,0,1,.12.27V1.5h.25V1.25A.38.38,0,0,1,40.62,1l.13,0a.38.38,0,0,0,.36-.28.32.32,0,0,0,.14,0,.37.37,0,0,0,.37-.38A.38.38,0,0,0,41.53.12Zm-.18,15.39a.29.29,0,0,0,0-.14.38.38,0,0,0-.26-.35v0a.37.37,0,0,0-.37-.38.38.38,0,0,0-.75,0,.38.38,0,0,0-.38.38v0a.37.37,0,0,0-.25.35.3.3,0,0,0,0,.14.38.38,0,0,0-.28.36.28.28,0,0,0,0,.13H41.6a.27.27,0,0,0,0-.13A.37.37,0,0,0,41.35,15.51Z"/><path id="exotic_non_random_dense-6" data-name="exotic_non_random_dense" class="cls-2" d="M33,18.37a.38.38,0,0,1,.09.25.37.37,0,0,1-.37.38.32.32,0,0,1-.14,0,.38.38,0,0,1-.36.28l-.13,0a.38.38,0,0,0-.12.27v-3a.37.37,0,0,1,.25.35.37.37,0,0,1,.37.38v0a.38.38,0,0,1,.26.35.29.29,0,0,1,0,.14.38.38,0,0,1,.27.36A.35.35,0,0,1,33,18.37Zm4,1.38a.38.38,0,0,0-.28-.36.32.32,0,0,0,0-.14.38.38,0,0,0-.25-.35v0a.38.38,0,0,0-.38-.37.37.37,0,1,0-.74,0,.38.38,0,0,0-.38.37v0a.38.38,0,0,0-.25.35.32.32,0,0,0,0,.14.37.37,0,0,0-.18.61.37.37,0,0,0,.28.62l.13,0a.38.38,0,0,0,.37.27.25.25,0,0,0,.12,0,.37.37,0,0,1,.12.27v.25h.26v-.25a.37.37,0,0,1,.12-.27.25.25,0,0,0,.12,0,.38.38,0,0,0,.37-.27l.13,0A.37.37,0,0,0,36.9,20,.37.37,0,0,0,37,19.75ZM44.5,21a.38.38,0,0,0-.28-.36.32.32,0,0,0,0-.14.38.38,0,0,0-.25-.35v0a.38.38,0,0,0-.38-.37.37.37,0,1,0-.74,0,.38.38,0,0,0-.38.37v0a.38.38,0,0,0-.25.35.32.32,0,0,0,0,.14.37.37,0,0,0-.18.61.37.37,0,0,0,.28.62l.13,0a.38.38,0,0,0,.37.27.25.25,0,0,0,.12,0,.37.37,0,0,1,.12.27v.25h.26v-.25a.37.37,0,0,1,.12-.27.25.25,0,0,0,.12,0,.38.38,0,0,0,.37-.27l.13,0a.37.37,0,0,0,.28-.62A.37.37,0,0,0,44.5,21Zm-5.25,5a.38.38,0,0,0-.28-.36.32.32,0,0,0,0-.14.38.38,0,0,0-.25-.35v0a.38.38,0,0,0-.37-.37.38.38,0,0,0-.76,0,.38.38,0,0,0-.37.37v0a.38.38,0,0,0-.25.35.32.32,0,0,0,0,.14.37.37,0,0,0-.18.61.37.37,0,0,0-.1.25.37.37,0,0,0,.37.37l.14,0a.38.38,0,0,0,.36.27.27.27,0,0,0,.13,0,.39.39,0,0,1,.13.27v.25h.24v-.25a.39.39,0,0,1,.13-.27.27.27,0,0,0,.13,0,.37.37,0,0,0,.36-.27l.14,0a.37.37,0,0,0,.37-.37.37.37,0,0,0-.1-.25A.37.37,0,0,0,39.25,26Zm6.5,2.5a.38.38,0,0,0-.28-.36.32.32,0,0,0,0-.14.38.38,0,0,0-.25-.35v0a.38.38,0,0,0-.37-.37.38.38,0,1,0-.76,0,.38.38,0,0,0-.37.37v0a.38.38,0,0,0-.25.35.32.32,0,0,0,0,.14.37.37,0,0,0-.18.61.37.37,0,0,0-.1.25.37.37,0,0,0,.37.37l.14,0a.38.38,0,0,0,.36.27.27.27,0,0,0,.13,0,.39.39,0,0,1,.13.27v.25h.24v-.25a.39.39,0,0,1,.13-.27.27.27,0,0,0,.13,0,.38.38,0,0,0,.36-.27l.14,0a.37.37,0,0,0,.37-.37.37.37,0,0,0-.1-.25A.37.37,0,0,0,45.75,28.5Zm2.13-12a.38.38,0,0,0-.38.37.38.38,0,0,0-.38.38v0a.37.37,0,0,0-.25.35.3.3,0,0,0,0,.14.38.38,0,0,0-.28.36.36.36,0,0,0,.1.25.39.39,0,0,0-.1.25A.38.38,0,0,0,47,19a.32.32,0,0,0,.14,0,.38.38,0,0,0,.36.28l.13,0a.38.38,0,0,1,.12.27v.25H48V16.52Zm-12.5,13a.38.38,0,0,0-.28-.36.59.59,0,0,0,0-.14.37.37,0,0,0-.25-.35v0a.38.38,0,0,0-.38-.37.38.38,0,1,0-.75,0,.37.37,0,0,0-.37.37v0a.38.38,0,0,0-.26.35.58.58,0,0,0,0,.14.38.38,0,0,0-.18.61.38.38,0,0,0,.28.62l.14,0a.37.37,0,0,0,.36.27.3.3,0,0,0,.13,0,.42.42,0,0,1,.12.27v.25h.25v-.25a.42.42,0,0,1,.12-.27.3.3,0,0,0,.13,0,.37.37,0,0,0,.36-.27l.14,0a.37.37,0,0,0,.28-.62A.37.37,0,0,0,35.38,29.5ZM48,24.17a.38.38,0,0,0-.28-.36.32.32,0,0,0,0-.14.38.38,0,0,0-.25-.35v0a.38.38,0,0,0-.38-.38.37.37,0,0,0-.74,0,.38.38,0,0,0-.38.38v0a.38.38,0,0,0-.25.35.32.32,0,0,0,0,.14.38.38,0,0,0-.28.36.36.36,0,0,0,.1.25.39.39,0,0,0-.1.25.38.38,0,0,0,.38.38A.31.31,0,0,0,46,25a.39.39,0,0,0,.37.28l.12,0a.34.34,0,0,1,.12.27v.25h.26v-.25a.34.34,0,0,1,.12-.27l.12,0a.39.39,0,0,0,.37-.28.31.31,0,0,0,.13,0,.38.38,0,0,0,.38-.38.39.39,0,0,0-.1-.25A.36.36,0,0,0,48,24.17Zm-6.47-8A.24.24,0,0,0,41.6,16H39.15a.24.24,0,0,0,.07.12.39.39,0,0,0-.1.25.38.38,0,0,0,.38.38.32.32,0,0,0,.14,0A.38.38,0,0,0,40,17l.13,0a.38.38,0,0,1,.12.27v.25h.25v-.25a.38.38,0,0,1,.12-.27l.13,0a.38.38,0,0,0,.36-.28.32.32,0,0,0,.14,0,.37.37,0,0,0,.37-.38A.38.38,0,0,0,41.53,16.12Zm-.18,15.39a.29.29,0,0,0,0-.14.38.38,0,0,0-.26-.35v0a.37.37,0,0,0-.37-.38.38.38,0,0,0-.75,0,.38.38,0,0,0-.38.38v0a.37.37,0,0,0-.25.35.3.3,0,0,0,0,.14.38.38,0,0,0-.28.36.28.28,0,0,0,0,.13H41.6a.27.27,0,0,0,0-.13A.37.37,0,0,0,41.35,31.51Z"/><path id="exotic_non_random_dense-7" data-name="exotic_non_random_dense" class="cls-2" d="M49,2.37a.38.38,0,0,1,.09.25.37.37,0,0,1-.37.38.32.32,0,0,1-.14,0,.38.38,0,0,1-.36.28l-.13,0A.38.38,0,0,0,48,3.5v-3a.37.37,0,0,1,.25.35.37.37,0,0,1,.37.38v0a.38.38,0,0,1,.26.35.29.29,0,0,1,0,.14.37.37,0,0,1,.27.36A.35.35,0,0,1,49,2.37Zm4,1.38a.38.38,0,0,0-.28-.36.32.32,0,0,0,0-.14.38.38,0,0,0-.25-.35v0a.38.38,0,0,0-.38-.37.37.37,0,1,0-.74,0,.38.38,0,0,0-.38.37v0a.38.38,0,0,0-.25.35.32.32,0,0,0,0,.14A.37.37,0,0,0,50.6,4a.37.37,0,0,0,.28.62l.13,0a.38.38,0,0,0,.37.27.25.25,0,0,0,.12,0,.37.37,0,0,1,.12.27v.25h.26V5.12A.37.37,0,0,1,52,4.85a.25.25,0,0,0,.12,0,.38.38,0,0,0,.37-.27l.13,0A.37.37,0,0,0,52.9,4,.37.37,0,0,0,53,3.75ZM60.5,5a.38.38,0,0,0-.28-.36.32.32,0,0,0,0-.14A.38.38,0,0,0,60,4.15v0a.38.38,0,0,0-.38-.37.37.37,0,1,0-.74,0,.38.38,0,0,0-.38.37v0a.38.38,0,0,0-.25.35.32.32,0,0,0,0,.14.37.37,0,0,0-.18.61.37.37,0,0,0,.28.62l.13,0a.38.38,0,0,0,.37.27.25.25,0,0,0,.12,0,.37.37,0,0,1,.12.27v.25h.26V6.37a.37.37,0,0,1,.12-.27.25.25,0,0,0,.12,0A.38.38,0,0,0,60,5.85l.13,0a.37.37,0,0,0,.28-.62A.37.37,0,0,0,60.5,5Zm-5.25,5A.38.38,0,0,0,55,9.64a.32.32,0,0,0,0-.14.38.38,0,0,0-.25-.35v0a.38.38,0,0,0-.37-.37.38.38,0,0,0-.76,0,.38.38,0,0,0-.37.37v0A.38.38,0,0,0,53,9.5a.32.32,0,0,0,0,.14.37.37,0,0,0-.18.61.37.37,0,0,0-.1.25.37.37,0,0,0,.37.37l.14,0a.38.38,0,0,0,.36.27.27.27,0,0,0,.13,0,.39.39,0,0,1,.13.27v.25h.24v-.25a.39.39,0,0,1,.13-.27.27.27,0,0,0,.13,0,.37.37,0,0,0,.36-.27l.14,0a.37.37,0,0,0,.37-.37.37.37,0,0,0-.1-.25A.37.37,0,0,0,55.25,10Zm6.5,2.5a.38.38,0,0,0-.28-.36.32.32,0,0,0,0-.14.38.38,0,0,0-.25-.35v0a.38.38,0,0,0-.37-.37.38.38,0,0,0-.76,0,.38.38,0,0,0-.37.37v0a.38.38,0,0,0-.25.35.32.32,0,0,0,0,.14.37.37,0,0,0-.18.61.37.37,0,0,0-.1.25.37.37,0,0,0,.37.37l.14,0a.38.38,0,0,0,.36.27.27.27,0,0,0,.13,0,.39.39,0,0,1,.13.27v.25h.24v-.25a.39.39,0,0,1,.13-.27.27.27,0,0,0,.13,0,.37.37,0,0,0,.36-.27l.14,0a.37.37,0,0,0,.37-.37.37.37,0,0,0-.1-.25A.37.37,0,0,0,61.75,12.5ZM63.88.5a.38.38,0,0,0-.38.37.38.38,0,0,0-.38.38v0a.37.37,0,0,0-.25.35.3.3,0,0,0,0,.14.38.38,0,0,0-.28.36.36.36,0,0,0,.1.25.39.39,0,0,0-.1.25A.38.38,0,0,0,63,3a.32.32,0,0,0,.14,0,.38.38,0,0,0,.36.28l.13,0a.38.38,0,0,1,.12.27v.25H64V.52Zm-12.5,13a.38.38,0,0,0-.28-.36.59.59,0,0,0,0-.14.37.37,0,0,0-.25-.35v0a.38.38,0,0,0-.38-.37.38.38,0,1,0-.75,0,.37.37,0,0,0-.37.37v0a.38.38,0,0,0-.26.35.58.58,0,0,0,0,.14.38.38,0,0,0-.18.61.38.38,0,0,0,.28.62l.14,0a.37.37,0,0,0,.36.27.3.3,0,0,0,.13,0,.42.42,0,0,1,.12.27v.25h.25v-.25a.42.42,0,0,1,.12-.27.3.3,0,0,0,.13,0,.37.37,0,0,0,.36-.27l.14,0a.37.37,0,0,0,.28-.62A.37.37,0,0,0,51.38,13.5ZM64,8.17a.38.38,0,0,0-.28-.36.32.32,0,0,0,0-.14.38.38,0,0,0-.25-.35v0a.38.38,0,0,0-.38-.38.37.37,0,0,0-.74,0A.38.38,0,0,0,62,7.3v0a.38.38,0,0,0-.25.35.32.32,0,0,0,0,.14.38.38,0,0,0-.28.36.36.36,0,0,0,.1.25.39.39,0,0,0-.1.25.38.38,0,0,0,.38.38A.31.31,0,0,0,62,9a.39.39,0,0,0,.37.28l.12,0a.34.34,0,0,1,.12.27V9.8h.26V9.55A.34.34,0,0,1,63,9.28l.12,0A.39.39,0,0,0,63.49,9a.31.31,0,0,0,.13,0A.38.38,0,0,0,64,8.67a.39.39,0,0,0-.1-.25A.36.36,0,0,0,64,8.17Zm-6.47-8A.24.24,0,0,0,57.6,0H55.15a.24.24,0,0,0,.07.12.39.39,0,0,0-.1.25.38.38,0,0,0,.38.38.32.32,0,0,0,.14,0A.38.38,0,0,0,56,1l.13,0a.38.38,0,0,1,.12.27V1.5h.25V1.25A.38.38,0,0,1,56.62,1l.13,0a.38.38,0,0,0,.36-.28.32.32,0,0,0,.14,0,.37.37,0,0,0,.37-.38A.38.38,0,0,0,57.53.12Zm-.18,15.39a.29.29,0,0,0,0-.14.38.38,0,0,0-.26-.35v0a.37.37,0,0,0-.37-.38.38.38,0,0,0-.75,0,.38.38,0,0,0-.38.38v0a.37.37,0,0,0-.25.35.3.3,0,0,0,0,.14.38.38,0,0,0-.28.36.28.28,0,0,0,0,.13H57.6a.27.27,0,0,0,0-.13A.37.37,0,0,0,57.35,15.51Z"/><path id="exotic_non_random_dense-8" data-name="exotic_non_random_dense" class="cls-2" d="M49,18.37a.38.38,0,0,1,.09.25.37.37,0,0,1-.37.38.32.32,0,0,1-.14,0,.38.38,0,0,1-.36.28l-.13,0a.38.38,0,0,0-.12.27v-3a.37.37,0,0,1,.25.35.37.37,0,0,1,.37.38v0a.38.38,0,0,1,.26.35.29.29,0,0,1,0,.14.37.37,0,0,1,.27.36A.35.35,0,0,1,49,18.37Zm4,1.38a.38.38,0,0,0-.28-.36.32.32,0,0,0,0-.14.38.38,0,0,0-.25-.35v0a.38.38,0,0,0-.38-.37.37.37,0,1,0-.74,0,.38.38,0,0,0-.38.37v0a.38.38,0,0,0-.25.35.32.32,0,0,0,0,.14.37.37,0,0,0-.18.61.37.37,0,0,0,.28.62l.13,0a.38.38,0,0,0,.37.27.25.25,0,0,0,.12,0,.37.37,0,0,1,.12.27v.25h.26v-.25a.37.37,0,0,1,.12-.27.25.25,0,0,0,.12,0,.38.38,0,0,0,.37-.27l.13,0A.37.37,0,0,0,52.9,20,.37.37,0,0,0,53,19.75ZM60.5,21a.38.38,0,0,0-.28-.36.32.32,0,0,0,0-.14.38.38,0,0,0-.25-.35v0a.38.38,0,0,0-.38-.37.37.37,0,1,0-.74,0,.38.38,0,0,0-.38.37v0a.38.38,0,0,0-.25.35.32.32,0,0,0,0,.14.37.37,0,0,0-.18.61.37.37,0,0,0,.28.62l.13,0a.38.38,0,0,0,.37.27.25.25,0,0,0,.12,0,.37.37,0,0,1,.12.27v.25h.26v-.25a.37.37,0,0,1,.12-.27.25.25,0,0,0,.12,0,.38.38,0,0,0,.37-.27l.13,0a.37.37,0,0,0,.28-.62A.37.37,0,0,0,60.5,21Zm-5.25,5a.38.38,0,0,0-.28-.36.32.32,0,0,0,0-.14.38.38,0,0,0-.25-.35v0a.38.38,0,0,0-.37-.37.38.38,0,1,0-.76,0,.38.38,0,0,0-.37.37v0a.38.38,0,0,0-.25.35.32.32,0,0,0,0,.14.37.37,0,0,0-.18.61.37.37,0,0,0-.1.25.37.37,0,0,0,.37.37l.14,0a.38.38,0,0,0,.36.27.27.27,0,0,0,.13,0,.39.39,0,0,1,.13.27v.25h.24v-.25a.39.39,0,0,1,.13-.27.27.27,0,0,0,.13,0,.37.37,0,0,0,.36-.27l.14,0a.37.37,0,0,0,.37-.37.37.37,0,0,0-.1-.25A.37.37,0,0,0,55.25,26Zm6.5,2.5a.38.38,0,0,0-.28-.36.32.32,0,0,0,0-.14.38.38,0,0,0-.25-.35v0a.38.38,0,0,0-.37-.37.38.38,0,1,0-.76,0,.38.38,0,0,0-.37.37v0a.38.38,0,0,0-.25.35.32.32,0,0,0,0,.14.37.37,0,0,0-.18.61.37.37,0,0,0-.1.25.37.37,0,0,0,.37.37l.14,0a.38.38,0,0,0,.36.27.27.27,0,0,0,.13,0,.39.39,0,0,1,.13.27v.25h.24v-.25a.39.39,0,0,1,.13-.27.27.27,0,0,0,.13,0,.37.37,0,0,0,.36-.27l.14,0a.37.37,0,0,0,.37-.37.37.37,0,0,0-.1-.25A.37.37,0,0,0,61.75,28.5Zm2.13-12a.38.38,0,0,0-.38.37.38.38,0,0,0-.38.38v0a.37.37,0,0,0-.25.35.3.3,0,0,0,0,.14.38.38,0,0,0-.28.36.36.36,0,0,0,.1.25.39.39,0,0,0-.1.25A.38.38,0,0,0,63,19a.32.32,0,0,0,.14,0,.38.38,0,0,0,.36.28l.13,0a.38.38,0,0,1,.12.27v.25H64V16.52Zm-12.5,13a.38.38,0,0,0-.28-.36.59.59,0,0,0,0-.14.37.37,0,0,0-.25-.35v0a.38.38,0,0,0-.38-.37.38.38,0,1,0-.75,0,.37.37,0,0,0-.37.37v0a.38.38,0,0,0-.26.35.58.58,0,0,0,0,.14.38.38,0,0,0-.18.61.38.38,0,0,0,.28.62l.14,0a.37.37,0,0,0,.36.27.3.3,0,0,0,.13,0,.42.42,0,0,1,.12.27v.25h.25v-.25a.42.42,0,0,1,.12-.27.3.3,0,0,0,.13,0,.37.37,0,0,0,.36-.27l.14,0a.37.37,0,0,0,.28-.62A.37.37,0,0,0,51.38,29.5ZM64,24.17a.38.38,0,0,0-.28-.36.32.32,0,0,0,0-.14.38.38,0,0,0-.25-.35v0a.38.38,0,0,0-.38-.38.37.37,0,0,0-.74,0,.38.38,0,0,0-.38.38v0a.38.38,0,0,0-.25.35.32.32,0,0,0,0,.14.38.38,0,0,0-.28.36.36.36,0,0,0,.1.25.39.39,0,0,0-.1.25.38.38,0,0,0,.38.38A.31.31,0,0,0,62,25a.39.39,0,0,0,.37.28l.12,0a.34.34,0,0,1,.12.27v.25h.26v-.25a.34.34,0,0,1,.12-.27l.12,0a.39.39,0,0,0,.37-.28.31.31,0,0,0,.13,0,.38.38,0,0,0,.38-.38.39.39,0,0,0-.1-.25A.36.36,0,0,0,64,24.17Zm-6.47-8A.24.24,0,0,0,57.6,16H55.15a.24.24,0,0,0,.07.12.39.39,0,0,0-.1.25.38.38,0,0,0,.38.38.32.32,0,0,0,.14,0A.38.38,0,0,0,56,17l.13,0a.38.38,0,0,1,.12.27v.25h.25v-.25a.38.38,0,0,1,.12-.27l.13,0a.38.38,0,0,0,.36-.28.32.32,0,0,0,.14,0,.37.37,0,0,0,.37-.38A.38.38,0,0,0,57.53,16.12Zm-.18,15.39a.29.29,0,0,0,0-.14.38.38,0,0,0-.26-.35v0a.37.37,0,0,0-.37-.38.38.38,0,0,0-.75,0,.38.38,0,0,0-.38.38v0a.37.37,0,0,0-.25.35.3.3,0,0,0,0,.14.38.38,0,0,0-.28.36.28.28,0,0,0,0,.13H57.6a.27.27,0,0,0,0-.13A.37.37,0,0,0,57.35,31.51Z"/></g><g id="exotic_non_poly_random_dense_half-3" data-name="exotic_non_poly_random_dense_half"><rect id="bbox_64-3" data-name="bbox_64" class="cls-1" y="32" width="32" height="32"/><path id="exotic_non_random_dense-9" data-name="exotic_non_random_dense" class="cls-2" d="M1,34.37a.38.38,0,0,1,.09.25A.37.37,0,0,1,.75,35a.32.32,0,0,1-.14,0,.38.38,0,0,1-.36.28l-.13,0A.38.38,0,0,0,0,35.5v-3a.37.37,0,0,1,.25.35.37.37,0,0,1,.37.38v0a.38.38,0,0,1,.26.35.29.29,0,0,1,0,.14.38.38,0,0,1,.27.36A.35.35,0,0,1,1,34.37Zm4,1.38a.38.38,0,0,0-.28-.36.32.32,0,0,0,0-.14.38.38,0,0,0-.25-.35v0a.38.38,0,0,0-.38-.37.37.37,0,1,0-.74,0,.38.38,0,0,0-.38.37v0a.38.38,0,0,0-.25.35.32.32,0,0,0,0,.14A.37.37,0,0,0,2.6,36a.37.37,0,0,0,.28.62l.13,0a.38.38,0,0,0,.37.27.25.25,0,0,0,.12,0,.37.37,0,0,1,.12.27v.25h.26v-.25A.37.37,0,0,1,4,36.85a.25.25,0,0,0,.12,0,.38.38,0,0,0,.37-.27l.13,0A.37.37,0,0,0,4.9,36,.37.37,0,0,0,5,35.75ZM12.5,37a.38.38,0,0,0-.28-.36.32.32,0,0,0,0-.14.38.38,0,0,0-.25-.35v0a.38.38,0,0,0-.38-.37.37.37,0,1,0-.74,0,.38.38,0,0,0-.38.37v0a.38.38,0,0,0-.25.35.32.32,0,0,0,0,.14.37.37,0,0,0-.18.61.37.37,0,0,0,.28.62l.13,0a.38.38,0,0,0,.37.27.25.25,0,0,0,.12,0,.37.37,0,0,1,.12.27v.25h.26v-.25a.37.37,0,0,1,.12-.27.25.25,0,0,0,.12,0,.38.38,0,0,0,.37-.27l.13,0a.37.37,0,0,0,.28-.62A.37.37,0,0,0,12.5,37ZM7.25,42A.38.38,0,0,0,7,41.64a.32.32,0,0,0,0-.14.38.38,0,0,0-.25-.35v0a.38.38,0,0,0-.37-.37.38.38,0,0,0-.76,0,.38.38,0,0,0-.37.37v0A.38.38,0,0,0,5,41.5a.32.32,0,0,0,0,.14.37.37,0,0,0-.18.61.37.37,0,0,0-.1.25.37.37,0,0,0,.37.37l.14,0a.37.37,0,0,0,.36.27.27.27,0,0,0,.13,0,.39.39,0,0,1,.13.27v.25h.24v-.25a.39.39,0,0,1,.13-.27.27.27,0,0,0,.13,0,.37.37,0,0,0,.36-.27l.14,0a.37.37,0,0,0,.37-.37.37.37,0,0,0-.1-.25A.37.37,0,0,0,7.25,42Zm6.5,2.5a.38.38,0,0,0-.28-.36.32.32,0,0,0,0-.14.38.38,0,0,0-.25-.35v0a.38.38,0,0,0-.37-.37.38.38,0,0,0-.76,0,.38.38,0,0,0-.37.37v0a.38.38,0,0,0-.25.35.32.32,0,0,0,0,.14.37.37,0,0,0-.18.61.37.37,0,0,0-.1.25.37.37,0,0,0,.37.37l.14,0a.37.37,0,0,0,.36.27.27.27,0,0,0,.13,0,.39.39,0,0,1,.13.27v.25h.24v-.25a.39.39,0,0,1,.13-.27.27.27,0,0,0,.13,0,.37.37,0,0,0,.36-.27l.14,0a.37.37,0,0,0,.37-.37.37.37,0,0,0-.1-.25A.37.37,0,0,0,13.75,44.5Zm2.13-12a.38.38,0,0,0-.38.37.38.38,0,0,0-.38.38v0a.37.37,0,0,0-.25.35.3.3,0,0,0,0,.14.38.38,0,0,0-.28.36.36.36,0,0,0,.1.25.39.39,0,0,0-.1.25A.38.38,0,0,0,15,35a.32.32,0,0,0,.14,0,.38.38,0,0,0,.36.28l.13,0a.38.38,0,0,1,.12.27v.25H16V32.52Zm-12.5,13a.38.38,0,0,0-.28-.36.59.59,0,0,0,0-.14.37.37,0,0,0-.25-.35v0a.38.38,0,0,0-.38-.37.38.38,0,1,0-.75,0,.37.37,0,0,0-.37.37v0a.38.38,0,0,0-.26.35.58.58,0,0,0,0,.14.38.38,0,0,0-.18.61.38.38,0,0,0,.28.62l.14,0a.37.37,0,0,0,.36.27.3.3,0,0,0,.13,0,.42.42,0,0,1,.12.27v.25h.25v-.25a.42.42,0,0,1,.12-.27.3.3,0,0,0,.13,0,.37.37,0,0,0,.36-.27l.14,0a.37.37,0,0,0,.28-.62A.37.37,0,0,0,3.38,45.5ZM16,40.17a.38.38,0,0,0-.28-.36.32.32,0,0,0,0-.14.38.38,0,0,0-.25-.35v0a.38.38,0,0,0-.38-.38.37.37,0,1,0-.74,0,.38.38,0,0,0-.38.38v0a.38.38,0,0,0-.25.35.32.32,0,0,0,0,.14.38.38,0,0,0-.28.36.36.36,0,0,0,.1.25.39.39,0,0,0-.1.25.38.38,0,0,0,.38.38A.31.31,0,0,0,14,41a.39.39,0,0,0,.37.28l.12,0a.34.34,0,0,1,.12.27v.25h.26v-.25a.34.34,0,0,1,.12-.27l.12,0a.39.39,0,0,0,.37-.28.31.31,0,0,0,.13,0,.38.38,0,0,0,.38-.38.39.39,0,0,0-.1-.25A.36.36,0,0,0,16,40.17ZM9.53,32.12A.24.24,0,0,0,9.6,32H7.15a.24.24,0,0,0,.07.12.39.39,0,0,0-.1.25.38.38,0,0,0,.38.38.32.32,0,0,0,.14,0A.38.38,0,0,0,8,33l.13,0a.38.38,0,0,1,.12.27v.25H8.5v-.25A.38.38,0,0,1,8.62,33l.13,0a.38.38,0,0,0,.36-.28.32.32,0,0,0,.14,0,.37.37,0,0,0,.37-.38A.38.38,0,0,0,9.53,32.12ZM9.35,47.51a.29.29,0,0,0,0-.14A.38.38,0,0,0,9.12,47v0a.37.37,0,0,0-.37-.38.38.38,0,0,0-.75,0,.38.38,0,0,0-.38.38v0a.37.37,0,0,0-.25.35.3.3,0,0,0,0,.14.38.38,0,0,0-.28.36.28.28,0,0,0,0,.13H9.6a.27.27,0,0,0,0-.13A.37.37,0,0,0,9.35,47.51Z"/><path id="exotic_non_random_dense-10" data-name="exotic_non_random_dense" class="cls-2" d="M1,50.37a.38.38,0,0,1,.09.25A.37.37,0,0,1,.75,51a.32.32,0,0,1-.14,0,.38.38,0,0,1-.36.28l-.13,0A.38.38,0,0,0,0,51.5v-3a.37.37,0,0,1,.25.35.37.37,0,0,1,.37.38v0a.38.38,0,0,1,.26.35.29.29,0,0,1,0,.14.38.38,0,0,1,.27.36A.35.35,0,0,1,1,50.37Zm4,1.38a.38.38,0,0,0-.28-.36.32.32,0,0,0,0-.14.38.38,0,0,0-.25-.35v0a.38.38,0,0,0-.38-.37.37.37,0,1,0-.74,0,.38.38,0,0,0-.38.37v0a.38.38,0,0,0-.25.35.32.32,0,0,0,0,.14,4.84,4.84,0,0,1-.28.86.37.37,0,0,0,.38.37l.13,0a.38.38,0,0,0,.37.27.25.25,0,0,0,.12,0,.37.37,0,0,1,.12.27v.25h.26v-.25A.37.37,0,0,1,4,52.85a.25.25,0,0,0,.12,0,.38.38,0,0,0,.37-.27l.13,0A10.87,10.87,0,0,0,5,51.75ZM12.5,53a.38.38,0,0,0-.28-.36.32.32,0,0,0,0-.14.38.38,0,0,0-.25-.35v0a.38.38,0,0,0-.38-.37.37.37,0,1,0-.74,0,.38.38,0,0,0-.38.37v0a.38.38,0,0,0-.25.35.32.32,0,0,0,0,.14,4.84,4.84,0,0,1-.28.86.37.37,0,0,0,.38.37l.13,0a.38.38,0,0,0,.37.27.25.25,0,0,0,.12,0,.37.37,0,0,1,.12.27v.25h.26v-.25a.37.37,0,0,1,.12-.27.25.25,0,0,0,.12,0,.38.38,0,0,0,.37-.27l.13,0A10.87,10.87,0,0,0,12.5,53ZM7.25,58A.38.38,0,0,0,7,57.64a.32.32,0,0,0,0-.14.38.38,0,0,0-.25-.35v0a.38.38,0,0,0-.37-.37.38.38,0,0,0-.76,0,.38.38,0,0,0-.37.37v0A.38.38,0,0,0,5,57.5a.32.32,0,0,0,0,.14,4.84,4.84,0,0,1-.28.86.37.37,0,0,0,.37.37l.14,0a.37.37,0,0,0,.36.27.27.27,0,0,0,.13,0,.39.39,0,0,1,.13.27v.25h.24v-.25a.39.39,0,0,1,.13-.27.27.27,0,0,0,.13,0,.37.37,0,0,0,.36-.27l.14,0a.37.37,0,0,0,.37-.37.36.36,0,0,1,0-.5Zm6.5,2.5a.38.38,0,0,0-.28-.36.32.32,0,0,0,0-.14.38.38,0,0,0-.25-.35v0a.38.38,0,0,0-.37-.37.38.38,0,1,0-.76,0,.38.38,0,0,0-.37.37v0a.38.38,0,0,0-.25.35.32.32,0,0,0,0,.14,4.84,4.84,0,0,1-.28.86.37.37,0,0,0,.37.37l.14,0a.37.37,0,0,0,.36.27.27.27,0,0,0,.13,0,.39.39,0,0,1,.13.27v.25h.24v-.25a.39.39,0,0,1,.13-.27.27.27,0,0,0,.13,0,.37.37,0,0,0,.36-.27l.14,0a.37.37,0,0,0,.37-.37.36.36,0,0,1,0-.5Zm2.13-12a.38.38,0,0,0-.38.37.38.38,0,0,0-.38.38v0a.37.37,0,0,0-.25.35.3.3,0,0,0,0,.14.38.38,0,0,0-.28.36.36.36,0,0,0,.1.25.39.39,0,0,0-.1.25A.38.38,0,0,0,15,51a.32.32,0,0,0,.14,0,.38.38,0,0,0,.36.28l.13,0a.38.38,0,0,1,.12.27v.25H16V48.52Zm-12.5,13a.38.38,0,0,0-.28-.36.59.59,0,0,0,0-.14.37.37,0,0,0-.25-.35v0a.38.38,0,0,0-.38-.37.38.38,0,1,0-.75,0,.37.37,0,0,0-.37.37v0a.38.38,0,0,0-.26.35.58.58,0,0,0,0,.14A7.69,7.69,0,0,1,.88,62a.36.36,0,0,0,.37.37l.14,0a.37.37,0,0,0,.36.27.3.3,0,0,0,.13,0,.42.42,0,0,1,.12.27v.25h.25v-.25a.42.42,0,0,1,.12-.27.3.3,0,0,0,.13,0,.37.37,0,0,0,.36-.27l.14,0a10.87,10.87,0,0,0,.38-.87ZM16,56.17a.38.38,0,0,0-.28-.36.32.32,0,0,0,0-.14.38.38,0,0,0-.25-.35v0a.38.38,0,0,0-.38-.38.37.37,0,0,0-.74,0,.38.38,0,0,0-.38.38v0a.38.38,0,0,0-.25.35.32.32,0,0,0,0,.14.38.38,0,0,0-.28.36.36.36,0,0,0,.1.25.39.39,0,0,0-.1.25.38.38,0,0,0,.38.38A.31.31,0,0,0,14,57a.39.39,0,0,0,.37.28l.12,0a.34.34,0,0,1,.12.27v.25h.26v-.25a.34.34,0,0,1,.12-.27l.12,0a.39.39,0,0,0,.37-.28.31.31,0,0,0,.13,0,.38.38,0,0,0,.38-.38.39.39,0,0,0-.1-.25A.36.36,0,0,0,16,56.17ZM9.53,48.12A.24.24,0,0,0,9.6,48H7.15a.24.24,0,0,0,.07.12.39.39,0,0,0-.1.25.38.38,0,0,0,.38.38.32.32,0,0,0,.14,0A.38.38,0,0,0,8,49l.13,0a.38.38,0,0,1,.12.27v.25H8.5v-.25A.38.38,0,0,1,8.62,49l.13,0a.38.38,0,0,0,.36-.28.32.32,0,0,0,.14,0,.37.37,0,0,0,.37-.38A.38.38,0,0,0,9.53,48.12ZM9.35,63.51a.29.29,0,0,0,0-.14A.38.38,0,0,0,9.12,63v0a.37.37,0,0,0-.37-.38.38.38,0,0,0-.75,0,.38.38,0,0,0-.38.38v0a.37.37,0,0,0-.25.35.3.3,0,0,0,0,.14.38.38,0,0,0-.28.36.28.28,0,0,0,0,.13H9.6a.27.27,0,0,0,0-.13A.37.37,0,0,0,9.35,63.51Z"/><path id="exotic_non_random_dense-11" data-name="exotic_non_random_dense" class="cls-2" d="M17,34.37a.38.38,0,0,1,.09.25.37.37,0,0,1-.37.38.32.32,0,0,1-.14,0,.38.38,0,0,1-.36.28l-.13,0a.38.38,0,0,0-.12.27v-3a.37.37,0,0,1,.25.35.37.37,0,0,1,.37.38v0a.38.38,0,0,1,.26.35.29.29,0,0,1,0,.14.37.37,0,0,1,.27.36A.35.35,0,0,1,17,34.37Zm4,1.38a.38.38,0,0,0-.28-.36.32.32,0,0,0,0-.14.38.38,0,0,0-.25-.35v0a.38.38,0,0,0-.38-.37.37.37,0,1,0-.74,0,.38.38,0,0,0-.38.37v0a.38.38,0,0,0-.25.35.32.32,0,0,0,0,.14.37.37,0,0,0-.18.61.37.37,0,0,0,.28.62l.13,0a.38.38,0,0,0,.37.27.25.25,0,0,0,.12,0,.37.37,0,0,1,.12.27v.25h.26v-.25a.37.37,0,0,1,.12-.27.25.25,0,0,0,.12,0,.38.38,0,0,0,.37-.27l.13,0A.37.37,0,0,0,20.9,36,.37.37,0,0,0,21,35.75ZM28.5,37a.38.38,0,0,0-.28-.36.32.32,0,0,0,0-.14.38.38,0,0,0-.25-.35v0a.38.38,0,0,0-.38-.37.37.37,0,1,0-.74,0,.38.38,0,0,0-.38.37v0a.38.38,0,0,0-.25.35.32.32,0,0,0,0,.14.37.37,0,0,0-.18.61.37.37,0,0,0,.28.62l.13,0a.38.38,0,0,0,.37.27.25.25,0,0,0,.12,0,.37.37,0,0,1,.12.27v.25h.26v-.25a.37.37,0,0,1,.12-.27.25.25,0,0,0,.12,0,.38.38,0,0,0,.37-.27l.13,0a.37.37,0,0,0,.28-.62A.37.37,0,0,0,28.5,37Zm-5.25,5a.38.38,0,0,0-.28-.36.32.32,0,0,0,0-.14.38.38,0,0,0-.25-.35v0a.38.38,0,0,0-.37-.37.38.38,0,1,0-.76,0,.38.38,0,0,0-.37.37v0a.38.38,0,0,0-.25.35.32.32,0,0,0,0,.14.37.37,0,0,0-.18.61.37.37,0,0,0-.1.25.37.37,0,0,0,.37.37l.14,0a.37.37,0,0,0,.36.27.27.27,0,0,0,.13,0,.39.39,0,0,1,.13.27v.25h.24v-.25a.39.39,0,0,1,.13-.27.27.27,0,0,0,.13,0,.38.38,0,0,0,.36-.27l.14,0a.37.37,0,0,0,.37-.37.37.37,0,0,0-.1-.25A.37.37,0,0,0,23.25,42Zm6.5,2.5a.38.38,0,0,0-.28-.36.32.32,0,0,0,0-.14.38.38,0,0,0-.25-.35v0a.38.38,0,0,0-.37-.37.38.38,0,0,0-.76,0,.38.38,0,0,0-.37.37v0a.38.38,0,0,0-.25.35.32.32,0,0,0,0,.14.37.37,0,0,0-.18.61.37.37,0,0,0-.1.25.37.37,0,0,0,.37.37l.14,0a.37.37,0,0,0,.36.27.27.27,0,0,0,.13,0,.39.39,0,0,1,.13.27v.25h.24v-.25a.39.39,0,0,1,.13-.27.27.27,0,0,0,.13,0,.38.38,0,0,0,.36-.27l.14,0a.37.37,0,0,0,.37-.37.37.37,0,0,0-.1-.25A.37.37,0,0,0,29.75,44.5Zm2.13-12a.38.38,0,0,0-.38.37.38.38,0,0,0-.38.38v0a.37.37,0,0,0-.25.35.3.3,0,0,0,0,.14.38.38,0,0,0-.28.36.36.36,0,0,0,.1.25.39.39,0,0,0-.1.25A.38.38,0,0,0,31,35a.32.32,0,0,0,.14,0,.38.38,0,0,0,.36.28l.13,0a.38.38,0,0,1,.12.27v.25H32V32.52Zm-12.5,13a.38.38,0,0,0-.28-.36.59.59,0,0,0,0-.14.37.37,0,0,0-.25-.35v0a.38.38,0,0,0-.38-.37.38.38,0,1,0-.75,0,.37.37,0,0,0-.37.37v0a.38.38,0,0,0-.26.35.58.58,0,0,0,0,.14.38.38,0,0,0-.18.61.38.38,0,0,0,.28.62l.14,0a.37.37,0,0,0,.36.27.3.3,0,0,0,.13,0,.42.42,0,0,1,.12.27v.25h.25v-.25a.42.42,0,0,1,.12-.27.3.3,0,0,0,.13,0,.37.37,0,0,0,.36-.27l.14,0a.37.37,0,0,0,.28-.62A.37.37,0,0,0,19.38,45.5ZM32,40.17a.38.38,0,0,0-.28-.36.32.32,0,0,0,0-.14.38.38,0,0,0-.25-.35v0a.38.38,0,0,0-.38-.38.37.37,0,0,0-.74,0,.38.38,0,0,0-.38.38v0a.38.38,0,0,0-.25.35.32.32,0,0,0,0,.14.38.38,0,0,0-.28.36.36.36,0,0,0,.1.25.39.39,0,0,0-.1.25.38.38,0,0,0,.38.38A.31.31,0,0,0,30,41a.39.39,0,0,0,.37.28l.12,0a.34.34,0,0,1,.12.27v.25h.26v-.25a.34.34,0,0,1,.12-.27l.12,0a.39.39,0,0,0,.37-.28.31.31,0,0,0,.13,0,.38.38,0,0,0,.38-.38.39.39,0,0,0-.1-.25A.36.36,0,0,0,32,40.17Zm-6.47-8.05A.24.24,0,0,0,25.6,32H23.15a.24.24,0,0,0,.07.12.39.39,0,0,0-.1.25.38.38,0,0,0,.38.38.32.32,0,0,0,.14,0A.38.38,0,0,0,24,33l.13,0a.38.38,0,0,1,.12.27v.25h.25v-.25a.38.38,0,0,1,.12-.27l.13,0a.38.38,0,0,0,.36-.28.32.32,0,0,0,.14,0,.37.37,0,0,0,.37-.38A.38.38,0,0,0,25.53,32.12Zm-.18,15.39a.29.29,0,0,0,0-.14.38.38,0,0,0-.26-.35v0a.37.37,0,0,0-.37-.38.38.38,0,0,0-.75,0,.38.38,0,0,0-.38.38v0a.37.37,0,0,0-.25.35.3.3,0,0,0,0,.14.38.38,0,0,0-.28.36.28.28,0,0,0,0,.13H25.6a.27.27,0,0,0,0-.13A.38.38,0,0,0,25.35,47.51Z"/><path id="exotic_non_random_dense-12" data-name="exotic_non_random_dense" class="cls-2" d="M17,50.37a.38.38,0,0,1,.09.25.37.37,0,0,1-.37.38.32.32,0,0,1-.14,0,.38.38,0,0,1-.36.28l-.13,0a.38.38,0,0,0-.12.27v-3a.37.37,0,0,1,.25.35.37.37,0,0,1,.37.38v0a.38.38,0,0,1,.26.35.29.29,0,0,1,0,.14.37.37,0,0,1,.27.36A.35.35,0,0,1,17,50.37Zm4,1.38a.38.38,0,0,0-.28-.36.32.32,0,0,0,0-.14.38.38,0,0,0-.25-.35v0a.38.38,0,0,0-.38-.37.37.37,0,1,0-.74,0,.38.38,0,0,0-.38.37v0a.38.38,0,0,0-.25.35.32.32,0,0,0,0,.14,4.84,4.84,0,0,1-.28.86.37.37,0,0,0,.38.37l.13,0a.38.38,0,0,0,.37.27.25.25,0,0,0,.12,0,.37.37,0,0,1,.12.27v.25h.26v-.25a.37.37,0,0,1,.12-.27.25.25,0,0,0,.12,0,.38.38,0,0,0,.37-.27l.13,0a10.87,10.87,0,0,0,.38-.87ZM28.5,53a.38.38,0,0,0-.28-.36.32.32,0,0,0,0-.14.38.38,0,0,0-.25-.35v0a.38.38,0,0,0-.38-.37.37.37,0,1,0-.74,0,.38.38,0,0,0-.38.37v0a.38.38,0,0,0-.25.35.32.32,0,0,0,0,.14,4.84,4.84,0,0,1-.28.86.37.37,0,0,0,.38.37l.13,0a.38.38,0,0,0,.37.27.25.25,0,0,0,.12,0,.37.37,0,0,1,.12.27v.25h.26v-.25a.37.37,0,0,1,.12-.27.25.25,0,0,0,.12,0,.38.38,0,0,0,.37-.27l.13,0A10.87,10.87,0,0,0,28.5,53Zm-5.25,5a.38.38,0,0,0-.28-.36.32.32,0,0,0,0-.14.38.38,0,0,0-.25-.35v0a.38.38,0,0,0-.37-.37.38.38,0,0,0-.76,0,.38.38,0,0,0-.37.37v0a.38.38,0,0,0-.25.35.32.32,0,0,0,0,.14,4.84,4.84,0,0,1-.28.86.37.37,0,0,0,.37.37l.14,0a.38.38,0,0,0,.36.27.27.27,0,0,0,.13,0,.39.39,0,0,1,.13.27v.25h.24v-.25a.39.39,0,0,1,.13-.27.27.27,0,0,0,.13,0,.37.37,0,0,0,.36-.27l.14,0a.37.37,0,0,0,.37-.37.36.36,0,0,1,0-.5Zm6.5,2.5a.38.38,0,0,0-.28-.36.32.32,0,0,0,0-.14.38.38,0,0,0-.25-.35v0a.38.38,0,0,0-.37-.37.38.38,0,0,0-.76,0,.38.38,0,0,0-.37.37v0a.38.38,0,0,0-.25.35.32.32,0,0,0,0,.14,4.84,4.84,0,0,1-.28.86.37.37,0,0,0,.37.37l.14,0a.37.37,0,0,0,.36.27.27.27,0,0,0,.13,0,.39.39,0,0,1,.13.27v.25h.24v-.25a.39.39,0,0,1,.13-.27.27.27,0,0,0,.13,0,.37.37,0,0,0,.36-.27l.14,0a.37.37,0,0,0,.37-.37.36.36,0,0,1,0-.5Zm2.13-12a.38.38,0,0,0-.38.37.38.38,0,0,0-.38.38v0a.37.37,0,0,0-.25.35.3.3,0,0,0,0,.14.38.38,0,0,0-.28.36.36.36,0,0,0,.1.25.39.39,0,0,0-.1.25A.38.38,0,0,0,31,51a.32.32,0,0,0,.14,0,.38.38,0,0,0,.36.28l.13,0a.38.38,0,0,1,.12.27v.25H32V48.52Zm-12.5,13a.38.38,0,0,0-.28-.36.59.59,0,0,0,0-.14.37.37,0,0,0-.25-.35v0a.38.38,0,0,0-.38-.37.38.38,0,1,0-.75,0,.37.37,0,0,0-.37.37v0a.38.38,0,0,0-.26.35.58.58,0,0,0,0,.14,7.69,7.69,0,0,1-.27.86.36.36,0,0,0,.37.37l.14,0a.37.37,0,0,0,.36.27.3.3,0,0,0,.13,0,.42.42,0,0,1,.12.27v.25h.25v-.25a.42.42,0,0,1,.12-.27.3.3,0,0,0,.13,0,.37.37,0,0,0,.36-.27l.14,0a10.87,10.87,0,0,0,.38-.87ZM32,56.17a.38.38,0,0,0-.28-.36.32.32,0,0,0,0-.14.38.38,0,0,0-.25-.35v0a.38.38,0,0,0-.38-.38.37.37,0,0,0-.74,0,.38.38,0,0,0-.38.38v0a.38.38,0,0,0-.25.35.32.32,0,0,0,0,.14.38.38,0,0,0-.28.36.36.36,0,0,0,.1.25.39.39,0,0,0-.1.25.38.38,0,0,0,.38.38A.31.31,0,0,0,30,57a.39.39,0,0,0,.37.28l.12,0a.34.34,0,0,1,.12.27v.25h.26v-.25a.34.34,0,0,1,.12-.27l.12,0a.39.39,0,0,0,.37-.28.31.31,0,0,0,.13,0,.38.38,0,0,0,.38-.38.39.39,0,0,0-.1-.25A.36.36,0,0,0,32,56.17Zm-6.47-8.05A.24.24,0,0,0,25.6,48H23.15a.24.24,0,0,0,.07.12.39.39,0,0,0-.1.25.38.38,0,0,0,.38.38.32.32,0,0,0,.14,0A.38.38,0,0,0,24,49l.13,0a.38.38,0,0,1,.12.27v.25h.25v-.25a.38.38,0,0,1,.12-.27l.13,0a.38.38,0,0,0,.36-.28.32.32,0,0,0,.14,0,.37.37,0,0,0,.37-.38A.38.38,0,0,0,25.53,48.12Zm-.18,15.39a.29.29,0,0,0,0-.14.38.38,0,0,0-.26-.35v0a.37.37,0,0,0-.37-.38.38.38,0,0,0-.75,0,.38.38,0,0,0-.38.38v0a.37.37,0,0,0-.25.35.3.3,0,0,0,0,.14.38.38,0,0,0-.28.36.28.28,0,0,0,0,.13H25.6a.27.27,0,0,0,0-.13A.38.38,0,0,0,25.35,63.51Z"/></g><g id="exotic_non_poly_random_dense_half-4" data-name="exotic_non_poly_random_dense_half"><rect id="bbox_64-4" data-name="bbox_64" class="cls-1" x="32" y="32" width="32" height="32"/><path id="exotic_non_random_dense-13" data-name="exotic_non_random_dense" class="cls-2" d="M33,34.37a.38.38,0,0,1,.09.25.37.37,0,0,1-.37.38.32.32,0,0,1-.14,0,.38.38,0,0,1-.36.28l-.13,0a.38.38,0,0,0-.12.27v-3a.37.37,0,0,1,.25.35.37.37,0,0,1,.37.38v0a.38.38,0,0,1,.26.35.29.29,0,0,1,0,.14.37.37,0,0,1,.27.36A.35.35,0,0,1,33,34.37Zm4,1.38a.38.38,0,0,0-.28-.36.32.32,0,0,0,0-.14.38.38,0,0,0-.25-.35v0a.38.38,0,0,0-.38-.37.37.37,0,1,0-.74,0,.38.38,0,0,0-.38.37v0a.38.38,0,0,0-.25.35.32.32,0,0,0,0,.14.37.37,0,0,0-.18.61.37.37,0,0,0,.28.62l.13,0a.38.38,0,0,0,.37.27.25.25,0,0,0,.12,0,.37.37,0,0,1,.12.27v.25h.26v-.25a.37.37,0,0,1,.12-.27.25.25,0,0,0,.12,0,.38.38,0,0,0,.37-.27l.13,0A.37.37,0,0,0,36.9,36,.37.37,0,0,0,37,35.75ZM44.5,37a.38.38,0,0,0-.28-.36.32.32,0,0,0,0-.14.38.38,0,0,0-.25-.35v0a.38.38,0,0,0-.38-.37.37.37,0,1,0-.74,0,.38.38,0,0,0-.38.37v0a.38.38,0,0,0-.25.35.32.32,0,0,0,0,.14.37.37,0,0,0-.18.61.37.37,0,0,0,.28.62l.13,0a.38.38,0,0,0,.37.27.25.25,0,0,0,.12,0,.37.37,0,0,1,.12.27v.25h.26v-.25a.37.37,0,0,1,.12-.27.25.25,0,0,0,.12,0,.38.38,0,0,0,.37-.27l.13,0a.37.37,0,0,0,.28-.62A.37.37,0,0,0,44.5,37Zm-5.25,5a.38.38,0,0,0-.28-.36.32.32,0,0,0,0-.14.38.38,0,0,0-.25-.35v0a.38.38,0,0,0-.37-.37.38.38,0,0,0-.76,0,.38.38,0,0,0-.37.37v0a.38.38,0,0,0-.25.35.32.32,0,0,0,0,.14.37.37,0,0,0-.18.61.37.37,0,0,0-.1.25.37.37,0,0,0,.37.37l.14,0a.38.38,0,0,0,.36.27.27.27,0,0,0,.13,0,.39.39,0,0,1,.13.27v.25h.24v-.25a.39.39,0,0,1,.13-.27.27.27,0,0,0,.13,0,.37.37,0,0,0,.36-.27l.14,0a.37.37,0,0,0,.37-.37.37.37,0,0,0-.1-.25A.37.37,0,0,0,39.25,42Zm6.5,2.5a.38.38,0,0,0-.28-.36.32.32,0,0,0,0-.14.38.38,0,0,0-.25-.35v0a.38.38,0,0,0-.37-.37.38.38,0,0,0-.76,0,.38.38,0,0,0-.37.37v0a.38.38,0,0,0-.25.35.32.32,0,0,0,0,.14.37.37,0,0,0-.18.61.37.37,0,0,0-.1.25.37.37,0,0,0,.37.37l.14,0a.38.38,0,0,0,.36.27.27.27,0,0,0,.13,0,.39.39,0,0,1,.13.27v.25h.24v-.25a.39.39,0,0,1,.13-.27.27.27,0,0,0,.13,0,.38.38,0,0,0,.36-.27l.14,0a.37.37,0,0,0,.37-.37.37.37,0,0,0-.1-.25A.37.37,0,0,0,45.75,44.5Zm2.13-12a.38.38,0,0,0-.38.37.38.38,0,0,0-.38.38v0a.37.37,0,0,0-.25.35.3.3,0,0,0,0,.14.38.38,0,0,0-.28.36.36.36,0,0,0,.1.25.39.39,0,0,0-.1.25A.38.38,0,0,0,47,35a.32.32,0,0,0,.14,0,.38.38,0,0,0,.36.28l.13,0a.38.38,0,0,1,.12.27v.25H48V32.52Zm-12.5,13a.38.38,0,0,0-.28-.36.59.59,0,0,0,0-.14.37.37,0,0,0-.25-.35v0a.38.38,0,0,0-.38-.37.38.38,0,1,0-.75,0,.37.37,0,0,0-.37.37v0a.38.38,0,0,0-.26.35.58.58,0,0,0,0,.14.38.38,0,0,0-.18.61.38.38,0,0,0,.28.62l.14,0a.37.37,0,0,0,.36.27.3.3,0,0,0,.13,0,.42.42,0,0,1,.12.27v.25h.25v-.25a.42.42,0,0,1,.12-.27.3.3,0,0,0,.13,0,.37.37,0,0,0,.36-.27l.14,0a.37.37,0,0,0,.28-.62A.37.37,0,0,0,35.38,45.5ZM48,40.17a.38.38,0,0,0-.28-.36.32.32,0,0,0,0-.14.38.38,0,0,0-.25-.35v0a.38.38,0,0,0-.38-.38.37.37,0,1,0-.74,0,.38.38,0,0,0-.38.38v0a.38.38,0,0,0-.25.35.32.32,0,0,0,0,.14.38.38,0,0,0-.28.36.36.36,0,0,0,.1.25.39.39,0,0,0-.1.25.38.38,0,0,0,.38.38A.31.31,0,0,0,46,41a.39.39,0,0,0,.37.28l.12,0a.34.34,0,0,1,.12.27v.25h.26v-.25a.34.34,0,0,1,.12-.27l.12,0a.39.39,0,0,0,.37-.28.31.31,0,0,0,.13,0,.38.38,0,0,0,.38-.38.39.39,0,0,0-.1-.25A.36.36,0,0,0,48,40.17Zm-6.47-8.05A.24.24,0,0,0,41.6,32H39.15a.24.24,0,0,0,.07.12.39.39,0,0,0-.1.25.38.38,0,0,0,.38.38.32.32,0,0,0,.14,0A.38.38,0,0,0,40,33l.13,0a.38.38,0,0,1,.12.27v.25h.25v-.25a.38.38,0,0,1,.12-.27l.13,0a.38.38,0,0,0,.36-.28.32.32,0,0,0,.14,0,.37.37,0,0,0,.37-.38A.38.38,0,0,0,41.53,32.12Zm-.18,15.39a.29.29,0,0,0,0-.14.38.38,0,0,0-.26-.35v0a.37.37,0,0,0-.37-.38.38.38,0,0,0-.75,0,.38.38,0,0,0-.38.38v0a.37.37,0,0,0-.25.35.3.3,0,0,0,0,.14.38.38,0,0,0-.28.36.28.28,0,0,0,0,.13H41.6a.27.27,0,0,0,0-.13A.37.37,0,0,0,41.35,47.51Z"/><path id="exotic_non_random_dense-14" data-name="exotic_non_random_dense" class="cls-2" d="M33,50.37a.38.38,0,0,1,.09.25.37.37,0,0,1-.37.38.32.32,0,0,1-.14,0,.38.38,0,0,1-.36.28l-.13,0a.38.38,0,0,0-.12.27v-3a.37.37,0,0,1,.25.35.37.37,0,0,1,.37.38v0a.38.38,0,0,1,.26.35.29.29,0,0,1,0,.14.37.37,0,0,1,.27.36A.35.35,0,0,1,33,50.37Zm4,1.38a.38.38,0,0,0-.28-.36.32.32,0,0,0,0-.14.38.38,0,0,0-.25-.35v0a.38.38,0,0,0-.38-.37.37.37,0,1,0-.74,0,.38.38,0,0,0-.38.37v0a.38.38,0,0,0-.25.35.32.32,0,0,0,0,.14,4.84,4.84,0,0,1-.28.86.37.37,0,0,0,.38.37l.13,0a.38.38,0,0,0,.37.27.25.25,0,0,0,.12,0,.37.37,0,0,1,.12.27v.25h.26v-.25a.37.37,0,0,1,.12-.27.25.25,0,0,0,.12,0,.38.38,0,0,0,.37-.27l.13,0a10.87,10.87,0,0,0,.38-.87ZM44.5,53a.38.38,0,0,0-.28-.36.32.32,0,0,0,0-.14.38.38,0,0,0-.25-.35v0a.38.38,0,0,0-.38-.37.37.37,0,1,0-.74,0,.38.38,0,0,0-.38.37v0a.38.38,0,0,0-.25.35.32.32,0,0,0,0,.14,4.84,4.84,0,0,1-.28.86.37.37,0,0,0,.38.37l.13,0a.38.38,0,0,0,.37.27.25.25,0,0,0,.12,0,.37.37,0,0,1,.12.27v.25h.26v-.25a.37.37,0,0,1,.12-.27.25.25,0,0,0,.12,0,.38.38,0,0,0,.37-.27l.13,0A10.87,10.87,0,0,0,44.5,53Zm-5.25,5a.38.38,0,0,0-.28-.36.32.32,0,0,0,0-.14.38.38,0,0,0-.25-.35v0a.38.38,0,0,0-.37-.37.38.38,0,0,0-.76,0,.38.38,0,0,0-.37.37v0a.38.38,0,0,0-.25.35.32.32,0,0,0,0,.14,4.84,4.84,0,0,1-.28.86.37.37,0,0,0,.37.37l.14,0a.38.38,0,0,0,.36.27.27.27,0,0,0,.13,0,.39.39,0,0,1,.13.27v.25h.24v-.25a.39.39,0,0,1,.13-.27.27.27,0,0,0,.13,0,.38.38,0,0,0,.36-.27l.14,0a.37.37,0,0,0,.37-.37.36.36,0,0,1,0-.5Zm6.5,2.5a.38.38,0,0,0-.28-.36.32.32,0,0,0,0-.14.38.38,0,0,0-.25-.35v0a.38.38,0,0,0-.37-.37.38.38,0,0,0-.76,0,.38.38,0,0,0-.37.37v0a.38.38,0,0,0-.25.35.32.32,0,0,0,0,.14,4.84,4.84,0,0,1-.28.86.37.37,0,0,0,.37.37l.14,0a.38.38,0,0,0,.36.27.27.27,0,0,0,.13,0,.39.39,0,0,1,.13.27v.25h.24v-.25a.39.39,0,0,1,.13-.27.27.27,0,0,0,.13,0,.38.38,0,0,0,.36-.27l.14,0a.37.37,0,0,0,.37-.37.36.36,0,0,1,0-.5Zm2.13-12a40,40,0,0,0-.76.75v0a.37.37,0,0,0-.25.35.3.3,0,0,0,0,.14.38.38,0,0,0-.28.36.36.36,0,0,0,.1.25.39.39,0,0,0-.1.25A.38.38,0,0,0,47,51a.32.32,0,0,0,.14,0,.38.38,0,0,0,.36.28l.13,0a.38.38,0,0,1,.12.27v.25H48V48.52Zm-12.5,13a.38.38,0,0,0-.28-.36.59.59,0,0,0,0-.14.37.37,0,0,0-.25-.35v0a.38.38,0,0,0-.38-.37.38.38,0,1,0-.75,0,.37.37,0,0,0-.37.37v0a.38.38,0,0,0-.26.35.58.58,0,0,0,0,.14,7.69,7.69,0,0,1-.27.86.36.36,0,0,0,.37.37l.14,0a.37.37,0,0,0,.36.27.3.3,0,0,0,.13,0,.42.42,0,0,1,.12.27v.25h.25v-.25a.42.42,0,0,1,.12-.27.3.3,0,0,0,.13,0,.37.37,0,0,0,.36-.27l.14,0a10.87,10.87,0,0,0,.38-.87ZM48,56.17a.38.38,0,0,0-.28-.36.32.32,0,0,0,0-.14.38.38,0,0,0-.25-.35v0a.38.38,0,0,0-.38-.38.37.37,0,1,0-.74,0,.38.38,0,0,0-.38.38v0a.38.38,0,0,0-.25.35.32.32,0,0,0,0,.14.38.38,0,0,0-.28.36.36.36,0,0,0,.1.25.39.39,0,0,0-.1.25.38.38,0,0,0,.38.38A.31.31,0,0,0,46,57a.39.39,0,0,0,.37.28l.12,0a.34.34,0,0,1,.12.27v.25h.26v-.25a.34.34,0,0,1,.12-.27l.12,0a.39.39,0,0,0,.37-.28.31.31,0,0,0,.13,0,.38.38,0,0,0,.38-.38.39.39,0,0,0-.1-.25A.36.36,0,0,0,48,56.17Zm-6.47-8.05A.24.24,0,0,0,41.6,48H39.15a.24.24,0,0,0,.07.12.39.39,0,0,0-.1.25.38.38,0,0,0,.38.38.32.32,0,0,0,.14,0A.38.38,0,0,0,40,49l.13,0a.38.38,0,0,1,.12.27v.25h.25v-.25a.38.38,0,0,1,.12-.27l.13,0a.38.38,0,0,0,.36-.28.32.32,0,0,0,.14,0,.37.37,0,0,0,.37-.38A.38.38,0,0,0,41.53,48.12Zm-.18,15.39a.29.29,0,0,0,0-.14.38.38,0,0,0-.26-.35v0a.37.37,0,0,0-.37-.38.38.38,0,0,0-.75,0,.38.38,0,0,0-.38.38v0a.37.37,0,0,0-.25.35.3.3,0,0,0,0,.14.38.38,0,0,0-.28.36.28.28,0,0,0,0,.13H41.6a.27.27,0,0,0,0-.13A.37.37,0,0,0,41.35,63.51Z"/><path id="exotic_non_random_dense-15" data-name="exotic_non_random_dense" class="cls-2" d="M49,34.37a.38.38,0,0,1,.09.25.37.37,0,0,1-.37.38.32.32,0,0,1-.14,0,.38.38,0,0,1-.36.28l-.13,0a.38.38,0,0,0-.12.27v-3a.37.37,0,0,1,.25.35.37.37,0,0,1,.37.38v0a.38.38,0,0,1,.26.35.29.29,0,0,1,0,.14.37.37,0,0,1,.27.36A.35.35,0,0,1,49,34.37Zm4,1.38a.38.38,0,0,0-.28-.36.32.32,0,0,0,0-.14.38.38,0,0,0-.25-.35v0a.38.38,0,0,0-.38-.37.37.37,0,1,0-.74,0,.38.38,0,0,0-.38.37v0a.38.38,0,0,0-.25.35.32.32,0,0,0,0,.14.37.37,0,0,0-.18.61.37.37,0,0,0,.28.62l.13,0a.38.38,0,0,0,.37.27.25.25,0,0,0,.12,0,.37.37,0,0,1,.12.27v.25h.26v-.25a.37.37,0,0,1,.12-.27.25.25,0,0,0,.12,0,.38.38,0,0,0,.37-.27l.13,0A.37.37,0,0,0,52.9,36,.37.37,0,0,0,53,35.75ZM60.5,37a.38.38,0,0,0-.28-.36.32.32,0,0,0,0-.14.38.38,0,0,0-.25-.35v0a.38.38,0,0,0-.38-.37.37.37,0,1,0-.74,0,.38.38,0,0,0-.38.37v0a.38.38,0,0,0-.25.35.32.32,0,0,0,0,.14.37.37,0,0,0-.18.61.37.37,0,0,0,.28.62l.13,0a.38.38,0,0,0,.37.27.25.25,0,0,0,.12,0,.37.37,0,0,1,.12.27v.25h.26v-.25a.37.37,0,0,1,.12-.27.25.25,0,0,0,.12,0,.38.38,0,0,0,.37-.27l.13,0a.37.37,0,0,0,.28-.62A.37.37,0,0,0,60.5,37Zm-5.25,5a.38.38,0,0,0-.28-.36.32.32,0,0,0,0-.14.38.38,0,0,0-.25-.35v0a.38.38,0,0,0-.37-.37.38.38,0,0,0-.76,0,.38.38,0,0,0-.37.37v0a.38.38,0,0,0-.25.35.32.32,0,0,0,0,.14.37.37,0,0,0-.18.61.37.37,0,0,0-.1.25.37.37,0,0,0,.37.37l.14,0a.38.38,0,0,0,.36.27.27.27,0,0,0,.13,0,.39.39,0,0,1,.13.27v.25h.24v-.25a.39.39,0,0,1,.13-.27.27.27,0,0,0,.13,0,.38.38,0,0,0,.36-.27l.14,0a.37.37,0,0,0,.37-.37.37.37,0,0,0-.1-.25A.37.37,0,0,0,55.25,42Zm6.5,2.5a.38.38,0,0,0-.28-.36.32.32,0,0,0,0-.14.38.38,0,0,0-.25-.35v0a.38.38,0,0,0-.37-.37.38.38,0,0,0-.76,0,.38.38,0,0,0-.37.37v0a.38.38,0,0,0-.25.35.32.32,0,0,0,0,.14.37.37,0,0,0-.18.61.37.37,0,0,0-.1.25.37.37,0,0,0,.37.37l.14,0a.38.38,0,0,0,.36.27.27.27,0,0,0,.13,0,.39.39,0,0,1,.13.27v.25h.24v-.25a.39.39,0,0,1,.13-.27.27.27,0,0,0,.13,0,.37.37,0,0,0,.36-.27l.14,0a.37.37,0,0,0,.37-.37.37.37,0,0,0-.1-.25A.37.37,0,0,0,61.75,44.5Zm2.13-12a.38.38,0,0,0-.38.37.38.38,0,0,0-.38.38v0a.37.37,0,0,0-.25.35.3.3,0,0,0,0,.14.38.38,0,0,0-.28.36.36.36,0,0,0,.1.25.39.39,0,0,0-.1.25A.38.38,0,0,0,63,35a.32.32,0,0,0,.14,0,.38.38,0,0,0,.36.28l.13,0a.38.38,0,0,1,.12.27v.25H64V32.52Zm-12.5,13a.38.38,0,0,0-.28-.36.59.59,0,0,0,0-.14.37.37,0,0,0-.25-.35v0a40,40,0,0,1-.76-.75.38.38,0,0,0-.37.38.37.37,0,0,0-.37.37v0a.38.38,0,0,0-.26.35.58.58,0,0,0,0,.14.38.38,0,0,0-.18.61.38.38,0,0,0,.28.62l.14,0a.37.37,0,0,0,.36.27.3.3,0,0,0,.13,0,.42.42,0,0,1,.12.27v.25h.25v-.25a.42.42,0,0,1,.12-.27.3.3,0,0,0,.13,0,.37.37,0,0,0,.36-.27l.14,0a.37.37,0,0,0,.28-.62A.37.37,0,0,0,51.38,45.5ZM64,40.17a.38.38,0,0,0-.28-.36.32.32,0,0,0,0-.14.38.38,0,0,0-.25-.35v0a.38.38,0,0,0-.38-.38.37.37,0,1,0-.74,0,.38.38,0,0,0-.38.38v0a.38.38,0,0,0-.25.35.32.32,0,0,0,0,.14.38.38,0,0,0-.28.36.36.36,0,0,0,.1.25.39.39,0,0,0-.1.25.38.38,0,0,0,.38.38A.31.31,0,0,0,62,41a.39.39,0,0,0,.37.28l.12,0a.34.34,0,0,1,.12.27v.25h.26v-.25a.34.34,0,0,1,.12-.27l.12,0a.39.39,0,0,0,.37-.28.31.31,0,0,0,.13,0,.38.38,0,0,0,.38-.38.39.39,0,0,0-.1-.25A.36.36,0,0,0,64,40.17Zm-6.47-8.05A.24.24,0,0,0,57.6,32H55.15a.24.24,0,0,0,.07.12.39.39,0,0,0-.1.25.38.38,0,0,0,.38.38.32.32,0,0,0,.14,0A.38.38,0,0,0,56,33l.13,0a.38.38,0,0,1,.12.27v.25h.25v-.25a.38.38,0,0,1,.12-.27l.13,0a.38.38,0,0,0,.36-.28.32.32,0,0,0,.14,0,.37.37,0,0,0,.37-.38A.38.38,0,0,0,57.53,32.12Zm-.18,15.39a.29.29,0,0,0,0-.14.38.38,0,0,0-.26-.35v0a.37.37,0,0,0-.37-.38.38.38,0,0,0-.75,0,.38.38,0,0,0-.38.38v0a.37.37,0,0,0-.25.35.3.3,0,0,0,0,.14.38.38,0,0,0-.28.36.28.28,0,0,0,0,.13H57.6a.27.27,0,0,0,0-.13A.38.38,0,0,0,57.35,47.51Z"/><path id="exotic_non_random_dense-16" data-name="exotic_non_random_dense" class="cls-2" d="M49,50.37a.38.38,0,0,1,.09.25.37.37,0,0,1-.37.38.32.32,0,0,1-.14,0,.38.38,0,0,1-.36.28l-.13,0a.38.38,0,0,0-.12.27v-3a.37.37,0,0,1,.25.35.37.37,0,0,1,.37.38v0a.38.38,0,0,1,.26.35.29.29,0,0,1,0,.14.37.37,0,0,1,.27.36A.35.35,0,0,1,49,50.37Zm4,1.38a.38.38,0,0,0-.28-.36.32.32,0,0,0,0-.14.38.38,0,0,0-.25-.35v0a.38.38,0,0,0-.38-.37.37.37,0,1,0-.74,0,.38.38,0,0,0-.38.37v0a.38.38,0,0,0-.25.35.32.32,0,0,0,0,.14,4.84,4.84,0,0,1-.28.86.37.37,0,0,0,.38.37l.13,0a.38.38,0,0,0,.37.27.25.25,0,0,0,.12,0,.37.37,0,0,1,.12.27v.25h.26v-.25a.37.37,0,0,1,.12-.27.25.25,0,0,0,.12,0,.38.38,0,0,0,.37-.27l.13,0a10.87,10.87,0,0,0,.38-.87ZM60.5,53a.38.38,0,0,0-.28-.36.32.32,0,0,0,0-.14.38.38,0,0,0-.25-.35v0a.38.38,0,0,0-.38-.37.37.37,0,1,0-.74,0,.38.38,0,0,0-.38.37v0a.38.38,0,0,0-.25.35.32.32,0,0,0,0,.14,4.84,4.84,0,0,1-.28.86.37.37,0,0,0,.38.37l.13,0a.38.38,0,0,0,.37.27.25.25,0,0,0,.12,0,.37.37,0,0,1,.12.27v.25h.26v-.25a.37.37,0,0,1,.12-.27.25.25,0,0,0,.12,0,.38.38,0,0,0,.37-.27l.13,0A10.87,10.87,0,0,0,60.5,53Zm-5.25,5a.38.38,0,0,0-.28-.36.32.32,0,0,0,0-.14.38.38,0,0,0-.25-.35v0a.38.38,0,0,0-.37-.37.38.38,0,0,0-.76,0,.38.38,0,0,0-.37.37v0a.38.38,0,0,0-.25.35.32.32,0,0,0,0,.14,4.84,4.84,0,0,1-.28.86.37.37,0,0,0,.37.37l.14,0a.38.38,0,0,0,.36.27.27.27,0,0,0,.13,0,.39.39,0,0,1,.13.27v.25h.24v-.25a.39.39,0,0,1,.13-.27.27.27,0,0,0,.13,0,.38.38,0,0,0,.36-.27l.14,0a.37.37,0,0,0,.37-.37.36.36,0,0,1,0-.5Zm6.5,2.5a.38.38,0,0,0-.28-.36.32.32,0,0,0,0-.14.38.38,0,0,0-.25-.35v0a.38.38,0,0,0-.37-.37.38.38,0,0,0-.76,0,.38.38,0,0,0-.37.37v0a.38.38,0,0,0-.25.35.32.32,0,0,0,0,.14,4.84,4.84,0,0,1-.28.86.37.37,0,0,0,.37.37l.14,0a.38.38,0,0,0,.36.27.27.27,0,0,0,.13,0,.39.39,0,0,1,.13.27v.25h.24v-.25a.39.39,0,0,1,.13-.27.27.27,0,0,0,.13,0,.38.38,0,0,0,.36-.27l.14,0a.37.37,0,0,0,.37-.37.36.36,0,0,1,0-.5Zm2.13-12a40,40,0,0,0-.76.75v0a.37.37,0,0,0-.25.35.3.3,0,0,0,0,.14.38.38,0,0,0-.28.36.36.36,0,0,0,.1.25.39.39,0,0,0-.1.25A.38.38,0,0,0,63,51a.32.32,0,0,0,.14,0,.38.38,0,0,0,.36.28l.13,0a.38.38,0,0,1,.12.27v.25H64V48.52Zm-12.5,13a.38.38,0,0,0-.28-.36.59.59,0,0,0,0-.14.37.37,0,0,0-.25-.35v0a40,40,0,0,1-.76-.75.38.38,0,0,0-.37.38.37.37,0,0,0-.37.37v0a.38.38,0,0,0-.26.35.58.58,0,0,0,0,.14,7.69,7.69,0,0,1-.27.86.36.36,0,0,0,.37.37l.14,0a.37.37,0,0,0,.36.27.3.3,0,0,0,.13,0,.42.42,0,0,1,.12.27v.25h.25v-.25a.42.42,0,0,1,.12-.27.3.3,0,0,0,.13,0,.37.37,0,0,0,.36-.27l.14,0a10.87,10.87,0,0,0,.38-.87ZM64,56.17a.38.38,0,0,0-.28-.36.32.32,0,0,0,0-.14.38.38,0,0,0-.25-.35v0a.38.38,0,0,0-.38-.38.37.37,0,1,0-.74,0,.38.38,0,0,0-.38.38v0a.38.38,0,0,0-.25.35.32.32,0,0,0,0,.14.38.38,0,0,0-.28.36.36.36,0,0,0,.1.25.39.39,0,0,0-.1.25.38.38,0,0,0,.38.38A.31.31,0,0,0,62,57a.39.39,0,0,0,.37.28l.12,0a.34.34,0,0,1,.12.27v.25h.26v-.25a.34.34,0,0,1,.12-.27l.12,0a.39.39,0,0,0,.37-.28.31.31,0,0,0,.13,0,.38.38,0,0,0,.38-.38.39.39,0,0,0-.1-.25A.36.36,0,0,0,64,56.17Zm-6.47-8.05A.24.24,0,0,0,57.6,48H55.15a.24.24,0,0,0,.07.12.39.39,0,0,0-.1.25.38.38,0,0,0,.38.38.32.32,0,0,0,.14,0A.38.38,0,0,0,56,49l.13,0a.38.38,0,0,1,.12.27v.25h.25v-.25a.38.38,0,0,1,.12-.27l.13,0a.38.38,0,0,0,.36-.28.32.32,0,0,0,.14,0,.37.37,0,0,0,.37-.38A.38.38,0,0,0,57.53,48.12Zm-.18,15.39a.29.29,0,0,0,0-.14.38.38,0,0,0-.26-.35v0a.37.37,0,0,0-.37-.38.38.38,0,0,0-.75,0,.38.38,0,0,0-.38.38v0a.37.37,0,0,0-.25.35.3.3,0,0,0,0,.14.38.38,0,0,0-.28.36.28.28,0,0,0,0,.13H57.6a.27.27,0,0,0,0-.13A.38.38,0,0,0,57.35,63.51Z"/></g></svg>