<svg id="Sprites" xmlns="http://www.w3.org/2000/svg" viewBox="0 0 64 64"><defs><style>.cls-1{fill:none;}.cls-2{fill:#236035;}</style></defs><g id="exotic_con_poly_random_dense_half"><rect id="bbox_64" class="cls-1" width="32" height="32"/><path id="exotic_con_random_dense" class="cls-2" d="M4.86,5.12a.12.12,0,0,1-.11.07H3.87v.25H3.62V5.19H2.75a.13.13,0,0,1-.1-.2l.67-.93H3a.13.13,0,0,1-.1-.2l.6-.8H3.25A.11.11,0,0,1,3.14,3a.1.1,0,0,1,0-.12l.5-.75a.12.12,0,0,1,.2,0l.5.75a.1.1,0,0,1,0,.12.11.11,0,0,1-.11.07H4l.6.8a.13.13,0,0,1-.1.2H4.18L4.85,5A.12.12,0,0,1,4.86,5.12ZM1,3.8.3,2.87H.62A.13.13,0,0,0,.74,2.8a.15.15,0,0,0,0-.13l-.61-.8H.38A.13.13,0,0,0,.49,1.8a.1.1,0,0,0,0-.12L0,1V4H.88A.15.15,0,0,0,1,3.93.14.14,0,0,0,1,3.8Zm8.5-2.75L8.8.12h.32A.13.13,0,0,0,9.24.05a.43.43,0,0,0,0,0H7.5a.43.43,0,0,0,0,.05.13.13,0,0,0,.11.07H8l-.68.93a.15.15,0,0,0,0,.13.15.15,0,0,0,.12.07h.87V1.5H8.5V1.25h.88a.15.15,0,0,0,.11-.07A.15.15,0,0,0,9.48,1.05ZM3.35,14.92,2.68,14H3a.12.12,0,0,0,.11-.07.12.12,0,0,0,0-.13L2.5,13h.25a.13.13,0,0,0,.1-.2l-.5-.75a.12.12,0,0,0-.2,0l-.5.75a.13.13,0,0,0,.1.2H2l-.6.8a.12.12,0,0,0,0,.13A.12.12,0,0,0,1.5,14h.32l-.67.92a.13.13,0,0,0,.1.2h.88v.25h.25v-.25h.87a.13.13,0,0,0,.1-.2ZM16,9,15.3,8h.33A.12.12,0,0,0,15.74,8a.15.15,0,0,0,0-.13l-.6-.8h.25A.14.14,0,0,0,15.49,7a.15.15,0,0,0,0-.13L15,6.08a.13.13,0,0,0-.21,0l-.5.75a.15.15,0,0,0,0,.13.14.14,0,0,0,.12.06h.24l-.6.8A.15.15,0,0,0,14,8a.12.12,0,0,0,.12.07h.32L13.77,9a.15.15,0,0,0,0,.13.14.14,0,0,0,.12.07h.87V9.4H15V9.15h.88A.14.14,0,0,0,16,9.08.15.15,0,0,0,16,9ZM12.35,6.24l-.67-.93H12a.13.13,0,0,0,.1-.2l-.6-.8h.25a.11.11,0,0,0,.11-.07.1.1,0,0,0,0-.12l-.5-.75a.12.12,0,0,0-.2,0l-.5.75a.1.1,0,0,0,0,.12.11.11,0,0,0,.11.07H11l-.6.8a.13.13,0,0,0,.1.2h.32l-.67.93a.13.13,0,0,0,.1.2h.87v.25h.26V6.44h.87a.13.13,0,0,0,.1-.2Zm-5.25,5-.67-.93h.32a.13.13,0,0,0,.1-.2l-.6-.8H6.5a.11.11,0,0,0,.11-.07.1.1,0,0,0,0-.12l-.5-.75a.12.12,0,0,0-.2,0l-.5.75a.1.1,0,0,0,0,.12.11.11,0,0,0,.11.07h.25l-.6.8a.13.13,0,0,0,.1.2h.32l-.67.93a.13.13,0,0,0,.1.2h.88v.25h.24v-.25H7a.13.13,0,0,0,.1-.2Zm6.5,2.5-.67-.93h.32a.13.13,0,0,0,.1-.2l-.6-.8H13a.11.11,0,0,0,.11-.07.1.1,0,0,0,0-.12l-.5-.75a.12.12,0,0,0-.2,0l-.5.75a.1.1,0,0,0,0,.12.11.11,0,0,0,.11.07h.25l-.6.8a.13.13,0,0,0,.1.2h.32l-.67.93a.13.13,0,0,0,.1.2h.88v.25h.24v-.25h.88a.13.13,0,0,0,.1-.2ZM9.23,15.93l-.61-.81h.26A.14.14,0,0,0,9,15.06a.12.12,0,0,0,0-.13l-.5-.75a.13.13,0,0,0-.21,0l-.5.75a.12.12,0,0,0,0,.13.14.14,0,0,0,.12.06h.24l-.6.81a.14.14,0,0,0,0,.07H9.25A.14.14,0,0,0,9.23,15.93ZM16,.93a.13.13,0,0,0-.21,0l-.5.75a.1.1,0,0,0,0,.12.13.13,0,0,0,.12.07h.24l-.6.8a.15.15,0,0,0,0,.13.13.13,0,0,0,.11.07h.33l-.68.93a.14.14,0,0,0,0,.13.15.15,0,0,0,.12.07h.87v.25H16V1Z"/><path id="exotic_con_random_dense-2" data-name="exotic_con_random_dense" class="cls-2" d="M4.86,21.12a.12.12,0,0,1-.11.07H3.87v.25H3.62v-.25H2.75a.13.13,0,0,1-.1-.2l.67-.93H3a.13.13,0,0,1-.1-.2l.6-.8H3.25A.11.11,0,0,1,3.14,19a.1.1,0,0,1,0-.12l.5-.75a.12.12,0,0,1,.2,0l.5.75a.1.1,0,0,1,0,.12.11.11,0,0,1-.11.07H4l.6.8a.13.13,0,0,1-.1.2H4.18l.67.93A.12.12,0,0,1,4.86,21.12ZM1,19.8.3,18.87H.62a.13.13,0,0,0,.12-.07.15.15,0,0,0,0-.13l-.61-.8H.38a.13.13,0,0,0,.11-.07.1.1,0,0,0,0-.12L0,17v3H.88A.15.15,0,0,0,1,19.93.14.14,0,0,0,1,19.8Zm8.5-2.75-.68-.92h.32a.14.14,0,0,0,.12-.08.43.43,0,0,0,0-.05H7.5a.43.43,0,0,0,0,.05.14.14,0,0,0,.11.08H8l-.68.92a.15.15,0,0,0,0,.13.15.15,0,0,0,.12.07h.87v.25H8.5v-.25h.88a.15.15,0,0,0,.11-.07A.15.15,0,0,0,9.48,17.05ZM3.35,30.92,2.68,30H3a.12.12,0,0,0,.11-.07.12.12,0,0,0,0-.13L2.5,29h.25a.13.13,0,0,0,.1-.2l-.5-.75a.12.12,0,0,0-.2,0l-.5.75a.13.13,0,0,0,.1.2H2l-.6.8a.12.12,0,0,0,0,.13A.12.12,0,0,0,1.5,30h.32l-.67.92a.13.13,0,0,0,.1.2h.88v.25h.25v-.25h.87a.13.13,0,0,0,.1-.2ZM16,25,15.3,24h.33a.12.12,0,0,0,.11-.07.15.15,0,0,0,0-.13l-.6-.8h.25a.14.14,0,0,0,.11-.06.15.15,0,0,0,0-.13l-.5-.75a.13.13,0,0,0-.21,0l-.5.75a.15.15,0,0,0,0,.13.14.14,0,0,0,.12.06h.24l-.6.8A.15.15,0,0,0,14,24a.12.12,0,0,0,.12.07h.32l-.68.93a.15.15,0,0,0,0,.13.14.14,0,0,0,.12.07h.87v.25H15v-.25h.88a.14.14,0,0,0,.11-.07A.15.15,0,0,0,16,25Zm-3.63-2.71-.67-.93H12a.13.13,0,0,0,.1-.2l-.6-.8h.25a.11.11,0,0,0,.11-.07.1.1,0,0,0,0-.12l-.5-.75a.12.12,0,0,0-.2,0l-.5.75a.1.1,0,0,0,0,.12.11.11,0,0,0,.11.07H11l-.6.8a.13.13,0,0,0,.1.2h.32l-.67.93a.13.13,0,0,0,.1.2h.87v.25h.26v-.25h.87a.13.13,0,0,0,.1-.2Zm-5.25,5-.67-.93h.32a.13.13,0,0,0,.1-.2l-.6-.8H6.5a.11.11,0,0,0,.11-.07.1.1,0,0,0,0-.12l-.5-.75a.12.12,0,0,0-.2,0l-.5.75a.1.1,0,0,0,0,.12.11.11,0,0,0,.11.07h.25l-.6.8a.13.13,0,0,0,.1.2h.32l-.67.93a.13.13,0,0,0,.1.2h.88v.25h.24v-.25H7a.13.13,0,0,0,.1-.2Zm6.5,2.5-.67-.93h.32a.13.13,0,0,0,.1-.2l-.6-.8H13a.11.11,0,0,0,.11-.07.1.1,0,0,0,0-.12l-.5-.75a.12.12,0,0,0-.2,0l-.5.75a.1.1,0,0,0,0,.12.11.11,0,0,0,.11.07h.25l-.6.8a.13.13,0,0,0,.1.2h.32l-.67.93a.13.13,0,0,0,.1.2h.88v.25h.24v-.25h.88a.13.13,0,0,0,.1-.2ZM9.23,31.93l-.61-.8h.26A.15.15,0,0,0,9,31.06a.12.12,0,0,0,0-.13l-.5-.75a.13.13,0,0,0-.21,0l-.5.75a.12.12,0,0,0,0,.13.15.15,0,0,0,.12.07h.24l-.6.8a.14.14,0,0,0,0,.07H9.25A.14.14,0,0,0,9.23,31.93Zm6.75-15a.13.13,0,0,0-.21,0l-.5.75a.1.1,0,0,0,0,.12.13.13,0,0,0,.12.07h.24l-.6.8a.15.15,0,0,0,0,.13.13.13,0,0,0,.11.07h.33l-.68.93a.14.14,0,0,0,0,.13.15.15,0,0,0,.12.07h.87v.25H16V17Z"/><path id="exotic_con_random_dense-3" data-name="exotic_con_random_dense" class="cls-2" d="M20.86,5.12a.12.12,0,0,1-.11.07h-.88v.25h-.25V5.19h-.87a.13.13,0,0,1-.1-.2l.67-.93H19a.13.13,0,0,1-.1-.2l.6-.8h-.25A.11.11,0,0,1,19.14,3a.1.1,0,0,1,0-.12l.5-.75a.12.12,0,0,1,.2,0l.5.75a.1.1,0,0,1,0,.12.11.11,0,0,1-.11.07H20l.6.8a.13.13,0,0,1-.1.2h-.32l.67.93A.12.12,0,0,1,20.86,5.12ZM17,3.8l-.68-.93h.32a.13.13,0,0,0,.12-.07.15.15,0,0,0,0-.13l-.61-.8h.26a.13.13,0,0,0,.11-.07.1.1,0,0,0,0-.12L16,1V4h.88A.15.15,0,0,0,17,3.93.14.14,0,0,0,17,3.8Zm8.5-2.75L24.8.12h.32a.13.13,0,0,0,.12-.07.43.43,0,0,0,0,0H23.5a.43.43,0,0,0,0,.05.13.13,0,0,0,.11.07H24l-.68.93a.15.15,0,0,0,0,.13.15.15,0,0,0,.12.07h.87V1.5h.25V1.25h.88a.15.15,0,0,0,.11-.07A.15.15,0,0,0,25.48,1.05ZM19.35,14.92,18.68,14H19a.12.12,0,0,0,.11-.07.12.12,0,0,0,0-.13l-.6-.8h.25a.13.13,0,0,0,.1-.2l-.5-.75a.12.12,0,0,0-.2,0l-.5.75a.13.13,0,0,0,.1.2H18l-.6.8a.12.12,0,0,0,0,.13.12.12,0,0,0,.11.07h.32l-.67.92a.13.13,0,0,0,.1.2h.88v.25h.25v-.25h.87a.13.13,0,0,0,.1-.2ZM32,9,31.3,8h.33A.12.12,0,0,0,31.74,8a.15.15,0,0,0,0-.13l-.6-.8h.25A.14.14,0,0,0,31.49,7a.15.15,0,0,0,0-.13L31,6.08a.13.13,0,0,0-.21,0l-.5.75a.15.15,0,0,0,0,.13.14.14,0,0,0,.12.06h.24l-.6.8A.15.15,0,0,0,30,8a.12.12,0,0,0,.12.07h.32L29.77,9a.15.15,0,0,0,0,.13.14.14,0,0,0,.12.07h.87V9.4H31V9.15h.88A.14.14,0,0,0,32,9.08.15.15,0,0,0,32,9ZM28.35,6.24l-.67-.93H28a.13.13,0,0,0,.1-.2l-.6-.8h.25a.11.11,0,0,0,.11-.07.1.1,0,0,0,0-.12l-.5-.75a.12.12,0,0,0-.2,0l-.5.75a.1.1,0,0,0,0,.12.11.11,0,0,0,.11.07H27l-.6.8a.13.13,0,0,0,.1.2h.32l-.67.93a.13.13,0,0,0,.1.2h.87v.25h.26V6.44h.87a.13.13,0,0,0,.1-.2Zm-5.25,5-.67-.93h.32a.13.13,0,0,0,.1-.2l-.6-.8h.25a.11.11,0,0,0,.11-.07.1.1,0,0,0,0-.12l-.5-.75a.12.12,0,0,0-.2,0l-.5.75a.1.1,0,0,0,0,.12.11.11,0,0,0,.11.07h.25l-.6.8a.13.13,0,0,0,.1.2h.32l-.67.93a.13.13,0,0,0,.1.2h.88v.25h.24v-.25H23a.13.13,0,0,0,.1-.2Zm6.5,2.5-.67-.93h.32a.13.13,0,0,0,.1-.2l-.6-.8H29a.11.11,0,0,0,.11-.07.1.1,0,0,0,0-.12l-.5-.75a.12.12,0,0,0-.2,0l-.5.75a.1.1,0,0,0,0,.12.11.11,0,0,0,.11.07h.25l-.6.8a.13.13,0,0,0,.1.2h.32l-.67.93a.13.13,0,0,0,.1.2h.88v.25h.24v-.25h.88a.13.13,0,0,0,.1-.2Zm-4.37,2.19-.61-.81h.26a.14.14,0,0,0,.11-.06.12.12,0,0,0,0-.13l-.5-.75a.13.13,0,0,0-.21,0l-.5.75a.12.12,0,0,0,0,.13.14.14,0,0,0,.12.06h.24l-.6.81a.14.14,0,0,0,0,.07h1.75A.14.14,0,0,0,25.23,15.93ZM32,.93a.13.13,0,0,0-.21,0l-.5.75a.1.1,0,0,0,0,.12.13.13,0,0,0,.12.07h.24l-.6.8a.15.15,0,0,0,0,.13.13.13,0,0,0,.11.07h.33l-.68.93a.14.14,0,0,0,0,.13.15.15,0,0,0,.12.07h.87v.25H32V1Z"/><path id="exotic_con_random_dense-4" data-name="exotic_con_random_dense" class="cls-2" d="M20.86,21.12a.12.12,0,0,1-.11.07h-.88v.25h-.25v-.25h-.87a.13.13,0,0,1-.1-.2l.67-.93H19a.13.13,0,0,1-.1-.2l.6-.8h-.25a.11.11,0,0,1-.11-.07.1.1,0,0,1,0-.12l.5-.75a.12.12,0,0,1,.2,0l.5.75a.1.1,0,0,1,0,.12.11.11,0,0,1-.11.07H20l.6.8a.13.13,0,0,1-.1.2h-.32l.67.93A.12.12,0,0,1,20.86,21.12ZM17,19.8l-.68-.93h.32a.13.13,0,0,0,.12-.07.15.15,0,0,0,0-.13l-.61-.8h.26a.13.13,0,0,0,.11-.07.1.1,0,0,0,0-.12L16,17v3h.88a.15.15,0,0,0,.11-.07A.14.14,0,0,0,17,19.8Zm8.5-2.75-.68-.92h.32a.14.14,0,0,0,.12-.08.43.43,0,0,0,0-.05H23.5a.43.43,0,0,0,0,.05.14.14,0,0,0,.11.08H24l-.68.92a.15.15,0,0,0,0,.13.15.15,0,0,0,.12.07h.87v.25h.25v-.25h.88a.15.15,0,0,0,.11-.07A.15.15,0,0,0,25.48,17.05ZM19.35,30.92,18.68,30H19a.12.12,0,0,0,.11-.07.12.12,0,0,0,0-.13l-.6-.8h.25a.13.13,0,0,0,.1-.2l-.5-.75a.12.12,0,0,0-.2,0l-.5.75a.13.13,0,0,0,.1.2H18l-.6.8a.12.12,0,0,0,0,.13.12.12,0,0,0,.11.07h.32l-.67.92a.13.13,0,0,0,.1.2h.88v.25h.25v-.25h.87a.13.13,0,0,0,.1-.2ZM32,25,31.3,24h.33a.12.12,0,0,0,.11-.07.15.15,0,0,0,0-.13l-.6-.8h.25a.14.14,0,0,0,.11-.06.15.15,0,0,0,0-.13l-.5-.75a.13.13,0,0,0-.21,0l-.5.75a.15.15,0,0,0,0,.13.14.14,0,0,0,.12.06h.24l-.6.8A.15.15,0,0,0,30,24a.12.12,0,0,0,.12.07h.32l-.68.93a.15.15,0,0,0,0,.13.14.14,0,0,0,.12.07h.87v.25H31v-.25h.88a.14.14,0,0,0,.11-.07A.15.15,0,0,0,32,25Zm-3.63-2.71-.67-.93H28a.13.13,0,0,0,.1-.2l-.6-.8h.25a.11.11,0,0,0,.11-.07.1.1,0,0,0,0-.12l-.5-.75a.12.12,0,0,0-.2,0l-.5.75a.1.1,0,0,0,0,.12.11.11,0,0,0,.11.07H27l-.6.8a.13.13,0,0,0,.1.2h.32l-.67.93a.13.13,0,0,0,.1.2h.87v.25h.26v-.25h.87a.13.13,0,0,0,.1-.2Zm-5.25,5-.67-.93h.32a.13.13,0,0,0,.1-.2l-.6-.8h.25a.11.11,0,0,0,.11-.07.1.1,0,0,0,0-.12l-.5-.75a.12.12,0,0,0-.2,0l-.5.75a.1.1,0,0,0,0,.12.11.11,0,0,0,.11.07h.25l-.6.8a.13.13,0,0,0,.1.2h.32l-.67.93a.13.13,0,0,0,.1.2h.88v.25h.24v-.25H23a.13.13,0,0,0,.1-.2Zm6.5,2.5-.67-.93h.32a.13.13,0,0,0,.1-.2l-.6-.8H29a.11.11,0,0,0,.11-.07.1.1,0,0,0,0-.12l-.5-.75a.12.12,0,0,0-.2,0l-.5.75a.1.1,0,0,0,0,.12.11.11,0,0,0,.11.07h.25l-.6.8a.13.13,0,0,0,.1.2h.32l-.67.93a.13.13,0,0,0,.1.2h.88v.25h.24v-.25h.88a.13.13,0,0,0,.1-.2Zm-4.37,2.19-.61-.8h.26a.15.15,0,0,0,.11-.07.12.12,0,0,0,0-.13l-.5-.75a.13.13,0,0,0-.21,0l-.5.75a.12.12,0,0,0,0,.13.15.15,0,0,0,.12.07h.24l-.6.8a.14.14,0,0,0,0,.07h1.75A.14.14,0,0,0,25.23,31.93Zm6.75-15a.13.13,0,0,0-.21,0l-.5.75a.1.1,0,0,0,0,.12.13.13,0,0,0,.12.07h.24l-.6.8a.15.15,0,0,0,0,.13.13.13,0,0,0,.11.07h.33l-.68.93a.14.14,0,0,0,0,.13.15.15,0,0,0,.12.07h.87v.25H32V17Z"/></g><g id="exotic_con_poly_random_dense_half-2" data-name="exotic_con_poly_random_dense_half"><rect id="bbox_64-2" data-name="bbox_64" class="cls-1" x="32" width="32" height="32"/><path id="exotic_con_random_dense-5" data-name="exotic_con_random_dense" class="cls-2" d="M36.86,5.12a.12.12,0,0,1-.11.07h-.88v.25h-.25V5.19h-.87a.13.13,0,0,1-.1-.2l.67-.93H35a.13.13,0,0,1-.1-.2l.6-.8h-.25A.11.11,0,0,1,35.14,3a.1.1,0,0,1,0-.12l.5-.75a.12.12,0,0,1,.2,0l.5.75a.1.1,0,0,1,0,.12.11.11,0,0,1-.11.07H36l.6.8a.13.13,0,0,1-.1.2h-.32l.67.93A.12.12,0,0,1,36.86,5.12ZM33,3.8l-.68-.93h.32a.13.13,0,0,0,.12-.07.15.15,0,0,0,0-.13l-.61-.8h.26a.13.13,0,0,0,.11-.07.1.1,0,0,0,0-.12L32,1V4h.88A.15.15,0,0,0,33,3.93.14.14,0,0,0,33,3.8Zm8.5-2.75L40.8.12h.32a.13.13,0,0,0,.12-.07.43.43,0,0,0,0,0H39.5a.43.43,0,0,0,0,.05.13.13,0,0,0,.11.07H40l-.68.93a.15.15,0,0,0,0,.13.15.15,0,0,0,.12.07h.87V1.5h.25V1.25h.88a.15.15,0,0,0,.11-.07A.15.15,0,0,0,41.48,1.05ZM35.35,14.92,34.68,14H35a.12.12,0,0,0,.11-.07.12.12,0,0,0,0-.13l-.6-.8h.25a.13.13,0,0,0,.1-.2l-.5-.75a.12.12,0,0,0-.2,0l-.5.75a.13.13,0,0,0,.1.2H34l-.6.8a.12.12,0,0,0,0,.13.12.12,0,0,0,.11.07h.32l-.67.92a.13.13,0,0,0,.1.2h.88v.25h.25v-.25h.87a.13.13,0,0,0,.1-.2ZM48,9,47.3,8h.33A.12.12,0,0,0,47.74,8a.15.15,0,0,0,0-.13l-.6-.8h.25A.14.14,0,0,0,47.49,7a.15.15,0,0,0,0-.13L47,6.08a.13.13,0,0,0-.21,0l-.5.75a.15.15,0,0,0,0,.13.14.14,0,0,0,.12.06h.24l-.6.8A.15.15,0,0,0,46,8a.12.12,0,0,0,.12.07h.32L45.77,9a.15.15,0,0,0,0,.13.14.14,0,0,0,.12.07h.87V9.4H47V9.15h.88A.14.14,0,0,0,48,9.08.15.15,0,0,0,48,9ZM44.35,6.24l-.67-.93H44a.13.13,0,0,0,.1-.2l-.6-.8h.25a.11.11,0,0,0,.11-.07.1.1,0,0,0,0-.12l-.5-.75a.12.12,0,0,0-.2,0l-.5.75a.1.1,0,0,0,0,.12.11.11,0,0,0,.11.07H43l-.6.8a.13.13,0,0,0,.1.2h.32l-.67.93a.13.13,0,0,0,.1.2h.87v.25h.26V6.44h.87a.13.13,0,0,0,.1-.2Zm-5.25,5-.67-.93h.32a.13.13,0,0,0,.1-.2l-.6-.8h.25a.11.11,0,0,0,.11-.07.1.1,0,0,0,0-.12l-.5-.75a.12.12,0,0,0-.2,0l-.5.75a.1.1,0,0,0,0,.12.11.11,0,0,0,.11.07h.25l-.6.8a.13.13,0,0,0,.1.2h.32l-.67.93a.13.13,0,0,0,.1.2h.88v.25h.24v-.25H39a.13.13,0,0,0,.1-.2Zm6.5,2.5-.67-.93h.32a.13.13,0,0,0,.1-.2l-.6-.8H45a.11.11,0,0,0,.11-.07.1.1,0,0,0,0-.12l-.5-.75a.12.12,0,0,0-.2,0l-.5.75a.1.1,0,0,0,0,.12.11.11,0,0,0,.11.07h.25l-.6.8a.13.13,0,0,0,.1.2h.32l-.67.93a.13.13,0,0,0,.1.2h.88v.25h.24v-.25h.88a.13.13,0,0,0,.1-.2Zm-4.37,2.19-.61-.81h.26a.14.14,0,0,0,.11-.06.12.12,0,0,0,0-.13l-.5-.75a.13.13,0,0,0-.21,0l-.5.75a.12.12,0,0,0,0,.13.14.14,0,0,0,.12.06h.24l-.6.81a.14.14,0,0,0,0,.07h1.75A.14.14,0,0,0,41.23,15.93ZM48,.93a.13.13,0,0,0-.21,0l-.5.75a.1.1,0,0,0,0,.12.13.13,0,0,0,.12.07h.24l-.6.8a.15.15,0,0,0,0,.13.13.13,0,0,0,.11.07h.33l-.68.93a.14.14,0,0,0,0,.13.15.15,0,0,0,.12.07h.87v.25H48V1Z"/><path id="exotic_con_random_dense-6" data-name="exotic_con_random_dense" class="cls-2" d="M36.86,21.12a.12.12,0,0,1-.11.07h-.88v.25h-.25v-.25h-.87a.13.13,0,0,1-.1-.2l.67-.93H35a.13.13,0,0,1-.1-.2l.6-.8h-.25a.11.11,0,0,1-.11-.07.1.1,0,0,1,0-.12l.5-.75a.12.12,0,0,1,.2,0l.5.75a.1.1,0,0,1,0,.12.11.11,0,0,1-.11.07H36l.6.8a.13.13,0,0,1-.1.2h-.32l.67.93A.12.12,0,0,1,36.86,21.12ZM33,19.8l-.68-.93h.32a.13.13,0,0,0,.12-.07.15.15,0,0,0,0-.13l-.61-.8h.26a.13.13,0,0,0,.11-.07.1.1,0,0,0,0-.12L32,17v3h.88a.15.15,0,0,0,.11-.07A.14.14,0,0,0,33,19.8Zm8.5-2.75-.68-.92h.32a.14.14,0,0,0,.12-.08.43.43,0,0,0,0-.05H39.5a.43.43,0,0,0,0,.05.14.14,0,0,0,.11.08H40l-.68.92a.15.15,0,0,0,0,.13.15.15,0,0,0,.12.07h.87v.25h.25v-.25h.88a.15.15,0,0,0,.11-.07A.15.15,0,0,0,41.48,17.05ZM35.35,30.92,34.68,30H35a.12.12,0,0,0,.11-.07.12.12,0,0,0,0-.13l-.6-.8h.25a.13.13,0,0,0,.1-.2l-.5-.75a.12.12,0,0,0-.2,0l-.5.75a.13.13,0,0,0,.1.2H34l-.6.8a.12.12,0,0,0,0,.13.12.12,0,0,0,.11.07h.32l-.67.92a.13.13,0,0,0,.1.2h.88v.25h.25v-.25h.87a.13.13,0,0,0,.1-.2ZM48,25,47.3,24h.33a.12.12,0,0,0,.11-.07.15.15,0,0,0,0-.13l-.6-.8h.25a.14.14,0,0,0,.11-.06.15.15,0,0,0,0-.13l-.5-.75a.13.13,0,0,0-.21,0l-.5.75a.15.15,0,0,0,0,.13.14.14,0,0,0,.12.06h.24l-.6.8A.15.15,0,0,0,46,24a.12.12,0,0,0,.12.07h.32l-.68.93a.15.15,0,0,0,0,.13.14.14,0,0,0,.12.07h.87v.25H47v-.25h.88a.14.14,0,0,0,.11-.07A.15.15,0,0,0,48,25Zm-3.63-2.71-.67-.93H44a.13.13,0,0,0,.1-.2l-.6-.8h.25a.11.11,0,0,0,.11-.07.1.1,0,0,0,0-.12l-.5-.75a.12.12,0,0,0-.2,0l-.5.75a.1.1,0,0,0,0,.12.11.11,0,0,0,.11.07H43l-.6.8a.13.13,0,0,0,.1.2h.32l-.67.93a.13.13,0,0,0,.1.2h.87v.25h.26v-.25h.87a.13.13,0,0,0,.1-.2Zm-5.25,5-.67-.93h.32a.13.13,0,0,0,.1-.2l-.6-.8h.25a.11.11,0,0,0,.11-.07.1.1,0,0,0,0-.12l-.5-.75a.12.12,0,0,0-.2,0l-.5.75a.1.1,0,0,0,0,.12.11.11,0,0,0,.11.07h.25l-.6.8a.13.13,0,0,0,.1.2h.32l-.67.93a.13.13,0,0,0,.1.2h.88v.25h.24v-.25H39a.13.13,0,0,0,.1-.2Zm6.5,2.5-.67-.93h.32a.13.13,0,0,0,.1-.2l-.6-.8H45a.11.11,0,0,0,.11-.07.1.1,0,0,0,0-.12l-.5-.75a.12.12,0,0,0-.2,0l-.5.75a.1.1,0,0,0,0,.12.11.11,0,0,0,.11.07h.25l-.6.8a.13.13,0,0,0,.1.2h.32l-.67.93a.13.13,0,0,0,.1.2h.88v.25h.24v-.25h.88a.13.13,0,0,0,.1-.2Zm-4.37,2.19-.61-.8h.26a.15.15,0,0,0,.11-.07.12.12,0,0,0,0-.13l-.5-.75a.13.13,0,0,0-.21,0l-.5.75a.12.12,0,0,0,0,.13.15.15,0,0,0,.12.07h.24l-.6.8a.14.14,0,0,0,0,.07h1.75A.14.14,0,0,0,41.23,31.93Zm6.75-15a.13.13,0,0,0-.21,0l-.5.75a.1.1,0,0,0,0,.12.13.13,0,0,0,.12.07h.24l-.6.8a.15.15,0,0,0,0,.13.13.13,0,0,0,.11.07h.33l-.68.93a.14.14,0,0,0,0,.13.15.15,0,0,0,.12.07h.87v.25H48V17Z"/><path id="exotic_con_random_dense-7" data-name="exotic_con_random_dense" class="cls-2" d="M52.86,5.12a.12.12,0,0,1-.11.07h-.88v.25h-.25V5.19h-.87a.13.13,0,0,1-.1-.2l.67-.93H51a.13.13,0,0,1-.1-.2l.6-.8h-.25A.11.11,0,0,1,51.14,3a.1.1,0,0,1,0-.12l.5-.75a.12.12,0,0,1,.2,0l.5.75a.1.1,0,0,1,0,.12.11.11,0,0,1-.11.07H52l.6.8a.13.13,0,0,1-.1.2h-.32l.67.93A.12.12,0,0,1,52.86,5.12ZM49,3.8l-.68-.93h.32a.13.13,0,0,0,.12-.07.15.15,0,0,0,0-.13l-.61-.8h.26a.13.13,0,0,0,.11-.07.1.1,0,0,0,0-.12L48,1V4h.88A.15.15,0,0,0,49,3.93.14.14,0,0,0,49,3.8Zm8.5-2.75L56.8.12h.32a.13.13,0,0,0,.12-.07.43.43,0,0,0,0,0H55.5a.43.43,0,0,0,0,.05.13.13,0,0,0,.11.07H56l-.68.93a.15.15,0,0,0,0,.13.15.15,0,0,0,.12.07h.87V1.5h.25V1.25h.88a.15.15,0,0,0,.11-.07A.15.15,0,0,0,57.48,1.05ZM51.35,14.92,50.68,14H51a.12.12,0,0,0,.11-.07.12.12,0,0,0,0-.13l-.6-.8h.25a.13.13,0,0,0,.1-.2l-.5-.75a.12.12,0,0,0-.2,0l-.5.75a.13.13,0,0,0,.1.2H50l-.6.8a.12.12,0,0,0,0,.13.12.12,0,0,0,.11.07h.32l-.67.92a.13.13,0,0,0,.1.2h.88v.25h.25v-.25h.87a.13.13,0,0,0,.1-.2ZM64,9,63.3,8h.33A.12.12,0,0,0,63.74,8a.15.15,0,0,0,0-.13l-.6-.8h.25A.14.14,0,0,0,63.49,7a.15.15,0,0,0,0-.13L63,6.08a.13.13,0,0,0-.21,0l-.5.75a.15.15,0,0,0,0,.13.14.14,0,0,0,.12.06h.24l-.6.8A.15.15,0,0,0,62,8a.12.12,0,0,0,.12.07h.32L61.77,9a.15.15,0,0,0,0,.13.14.14,0,0,0,.12.07h.87V9.4H63V9.15h.88A.14.14,0,0,0,64,9.08.15.15,0,0,0,64,9ZM60.35,6.24l-.67-.93H60a.13.13,0,0,0,.1-.2l-.6-.8h.25a.11.11,0,0,0,.11-.07.1.1,0,0,0,0-.12l-.5-.75a.12.12,0,0,0-.2,0l-.5.75a.1.1,0,0,0,0,.12.11.11,0,0,0,.11.07H59l-.6.8a.13.13,0,0,0,.1.2h.32l-.67.93a.13.13,0,0,0,.1.2h.87v.25h.26V6.44h.87a.13.13,0,0,0,.1-.2Zm-5.25,5-.67-.93h.32a.13.13,0,0,0,.1-.2l-.6-.8h.25a.11.11,0,0,0,.11-.07.1.1,0,0,0,0-.12l-.5-.75a.12.12,0,0,0-.2,0l-.5.75a.1.1,0,0,0,0,.12.11.11,0,0,0,.11.07h.25l-.6.8a.13.13,0,0,0,.1.2h.32l-.67.93a.13.13,0,0,0,.1.2h.88v.25h.24v-.25H55a.13.13,0,0,0,.1-.2Zm6.5,2.5-.67-.93h.32a.13.13,0,0,0,.1-.2l-.6-.8H61a.11.11,0,0,0,.11-.07.1.1,0,0,0,0-.12l-.5-.75a.12.12,0,0,0-.2,0l-.5.75a.1.1,0,0,0,0,.12.11.11,0,0,0,.11.07h.25l-.6.8a.13.13,0,0,0,.1.2h.32l-.67.93a.13.13,0,0,0,.1.2h.88v.25h.24v-.25h.88a.13.13,0,0,0,.1-.2Zm-4.37,2.19-.61-.81h.26a.14.14,0,0,0,.11-.06.12.12,0,0,0,0-.13l-.5-.75a.13.13,0,0,0-.21,0l-.5.75a.12.12,0,0,0,0,.13.14.14,0,0,0,.12.06h.24l-.6.81a.14.14,0,0,0,0,.07h1.75A.14.14,0,0,0,57.23,15.93ZM64,.93a.13.13,0,0,0-.21,0l-.5.75a.1.1,0,0,0,0,.12.13.13,0,0,0,.12.07h.24l-.6.8a.15.15,0,0,0,0,.13.13.13,0,0,0,.11.07h.33l-.68.93a.14.14,0,0,0,0,.13.15.15,0,0,0,.12.07h.87v.25H64V1Z"/><path id="exotic_con_random_dense-8" data-name="exotic_con_random_dense" class="cls-2" d="M52.86,21.12a.12.12,0,0,1-.11.07h-.88v.25h-.25v-.25h-.87a.13.13,0,0,1-.1-.2l.67-.93H51a.13.13,0,0,1-.1-.2l.6-.8h-.25a.11.11,0,0,1-.11-.07.1.1,0,0,1,0-.12l.5-.75a.12.12,0,0,1,.2,0l.5.75a.1.1,0,0,1,0,.12.11.11,0,0,1-.11.07H52l.6.8a.13.13,0,0,1-.1.2h-.32l.67.93A.12.12,0,0,1,52.86,21.12ZM49,19.8l-.68-.93h.32a.13.13,0,0,0,.12-.07.15.15,0,0,0,0-.13l-.61-.8h.26a.13.13,0,0,0,.11-.07.1.1,0,0,0,0-.12L48,17v3h.88a.15.15,0,0,0,.11-.07A.14.14,0,0,0,49,19.8Zm8.5-2.75-.68-.92h.32a.14.14,0,0,0,.12-.08.43.43,0,0,0,0-.05H55.5a.43.43,0,0,0,0,.05.14.14,0,0,0,.11.08H56l-.68.92a.15.15,0,0,0,0,.13.15.15,0,0,0,.12.07h.87v.25h.25v-.25h.88a.15.15,0,0,0,.11-.07A.15.15,0,0,0,57.48,17.05ZM51.35,30.92,50.68,30H51a.12.12,0,0,0,.11-.07.12.12,0,0,0,0-.13l-.6-.8h.25a.13.13,0,0,0,.1-.2l-.5-.75a.12.12,0,0,0-.2,0l-.5.75a.13.13,0,0,0,.1.2H50l-.6.8a.12.12,0,0,0,0,.13.12.12,0,0,0,.11.07h.32l-.67.92a.13.13,0,0,0,.1.2h.88v.25h.25v-.25h.87a.13.13,0,0,0,.1-.2ZM64,25,63.3,24h.33a.12.12,0,0,0,.11-.07.15.15,0,0,0,0-.13l-.6-.8h.25a.14.14,0,0,0,.11-.06.15.15,0,0,0,0-.13l-.5-.75a.13.13,0,0,0-.21,0l-.5.75a.15.15,0,0,0,0,.13.14.14,0,0,0,.12.06h.24l-.6.8A.15.15,0,0,0,62,24a.12.12,0,0,0,.12.07h.32l-.68.93a.15.15,0,0,0,0,.13.14.14,0,0,0,.12.07h.87v.25H63v-.25h.88a.14.14,0,0,0,.11-.07A.15.15,0,0,0,64,25Zm-3.63-2.71-.67-.93H60a.13.13,0,0,0,.1-.2l-.6-.8h.25a.11.11,0,0,0,.11-.07.1.1,0,0,0,0-.12l-.5-.75a.12.12,0,0,0-.2,0l-.5.75a.1.1,0,0,0,0,.12.11.11,0,0,0,.11.07H59l-.6.8a.13.13,0,0,0,.1.2h.32l-.67.93a.13.13,0,0,0,.1.2h.87v.25h.26v-.25h.87a.13.13,0,0,0,.1-.2Zm-5.25,5-.67-.93h.32a.13.13,0,0,0,.1-.2l-.6-.8h.25a.11.11,0,0,0,.11-.07.1.1,0,0,0,0-.12l-.5-.75a.12.12,0,0,0-.2,0l-.5.75a.1.1,0,0,0,0,.12.11.11,0,0,0,.11.07h.25l-.6.8a.13.13,0,0,0,.1.2h.32l-.67.93a.13.13,0,0,0,.1.2h.88v.25h.24v-.25H55a.13.13,0,0,0,.1-.2Zm6.5,2.5-.67-.93h.32a.13.13,0,0,0,.1-.2l-.6-.8H61a.11.11,0,0,0,.11-.07.1.1,0,0,0,0-.12l-.5-.75a.12.12,0,0,0-.2,0l-.5.75a.1.1,0,0,0,0,.12.11.11,0,0,0,.11.07h.25l-.6.8a.13.13,0,0,0,.1.2h.32l-.67.93a.13.13,0,0,0,.1.2h.88v.25h.24v-.25h.88a.13.13,0,0,0,.1-.2Zm-4.37,2.19-.61-.8h.26a.15.15,0,0,0,.11-.07.12.12,0,0,0,0-.13l-.5-.75a.13.13,0,0,0-.21,0l-.5.75a.12.12,0,0,0,0,.13.15.15,0,0,0,.12.07h.24l-.6.8a.14.14,0,0,0,0,.07h1.75A.14.14,0,0,0,57.23,31.93Zm6.75-15a.13.13,0,0,0-.21,0l-.5.75a.1.1,0,0,0,0,.12.13.13,0,0,0,.12.07h.24l-.6.8a.15.15,0,0,0,0,.13.13.13,0,0,0,.11.07h.33l-.68.93a.14.14,0,0,0,0,.13.15.15,0,0,0,.12.07h.87v.25H64V17Z"/></g><g id="exotic_con_poly_random_dense_half-3" data-name="exotic_con_poly_random_dense_half"><rect id="bbox_64-3" data-name="bbox_64" class="cls-1" y="32" width="32" height="32"/><path id="exotic_con_random_dense-9" data-name="exotic_con_random_dense" class="cls-2" d="M4.86,37.12a.12.12,0,0,1-.11.07H3.87v.25H3.62v-.25H2.75a.13.13,0,0,1-.1-.2l.67-.93H3a.13.13,0,0,1-.1-.2l.6-.8H3.25A.11.11,0,0,1,3.14,35a.1.1,0,0,1,0-.12l.5-.75a.12.12,0,0,1,.2,0l.5.75a.1.1,0,0,1,0,.12.11.11,0,0,1-.11.07H4l.6.8a.13.13,0,0,1-.1.2H4.18l.67.93A.12.12,0,0,1,4.86,37.12ZM1,35.8.3,34.87H.62a.13.13,0,0,0,.12-.07.15.15,0,0,0,0-.13l-.61-.8H.38a.13.13,0,0,0,.11-.07.1.1,0,0,0,0-.12L0,33v3H.88A.15.15,0,0,0,1,35.93.14.14,0,0,0,1,35.8Zm8.5-2.75-.68-.93h.32a.13.13,0,0,0,.12-.07.43.43,0,0,0,0,0H7.5a.43.43,0,0,0,0,0,.13.13,0,0,0,.11.07H8l-.68.93a.15.15,0,0,0,0,.13.15.15,0,0,0,.12.07h.87v.25H8.5v-.25h.88a.15.15,0,0,0,.11-.07A.15.15,0,0,0,9.48,33.05ZM3.35,46.92,2.68,46H3a.12.12,0,0,0,.11-.07.12.12,0,0,0,0-.13L2.5,45h.25a.13.13,0,0,0,.1-.2l-.5-.75a.12.12,0,0,0-.2,0l-.5.75a.13.13,0,0,0,.1.2H2l-.6.8a.12.12,0,0,0,0,.13A.12.12,0,0,0,1.5,46h.32l-.67.92a.13.13,0,0,0,.1.2h.88v.25h.25v-.25h.87a.13.13,0,0,0,.1-.2ZM16,41,15.3,40h.33a.12.12,0,0,0,.11-.07.15.15,0,0,0,0-.13l-.6-.8h.25a.14.14,0,0,0,.11-.06.15.15,0,0,0,0-.13l-.5-.75a.13.13,0,0,0-.21,0l-.5.75a.15.15,0,0,0,0,.13.14.14,0,0,0,.12.06h.24l-.6.8A.15.15,0,0,0,14,40a.12.12,0,0,0,.12.07h.32l-.68.93a.15.15,0,0,0,0,.13.14.14,0,0,0,.12.07h.87v.25H15v-.25h.88a.14.14,0,0,0,.11-.07A.15.15,0,0,0,16,41Zm-3.63-2.71-.67-.93H12a.13.13,0,0,0,.1-.2l-.6-.8h.25a.11.11,0,0,0,.11-.07.1.1,0,0,0,0-.12l-.5-.75a.12.12,0,0,0-.2,0l-.5.75a.1.1,0,0,0,0,.12.11.11,0,0,0,.11.07H11l-.6.8a.13.13,0,0,0,.1.2h.32l-.67.93a.13.13,0,0,0,.1.2h.87v.25h.26v-.25h.87a.13.13,0,0,0,.1-.2Zm-5.25,5-.67-.93h.32a.13.13,0,0,0,.1-.2l-.6-.8H6.5a.11.11,0,0,0,.11-.07.1.1,0,0,0,0-.12l-.5-.75a.12.12,0,0,0-.2,0l-.5.75a.1.1,0,0,0,0,.12.11.11,0,0,0,.11.07h.25l-.6.8a.13.13,0,0,0,.1.2h.32l-.67.93a.13.13,0,0,0,.1.2h.88v.25h.24v-.25H7a.13.13,0,0,0,.1-.2Zm6.5,2.5-.67-.93h.32a.13.13,0,0,0,.1-.2l-.6-.8H13a.11.11,0,0,0,.11-.07.1.1,0,0,0,0-.12l-.5-.75a.12.12,0,0,0-.2,0l-.5.75a.1.1,0,0,0,0,.12.11.11,0,0,0,.11.07h.25l-.6.8a.13.13,0,0,0,.1.2h.32l-.67.93a.13.13,0,0,0,.1.2h.88v.25h.24v-.25h.88a.13.13,0,0,0,.1-.2ZM9.23,47.93l-.61-.81h.26A.14.14,0,0,0,9,47.06a.12.12,0,0,0,0-.13l-.5-.75a.13.13,0,0,0-.21,0l-.5.75a.12.12,0,0,0,0,.13.14.14,0,0,0,.12.06h.24l-.6.81a.14.14,0,0,0,0,.07H9.25A.14.14,0,0,0,9.23,47.93Zm6.75-15a.13.13,0,0,0-.21,0l-.5.75a.1.1,0,0,0,0,.12.13.13,0,0,0,.12.07h.24l-.6.8a.15.15,0,0,0,0,.13.13.13,0,0,0,.11.07h.33l-.68.93a.14.14,0,0,0,0,.13.15.15,0,0,0,.12.07h.87v.25H16V33Z"/><path id="exotic_con_random_dense-10" data-name="exotic_con_random_dense" class="cls-2" d="M4.86,53.12a.12.12,0,0,1-.11.07H3.87v.25H3.62v-.25H2.75a.13.13,0,0,1-.1-.2l.67-.93H3a.13.13,0,0,1-.1-.2l.6-.8H3.25A.11.11,0,0,1,3.14,51a.1.1,0,0,1,0-.12l.5-.75a.12.12,0,0,1,.2,0l.5.75a.1.1,0,0,1,0,.12.11.11,0,0,1-.11.07H4l.6.8a.13.13,0,0,1-.1.2H4.18l.67.93A.12.12,0,0,1,4.86,53.12ZM1,51.8.3,50.87H.62a.13.13,0,0,0,.12-.07.15.15,0,0,0,0-.13l-.61-.8H.38a.13.13,0,0,0,.11-.07.1.1,0,0,0,0-.12L0,49v3H.88A.15.15,0,0,0,1,51.93.14.14,0,0,0,1,51.8Zm8.5-2.75-.68-.92h.32a.14.14,0,0,0,.12-.08.43.43,0,0,0,0,0H7.5a.43.43,0,0,0,0,0,.14.14,0,0,0,.11.08H8l-.68.92a.15.15,0,0,0,0,.13.15.15,0,0,0,.12.07h.87v.25H8.5v-.25h.88a.15.15,0,0,0,.11-.07A.15.15,0,0,0,9.48,49.05ZM3.35,62.92,2.68,62H3a.12.12,0,0,0,.11-.07.12.12,0,0,0,0-.13L2.5,61h.25a.13.13,0,0,0,.1-.2l-.5-.75a.12.12,0,0,0-.2,0l-.5.75a.13.13,0,0,0,.1.2H2l-.6.8a.12.12,0,0,0,0,.13A.12.12,0,0,0,1.5,62h.32l-.67.92a.13.13,0,0,0,.1.2h.88v.25h.25v-.25h.87a.13.13,0,0,0,.1-.2ZM16,57,15.3,56h.33a.12.12,0,0,0,.11-.07.15.15,0,0,0,0-.13l-.6-.8h.25a.14.14,0,0,0,.11-.06.15.15,0,0,0,0-.13l-.5-.75a.13.13,0,0,0-.21,0l-.5.75a.15.15,0,0,0,0,.13.14.14,0,0,0,.12.06h.24l-.6.8A.15.15,0,0,0,14,56a.12.12,0,0,0,.12.07h.32l-.68.93a.15.15,0,0,0,0,.13.14.14,0,0,0,.12.07h.87v.25H15v-.25h.88a.14.14,0,0,0,.11-.07A.15.15,0,0,0,16,57Zm-3.63-2.71-.67-.93H12a.13.13,0,0,0,.1-.2l-.6-.8h.25a.11.11,0,0,0,.11-.07.1.1,0,0,0,0-.12l-.5-.75a.12.12,0,0,0-.2,0l-.5.75a.1.1,0,0,0,0,.12.11.11,0,0,0,.11.07H11l-.6.8a.13.13,0,0,0,.1.2h.32l-.67.93a.13.13,0,0,0,.1.2h.87v.25h.26v-.25h.87a.13.13,0,0,0,.1-.2Zm-5.25,5-.67-.93h.32a.13.13,0,0,0,.1-.2l-.6-.8H6.5a.11.11,0,0,0,.11-.07.1.1,0,0,0,0-.12l-.5-.75a.12.12,0,0,0-.2,0l-.5.75a.1.1,0,0,0,0,.12.11.11,0,0,0,.11.07h.25l-.6.8a.13.13,0,0,0,.1.2h.32l-.67.93a.13.13,0,0,0,.1.2h.88v.25h.24v-.25H7a.13.13,0,0,0,.1-.2Zm6.5,2.5-.67-.93h.32a.13.13,0,0,0,.1-.2l-.6-.8H13a.11.11,0,0,0,.11-.07.1.1,0,0,0,0-.12l-.5-.75a.12.12,0,0,0-.2,0l-.5.75a.1.1,0,0,0,0,.12.11.11,0,0,0,.11.07h.25l-.6.8a.13.13,0,0,0,.1.2h.32l-.67.93a.13.13,0,0,0,.1.2h.88v.25h.24v-.25h.88a.13.13,0,0,0,.1-.2ZM9.23,63.93l-.61-.8h.26A.15.15,0,0,0,9,63.06a.12.12,0,0,0,0-.13l-.5-.75a.13.13,0,0,0-.21,0l-.5.75a.12.12,0,0,0,0,.13.15.15,0,0,0,.12.07h.24l-.6.8a.14.14,0,0,0,0,.07H9.25A.14.14,0,0,0,9.23,63.93Zm6.75-15a.13.13,0,0,0-.21,0l-.5.75a.1.1,0,0,0,0,.12.13.13,0,0,0,.12.07h.24l-.6.8a.15.15,0,0,0,0,.13.13.13,0,0,0,.11.07h.33l-.68.93a.14.14,0,0,0,0,.13.15.15,0,0,0,.12.07h.87v.25H16V49Z"/><path id="exotic_con_random_dense-11" data-name="exotic_con_random_dense" class="cls-2" d="M20.86,37.12a.12.12,0,0,1-.11.07h-.88v.25h-.25v-.25h-.87a.13.13,0,0,1-.1-.2l.67-.93H19a.13.13,0,0,1-.1-.2l.6-.8h-.25a.11.11,0,0,1-.11-.07.1.1,0,0,1,0-.12l.5-.75a.12.12,0,0,1,.2,0l.5.75a.1.1,0,0,1,0,.12.11.11,0,0,1-.11.07H20l.6.8a.13.13,0,0,1-.1.2h-.32l.67.93A.12.12,0,0,1,20.86,37.12ZM17,35.8l-.68-.93h.32a.13.13,0,0,0,.12-.07.15.15,0,0,0,0-.13l-.61-.8h.26a.13.13,0,0,0,.11-.07.1.1,0,0,0,0-.12L16,33v3h.88a.15.15,0,0,0,.11-.07A.14.14,0,0,0,17,35.8Zm8.5-2.75-.68-.93h.32a.13.13,0,0,0,.12-.07.43.43,0,0,0,0,0H23.5a.43.43,0,0,0,0,0,.13.13,0,0,0,.11.07H24l-.68.93a.15.15,0,0,0,0,.13.15.15,0,0,0,.12.07h.87v.25h.25v-.25h.88a.15.15,0,0,0,.11-.07A.15.15,0,0,0,25.48,33.05ZM19.35,46.92,18.68,46H19a.12.12,0,0,0,.11-.07.12.12,0,0,0,0-.13l-.6-.8h.25a.13.13,0,0,0,.1-.2l-.5-.75a.12.12,0,0,0-.2,0l-.5.75a.13.13,0,0,0,.1.2H18l-.6.8a.12.12,0,0,0,0,.13.12.12,0,0,0,.11.07h.32l-.67.92a.13.13,0,0,0,.1.2h.88v.25h.25v-.25h.87a.13.13,0,0,0,.1-.2ZM32,41,31.3,40h.33a.12.12,0,0,0,.11-.07.15.15,0,0,0,0-.13l-.6-.8h.25a.14.14,0,0,0,.11-.06.15.15,0,0,0,0-.13l-.5-.75a.13.13,0,0,0-.21,0l-.5.75a.15.15,0,0,0,0,.13.14.14,0,0,0,.12.06h.24l-.6.8A.15.15,0,0,0,30,40a.12.12,0,0,0,.12.07h.32l-.68.93a.15.15,0,0,0,0,.13.14.14,0,0,0,.12.07h.87v.25H31v-.25h.88a.14.14,0,0,0,.11-.07A.15.15,0,0,0,32,41Zm-3.63-2.71-.67-.93H28a.13.13,0,0,0,.1-.2l-.6-.8h.25a.11.11,0,0,0,.11-.07.1.1,0,0,0,0-.12l-.5-.75a.12.12,0,0,0-.2,0l-.5.75a.1.1,0,0,0,0,.12.11.11,0,0,0,.11.07H27l-.6.8a.13.13,0,0,0,.1.2h.32l-.67.93a.13.13,0,0,0,.1.2h.87v.25h.26v-.25h.87a.13.13,0,0,0,.1-.2Zm-5.25,5-.67-.93h.32a.13.13,0,0,0,.1-.2l-.6-.8h.25a.11.11,0,0,0,.11-.07.1.1,0,0,0,0-.12l-.5-.75a.12.12,0,0,0-.2,0l-.5.75a.1.1,0,0,0,0,.12.11.11,0,0,0,.11.07h.25l-.6.8a.13.13,0,0,0,.1.2h.32l-.67.93a.13.13,0,0,0,.1.2h.88v.25h.24v-.25H23a.13.13,0,0,0,.1-.2Zm6.5,2.5-.67-.93h.32a.13.13,0,0,0,.1-.2l-.6-.8H29a.11.11,0,0,0,.11-.07.1.1,0,0,0,0-.12l-.5-.75a.12.12,0,0,0-.2,0l-.5.75a.1.1,0,0,0,0,.12.11.11,0,0,0,.11.07h.25l-.6.8a.13.13,0,0,0,.1.2h.32l-.67.93a.13.13,0,0,0,.1.2h.88v.25h.24v-.25h.88a.13.13,0,0,0,.1-.2Zm-4.37,2.19-.61-.81h.26a.14.14,0,0,0,.11-.06.12.12,0,0,0,0-.13l-.5-.75a.13.13,0,0,0-.21,0l-.5.75a.12.12,0,0,0,0,.13.14.14,0,0,0,.12.06h.24l-.6.81a.14.14,0,0,0,0,.07h1.75A.14.14,0,0,0,25.23,47.93Zm6.75-15a.13.13,0,0,0-.21,0l-.5.75a.1.1,0,0,0,0,.12.13.13,0,0,0,.12.07h.24l-.6.8a.15.15,0,0,0,0,.13.13.13,0,0,0,.11.07h.33l-.68.93a.14.14,0,0,0,0,.13.15.15,0,0,0,.12.07h.87v.25H32V33Z"/><path id="exotic_con_random_dense-12" data-name="exotic_con_random_dense" class="cls-2" d="M20.86,53.12a.12.12,0,0,1-.11.07h-.88v.25h-.25v-.25h-.87a.13.13,0,0,1-.1-.2l.67-.93H19a.13.13,0,0,1-.1-.2l.6-.8h-.25a.11.11,0,0,1-.11-.07.1.1,0,0,1,0-.12l.5-.75a.12.12,0,0,1,.2,0l.5.75a.1.1,0,0,1,0,.12.11.11,0,0,1-.11.07H20l.6.8a.13.13,0,0,1-.1.2h-.32l.67.93A.12.12,0,0,1,20.86,53.12ZM17,51.8l-.68-.93h.32a.13.13,0,0,0,.12-.07.15.15,0,0,0,0-.13l-.61-.8h.26a.13.13,0,0,0,.11-.07.1.1,0,0,0,0-.12L16,49v3h.88a.15.15,0,0,0,.11-.07A.14.14,0,0,0,17,51.8Zm8.5-2.75-.68-.92h.32a.14.14,0,0,0,.12-.08.43.43,0,0,0,0,0H23.5a.43.43,0,0,0,0,0,.14.14,0,0,0,.11.08H24l-.68.92a.15.15,0,0,0,0,.13.15.15,0,0,0,.12.07h.87v.25h.25v-.25h.88a.15.15,0,0,0,.11-.07A.15.15,0,0,0,25.48,49.05ZM19.35,62.92,18.68,62H19a.12.12,0,0,0,.11-.07.12.12,0,0,0,0-.13l-.6-.8h.25a.13.13,0,0,0,.1-.2l-.5-.75a.12.12,0,0,0-.2,0l-.5.75a.13.13,0,0,0,.1.2H18l-.6.8a.12.12,0,0,0,0,.13.12.12,0,0,0,.11.07h.32l-.67.92a.13.13,0,0,0,.1.2h.88v.25h.25v-.25h.87a.13.13,0,0,0,.1-.2ZM32,57,31.3,56h.33a.12.12,0,0,0,.11-.07.15.15,0,0,0,0-.13l-.6-.8h.25a.14.14,0,0,0,.11-.06.15.15,0,0,0,0-.13l-.5-.75a.13.13,0,0,0-.21,0l-.5.75a.15.15,0,0,0,0,.13.14.14,0,0,0,.12.06h.24l-.6.8A.15.15,0,0,0,30,56a.12.12,0,0,0,.12.07h.32l-.68.93a.15.15,0,0,0,0,.13.14.14,0,0,0,.12.07h.87v.25H31v-.25h.88a.14.14,0,0,0,.11-.07A.15.15,0,0,0,32,57Zm-3.63-2.71-.67-.93H28a.13.13,0,0,0,.1-.2l-.6-.8h.25a.11.11,0,0,0,.11-.07.1.1,0,0,0,0-.12l-.5-.75a.12.12,0,0,0-.2,0l-.5.75a.1.1,0,0,0,0,.12.11.11,0,0,0,.11.07H27l-.6.8a.13.13,0,0,0,.1.2h.32l-.67.93a.13.13,0,0,0,.1.2h.87v.25h.26v-.25h.87a.13.13,0,0,0,.1-.2Zm-5.25,5-.67-.93h.32a.13.13,0,0,0,.1-.2l-.6-.8h.25a.11.11,0,0,0,.11-.07.1.1,0,0,0,0-.12l-.5-.75a.12.12,0,0,0-.2,0l-.5.75a.1.1,0,0,0,0,.12.11.11,0,0,0,.11.07h.25l-.6.8a.13.13,0,0,0,.1.2h.32l-.67.93a.13.13,0,0,0,.1.2h.88v.25h.24v-.25H23a.13.13,0,0,0,.1-.2Zm6.5,2.5-.67-.93h.32a.13.13,0,0,0,.1-.2l-.6-.8H29a.11.11,0,0,0,.11-.07.1.1,0,0,0,0-.12l-.5-.75a.12.12,0,0,0-.2,0l-.5.75a.1.1,0,0,0,0,.12.11.11,0,0,0,.11.07h.25l-.6.8a.13.13,0,0,0,.1.2h.32l-.67.93a.13.13,0,0,0,.1.2h.88v.25h.24v-.25h.88a.13.13,0,0,0,.1-.2Zm-4.37,2.19-.61-.8h.26a.15.15,0,0,0,.11-.07.12.12,0,0,0,0-.13l-.5-.75a.13.13,0,0,0-.21,0l-.5.75a.12.12,0,0,0,0,.13.15.15,0,0,0,.12.07h.24l-.6.8a.14.14,0,0,0,0,.07h1.75A.14.14,0,0,0,25.23,63.93Zm6.75-15a.13.13,0,0,0-.21,0l-.5.75a.1.1,0,0,0,0,.12.13.13,0,0,0,.12.07h.24l-.6.8a.15.15,0,0,0,0,.13.13.13,0,0,0,.11.07h.33l-.68.93a.14.14,0,0,0,0,.13.15.15,0,0,0,.12.07h.87v.25H32V49Z"/></g><g id="exotic_con_poly_random_dense_half-4" data-name="exotic_con_poly_random_dense_half"><rect id="bbox_64-4" data-name="bbox_64" class="cls-1" x="32" y="32" width="32" height="32"/><path id="exotic_con_random_dense-13" data-name="exotic_con_random_dense" class="cls-2" d="M36.86,37.12a.12.12,0,0,1-.11.07h-.88v.25h-.25v-.25h-.87a.13.13,0,0,1-.1-.2l.67-.93H35a.13.13,0,0,1-.1-.2l.6-.8h-.25a.11.11,0,0,1-.11-.07.1.1,0,0,1,0-.12l.5-.75a.12.12,0,0,1,.2,0l.5.75a.1.1,0,0,1,0,.12.11.11,0,0,1-.11.07H36l.6.8a.13.13,0,0,1-.1.2h-.32l.67.93A.12.12,0,0,1,36.86,37.12ZM33,35.8l-.68-.93h.32a.13.13,0,0,0,.12-.07.15.15,0,0,0,0-.13l-.61-.8h.26a.13.13,0,0,0,.11-.07.1.1,0,0,0,0-.12L32,33v3h.88a.15.15,0,0,0,.11-.07A.14.14,0,0,0,33,35.8Zm8.5-2.75-.68-.93h.32a.13.13,0,0,0,.12-.07.43.43,0,0,0,0,0H39.5a.43.43,0,0,0,0,0,.13.13,0,0,0,.11.07H40l-.68.93a.15.15,0,0,0,0,.13.15.15,0,0,0,.12.07h.87v.25h.25v-.25h.88a.15.15,0,0,0,.11-.07A.15.15,0,0,0,41.48,33.05ZM35.35,46.92,34.68,46H35a.12.12,0,0,0,.11-.07.12.12,0,0,0,0-.13l-.6-.8h.25a.13.13,0,0,0,.1-.2l-.5-.75a.12.12,0,0,0-.2,0l-.5.75a.13.13,0,0,0,.1.2H34l-.6.8a.12.12,0,0,0,0,.13.12.12,0,0,0,.11.07h.32l-.67.92a.13.13,0,0,0,.1.2h.88v.25h.25v-.25h.87a.13.13,0,0,0,.1-.2ZM48,41,47.3,40h.33a.12.12,0,0,0,.11-.07.15.15,0,0,0,0-.13l-.6-.8h.25a.14.14,0,0,0,.11-.06.15.15,0,0,0,0-.13l-.5-.75a.13.13,0,0,0-.21,0l-.5.75a.15.15,0,0,0,0,.13.14.14,0,0,0,.12.06h.24l-.6.8A.15.15,0,0,0,46,40a.12.12,0,0,0,.12.07h.32l-.68.93a.15.15,0,0,0,0,.13.14.14,0,0,0,.12.07h.87v.25H47v-.25h.88a.14.14,0,0,0,.11-.07A.15.15,0,0,0,48,41Zm-3.63-2.71-.67-.93H44a.13.13,0,0,0,.1-.2l-.6-.8h.25a.11.11,0,0,0,.11-.07.1.1,0,0,0,0-.12l-.5-.75a.12.12,0,0,0-.2,0l-.5.75a.1.1,0,0,0,0,.12.11.11,0,0,0,.11.07H43l-.6.8a.13.13,0,0,0,.1.2h.32l-.67.93a.13.13,0,0,0,.1.2h.87v.25h.26v-.25h.87a.13.13,0,0,0,.1-.2Zm-5.25,5-.67-.93h.32a.13.13,0,0,0,.1-.2l-.6-.8h.25a.11.11,0,0,0,.11-.07.1.1,0,0,0,0-.12l-.5-.75a.12.12,0,0,0-.2,0l-.5.75a.1.1,0,0,0,0,.12.11.11,0,0,0,.11.07h.25l-.6.8a.13.13,0,0,0,.1.2h.32l-.67.93a.13.13,0,0,0,.1.2h.88v.25h.24v-.25H39a.13.13,0,0,0,.1-.2Zm6.5,2.5-.67-.93h.32a.13.13,0,0,0,.1-.2l-.6-.8H45a.11.11,0,0,0,.11-.07.1.1,0,0,0,0-.12l-.5-.75a.12.12,0,0,0-.2,0l-.5.75a.1.1,0,0,0,0,.12.11.11,0,0,0,.11.07h.25l-.6.8a.13.13,0,0,0,.1.2h.32l-.67.93a.13.13,0,0,0,.1.2h.88v.25h.24v-.25h.88a.13.13,0,0,0,.1-.2Zm-4.37,2.19-.61-.81h.26a.14.14,0,0,0,.11-.06.12.12,0,0,0,0-.13l-.5-.75a.13.13,0,0,0-.21,0l-.5.75a.12.12,0,0,0,0,.13.14.14,0,0,0,.12.06h.24l-.6.81a.14.14,0,0,0,0,.07h1.75A.14.14,0,0,0,41.23,47.93Zm6.75-15a.13.13,0,0,0-.21,0l-.5.75a.1.1,0,0,0,0,.12.13.13,0,0,0,.12.07h.24l-.6.8a.15.15,0,0,0,0,.13.13.13,0,0,0,.11.07h.33l-.68.93a.14.14,0,0,0,0,.13.15.15,0,0,0,.12.07h.87v.25H48V33Z"/><path id="exotic_con_random_dense-14" data-name="exotic_con_random_dense" class="cls-2" d="M36.86,53.12a.12.12,0,0,1-.11.07h-.88v.25h-.25v-.25h-.87a.13.13,0,0,1-.1-.2l.67-.93H35a.13.13,0,0,1-.1-.2l.6-.8h-.25a.11.11,0,0,1-.11-.07.1.1,0,0,1,0-.12l.5-.75a.12.12,0,0,1,.2,0l.5.75a.1.1,0,0,1,0,.12.11.11,0,0,1-.11.07H36l.6.8a.13.13,0,0,1-.1.2h-.32l.67.93A.12.12,0,0,1,36.86,53.12ZM33,51.8l-.68-.93h.32a.13.13,0,0,0,.12-.07.15.15,0,0,0,0-.13l-.61-.8h.26a.13.13,0,0,0,.11-.07.1.1,0,0,0,0-.12L32,49v3h.88a.15.15,0,0,0,.11-.07A.14.14,0,0,0,33,51.8Zm8.5-2.75-.68-.92h.32a.14.14,0,0,0,.12-.08.43.43,0,0,0,0,0H39.5a.43.43,0,0,0,0,0,.14.14,0,0,0,.11.08H40l-.68.92a.15.15,0,0,0,0,.13.15.15,0,0,0,.12.07h.87v.25h.25v-.25h.88a.15.15,0,0,0,.11-.07A.15.15,0,0,0,41.48,49.05ZM35.35,62.92,34.68,62H35a.12.12,0,0,0,.11-.07.12.12,0,0,0,0-.13l-.6-.8h.25a.13.13,0,0,0,.1-.2l-.5-.75a.12.12,0,0,0-.2,0l-.5.75a.13.13,0,0,0,.1.2H34l-.6.8a.12.12,0,0,0,0,.13.12.12,0,0,0,.11.07h.32l-.67.92a.13.13,0,0,0,.1.2h.88v.25h.25v-.25h.87a.13.13,0,0,0,.1-.2ZM48,57,47.3,56h.33a.12.12,0,0,0,.11-.07.15.15,0,0,0,0-.13l-.6-.8h.25a.14.14,0,0,0,.11-.06.15.15,0,0,0,0-.13l-.5-.75a.13.13,0,0,0-.21,0l-.5.75a.15.15,0,0,0,0,.13.14.14,0,0,0,.12.06h.24l-.6.8A.15.15,0,0,0,46,56a.12.12,0,0,0,.12.07h.32l-.68.93a.15.15,0,0,0,0,.13.14.14,0,0,0,.12.07h.87v.25H47v-.25h.88a.14.14,0,0,0,.11-.07A.15.15,0,0,0,48,57Zm-3.63-2.71-.67-.93H44a.13.13,0,0,0,.1-.2l-.6-.8h.25a.11.11,0,0,0,.11-.07.1.1,0,0,0,0-.12l-.5-.75a.12.12,0,0,0-.2,0l-.5.75a.1.1,0,0,0,0,.12.11.11,0,0,0,.11.07H43l-.6.8a.13.13,0,0,0,.1.2h.32l-.67.93a.13.13,0,0,0,.1.2h.87v.25h.26v-.25h.87a.13.13,0,0,0,.1-.2Zm-5.25,5-.67-.93h.32a.13.13,0,0,0,.1-.2l-.6-.8h.25a.11.11,0,0,0,.11-.07.1.1,0,0,0,0-.12l-.5-.75a.12.12,0,0,0-.2,0l-.5.75a.1.1,0,0,0,0,.12.11.11,0,0,0,.11.07h.25l-.6.8a.13.13,0,0,0,.1.2h.32l-.67.93a.13.13,0,0,0,.1.2h.88v.25h.24v-.25H39a.13.13,0,0,0,.1-.2Zm6.5,2.5-.67-.93h.32a.13.13,0,0,0,.1-.2l-.6-.8H45a.11.11,0,0,0,.11-.07.1.1,0,0,0,0-.12l-.5-.75a.12.12,0,0,0-.2,0l-.5.75a.1.1,0,0,0,0,.12.11.11,0,0,0,.11.07h.25l-.6.8a.13.13,0,0,0,.1.2h.32l-.67.93a.13.13,0,0,0,.1.2h.88v.25h.24v-.25h.88a.13.13,0,0,0,.1-.2Zm-4.37,2.19-.61-.8h.26a.15.15,0,0,0,.11-.07.12.12,0,0,0,0-.13l-.5-.75a.13.13,0,0,0-.21,0l-.5.75a.12.12,0,0,0,0,.13.15.15,0,0,0,.12.07h.24l-.6.8a.14.14,0,0,0,0,.07h1.75A.14.14,0,0,0,41.23,63.93Zm6.75-15a.13.13,0,0,0-.21,0l-.5.75a.1.1,0,0,0,0,.12.13.13,0,0,0,.12.07h.24l-.6.8a.15.15,0,0,0,0,.13.13.13,0,0,0,.11.07h.33l-.68.93a.14.14,0,0,0,0,.13.15.15,0,0,0,.12.07h.87v.25H48V49Z"/><path id="exotic_con_random_dense-15" data-name="exotic_con_random_dense" class="cls-2" d="M52.86,37.12a.12.12,0,0,1-.11.07h-.88v.25h-.25v-.25h-.87a.13.13,0,0,1-.1-.2l.67-.93H51a.13.13,0,0,1-.1-.2l.6-.8h-.25a.11.11,0,0,1-.11-.07.1.1,0,0,1,0-.12l.5-.75a.12.12,0,0,1,.2,0l.5.75a.1.1,0,0,1,0,.12.11.11,0,0,1-.11.07H52l.6.8a.13.13,0,0,1-.1.2h-.32l.67.93A.12.12,0,0,1,52.86,37.12ZM49,35.8l-.68-.93h.32a.13.13,0,0,0,.12-.07.15.15,0,0,0,0-.13l-.61-.8h.26a.13.13,0,0,0,.11-.07.1.1,0,0,0,0-.12L48,33v3h.88a.15.15,0,0,0,.11-.07A.14.14,0,0,0,49,35.8Zm8.5-2.75-.68-.93h.32a.13.13,0,0,0,.12-.07.43.43,0,0,0,0,0H55.5a.43.43,0,0,0,0,0,.13.13,0,0,0,.11.07H56l-.68.93a.15.15,0,0,0,0,.13.15.15,0,0,0,.12.07h.87v.25h.25v-.25h.88a.15.15,0,0,0,.11-.07A.15.15,0,0,0,57.48,33.05ZM51.35,46.92,50.68,46H51a.12.12,0,0,0,.11-.07.12.12,0,0,0,0-.13l-.6-.8h.25a.13.13,0,0,0,.1-.2l-.5-.75a.12.12,0,0,0-.2,0l-.5.75a.13.13,0,0,0,.1.2H50l-.6.8a.12.12,0,0,0,0,.13.12.12,0,0,0,.11.07h.32l-.67.92a.13.13,0,0,0,.1.2h.88v.25h.25v-.25h.87a.13.13,0,0,0,.1-.2ZM64,41,63.3,40h.33a.12.12,0,0,0,.11-.07.15.15,0,0,0,0-.13l-.6-.8h.25a.14.14,0,0,0,.11-.06.15.15,0,0,0,0-.13l-.5-.75a.13.13,0,0,0-.21,0l-.5.75a.15.15,0,0,0,0,.13.14.14,0,0,0,.12.06h.24l-.6.8A.15.15,0,0,0,62,40a.12.12,0,0,0,.12.07h.32l-.68.93a.15.15,0,0,0,0,.13.14.14,0,0,0,.12.07h.87v.25H63v-.25h.88a.14.14,0,0,0,.11-.07A.15.15,0,0,0,64,41Zm-3.63-2.71-.67-.93H60a.13.13,0,0,0,.1-.2l-.6-.8h.25a.11.11,0,0,0,.11-.07.1.1,0,0,0,0-.12l-.5-.75a.12.12,0,0,0-.2,0l-.5.75a.1.1,0,0,0,0,.12.11.11,0,0,0,.11.07H59l-.6.8a.13.13,0,0,0,.1.2h.32l-.67.93a.13.13,0,0,0,.1.2h.87v.25h.26v-.25h.87a.13.13,0,0,0,.1-.2Zm-5.25,5-.67-.93h.32a.13.13,0,0,0,.1-.2l-.6-.8h.25a.11.11,0,0,0,.11-.07.1.1,0,0,0,0-.12l-.5-.75a.12.12,0,0,0-.2,0l-.5.75a.1.1,0,0,0,0,.12.11.11,0,0,0,.11.07h.25l-.6.8a.13.13,0,0,0,.1.2h.32l-.67.93a.13.13,0,0,0,.1.2h.88v.25h.24v-.25H55a.13.13,0,0,0,.1-.2Zm6.5,2.5-.67-.93h.32a.13.13,0,0,0,.1-.2l-.6-.8H61a.11.11,0,0,0,.11-.07.1.1,0,0,0,0-.12l-.5-.75a.12.12,0,0,0-.2,0l-.5.75a.1.1,0,0,0,0,.12.11.11,0,0,0,.11.07h.25l-.6.8a.13.13,0,0,0,.1.2h.32l-.67.93a.13.13,0,0,0,.1.2h.88v.25h.24v-.25h.88a.13.13,0,0,0,.1-.2Zm-4.37,2.19-.61-.81h.26a.14.14,0,0,0,.11-.06.12.12,0,0,0,0-.13l-.5-.75a.13.13,0,0,0-.21,0l-.5.75a.12.12,0,0,0,0,.13.14.14,0,0,0,.12.06h.24l-.6.81a.14.14,0,0,0,0,.07h1.75A.14.14,0,0,0,57.23,47.93Zm6.75-15a.13.13,0,0,0-.21,0l-.5.75a.1.1,0,0,0,0,.12.13.13,0,0,0,.12.07h.24l-.6.8a.15.15,0,0,0,0,.13.13.13,0,0,0,.11.07h.33l-.68.93a.14.14,0,0,0,0,.13.15.15,0,0,0,.12.07h.87v.25H64V33Z"/><path id="exotic_con_random_dense-16" data-name="exotic_con_random_dense" class="cls-2" d="M52.86,53.12a.12.12,0,0,1-.11.07h-.88v.25h-.25v-.25h-.87a.13.13,0,0,1-.1-.2l.67-.93H51a.13.13,0,0,1-.1-.2l.6-.8h-.25a.11.11,0,0,1-.11-.07.1.1,0,0,1,0-.12l.5-.75a.12.12,0,0,1,.2,0l.5.75a.1.1,0,0,1,0,.12.11.11,0,0,1-.11.07H52l.6.8a.13.13,0,0,1-.1.2h-.32l.67.93A.12.12,0,0,1,52.86,53.12ZM49,51.8l-.68-.93h.32a.13.13,0,0,0,.12-.07.15.15,0,0,0,0-.13l-.61-.8h.26a.13.13,0,0,0,.11-.07.1.1,0,0,0,0-.12L48,49v3h.88a.15.15,0,0,0,.11-.07A.14.14,0,0,0,49,51.8Zm8.5-2.75-.68-.92h.32a.14.14,0,0,0,.12-.08.43.43,0,0,0,0,0H55.5a.43.43,0,0,0,0,0,.14.14,0,0,0,.11.08H56l-.68.92a.15.15,0,0,0,0,.13.15.15,0,0,0,.12.07h.87v.25h.25v-.25h.88a.15.15,0,0,0,.11-.07A.15.15,0,0,0,57.48,49.05ZM51.35,62.92,50.68,62H51a.12.12,0,0,0,.11-.07.12.12,0,0,0,0-.13l-.6-.8h.25a.13.13,0,0,0,.1-.2l-.5-.75a.12.12,0,0,0-.2,0l-.5.75a.13.13,0,0,0,.1.2H50l-.6.8a.12.12,0,0,0,0,.13.12.12,0,0,0,.11.07h.32l-.67.92a.13.13,0,0,0,.1.2h.88v.25h.25v-.25h.87a.13.13,0,0,0,.1-.2ZM64,57,63.3,56h.33a.12.12,0,0,0,.11-.07.15.15,0,0,0,0-.13l-.6-.8h.25a.14.14,0,0,0,.11-.06.15.15,0,0,0,0-.13l-.5-.75a.13.13,0,0,0-.21,0l-.5.75a.15.15,0,0,0,0,.13.14.14,0,0,0,.12.06h.24l-.6.8A.15.15,0,0,0,62,56a.12.12,0,0,0,.12.07h.32l-.68.93a.15.15,0,0,0,0,.13.14.14,0,0,0,.12.07h.87v.25H63v-.25h.88a.14.14,0,0,0,.11-.07A.15.15,0,0,0,64,57Zm-3.63-2.71-.67-.93H60a.13.13,0,0,0,.1-.2l-.6-.8h.25a.11.11,0,0,0,.11-.07.1.1,0,0,0,0-.12l-.5-.75a.12.12,0,0,0-.2,0l-.5.75a.1.1,0,0,0,0,.12.11.11,0,0,0,.11.07H59l-.6.8a.13.13,0,0,0,.1.2h.32l-.67.93a.13.13,0,0,0,.1.2h.87v.25h.26v-.25h.87a.13.13,0,0,0,.1-.2Zm-5.25,5-.67-.93h.32a.13.13,0,0,0,.1-.2l-.6-.8h.25a.11.11,0,0,0,.11-.07.1.1,0,0,0,0-.12l-.5-.75a.12.12,0,0,0-.2,0l-.5.75a.1.1,0,0,0,0,.12.11.11,0,0,0,.11.07h.25l-.6.8a.13.13,0,0,0,.1.2h.32l-.67.93a.13.13,0,0,0,.1.2h.88v.25h.24v-.25H55a.13.13,0,0,0,.1-.2Zm6.5,2.5-.67-.93h.32a.13.13,0,0,0,.1-.2l-.6-.8H61a.11.11,0,0,0,.11-.07.1.1,0,0,0,0-.12l-.5-.75a.12.12,0,0,0-.2,0l-.5.75a.1.1,0,0,0,0,.12.11.11,0,0,0,.11.07h.25l-.6.8a.13.13,0,0,0,.1.2h.32l-.67.93a.13.13,0,0,0,.1.2h.88v.25h.24v-.25h.88a.13.13,0,0,0,.1-.2Zm-4.37,2.19-.61-.8h.26a.15.15,0,0,0,.11-.07.12.12,0,0,0,0-.13l-.5-.75a.13.13,0,0,0-.21,0l-.5.75a.12.12,0,0,0,0,.13.15.15,0,0,0,.12.07h.24l-.6.8a.14.14,0,0,0,0,.07h1.75A.14.14,0,0,0,57.23,63.93Zm6.75-15a.13.13,0,0,0-.21,0l-.5.75a.1.1,0,0,0,0,.12.13.13,0,0,0,.12.07h.24l-.6.8a.15.15,0,0,0,0,.13.13.13,0,0,0,.11.07h.33l-.68.93a.14.14,0,0,0,0,.13.15.15,0,0,0,.12.07h.87v.25H64V49Z"/></g></svg>