<svg id="Sprites" xmlns="http://www.w3.org/2000/svg" viewBox="0 0 16 16"><defs><style>.cls-1{fill:#236035;}</style></defs><g id="exotic_pnt_non_dual"><path id="exotic_pnt_non_trunk" d="M9,12.4a1.62,1.62,0,0,0-.49,1.1v1h-1v-1A1.62,1.62,0,0,0,7,12.4l.24-.11a1.44,1.44,0,0,0,1.5,0Z"/><path id="exotic_pnt_non_tree" class="cls-1" d="M12.61,9a1.49,1.49,0,0,1-1.11,2.5,1.47,1.47,0,0,1-.56-.11A1.49,1.49,0,0,1,9.5,12.5,1.25,1.25,0,0,1,9,12.4l-.24-.11a1.44,1.44,0,0,1-1.5,0L7,12.4a1.25,1.25,0,0,1-.51.1,1.49,1.49,0,0,1-1.44-1.11,1.47,1.47,0,0,1-.56.11A1.49,1.49,0,0,1,3.39,9a1.49,1.49,0,0,1,.72-2.44,1.49,1.49,0,0,1,.9-2s0-.06,0-.09A1.5,1.5,0,0,1,6.5,3a1.5,1.5,0,0,1,3,0A1.5,1.5,0,0,1,11,4.5s0,.06,0,.09a1.49,1.49,0,0,1,.9,2A1.49,1.49,0,0,1,12.61,9Z"/></g></svg>