<svg id="Sprites" xmlns="http://www.w3.org/2000/svg" viewBox="0 0 64 64"><defs><style>.cls-1{fill:none;}.cls-2{fill:#236035;}</style></defs><g id="exotic_non_poly_grid_dense_half"><rect id="bbox_64" class="cls-1" width="32" height="32"/><path id="exotic_non_grid_dense" class="cls-2" d="M3.28,2.87a.39.39,0,0,1,.1.25A.38.38,0,0,1,3,3.5a.32.32,0,0,1-.14,0,.38.38,0,0,1-.36.28l-.13,0A.4.4,0,0,0,2.25,4v.25H2V4a.4.4,0,0,0-.12-.27l-.13,0a.38.38,0,0,1-.36-.28.32.32,0,0,1-.14,0,.37.37,0,0,1-.37-.38A.38.38,0,0,1,1,2.87a.35.35,0,0,1-.09-.25.38.38,0,0,1,.27-.36.58.58,0,0,1,0-.14.38.38,0,0,1,.26-.35v0a.37.37,0,0,1,.37-.38.38.38,0,0,1,.75,0,.38.38,0,0,1,.38.38v0a.37.37,0,0,1,.25.35.59.59,0,0,1,0,.14.38.38,0,0,1,.28.36A.36.36,0,0,1,3.28,2.87Zm4.1-.25a.38.38,0,0,0-.28-.36.58.58,0,0,0,0-.14.38.38,0,0,0-.26-.35v0a.38.38,0,0,0-.38-.38.38.38,0,0,0-.75,0,.37.37,0,0,0-.37.38v0a.38.38,0,0,0-.26.35.58.58,0,0,0,0,.14.38.38,0,0,0-.27.36A.35.35,0,0,0,5,2.87a.38.38,0,0,0-.09.25.37.37,0,0,0,.37.38.32.32,0,0,0,.14,0,.38.38,0,0,0,.36.28l.13,0A.4.4,0,0,1,6,4v.25h.25V4a.4.4,0,0,1,.12-.27l.13,0a.38.38,0,0,0,.36-.28A.32.32,0,0,0,7,3.5a.38.38,0,0,0,.38-.38.39.39,0,0,0-.1-.25A.36.36,0,0,0,7.38,2.62Zm4,0a.38.38,0,0,0-.28-.36.58.58,0,0,0,0-.14.38.38,0,0,0-.26-.35v0a.38.38,0,0,0-.38-.38.38.38,0,0,0-.75,0,.37.37,0,0,0-.37.38v0a.37.37,0,0,0-.25.35.59.59,0,0,0,0,.14.37.37,0,0,0-.27.36A.35.35,0,0,0,9,2.87a.38.38,0,0,0-.09.25.37.37,0,0,0,.37.38.32.32,0,0,0,.14,0,.38.38,0,0,0,.36.28l.13,0A.4.4,0,0,1,10,4v.25h.25V4a.4.4,0,0,1,.12-.27l.13,0a.38.38,0,0,0,.36-.28.32.32,0,0,0,.14,0,.38.38,0,0,0,.38-.38.39.39,0,0,0-.1-.25A.36.36,0,0,0,11.38,2.62Zm4,0a.38.38,0,0,0-.28-.36.58.58,0,0,0,0-.14.38.38,0,0,0-.26-.35v0a.38.38,0,0,0-.38-.38.38.38,0,0,0-.75,0,.37.37,0,0,0-.37.38v0a.37.37,0,0,0-.25.35.59.59,0,0,0,0,.14.37.37,0,0,0-.27.36.35.35,0,0,0,.09.25.38.38,0,0,0-.09.25.37.37,0,0,0,.37.38.32.32,0,0,0,.14,0,.38.38,0,0,0,.36.28l.13,0A.4.4,0,0,1,14,4v.25h.25V4a.4.4,0,0,1,.12-.27l.13,0a.38.38,0,0,0,.36-.28.32.32,0,0,0,.14,0,.38.38,0,0,0,.38-.38.39.39,0,0,0-.1-.25A.36.36,0,0,0,15.38,2.62ZM3.38,8A.38.38,0,0,0,3.1,7.6a.68.68,0,0,0,0-.14.36.36,0,0,0-.25-.35v0a.38.38,0,0,0-.38-.37.38.38,0,1,0-.75,0,.37.37,0,0,0-.37.37v0a.37.37,0,0,0-.26.35.7.7,0,0,0,0,.14A.37.37,0,0,0,.88,8,.38.38,0,0,0,1,8.21a.35.35,0,0,0-.09.25.36.36,0,0,0,.37.37l.14,0a.37.37,0,0,0,.36.27l.13,0A.42.42,0,0,1,2,9.33v.25h.25V9.33a.42.42,0,0,1,.12-.27l.13,0a.37.37,0,0,0,.36-.27l.14,0a.37.37,0,0,0,.38-.37.36.36,0,0,0-.1-.25A.39.39,0,0,0,3.38,8Zm4,0A.38.38,0,0,0,7.1,7.6a.7.7,0,0,0,0-.14.37.37,0,0,0-.26-.35v0a.38.38,0,0,0-.38-.37.38.38,0,1,0-.75,0,.37.37,0,0,0-.37.37v0a.37.37,0,0,0-.26.35.7.7,0,0,0,0,.14A.37.37,0,0,0,4.88,8,.38.38,0,0,0,5,8.21a.35.35,0,0,0-.09.25.36.36,0,0,0,.37.37l.14,0a.37.37,0,0,0,.36.27l.13,0A.42.42,0,0,1,6,9.33v.25h.25V9.33a.42.42,0,0,1,.12-.27l.13,0a.37.37,0,0,0,.36-.27l.14,0a.37.37,0,0,0,.38-.37.36.36,0,0,0-.1-.25A.39.39,0,0,0,7.38,8Zm4,0a.38.38,0,0,0-.28-.36.7.7,0,0,0,0-.14.37.37,0,0,0-.26-.35v0a.38.38,0,0,0-.38-.37.38.38,0,1,0-.75,0,.37.37,0,0,0-.37.37v0a.36.36,0,0,0-.25.35.68.68,0,0,0,0,.14A.37.37,0,0,0,8.88,8,.38.38,0,0,0,9,8.21a.35.35,0,0,0-.09.25.36.36,0,0,0,.37.37l.14,0a.37.37,0,0,0,.36.27l.13,0a.42.42,0,0,1,.12.27v.25h.25V9.33a.42.42,0,0,1,.12-.27l.13,0a.37.37,0,0,0,.36-.27l.14,0a.37.37,0,0,0,.38-.37.36.36,0,0,0-.1-.25A.39.39,0,0,0,11.38,8Zm4,0a.38.38,0,0,0-.28-.36.7.7,0,0,0,0-.14.37.37,0,0,0-.26-.35v0a.38.38,0,0,0-.38-.37.38.38,0,1,0-.75,0,.37.37,0,0,0-.37.37v0a.36.36,0,0,0-.25.35.68.68,0,0,0,0,.14.37.37,0,0,0-.27.36.38.38,0,0,0,.09.25.35.35,0,0,0-.09.25.36.36,0,0,0,.37.37l.14,0a.37.37,0,0,0,.36.27l.13,0a.42.42,0,0,1,.12.27v.25h.25V9.33a.42.42,0,0,1,.12-.27l.13,0a.37.37,0,0,0,.36-.27l.14,0a.37.37,0,0,0,.38-.37.36.36,0,0,0-.1-.25A.39.39,0,0,0,15.38,8Zm-12,5.33a.38.38,0,0,0-.28-.36.59.59,0,0,0,0-.14.37.37,0,0,0-.25-.35v0A.38.38,0,0,0,2.5,12a.38.38,0,0,0-.75,0,.37.37,0,0,0-.37.38v0a.38.38,0,0,0-.26.35.58.58,0,0,0,0,.14.37.37,0,0,0-.27.36.35.35,0,0,0,.09.25.38.38,0,0,0-.09.25.37.37,0,0,0,.37.38.32.32,0,0,0,.14,0,.38.38,0,0,0,.36.28.31.31,0,0,0,.13,0,.42.42,0,0,1,.12.28v.25h.25v-.25a.42.42,0,0,1,.12-.28.31.31,0,0,0,.13,0,.38.38,0,0,0,.36-.28.32.32,0,0,0,.14,0,.38.38,0,0,0,.38-.38.39.39,0,0,0-.1-.25A.36.36,0,0,0,3.38,13.29Zm4,0a.38.38,0,0,0-.28-.36.58.58,0,0,0,0-.14.38.38,0,0,0-.26-.35v0A.38.38,0,0,0,6.5,12a.38.38,0,0,0-.75,0,.37.37,0,0,0-.37.38v0a.38.38,0,0,0-.26.35.58.58,0,0,0,0,.14.37.37,0,0,0-.27.36.35.35,0,0,0,.09.25.38.38,0,0,0-.09.25.37.37,0,0,0,.37.38.32.32,0,0,0,.14,0,.38.38,0,0,0,.36.28.31.31,0,0,0,.13,0,.42.42,0,0,1,.12.28v.25h.25v-.25a.42.42,0,0,1,.12-.28.31.31,0,0,0,.13,0,.38.38,0,0,0,.36-.28.32.32,0,0,0,.14,0,.38.38,0,0,0,.38-.38.39.39,0,0,0-.1-.25A.36.36,0,0,0,7.38,13.29Zm4,0a.38.38,0,0,0-.28-.36.58.58,0,0,0,0-.14.38.38,0,0,0-.26-.35v0A.38.38,0,0,0,10.5,12a.38.38,0,0,0-.75,0,.37.37,0,0,0-.37.38v0a.37.37,0,0,0-.25.35.59.59,0,0,0,0,.14.37.37,0,0,0-.27.36.35.35,0,0,0,.09.25.38.38,0,0,0-.09.25.37.37,0,0,0,.37.38.32.32,0,0,0,.14,0,.38.38,0,0,0,.36.28.31.31,0,0,0,.13,0,.42.42,0,0,1,.12.28v.25h.25v-.25a.42.42,0,0,1,.12-.28.31.31,0,0,0,.13,0,.38.38,0,0,0,.36-.28.32.32,0,0,0,.14,0,.38.38,0,0,0,.38-.38.39.39,0,0,0-.1-.25A.36.36,0,0,0,11.38,13.29Zm4,0a.38.38,0,0,0-.28-.36.58.58,0,0,0,0-.14.38.38,0,0,0-.26-.35v0A.38.38,0,0,0,14.5,12a.38.38,0,0,0-.75,0,.37.37,0,0,0-.37.38v0a.37.37,0,0,0-.25.35.59.59,0,0,0,0,.14.37.37,0,0,0-.27.36.35.35,0,0,0,.09.25.38.38,0,0,0-.09.25.37.37,0,0,0,.37.38.32.32,0,0,0,.14,0,.38.38,0,0,0,.36.28.31.31,0,0,0,.13,0,.42.42,0,0,1,.12.28v.25h.25v-.25a.42.42,0,0,1,.12-.28.31.31,0,0,0,.13,0,.38.38,0,0,0,.36-.28.32.32,0,0,0,.14,0,.38.38,0,0,0,.38-.38.39.39,0,0,0-.1-.25A.36.36,0,0,0,15.38,13.29Z"/><path id="exotic_non_grid_dense-2" data-name="exotic_non_grid_dense" class="cls-2" d="M3.28,18.87a.39.39,0,0,1,.1.25A.38.38,0,0,1,3,19.5a.32.32,0,0,1-.14,0,.38.38,0,0,1-.36.28l-.13,0a.4.4,0,0,0-.12.27v.25H2V20a.4.4,0,0,0-.12-.27l-.13,0a.38.38,0,0,1-.36-.28.32.32,0,0,1-.14,0,.37.37,0,0,1-.37-.38A.38.38,0,0,1,1,18.87a.35.35,0,0,1-.09-.25.37.37,0,0,1,.27-.36.58.58,0,0,1,0-.14.38.38,0,0,1,.26-.35v0a.37.37,0,0,1,.37-.38.38.38,0,0,1,.75,0,.38.38,0,0,1,.38.38v0a.37.37,0,0,1,.25.35.59.59,0,0,1,0,.14.38.38,0,0,1,.28.36A.36.36,0,0,1,3.28,18.87Zm4.1-.25a.38.38,0,0,0-.28-.36.58.58,0,0,0,0-.14.38.38,0,0,0-.26-.35v0a.38.38,0,0,0-.38-.38.38.38,0,0,0-.75,0,.37.37,0,0,0-.37.38v0a.38.38,0,0,0-.26.35.58.58,0,0,0,0,.14.38.38,0,0,0-.27.36.35.35,0,0,0,.09.25.38.38,0,0,0-.09.25.37.37,0,0,0,.37.38.32.32,0,0,0,.14,0,.38.38,0,0,0,.36.28l.13,0A.4.4,0,0,1,6,20v.25h.25V20a.4.4,0,0,1,.12-.27l.13,0a.38.38,0,0,0,.36-.28.32.32,0,0,0,.14,0,.38.38,0,0,0,.38-.38.39.39,0,0,0-.1-.25A.36.36,0,0,0,7.38,18.62Zm4,0a.38.38,0,0,0-.28-.36.58.58,0,0,0,0-.14.38.38,0,0,0-.26-.35v0a.38.38,0,0,0-.38-.38.38.38,0,0,0-.75,0,.37.37,0,0,0-.37.38v0a.37.37,0,0,0-.25.35.59.59,0,0,0,0,.14.37.37,0,0,0-.27.36.35.35,0,0,0,.09.25.38.38,0,0,0-.09.25.37.37,0,0,0,.37.38.32.32,0,0,0,.14,0,.38.38,0,0,0,.36.28l.13,0A.4.4,0,0,1,10,20v.25h.25V20a.4.4,0,0,1,.12-.27l.13,0a.38.38,0,0,0,.36-.28.32.32,0,0,0,.14,0,.38.38,0,0,0,.38-.38.39.39,0,0,0-.1-.25A.36.36,0,0,0,11.38,18.62Zm4,0a.38.38,0,0,0-.28-.36.58.58,0,0,0,0-.14.38.38,0,0,0-.26-.35v0a.38.38,0,0,0-.38-.38.38.38,0,0,0-.75,0,.37.37,0,0,0-.37.38v0a.37.37,0,0,0-.25.35.59.59,0,0,0,0,.14.37.37,0,0,0-.27.36.35.35,0,0,0,.09.25.38.38,0,0,0-.09.25.37.37,0,0,0,.37.38.32.32,0,0,0,.14,0,.38.38,0,0,0,.36.28l.13,0A.4.4,0,0,1,14,20v.25h.25V20a.4.4,0,0,1,.12-.27l.13,0a.38.38,0,0,0,.36-.28.32.32,0,0,0,.14,0,.38.38,0,0,0,.38-.38.39.39,0,0,0-.1-.25A.36.36,0,0,0,15.38,18.62ZM3.38,24a.38.38,0,0,0-.28-.36.68.68,0,0,0,0-.14.36.36,0,0,0-.25-.35v0a.38.38,0,0,0-.38-.37.38.38,0,1,0-.75,0,.37.37,0,0,0-.37.37v0a.37.37,0,0,0-.26.35.7.7,0,0,0,0,.14A.37.37,0,0,0,.88,24a.38.38,0,0,0,.09.25.35.35,0,0,0-.09.25.36.36,0,0,0,.37.37l.14,0a.37.37,0,0,0,.36.27l.13,0a.42.42,0,0,1,.12.27v.25h.25v-.25a.42.42,0,0,1,.12-.27l.13,0a.37.37,0,0,0,.36-.27l.14,0a.37.37,0,0,0,.38-.37.36.36,0,0,0-.1-.25A.39.39,0,0,0,3.38,24Zm4,0a.38.38,0,0,0-.28-.36.7.7,0,0,0,0-.14.37.37,0,0,0-.26-.35v0a.38.38,0,0,0-.38-.37.38.38,0,1,0-.75,0,.37.37,0,0,0-.37.37v0a.37.37,0,0,0-.26.35.7.7,0,0,0,0,.14.37.37,0,0,0-.27.36.38.38,0,0,0,.09.25.35.35,0,0,0-.09.25.36.36,0,0,0,.37.37l.14,0a.37.37,0,0,0,.36.27l.13,0a.42.42,0,0,1,.12.27v.25h.25v-.25a.42.42,0,0,1,.12-.27l.13,0a.37.37,0,0,0,.36-.27l.14,0a.37.37,0,0,0,.38-.37.36.36,0,0,0-.1-.25A.39.39,0,0,0,7.38,24Zm4,0a.38.38,0,0,0-.28-.36.7.7,0,0,0,0-.14.37.37,0,0,0-.26-.35v0a.38.38,0,0,0-.38-.37.38.38,0,1,0-.75,0,.37.37,0,0,0-.37.37v0a.36.36,0,0,0-.25.35.68.68,0,0,0,0,.14.37.37,0,0,0-.27.36.38.38,0,0,0,.09.25.35.35,0,0,0-.09.25.36.36,0,0,0,.37.37l.14,0a.37.37,0,0,0,.36.27l.13,0a.42.42,0,0,1,.12.27v.25h.25v-.25a.42.42,0,0,1,.12-.27l.13,0a.37.37,0,0,0,.36-.27l.14,0a.37.37,0,0,0,.38-.37.36.36,0,0,0-.1-.25A.39.39,0,0,0,11.38,24Zm4,0a.38.38,0,0,0-.28-.36.7.7,0,0,0,0-.14.37.37,0,0,0-.26-.35v0a.38.38,0,0,0-.38-.37.38.38,0,1,0-.75,0,.37.37,0,0,0-.37.37v0a.36.36,0,0,0-.25.35.68.68,0,0,0,0,.14.37.37,0,0,0-.27.36.38.38,0,0,0,.09.25.35.35,0,0,0-.09.25.36.36,0,0,0,.37.37l.14,0a.37.37,0,0,0,.36.27l.13,0a.42.42,0,0,1,.12.27v.25h.25v-.25a.42.42,0,0,1,.12-.27l.13,0a.37.37,0,0,0,.36-.27l.14,0a.37.37,0,0,0,.38-.37.36.36,0,0,0-.1-.25A.39.39,0,0,0,15.38,24Zm-12,5.33a.38.38,0,0,0-.28-.36.59.59,0,0,0,0-.14.37.37,0,0,0-.25-.35v0A.38.38,0,0,0,2.5,28a.38.38,0,0,0-.75,0,.37.37,0,0,0-.37.38v0a.38.38,0,0,0-.26.35.58.58,0,0,0,0,.14.37.37,0,0,0-.27.36.35.35,0,0,0,.09.25.38.38,0,0,0-.09.25.37.37,0,0,0,.37.38.32.32,0,0,0,.14,0,.38.38,0,0,0,.36.28.31.31,0,0,0,.13,0,.42.42,0,0,1,.12.28v.25h.25v-.25a.42.42,0,0,1,.12-.28.31.31,0,0,0,.13,0,.38.38,0,0,0,.36-.28.32.32,0,0,0,.14,0,.38.38,0,0,0,.38-.38.39.39,0,0,0-.1-.25A.36.36,0,0,0,3.38,29.29Zm4,0a.38.38,0,0,0-.28-.36.58.58,0,0,0,0-.14.38.38,0,0,0-.26-.35v0A.38.38,0,0,0,6.5,28a.38.38,0,0,0-.75,0,.37.37,0,0,0-.37.38v0a.38.38,0,0,0-.26.35.58.58,0,0,0,0,.14.37.37,0,0,0-.27.36.35.35,0,0,0,.09.25.38.38,0,0,0-.09.25.37.37,0,0,0,.37.38.32.32,0,0,0,.14,0,.38.38,0,0,0,.36.28.31.31,0,0,0,.13,0,.42.42,0,0,1,.12.28v.25h.25v-.25a.42.42,0,0,1,.12-.28.31.31,0,0,0,.13,0,.38.38,0,0,0,.36-.28.32.32,0,0,0,.14,0,.38.38,0,0,0,.38-.38.39.39,0,0,0-.1-.25A.36.36,0,0,0,7.38,29.29Zm4,0a.38.38,0,0,0-.28-.36.58.58,0,0,0,0-.14.38.38,0,0,0-.26-.35v0A.38.38,0,0,0,10.5,28a.38.38,0,0,0-.75,0,.37.37,0,0,0-.37.38v0a.37.37,0,0,0-.25.35.59.59,0,0,0,0,.14.37.37,0,0,0-.27.36.35.35,0,0,0,.09.25.38.38,0,0,0-.09.25.37.37,0,0,0,.37.38.32.32,0,0,0,.14,0,.38.38,0,0,0,.36.28.31.31,0,0,0,.13,0,.42.42,0,0,1,.12.28v.25h.25v-.25a.42.42,0,0,1,.12-.28.31.31,0,0,0,.13,0,.38.38,0,0,0,.36-.28.32.32,0,0,0,.14,0,.38.38,0,0,0,.38-.38.39.39,0,0,0-.1-.25A.36.36,0,0,0,11.38,29.29Zm4,0a.38.38,0,0,0-.28-.36.58.58,0,0,0,0-.14.38.38,0,0,0-.26-.35v0A.38.38,0,0,0,14.5,28a.38.38,0,0,0-.75,0,.37.37,0,0,0-.37.38v0a.37.37,0,0,0-.25.35.59.59,0,0,0,0,.14.37.37,0,0,0-.27.36.35.35,0,0,0,.09.25.38.38,0,0,0-.09.25.37.37,0,0,0,.37.38.32.32,0,0,0,.14,0,.38.38,0,0,0,.36.28.31.31,0,0,0,.13,0,.42.42,0,0,1,.12.28v.25h.25v-.25a.42.42,0,0,1,.12-.28.31.31,0,0,0,.13,0,.38.38,0,0,0,.36-.28.32.32,0,0,0,.14,0,.38.38,0,0,0,.38-.38.39.39,0,0,0-.1-.25A.36.36,0,0,0,15.38,29.29Z"/><path id="exotic_non_grid_dense-3" data-name="exotic_non_grid_dense" class="cls-2" d="M19.28,2.87a.39.39,0,0,1,.1.25A.38.38,0,0,1,19,3.5a.32.32,0,0,1-.14,0,.38.38,0,0,1-.36.28l-.13,0a.4.4,0,0,0-.12.27v.25H18V4a.4.4,0,0,0-.12-.27l-.13,0a.38.38,0,0,1-.36-.28.32.32,0,0,1-.14,0,.37.37,0,0,1-.37-.38A.38.38,0,0,1,17,2.87a.35.35,0,0,1-.09-.25.37.37,0,0,1,.27-.36.59.59,0,0,1,0-.14.37.37,0,0,1,.25-.35v0a.37.37,0,0,1,.37-.38.38.38,0,0,1,.75,0,.38.38,0,0,1,.38.38v0a.38.38,0,0,1,.26.35.58.58,0,0,1,0,.14.38.38,0,0,1,.28.36A.36.36,0,0,1,19.28,2.87Zm4.1-.25a.38.38,0,0,0-.28-.36.58.58,0,0,0,0-.14.38.38,0,0,0-.26-.35v0a.38.38,0,0,0-.38-.38.38.38,0,0,0-.75,0,.37.37,0,0,0-.37.38v0a.37.37,0,0,0-.25.35.59.59,0,0,0,0,.14.38.38,0,0,0-.27.36.35.35,0,0,0,.09.25.38.38,0,0,0-.09.25.37.37,0,0,0,.37.38.32.32,0,0,0,.14,0,.38.38,0,0,0,.36.28l.13,0A.4.4,0,0,1,22,4v.25h.25V4a.4.4,0,0,1,.12-.27l.13,0a.38.38,0,0,0,.36-.28.32.32,0,0,0,.14,0,.38.38,0,0,0,.38-.38.39.39,0,0,0-.1-.25A.36.36,0,0,0,23.38,2.62Zm4,0a.38.38,0,0,0-.28-.36.58.58,0,0,0,0-.14.38.38,0,0,0-.26-.35v0a.38.38,0,0,0-.38-.38.38.38,0,0,0-.75,0,.37.37,0,0,0-.37.38v0a.37.37,0,0,0-.25.35.59.59,0,0,0,0,.14.38.38,0,0,0-.27.36.35.35,0,0,0,.09.25.38.38,0,0,0-.09.25.37.37,0,0,0,.37.38.32.32,0,0,0,.14,0,.38.38,0,0,0,.36.28l.13,0A.4.4,0,0,1,26,4v.25h.25V4a.4.4,0,0,1,.12-.27l.13,0a.38.38,0,0,0,.36-.28.32.32,0,0,0,.14,0,.38.38,0,0,0,.38-.38.39.39,0,0,0-.1-.25A.36.36,0,0,0,27.38,2.62Zm4,0a.38.38,0,0,0-.28-.36.58.58,0,0,0,0-.14.38.38,0,0,0-.26-.35v0a.38.38,0,0,0-.38-.38.38.38,0,0,0-.75,0,.37.37,0,0,0-.37.38v0a.37.37,0,0,0-.25.35.59.59,0,0,0,0,.14.38.38,0,0,0-.27.36.35.35,0,0,0,.09.25.38.38,0,0,0-.09.25.37.37,0,0,0,.37.38.32.32,0,0,0,.14,0,.38.38,0,0,0,.36.28l.13,0A.4.4,0,0,1,30,4v.25h.25V4a.4.4,0,0,1,.12-.27l.13,0a.38.38,0,0,0,.36-.28.32.32,0,0,0,.14,0,.38.38,0,0,0,.38-.38.39.39,0,0,0-.1-.25A.36.36,0,0,0,31.38,2.62ZM19.38,8a.38.38,0,0,0-.28-.36.7.7,0,0,0,0-.14.37.37,0,0,0-.26-.35v0a.38.38,0,0,0-.38-.37.38.38,0,1,0-.75,0,.37.37,0,0,0-.37.37v0a.36.36,0,0,0-.25.35.68.68,0,0,0,0,.14.37.37,0,0,0-.27.36.38.38,0,0,0,.09.25.35.35,0,0,0-.09.25.36.36,0,0,0,.37.37l.14,0a.37.37,0,0,0,.36.27l.13,0a.42.42,0,0,1,.12.27v.25h.25V9.33a.42.42,0,0,1,.12-.27l.13,0a.37.37,0,0,0,.36-.27l.14,0a.37.37,0,0,0,.38-.37.36.36,0,0,0-.1-.25A.39.39,0,0,0,19.38,8Zm4,0a.38.38,0,0,0-.28-.36.7.7,0,0,0,0-.14.37.37,0,0,0-.26-.35v0a.38.38,0,0,0-.38-.37.38.38,0,1,0-.75,0,.37.37,0,0,0-.37.37v0a.36.36,0,0,0-.25.35.68.68,0,0,0,0,.14.37.37,0,0,0-.27.36.38.38,0,0,0,.09.25.35.35,0,0,0-.09.25.36.36,0,0,0,.37.37l.14,0a.37.37,0,0,0,.36.27l.13,0a.42.42,0,0,1,.12.27v.25h.25V9.33a.42.42,0,0,1,.12-.27l.13,0a.37.37,0,0,0,.36-.27l.14,0a.37.37,0,0,0,.38-.37.36.36,0,0,0-.1-.25A.39.39,0,0,0,23.38,8Zm4,0a.38.38,0,0,0-.28-.36.7.7,0,0,0,0-.14.37.37,0,0,0-.26-.35v0a.38.38,0,0,0-.38-.37.38.38,0,1,0-.75,0,.37.37,0,0,0-.37.37v0a.36.36,0,0,0-.25.35.68.68,0,0,0,0,.14.37.37,0,0,0-.27.36.38.38,0,0,0,.09.25.35.35,0,0,0-.09.25.36.36,0,0,0,.37.37l.14,0a.37.37,0,0,0,.36.27l.13,0a.42.42,0,0,1,.12.27v.25h.25V9.33a.42.42,0,0,1,.12-.27l.13,0a.37.37,0,0,0,.36-.27l.14,0a.37.37,0,0,0,.38-.37.36.36,0,0,0-.1-.25A.39.39,0,0,0,27.38,8Zm4,0a.38.38,0,0,0-.28-.36.7.7,0,0,0,0-.14.37.37,0,0,0-.26-.35v0a.38.38,0,0,0-.38-.37.38.38,0,1,0-.75,0,.37.37,0,0,0-.37.37v0a.36.36,0,0,0-.25.35.68.68,0,0,0,0,.14.37.37,0,0,0-.27.36.38.38,0,0,0,.09.25.35.35,0,0,0-.09.25.36.36,0,0,0,.37.37l.14,0a.37.37,0,0,0,.36.27l.13,0a.42.42,0,0,1,.12.27v.25h.25V9.33a.42.42,0,0,1,.12-.27l.13,0a.37.37,0,0,0,.36-.27l.14,0a.37.37,0,0,0,.38-.37.36.36,0,0,0-.1-.25A.39.39,0,0,0,31.38,8Zm-12,5.33a.38.38,0,0,0-.28-.36.58.58,0,0,0,0-.14.38.38,0,0,0-.26-.35v0A.38.38,0,0,0,18.5,12a.38.38,0,0,0-.75,0,.37.37,0,0,0-.37.38v0a.37.37,0,0,0-.25.35.59.59,0,0,0,0,.14.37.37,0,0,0-.27.36.35.35,0,0,0,.09.25.38.38,0,0,0-.09.25.37.37,0,0,0,.37.38.32.32,0,0,0,.14,0,.38.38,0,0,0,.36.28.31.31,0,0,0,.13,0,.42.42,0,0,1,.12.28v.25h.25v-.25a.42.42,0,0,1,.12-.28.31.31,0,0,0,.13,0,.38.38,0,0,0,.36-.28.32.32,0,0,0,.14,0,.38.38,0,0,0,.38-.38.39.39,0,0,0-.1-.25A.36.36,0,0,0,19.38,13.29Zm4,0a.38.38,0,0,0-.28-.36.58.58,0,0,0,0-.14.38.38,0,0,0-.26-.35v0A.38.38,0,0,0,22.5,12a.38.38,0,0,0-.75,0,.37.37,0,0,0-.37.38v0a.37.37,0,0,0-.25.35.59.59,0,0,0,0,.14.37.37,0,0,0-.27.36.35.35,0,0,0,.09.25.38.38,0,0,0-.09.25.37.37,0,0,0,.37.38.32.32,0,0,0,.14,0,.38.38,0,0,0,.36.28.31.31,0,0,0,.13,0,.42.42,0,0,1,.12.28v.25h.25v-.25a.42.42,0,0,1,.12-.28.31.31,0,0,0,.13,0,.38.38,0,0,0,.36-.28.32.32,0,0,0,.14,0,.38.38,0,0,0,.38-.38.39.39,0,0,0-.1-.25A.36.36,0,0,0,23.38,13.29Zm4,0a.38.38,0,0,0-.28-.36.58.58,0,0,0,0-.14.38.38,0,0,0-.26-.35v0A.38.38,0,0,0,26.5,12a.38.38,0,0,0-.75,0,.37.37,0,0,0-.37.38v0a.37.37,0,0,0-.25.35.59.59,0,0,0,0,.14.37.37,0,0,0-.27.36.35.35,0,0,0,.09.25.38.38,0,0,0-.09.25.37.37,0,0,0,.37.38.32.32,0,0,0,.14,0,.38.38,0,0,0,.36.28.31.31,0,0,0,.13,0,.42.42,0,0,1,.12.28v.25h.25v-.25a.42.42,0,0,1,.12-.28.31.31,0,0,0,.13,0,.38.38,0,0,0,.36-.28.32.32,0,0,0,.14,0,.38.38,0,0,0,.38-.38.39.39,0,0,0-.1-.25A.36.36,0,0,0,27.38,13.29Zm4,0a.38.38,0,0,0-.28-.36.58.58,0,0,0,0-.14.38.38,0,0,0-.26-.35v0A.38.38,0,0,0,30.5,12a.38.38,0,0,0-.75,0,.37.37,0,0,0-.37.38v0a.37.37,0,0,0-.25.35.59.59,0,0,0,0,.14.37.37,0,0,0-.27.36.35.35,0,0,0,.09.25.38.38,0,0,0-.09.25.37.37,0,0,0,.37.38.32.32,0,0,0,.14,0,.38.38,0,0,0,.36.28.31.31,0,0,0,.13,0,.42.42,0,0,1,.12.28v.25h.25v-.25a.42.42,0,0,1,.12-.28.31.31,0,0,0,.13,0,.38.38,0,0,0,.36-.28.32.32,0,0,0,.14,0,.38.38,0,0,0,.38-.38.39.39,0,0,0-.1-.25A.36.36,0,0,0,31.38,13.29Z"/><path id="exotic_non_grid_dense-4" data-name="exotic_non_grid_dense" class="cls-2" d="M19.28,18.87a.39.39,0,0,1,.1.25.38.38,0,0,1-.38.38.32.32,0,0,1-.14,0,.38.38,0,0,1-.36.28l-.13,0a.4.4,0,0,0-.12.27v.25H18V20a.4.4,0,0,0-.12-.27l-.13,0a.38.38,0,0,1-.36-.28.32.32,0,0,1-.14,0,.37.37,0,0,1-.37-.38.38.38,0,0,1,.09-.25.35.35,0,0,1-.09-.25.37.37,0,0,1,.27-.36.59.59,0,0,1,0-.14.37.37,0,0,1,.25-.35v0a.37.37,0,0,1,.37-.38.38.38,0,0,1,.75,0,.38.38,0,0,1,.38.38v0a.38.38,0,0,1,.26.35.58.58,0,0,1,0,.14.38.38,0,0,1,.28.36A.36.36,0,0,1,19.28,18.87Zm4.1-.25a.38.38,0,0,0-.28-.36.58.58,0,0,0,0-.14.38.38,0,0,0-.26-.35v0a.38.38,0,0,0-.38-.38.38.38,0,0,0-.75,0,.37.37,0,0,0-.37.38v0a.37.37,0,0,0-.25.35.59.59,0,0,0,0,.14.38.38,0,0,0-.27.36.35.35,0,0,0,.09.25.38.38,0,0,0-.09.25.37.37,0,0,0,.37.38.32.32,0,0,0,.14,0,.38.38,0,0,0,.36.28l.13,0A.4.4,0,0,1,22,20v.25h.25V20a.4.4,0,0,1,.12-.27l.13,0a.38.38,0,0,0,.36-.28.32.32,0,0,0,.14,0,.38.38,0,0,0,.38-.38.39.39,0,0,0-.1-.25A.36.36,0,0,0,23.38,18.62Zm4,0a.38.38,0,0,0-.28-.36.58.58,0,0,0,0-.14.38.38,0,0,0-.26-.35v0a.38.38,0,0,0-.38-.38.38.38,0,0,0-.75,0,.37.37,0,0,0-.37.38v0a.37.37,0,0,0-.25.35.59.59,0,0,0,0,.14.38.38,0,0,0-.27.36.35.35,0,0,0,.09.25.38.38,0,0,0-.09.25.37.37,0,0,0,.37.38.32.32,0,0,0,.14,0,.38.38,0,0,0,.36.28l.13,0A.4.4,0,0,1,26,20v.25h.25V20a.4.4,0,0,1,.12-.27l.13,0a.38.38,0,0,0,.36-.28.32.32,0,0,0,.14,0,.38.38,0,0,0,.38-.38.39.39,0,0,0-.1-.25A.36.36,0,0,0,27.38,18.62Zm4,0a.38.38,0,0,0-.28-.36.58.58,0,0,0,0-.14.38.38,0,0,0-.26-.35v0a.38.38,0,0,0-.38-.38.38.38,0,0,0-.75,0,.37.37,0,0,0-.37.38v0a.37.37,0,0,0-.25.35.59.59,0,0,0,0,.14.38.38,0,0,0-.27.36.35.35,0,0,0,.09.25.38.38,0,0,0-.09.25.37.37,0,0,0,.37.38.32.32,0,0,0,.14,0,.38.38,0,0,0,.36.28l.13,0A.4.4,0,0,1,30,20v.25h.25V20a.4.4,0,0,1,.12-.27l.13,0a.38.38,0,0,0,.36-.28.32.32,0,0,0,.14,0,.38.38,0,0,0,.38-.38.39.39,0,0,0-.1-.25A.36.36,0,0,0,31.38,18.62ZM19.38,24a.38.38,0,0,0-.28-.36.7.7,0,0,0,0-.14.37.37,0,0,0-.26-.35v0a.38.38,0,0,0-.38-.37.38.38,0,1,0-.75,0,.37.37,0,0,0-.37.37v0a.36.36,0,0,0-.25.35.68.68,0,0,0,0,.14.37.37,0,0,0-.27.36.38.38,0,0,0,.09.25.35.35,0,0,0-.09.25.36.36,0,0,0,.37.37l.14,0a.37.37,0,0,0,.36.27l.13,0a.42.42,0,0,1,.12.27v.25h.25v-.25a.42.42,0,0,1,.12-.27l.13,0a.37.37,0,0,0,.36-.27l.14,0a.37.37,0,0,0,.38-.37.36.36,0,0,0-.1-.25A.39.39,0,0,0,19.38,24Zm4,0a.38.38,0,0,0-.28-.36.7.7,0,0,0,0-.14.37.37,0,0,0-.26-.35v0a.38.38,0,0,0-.38-.37.38.38,0,1,0-.75,0,.37.37,0,0,0-.37.37v0a.36.36,0,0,0-.25.35.68.68,0,0,0,0,.14.37.37,0,0,0-.27.36.38.38,0,0,0,.09.25.35.35,0,0,0-.09.25.36.36,0,0,0,.37.37l.14,0a.37.37,0,0,0,.36.27l.13,0a.42.42,0,0,1,.12.27v.25h.25v-.25a.42.42,0,0,1,.12-.27l.13,0a.37.37,0,0,0,.36-.27l.14,0a.37.37,0,0,0,.38-.37.36.36,0,0,0-.1-.25A.39.39,0,0,0,23.38,24Zm4,0a.38.38,0,0,0-.28-.36.7.7,0,0,0,0-.14.37.37,0,0,0-.26-.35v0a.38.38,0,0,0-.38-.37.38.38,0,1,0-.75,0,.37.37,0,0,0-.37.37v0a.36.36,0,0,0-.25.35.68.68,0,0,0,0,.14.37.37,0,0,0-.27.36.38.38,0,0,0,.09.25.35.35,0,0,0-.09.25.36.36,0,0,0,.37.37l.14,0a.37.37,0,0,0,.36.27l.13,0a.42.42,0,0,1,.12.27v.25h.25v-.25a.42.42,0,0,1,.12-.27l.13,0a.37.37,0,0,0,.36-.27l.14,0a.37.37,0,0,0,.38-.37.36.36,0,0,0-.1-.25A.39.39,0,0,0,27.38,24Zm4,0a.38.38,0,0,0-.28-.36.7.7,0,0,0,0-.14.37.37,0,0,0-.26-.35v0a.38.38,0,0,0-.38-.37.38.38,0,1,0-.75,0,.37.37,0,0,0-.37.37v0a.36.36,0,0,0-.25.35.68.68,0,0,0,0,.14.37.37,0,0,0-.27.36.38.38,0,0,0,.09.25.35.35,0,0,0-.09.25.36.36,0,0,0,.37.37l.14,0a.37.37,0,0,0,.36.27l.13,0a.42.42,0,0,1,.12.27v.25h.25v-.25a.42.42,0,0,1,.12-.27l.13,0a.37.37,0,0,0,.36-.27l.14,0a.37.37,0,0,0,.38-.37.36.36,0,0,0-.1-.25A.39.39,0,0,0,31.38,24Zm-12,5.33a.38.38,0,0,0-.28-.36.58.58,0,0,0,0-.14.38.38,0,0,0-.26-.35v0A.38.38,0,0,0,18.5,28a.38.38,0,0,0-.75,0,.37.37,0,0,0-.37.38v0a.37.37,0,0,0-.25.35.59.59,0,0,0,0,.14.37.37,0,0,0-.27.36.35.35,0,0,0,.09.25.38.38,0,0,0-.09.25.37.37,0,0,0,.37.38.32.32,0,0,0,.14,0,.38.38,0,0,0,.36.28.31.31,0,0,0,.13,0,.42.42,0,0,1,.12.28v.25h.25v-.25a.42.42,0,0,1,.12-.28.31.31,0,0,0,.13,0,.38.38,0,0,0,.36-.28.32.32,0,0,0,.14,0,.38.38,0,0,0,.38-.38.39.39,0,0,0-.1-.25A.36.36,0,0,0,19.38,29.29Zm4,0a.38.38,0,0,0-.28-.36.58.58,0,0,0,0-.14.38.38,0,0,0-.26-.35v0A.38.38,0,0,0,22.5,28a.38.38,0,0,0-.75,0,.37.37,0,0,0-.37.38v0a.37.37,0,0,0-.25.35.59.59,0,0,0,0,.14.37.37,0,0,0-.27.36.35.35,0,0,0,.09.25.38.38,0,0,0-.09.25.37.37,0,0,0,.37.38.32.32,0,0,0,.14,0,.38.38,0,0,0,.36.28.31.31,0,0,0,.13,0,.42.42,0,0,1,.12.28v.25h.25v-.25a.42.42,0,0,1,.12-.28.31.31,0,0,0,.13,0,.38.38,0,0,0,.36-.28.32.32,0,0,0,.14,0,.38.38,0,0,0,.38-.38.39.39,0,0,0-.1-.25A.36.36,0,0,0,23.38,29.29Zm4,0a.38.38,0,0,0-.28-.36.58.58,0,0,0,0-.14.38.38,0,0,0-.26-.35v0A.38.38,0,0,0,26.5,28a.38.38,0,0,0-.75,0,.37.37,0,0,0-.37.38v0a.37.37,0,0,0-.25.35.59.59,0,0,0,0,.14.37.37,0,0,0-.27.36.35.35,0,0,0,.09.25.38.38,0,0,0-.09.25.37.37,0,0,0,.37.38.32.32,0,0,0,.14,0,.38.38,0,0,0,.36.28.31.31,0,0,0,.13,0,.42.42,0,0,1,.12.28v.25h.25v-.25a.42.42,0,0,1,.12-.28.31.31,0,0,0,.13,0,.38.38,0,0,0,.36-.28.32.32,0,0,0,.14,0,.38.38,0,0,0,.38-.38.39.39,0,0,0-.1-.25A.36.36,0,0,0,27.38,29.29Zm4,0a.38.38,0,0,0-.28-.36.58.58,0,0,0,0-.14.38.38,0,0,0-.26-.35v0A.38.38,0,0,0,30.5,28a.38.38,0,0,0-.75,0,.37.37,0,0,0-.37.38v0a.37.37,0,0,0-.25.35.59.59,0,0,0,0,.14.37.37,0,0,0-.27.36.35.35,0,0,0,.09.25.38.38,0,0,0-.09.25.37.37,0,0,0,.37.38.32.32,0,0,0,.14,0,.38.38,0,0,0,.36.28.31.31,0,0,0,.13,0,.42.42,0,0,1,.12.28v.25h.25v-.25a.42.42,0,0,1,.12-.28.31.31,0,0,0,.13,0,.38.38,0,0,0,.36-.28.32.32,0,0,0,.14,0,.38.38,0,0,0,.38-.38.39.39,0,0,0-.1-.25A.36.36,0,0,0,31.38,29.29Z"/></g><g id="exotic_non_poly_grid_dense_half-2" data-name="exotic_non_poly_grid_dense_half"><rect id="bbox_64-2" data-name="bbox_64" class="cls-1" x="32" width="32" height="32"/><path id="exotic_non_grid_dense-5" data-name="exotic_non_grid_dense" class="cls-2" d="M35.28,2.87a.39.39,0,0,1,.1.25A.38.38,0,0,1,35,3.5a.32.32,0,0,1-.14,0,.38.38,0,0,1-.36.28l-.13,0a.4.4,0,0,0-.12.27v.25H34V4a.4.4,0,0,0-.12-.27l-.13,0a.38.38,0,0,1-.36-.28.32.32,0,0,1-.14,0,.37.37,0,0,1-.37-.38A.38.38,0,0,1,33,2.87a.35.35,0,0,1-.09-.25.37.37,0,0,1,.27-.36.58.58,0,0,1,0-.14.38.38,0,0,1,.26-.35v0a.37.37,0,0,1,.37-.38.38.38,0,0,1,.75,0,.38.38,0,0,1,.38.38v0a.37.37,0,0,1,.25.35.59.59,0,0,1,0,.14.38.38,0,0,1,.28.36A.36.36,0,0,1,35.28,2.87Zm4.1-.25a.38.38,0,0,0-.28-.36.58.58,0,0,0,0-.14.38.38,0,0,0-.26-.35v0a.38.38,0,0,0-.38-.38.38.38,0,0,0-.75,0,.37.37,0,0,0-.37.38v0a.38.38,0,0,0-.26.35.58.58,0,0,0,0,.14.38.38,0,0,0-.27.36.35.35,0,0,0,.09.25.38.38,0,0,0-.09.25.37.37,0,0,0,.37.38.32.32,0,0,0,.14,0,.38.38,0,0,0,.36.28l.13,0A.4.4,0,0,1,38,4v.25h.25V4a.4.4,0,0,1,.12-.27l.13,0a.38.38,0,0,0,.36-.28.32.32,0,0,0,.14,0,.38.38,0,0,0,.38-.38.39.39,0,0,0-.1-.25A.36.36,0,0,0,39.38,2.62Zm4,0a.38.38,0,0,0-.28-.36.58.58,0,0,0,0-.14.38.38,0,0,0-.26-.35v0a.38.38,0,0,0-.38-.38.38.38,0,0,0-.75,0,.37.37,0,0,0-.37.38v0a.37.37,0,0,0-.25.35.59.59,0,0,0,0,.14.38.38,0,0,0-.27.36.35.35,0,0,0,.09.25.38.38,0,0,0-.09.25.37.37,0,0,0,.37.38.32.32,0,0,0,.14,0,.38.38,0,0,0,.36.28l.13,0A.4.4,0,0,1,42,4v.25h.25V4a.4.4,0,0,1,.12-.27l.13,0a.38.38,0,0,0,.36-.28.32.32,0,0,0,.14,0,.38.38,0,0,0,.38-.38.39.39,0,0,0-.1-.25A.36.36,0,0,0,43.38,2.62Zm4,0a.38.38,0,0,0-.28-.36.58.58,0,0,0,0-.14.38.38,0,0,0-.26-.35v0a.38.38,0,0,0-.38-.38.38.38,0,0,0-.75,0,.37.37,0,0,0-.37.38v0a.37.37,0,0,0-.25.35.59.59,0,0,0,0,.14.38.38,0,0,0-.27.36.35.35,0,0,0,.09.25.38.38,0,0,0-.09.25.37.37,0,0,0,.37.38.32.32,0,0,0,.14,0,.38.38,0,0,0,.36.28l.13,0A.4.4,0,0,1,46,4v.25h.25V4a.4.4,0,0,1,.12-.27l.13,0a.38.38,0,0,0,.36-.28.32.32,0,0,0,.14,0,.38.38,0,0,0,.38-.38.39.39,0,0,0-.1-.25A.36.36,0,0,0,47.38,2.62ZM35.38,8a.38.38,0,0,0-.28-.36.68.68,0,0,0,0-.14.36.36,0,0,0-.25-.35v0a.38.38,0,0,0-.38-.37.38.38,0,1,0-.75,0,.37.37,0,0,0-.37.37v0a.37.37,0,0,0-.26.35.7.7,0,0,0,0,.14.37.37,0,0,0-.27.36.38.38,0,0,0,.09.25.35.35,0,0,0-.09.25.36.36,0,0,0,.37.37l.14,0a.37.37,0,0,0,.36.27l.13,0a.42.42,0,0,1,.12.27v.25h.25V9.33a.42.42,0,0,1,.12-.27l.13,0a.37.37,0,0,0,.36-.27l.14,0a.37.37,0,0,0,.38-.37.36.36,0,0,0-.1-.25A.39.39,0,0,0,35.38,8Zm4,0a.38.38,0,0,0-.28-.36.7.7,0,0,0,0-.14.37.37,0,0,0-.26-.35v0a.38.38,0,0,0-.38-.37.38.38,0,1,0-.75,0,.37.37,0,0,0-.37.37v0a.37.37,0,0,0-.26.35.7.7,0,0,0,0,.14.37.37,0,0,0-.27.36.38.38,0,0,0,.09.25.35.35,0,0,0-.09.25.36.36,0,0,0,.37.37l.14,0a.37.37,0,0,0,.36.27l.13,0a.42.42,0,0,1,.12.27v.25h.25V9.33a.42.42,0,0,1,.12-.27l.13,0a.37.37,0,0,0,.36-.27l.14,0a.37.37,0,0,0,.38-.37.36.36,0,0,0-.1-.25A.39.39,0,0,0,39.38,8Zm4,0a.38.38,0,0,0-.28-.36.7.7,0,0,0,0-.14.37.37,0,0,0-.26-.35v0a.38.38,0,0,0-.38-.37.38.38,0,1,0-.75,0,.37.37,0,0,0-.37.37v0a.36.36,0,0,0-.25.35.68.68,0,0,0,0,.14.37.37,0,0,0-.27.36.38.38,0,0,0,.09.25.35.35,0,0,0-.09.25.36.36,0,0,0,.37.37l.14,0a.37.37,0,0,0,.36.27l.13,0a.42.42,0,0,1,.12.27v.25h.25V9.33a.42.42,0,0,1,.12-.27l.13,0a.37.37,0,0,0,.36-.27l.14,0a.37.37,0,0,0,.38-.37.36.36,0,0,0-.1-.25A.39.39,0,0,0,43.38,8Zm4,0a.38.38,0,0,0-.28-.36.7.7,0,0,0,0-.14.37.37,0,0,0-.26-.35v0a.38.38,0,0,0-.38-.37.38.38,0,1,0-.75,0,.37.37,0,0,0-.37.37v0a.36.36,0,0,0-.25.35.68.68,0,0,0,0,.14.37.37,0,0,0-.27.36.38.38,0,0,0,.09.25.35.35,0,0,0-.09.25.36.36,0,0,0,.37.37l.14,0a.37.37,0,0,0,.36.27l.13,0a.42.42,0,0,1,.12.27v.25h.25V9.33a.42.42,0,0,1,.12-.27l.13,0a.37.37,0,0,0,.36-.27l.14,0a.37.37,0,0,0,.38-.37.36.36,0,0,0-.1-.25A.39.39,0,0,0,47.38,8Zm-12,5.33a.38.38,0,0,0-.28-.36.59.59,0,0,0,0-.14.37.37,0,0,0-.25-.35v0A.38.38,0,0,0,34.5,12a.38.38,0,0,0-.75,0,.37.37,0,0,0-.37.38v0a.38.38,0,0,0-.26.35.58.58,0,0,0,0,.14.37.37,0,0,0-.27.36.35.35,0,0,0,.09.25.38.38,0,0,0-.09.25.37.37,0,0,0,.37.38.32.32,0,0,0,.14,0,.38.38,0,0,0,.36.28.31.31,0,0,0,.13,0,.42.42,0,0,1,.12.28v.25h.25v-.25a.42.42,0,0,1,.12-.28.31.31,0,0,0,.13,0,.38.38,0,0,0,.36-.28.32.32,0,0,0,.14,0,.38.38,0,0,0,.38-.38.39.39,0,0,0-.1-.25A.36.36,0,0,0,35.38,13.29Zm4,0a.38.38,0,0,0-.28-.36.58.58,0,0,0,0-.14.38.38,0,0,0-.26-.35v0A.38.38,0,0,0,38.5,12a.38.38,0,0,0-.75,0,.37.37,0,0,0-.37.38v0a.38.38,0,0,0-.26.35.58.58,0,0,0,0,.14.37.37,0,0,0-.27.36.35.35,0,0,0,.09.25.38.38,0,0,0-.09.25.37.37,0,0,0,.37.38.32.32,0,0,0,.14,0,.38.38,0,0,0,.36.28.31.31,0,0,0,.13,0,.42.42,0,0,1,.12.28v.25h.25v-.25a.42.42,0,0,1,.12-.28.31.31,0,0,0,.13,0,.38.38,0,0,0,.36-.28.32.32,0,0,0,.14,0,.38.38,0,0,0,.38-.38.39.39,0,0,0-.1-.25A.36.36,0,0,0,39.38,13.29Zm4,0a.38.38,0,0,0-.28-.36.58.58,0,0,0,0-.14.38.38,0,0,0-.26-.35v0A.38.38,0,0,0,42.5,12a.38.38,0,0,0-.75,0,.37.37,0,0,0-.37.38v0a.37.37,0,0,0-.25.35.59.59,0,0,0,0,.14.37.37,0,0,0-.27.36.35.35,0,0,0,.09.25.38.38,0,0,0-.09.25.37.37,0,0,0,.37.38.32.32,0,0,0,.14,0,.38.38,0,0,0,.36.28.31.31,0,0,0,.13,0,.42.42,0,0,1,.12.28v.25h.25v-.25a.42.42,0,0,1,.12-.28.31.31,0,0,0,.13,0,.38.38,0,0,0,.36-.28.32.32,0,0,0,.14,0,.38.38,0,0,0,.38-.38.39.39,0,0,0-.1-.25A.36.36,0,0,0,43.38,13.29Zm4,0a.38.38,0,0,0-.28-.36.58.58,0,0,0,0-.14.38.38,0,0,0-.26-.35v0A.38.38,0,0,0,46.5,12a.38.38,0,0,0-.75,0,.37.37,0,0,0-.37.38v0a.37.37,0,0,0-.25.35.59.59,0,0,0,0,.14.37.37,0,0,0-.27.36.35.35,0,0,0,.09.25.38.38,0,0,0-.09.25.37.37,0,0,0,.37.38.32.32,0,0,0,.14,0,.38.38,0,0,0,.36.28.31.31,0,0,0,.13,0,.42.42,0,0,1,.12.28v.25h.25v-.25a.42.42,0,0,1,.12-.28.31.31,0,0,0,.13,0,.38.38,0,0,0,.36-.28.32.32,0,0,0,.14,0,.38.38,0,0,0,.38-.38.39.39,0,0,0-.1-.25A.36.36,0,0,0,47.38,13.29Z"/><path id="exotic_non_grid_dense-6" data-name="exotic_non_grid_dense" class="cls-2" d="M35.28,18.87a.39.39,0,0,1,.1.25.38.38,0,0,1-.38.38.32.32,0,0,1-.14,0,.38.38,0,0,1-.36.28l-.13,0a.4.4,0,0,0-.12.27v.25H34V20a.4.4,0,0,0-.12-.27l-.13,0a.38.38,0,0,1-.36-.28.32.32,0,0,1-.14,0,.37.37,0,0,1-.37-.38.38.38,0,0,1,.09-.25.35.35,0,0,1-.09-.25.37.37,0,0,1,.27-.36.58.58,0,0,1,0-.14.38.38,0,0,1,.26-.35v0a.37.37,0,0,1,.37-.38.38.38,0,0,1,.75,0,.38.38,0,0,1,.38.38v0a.37.37,0,0,1,.25.35.59.59,0,0,1,0,.14.38.38,0,0,1,.28.36A.36.36,0,0,1,35.28,18.87Zm4.1-.25a.38.38,0,0,0-.28-.36.58.58,0,0,0,0-.14.38.38,0,0,0-.26-.35v0a.38.38,0,0,0-.38-.38.38.38,0,0,0-.75,0,.37.37,0,0,0-.37.38v0a.38.38,0,0,0-.26.35.58.58,0,0,0,0,.14.37.37,0,0,0-.27.36.35.35,0,0,0,.09.25.38.38,0,0,0-.09.25.37.37,0,0,0,.37.38.32.32,0,0,0,.14,0,.38.38,0,0,0,.36.28l.13,0A.4.4,0,0,1,38,20v.25h.25V20a.4.4,0,0,1,.12-.27l.13,0a.38.38,0,0,0,.36-.28.32.32,0,0,0,.14,0,.38.38,0,0,0,.38-.38.39.39,0,0,0-.1-.25A.36.36,0,0,0,39.38,18.62Zm4,0a.38.38,0,0,0-.28-.36.58.58,0,0,0,0-.14.38.38,0,0,0-.26-.35v0a.38.38,0,0,0-.38-.38.38.38,0,0,0-.75,0,.37.37,0,0,0-.37.38v0a.37.37,0,0,0-.25.35.59.59,0,0,0,0,.14.37.37,0,0,0-.27.36.35.35,0,0,0,.09.25.38.38,0,0,0-.09.25.37.37,0,0,0,.37.38.32.32,0,0,0,.14,0,.38.38,0,0,0,.36.28l.13,0A.4.4,0,0,1,42,20v.25h.25V20a.4.4,0,0,1,.12-.27l.13,0a.38.38,0,0,0,.36-.28.32.32,0,0,0,.14,0,.38.38,0,0,0,.38-.38.39.39,0,0,0-.1-.25A.36.36,0,0,0,43.38,18.62Zm4,0a.38.38,0,0,0-.28-.36.58.58,0,0,0,0-.14.38.38,0,0,0-.26-.35v0a.38.38,0,0,0-.38-.38.38.38,0,0,0-.75,0,.37.37,0,0,0-.37.38v0a.37.37,0,0,0-.25.35.59.59,0,0,0,0,.14.37.37,0,0,0-.27.36.35.35,0,0,0,.09.25.38.38,0,0,0-.09.25.37.37,0,0,0,.37.38.32.32,0,0,0,.14,0,.38.38,0,0,0,.36.28l.13,0A.4.4,0,0,1,46,20v.25h.25V20a.4.4,0,0,1,.12-.27l.13,0a.38.38,0,0,0,.36-.28.32.32,0,0,0,.14,0,.38.38,0,0,0,.38-.38.39.39,0,0,0-.1-.25A.36.36,0,0,0,47.38,18.62ZM35.38,24a.38.38,0,0,0-.28-.36.68.68,0,0,0,0-.14.36.36,0,0,0-.25-.35v0a.38.38,0,0,0-.38-.37.38.38,0,1,0-.75,0,.37.37,0,0,0-.37.37v0a.37.37,0,0,0-.26.35.7.7,0,0,0,0,.14.37.37,0,0,0-.27.36.38.38,0,0,0,.09.25.35.35,0,0,0-.09.25.36.36,0,0,0,.37.37l.14,0a.37.37,0,0,0,.36.27l.13,0a.42.42,0,0,1,.12.27v.25h.25v-.25a.42.42,0,0,1,.12-.27l.13,0a.37.37,0,0,0,.36-.27l.14,0a.37.37,0,0,0,.38-.37.36.36,0,0,0-.1-.25A.39.39,0,0,0,35.38,24Zm4,0a.38.38,0,0,0-.28-.36.7.7,0,0,0,0-.14.37.37,0,0,0-.26-.35v0a.38.38,0,0,0-.38-.37.38.38,0,1,0-.75,0,.37.37,0,0,0-.37.37v0a.37.37,0,0,0-.26.35.7.7,0,0,0,0,.14.37.37,0,0,0-.27.36.38.38,0,0,0,.09.25.35.35,0,0,0-.09.25.36.36,0,0,0,.37.37l.14,0a.37.37,0,0,0,.36.27l.13,0a.42.42,0,0,1,.12.27v.25h.25v-.25a.42.42,0,0,1,.12-.27l.13,0a.37.37,0,0,0,.36-.27l.14,0a.37.37,0,0,0,.38-.37.36.36,0,0,0-.1-.25A.39.39,0,0,0,39.38,24Zm4,0a.38.38,0,0,0-.28-.36.7.7,0,0,0,0-.14.37.37,0,0,0-.26-.35v0a.38.38,0,0,0-.38-.37.38.38,0,1,0-.75,0,.37.37,0,0,0-.37.37v0a.36.36,0,0,0-.25.35.68.68,0,0,0,0,.14.37.37,0,0,0-.27.36.38.38,0,0,0,.09.25.35.35,0,0,0-.09.25.36.36,0,0,0,.37.37l.14,0a.37.37,0,0,0,.36.27l.13,0a.42.42,0,0,1,.12.27v.25h.25v-.25a.42.42,0,0,1,.12-.27l.13,0a.37.37,0,0,0,.36-.27l.14,0a.37.37,0,0,0,.38-.37.36.36,0,0,0-.1-.25A.39.39,0,0,0,43.38,24Zm4,0a.38.38,0,0,0-.28-.36.7.7,0,0,0,0-.14.37.37,0,0,0-.26-.35v0a.38.38,0,0,0-.38-.37.38.38,0,1,0-.75,0,.37.37,0,0,0-.37.37v0a.36.36,0,0,0-.25.35.68.68,0,0,0,0,.14.37.37,0,0,0-.27.36.38.38,0,0,0,.09.25.35.35,0,0,0-.09.25.36.36,0,0,0,.37.37l.14,0a.37.37,0,0,0,.36.27l.13,0a.42.42,0,0,1,.12.27v.25h.25v-.25a.42.42,0,0,1,.12-.27l.13,0a.37.37,0,0,0,.36-.27l.14,0a.37.37,0,0,0,.38-.37.36.36,0,0,0-.1-.25A.39.39,0,0,0,47.38,24Zm-12,5.33a.38.38,0,0,0-.28-.36.59.59,0,0,0,0-.14.37.37,0,0,0-.25-.35v0A.38.38,0,0,0,34.5,28a.38.38,0,0,0-.75,0,.37.37,0,0,0-.37.38v0a.38.38,0,0,0-.26.35.58.58,0,0,0,0,.14.37.37,0,0,0-.27.36.35.35,0,0,0,.09.25.38.38,0,0,0-.09.25.37.37,0,0,0,.37.38.32.32,0,0,0,.14,0,.38.38,0,0,0,.36.28.31.31,0,0,0,.13,0,.42.42,0,0,1,.12.28v.25h.25v-.25a.42.42,0,0,1,.12-.28.31.31,0,0,0,.13,0,.38.38,0,0,0,.36-.28.32.32,0,0,0,.14,0,.38.38,0,0,0,.38-.38.39.39,0,0,0-.1-.25A.36.36,0,0,0,35.38,29.29Zm4,0a.38.38,0,0,0-.28-.36.58.58,0,0,0,0-.14.38.38,0,0,0-.26-.35v0A.38.38,0,0,0,38.5,28a.38.38,0,0,0-.75,0,.37.37,0,0,0-.37.38v0a.38.38,0,0,0-.26.35.58.58,0,0,0,0,.14.37.37,0,0,0-.27.36.35.35,0,0,0,.09.25.38.38,0,0,0-.09.25.37.37,0,0,0,.37.38.32.32,0,0,0,.14,0,.38.38,0,0,0,.36.28.31.31,0,0,0,.13,0,.42.42,0,0,1,.12.28v.25h.25v-.25a.42.42,0,0,1,.12-.28.31.31,0,0,0,.13,0,.38.38,0,0,0,.36-.28.32.32,0,0,0,.14,0,.38.38,0,0,0,.38-.38.39.39,0,0,0-.1-.25A.36.36,0,0,0,39.38,29.29Zm4,0a.38.38,0,0,0-.28-.36.58.58,0,0,0,0-.14.38.38,0,0,0-.26-.35v0A.38.38,0,0,0,42.5,28a.38.38,0,0,0-.75,0,.37.37,0,0,0-.37.38v0a.37.37,0,0,0-.25.35.59.59,0,0,0,0,.14.37.37,0,0,0-.27.36.35.35,0,0,0,.09.25.38.38,0,0,0-.09.25.37.37,0,0,0,.37.38.32.32,0,0,0,.14,0,.38.38,0,0,0,.36.28.31.31,0,0,0,.13,0,.42.42,0,0,1,.12.28v.25h.25v-.25a.42.42,0,0,1,.12-.28.31.31,0,0,0,.13,0,.38.38,0,0,0,.36-.28.32.32,0,0,0,.14,0,.38.38,0,0,0,.38-.38.39.39,0,0,0-.1-.25A.36.36,0,0,0,43.38,29.29Zm4,0a.38.38,0,0,0-.28-.36.58.58,0,0,0,0-.14.38.38,0,0,0-.26-.35v0A.38.38,0,0,0,46.5,28a.38.38,0,0,0-.75,0,.37.37,0,0,0-.37.38v0a.37.37,0,0,0-.25.35.59.59,0,0,0,0,.14.37.37,0,0,0-.27.36.35.35,0,0,0,.09.25.38.38,0,0,0-.09.25.37.37,0,0,0,.37.38.32.32,0,0,0,.14,0,.38.38,0,0,0,.36.28.31.31,0,0,0,.13,0,.42.42,0,0,1,.12.28v.25h.25v-.25a.42.42,0,0,1,.12-.28.31.31,0,0,0,.13,0,.38.38,0,0,0,.36-.28.32.32,0,0,0,.14,0,.38.38,0,0,0,.38-.38.39.39,0,0,0-.1-.25A.36.36,0,0,0,47.38,29.29Z"/><path id="exotic_non_grid_dense-7" data-name="exotic_non_grid_dense" class="cls-2" d="M51.28,2.87a.39.39,0,0,1,.1.25A.38.38,0,0,1,51,3.5a.32.32,0,0,1-.14,0,.38.38,0,0,1-.36.28l-.13,0a.4.4,0,0,0-.12.27v.25H50V4a.4.4,0,0,0-.12-.27l-.13,0a.38.38,0,0,1-.36-.28.32.32,0,0,1-.14,0,.37.37,0,0,1-.37-.38A.38.38,0,0,1,49,2.87a.35.35,0,0,1-.09-.25.38.38,0,0,1,.27-.36.59.59,0,0,1,0-.14.37.37,0,0,1,.25-.35v0a.37.37,0,0,1,.37-.38.38.38,0,0,1,.75,0,.38.38,0,0,1,.38.38v0a.38.38,0,0,1,.26.35.58.58,0,0,1,0,.14.38.38,0,0,1,.28.36A.36.36,0,0,1,51.28,2.87Zm4.1-.25a.38.38,0,0,0-.28-.36.58.58,0,0,0,0-.14.38.38,0,0,0-.26-.35v0a.38.38,0,0,0-.38-.38.38.38,0,0,0-.75,0,.37.37,0,0,0-.37.38v0a.37.37,0,0,0-.25.35.59.59,0,0,0,0,.14.38.38,0,0,0-.27.36.35.35,0,0,0,.09.25.38.38,0,0,0-.09.25.37.37,0,0,0,.37.38.32.32,0,0,0,.14,0,.38.38,0,0,0,.36.28l.13,0A.4.4,0,0,1,54,4v.25h.25V4a.4.4,0,0,1,.12-.27l.13,0a.38.38,0,0,0,.36-.28.32.32,0,0,0,.14,0,.38.38,0,0,0,.38-.38.39.39,0,0,0-.1-.25A.36.36,0,0,0,55.38,2.62Zm4,0a.38.38,0,0,0-.28-.36.58.58,0,0,0,0-.14.38.38,0,0,0-.26-.35v0a.38.38,0,0,0-.38-.38.38.38,0,0,0-.75,0,.37.37,0,0,0-.37.38v0a.37.37,0,0,0-.25.35.59.59,0,0,0,0,.14.38.38,0,0,0-.27.36.35.35,0,0,0,.09.25.38.38,0,0,0-.09.25.37.37,0,0,0,.37.38.32.32,0,0,0,.14,0,.38.38,0,0,0,.36.28l.13,0A.4.4,0,0,1,58,4v.25h.25V4a.4.4,0,0,1,.12-.27l.13,0a.38.38,0,0,0,.36-.28.32.32,0,0,0,.14,0,.38.38,0,0,0,.38-.38.39.39,0,0,0-.1-.25A.36.36,0,0,0,59.38,2.62Zm4,0a.38.38,0,0,0-.28-.36.58.58,0,0,0,0-.14.38.38,0,0,0-.26-.35v0a.38.38,0,0,0-.38-.38.38.38,0,0,0-.75,0,.37.37,0,0,0-.37.38v0a.37.37,0,0,0-.25.35.59.59,0,0,0,0,.14.38.38,0,0,0-.27.36.35.35,0,0,0,.09.25.38.38,0,0,0-.09.25.37.37,0,0,0,.37.38.32.32,0,0,0,.14,0,.38.38,0,0,0,.36.28l.13,0A.4.4,0,0,1,62,4v.25h.25V4a.4.4,0,0,1,.12-.27l.13,0a.38.38,0,0,0,.36-.28.32.32,0,0,0,.14,0,.38.38,0,0,0,.38-.38.39.39,0,0,0-.1-.25A.36.36,0,0,0,63.38,2.62ZM51.38,8a.38.38,0,0,0-.28-.36.7.7,0,0,0,0-.14.37.37,0,0,0-.26-.35v0a.38.38,0,0,0-.38-.37.38.38,0,1,0-.75,0,.37.37,0,0,0-.37.37v0a.36.36,0,0,0-.25.35.68.68,0,0,0,0,.14.37.37,0,0,0-.27.36.38.38,0,0,0,.09.25.35.35,0,0,0-.09.25.36.36,0,0,0,.37.37l.14,0a.37.37,0,0,0,.36.27l.13,0a.42.42,0,0,1,.12.27v.25h.25V9.33a.42.42,0,0,1,.12-.27l.13,0a.37.37,0,0,0,.36-.27l.14,0a.37.37,0,0,0,.38-.37.36.36,0,0,0-.1-.25A.39.39,0,0,0,51.38,8Zm4,0a.38.38,0,0,0-.28-.36.7.7,0,0,0,0-.14.37.37,0,0,0-.26-.35v0a.38.38,0,0,0-.38-.37.38.38,0,1,0-.75,0,.37.37,0,0,0-.37.37v0a.36.36,0,0,0-.25.35.68.68,0,0,0,0,.14.37.37,0,0,0-.27.36.38.38,0,0,0,.09.25.35.35,0,0,0-.09.25.36.36,0,0,0,.37.37l.14,0a.37.37,0,0,0,.36.27l.13,0a.42.42,0,0,1,.12.27v.25h.25V9.33a.42.42,0,0,1,.12-.27l.13,0a.37.37,0,0,0,.36-.27l.14,0a.37.37,0,0,0,.38-.37.36.36,0,0,0-.1-.25A.39.39,0,0,0,55.38,8Zm4,0a.38.38,0,0,0-.28-.36.7.7,0,0,0,0-.14.37.37,0,0,0-.26-.35v0a.38.38,0,0,0-.38-.37.38.38,0,1,0-.75,0,.37.37,0,0,0-.37.37v0a.36.36,0,0,0-.25.35.68.68,0,0,0,0,.14.37.37,0,0,0-.27.36.38.38,0,0,0,.09.25.35.35,0,0,0-.09.25.36.36,0,0,0,.37.37l.14,0a.37.37,0,0,0,.36.27l.13,0a.42.42,0,0,1,.12.27v.25h.25V9.33a.42.42,0,0,1,.12-.27l.13,0a.37.37,0,0,0,.36-.27l.14,0a.37.37,0,0,0,.38-.37.36.36,0,0,0-.1-.25A.39.39,0,0,0,59.38,8Zm4,0a.38.38,0,0,0-.28-.36.7.7,0,0,0,0-.14.37.37,0,0,0-.26-.35v0a.38.38,0,0,0-.38-.37.38.38,0,1,0-.75,0,.37.37,0,0,0-.37.37v0a.36.36,0,0,0-.25.35.68.68,0,0,0,0,.14.37.37,0,0,0-.27.36.38.38,0,0,0,.09.25.35.35,0,0,0-.09.25.36.36,0,0,0,.37.37l.14,0a.37.37,0,0,0,.36.27l.13,0a.42.42,0,0,1,.12.27v.25h.25V9.33a.42.42,0,0,1,.12-.27l.13,0a.37.37,0,0,0,.36-.27l.14,0a.37.37,0,0,0,.38-.37.36.36,0,0,0-.1-.25A.39.39,0,0,0,63.38,8Zm-12,5.33a.38.38,0,0,0-.28-.36.58.58,0,0,0,0-.14.38.38,0,0,0-.26-.35v0A.38.38,0,0,0,50.5,12a.38.38,0,0,0-.75,0,.37.37,0,0,0-.37.38v0a.37.37,0,0,0-.25.35.59.59,0,0,0,0,.14.37.37,0,0,0-.27.36.35.35,0,0,0,.09.25.38.38,0,0,0-.09.25.37.37,0,0,0,.37.38.32.32,0,0,0,.14,0,.38.38,0,0,0,.36.28.31.31,0,0,0,.13,0,.42.42,0,0,1,.12.28v.25h.25v-.25a.42.42,0,0,1,.12-.28.31.31,0,0,0,.13,0,.38.38,0,0,0,.36-.28.32.32,0,0,0,.14,0,.38.38,0,0,0,.38-.38.39.39,0,0,0-.1-.25A.36.36,0,0,0,51.38,13.29Zm4,0a.38.38,0,0,0-.28-.36.58.58,0,0,0,0-.14.38.38,0,0,0-.26-.35v0A.38.38,0,0,0,54.5,12a.38.38,0,0,0-.75,0,.37.37,0,0,0-.37.38v0a.37.37,0,0,0-.25.35.59.59,0,0,0,0,.14.37.37,0,0,0-.27.36.35.35,0,0,0,.09.25.38.38,0,0,0-.09.25.37.37,0,0,0,.37.38.32.32,0,0,0,.14,0,.38.38,0,0,0,.36.28.31.31,0,0,0,.13,0,.42.42,0,0,1,.12.28v.25h.25v-.25a.42.42,0,0,1,.12-.28.31.31,0,0,0,.13,0,.38.38,0,0,0,.36-.28.32.32,0,0,0,.14,0,.38.38,0,0,0,.38-.38.39.39,0,0,0-.1-.25A.36.36,0,0,0,55.38,13.29Zm4,0a.38.38,0,0,0-.28-.36.58.58,0,0,0,0-.14.38.38,0,0,0-.26-.35v0A.38.38,0,0,0,58.5,12a.38.38,0,0,0-.75,0,.37.37,0,0,0-.37.38v0a.37.37,0,0,0-.25.35.59.59,0,0,0,0,.14.37.37,0,0,0-.27.36.35.35,0,0,0,.09.25.38.38,0,0,0-.09.25.37.37,0,0,0,.37.38.32.32,0,0,0,.14,0,.38.38,0,0,0,.36.28.31.31,0,0,0,.13,0,.42.42,0,0,1,.12.28v.25h.25v-.25a.42.42,0,0,1,.12-.28.31.31,0,0,0,.13,0,.38.38,0,0,0,.36-.28.32.32,0,0,0,.14,0,.38.38,0,0,0,.38-.38.39.39,0,0,0-.1-.25A.36.36,0,0,0,59.38,13.29Zm4,0a.38.38,0,0,0-.28-.36.58.58,0,0,0,0-.14.38.38,0,0,0-.26-.35v0A.38.38,0,0,0,62.5,12a.38.38,0,0,0-.75,0,.37.37,0,0,0-.37.38v0a.37.37,0,0,0-.25.35.59.59,0,0,0,0,.14.37.37,0,0,0-.27.36.35.35,0,0,0,.09.25.38.38,0,0,0-.09.25.37.37,0,0,0,.37.38.32.32,0,0,0,.14,0,.38.38,0,0,0,.36.28.31.31,0,0,0,.13,0,.42.42,0,0,1,.12.28v.25h.25v-.25a.42.42,0,0,1,.12-.28.31.31,0,0,0,.13,0,.38.38,0,0,0,.36-.28.32.32,0,0,0,.14,0,.38.38,0,0,0,.38-.38.39.39,0,0,0-.1-.25A.36.36,0,0,0,63.38,13.29Z"/><path id="exotic_non_grid_dense-8" data-name="exotic_non_grid_dense" class="cls-2" d="M51.28,18.87a.39.39,0,0,1,.1.25.38.38,0,0,1-.38.38.32.32,0,0,1-.14,0,.38.38,0,0,1-.36.28l-.13,0a.4.4,0,0,0-.12.27v.25H50V20a.4.4,0,0,0-.12-.27l-.13,0a.38.38,0,0,1-.36-.28.32.32,0,0,1-.14,0,.37.37,0,0,1-.37-.38.38.38,0,0,1,.09-.25.35.35,0,0,1-.09-.25.37.37,0,0,1,.27-.36.59.59,0,0,1,0-.14.37.37,0,0,1,.25-.35v0a.37.37,0,0,1,.37-.38.38.38,0,0,1,.75,0,.38.38,0,0,1,.38.38v0a.38.38,0,0,1,.26.35.58.58,0,0,1,0,.14.38.38,0,0,1,.28.36A.36.36,0,0,1,51.28,18.87Zm4.1-.25a.38.38,0,0,0-.28-.36.58.58,0,0,0,0-.14.38.38,0,0,0-.26-.35v0a.38.38,0,0,0-.38-.38.38.38,0,0,0-.75,0,.37.37,0,0,0-.37.38v0a.37.37,0,0,0-.25.35.59.59,0,0,0,0,.14.37.37,0,0,0-.27.36.35.35,0,0,0,.09.25.38.38,0,0,0-.09.25.37.37,0,0,0,.37.38.32.32,0,0,0,.14,0,.38.38,0,0,0,.36.28l.13,0A.4.4,0,0,1,54,20v.25h.25V20a.4.4,0,0,1,.12-.27l.13,0a.38.38,0,0,0,.36-.28.32.32,0,0,0,.14,0,.38.38,0,0,0,.38-.38.39.39,0,0,0-.1-.25A.36.36,0,0,0,55.38,18.62Zm4,0a.38.38,0,0,0-.28-.36.58.58,0,0,0,0-.14.38.38,0,0,0-.26-.35v0a.38.38,0,0,0-.38-.38.38.38,0,0,0-.75,0,.37.37,0,0,0-.37.38v0a.37.37,0,0,0-.25.35.59.59,0,0,0,0,.14.37.37,0,0,0-.27.36.35.35,0,0,0,.09.25.38.38,0,0,0-.09.25.37.37,0,0,0,.37.38.32.32,0,0,0,.14,0,.38.38,0,0,0,.36.28l.13,0A.4.4,0,0,1,58,20v.25h.25V20a.4.4,0,0,1,.12-.27l.13,0a.38.38,0,0,0,.36-.28.32.32,0,0,0,.14,0,.38.38,0,0,0,.38-.38.39.39,0,0,0-.1-.25A.36.36,0,0,0,59.38,18.62Zm4,0a.38.38,0,0,0-.28-.36.58.58,0,0,0,0-.14.38.38,0,0,0-.26-.35v0a.38.38,0,0,0-.38-.38.38.38,0,0,0-.75,0,.37.37,0,0,0-.37.38v0a.37.37,0,0,0-.25.35.59.59,0,0,0,0,.14.37.37,0,0,0-.27.36.35.35,0,0,0,.09.25.38.38,0,0,0-.09.25.37.37,0,0,0,.37.38.32.32,0,0,0,.14,0,.38.38,0,0,0,.36.28l.13,0A.4.4,0,0,1,62,20v.25h.25V20a.4.4,0,0,1,.12-.27l.13,0a.38.38,0,0,0,.36-.28.32.32,0,0,0,.14,0,.38.38,0,0,0,.38-.38.39.39,0,0,0-.1-.25A.36.36,0,0,0,63.38,18.62ZM51.38,24a.38.38,0,0,0-.28-.36.7.7,0,0,0,0-.14.37.37,0,0,0-.26-.35v0a.38.38,0,0,0-.38-.37.38.38,0,1,0-.75,0,.37.37,0,0,0-.37.37v0a.36.36,0,0,0-.25.35.68.68,0,0,0,0,.14.37.37,0,0,0-.27.36.38.38,0,0,0,.09.25.35.35,0,0,0-.09.25.36.36,0,0,0,.37.37l.14,0a.37.37,0,0,0,.36.27l.13,0a.42.42,0,0,1,.12.27v.25h.25v-.25a.42.42,0,0,1,.12-.27l.13,0a.37.37,0,0,0,.36-.27l.14,0a.37.37,0,0,0,.38-.37.36.36,0,0,0-.1-.25A.39.39,0,0,0,51.38,24Zm4,0a.38.38,0,0,0-.28-.36.7.7,0,0,0,0-.14.37.37,0,0,0-.26-.35v0a.38.38,0,0,0-.38-.37.38.38,0,1,0-.75,0,.37.37,0,0,0-.37.37v0a.36.36,0,0,0-.25.35.68.68,0,0,0,0,.14.37.37,0,0,0-.27.36.38.38,0,0,0,.09.25.35.35,0,0,0-.09.25.36.36,0,0,0,.37.37l.14,0a.37.37,0,0,0,.36.27l.13,0a.42.42,0,0,1,.12.27v.25h.25v-.25a.42.42,0,0,1,.12-.27l.13,0a.37.37,0,0,0,.36-.27l.14,0a.37.37,0,0,0,.38-.37.36.36,0,0,0-.1-.25A.39.39,0,0,0,55.38,24Zm4,0a.38.38,0,0,0-.28-.36.7.7,0,0,0,0-.14.37.37,0,0,0-.26-.35v0a.38.38,0,0,0-.38-.37.38.38,0,1,0-.75,0,.37.37,0,0,0-.37.37v0a.36.36,0,0,0-.25.35.68.68,0,0,0,0,.14.37.37,0,0,0-.27.36.38.38,0,0,0,.09.25.35.35,0,0,0-.09.25.36.36,0,0,0,.37.37l.14,0a.37.37,0,0,0,.36.27l.13,0a.42.42,0,0,1,.12.27v.25h.25v-.25a.42.42,0,0,1,.12-.27l.13,0a.37.37,0,0,0,.36-.27l.14,0a.37.37,0,0,0,.38-.37.36.36,0,0,0-.1-.25A.39.39,0,0,0,59.38,24Zm4,0a.38.38,0,0,0-.28-.36.7.7,0,0,0,0-.14.37.37,0,0,0-.26-.35v0a.38.38,0,0,0-.38-.37.38.38,0,1,0-.75,0,.37.37,0,0,0-.37.37v0a.36.36,0,0,0-.25.35.68.68,0,0,0,0,.14.37.37,0,0,0-.27.36.38.38,0,0,0,.09.25.35.35,0,0,0-.09.25.36.36,0,0,0,.37.37l.14,0a.37.37,0,0,0,.36.27l.13,0a.42.42,0,0,1,.12.27v.25h.25v-.25a.42.42,0,0,1,.12-.27l.13,0a.37.37,0,0,0,.36-.27l.14,0a.37.37,0,0,0,.38-.37.36.36,0,0,0-.1-.25A.39.39,0,0,0,63.38,24Zm-12,5.33a.38.38,0,0,0-.28-.36.58.58,0,0,0,0-.14.38.38,0,0,0-.26-.35v0A.38.38,0,0,0,50.5,28a.38.38,0,0,0-.75,0,.37.37,0,0,0-.37.38v0a.37.37,0,0,0-.25.35.59.59,0,0,0,0,.14.37.37,0,0,0-.27.36.35.35,0,0,0,.09.25.38.38,0,0,0-.09.25.37.37,0,0,0,.37.38.32.32,0,0,0,.14,0,.38.38,0,0,0,.36.28.31.31,0,0,0,.13,0,.42.42,0,0,1,.12.28v.25h.25v-.25a.42.42,0,0,1,.12-.28.31.31,0,0,0,.13,0,.38.38,0,0,0,.36-.28.32.32,0,0,0,.14,0,.38.38,0,0,0,.38-.38.39.39,0,0,0-.1-.25A.36.36,0,0,0,51.38,29.29Zm4,0a.38.38,0,0,0-.28-.36.58.58,0,0,0,0-.14.38.38,0,0,0-.26-.35v0A.38.38,0,0,0,54.5,28a.38.38,0,0,0-.75,0,.37.37,0,0,0-.37.38v0a.37.37,0,0,0-.25.35.59.59,0,0,0,0,.14.37.37,0,0,0-.27.36.35.35,0,0,0,.09.25.38.38,0,0,0-.09.25.37.37,0,0,0,.37.38.32.32,0,0,0,.14,0,.38.38,0,0,0,.36.28.31.31,0,0,0,.13,0,.42.42,0,0,1,.12.28v.25h.25v-.25a.42.42,0,0,1,.12-.28.31.31,0,0,0,.13,0,.38.38,0,0,0,.36-.28.32.32,0,0,0,.14,0,.38.38,0,0,0,.38-.38.39.39,0,0,0-.1-.25A.36.36,0,0,0,55.38,29.29Zm4,0a.38.38,0,0,0-.28-.36.58.58,0,0,0,0-.14.38.38,0,0,0-.26-.35v0A.38.38,0,0,0,58.5,28a.38.38,0,0,0-.75,0,.37.37,0,0,0-.37.38v0a.37.37,0,0,0-.25.35.59.59,0,0,0,0,.14.37.37,0,0,0-.27.36.35.35,0,0,0,.09.25.38.38,0,0,0-.09.25.37.37,0,0,0,.37.38.32.32,0,0,0,.14,0,.38.38,0,0,0,.36.28.31.31,0,0,0,.13,0,.42.42,0,0,1,.12.28v.25h.25v-.25a.42.42,0,0,1,.12-.28.31.31,0,0,0,.13,0,.38.38,0,0,0,.36-.28.32.32,0,0,0,.14,0,.38.38,0,0,0,.38-.38.39.39,0,0,0-.1-.25A.36.36,0,0,0,59.38,29.29Zm4,0a.38.38,0,0,0-.28-.36.58.58,0,0,0,0-.14.38.38,0,0,0-.26-.35v0A.38.38,0,0,0,62.5,28a.38.38,0,0,0-.75,0,.37.37,0,0,0-.37.38v0a.37.37,0,0,0-.25.35.59.59,0,0,0,0,.14.37.37,0,0,0-.27.36.35.35,0,0,0,.09.25.38.38,0,0,0-.09.25.37.37,0,0,0,.37.38.32.32,0,0,0,.14,0,.38.38,0,0,0,.36.28.31.31,0,0,0,.13,0,.42.42,0,0,1,.12.28v.25h.25v-.25a.42.42,0,0,1,.12-.28.31.31,0,0,0,.13,0,.38.38,0,0,0,.36-.28.32.32,0,0,0,.14,0,.38.38,0,0,0,.38-.38.39.39,0,0,0-.1-.25A.36.36,0,0,0,63.38,29.29Z"/></g><g id="exotic_non_poly_grid_dense_half-3" data-name="exotic_non_poly_grid_dense_half"><rect id="bbox_64-3" data-name="bbox_64" class="cls-1" y="32" width="32" height="32"/><path id="exotic_non_grid_dense-9" data-name="exotic_non_grid_dense" class="cls-2" d="M3.28,34.87a.39.39,0,0,1,.1.25A.38.38,0,0,1,3,35.5a.32.32,0,0,1-.14,0,.38.38,0,0,1-.36.28l-.13,0a.4.4,0,0,0-.12.27v.25H2V36a.4.4,0,0,0-.12-.27l-.13,0a.38.38,0,0,1-.36-.28.32.32,0,0,1-.14,0,.37.37,0,0,1-.37-.38A.38.38,0,0,1,1,34.87a.35.35,0,0,1-.09-.25.38.38,0,0,1,.27-.36.58.58,0,0,1,0-.14.38.38,0,0,1,.26-.35v0a.37.37,0,0,1,.37-.38.38.38,0,0,1,.75,0,.38.38,0,0,1,.38.38v0a.37.37,0,0,1,.25.35.59.59,0,0,1,0,.14.38.38,0,0,1,.28.36A.36.36,0,0,1,3.28,34.87Zm4.1-.25a.38.38,0,0,0-.28-.36.58.58,0,0,0,0-.14.38.38,0,0,0-.26-.35v0a.38.38,0,0,0-.38-.38.38.38,0,0,0-.75,0,.37.37,0,0,0-.37.38v0a.38.38,0,0,0-.26.35.58.58,0,0,0,0,.14.38.38,0,0,0-.27.36.35.35,0,0,0,.09.25.38.38,0,0,0-.09.25.37.37,0,0,0,.37.38.32.32,0,0,0,.14,0,.38.38,0,0,0,.36.28l.13,0A.4.4,0,0,1,6,36v.25h.25V36a.4.4,0,0,1,.12-.27l.13,0a.38.38,0,0,0,.36-.28.32.32,0,0,0,.14,0,.38.38,0,0,0,.38-.38.39.39,0,0,0-.1-.25A.36.36,0,0,0,7.38,34.62Zm4,0a.38.38,0,0,0-.28-.36.58.58,0,0,0,0-.14.38.38,0,0,0-.26-.35v0a.38.38,0,0,0-.38-.38.38.38,0,0,0-.75,0,.37.37,0,0,0-.37.38v0a.37.37,0,0,0-.25.35.59.59,0,0,0,0,.14.38.38,0,0,0-.27.36.35.35,0,0,0,.09.25.38.38,0,0,0-.09.25.37.37,0,0,0,.37.38.32.32,0,0,0,.14,0,.38.38,0,0,0,.36.28l.13,0A.4.4,0,0,1,10,36v.25h.25V36a.4.4,0,0,1,.12-.27l.13,0a.38.38,0,0,0,.36-.28.32.32,0,0,0,.14,0,.38.38,0,0,0,.38-.38.39.39,0,0,0-.1-.25A.36.36,0,0,0,11.38,34.62Zm4,0a.38.38,0,0,0-.28-.36.58.58,0,0,0,0-.14.38.38,0,0,0-.26-.35v0a.38.38,0,0,0-.38-.38.38.38,0,0,0-.75,0,.37.37,0,0,0-.37.38v0a.37.37,0,0,0-.25.35.59.59,0,0,0,0,.14.38.38,0,0,0-.27.36.35.35,0,0,0,.09.25.38.38,0,0,0-.09.25.37.37,0,0,0,.37.38.32.32,0,0,0,.14,0,.38.38,0,0,0,.36.28l.13,0A.4.4,0,0,1,14,36v.25h.25V36a.4.4,0,0,1,.12-.27l.13,0a.38.38,0,0,0,.36-.28.32.32,0,0,0,.14,0,.38.38,0,0,0,.38-.38.39.39,0,0,0-.1-.25A.36.36,0,0,0,15.38,34.62ZM3.38,40a.38.38,0,0,0-.28-.36.68.68,0,0,0,0-.14.36.36,0,0,0-.25-.35v0a.38.38,0,0,0-.38-.37.38.38,0,1,0-.75,0,.37.37,0,0,0-.37.37v0a.37.37,0,0,0-.26.35.7.7,0,0,0,0,.14A.37.37,0,0,0,.88,40a.38.38,0,0,0,.09.25.35.35,0,0,0-.09.25.36.36,0,0,0,.37.37l.14,0a.37.37,0,0,0,.36.27l.13,0a.42.42,0,0,1,.12.27v.25h.25v-.25a.42.42,0,0,1,.12-.27l.13,0a.37.37,0,0,0,.36-.27l.14,0a.37.37,0,0,0,.38-.37.36.36,0,0,0-.1-.25A.39.39,0,0,0,3.38,40Zm4,0a.38.38,0,0,0-.28-.36.7.7,0,0,0,0-.14.37.37,0,0,0-.26-.35v0a.38.38,0,0,0-.38-.37.38.38,0,1,0-.75,0,.37.37,0,0,0-.37.37v0a.37.37,0,0,0-.26.35.7.7,0,0,0,0,.14.37.37,0,0,0-.27.36.38.38,0,0,0,.09.25.35.35,0,0,0-.09.25.36.36,0,0,0,.37.37l.14,0a.37.37,0,0,0,.36.27l.13,0a.42.42,0,0,1,.12.27v.25h.25v-.25a.42.42,0,0,1,.12-.27l.13,0a.37.37,0,0,0,.36-.27l.14,0a.37.37,0,0,0,.38-.37.36.36,0,0,0-.1-.25A.39.39,0,0,0,7.38,40Zm4,0a.38.38,0,0,0-.28-.36.7.7,0,0,0,0-.14.37.37,0,0,0-.26-.35v0a.38.38,0,0,0-.38-.37.38.38,0,1,0-.75,0,.37.37,0,0,0-.37.37v0a.36.36,0,0,0-.25.35.68.68,0,0,0,0,.14.37.37,0,0,0-.27.36.38.38,0,0,0,.09.25.35.35,0,0,0-.09.25.36.36,0,0,0,.37.37l.14,0a.37.37,0,0,0,.36.27l.13,0a.42.42,0,0,1,.12.27v.25h.25v-.25a.42.42,0,0,1,.12-.27l.13,0a.37.37,0,0,0,.36-.27l.14,0a.37.37,0,0,0,.38-.37.36.36,0,0,0-.1-.25A.39.39,0,0,0,11.38,40Zm4,0a.38.38,0,0,0-.28-.36.7.7,0,0,0,0-.14.37.37,0,0,0-.26-.35v0a.38.38,0,0,0-.38-.37.38.38,0,1,0-.75,0,.37.37,0,0,0-.37.37v0a.36.36,0,0,0-.25.35.68.68,0,0,0,0,.14.37.37,0,0,0-.27.36.38.38,0,0,0,.09.25.35.35,0,0,0-.09.25.36.36,0,0,0,.37.37l.14,0a.37.37,0,0,0,.36.27l.13,0a.42.42,0,0,1,.12.27v.25h.25v-.25a.42.42,0,0,1,.12-.27l.13,0a.37.37,0,0,0,.36-.27l.14,0a.37.37,0,0,0,.38-.37.36.36,0,0,0-.1-.25A.39.39,0,0,0,15.38,40Zm-12,5.33a.38.38,0,0,0-.28-.36.59.59,0,0,0,0-.14.37.37,0,0,0-.25-.35v0A.38.38,0,0,0,2.5,44a.38.38,0,0,0-.75,0,.37.37,0,0,0-.37.38v0a.38.38,0,0,0-.26.35.58.58,0,0,0,0,.14.37.37,0,0,0-.27.36.35.35,0,0,0,.09.25.38.38,0,0,0-.09.25.37.37,0,0,0,.37.38.32.32,0,0,0,.14,0,.38.38,0,0,0,.36.28.31.31,0,0,0,.13,0,.42.42,0,0,1,.12.28v.25h.25v-.25a.42.42,0,0,1,.12-.28.31.31,0,0,0,.13,0,.38.38,0,0,0,.36-.28.32.32,0,0,0,.14,0,.38.38,0,0,0,.38-.38.39.39,0,0,0-.1-.25A.36.36,0,0,0,3.38,45.29Zm4,0a.38.38,0,0,0-.28-.36.58.58,0,0,0,0-.14.38.38,0,0,0-.26-.35v0A.38.38,0,0,0,6.5,44a.38.38,0,0,0-.75,0,.37.37,0,0,0-.37.38v0a.38.38,0,0,0-.26.35.58.58,0,0,0,0,.14.37.37,0,0,0-.27.36.35.35,0,0,0,.09.25.38.38,0,0,0-.09.25.37.37,0,0,0,.37.38.32.32,0,0,0,.14,0,.38.38,0,0,0,.36.28.31.31,0,0,0,.13,0,.42.42,0,0,1,.12.28v.25h.25v-.25a.42.42,0,0,1,.12-.28.31.31,0,0,0,.13,0,.38.38,0,0,0,.36-.28.32.32,0,0,0,.14,0,.38.38,0,0,0,.38-.38.39.39,0,0,0-.1-.25A.36.36,0,0,0,7.38,45.29Zm4,0a.38.38,0,0,0-.28-.36.58.58,0,0,0,0-.14.38.38,0,0,0-.26-.35v0A.38.38,0,0,0,10.5,44a.38.38,0,0,0-.75,0,.37.37,0,0,0-.37.38v0a.37.37,0,0,0-.25.35.59.59,0,0,0,0,.14.37.37,0,0,0-.27.36.35.35,0,0,0,.09.25.38.38,0,0,0-.09.25.37.37,0,0,0,.37.38.32.32,0,0,0,.14,0,.38.38,0,0,0,.36.28.31.31,0,0,0,.13,0,.42.42,0,0,1,.12.28v.25h.25v-.25a.42.42,0,0,1,.12-.28.31.31,0,0,0,.13,0,.38.38,0,0,0,.36-.28.32.32,0,0,0,.14,0,.38.38,0,0,0,.38-.38.39.39,0,0,0-.1-.25A.36.36,0,0,0,11.38,45.29Zm4,0a.38.38,0,0,0-.28-.36.58.58,0,0,0,0-.14.38.38,0,0,0-.26-.35v0A.38.38,0,0,0,14.5,44a.38.38,0,0,0-.75,0,.37.37,0,0,0-.37.38v0a.37.37,0,0,0-.25.35.59.59,0,0,0,0,.14.37.37,0,0,0-.27.36.35.35,0,0,0,.09.25.38.38,0,0,0-.09.25.37.37,0,0,0,.37.38.32.32,0,0,0,.14,0,.38.38,0,0,0,.36.28.31.31,0,0,0,.13,0,.42.42,0,0,1,.12.28v.25h.25v-.25a.42.42,0,0,1,.12-.28.31.31,0,0,0,.13,0,.38.38,0,0,0,.36-.28.32.32,0,0,0,.14,0,.38.38,0,0,0,.38-.38.39.39,0,0,0-.1-.25A.36.36,0,0,0,15.38,45.29Z"/><path id="exotic_non_grid_dense-10" data-name="exotic_non_grid_dense" class="cls-2" d="M3.28,50.87a.39.39,0,0,1,.1.25A.38.38,0,0,1,3,51.5a.32.32,0,0,1-.14,0,.38.38,0,0,1-.36.28l-.13,0a.4.4,0,0,0-.12.27v.25H2V52a.4.4,0,0,0-.12-.27l-.13,0a.38.38,0,0,1-.36-.28.32.32,0,0,1-.14,0,.37.37,0,0,1-.37-.38A.38.38,0,0,1,1,50.87a.35.35,0,0,1-.09-.25.38.38,0,0,1,.27-.36.58.58,0,0,1,0-.14.38.38,0,0,1,.26-.35v0a.37.37,0,0,1,.37-.38.38.38,0,0,1,.75,0,.38.38,0,0,1,.38.38v0a.37.37,0,0,1,.25.35.59.59,0,0,1,0,.14.38.38,0,0,1,.28.36A.36.36,0,0,1,3.28,50.87Zm4.1-.25a.38.38,0,0,0-.28-.36.58.58,0,0,0,0-.14.38.38,0,0,0-.26-.35v0a.38.38,0,0,0-.38-.38.38.38,0,0,0-.75,0,.37.37,0,0,0-.37.38v0a.38.38,0,0,0-.26.35.58.58,0,0,0,0,.14.38.38,0,0,0-.27.36.35.35,0,0,0,.09.25.38.38,0,0,0-.09.25.37.37,0,0,0,.37.38.32.32,0,0,0,.14,0,.38.38,0,0,0,.36.28l.13,0A.4.4,0,0,1,6,52v.25h.25V52a.4.4,0,0,1,.12-.27l.13,0a.38.38,0,0,0,.36-.28.32.32,0,0,0,.14,0,.38.38,0,0,0,.38-.38.39.39,0,0,0-.1-.25A.36.36,0,0,0,7.38,50.62Zm4,0a.38.38,0,0,0-.28-.36.58.58,0,0,0,0-.14.38.38,0,0,0-.26-.35v0a.38.38,0,0,0-.38-.38.38.38,0,0,0-.75,0,.37.37,0,0,0-.37.38v0a.37.37,0,0,0-.25.35.59.59,0,0,0,0,.14.37.37,0,0,0-.27.36.35.35,0,0,0,.09.25.38.38,0,0,0-.09.25.37.37,0,0,0,.37.38.32.32,0,0,0,.14,0,.38.38,0,0,0,.36.28l.13,0A.4.4,0,0,1,10,52v.25h.25V52a.4.4,0,0,1,.12-.27l.13,0a.38.38,0,0,0,.36-.28.32.32,0,0,0,.14,0,.38.38,0,0,0,.38-.38.39.39,0,0,0-.1-.25A.36.36,0,0,0,11.38,50.62Zm4,0a.38.38,0,0,0-.28-.36.58.58,0,0,0,0-.14.38.38,0,0,0-.26-.35v0a.38.38,0,0,0-.38-.38.38.38,0,0,0-.75,0,.37.37,0,0,0-.37.38v0a.37.37,0,0,0-.25.35.59.59,0,0,0,0,.14.37.37,0,0,0-.27.36.35.35,0,0,0,.09.25.38.38,0,0,0-.09.25.37.37,0,0,0,.37.38.32.32,0,0,0,.14,0,.38.38,0,0,0,.36.28l.13,0A.4.4,0,0,1,14,52v.25h.25V52a.4.4,0,0,1,.12-.27l.13,0a.38.38,0,0,0,.36-.28.32.32,0,0,0,.14,0,.38.38,0,0,0,.38-.38.39.39,0,0,0-.1-.25A.36.36,0,0,0,15.38,50.62ZM3.38,56a.38.38,0,0,0-.28-.36.68.68,0,0,0,0-.14.36.36,0,0,0-.25-.35v0a.38.38,0,0,0-.38-.37.38.38,0,1,0-.75,0,.37.37,0,0,0-.37.37v0a.37.37,0,0,0-.26.35.7.7,0,0,0,0,.14A.37.37,0,0,0,.88,56a.38.38,0,0,0,.09.25.35.35,0,0,0-.09.25.36.36,0,0,0,.37.37l.14,0a.37.37,0,0,0,.36.27l.13,0a.42.42,0,0,1,.12.27v.25h.25v-.25a.42.42,0,0,1,.12-.27l.13,0a.37.37,0,0,0,.36-.27l.14,0a.37.37,0,0,0,.38-.37.36.36,0,0,0-.1-.25A.39.39,0,0,0,3.38,56Zm4,0a.38.38,0,0,0-.28-.36.7.7,0,0,0,0-.14.37.37,0,0,0-.26-.35v0a.38.38,0,0,0-.38-.37.38.38,0,1,0-.75,0,.37.37,0,0,0-.37.37v0a.37.37,0,0,0-.26.35.7.7,0,0,0,0,.14.37.37,0,0,0-.27.36.38.38,0,0,0,.09.25.35.35,0,0,0-.09.25.36.36,0,0,0,.37.37l.14,0a.37.37,0,0,0,.36.27l.13,0a.42.42,0,0,1,.12.27v.25h.25v-.25a.42.42,0,0,1,.12-.27l.13,0a.37.37,0,0,0,.36-.27l.14,0a.37.37,0,0,0,.38-.37.36.36,0,0,0-.1-.25A.39.39,0,0,0,7.38,56Zm4,0a.38.38,0,0,0-.28-.36.7.7,0,0,0,0-.14.37.37,0,0,0-.26-.35v0a.38.38,0,0,0-.38-.37.38.38,0,1,0-.75,0,.37.37,0,0,0-.37.37v0a.36.36,0,0,0-.25.35.68.68,0,0,0,0,.14.37.37,0,0,0-.27.36.38.38,0,0,0,.09.25.35.35,0,0,0-.09.25.36.36,0,0,0,.37.37l.14,0a.37.37,0,0,0,.36.27l.13,0a.42.42,0,0,1,.12.27v.25h.25v-.25a.42.42,0,0,1,.12-.27l.13,0a.37.37,0,0,0,.36-.27l.14,0a.37.37,0,0,0,.38-.37.36.36,0,0,0-.1-.25A.39.39,0,0,0,11.38,56Zm4,0a.38.38,0,0,0-.28-.36.7.7,0,0,0,0-.14.37.37,0,0,0-.26-.35v0a.38.38,0,0,0-.38-.37.38.38,0,1,0-.75,0,.37.37,0,0,0-.37.37v0a.36.36,0,0,0-.25.35.68.68,0,0,0,0,.14.37.37,0,0,0-.27.36.38.38,0,0,0,.09.25.35.35,0,0,0-.09.25.36.36,0,0,0,.37.37l.14,0a.37.37,0,0,0,.36.27l.13,0a.42.42,0,0,1,.12.27v.25h.25v-.25a.42.42,0,0,1,.12-.27l.13,0a.37.37,0,0,0,.36-.27l.14,0a.37.37,0,0,0,.38-.37.36.36,0,0,0-.1-.25A.39.39,0,0,0,15.38,56Zm-12,5.33a.38.38,0,0,0-.28-.36.59.59,0,0,0,0-.14.37.37,0,0,0-.25-.35v0A.38.38,0,0,0,2.5,60a.38.38,0,0,0-.75,0,.37.37,0,0,0-.37.38v0a.38.38,0,0,0-.26.35.58.58,0,0,0,0,.14.37.37,0,0,0-.27.36.35.35,0,0,0,.09.25.38.38,0,0,0-.09.25.37.37,0,0,0,.37.38.32.32,0,0,0,.14,0,.38.38,0,0,0,.36.28.31.31,0,0,0,.13,0,.42.42,0,0,1,.12.28v.25h.25v-.25a.42.42,0,0,1,.12-.28.31.31,0,0,0,.13,0,.38.38,0,0,0,.36-.28.32.32,0,0,0,.14,0,.38.38,0,0,0,.38-.38.39.39,0,0,0-.1-.25A.36.36,0,0,0,3.38,61.29Zm4,0a.38.38,0,0,0-.28-.36.58.58,0,0,0,0-.14.38.38,0,0,0-.26-.35v0A.38.38,0,0,0,6.5,60a.38.38,0,0,0-.75,0,.37.37,0,0,0-.37.38v0a.38.38,0,0,0-.26.35.58.58,0,0,0,0,.14.37.37,0,0,0-.27.36.35.35,0,0,0,.09.25.38.38,0,0,0-.09.25.37.37,0,0,0,.37.38.32.32,0,0,0,.14,0,.38.38,0,0,0,.36.28.31.31,0,0,0,.13,0,.42.42,0,0,1,.12.28v.25h.25v-.25a.42.42,0,0,1,.12-.28.31.31,0,0,0,.13,0,.38.38,0,0,0,.36-.28.32.32,0,0,0,.14,0,.38.38,0,0,0,.38-.38.39.39,0,0,0-.1-.25A.36.36,0,0,0,7.38,61.29Zm4,0a.38.38,0,0,0-.28-.36.58.58,0,0,0,0-.14.38.38,0,0,0-.26-.35v0A.38.38,0,0,0,10.5,60a.38.38,0,0,0-.75,0,.37.37,0,0,0-.37.38v0a.37.37,0,0,0-.25.35.59.59,0,0,0,0,.14.37.37,0,0,0-.27.36.35.35,0,0,0,.09.25.38.38,0,0,0-.09.25.37.37,0,0,0,.37.38.32.32,0,0,0,.14,0,.38.38,0,0,0,.36.28.31.31,0,0,0,.13,0,.42.42,0,0,1,.12.28v.25h.25v-.25a.42.42,0,0,1,.12-.28.31.31,0,0,0,.13,0,.38.38,0,0,0,.36-.28.32.32,0,0,0,.14,0,.38.38,0,0,0,.38-.38.39.39,0,0,0-.1-.25A.36.36,0,0,0,11.38,61.29Zm4,0a.38.38,0,0,0-.28-.36.58.58,0,0,0,0-.14.38.38,0,0,0-.26-.35v0A.38.38,0,0,0,14.5,60a.38.38,0,0,0-.75,0,.37.37,0,0,0-.37.38v0a.37.37,0,0,0-.25.35.59.59,0,0,0,0,.14.37.37,0,0,0-.27.36.35.35,0,0,0,.09.25.38.38,0,0,0-.09.25.37.37,0,0,0,.37.38.32.32,0,0,0,.14,0,.38.38,0,0,0,.36.28.31.31,0,0,0,.13,0,.42.42,0,0,1,.12.28v.25h.25v-.25a.42.42,0,0,1,.12-.28.31.31,0,0,0,.13,0,.38.38,0,0,0,.36-.28.32.32,0,0,0,.14,0,.38.38,0,0,0,.38-.38.39.39,0,0,0-.1-.25A.36.36,0,0,0,15.38,61.29Z"/><path id="exotic_non_grid_dense-11" data-name="exotic_non_grid_dense" class="cls-2" d="M19.28,34.87a.39.39,0,0,1,.1.25.38.38,0,0,1-.38.38.32.32,0,0,1-.14,0,.38.38,0,0,1-.36.28l-.13,0a.4.4,0,0,0-.12.27v.25H18V36a.4.4,0,0,0-.12-.27l-.13,0a.38.38,0,0,1-.36-.28.32.32,0,0,1-.14,0,.37.37,0,0,1-.37-.38.38.38,0,0,1,.09-.25.35.35,0,0,1-.09-.25.38.38,0,0,1,.27-.36.59.59,0,0,1,0-.14.37.37,0,0,1,.25-.35v0a.37.37,0,0,1,.37-.38.38.38,0,0,1,.75,0,.38.38,0,0,1,.38.38v0a.38.38,0,0,1,.26.35.58.58,0,0,1,0,.14.38.38,0,0,1,.28.36A.36.36,0,0,1,19.28,34.87Zm4.1-.25a.38.38,0,0,0-.28-.36.58.58,0,0,0,0-.14.38.38,0,0,0-.26-.35v0a.38.38,0,0,0-.38-.38.38.38,0,0,0-.75,0,.37.37,0,0,0-.37.38v0a.37.37,0,0,0-.25.35.59.59,0,0,0,0,.14.38.38,0,0,0-.27.36.35.35,0,0,0,.09.25.38.38,0,0,0-.09.25.37.37,0,0,0,.37.38.32.32,0,0,0,.14,0,.38.38,0,0,0,.36.28l.13,0A.4.4,0,0,1,22,36v.25h.25V36a.4.4,0,0,1,.12-.27l.13,0a.38.38,0,0,0,.36-.28.32.32,0,0,0,.14,0,.38.38,0,0,0,.38-.38.39.39,0,0,0-.1-.25A.36.36,0,0,0,23.38,34.62Zm4,0a.38.38,0,0,0-.28-.36.58.58,0,0,0,0-.14.38.38,0,0,0-.26-.35v0a.38.38,0,0,0-.38-.38.38.38,0,0,0-.75,0,.37.37,0,0,0-.37.38v0a.37.37,0,0,0-.25.35.59.59,0,0,0,0,.14.38.38,0,0,0-.27.36.35.35,0,0,0,.09.25.38.38,0,0,0-.09.25.37.37,0,0,0,.37.38.32.32,0,0,0,.14,0,.38.38,0,0,0,.36.28l.13,0A.4.4,0,0,1,26,36v.25h.25V36a.4.4,0,0,1,.12-.27l.13,0a.38.38,0,0,0,.36-.28.32.32,0,0,0,.14,0,.38.38,0,0,0,.38-.38.39.39,0,0,0-.1-.25A.36.36,0,0,0,27.38,34.62Zm4,0a.38.38,0,0,0-.28-.36.58.58,0,0,0,0-.14.38.38,0,0,0-.26-.35v0a.38.38,0,0,0-.38-.38.38.38,0,0,0-.75,0,.37.37,0,0,0-.37.38v0a.37.37,0,0,0-.25.35.59.59,0,0,0,0,.14.38.38,0,0,0-.27.36.35.35,0,0,0,.09.25.38.38,0,0,0-.09.25.37.37,0,0,0,.37.38.32.32,0,0,0,.14,0,.38.38,0,0,0,.36.28l.13,0A.4.4,0,0,1,30,36v.25h.25V36a.4.4,0,0,1,.12-.27l.13,0a.38.38,0,0,0,.36-.28.32.32,0,0,0,.14,0,.38.38,0,0,0,.38-.38.39.39,0,0,0-.1-.25A.36.36,0,0,0,31.38,34.62ZM19.38,40a.38.38,0,0,0-.28-.36.7.7,0,0,0,0-.14.37.37,0,0,0-.26-.35v0a.38.38,0,0,0-.38-.37.38.38,0,1,0-.75,0,.37.37,0,0,0-.37.37v0a.36.36,0,0,0-.25.35.68.68,0,0,0,0,.14.37.37,0,0,0-.27.36.38.38,0,0,0,.09.25.35.35,0,0,0-.09.25.36.36,0,0,0,.37.37l.14,0a.37.37,0,0,0,.36.27l.13,0a.42.42,0,0,1,.12.27v.25h.25v-.25a.42.42,0,0,1,.12-.27l.13,0a.37.37,0,0,0,.36-.27l.14,0a.37.37,0,0,0,.38-.37.36.36,0,0,0-.1-.25A.39.39,0,0,0,19.38,40Zm4,0a.38.38,0,0,0-.28-.36.7.7,0,0,0,0-.14.37.37,0,0,0-.26-.35v0a.38.38,0,0,0-.38-.37.38.38,0,1,0-.75,0,.37.37,0,0,0-.37.37v0a.36.36,0,0,0-.25.35.68.68,0,0,0,0,.14.37.37,0,0,0-.27.36.38.38,0,0,0,.09.25.35.35,0,0,0-.09.25.36.36,0,0,0,.37.37l.14,0a.37.37,0,0,0,.36.27l.13,0a.42.42,0,0,1,.12.27v.25h.25v-.25a.42.42,0,0,1,.12-.27l.13,0a.37.37,0,0,0,.36-.27l.14,0a.37.37,0,0,0,.38-.37.36.36,0,0,0-.1-.25A.39.39,0,0,0,23.38,40Zm4,0a.38.38,0,0,0-.28-.36.7.7,0,0,0,0-.14.37.37,0,0,0-.26-.35v0a.38.38,0,0,0-.38-.37.38.38,0,1,0-.75,0,.37.37,0,0,0-.37.37v0a.36.36,0,0,0-.25.35.68.68,0,0,0,0,.14.37.37,0,0,0-.27.36.38.38,0,0,0,.09.25.35.35,0,0,0-.09.25.36.36,0,0,0,.37.37l.14,0a.37.37,0,0,0,.36.27l.13,0a.42.42,0,0,1,.12.27v.25h.25v-.25a.42.42,0,0,1,.12-.27l.13,0a.37.37,0,0,0,.36-.27l.14,0a.37.37,0,0,0,.38-.37.36.36,0,0,0-.1-.25A.39.39,0,0,0,27.38,40Zm4,0a.38.38,0,0,0-.28-.36.7.7,0,0,0,0-.14.37.37,0,0,0-.26-.35v0a.38.38,0,0,0-.38-.37.38.38,0,1,0-.75,0,.37.37,0,0,0-.37.37v0a.36.36,0,0,0-.25.35.68.68,0,0,0,0,.14.37.37,0,0,0-.27.36.38.38,0,0,0,.09.25.35.35,0,0,0-.09.25.36.36,0,0,0,.37.37l.14,0a.37.37,0,0,0,.36.27l.13,0a.42.42,0,0,1,.12.27v.25h.25v-.25a.42.42,0,0,1,.12-.27l.13,0a.37.37,0,0,0,.36-.27l.14,0a.37.37,0,0,0,.38-.37.36.36,0,0,0-.1-.25A.39.39,0,0,0,31.38,40Zm-12,5.33a.38.38,0,0,0-.28-.36.58.58,0,0,0,0-.14.38.38,0,0,0-.26-.35v0A.38.38,0,0,0,18.5,44a.38.38,0,0,0-.75,0,.37.37,0,0,0-.37.38v0a.37.37,0,0,0-.25.35.59.59,0,0,0,0,.14.37.37,0,0,0-.27.36.35.35,0,0,0,.09.25.38.38,0,0,0-.09.25.37.37,0,0,0,.37.38.32.32,0,0,0,.14,0,.38.38,0,0,0,.36.28.31.31,0,0,0,.13,0,.42.42,0,0,1,.12.28v.25h.25v-.25a.42.42,0,0,1,.12-.28.31.31,0,0,0,.13,0,.38.38,0,0,0,.36-.28.32.32,0,0,0,.14,0,.38.38,0,0,0,.38-.38.39.39,0,0,0-.1-.25A.36.36,0,0,0,19.38,45.29Zm4,0a.38.38,0,0,0-.28-.36.58.58,0,0,0,0-.14.38.38,0,0,0-.26-.35v0A.38.38,0,0,0,22.5,44a.38.38,0,0,0-.75,0,.37.37,0,0,0-.37.38v0a.37.37,0,0,0-.25.35.59.59,0,0,0,0,.14.37.37,0,0,0-.27.36.35.35,0,0,0,.09.25.38.38,0,0,0-.09.25.37.37,0,0,0,.37.38.32.32,0,0,0,.14,0,.38.38,0,0,0,.36.28.31.31,0,0,0,.13,0,.42.42,0,0,1,.12.28v.25h.25v-.25a.42.42,0,0,1,.12-.28.31.31,0,0,0,.13,0,.38.38,0,0,0,.36-.28.32.32,0,0,0,.14,0,.38.38,0,0,0,.38-.38.39.39,0,0,0-.1-.25A.36.36,0,0,0,23.38,45.29Zm4,0a.38.38,0,0,0-.28-.36.58.58,0,0,0,0-.14.38.38,0,0,0-.26-.35v0A.38.38,0,0,0,26.5,44a.38.38,0,0,0-.75,0,.37.37,0,0,0-.37.38v0a.37.37,0,0,0-.25.35.59.59,0,0,0,0,.14.37.37,0,0,0-.27.36.35.35,0,0,0,.09.25.38.38,0,0,0-.09.25.37.37,0,0,0,.37.38.32.32,0,0,0,.14,0,.38.38,0,0,0,.36.28.31.31,0,0,0,.13,0,.42.42,0,0,1,.12.28v.25h.25v-.25a.42.42,0,0,1,.12-.28.31.31,0,0,0,.13,0,.38.38,0,0,0,.36-.28.32.32,0,0,0,.14,0,.38.38,0,0,0,.38-.38.39.39,0,0,0-.1-.25A.36.36,0,0,0,27.38,45.29Zm4,0a.38.38,0,0,0-.28-.36.58.58,0,0,0,0-.14.38.38,0,0,0-.26-.35v0A.38.38,0,0,0,30.5,44a.38.38,0,0,0-.75,0,.37.37,0,0,0-.37.38v0a.37.37,0,0,0-.25.35.59.59,0,0,0,0,.14.37.37,0,0,0-.27.36.35.35,0,0,0,.09.25.38.38,0,0,0-.09.25.37.37,0,0,0,.37.38.32.32,0,0,0,.14,0,.38.38,0,0,0,.36.28.31.31,0,0,0,.13,0,.42.42,0,0,1,.12.28v.25h.25v-.25a.42.42,0,0,1,.12-.28.31.31,0,0,0,.13,0,.38.38,0,0,0,.36-.28.32.32,0,0,0,.14,0,.38.38,0,0,0,.38-.38.39.39,0,0,0-.1-.25A.36.36,0,0,0,31.38,45.29Z"/><path id="exotic_non_grid_dense-12" data-name="exotic_non_grid_dense" class="cls-2" d="M19.28,50.87a.39.39,0,0,1,.1.25.38.38,0,0,1-.38.38.32.32,0,0,1-.14,0,.38.38,0,0,1-.36.28l-.13,0a.4.4,0,0,0-.12.27v.25H18V52a.4.4,0,0,0-.12-.27l-.13,0a.38.38,0,0,1-.36-.28.32.32,0,0,1-.14,0,.37.37,0,0,1-.37-.38.38.38,0,0,1,.09-.25.35.35,0,0,1-.09-.25.37.37,0,0,1,.27-.36.59.59,0,0,1,0-.14.37.37,0,0,1,.25-.35v0a.37.37,0,0,1,.37-.38.38.38,0,0,1,.75,0,.38.38,0,0,1,.38.38v0a.38.38,0,0,1,.26.35.58.58,0,0,1,0,.14.38.38,0,0,1,.28.36A.36.36,0,0,1,19.28,50.87Zm4.1-.25a.38.38,0,0,0-.28-.36.58.58,0,0,0,0-.14.38.38,0,0,0-.26-.35v0a.38.38,0,0,0-.38-.38.38.38,0,0,0-.75,0,.37.37,0,0,0-.37.38v0a.37.37,0,0,0-.25.35.59.59,0,0,0,0,.14.37.37,0,0,0-.27.36.35.35,0,0,0,.09.25.38.38,0,0,0-.09.25.37.37,0,0,0,.37.38.32.32,0,0,0,.14,0,.38.38,0,0,0,.36.28l.13,0A.4.4,0,0,1,22,52v.25h.25V52a.4.4,0,0,1,.12-.27l.13,0a.38.38,0,0,0,.36-.28.32.32,0,0,0,.14,0,.38.38,0,0,0,.38-.38.39.39,0,0,0-.1-.25A.36.36,0,0,0,23.38,50.62Zm4,0a.38.38,0,0,0-.28-.36.58.58,0,0,0,0-.14.38.38,0,0,0-.26-.35v0a.38.38,0,0,0-.38-.38.38.38,0,0,0-.75,0,.37.37,0,0,0-.37.38v0a.37.37,0,0,0-.25.35.59.59,0,0,0,0,.14.37.37,0,0,0-.27.36.35.35,0,0,0,.09.25.38.38,0,0,0-.09.25.37.37,0,0,0,.37.38.32.32,0,0,0,.14,0,.38.38,0,0,0,.36.28l.13,0A.4.4,0,0,1,26,52v.25h.25V52a.4.4,0,0,1,.12-.27l.13,0a.38.38,0,0,0,.36-.28.32.32,0,0,0,.14,0,.38.38,0,0,0,.38-.38.39.39,0,0,0-.1-.25A.36.36,0,0,0,27.38,50.62Zm4,0a.38.38,0,0,0-.28-.36.58.58,0,0,0,0-.14.38.38,0,0,0-.26-.35v0a.38.38,0,0,0-.38-.38.38.38,0,0,0-.75,0,.37.37,0,0,0-.37.38v0a.37.37,0,0,0-.25.35.59.59,0,0,0,0,.14.37.37,0,0,0-.27.36.35.35,0,0,0,.09.25.38.38,0,0,0-.09.25.37.37,0,0,0,.37.38.32.32,0,0,0,.14,0,.38.38,0,0,0,.36.28l.13,0A.4.4,0,0,1,30,52v.25h.25V52a.4.4,0,0,1,.12-.27l.13,0a.38.38,0,0,0,.36-.28.32.32,0,0,0,.14,0,.38.38,0,0,0,.38-.38.39.39,0,0,0-.1-.25A.36.36,0,0,0,31.38,50.62ZM19.38,56a.38.38,0,0,0-.28-.36.7.7,0,0,0,0-.14.37.37,0,0,0-.26-.35v0a.38.38,0,0,0-.38-.37.38.38,0,1,0-.75,0,.37.37,0,0,0-.37.37v0a.36.36,0,0,0-.25.35.68.68,0,0,0,0,.14.37.37,0,0,0-.27.36.38.38,0,0,0,.09.25.35.35,0,0,0-.09.25.36.36,0,0,0,.37.37l.14,0a.37.37,0,0,0,.36.27l.13,0a.42.42,0,0,1,.12.27v.25h.25v-.25a.42.42,0,0,1,.12-.27l.13,0a.37.37,0,0,0,.36-.27l.14,0a.37.37,0,0,0,.38-.37.36.36,0,0,0-.1-.25A.39.39,0,0,0,19.38,56Zm4,0a.38.38,0,0,0-.28-.36.7.7,0,0,0,0-.14.37.37,0,0,0-.26-.35v0a.38.38,0,0,0-.38-.37.38.38,0,1,0-.75,0,.37.37,0,0,0-.37.37v0a.36.36,0,0,0-.25.35.68.68,0,0,0,0,.14.37.37,0,0,0-.27.36.38.38,0,0,0,.09.25.35.35,0,0,0-.09.25.36.36,0,0,0,.37.37l.14,0a.37.37,0,0,0,.36.27l.13,0a.42.42,0,0,1,.12.27v.25h.25v-.25a.42.42,0,0,1,.12-.27l.13,0a.37.37,0,0,0,.36-.27l.14,0a.37.37,0,0,0,.38-.37.36.36,0,0,0-.1-.25A.39.39,0,0,0,23.38,56Zm4,0a.38.38,0,0,0-.28-.36.7.7,0,0,0,0-.14.37.37,0,0,0-.26-.35v0a.38.38,0,0,0-.38-.37.38.38,0,1,0-.75,0,.37.37,0,0,0-.37.37v0a.36.36,0,0,0-.25.35.68.68,0,0,0,0,.14.37.37,0,0,0-.27.36.38.38,0,0,0,.09.25.35.35,0,0,0-.09.25.36.36,0,0,0,.37.37l.14,0a.37.37,0,0,0,.36.27l.13,0a.42.42,0,0,1,.12.27v.25h.25v-.25a.42.42,0,0,1,.12-.27l.13,0a.37.37,0,0,0,.36-.27l.14,0a.37.37,0,0,0,.38-.37.36.36,0,0,0-.1-.25A.39.39,0,0,0,27.38,56Zm4,0a.38.38,0,0,0-.28-.36.7.7,0,0,0,0-.14.37.37,0,0,0-.26-.35v0a.38.38,0,0,0-.38-.37.38.38,0,1,0-.75,0,.37.37,0,0,0-.37.37v0a.36.36,0,0,0-.25.35.68.68,0,0,0,0,.14.37.37,0,0,0-.27.36.38.38,0,0,0,.09.25.35.35,0,0,0-.09.25.36.36,0,0,0,.37.37l.14,0a.37.37,0,0,0,.36.27l.13,0a.42.42,0,0,1,.12.27v.25h.25v-.25a.42.42,0,0,1,.12-.27l.13,0a.37.37,0,0,0,.36-.27l.14,0a.37.37,0,0,0,.38-.37.36.36,0,0,0-.1-.25A.39.39,0,0,0,31.38,56Zm-12,5.33a.38.38,0,0,0-.28-.36.58.58,0,0,0,0-.14.38.38,0,0,0-.26-.35v0A.38.38,0,0,0,18.5,60a.38.38,0,0,0-.75,0,.37.37,0,0,0-.37.38v0a.37.37,0,0,0-.25.35.59.59,0,0,0,0,.14.37.37,0,0,0-.27.36.35.35,0,0,0,.09.25.38.38,0,0,0-.09.25.37.37,0,0,0,.37.38.32.32,0,0,0,.14,0,.38.38,0,0,0,.36.28.31.31,0,0,0,.13,0,.42.42,0,0,1,.12.28v.25h.25v-.25a.42.42,0,0,1,.12-.28.31.31,0,0,0,.13,0,.38.38,0,0,0,.36-.28.32.32,0,0,0,.14,0,.38.38,0,0,0,.38-.38.39.39,0,0,0-.1-.25A.36.36,0,0,0,19.38,61.29Zm4,0a.38.38,0,0,0-.28-.36.58.58,0,0,0,0-.14.38.38,0,0,0-.26-.35v0A.38.38,0,0,0,22.5,60a.38.38,0,0,0-.75,0,.37.37,0,0,0-.37.38v0a.37.37,0,0,0-.25.35.59.59,0,0,0,0,.14.37.37,0,0,0-.27.36.35.35,0,0,0,.09.25.38.38,0,0,0-.09.25.37.37,0,0,0,.37.38.32.32,0,0,0,.14,0,.38.38,0,0,0,.36.28.31.31,0,0,0,.13,0,.42.42,0,0,1,.12.28v.25h.25v-.25a.42.42,0,0,1,.12-.28.31.31,0,0,0,.13,0,.38.38,0,0,0,.36-.28.32.32,0,0,0,.14,0,.38.38,0,0,0,.38-.38.39.39,0,0,0-.1-.25A.36.36,0,0,0,23.38,61.29Zm4,0a.38.38,0,0,0-.28-.36.58.58,0,0,0,0-.14.38.38,0,0,0-.26-.35v0A.38.38,0,0,0,26.5,60a.38.38,0,0,0-.75,0,.37.37,0,0,0-.37.38v0a.37.37,0,0,0-.25.35.59.59,0,0,0,0,.14.37.37,0,0,0-.27.36.35.35,0,0,0,.09.25.38.38,0,0,0-.09.25.37.37,0,0,0,.37.38.32.32,0,0,0,.14,0,.38.38,0,0,0,.36.28.31.31,0,0,0,.13,0,.42.42,0,0,1,.12.28v.25h.25v-.25a.42.42,0,0,1,.12-.28.31.31,0,0,0,.13,0,.38.38,0,0,0,.36-.28.32.32,0,0,0,.14,0,.38.38,0,0,0,.38-.38.39.39,0,0,0-.1-.25A.36.36,0,0,0,27.38,61.29Zm4,0a.38.38,0,0,0-.28-.36.58.58,0,0,0,0-.14.38.38,0,0,0-.26-.35v0A.38.38,0,0,0,30.5,60a.38.38,0,0,0-.75,0,.37.37,0,0,0-.37.38v0a.37.37,0,0,0-.25.35.59.59,0,0,0,0,.14.37.37,0,0,0-.27.36.35.35,0,0,0,.09.25.38.38,0,0,0-.09.25.37.37,0,0,0,.37.38.32.32,0,0,0,.14,0,.38.38,0,0,0,.36.28.31.31,0,0,0,.13,0,.42.42,0,0,1,.12.28v.25h.25v-.25a.42.42,0,0,1,.12-.28.31.31,0,0,0,.13,0,.38.38,0,0,0,.36-.28.32.32,0,0,0,.14,0,.38.38,0,0,0,.38-.38.39.39,0,0,0-.1-.25A.36.36,0,0,0,31.38,61.29Z"/></g><g id="exotic_non_poly_grid_dense_half-4" data-name="exotic_non_poly_grid_dense_half"><rect id="bbox_64-4" data-name="bbox_64" class="cls-1" x="32" y="32" width="32" height="32"/><path id="exotic_non_grid_dense-13" data-name="exotic_non_grid_dense" class="cls-2" d="M35.28,34.87a.39.39,0,0,1,.1.25.38.38,0,0,1-.38.38.32.32,0,0,1-.14,0,.38.38,0,0,1-.36.28l-.13,0a.4.4,0,0,0-.12.27v.25H34V36a.4.4,0,0,0-.12-.27l-.13,0a.38.38,0,0,1-.36-.28.32.32,0,0,1-.14,0,.37.37,0,0,1-.37-.38.38.38,0,0,1,.09-.25.35.35,0,0,1-.09-.25.37.37,0,0,1,.27-.36.58.58,0,0,1,0-.14.38.38,0,0,1,.26-.35v0a.37.37,0,0,1,.37-.38.38.38,0,0,1,.75,0,.38.38,0,0,1,.38.38v0a.37.37,0,0,1,.25.35.59.59,0,0,1,0,.14.38.38,0,0,1,.28.36A.36.36,0,0,1,35.28,34.87Zm4.1-.25a.38.38,0,0,0-.28-.36.58.58,0,0,0,0-.14.38.38,0,0,0-.26-.35v0a.38.38,0,0,0-.38-.38.38.38,0,0,0-.75,0,.37.37,0,0,0-.37.38v0a.38.38,0,0,0-.26.35.58.58,0,0,0,0,.14.37.37,0,0,0-.27.36.35.35,0,0,0,.09.25.38.38,0,0,0-.09.25.37.37,0,0,0,.37.38.32.32,0,0,0,.14,0,.38.38,0,0,0,.36.28l.13,0A.4.4,0,0,1,38,36v.25h.25V36a.4.4,0,0,1,.12-.27l.13,0a.38.38,0,0,0,.36-.28.32.32,0,0,0,.14,0,.38.38,0,0,0,.38-.38.39.39,0,0,0-.1-.25A.36.36,0,0,0,39.38,34.62Zm4,0a.38.38,0,0,0-.28-.36.58.58,0,0,0,0-.14.38.38,0,0,0-.26-.35v0a.38.38,0,0,0-.38-.38.38.38,0,0,0-.75,0,.37.37,0,0,0-.37.38v0a.37.37,0,0,0-.25.35.59.59,0,0,0,0,.14.37.37,0,0,0-.27.36.35.35,0,0,0,.09.25.38.38,0,0,0-.09.25.37.37,0,0,0,.37.38.32.32,0,0,0,.14,0,.38.38,0,0,0,.36.28l.13,0A.4.4,0,0,1,42,36v.25h.25V36a.4.4,0,0,1,.12-.27l.13,0a.38.38,0,0,0,.36-.28.32.32,0,0,0,.14,0,.38.38,0,0,0,.38-.38.39.39,0,0,0-.1-.25A.36.36,0,0,0,43.38,34.62Zm4,0a.38.38,0,0,0-.28-.36.58.58,0,0,0,0-.14.38.38,0,0,0-.26-.35v0a.38.38,0,0,0-.38-.38.38.38,0,0,0-.75,0,.37.37,0,0,0-.37.38v0a.37.37,0,0,0-.25.35.59.59,0,0,0,0,.14.37.37,0,0,0-.27.36.35.35,0,0,0,.09.25.38.38,0,0,0-.09.25.37.37,0,0,0,.37.38.32.32,0,0,0,.14,0,.38.38,0,0,0,.36.28l.13,0A.4.4,0,0,1,46,36v.25h.25V36a.4.4,0,0,1,.12-.27l.13,0a.38.38,0,0,0,.36-.28.32.32,0,0,0,.14,0,.38.38,0,0,0,.38-.38.39.39,0,0,0-.1-.25A.36.36,0,0,0,47.38,34.62ZM35.38,40a.38.38,0,0,0-.28-.36.68.68,0,0,0,0-.14.36.36,0,0,0-.25-.35v0a.38.38,0,0,0-.38-.37.38.38,0,1,0-.75,0,.37.37,0,0,0-.37.37v0a.37.37,0,0,0-.26.35.7.7,0,0,0,0,.14.37.37,0,0,0-.27.36.38.38,0,0,0,.09.25.35.35,0,0,0-.09.25.36.36,0,0,0,.37.37l.14,0a.37.37,0,0,0,.36.27l.13,0a.42.42,0,0,1,.12.27v.25h.25v-.25a.42.42,0,0,1,.12-.27l.13,0a.37.37,0,0,0,.36-.27l.14,0a.37.37,0,0,0,.38-.37.36.36,0,0,0-.1-.25A.39.39,0,0,0,35.38,40Zm4,0a.38.38,0,0,0-.28-.36.7.7,0,0,0,0-.14.37.37,0,0,0-.26-.35v0a40,40,0,0,1-.76-.75.38.38,0,0,0-.37.38.37.37,0,0,0-.37.37v0a.37.37,0,0,0-.26.35.7.7,0,0,0,0,.14.37.37,0,0,0-.27.36.38.38,0,0,0,.09.25.35.35,0,0,0-.09.25.36.36,0,0,0,.37.37l.14,0a.37.37,0,0,0,.36.27l.13,0a.42.42,0,0,1,.12.27v.25h.25v-.25a.42.42,0,0,1,.12-.27l.13,0a.37.37,0,0,0,.36-.27l.14,0a.37.37,0,0,0,.38-.37.36.36,0,0,0-.1-.25A.39.39,0,0,0,39.38,40Zm4,0a.38.38,0,0,0-.28-.36.7.7,0,0,0,0-.14.37.37,0,0,0-.26-.35v0a19.89,19.89,0,0,1-.75-.75.38.38,0,0,0-.38.38.37.37,0,0,0-.37.37v0a.36.36,0,0,0-.25.35.68.68,0,0,0,0,.14.37.37,0,0,0-.27.36.38.38,0,0,0,.09.25.35.35,0,0,0-.09.25.36.36,0,0,0,.37.37l.14,0a.37.37,0,0,0,.36.27l.13,0a.42.42,0,0,1,.12.27v.25h.25v-.25a.42.42,0,0,1,.12-.27l.13,0a.37.37,0,0,0,.36-.27l.14,0a.37.37,0,0,0,.38-.37.36.36,0,0,0-.1-.25A.39.39,0,0,0,43.38,40Zm4,0a.38.38,0,0,0-.28-.36.7.7,0,0,0,0-.14.37.37,0,0,0-.26-.35v0a19.89,19.89,0,0,1-.75-.75.38.38,0,0,0-.38.38.37.37,0,0,0-.37.37v0a.36.36,0,0,0-.25.35.68.68,0,0,0,0,.14.37.37,0,0,0-.27.36.38.38,0,0,0,.09.25.35.35,0,0,0-.09.25.36.36,0,0,0,.37.37l.14,0a.37.37,0,0,0,.36.27l.13,0a.42.42,0,0,1,.12.27v.25h.25v-.25a.42.42,0,0,1,.12-.27l.13,0a.37.37,0,0,0,.36-.27l.14,0a.37.37,0,0,0,.38-.37.36.36,0,0,0-.1-.25A.39.39,0,0,0,47.38,40Zm-12,5.33a.38.38,0,0,0-.28-.36.59.59,0,0,0,0-.14.37.37,0,0,0-.25-.35v0A.38.38,0,0,0,34.5,44a.38.38,0,0,0-.75,0,.37.37,0,0,0-.37.38v0a.38.38,0,0,0-.26.35.58.58,0,0,0,0,.14.37.37,0,0,0-.27.36.35.35,0,0,0,.09.25.38.38,0,0,0-.09.25.37.37,0,0,0,.37.38.32.32,0,0,0,.14,0,.38.38,0,0,0,.36.28.31.31,0,0,0,.13,0,.42.42,0,0,1,.12.28v.25h.25v-.25a.42.42,0,0,1,.12-.28.31.31,0,0,0,.13,0,.38.38,0,0,0,.36-.28.32.32,0,0,0,.14,0,.38.38,0,0,0,.38-.38.39.39,0,0,0-.1-.25A.36.36,0,0,0,35.38,45.29Zm4,0a.38.38,0,0,0-.28-.36.58.58,0,0,0,0-.14.38.38,0,0,0-.26-.35v0A.38.38,0,0,0,38.5,44a.83.83,0,0,0-1.12.38v0a.38.38,0,0,0-.26.35.58.58,0,0,0,0,.14.37.37,0,0,0-.27.36.35.35,0,0,0,.09.25.38.38,0,0,0-.09.25.37.37,0,0,0,.37.38.32.32,0,0,0,.14,0,.38.38,0,0,0,.36.28.31.31,0,0,0,.13,0,.42.42,0,0,1,.12.28v.25h.25v-.25a.42.42,0,0,1,.12-.28.31.31,0,0,0,.13,0,.38.38,0,0,0,.36-.28.32.32,0,0,0,.14,0,.38.38,0,0,0,.38-.38.39.39,0,0,0-.1-.25A.36.36,0,0,0,39.38,45.29Zm4,0a.38.38,0,0,0-.28-.36.58.58,0,0,0,0-.14.38.38,0,0,0-.26-.35v0A.38.38,0,0,0,42.5,44a.83.83,0,0,0-1.12.38v0a.37.37,0,0,0-.25.35.59.59,0,0,0,0,.14.37.37,0,0,0-.27.36.35.35,0,0,0,.09.25.38.38,0,0,0-.09.25.37.37,0,0,0,.37.38.32.32,0,0,0,.14,0,.38.38,0,0,0,.36.28.31.31,0,0,0,.13,0,.42.42,0,0,1,.12.28v.25h.25v-.25a.42.42,0,0,1,.12-.28.31.31,0,0,0,.13,0,.38.38,0,0,0,.36-.28.32.32,0,0,0,.14,0,.38.38,0,0,0,.38-.38.39.39,0,0,0-.1-.25A.36.36,0,0,0,43.38,45.29Zm4,0a.38.38,0,0,0-.28-.36.58.58,0,0,0,0-.14.38.38,0,0,0-.26-.35v0A.38.38,0,0,0,46.5,44a.83.83,0,0,0-1.12.38v0a.37.37,0,0,0-.25.35.59.59,0,0,0,0,.14.37.37,0,0,0-.27.36.35.35,0,0,0,.09.25.38.38,0,0,0-.09.25.37.37,0,0,0,.37.38.32.32,0,0,0,.14,0,.38.38,0,0,0,.36.28.31.31,0,0,0,.13,0,.42.42,0,0,1,.12.28v.25h.25v-.25a.42.42,0,0,1,.12-.28.31.31,0,0,0,.13,0,.38.38,0,0,0,.36-.28.32.32,0,0,0,.14,0,.38.38,0,0,0,.38-.38.39.39,0,0,0-.1-.25A.36.36,0,0,0,47.38,45.29Z"/><path id="exotic_non_grid_dense-14" data-name="exotic_non_grid_dense" class="cls-2" d="M35.28,50.87a.39.39,0,0,1,.1.25.38.38,0,0,1-.38.38.32.32,0,0,1-.14,0,.38.38,0,0,1-.36.28l-.13,0a.4.4,0,0,0-.12.27v.25H34V52a.4.4,0,0,0-.12-.27l-.13,0a.38.38,0,0,1-.36-.28.32.32,0,0,1-.14,0,.37.37,0,0,1-.37-.38.38.38,0,0,1,.09-.25.35.35,0,0,1-.09-.25.37.37,0,0,1,.27-.36.58.58,0,0,1,0-.14.38.38,0,0,1,.26-.35v0a.37.37,0,0,1,.37-.38.38.38,0,0,1,.75,0,.38.38,0,0,1,.38.38v0a.37.37,0,0,1,.25.35.59.59,0,0,1,0,.14.38.38,0,0,1,.28.36A.36.36,0,0,1,35.28,50.87Zm4.1-.25a.38.38,0,0,0-.28-.36.58.58,0,0,0,0-.14.38.38,0,0,0-.26-.35v0a40,40,0,0,0-.76-.75.38.38,0,0,0-.37.37.37.37,0,0,0-.37.38v0a.38.38,0,0,0-.26.35.58.58,0,0,0,0,.14.37.37,0,0,0-.27.36.35.35,0,0,0,.09.25.38.38,0,0,0-.09.25.37.37,0,0,0,.37.38.32.32,0,0,0,.14,0,.38.38,0,0,0,.36.28l.13,0A.4.4,0,0,1,38,52v.25h.25V52a.4.4,0,0,1,.12-.27l.13,0a.38.38,0,0,0,.36-.28.32.32,0,0,0,.14,0,.38.38,0,0,0,.38-.38.39.39,0,0,0-.1-.25A.36.36,0,0,0,39.38,50.62Zm4,0a.38.38,0,0,0-.28-.36.58.58,0,0,0,0-.14.38.38,0,0,0-.26-.35v0a.38.38,0,0,0-.38-.38.38.38,0,0,0-.75,0,.37.37,0,0,0-.37.38v0a.37.37,0,0,0-.25.35.59.59,0,0,0,0,.14.37.37,0,0,0-.27.36.35.35,0,0,0,.09.25.38.38,0,0,0-.09.25.37.37,0,0,0,.37.38.32.32,0,0,0,.14,0,.38.38,0,0,0,.36.28l.13,0A.4.4,0,0,1,42,52v.25h.25V52a.4.4,0,0,1,.12-.27l.13,0a.38.38,0,0,0,.36-.28.32.32,0,0,0,.14,0,.38.38,0,0,0,.38-.38.39.39,0,0,0-.1-.25A.36.36,0,0,0,43.38,50.62Zm4,0a.38.38,0,0,0-.28-.36.58.58,0,0,0,0-.14.38.38,0,0,0-.26-.35v0a.38.38,0,0,0-.38-.38.38.38,0,0,0-.75,0,.37.37,0,0,0-.37.38v0a.37.37,0,0,0-.25.35.59.59,0,0,0,0,.14.37.37,0,0,0-.27.36.35.35,0,0,0,.09.25.38.38,0,0,0-.09.25.37.37,0,0,0,.37.38.32.32,0,0,0,.14,0,.38.38,0,0,0,.36.28l.13,0A.4.4,0,0,1,46,52v.25h.25V52a.4.4,0,0,1,.12-.27l.13,0a.38.38,0,0,0,.36-.28.32.32,0,0,0,.14,0,.38.38,0,0,0,.38-.38.39.39,0,0,0-.1-.25A.36.36,0,0,0,47.38,50.62ZM35.38,56a.38.38,0,0,0-.28-.36.68.68,0,0,0,0-.14.36.36,0,0,0-.25-.35v0a.38.38,0,0,0-.38-.37.38.38,0,1,0-.75,0,.37.37,0,0,0-.37.37v0a.37.37,0,0,0-.26.35.7.7,0,0,0,0,.14.37.37,0,0,0-.27.36.38.38,0,0,0,.09.25.35.35,0,0,0-.09.25.36.36,0,0,0,.37.37l.14,0a.37.37,0,0,0,.36.27l.13,0a.42.42,0,0,1,.12.27v.25h.25v-.25a.42.42,0,0,1,.12-.27l.13,0a.37.37,0,0,0,.36-.27l.14,0a.37.37,0,0,0,.38-.37.36.36,0,0,0-.1-.25A.39.39,0,0,0,35.38,56Zm4,0a.38.38,0,0,0-.28-.36.7.7,0,0,0,0-.14.37.37,0,0,0-.26-.35v0a40,40,0,0,1-.76-.75.38.38,0,0,0-.37.38.37.37,0,0,0-.37.37v0a.37.37,0,0,0-.26.35.7.7,0,0,0,0,.14.37.37,0,0,0-.27.36.38.38,0,0,0,.09.25.35.35,0,0,0-.09.25.36.36,0,0,0,.37.37l.14,0a.37.37,0,0,0,.36.27l.13,0a.42.42,0,0,1,.12.27v.25h.25v-.25a.42.42,0,0,1,.12-.27l.13,0a.37.37,0,0,0,.36-.27l.14,0a.37.37,0,0,0,.38-.37.36.36,0,0,0-.1-.25A.39.39,0,0,0,39.38,56Zm4,0a.38.38,0,0,0-.28-.36.7.7,0,0,0,0-.14.37.37,0,0,0-.26-.35v0a19.89,19.89,0,0,1-.75-.75.38.38,0,0,0-.38.38.37.37,0,0,0-.37.37v0a.36.36,0,0,0-.25.35.68.68,0,0,0,0,.14.37.37,0,0,0-.27.36.38.38,0,0,0,.09.25.35.35,0,0,0-.09.25.36.36,0,0,0,.37.37l.14,0a.37.37,0,0,0,.36.27l.13,0a.42.42,0,0,1,.12.27v.25h.25v-.25a.42.42,0,0,1,.12-.27l.13,0a.37.37,0,0,0,.36-.27l.14,0a.37.37,0,0,0,.38-.37.36.36,0,0,0-.1-.25A.39.39,0,0,0,43.38,56Zm4,0a.38.38,0,0,0-.28-.36.7.7,0,0,0,0-.14.37.37,0,0,0-.26-.35v0a19.89,19.89,0,0,1-.75-.75.38.38,0,0,0-.38.38.37.37,0,0,0-.37.37v0a.36.36,0,0,0-.25.35.68.68,0,0,0,0,.14.37.37,0,0,0-.27.36.38.38,0,0,0,.09.25.35.35,0,0,0-.09.25.36.36,0,0,0,.37.37l.14,0a.37.37,0,0,0,.36.27l.13,0a.42.42,0,0,1,.12.27v.25h.25v-.25a.42.42,0,0,1,.12-.27l.13,0a.37.37,0,0,0,.36-.27l.14,0a.37.37,0,0,0,.38-.37.36.36,0,0,0-.1-.25A.39.39,0,0,0,47.38,56Zm-12,5.33a.38.38,0,0,0-.28-.36.59.59,0,0,0,0-.14.37.37,0,0,0-.25-.35v0A.38.38,0,0,0,34.5,60a.38.38,0,0,0-.75,0,.37.37,0,0,0-.37.38v0a.38.38,0,0,0-.26.35.58.58,0,0,0,0,.14.37.37,0,0,0-.27.36.35.35,0,0,0,.09.25.38.38,0,0,0-.09.25.37.37,0,0,0,.37.38.32.32,0,0,0,.14,0,.38.38,0,0,0,.36.28.31.31,0,0,0,.13,0,.42.42,0,0,1,.12.28v.25h.25v-.25a.42.42,0,0,1,.12-.28.31.31,0,0,0,.13,0,.38.38,0,0,0,.36-.28.32.32,0,0,0,.14,0,.38.38,0,0,0,.38-.38.39.39,0,0,0-.1-.25A.36.36,0,0,0,35.38,61.29Zm4,0a.38.38,0,0,0-.28-.36.58.58,0,0,0,0-.14.38.38,0,0,0-.26-.35v0A.38.38,0,0,0,38.5,60a.83.83,0,0,0-1.12.38v0a.38.38,0,0,0-.26.35.58.58,0,0,0,0,.14.37.37,0,0,0-.27.36.35.35,0,0,0,.09.25.38.38,0,0,0-.09.25.37.37,0,0,0,.37.38.32.32,0,0,0,.14,0,.38.38,0,0,0,.36.28.31.31,0,0,0,.13,0,.42.42,0,0,1,.12.28v.25h.25v-.25a.42.42,0,0,1,.12-.28.31.31,0,0,0,.13,0,.38.38,0,0,0,.36-.28.32.32,0,0,0,.14,0,.38.38,0,0,0,.38-.38.39.39,0,0,0-.1-.25A.36.36,0,0,0,39.38,61.29Zm4,0a.38.38,0,0,0-.28-.36.58.58,0,0,0,0-.14.38.38,0,0,0-.26-.35v0A.38.38,0,0,0,42.5,60a.83.83,0,0,0-1.12.38v0a.37.37,0,0,0-.25.35.59.59,0,0,0,0,.14.37.37,0,0,0-.27.36.35.35,0,0,0,.09.25.38.38,0,0,0-.09.25.37.37,0,0,0,.37.38.32.32,0,0,0,.14,0,.38.38,0,0,0,.36.28.31.31,0,0,0,.13,0,.42.42,0,0,1,.12.28v.25h.25v-.25a.42.42,0,0,1,.12-.28.31.31,0,0,0,.13,0,.38.38,0,0,0,.36-.28.32.32,0,0,0,.14,0,.38.38,0,0,0,.38-.38.39.39,0,0,0-.1-.25A.36.36,0,0,0,43.38,61.29Zm4,0a.38.38,0,0,0-.28-.36.58.58,0,0,0,0-.14.38.38,0,0,0-.26-.35v0A.38.38,0,0,0,46.5,60a.83.83,0,0,0-1.12.38v0a.37.37,0,0,0-.25.35.59.59,0,0,0,0,.14.37.37,0,0,0-.27.36.35.35,0,0,0,.09.25.38.38,0,0,0-.09.25.37.37,0,0,0,.37.38.32.32,0,0,0,.14,0,.38.38,0,0,0,.36.28.31.31,0,0,0,.13,0,.42.42,0,0,1,.12.28v.25h.25v-.25a.42.42,0,0,1,.12-.28.31.31,0,0,0,.13,0,.38.38,0,0,0,.36-.28.32.32,0,0,0,.14,0,.38.38,0,0,0,.38-.38.39.39,0,0,0-.1-.25A.36.36,0,0,0,47.38,61.29Z"/><path id="exotic_non_grid_dense-15" data-name="exotic_non_grid_dense" class="cls-2" d="M51.28,34.87a.39.39,0,0,1,.1.25.38.38,0,0,1-.38.38.32.32,0,0,1-.14,0,.38.38,0,0,1-.36.28l-.13,0a.4.4,0,0,0-.12.27v.25H50V36a.4.4,0,0,0-.12-.27l-.13,0a.38.38,0,0,1-.36-.28.32.32,0,0,1-.14,0,.37.37,0,0,1-.37-.38.38.38,0,0,1,.09-.25.35.35,0,0,1-.09-.25.37.37,0,0,1,.27-.36.59.59,0,0,1,0-.14.37.37,0,0,1,.25-.35v0a.37.37,0,0,1,.37-.38.38.38,0,0,1,.75,0,.38.38,0,0,1,.38.38v0a.38.38,0,0,1,.26.35.58.58,0,0,1,0,.14.38.38,0,0,1,.28.36A.36.36,0,0,1,51.28,34.87Zm4.1-.25a.38.38,0,0,0-.28-.36.58.58,0,0,0,0-.14.38.38,0,0,0-.26-.35v0a.38.38,0,0,0-.38-.38.38.38,0,0,0-.75,0,.37.37,0,0,0-.37.38v0a.37.37,0,0,0-.25.35.59.59,0,0,0,0,.14.37.37,0,0,0-.27.36.35.35,0,0,0,.09.25.38.38,0,0,0-.09.25.37.37,0,0,0,.37.38.32.32,0,0,0,.14,0,.38.38,0,0,0,.36.28l.13,0A.4.4,0,0,1,54,36v.25h.25V36a.4.4,0,0,1,.12-.27l.13,0a.38.38,0,0,0,.36-.28.32.32,0,0,0,.14,0,.38.38,0,0,0,.38-.38.39.39,0,0,0-.1-.25A.36.36,0,0,0,55.38,34.62Zm4,0a.38.38,0,0,0-.28-.36.58.58,0,0,0,0-.14.38.38,0,0,0-.26-.35v0a.38.38,0,0,0-.38-.38.38.38,0,0,0-.75,0,.37.37,0,0,0-.37.38v0a.37.37,0,0,0-.25.35.59.59,0,0,0,0,.14.37.37,0,0,0-.27.36.35.35,0,0,0,.09.25.38.38,0,0,0-.09.25.37.37,0,0,0,.37.38.32.32,0,0,0,.14,0,.38.38,0,0,0,.36.28l.13,0A.4.4,0,0,1,58,36v.25h.25V36a.4.4,0,0,1,.12-.27l.13,0a.38.38,0,0,0,.36-.28.32.32,0,0,0,.14,0,.38.38,0,0,0,.38-.38.39.39,0,0,0-.1-.25A.36.36,0,0,0,59.38,34.62Zm4,0a.38.38,0,0,0-.28-.36.58.58,0,0,0,0-.14.38.38,0,0,0-.26-.35v0a.38.38,0,0,0-.38-.38.38.38,0,0,0-.75,0,.37.37,0,0,0-.37.38v0a.37.37,0,0,0-.25.35.59.59,0,0,0,0,.14.37.37,0,0,0-.27.36.35.35,0,0,0,.09.25.38.38,0,0,0-.09.25.37.37,0,0,0,.37.38.32.32,0,0,0,.14,0,.38.38,0,0,0,.36.28l.13,0A.4.4,0,0,1,62,36v.25h.25V36a.4.4,0,0,1,.12-.27l.13,0a.38.38,0,0,0,.36-.28.32.32,0,0,0,.14,0,.38.38,0,0,0,.38-.38.39.39,0,0,0-.1-.25A.36.36,0,0,0,63.38,34.62ZM51.38,40a.38.38,0,0,0-.28-.36.7.7,0,0,0,0-.14.37.37,0,0,0-.26-.35v0a19.89,19.89,0,0,1-.75-.75.38.38,0,0,0-.38.38.37.37,0,0,0-.37.37v0a.36.36,0,0,0-.25.35.68.68,0,0,0,0,.14.37.37,0,0,0-.27.36.38.38,0,0,0,.09.25.35.35,0,0,0-.09.25.36.36,0,0,0,.37.37l.14,0a.37.37,0,0,0,.36.27l.13,0a.42.42,0,0,1,.12.27v.25h.25v-.25a.42.42,0,0,1,.12-.27l.13,0a.37.37,0,0,0,.36-.27l.14,0a.37.37,0,0,0,.38-.37.36.36,0,0,0-.1-.25A.39.39,0,0,0,51.38,40Zm4,0a.38.38,0,0,0-.28-.36.7.7,0,0,0,0-.14.37.37,0,0,0-.26-.35v0a19.89,19.89,0,0,1-.75-.75.38.38,0,0,0-.38.38.37.37,0,0,0-.37.37v0a.36.36,0,0,0-.25.35.68.68,0,0,0,0,.14.37.37,0,0,0-.27.36.38.38,0,0,0,.09.25.35.35,0,0,0-.09.25.36.36,0,0,0,.37.37l.14,0a.37.37,0,0,0,.36.27l.13,0a.42.42,0,0,1,.12.27v.25h.25v-.25a.42.42,0,0,1,.12-.27l.13,0a.37.37,0,0,0,.36-.27l.14,0a.37.37,0,0,0,.38-.37.36.36,0,0,0-.1-.25A.39.39,0,0,0,55.38,40Zm4,0a.38.38,0,0,0-.28-.36.7.7,0,0,0,0-.14.37.37,0,0,0-.26-.35v0a19.89,19.89,0,0,1-.75-.75.38.38,0,0,0-.38.38.37.37,0,0,0-.37.37v0a.36.36,0,0,0-.25.35.68.68,0,0,0,0,.14.37.37,0,0,0-.27.36.38.38,0,0,0,.09.25.35.35,0,0,0-.09.25.36.36,0,0,0,.37.37l.14,0a.37.37,0,0,0,.36.27l.13,0a.42.42,0,0,1,.12.27v.25h.25v-.25a.42.42,0,0,1,.12-.27l.13,0a.37.37,0,0,0,.36-.27l.14,0a.37.37,0,0,0,.38-.37.36.36,0,0,0-.1-.25A.39.39,0,0,0,59.38,40Zm4,0a.38.38,0,0,0-.28-.36.7.7,0,0,0,0-.14.37.37,0,0,0-.26-.35v0a19.89,19.89,0,0,1-.75-.75.38.38,0,0,0-.38.38.37.37,0,0,0-.37.37v0a.36.36,0,0,0-.25.35.68.68,0,0,0,0,.14.37.37,0,0,0-.27.36.38.38,0,0,0,.09.25.35.35,0,0,0-.09.25.36.36,0,0,0,.37.37l.14,0a.37.37,0,0,0,.36.27l.13,0a.42.42,0,0,1,.12.27v.25h.25v-.25a.42.42,0,0,1,.12-.27l.13,0a.37.37,0,0,0,.36-.27l.14,0a.37.37,0,0,0,.38-.37.36.36,0,0,0-.1-.25A.39.39,0,0,0,63.38,40Zm-12,5.33a.38.38,0,0,0-.28-.36.58.58,0,0,0,0-.14.38.38,0,0,0-.26-.35v0A.38.38,0,0,0,50.5,44a.83.83,0,0,0-1.12.38v0a.37.37,0,0,0-.25.35.59.59,0,0,0,0,.14.37.37,0,0,0-.27.36.35.35,0,0,0,.09.25.38.38,0,0,0-.09.25.37.37,0,0,0,.37.38.32.32,0,0,0,.14,0,.38.38,0,0,0,.36.28.31.31,0,0,0,.13,0,.42.42,0,0,1,.12.28v.25h.25v-.25a.42.42,0,0,1,.12-.28.31.31,0,0,0,.13,0,.38.38,0,0,0,.36-.28.32.32,0,0,0,.14,0,.38.38,0,0,0,.38-.38.39.39,0,0,0-.1-.25A.36.36,0,0,0,51.38,45.29Zm4,0a.38.38,0,0,0-.28-.36.58.58,0,0,0,0-.14.38.38,0,0,0-.26-.35v0A.38.38,0,0,0,54.5,44a.83.83,0,0,0-1.12.38v0a.37.37,0,0,0-.25.35.59.59,0,0,0,0,.14.37.37,0,0,0-.27.36.35.35,0,0,0,.09.25.38.38,0,0,0-.09.25.37.37,0,0,0,.37.38.32.32,0,0,0,.14,0,.38.38,0,0,0,.36.28.31.31,0,0,0,.13,0,.42.42,0,0,1,.12.28v.25h.25v-.25a.42.42,0,0,1,.12-.28.31.31,0,0,0,.13,0,.38.38,0,0,0,.36-.28.32.32,0,0,0,.14,0,.38.38,0,0,0,.38-.38.39.39,0,0,0-.1-.25A.36.36,0,0,0,55.38,45.29Zm4,0a.38.38,0,0,0-.28-.36.58.58,0,0,0,0-.14.38.38,0,0,0-.26-.35v0A.38.38,0,0,0,58.5,44a.83.83,0,0,0-1.12.38v0a.37.37,0,0,0-.25.35.59.59,0,0,0,0,.14.37.37,0,0,0-.27.36.35.35,0,0,0,.09.25.38.38,0,0,0-.09.25.37.37,0,0,0,.37.38.32.32,0,0,0,.14,0,.38.38,0,0,0,.36.28.31.31,0,0,0,.13,0,.42.42,0,0,1,.12.28v.25h.25v-.25a.42.42,0,0,1,.12-.28.31.31,0,0,0,.13,0,.38.38,0,0,0,.36-.28.32.32,0,0,0,.14,0,.38.38,0,0,0,.38-.38.39.39,0,0,0-.1-.25A.36.36,0,0,0,59.38,45.29Zm4,0a.38.38,0,0,0-.28-.36.58.58,0,0,0,0-.14.38.38,0,0,0-.26-.35v0A.38.38,0,0,0,62.5,44a.83.83,0,0,0-1.12.38v0a.37.37,0,0,0-.25.35.59.59,0,0,0,0,.14.37.37,0,0,0-.27.36.35.35,0,0,0,.09.25.38.38,0,0,0-.09.25.37.37,0,0,0,.37.38.32.32,0,0,0,.14,0,.38.38,0,0,0,.36.28.31.31,0,0,0,.13,0,.42.42,0,0,1,.12.28v.25h.25v-.25a.42.42,0,0,1,.12-.28.31.31,0,0,0,.13,0,.38.38,0,0,0,.36-.28.32.32,0,0,0,.14,0,.38.38,0,0,0,.38-.38.39.39,0,0,0-.1-.25A.36.36,0,0,0,63.38,45.29Z"/><path id="exotic_non_grid_dense-16" data-name="exotic_non_grid_dense" class="cls-2" d="M51.28,50.87a.39.39,0,0,1,.1.25.38.38,0,0,1-.38.38.32.32,0,0,1-.14,0,.38.38,0,0,1-.36.28l-.13,0a.4.4,0,0,0-.12.27v.25H50V52a.4.4,0,0,0-.12-.27l-.13,0a.38.38,0,0,1-.36-.28.32.32,0,0,1-.14,0,.37.37,0,0,1-.37-.38.38.38,0,0,1,.09-.25.35.35,0,0,1-.09-.25.37.37,0,0,1,.27-.36.59.59,0,0,1,0-.14.37.37,0,0,1,.25-.35v0a.37.37,0,0,1,.37-.38.84.84,0,0,1,1.13.38v0a.38.38,0,0,1,.26.35.58.58,0,0,1,0,.14.38.38,0,0,1,.28.36A.36.36,0,0,1,51.28,50.87Zm4.1-.25a.38.38,0,0,0-.28-.36.58.58,0,0,0,0-.14.38.38,0,0,0-.26-.35v0a.38.38,0,0,0-.38-.38.38.38,0,0,0-.75,0,.37.37,0,0,0-.37.38v0a.37.37,0,0,0-.25.35.59.59,0,0,0,0,.14.37.37,0,0,0-.27.36.35.35,0,0,0,.09.25.38.38,0,0,0-.09.25.37.37,0,0,0,.37.38.32.32,0,0,0,.14,0,.38.38,0,0,0,.36.28l.13,0A.4.4,0,0,1,54,52v.25h.25V52a.4.4,0,0,1,.12-.27l.13,0a.38.38,0,0,0,.36-.28.32.32,0,0,0,.14,0,.38.38,0,0,0,.38-.38.39.39,0,0,0-.1-.25A.36.36,0,0,0,55.38,50.62Zm4,0a.38.38,0,0,0-.28-.36.58.58,0,0,0,0-.14.38.38,0,0,0-.26-.35v0a.38.38,0,0,0-.38-.38.38.38,0,0,0-.75,0,.37.37,0,0,0-.37.38v0a.37.37,0,0,0-.25.35.59.59,0,0,0,0,.14.37.37,0,0,0-.27.36.35.35,0,0,0,.09.25.38.38,0,0,0-.09.25.37.37,0,0,0,.37.38.32.32,0,0,0,.14,0,.38.38,0,0,0,.36.28l.13,0A.4.4,0,0,1,58,52v.25h.25V52a.4.4,0,0,1,.12-.27l.13,0a.38.38,0,0,0,.36-.28.32.32,0,0,0,.14,0,.38.38,0,0,0,.38-.38.39.39,0,0,0-.1-.25A.36.36,0,0,0,59.38,50.62Zm4,0a.38.38,0,0,0-.28-.36.58.58,0,0,0,0-.14.38.38,0,0,0-.26-.35v0a.38.38,0,0,0-.38-.38.38.38,0,0,0-.75,0,.37.37,0,0,0-.37.38v0a.37.37,0,0,0-.25.35.59.59,0,0,0,0,.14.37.37,0,0,0-.27.36.35.35,0,0,0,.09.25.38.38,0,0,0-.09.25.37.37,0,0,0,.37.38.32.32,0,0,0,.14,0,.38.38,0,0,0,.36.28l.13,0A.4.4,0,0,1,62,52v.25h.25V52a.4.4,0,0,1,.12-.27l.13,0a.38.38,0,0,0,.36-.28.32.32,0,0,0,.14,0,.38.38,0,0,0,.38-.38.39.39,0,0,0-.1-.25A.36.36,0,0,0,63.38,50.62ZM51.38,56a.38.38,0,0,0-.28-.36.7.7,0,0,0,0-.14.37.37,0,0,0-.26-.35v0a19.89,19.89,0,0,1-.75-.75.38.38,0,0,0-.38.38.37.37,0,0,0-.37.37v0a.36.36,0,0,0-.25.35.68.68,0,0,0,0,.14.37.37,0,0,0-.27.36.38.38,0,0,0,.09.25.35.35,0,0,0-.09.25.36.36,0,0,0,.37.37l.14,0a.37.37,0,0,0,.36.27l.13,0a.42.42,0,0,1,.12.27v.25h.25v-.25a.42.42,0,0,1,.12-.27l.13,0a.37.37,0,0,0,.36-.27l.14,0a.37.37,0,0,0,.38-.37.36.36,0,0,0-.1-.25A.39.39,0,0,0,51.38,56Zm4,0a.38.38,0,0,0-.28-.36.7.7,0,0,0,0-.14.37.37,0,0,0-.26-.35v0a19.89,19.89,0,0,1-.75-.75.38.38,0,0,0-.38.38.37.37,0,0,0-.37.37v0a.36.36,0,0,0-.25.35.68.68,0,0,0,0,.14.37.37,0,0,0-.27.36.38.38,0,0,0,.09.25.35.35,0,0,0-.09.25.36.36,0,0,0,.37.37l.14,0a.37.37,0,0,0,.36.27l.13,0a.42.42,0,0,1,.12.27v.25h.25v-.25a.42.42,0,0,1,.12-.27l.13,0a.37.37,0,0,0,.36-.27l.14,0a.37.37,0,0,0,.38-.37.36.36,0,0,0-.1-.25A.39.39,0,0,0,55.38,56Zm4,0a.38.38,0,0,0-.28-.36.7.7,0,0,0,0-.14.37.37,0,0,0-.26-.35v0a19.89,19.89,0,0,1-.75-.75.38.38,0,0,0-.38.38.37.37,0,0,0-.37.37v0a.36.36,0,0,0-.25.35.68.68,0,0,0,0,.14.37.37,0,0,0-.27.36.38.38,0,0,0,.09.25.35.35,0,0,0-.09.25.36.36,0,0,0,.37.37l.14,0a.37.37,0,0,0,.36.27l.13,0a.42.42,0,0,1,.12.27v.25h.25v-.25a.42.42,0,0,1,.12-.27l.13,0a.37.37,0,0,0,.36-.27l.14,0a.37.37,0,0,0,.38-.37.36.36,0,0,0-.1-.25A.39.39,0,0,0,59.38,56Zm4,0a.38.38,0,0,0-.28-.36.7.7,0,0,0,0-.14.37.37,0,0,0-.26-.35v0a19.89,19.89,0,0,1-.75-.75.38.38,0,0,0-.38.38.37.37,0,0,0-.37.37v0a.36.36,0,0,0-.25.35.68.68,0,0,0,0,.14.37.37,0,0,0-.27.36.38.38,0,0,0,.09.25.35.35,0,0,0-.09.25.36.36,0,0,0,.37.37l.14,0a.37.37,0,0,0,.36.27l.13,0a.42.42,0,0,1,.12.27v.25h.25v-.25a.42.42,0,0,1,.12-.27l.13,0a.37.37,0,0,0,.36-.27l.14,0a.37.37,0,0,0,.38-.37.36.36,0,0,0-.1-.25A.39.39,0,0,0,63.38,56Zm-12,5.33a.38.38,0,0,0-.28-.36.58.58,0,0,0,0-.14.38.38,0,0,0-.26-.35v0A.38.38,0,0,0,50.5,60a.83.83,0,0,0-1.12.38v0a.37.37,0,0,0-.25.35.59.59,0,0,0,0,.14.37.37,0,0,0-.27.36.35.35,0,0,0,.09.25.38.38,0,0,0-.09.25.37.37,0,0,0,.37.38.32.32,0,0,0,.14,0,.38.38,0,0,0,.36.28.31.31,0,0,0,.13,0,.42.42,0,0,1,.12.28v.25h.25v-.25a.42.42,0,0,1,.12-.28.31.31,0,0,0,.13,0,.38.38,0,0,0,.36-.28.32.32,0,0,0,.14,0,.38.38,0,0,0,.38-.38.39.39,0,0,0-.1-.25A.36.36,0,0,0,51.38,61.29Zm4,0a.38.38,0,0,0-.28-.36.58.58,0,0,0,0-.14.38.38,0,0,0-.26-.35v0A.38.38,0,0,0,54.5,60a.83.83,0,0,0-1.12.38v0a.37.37,0,0,0-.25.35.59.59,0,0,0,0,.14.37.37,0,0,0-.27.36.35.35,0,0,0,.09.25.38.38,0,0,0-.09.25.37.37,0,0,0,.37.38.32.32,0,0,0,.14,0,.38.38,0,0,0,.36.28.31.31,0,0,0,.13,0,.42.42,0,0,1,.12.28v.25h.25v-.25a.42.42,0,0,1,.12-.28.31.31,0,0,0,.13,0,.38.38,0,0,0,.36-.28.32.32,0,0,0,.14,0,.38.38,0,0,0,.38-.38.39.39,0,0,0-.1-.25A.36.36,0,0,0,55.38,61.29Zm4,0a.38.38,0,0,0-.28-.36.58.58,0,0,0,0-.14.38.38,0,0,0-.26-.35v0A.38.38,0,0,0,58.5,60a.83.83,0,0,0-1.12.38v0a.37.37,0,0,0-.25.35.59.59,0,0,0,0,.14.37.37,0,0,0-.27.36.35.35,0,0,0,.09.25.38.38,0,0,0-.09.25.37.37,0,0,0,.37.38.32.32,0,0,0,.14,0,.38.38,0,0,0,.36.28.31.31,0,0,0,.13,0,.42.42,0,0,1,.12.28v.25h.25v-.25a.42.42,0,0,1,.12-.28.31.31,0,0,0,.13,0,.38.38,0,0,0,.36-.28.32.32,0,0,0,.14,0,.38.38,0,0,0,.38-.38.39.39,0,0,0-.1-.25A.36.36,0,0,0,59.38,61.29Zm4,0a.38.38,0,0,0-.28-.36.58.58,0,0,0,0-.14.38.38,0,0,0-.26-.35v0A.38.38,0,0,0,62.5,60a.83.83,0,0,0-1.12.38v0a.37.37,0,0,0-.25.35.59.59,0,0,0,0,.14.37.37,0,0,0-.27.36.35.35,0,0,0,.09.25.38.38,0,0,0-.09.25.37.37,0,0,0,.37.38.32.32,0,0,0,.14,0,.38.38,0,0,0,.36.28.31.31,0,0,0,.13,0,.42.42,0,0,1,.12.28v.25h.25v-.25a.42.42,0,0,1,.12-.28.31.31,0,0,0,.13,0,.38.38,0,0,0,.36-.28.32.32,0,0,0,.14,0,.38.38,0,0,0,.38-.38.39.39,0,0,0-.1-.25A.36.36,0,0,0,63.38,61.29Z"/></g></svg>