<svg id="Sprites" xmlns="http://www.w3.org/2000/svg" viewBox="0 0 64 64"><defs><style>.cls-1{fill:#236035;}</style></defs><path id="exotic_poly_non_random_dense" class="cls-1" d="M4.11,9.5A1.49,1.49,0,0,1,3,12a1.47,1.47,0,0,1-.56-.11A1.49,1.49,0,0,1,1,13a1.71,1.71,0,0,1-.51-.09A1.58,1.58,0,0,0,0,14V2.09A1.5,1.5,0,0,1,1,3.5,1.5,1.5,0,0,1,2.5,5s0,.06,0,.09a1.49,1.49,0,0,1,.9,2A1.49,1.49,0,0,1,4.11,9.5ZM20,15a1.49,1.49,0,0,0-1.11-1.44,1.49,1.49,0,0,0-.9-2s0-.06,0-.09A1.5,1.5,0,0,0,16.5,10a1.5,1.5,0,0,0-3,0A1.5,1.5,0,0,0,12,11.5s0,.06,0,.09a1.49,1.49,0,0,0-.9,2A1.49,1.49,0,0,0,10.39,16a1.49,1.49,0,0,0,1.11,2.5,1.47,1.47,0,0,0,.56-.11A1.49,1.49,0,0,0,13.5,19.5a1.71,1.71,0,0,0,.51-.09,1.58,1.58,0,0,1,.49,1.09v1h1v-1A1.58,1.58,0,0,1,16,19.41a1.71,1.71,0,0,0,.51.09,1.49,1.49,0,0,0,1.44-1.11,1.47,1.47,0,0,0,.56.11A1.49,1.49,0,0,0,19.61,16,1.49,1.49,0,0,0,20,15Zm30,5a1.49,1.49,0,0,0-1.11-1.44,1.49,1.49,0,0,0-.9-2s0-.06,0-.09A1.5,1.5,0,0,0,46.5,15a1.5,1.5,0,0,0-3,0A1.5,1.5,0,0,0,42,16.5s0,.06,0,.09a1.49,1.49,0,0,0-.9,2A1.49,1.49,0,0,0,40.39,21a1.49,1.49,0,0,0,1.11,2.5,1.47,1.47,0,0,0,.56-.11A1.49,1.49,0,0,0,43.5,24.5a1.71,1.71,0,0,0,.51-.09,1.58,1.58,0,0,1,.49,1.09v1h1v-1A1.58,1.58,0,0,1,46,24.41a1.71,1.71,0,0,0,.51.09,1.49,1.49,0,0,0,1.44-1.11,1.47,1.47,0,0,0,.56.11A1.49,1.49,0,0,0,49.61,21,1.49,1.49,0,0,0,50,20ZM29,40a1.49,1.49,0,0,0-1.11-1.44,1.49,1.49,0,0,0-.9-2s0-.06,0-.09A1.5,1.5,0,0,0,25.5,35a1.5,1.5,0,0,0-3,0A1.5,1.5,0,0,0,21,36.5s0,.06,0,.09a1.49,1.49,0,0,0-.9,2A1.49,1.49,0,0,0,19.39,41a1.49,1.49,0,0,0,1.11,2.5,1.47,1.47,0,0,0,.56-.11A1.49,1.49,0,0,0,22.5,44.5a1.71,1.71,0,0,0,.51-.09,1.58,1.58,0,0,1,.49,1.09v1h1v-1A1.58,1.58,0,0,1,25,44.41a1.71,1.71,0,0,0,.51.09,1.49,1.49,0,0,0,1.44-1.11,1.47,1.47,0,0,0,.56.11A1.49,1.49,0,0,0,28.61,41,1.49,1.49,0,0,0,29,40ZM55,50a1.49,1.49,0,0,0-1.11-1.44,1.49,1.49,0,0,0-.9-2s0-.06,0-.09A1.5,1.5,0,0,0,51.5,45a1.5,1.5,0,0,0-3,0A1.5,1.5,0,0,0,47,46.5s0,.06,0,.09a1.49,1.49,0,0,0-.9,2A1.49,1.49,0,0,0,45.39,51a1.49,1.49,0,0,0,1.11,2.5,1.47,1.47,0,0,0,.56-.11A1.49,1.49,0,0,0,48.5,54.5a1.71,1.71,0,0,0,.51-.09,1.58,1.58,0,0,1,.49,1.09v1h1v-1A1.58,1.58,0,0,1,51,54.41a1.71,1.71,0,0,0,.51.09,1.49,1.49,0,0,0,1.44-1.11,1.47,1.47,0,0,0,.56.11A1.49,1.49,0,0,0,54.61,51,1.49,1.49,0,0,0,55,50ZM63.5,2A1.5,1.5,0,0,0,62,3.5,1.5,1.5,0,0,0,60.5,5s0,.06,0,.09a1.49,1.49,0,0,0-.9,2,1.49,1.49,0,0,0-.72,2.44A1.49,1.49,0,0,0,60,12a1.47,1.47,0,0,0,.56-.11A1.49,1.49,0,0,0,62,13a1.71,1.71,0,0,0,.51-.09A1.58,1.58,0,0,1,63,14v1h1V2.09A1.39,1.39,0,0,0,63.5,2Zm-50,52a1.49,1.49,0,0,0-1.11-1.44,1.49,1.49,0,0,0-.9-2s0-.06,0-.09A1.5,1.5,0,0,0,10,49a1.5,1.5,0,0,0-3,0,1.5,1.5,0,0,0-1.5,1.5s0,.06,0,.09a1.49,1.49,0,0,0-.9,2A1.49,1.49,0,0,0,3.89,55,1.49,1.49,0,0,0,5,57.5a1.47,1.47,0,0,0,.56-.11A1.49,1.49,0,0,0,7,58.5a1.71,1.71,0,0,0,.51-.09A1.58,1.58,0,0,1,8,59.5v1H9v-1a1.58,1.58,0,0,1,.49-1.09,1.71,1.71,0,0,0,.51.09,1.49,1.49,0,0,0,1.44-1.11,1.47,1.47,0,0,0,.56.11A1.49,1.49,0,0,0,13.11,55,1.49,1.49,0,0,0,13.5,54ZM64,32.7a1.5,1.5,0,0,0-1.11-1.45A1.46,1.46,0,0,0,63,30.7a1.5,1.5,0,0,0-1-1.42s0-.05,0-.08a1.5,1.5,0,0,0-1.5-1.5,1.5,1.5,0,0,0-3,0A1.5,1.5,0,0,0,56,29.2s0,.05,0,.08a1.5,1.5,0,0,0-1,1.42,1.46,1.46,0,0,0,.11.55,1.49,1.49,0,0,0-.72,2.45,1.47,1.47,0,0,0-.39,1,1.5,1.5,0,0,0,1.5,1.5,1.47,1.47,0,0,0,.56-.11A1.5,1.5,0,0,0,57.5,37.2a1.45,1.45,0,0,0,.51-.1,1.62,1.62,0,0,1,.49,1.1v1h1v-1A1.62,1.62,0,0,1,60,37.1a1.45,1.45,0,0,0,.51.1,1.5,1.5,0,0,0,1.44-1.11,1.47,1.47,0,0,0,.56.11A1.5,1.5,0,0,0,64,34.7a1.47,1.47,0,0,0-.39-1A1.51,1.51,0,0,0,64,32.7ZM38.11.5a1.59,1.59,0,0,0,.3-.5H28.59a1.59,1.59,0,0,0,.3.5A1.49,1.49,0,0,0,30,3a1.47,1.47,0,0,0,.56-.11A1.49,1.49,0,0,0,32,4a1.71,1.71,0,0,0,.51-.09A1.58,1.58,0,0,1,33,5V6h1V5a1.58,1.58,0,0,1,.49-1.09A1.71,1.71,0,0,0,35,4a1.49,1.49,0,0,0,1.44-1.11A1.47,1.47,0,0,0,37,3,1.49,1.49,0,0,0,38.11.5Zm-.72,61.56a1.49,1.49,0,0,0-.9-2s0-.06,0-.09A1.5,1.5,0,0,0,35,58.5a1.5,1.5,0,0,0-3,0A1.5,1.5,0,0,0,30.5,60s0,.06,0,.09a1.49,1.49,0,0,0-.9,2A1.49,1.49,0,0,0,28.5,63.5a1.39,1.39,0,0,0,.09.5h9.82a1.39,1.39,0,0,0,.09-.5A1.49,1.49,0,0,0,37.39,62.06Z"/></svg>