<svg id="Sprites" xmlns="http://www.w3.org/2000/svg" viewBox="0 0 64 64"><defs><style>.cls-1{fill:none;}.cls-2{fill:#236035;}</style></defs><g id="exotic_non_poly_grid_sparse_half"><rect id="bbox_64" class="cls-1" width="64" height="64"/><path id="exotic_non_grid_sparse" class="cls-2" d="M6.56,8.25a.74.74,0,0,1,.19.5A.76.76,0,0,1,6,9.5a.87.87,0,0,1-.28-.05A.75.75,0,0,1,5,10,.7.7,0,0,1,4.75,10a.78.78,0,0,0-.25.55V11H4v-.5A.78.78,0,0,0,3.75,10,.7.7,0,0,1,3.5,10a.75.75,0,0,1-.72-.55.87.87,0,0,1-.28.05.76.76,0,0,1-.75-.75.74.74,0,0,1,.19-.5.74.74,0,0,1-.19-.5A.75.75,0,0,1,2.3,7a.87.87,0,0,1,0-.28A.76.76,0,0,1,2.75,6V6a.76.76,0,0,1,.75-.75.75.75,0,0,1,1.5,0A.76.76,0,0,1,5.75,6V6a.76.76,0,0,1,.5.71A.87.87,0,0,1,6.2,7a.75.75,0,0,1,.55.72A.74.74,0,0,1,6.56,8.25Zm10.86-.5A.75.75,0,0,0,16.86,7a.67.67,0,0,0,.06-.28A.75.75,0,0,0,16.41,6s0,0,0,0a.76.76,0,0,0-.75-.75.75.75,0,0,0-1.5,0,.75.75,0,0,0-.75.75V6a.76.76,0,0,0-.5.71A.87.87,0,0,0,13,7a.75.75,0,0,0-.36,1.22.74.74,0,0,0-.19.5.75.75,0,0,0,.75.75.87.87,0,0,0,.28-.05.74.74,0,0,0,.72.55.7.7,0,0,0,.25-.05.78.78,0,0,1,.25.55V11h.5v-.5a.82.82,0,0,1,.24-.55.75.75,0,0,0,.26.05.76.76,0,0,0,.72-.55.82.82,0,0,0,.28.05.76.76,0,0,0,.75-.75.75.75,0,0,0-.2-.5A.75.75,0,0,0,17.42,7.75Zm10.66,0A.74.74,0,0,0,27.53,7a.87.87,0,0,0,0-.28.76.76,0,0,0-.5-.71V6a.75.75,0,0,0-.75-.75.75.75,0,0,0-1.5,0,.76.76,0,0,0-.75.75s0,0,0,0a.75.75,0,0,0-.51.71.67.67,0,0,0,.06.28.74.74,0,0,0-.36,1.22.75.75,0,0,0-.2.5.76.76,0,0,0,.75.75.82.82,0,0,0,.28-.05.76.76,0,0,0,.72.55.75.75,0,0,0,.26-.05.82.82,0,0,1,.24.55V11h.5v-.5a.78.78,0,0,1,.25-.55.7.7,0,0,0,.25.05.74.74,0,0,0,.72-.55.87.87,0,0,0,.28.05.75.75,0,0,0,.75-.75.74.74,0,0,0-.19-.5A.74.74,0,0,0,28.08,7.75Zm-21.33,16A.75.75,0,0,0,6.2,23a.87.87,0,0,0,0-.28.76.76,0,0,0-.5-.71v0A.76.76,0,0,0,5,21.25a.75.75,0,0,0-1.5,0,.76.76,0,0,0-.75.75v0a.76.76,0,0,0-.5.71.87.87,0,0,0,0,.28.75.75,0,0,0-.55.72.74.74,0,0,0,.19.5.74.74,0,0,0-.19.5.76.76,0,0,0,.75.75.87.87,0,0,0,.28-.05A.75.75,0,0,0,3.5,26,.7.7,0,0,0,3.75,26,.78.78,0,0,1,4,26.5V27h.5v-.5A.78.78,0,0,1,4.75,26,.7.7,0,0,0,5,26a.75.75,0,0,0,.72-.55A.87.87,0,0,0,6,25.5a.76.76,0,0,0,.75-.75.74.74,0,0,0-.19-.5A.74.74,0,0,0,6.75,23.75Zm10.67,0a.75.75,0,0,0-.56-.72.67.67,0,0,0,.06-.28.75.75,0,0,0-.51-.71s0,0,0,0a.76.76,0,0,0-.75-.75.75.75,0,0,0-1.5,0,.75.75,0,0,0-.75.75v0a.76.76,0,0,0-.5.71A.87.87,0,0,0,13,23a.75.75,0,0,0-.36,1.22.74.74,0,0,0-.19.5.75.75,0,0,0,.75.75.87.87,0,0,0,.28-.05.74.74,0,0,0,.72.55.7.7,0,0,0,.25-.05.78.78,0,0,1,.25.55V27h.5v-.5a.82.82,0,0,1,.24-.55.75.75,0,0,0,.26.05.76.76,0,0,0,.72-.55.82.82,0,0,0,.28.05.76.76,0,0,0,.75-.75.75.75,0,0,0-.2-.5A.75.75,0,0,0,17.42,23.75Zm10.66,0a.74.74,0,0,0-.55-.72.87.87,0,0,0,0-.28.76.76,0,0,0-.5-.71v0a.75.75,0,0,0-.75-.75.75.75,0,0,0-1.5,0,.76.76,0,0,0-.75.75s0,0,0,0a.75.75,0,0,0-.51.71.67.67,0,0,0,.06.28.74.74,0,0,0-.36,1.22.75.75,0,0,0-.2.5.76.76,0,0,0,.75.75.82.82,0,0,0,.28-.05.76.76,0,0,0,.72.55.75.75,0,0,0,.26-.05.82.82,0,0,1,.24.55V27h.5v-.5a.78.78,0,0,1,.25-.55.7.7,0,0,0,.25.05.74.74,0,0,0,.72-.55.87.87,0,0,0,.28.05.75.75,0,0,0,.75-.75.74.74,0,0,0-.19-.5A.74.74,0,0,0,28.08,23.75Z"/><path id="exotic_non_grid_sparse-2" data-name="exotic_non_grid_sparse" class="cls-2" d="M6.56,40.25a.74.74,0,0,1,.19.5A.76.76,0,0,1,6,41.5a.87.87,0,0,1-.28,0A.75.75,0,0,1,5,42a.7.7,0,0,1-.25,0,.78.78,0,0,0-.25.55V43H4v-.5A.78.78,0,0,0,3.75,42a.7.7,0,0,1-.25,0,.75.75,0,0,1-.72-.55.87.87,0,0,1-.28,0,.76.76,0,0,1-.75-.75.74.74,0,0,1,.19-.5.74.74,0,0,1-.19-.5A.75.75,0,0,1,2.3,39a.87.87,0,0,1,0-.28.76.76,0,0,1,.5-.71v0a.76.76,0,0,1,.75-.75.75.75,0,0,1,1.5,0,.76.76,0,0,1,.75.75v0a.76.76,0,0,1,.5.71.87.87,0,0,1,0,.28.75.75,0,0,1,.55.72A.74.74,0,0,1,6.56,40.25Zm10.86-.5a.75.75,0,0,0-.56-.72.67.67,0,0,0,.06-.28.75.75,0,0,0-.51-.71s0,0,0,0a.76.76,0,0,0-.75-.75.75.75,0,0,0-1.5,0,.75.75,0,0,0-.75.75v0a.76.76,0,0,0-.5.71A.87.87,0,0,0,13,39a.75.75,0,0,0-.36,1.22.74.74,0,0,0-.19.5.75.75,0,0,0,.75.75.87.87,0,0,0,.28,0,.74.74,0,0,0,.72.55.7.7,0,0,0,.25,0,.78.78,0,0,1,.25.55V43h.5v-.5a.82.82,0,0,1,.24-.55.75.75,0,0,0,.26,0,.76.76,0,0,0,.72-.55.82.82,0,0,0,.28,0,.76.76,0,0,0,.75-.75.75.75,0,0,0-.2-.5A.75.75,0,0,0,17.42,39.75Zm10.66,0a.74.74,0,0,0-.55-.72.87.87,0,0,0,0-.28.76.76,0,0,0-.5-.71v0a.75.75,0,0,0-.75-.75.75.75,0,0,0-1.5,0,.76.76,0,0,0-.75.75s0,0,0,0a.75.75,0,0,0-.51.71.67.67,0,0,0,.06.28.74.74,0,0,0-.36,1.22.75.75,0,0,0-.2.5.76.76,0,0,0,.75.75.82.82,0,0,0,.28,0,.76.76,0,0,0,.72.55.75.75,0,0,0,.26,0,.82.82,0,0,1,.24.55V43h.5v-.5a.78.78,0,0,1,.25-.55.7.7,0,0,0,.25,0,.74.74,0,0,0,.72-.55.87.87,0,0,0,.28,0,.75.75,0,0,0,.75-.75.74.74,0,0,0-.19-.5A.74.74,0,0,0,28.08,39.75Zm-21.33,16A.75.75,0,0,0,6.2,55a.87.87,0,0,0,0-.28.76.76,0,0,0-.5-.71v0A.76.76,0,0,0,5,53.25a.75.75,0,0,0-1.5,0,.76.76,0,0,0-.75.75v0a.76.76,0,0,0-.5.71.87.87,0,0,0,0,.28.75.75,0,0,0-.55.72.74.74,0,0,0,.19.5.74.74,0,0,0-.19.5.76.76,0,0,0,.75.75.87.87,0,0,0,.28,0A.75.75,0,0,0,3.5,58a.7.7,0,0,0,.25,0A.78.78,0,0,1,4,58.5V59h.5v-.5A.78.78,0,0,1,4.75,58,.7.7,0,0,0,5,58a.75.75,0,0,0,.72-.55.87.87,0,0,0,.28,0,.76.76,0,0,0,.75-.75.74.74,0,0,0-.19-.5A.74.74,0,0,0,6.75,55.75Zm10.67,0a.75.75,0,0,0-.56-.72.67.67,0,0,0,.06-.28.75.75,0,0,0-.51-.71s0,0,0,0a.76.76,0,0,0-.75-.75.75.75,0,0,0-1.5,0,.75.75,0,0,0-.75.75v0a.76.76,0,0,0-.5.71A.87.87,0,0,0,13,55a.75.75,0,0,0-.36,1.22.74.74,0,0,0-.19.5.75.75,0,0,0,.75.75.87.87,0,0,0,.28,0,.74.74,0,0,0,.72.55.7.7,0,0,0,.25,0,.78.78,0,0,1,.25.55V59h.5v-.5a.82.82,0,0,1,.24-.55.75.75,0,0,0,.26,0,.76.76,0,0,0,.72-.55.82.82,0,0,0,.28,0,.76.76,0,0,0,.75-.75.75.75,0,0,0-.2-.5A.75.75,0,0,0,17.42,55.75Zm10.66,0a.74.74,0,0,0-.55-.72.87.87,0,0,0,0-.28.76.76,0,0,0-.5-.71v0a.75.75,0,0,0-.75-.75.75.75,0,0,0-1.5,0,.76.76,0,0,0-.75.75s0,0,0,0a.75.75,0,0,0-.51.71.67.67,0,0,0,.06.28.74.74,0,0,0-.36,1.22.75.75,0,0,0-.2.5.76.76,0,0,0,.75.75.82.82,0,0,0,.28,0,.76.76,0,0,0,.72.55.75.75,0,0,0,.26,0,.82.82,0,0,1,.24.55V59h.5v-.5a.78.78,0,0,1,.25-.55.7.7,0,0,0,.25,0,.74.74,0,0,0,.72-.55.87.87,0,0,0,.28,0,.75.75,0,0,0,.75-.75.74.74,0,0,0-.19-.5A.74.74,0,0,0,28.08,55.75Z"/><path id="exotic_non_grid_sparse-3" data-name="exotic_non_grid_sparse" class="cls-2" d="M38.56,8.25a.74.74,0,0,1,.19.5A.76.76,0,0,1,38,9.5a.87.87,0,0,1-.28-.05A.75.75,0,0,1,37,10a.7.7,0,0,1-.25-.05.78.78,0,0,0-.25.55V11H36v-.5a.78.78,0,0,0-.25-.55.7.7,0,0,1-.25.05.75.75,0,0,1-.72-.55.87.87,0,0,1-.28.05.76.76,0,0,1-.75-.75.74.74,0,0,1,.19-.5.74.74,0,0,1-.19-.5A.75.75,0,0,1,34.3,7a.87.87,0,0,1,0-.28.76.76,0,0,1,.5-.71V6a.76.76,0,0,1,.75-.75.75.75,0,0,1,1.5,0,.76.76,0,0,1,.75.75V6a.76.76,0,0,1,.5.71.87.87,0,0,1,0,.28.75.75,0,0,1,.55.72A.74.74,0,0,1,38.56,8.25Zm10.86-.5A.75.75,0,0,0,48.86,7a.67.67,0,0,0,.06-.28A.75.75,0,0,0,48.41,6s0,0,0,0a.76.76,0,0,0-.75-.75.75.75,0,0,0-1.5,0,.75.75,0,0,0-.75.75V6a.76.76,0,0,0-.5.71A.87.87,0,0,0,45,7a.75.75,0,0,0-.36,1.22.74.74,0,0,0-.19.5.75.75,0,0,0,.75.75.87.87,0,0,0,.28-.05.74.74,0,0,0,.72.55.7.7,0,0,0,.25-.05.78.78,0,0,1,.25.55V11h.5v-.5a.82.82,0,0,1,.24-.55.75.75,0,0,0,.26.05.76.76,0,0,0,.72-.55.82.82,0,0,0,.28.05.76.76,0,0,0,.75-.75.75.75,0,0,0-.2-.5A.75.75,0,0,0,49.42,7.75Zm10.66,0A.74.74,0,0,0,59.53,7a.87.87,0,0,0,0-.28.76.76,0,0,0-.5-.71V6a.75.75,0,0,0-.75-.75.75.75,0,0,0-1.5,0,.76.76,0,0,0-.75.75s0,0,0,0a.75.75,0,0,0-.51.71.67.67,0,0,0,.06.28.74.74,0,0,0-.36,1.22.75.75,0,0,0-.2.5.76.76,0,0,0,.75.75.82.82,0,0,0,.28-.05.76.76,0,0,0,.72.55.75.75,0,0,0,.26-.05.82.82,0,0,1,.24.55V11h.5v-.5a.78.78,0,0,1,.25-.55.7.7,0,0,0,.25.05.74.74,0,0,0,.72-.55.87.87,0,0,0,.28.05.75.75,0,0,0,.75-.75.74.74,0,0,0-.19-.5A.74.74,0,0,0,60.08,7.75Zm-21.33,16A.75.75,0,0,0,38.2,23a.87.87,0,0,0,0-.28.76.76,0,0,0-.5-.71v0a.76.76,0,0,0-.75-.75.75.75,0,0,0-1.5,0,.76.76,0,0,0-.75.75v0a.76.76,0,0,0-.5.71.87.87,0,0,0,0,.28.75.75,0,0,0-.55.72.74.74,0,0,0,.19.5.74.74,0,0,0-.19.5.76.76,0,0,0,.75.75.87.87,0,0,0,.28-.05.75.75,0,0,0,.72.55.7.7,0,0,0,.25-.05.78.78,0,0,1,.25.55V27h.5v-.5a.78.78,0,0,1,.25-.55A.7.7,0,0,0,37,26a.75.75,0,0,0,.72-.55.87.87,0,0,0,.28.05.76.76,0,0,0,.75-.75.74.74,0,0,0-.19-.5A.74.74,0,0,0,38.75,23.75Zm10.67,0a.75.75,0,0,0-.56-.72.67.67,0,0,0,.06-.28.75.75,0,0,0-.51-.71s0,0,0,0a.76.76,0,0,0-.75-.75.75.75,0,0,0-1.5,0,.75.75,0,0,0-.75.75v0a.76.76,0,0,0-.5.71A.87.87,0,0,0,45,23a.75.75,0,0,0-.36,1.22.74.74,0,0,0-.19.5.75.75,0,0,0,.75.75.87.87,0,0,0,.28-.05.74.74,0,0,0,.72.55.7.7,0,0,0,.25-.05.78.78,0,0,1,.25.55V27h.5v-.5a.82.82,0,0,1,.24-.55.75.75,0,0,0,.26.05.76.76,0,0,0,.72-.55.82.82,0,0,0,.28.05.76.76,0,0,0,.75-.75.75.75,0,0,0-.2-.5A.75.75,0,0,0,49.42,23.75Zm10.66,0a.74.74,0,0,0-.55-.72.87.87,0,0,0,0-.28.76.76,0,0,0-.5-.71v0a.75.75,0,0,0-.75-.75.75.75,0,0,0-1.5,0,.76.76,0,0,0-.75.75s0,0,0,0a.75.75,0,0,0-.51.71.67.67,0,0,0,.06.28.74.74,0,0,0-.36,1.22.75.75,0,0,0-.2.5.76.76,0,0,0,.75.75.82.82,0,0,0,.28-.05.76.76,0,0,0,.72.55.75.75,0,0,0,.26-.05.82.82,0,0,1,.24.55V27h.5v-.5a.78.78,0,0,1,.25-.55.7.7,0,0,0,.25.05.74.74,0,0,0,.72-.55.87.87,0,0,0,.28.05.75.75,0,0,0,.75-.75.74.74,0,0,0-.19-.5A.74.74,0,0,0,60.08,23.75Z"/><path id="exotic_non_grid_sparse-4" data-name="exotic_non_grid_sparse" class="cls-2" d="M38.56,40.25a.74.74,0,0,1,.19.5.76.76,0,0,1-.75.75.87.87,0,0,1-.28,0A.75.75,0,0,1,37,42a.7.7,0,0,1-.25,0,.78.78,0,0,0-.25.55V43H36v-.5a.78.78,0,0,0-.25-.55.7.7,0,0,1-.25,0,.75.75,0,0,1-.72-.55.87.87,0,0,1-.28,0,.76.76,0,0,1-.75-.75.74.74,0,0,1,.19-.5.74.74,0,0,1-.19-.5A.75.75,0,0,1,34.3,39a.87.87,0,0,1,0-.28.76.76,0,0,1,.5-.71v0a.76.76,0,0,1,.75-.75.75.75,0,0,1,1.5,0,.76.76,0,0,1,.75.75v0a.76.76,0,0,1,.5.71.87.87,0,0,1,0,.28.75.75,0,0,1,.55.72A.74.74,0,0,1,38.56,40.25Zm10.86-.5a.75.75,0,0,0-.56-.72.67.67,0,0,0,.06-.28.75.75,0,0,0-.51-.71s0,0,0,0a.76.76,0,0,0-.75-.75.75.75,0,0,0-1.5,0,.75.75,0,0,0-.75.75v0a.76.76,0,0,0-.5.71A.87.87,0,0,0,45,39a.75.75,0,0,0-.36,1.22.74.74,0,0,0-.19.5.75.75,0,0,0,.75.75.87.87,0,0,0,.28,0,.74.74,0,0,0,.72.55.7.7,0,0,0,.25,0,.78.78,0,0,1,.25.55V43h.5v-.5a.82.82,0,0,1,.24-.55.75.75,0,0,0,.26,0,.76.76,0,0,0,.72-.55.82.82,0,0,0,.28,0,.76.76,0,0,0,.75-.75.75.75,0,0,0-.2-.5A.75.75,0,0,0,49.42,39.75Zm10.66,0a.74.74,0,0,0-.55-.72.87.87,0,0,0,0-.28.76.76,0,0,0-.5-.71v0a.75.75,0,0,0-.75-.75.75.75,0,0,0-1.5,0,.76.76,0,0,0-.75.75s0,0,0,0a.75.75,0,0,0-.51.71.67.67,0,0,0,.06.28.74.74,0,0,0-.36,1.22.75.75,0,0,0-.2.5.76.76,0,0,0,.75.75.82.82,0,0,0,.28,0,.76.76,0,0,0,.72.55.75.75,0,0,0,.26,0,.82.82,0,0,1,.24.55V43h.5v-.5a.78.78,0,0,1,.25-.55.7.7,0,0,0,.25,0,.74.74,0,0,0,.72-.55.87.87,0,0,0,.28,0,.75.75,0,0,0,.75-.75.74.74,0,0,0-.19-.5A.74.74,0,0,0,60.08,39.75Zm-21.33,16A.75.75,0,0,0,38.2,55a.87.87,0,0,0,0-.28.76.76,0,0,0-.5-.71v0a.76.76,0,0,0-.75-.75.75.75,0,0,0-1.5,0,.76.76,0,0,0-.75.75v0a.76.76,0,0,0-.5.71.87.87,0,0,0,0,.28.75.75,0,0,0-.55.72.74.74,0,0,0,.19.5.74.74,0,0,0-.19.5.76.76,0,0,0,.75.75.87.87,0,0,0,.28,0,.75.75,0,0,0,.72.55.7.7,0,0,0,.25,0,.78.78,0,0,1,.25.55V59h.5v-.5a.78.78,0,0,1,.25-.55A.7.7,0,0,0,37,58a.75.75,0,0,0,.72-.55.87.87,0,0,0,.28,0,.76.76,0,0,0,.75-.75.74.74,0,0,0-.19-.5A.74.74,0,0,0,38.75,55.75Zm10.67,0a.75.75,0,0,0-.56-.72.67.67,0,0,0,.06-.28.75.75,0,0,0-.51-.71s0,0,0,0a.76.76,0,0,0-.75-.75.75.75,0,0,0-1.5,0,.75.75,0,0,0-.75.75v0a.76.76,0,0,0-.5.71A.87.87,0,0,0,45,55a.75.75,0,0,0-.36,1.22.74.74,0,0,0-.19.5.75.75,0,0,0,.75.75.87.87,0,0,0,.28,0,.74.74,0,0,0,.72.55.7.7,0,0,0,.25,0,.78.78,0,0,1,.25.55V59h.5v-.5a.82.82,0,0,1,.24-.55.75.75,0,0,0,.26,0,.76.76,0,0,0,.72-.55.82.82,0,0,0,.28,0,.76.76,0,0,0,.75-.75.75.75,0,0,0-.2-.5A.75.75,0,0,0,49.42,55.75Zm10.66,0a.74.74,0,0,0-.55-.72.87.87,0,0,0,0-.28.76.76,0,0,0-.5-.71v0a.75.75,0,0,0-.75-.75.75.75,0,0,0-1.5,0,.76.76,0,0,0-.75.75s0,0,0,0a.75.75,0,0,0-.51.71.67.67,0,0,0,.06.28.74.74,0,0,0-.36,1.22.75.75,0,0,0-.2.5.76.76,0,0,0,.75.75.82.82,0,0,0,.28,0,.76.76,0,0,0,.72.55.75.75,0,0,0,.26,0,.82.82,0,0,1,.24.55V59h.5v-.5a.78.78,0,0,1,.25-.55.7.7,0,0,0,.25,0,.74.74,0,0,0,.72-.55.87.87,0,0,0,.28,0,.75.75,0,0,0,.75-.75.74.74,0,0,0-.19-.5A.74.74,0,0,0,60.08,55.75Z"/></g></svg>