<svg id="Sprites" xmlns="http://www.w3.org/2000/svg" viewBox="0 0 64 64"><defs><style>.cls-1{fill:#236035;}</style></defs><path id="exotic_poly_con_random_dense" class="cls-1" d="M19.45,20.47a.5.5,0,0,1-.45.27H15.5v1h-1v-1H11a.5.5,0,0,1-.45-.27.51.51,0,0,1,0-.52l2.69-3.71H12a.5.5,0,0,1-.45-.27.53.53,0,0,1,0-.53l2.4-3.2H13a.51.51,0,0,1-.44-.26.49.49,0,0,1,0-.51l2-3a.52.52,0,0,1,.84,0l2,3a.49.49,0,0,1,0,.51.51.51,0,0,1-.44.26H16l2.4,3.2a.53.53,0,0,1,.05.53.5.5,0,0,1-.45.27H16.71L19.4,20A.51.51,0,0,1,19.45,20.47ZM3.9,15.19l-2.69-3.7H2.5a.5.5,0,0,0,.4-.8L.5,7.49h1a.52.52,0,0,0,.44-.27.49.49,0,0,0,0-.51L0,3.83V16H3.5a.5.5,0,0,0,.4-.8Zm34-11L35.21.5H36.5A.51.51,0,0,0,37,.22.54.54,0,0,0,37,0H30a.54.54,0,0,0,.05.22A.51.51,0,0,0,30.5.5h1.29L29.1,4.21a.51.51,0,0,0-.05.52A.52.52,0,0,0,29.5,5H33V6h1V5h3.5A.52.52,0,0,0,38,4.73.51.51,0,0,0,37.9,4.21ZM13.4,59.69,10.71,56H12a.5.5,0,0,0,.4-.8L10,52h1a.52.52,0,0,0,.44-.27.49.49,0,0,0,0-.51l-2-3a.52.52,0,0,0-.84,0l-2,3a.49.49,0,0,0,0,.51A.52.52,0,0,0,7,52H8l-2.4,3.2A.5.5,0,0,0,6,56H7.29L4.6,59.69a.5.5,0,0,0,.4.8H8.5v1h1v-1H13a.5.5,0,0,0,.4-.8ZM63.9,35.8l-2.69-3.71H62.5a.5.5,0,0,0,.45-.27.53.53,0,0,0-.05-.53l-2.4-3.2h1a.51.51,0,0,0,.44-.26.49.49,0,0,0,0-.51l-2-3a.53.53,0,0,0-.84,0l-2,3a.49.49,0,0,0,0,.51.51.51,0,0,0,.44.26h1l-2.4,3.2a.53.53,0,0,0-.05.53.5.5,0,0,0,.45.27h1.29L55.1,35.8a.51.51,0,0,0-.05.52.5.5,0,0,0,.45.27H59v1h1v-1h3.5a.5.5,0,0,0,.45-.27A.51.51,0,0,0,63.9,35.8ZM49.4,25l-2.69-3.71H48a.5.5,0,0,0,.45-.27.53.53,0,0,0-.05-.53L46,17.24h1a.51.51,0,0,0,.44-.26.49.49,0,0,0,0-.51l-2-3a.52.52,0,0,0-.84,0l-2,3a.49.49,0,0,0,0,.51.51.51,0,0,0,.44.26h1l-2.4,3.2a.53.53,0,0,0-.05.53.5.5,0,0,0,.45.27h1.29L40.6,25a.51.51,0,0,0-.05.52.5.5,0,0,0,.45.27h3.5v1h1v-1H49a.5.5,0,0,0,.45-.27A.51.51,0,0,0,49.4,25Zm-21,20-2.69-3.71H27a.5.5,0,0,0,.45-.27.53.53,0,0,0-.05-.53L25,37.24h1a.51.51,0,0,0,.44-.26.49.49,0,0,0,0-.51l-2-3a.53.53,0,0,0-.84,0l-2,3a.49.49,0,0,0,0,.51.51.51,0,0,0,.44.26h1l-2.4,3.2a.53.53,0,0,0-.05.53.5.5,0,0,0,.45.27h1.29L19.6,45a.51.51,0,0,0-.05.52.5.5,0,0,0,.45.27h3.5v1h1v-1H28a.5.5,0,0,0,.45-.27A.51.51,0,0,0,28.4,45Zm26,10-2.69-3.71H53a.5.5,0,0,0,.45-.27.53.53,0,0,0-.05-.53L51,47.24h1a.51.51,0,0,0,.44-.26.49.49,0,0,0,0-.51l-2-3a.52.52,0,0,0-.84,0l-2,3a.49.49,0,0,0,0,.51.51.51,0,0,0,.44.26h1l-2.4,3.2a.53.53,0,0,0-.05.53.5.5,0,0,0,.45.27h1.29L45.6,55a.51.51,0,0,0-.05.52.5.5,0,0,0,.45.27h3.5v1h1v-1H54a.5.5,0,0,0,.45-.27A.51.51,0,0,0,54.4,55ZM36.9,63.7l-2.4-3.2h1a.5.5,0,0,0,.42-.78l-2-3a.54.54,0,0,0-.84,0l-2,3a.5.5,0,0,0,.42.78h1l-2.4,3.2a.49.49,0,0,0-.1.3h7A.49.49,0,0,0,36.9,63.7Zm27-60a.53.53,0,0,0-.84,0l-2,3a.49.49,0,0,0,0,.51.52.52,0,0,0,.44.27h1l-2.4,3.2a.5.5,0,0,0,.4.8h1.29l-2.69,3.7a.5.5,0,0,0,.4.8H63v1h1V3.83Z"/></svg>