<svg id="Sprites" xmlns="http://www.w3.org/2000/svg" viewBox="0 0 64 64"><defs><style>.cls-1{fill:#236035;}</style></defs><path id="exotic_pnt_con_green" class="cls-1" d="M19.45,20.47a.5.5,0,0,1-.45.27H15.5v1h-1v-1H11a.5.5,0,0,1-.45-.27.51.51,0,0,1,0-.52l2.69-3.71H12a.5.5,0,0,1-.45-.27.53.53,0,0,1,0-.53l2.4-3.2H13a.51.51,0,0,1-.44-.26.49.49,0,0,1,0-.51l2-3a.52.52,0,0,1,.84,0l2,3a.49.49,0,0,1,0,.51.51.51,0,0,1-.44.26H16l2.4,3.2a.53.53,0,0,1,.05.53.5.5,0,0,1-.45.27H16.71L19.4,20A.51.51,0,0,1,19.45,20.47Z"/><path id="exotic_pnt_con_green-2" data-name="exotic_pnt_con_green" class="cls-1" d="M49.4,25l-2.69-3.71H48a.5.5,0,0,0,.45-.27.53.53,0,0,0-.05-.53L46,17.24h1a.51.51,0,0,0,.44-.26.49.49,0,0,0,0-.51l-2-3a.52.52,0,0,0-.84,0l-2,3a.49.49,0,0,0,0,.51.51.51,0,0,0,.44.26h1l-2.4,3.2a.53.53,0,0,0-.05.53.5.5,0,0,0,.45.27h1.29L40.6,25a.51.51,0,0,0-.05.52.5.5,0,0,0,.45.27h3.5v1h1v-1H49a.5.5,0,0,0,.45-.27A.51.51,0,0,0,49.4,25Z"/><path id="exotic_pnt_con_green-3" data-name="exotic_pnt_con_green" class="cls-1" d="M28.4,45l-2.69-3.71H27a.5.5,0,0,0,.45-.27.53.53,0,0,0-.05-.53L25,37.24h1a.51.51,0,0,0,.44-.26.49.49,0,0,0,0-.51l-2-3a.53.53,0,0,0-.84,0l-2,3a.49.49,0,0,0,0,.51.51.51,0,0,0,.44.26h1l-2.4,3.2a.53.53,0,0,0-.05.53.5.5,0,0,0,.45.27h1.29L19.6,45a.51.51,0,0,0-.05.52.5.5,0,0,0,.45.27h3.5v1h1v-1H28a.5.5,0,0,0,.45-.27A.51.51,0,0,0,28.4,45Z"/><path id="exotic_pnt_con_green-4" data-name="exotic_pnt_con_green" class="cls-1" d="M54.4,55l-2.69-3.71H53a.5.5,0,0,0,.45-.27.53.53,0,0,0-.05-.53L51,47.24h1a.51.51,0,0,0,.44-.26.49.49,0,0,0,0-.51l-2-3a.52.52,0,0,0-.84,0l-2,3a.49.49,0,0,0,0,.51.51.51,0,0,0,.44.26h1l-2.4,3.2a.53.53,0,0,0-.05.53.5.5,0,0,0,.45.27h1.29L45.6,55a.51.51,0,0,0-.05.52.5.5,0,0,0,.45.27h3.5v1h1v-1H54a.5.5,0,0,0,.45-.27A.51.51,0,0,0,54.4,55Z"/></svg>