<svg id="Sprites" xmlns="http://www.w3.org/2000/svg" viewBox="0 0 64 64"><defs><style>.cls-1{fill:none;}.cls-2{fill:#236035;}</style></defs><g id="exotic_con_poly_random_dense_half"><rect id="bbox_64" class="cls-1" width="64" height="64"/><path id="exotic_con_random_dense" class="cls-2" d="M9.72,10.23a.24.24,0,0,1-.22.14H7.75v.5h-.5v-.5H5.5a.24.24,0,0,1-.22-.14.23.23,0,0,1,0-.26L6.65,8.12H6A.24.24,0,0,1,5.78,8a.23.23,0,0,1,0-.26L7,6.12H6.5A.25.25,0,0,1,6.28,6a.27.27,0,0,1,0-.26l1-1.5a.26.26,0,0,1,.42,0l1,1.5a.27.27,0,0,1,0,.26.25.25,0,0,1-.22.13H8l1.2,1.6a.23.23,0,0,1,0,.26A.24.24,0,0,1,9,8.12H8.35L9.7,10A.23.23,0,0,1,9.72,10.23ZM2,7.6.61,5.74h.64a.25.25,0,0,0,.23-.14.23.23,0,0,0,0-.25L.25,3.74h.5A.26.26,0,0,0,1,3.61a.24.24,0,0,0,0-.26L0,1.91V8H1.75A.25.25,0,0,0,2,7.85.23.23,0,0,0,2,7.6ZM19,2.1,17.61.25h.64a.25.25,0,0,0,.23-.14.43.43,0,0,0,0-.11H15a.43.43,0,0,0,0,.11.25.25,0,0,0,.23.14h.64L14.55,2.1a.25.25,0,0,0,0,.26.25.25,0,0,0,.23.14H16.5V3H17V2.5h1.75A.25.25,0,0,0,19,2.36.25.25,0,0,0,19,2.1ZM6.7,29.85,5.35,28H6a.24.24,0,0,0,.22-.14.23.23,0,0,0,0-.26L5,26h.5a.25.25,0,0,0,.22-.13.27.27,0,0,0,0-.26l-1-1.5a.27.27,0,0,0-.42,0l-1,1.5a.27.27,0,0,0,0,.26A.25.25,0,0,0,3.5,26H4l-1.2,1.6a.23.23,0,0,0,0,.26A.24.24,0,0,0,3,28h.65L2.3,29.85a.22.22,0,0,0,0,.26.25.25,0,0,0,.22.13H4.25v.5h.5v-.5H6.5a.25.25,0,0,0,.22-.13A.22.22,0,0,0,6.7,29.85ZM32,17.9,30.6,16.05h.65a.26.26,0,0,0,.22-.14.22.22,0,0,0,0-.26l-1.2-1.6h.5a.25.25,0,0,0,.22-.13.27.27,0,0,0,0-.26l-1-1.5a.26.26,0,0,0-.42,0l-1,1.5a.27.27,0,0,0,0,.26.25.25,0,0,0,.22.13h.5l-1.2,1.6a.22.22,0,0,0,0,.26.26.26,0,0,0,.22.14h.65L27.55,17.9a.23.23,0,0,0,0,.26.26.26,0,0,0,.22.14H29.5v.5H30v-.5h1.75a.26.26,0,0,0,.22-.14A.23.23,0,0,0,32,17.9ZM24.7,12.47l-1.35-1.85H24a.24.24,0,0,0,.22-.14.23.23,0,0,0,0-.26L23,8.62h.5a.25.25,0,0,0,.22-.13.27.27,0,0,0,0-.26l-1-1.5a.26.26,0,0,0-.42,0l-1,1.5a.27.27,0,0,0,0,.26.25.25,0,0,0,.22.13H22l-1.2,1.6a.23.23,0,0,0,0,.26.24.24,0,0,0,.22.14h.65L20.3,12.47a.23.23,0,0,0,0,.26.24.24,0,0,0,.22.14h1.75v.5h.5v-.5H24.5a.24.24,0,0,0,.22-.14A.23.23,0,0,0,24.7,12.47Zm-10.5,10-1.35-1.85h.65a.24.24,0,0,0,.22-.14.23.23,0,0,0,0-.26l-1.2-1.6H13a.25.25,0,0,0,.22-.13.27.27,0,0,0,0-.26l-1-1.5a.26.26,0,0,0-.42,0l-1,1.5a.27.27,0,0,0,0,.26.25.25,0,0,0,.22.13h.5l-1.2,1.6a.23.23,0,0,0,0,.26.24.24,0,0,0,.22.14h.65L9.8,22.47a.23.23,0,0,0,0,.26.24.24,0,0,0,.22.14h1.75v.5h.5v-.5H14a.24.24,0,0,0,.22-.14A.23.23,0,0,0,14.2,22.47Zm13,5-1.35-1.85h.65a.24.24,0,0,0,.22-.14.23.23,0,0,0,0-.26l-1.2-1.6H26a.25.25,0,0,0,.22-.13.27.27,0,0,0,0-.26l-1-1.5a.26.26,0,0,0-.42,0l-1,1.5a.27.27,0,0,0,0,.26.25.25,0,0,0,.22.13h.5l-1.2,1.6a.23.23,0,0,0,0,.26.24.24,0,0,0,.22.14h.65L22.8,27.47a.23.23,0,0,0,0,.26.24.24,0,0,0,.22.14h1.75v.5h.5v-.5H27a.24.24,0,0,0,.22-.14A.23.23,0,0,0,27.2,27.47Zm-8.75,4.38-1.2-1.6h.5a.26.26,0,0,0,.22-.13.24.24,0,0,0,0-.26l-1-1.5a.27.27,0,0,0-.42,0l-1,1.5a.24.24,0,0,0,0,.26.26.26,0,0,0,.22.13h.5l-1.2,1.6A.27.27,0,0,0,15,32h3.5A.27.27,0,0,0,18.45,31.85ZM32,1.85a.26.26,0,0,0-.42,0l-1,1.5a.24.24,0,0,0,0,.26.26.26,0,0,0,.22.13h.5l-1.2,1.61a.23.23,0,0,0,0,.25.25.25,0,0,0,.23.14h.64L29.55,7.6a.23.23,0,0,0,0,.25.25.25,0,0,0,.23.14H31.5v.5H32V1.91Z"/><path id="exotic_con_random_dense-2" data-name="exotic_con_random_dense" class="cls-2" d="M9.72,42.23a.24.24,0,0,1-.22.14H7.75v.5h-.5v-.5H5.5a.24.24,0,0,1-.22-.14.23.23,0,0,1,0-.26l1.35-1.85H6A.24.24,0,0,1,5.78,40a.23.23,0,0,1,0-.26L7,38.12H6.5A.25.25,0,0,1,6.28,38a.27.27,0,0,1,0-.26l1-1.5a.26.26,0,0,1,.42,0l1,1.5a.27.27,0,0,1,0,.26.25.25,0,0,1-.22.13H8l1.2,1.6a.23.23,0,0,1,0,.26.24.24,0,0,1-.22.14H8.35L9.7,42A.23.23,0,0,1,9.72,42.23ZM2,39.6.61,37.74h.64a.25.25,0,0,0,.23-.14.23.23,0,0,0,0-.25L.25,35.74h.5A.26.26,0,0,0,1,35.61a.24.24,0,0,0,0-.26L0,33.91V40H1.75A.25.25,0,0,0,2,39.85.23.23,0,0,0,2,39.6Zm17-5.5-1.34-1.85h.64a.25.25,0,0,0,.23-.14.43.43,0,0,0,0-.11H15a.43.43,0,0,0,0,.11.25.25,0,0,0,.23.14h.64L14.55,34.1a.25.25,0,0,0,0,.26.25.25,0,0,0,.23.14H16.5V35H17v-.5h1.75a.25.25,0,0,0,.23-.14A.25.25,0,0,0,19,34.1ZM6.7,61.85,5.35,60H6a.24.24,0,0,0,.22-.14.23.23,0,0,0,0-.26L5,58h.5a.25.25,0,0,0,.22-.13.27.27,0,0,0,0-.26l-1-1.5a.27.27,0,0,0-.42,0l-1,1.5a.27.27,0,0,0,0,.26A.25.25,0,0,0,3.5,58H4l-1.2,1.6a.23.23,0,0,0,0,.26A.24.24,0,0,0,3,60h.65L2.3,61.85a.22.22,0,0,0,0,.26.25.25,0,0,0,.22.13H4.25v.5h.5v-.5H6.5a.25.25,0,0,0,.22-.13A.22.22,0,0,0,6.7,61.85ZM32,49.9,30.6,48.05h.65a.26.26,0,0,0,.22-.14.22.22,0,0,0,0-.26l-1.2-1.6h.5a.25.25,0,0,0,.22-.13.27.27,0,0,0,0-.26l-1-1.5a.26.26,0,0,0-.42,0l-1,1.5a.27.27,0,0,0,0,.26.25.25,0,0,0,.22.13h.5l-1.2,1.6a.22.22,0,0,0,0,.26.26.26,0,0,0,.22.14h.65L27.55,49.9a.23.23,0,0,0,0,.26.26.26,0,0,0,.22.14H29.5v.5H30v-.5h1.75a.26.26,0,0,0,.22-.14A.23.23,0,0,0,32,49.9ZM24.7,44.47l-1.35-1.85H24a.24.24,0,0,0,.22-.14.23.23,0,0,0,0-.26L23,40.62h.5a.25.25,0,0,0,.22-.13.27.27,0,0,0,0-.26l-1-1.5a.26.26,0,0,0-.42,0l-1,1.5a.27.27,0,0,0,0,.26.25.25,0,0,0,.22.13H22l-1.2,1.6a.23.23,0,0,0,0,.26.24.24,0,0,0,.22.14h.65L20.3,44.47a.23.23,0,0,0,0,.26.24.24,0,0,0,.22.14h1.75v.5h.5v-.5H24.5a.24.24,0,0,0,.22-.14A.23.23,0,0,0,24.7,44.47Zm-10.5,10-1.35-1.85h.65a.24.24,0,0,0,.22-.14.23.23,0,0,0,0-.26l-1.2-1.6H13a.25.25,0,0,0,.22-.13.27.27,0,0,0,0-.26l-1-1.5a.26.26,0,0,0-.42,0l-1,1.5a.27.27,0,0,0,0,.26.25.25,0,0,0,.22.13h.5l-1.2,1.6a.23.23,0,0,0,0,.26.24.24,0,0,0,.22.14h.65L9.8,54.47a.23.23,0,0,0,0,.26.24.24,0,0,0,.22.14h1.75v.5h.5v-.5H14a.24.24,0,0,0,.22-.14A.23.23,0,0,0,14.2,54.47Zm13,5-1.35-1.85h.65a.24.24,0,0,0,.22-.14.23.23,0,0,0,0-.26l-1.2-1.6H26a.25.25,0,0,0,.22-.13.27.27,0,0,0,0-.26l-1-1.5a.26.26,0,0,0-.42,0l-1,1.5a.27.27,0,0,0,0,.26.25.25,0,0,0,.22.13h.5l-1.2,1.6a.23.23,0,0,0,0,.26.24.24,0,0,0,.22.14h.65L22.8,59.47a.23.23,0,0,0,0,.26.24.24,0,0,0,.22.14h1.75v.5h.5v-.5H27a.24.24,0,0,0,.22-.14A.23.23,0,0,0,27.2,59.47Zm-8.75,4.38-1.2-1.6h.5a.26.26,0,0,0,.22-.13.24.24,0,0,0,0-.26l-1-1.5a.27.27,0,0,0-.42,0l-1,1.5a.24.24,0,0,0,0,.26.26.26,0,0,0,.22.13h.5l-1.2,1.6A.27.27,0,0,0,15,64h3.5A.27.27,0,0,0,18.45,63.85ZM32,33.85a.26.26,0,0,0-.42,0l-1,1.5a.24.24,0,0,0,0,.26.26.26,0,0,0,.22.13h.5l-1.2,1.61a.23.23,0,0,0,0,.25.25.25,0,0,0,.23.14h.64L29.55,39.6a.23.23,0,0,0,0,.25.25.25,0,0,0,.23.14H31.5v.5H32V33.91Z"/><path id="exotic_con_random_dense-3" data-name="exotic_con_random_dense" class="cls-2" d="M41.72,10.23a.24.24,0,0,1-.22.14H39.75v.5h-.5v-.5H37.5a.24.24,0,0,1-.22-.14.23.23,0,0,1,0-.26l1.35-1.85H38A.24.24,0,0,1,37.78,8a.23.23,0,0,1,0-.26L39,6.12h-.5A.25.25,0,0,1,38.28,6a.27.27,0,0,1,0-.26l1-1.5a.26.26,0,0,1,.42,0l1,1.5a.27.27,0,0,1,0,.26.25.25,0,0,1-.22.13H40l1.2,1.6a.23.23,0,0,1,0,.26.24.24,0,0,1-.22.14h-.65L41.7,10A.23.23,0,0,1,41.72,10.23ZM34,7.6,32.61,5.74h.64a.25.25,0,0,0,.23-.14.23.23,0,0,0,0-.25l-1.2-1.61h.5A.26.26,0,0,0,33,3.61a.24.24,0,0,0,0-.26L32,1.91V8h1.75A.25.25,0,0,0,34,7.85.23.23,0,0,0,34,7.6ZM51,2.1,49.61.25h.64a.25.25,0,0,0,.23-.14.43.43,0,0,0,0-.11H47a.43.43,0,0,0,0,.11.25.25,0,0,0,.23.14h.64L46.55,2.1a.25.25,0,0,0,0,.26.25.25,0,0,0,.23.14H48.5V3H49V2.5h1.75A.25.25,0,0,0,51,2.36.25.25,0,0,0,51,2.1ZM38.7,29.85,37.35,28H38a.24.24,0,0,0,.22-.14.23.23,0,0,0,0-.26L37,26h.5a.25.25,0,0,0,.22-.13.27.27,0,0,0,0-.26l-1-1.5a.27.27,0,0,0-.42,0l-1,1.5a.27.27,0,0,0,0,.26.25.25,0,0,0,.22.13H36l-1.2,1.6a.23.23,0,0,0,0,.26A.24.24,0,0,0,35,28h.65L34.3,29.85a.22.22,0,0,0,0,.26.25.25,0,0,0,.22.13h1.75v.5h.5v-.5H38.5a.25.25,0,0,0,.22-.13A.22.22,0,0,0,38.7,29.85ZM64,17.9,62.6,16.05h.65a.26.26,0,0,0,.22-.14.22.22,0,0,0,0-.26l-1.2-1.6h.5a.25.25,0,0,0,.22-.13.27.27,0,0,0,0-.26l-1-1.5a.26.26,0,0,0-.42,0l-1,1.5a.27.27,0,0,0,0,.26.25.25,0,0,0,.22.13h.5l-1.2,1.6a.22.22,0,0,0,0,.26.26.26,0,0,0,.22.14h.65L59.55,17.9a.23.23,0,0,0,0,.26.26.26,0,0,0,.22.14H61.5v.5H62v-.5h1.75a.26.26,0,0,0,.22-.14A.23.23,0,0,0,64,17.9ZM56.7,12.47l-1.35-1.85H56a.24.24,0,0,0,.22-.14.23.23,0,0,0,0-.26L55,8.62h.5a.25.25,0,0,0,.22-.13.27.27,0,0,0,0-.26l-1-1.5a.26.26,0,0,0-.42,0l-1,1.5a.27.27,0,0,0,0,.26.25.25,0,0,0,.22.13H54l-1.2,1.6a.23.23,0,0,0,0,.26.24.24,0,0,0,.22.14h.65L52.3,12.47a.23.23,0,0,0,0,.26.24.24,0,0,0,.22.14h1.75v.5h.5v-.5H56.5a.24.24,0,0,0,.22-.14A.23.23,0,0,0,56.7,12.47Zm-10.5,10-1.35-1.85h.65a.24.24,0,0,0,.22-.14.23.23,0,0,0,0-.26l-1.2-1.6H45a.25.25,0,0,0,.22-.13.27.27,0,0,0,0-.26l-1-1.5a.26.26,0,0,0-.42,0l-1,1.5a.27.27,0,0,0,0,.26.25.25,0,0,0,.22.13h.5l-1.2,1.6a.23.23,0,0,0,0,.26.24.24,0,0,0,.22.14h.65L41.8,22.47a.23.23,0,0,0,0,.26.24.24,0,0,0,.22.14h1.75v.5h.5v-.5H46a.24.24,0,0,0,.22-.14A.23.23,0,0,0,46.2,22.47Zm13,5-1.35-1.85h.65a.24.24,0,0,0,.22-.14.23.23,0,0,0,0-.26l-1.2-1.6H58a.25.25,0,0,0,.22-.13.27.27,0,0,0,0-.26l-1-1.5a.26.26,0,0,0-.42,0l-1,1.5a.27.27,0,0,0,0,.26.25.25,0,0,0,.22.13h.5l-1.2,1.6a.23.23,0,0,0,0,.26.24.24,0,0,0,.22.14h.65L54.8,27.47a.23.23,0,0,0,0,.26.24.24,0,0,0,.22.14h1.75v.5h.5v-.5H59a.24.24,0,0,0,.22-.14A.23.23,0,0,0,59.2,27.47Zm-8.75,4.38-1.2-1.6h.5a.26.26,0,0,0,.22-.13.24.24,0,0,0,0-.26l-1-1.5a.27.27,0,0,0-.42,0l-1,1.5a.24.24,0,0,0,0,.26.26.26,0,0,0,.22.13h.5l-1.2,1.6A.27.27,0,0,0,47,32h3.5A.27.27,0,0,0,50.45,31.85ZM64,1.85a.26.26,0,0,0-.42,0l-1,1.5a.24.24,0,0,0,0,.26.26.26,0,0,0,.22.13h.5l-1.2,1.61a.23.23,0,0,0,0,.25.25.25,0,0,0,.23.14h.64L61.55,7.6a.23.23,0,0,0,0,.25.25.25,0,0,0,.23.14H63.5v.5H64V1.91Z"/><path id="exotic_con_random_dense-4" data-name="exotic_con_random_dense" class="cls-2" d="M41.72,42.23a.24.24,0,0,1-.22.14H39.75v.5h-.5v-.5H37.5a.24.24,0,0,1-.22-.14.23.23,0,0,1,0-.26l1.35-1.85H38a.24.24,0,0,1-.22-.14.23.23,0,0,1,0-.26l1.2-1.6h-.5a.25.25,0,0,1-.22-.13.27.27,0,0,1,0-.26l1-1.5a.26.26,0,0,1,.42,0l1,1.5a.27.27,0,0,1,0,.26.25.25,0,0,1-.22.13H40l1.2,1.6a.23.23,0,0,1,0,.26.24.24,0,0,1-.22.14h-.65L41.7,42A.23.23,0,0,1,41.72,42.23ZM34,39.6l-1.34-1.86h.64a.25.25,0,0,0,.23-.14.23.23,0,0,0,0-.25l-1.2-1.61h.5a.26.26,0,0,0,.22-.13.24.24,0,0,0,0-.26l-1-1.44V40h1.75a.25.25,0,0,0,.23-.14A.23.23,0,0,0,34,39.6Zm17-5.5-1.34-1.85h.64a.25.25,0,0,0,.23-.14.43.43,0,0,0,0-.11H47a.43.43,0,0,0,0,.11.25.25,0,0,0,.23.14h.64L46.55,34.1a.25.25,0,0,0,0,.26.25.25,0,0,0,.23.14H48.5V35H49v-.5h1.75a.25.25,0,0,0,.23-.14A.25.25,0,0,0,51,34.1ZM38.7,61.85,37.35,60H38a.24.24,0,0,0,.22-.14.23.23,0,0,0,0-.26L37,58h.5a.25.25,0,0,0,.22-.13.27.27,0,0,0,0-.26l-1-1.5a.27.27,0,0,0-.42,0l-1,1.5a.27.27,0,0,0,0,.26.25.25,0,0,0,.22.13H36l-1.2,1.6a.23.23,0,0,0,0,.26A.24.24,0,0,0,35,60h.65L34.3,61.85a.22.22,0,0,0,0,.26.25.25,0,0,0,.22.13h1.75v.5h.5v-.5H38.5a.25.25,0,0,0,.22-.13A.22.22,0,0,0,38.7,61.85ZM64,49.9,62.6,48.05h.65a.26.26,0,0,0,.22-.14.22.22,0,0,0,0-.26l-1.2-1.6h.5a.25.25,0,0,0,.22-.13.27.27,0,0,0,0-.26l-1-1.5a.26.26,0,0,0-.42,0l-1,1.5a.27.27,0,0,0,0,.26.25.25,0,0,0,.22.13h.5l-1.2,1.6a.22.22,0,0,0,0,.26.26.26,0,0,0,.22.14h.65L59.55,49.9a.23.23,0,0,0,0,.26.26.26,0,0,0,.22.14H61.5v.5H62v-.5h1.75a.26.26,0,0,0,.22-.14A.23.23,0,0,0,64,49.9ZM56.7,44.47l-1.35-1.85H56a.24.24,0,0,0,.22-.14.23.23,0,0,0,0-.26L55,40.62h.5a.25.25,0,0,0,.22-.13.27.27,0,0,0,0-.26l-1-1.5a.26.26,0,0,0-.42,0l-1,1.5a.27.27,0,0,0,0,.26.25.25,0,0,0,.22.13H54l-1.2,1.6a.23.23,0,0,0,0,.26.24.24,0,0,0,.22.14h.65L52.3,44.47a.23.23,0,0,0,0,.26.24.24,0,0,0,.22.14h1.75v.5h.5v-.5H56.5a.24.24,0,0,0,.22-.14A.23.23,0,0,0,56.7,44.47Zm-10.5,10-1.35-1.85h.65a.24.24,0,0,0,.22-.14.23.23,0,0,0,0-.26l-1.2-1.6H45a.25.25,0,0,0,.22-.13.27.27,0,0,0,0-.26l-1-1.5a.26.26,0,0,0-.42,0l-1,1.5a.27.27,0,0,0,0,.26.25.25,0,0,0,.22.13h.5l-1.2,1.6a.23.23,0,0,0,0,.26.24.24,0,0,0,.22.14h.65L41.8,54.47a.23.23,0,0,0,0,.26.24.24,0,0,0,.22.14h1.75v.5h.5v-.5H46a.24.24,0,0,0,.22-.14A.23.23,0,0,0,46.2,54.47Zm13,5-1.35-1.85h.65a.24.24,0,0,0,.22-.14.23.23,0,0,0,0-.26l-1.2-1.6H58a.25.25,0,0,0,.22-.13.27.27,0,0,0,0-.26l-1-1.5a.26.26,0,0,0-.42,0l-1,1.5a.27.27,0,0,0,0,.26.25.25,0,0,0,.22.13h.5l-1.2,1.6a.23.23,0,0,0,0,.26.24.24,0,0,0,.22.14h.65L54.8,59.47a.23.23,0,0,0,0,.26.24.24,0,0,0,.22.14h1.75v.5h.5v-.5H59a.24.24,0,0,0,.22-.14A.23.23,0,0,0,59.2,59.47Zm-8.75,4.38-1.2-1.6h.5a.26.26,0,0,0,.22-.13.24.24,0,0,0,0-.26l-1-1.5a.27.27,0,0,0-.42,0l-1,1.5a.24.24,0,0,0,0,.26.26.26,0,0,0,.22.13h.5l-1.2,1.6A.27.27,0,0,0,47,64h3.5A.27.27,0,0,0,50.45,63.85ZM64,33.85a.26.26,0,0,0-.42,0l-1,1.5a.24.24,0,0,0,0,.26.26.26,0,0,0,.22.13h.5l-1.2,1.61a.23.23,0,0,0,0,.25.25.25,0,0,0,.23.14h.64L61.55,39.6a.23.23,0,0,0,0,.25.25.25,0,0,0,.23.14H63.5v.5H64V33.91Z"/></g></svg>