<svg id="Sprites" xmlns="http://www.w3.org/2000/svg" viewBox="0 0 64 64"><defs><style>.cls-1{fill:#236035;}</style></defs><path id="exotic_poly_non_grid_dense" class="cls-1" d="M13.11,11.5A1.49,1.49,0,0,1,12,14a1.47,1.47,0,0,1-.56-.11A1.49,1.49,0,0,1,10,15a1.71,1.71,0,0,1-.51-.09A1.58,1.58,0,0,0,9,16v1H8V16a1.58,1.58,0,0,0-.49-1.09A1.71,1.71,0,0,1,7,15a1.49,1.49,0,0,1-1.44-1.11A1.47,1.47,0,0,1,5,14a1.49,1.49,0,0,1-1.11-2.5,1.49,1.49,0,0,1,.72-2.44,1.49,1.49,0,0,1,.9-2S5.5,7,5.5,7A1.5,1.5,0,0,1,7,5.5a1.5,1.5,0,0,1,3,0A1.5,1.5,0,0,1,11.5,7s0,.06,0,.09a1.49,1.49,0,0,1,.9,2,1.49,1.49,0,0,1,.72,2.44Zm16.39-1a1.49,1.49,0,0,0-1.11-1.44,1.49,1.49,0,0,0-.9-2s0-.06,0-.09A1.5,1.5,0,0,0,26,5.5a1.5,1.5,0,0,0-3,0A1.5,1.5,0,0,0,21.5,7s0,.06,0,.09a1.49,1.49,0,0,0-.9,2,1.49,1.49,0,0,0-.72,2.44A1.49,1.49,0,0,0,21,14a1.47,1.47,0,0,0,.56-.11A1.49,1.49,0,0,0,23,15a1.71,1.71,0,0,0,.51-.09A1.58,1.58,0,0,1,24,16v1h1V16a1.58,1.58,0,0,1,.49-1.09A1.71,1.71,0,0,0,26,15a1.49,1.49,0,0,0,1.44-1.11A1.47,1.47,0,0,0,28,14a1.49,1.49,0,0,0,1.11-2.5A1.49,1.49,0,0,0,29.5,10.5Zm16,0a1.49,1.49,0,0,0-1.11-1.44,1.49,1.49,0,0,0-.9-2s0-.06,0-.09A1.5,1.5,0,0,0,42,5.5a1.5,1.5,0,0,0-3,0A1.5,1.5,0,0,0,37.5,7s0,.06,0,.09a1.49,1.49,0,0,0-.9,2,1.49,1.49,0,0,0-.72,2.44A1.49,1.49,0,0,0,37,14a1.47,1.47,0,0,0,.56-.11A1.49,1.49,0,0,0,39,15a1.71,1.71,0,0,0,.51-.09A1.58,1.58,0,0,1,40,16v1h1V16a1.58,1.58,0,0,1,.49-1.09A1.71,1.71,0,0,0,42,15a1.49,1.49,0,0,0,1.44-1.11A1.47,1.47,0,0,0,44,14a1.49,1.49,0,0,0,1.11-2.5A1.49,1.49,0,0,0,45.5,10.5Zm16,0a1.49,1.49,0,0,0-1.11-1.44,1.49,1.49,0,0,0-.9-2s0-.06,0-.09A1.5,1.5,0,0,0,58,5.5a1.5,1.5,0,0,0-3,0A1.5,1.5,0,0,0,53.5,7s0,.06,0,.09a1.49,1.49,0,0,0-.9,2,1.49,1.49,0,0,0-.72,2.44A1.49,1.49,0,0,0,53,14a1.47,1.47,0,0,0,.56-.11A1.49,1.49,0,0,0,55,15a1.71,1.71,0,0,0,.51-.09A1.58,1.58,0,0,1,56,16v1h1V16a1.58,1.58,0,0,1,.49-1.09A1.71,1.71,0,0,0,58,15a1.49,1.49,0,0,0,1.44-1.11A1.47,1.47,0,0,0,60,14a1.49,1.49,0,0,0,1.11-2.5A1.49,1.49,0,0,0,61.5,10.5Zm-48,21.33a1.49,1.49,0,0,0-1.11-1.44,1.47,1.47,0,0,0,.11-.56,1.5,1.5,0,0,0-1-1.41s0-.06,0-.09a1.5,1.5,0,0,0-1.5-1.5,1.5,1.5,0,0,0-3,0,1.5,1.5,0,0,0-1.5,1.5s0,.06,0,.09a1.5,1.5,0,0,0-1,1.41,1.47,1.47,0,0,0,.11.56A1.49,1.49,0,0,0,3.5,31.83a1.47,1.47,0,0,0,.39,1A1.49,1.49,0,0,0,5,35.33a1.47,1.47,0,0,0,.56-.11A1.49,1.49,0,0,0,7,36.33a1.44,1.44,0,0,0,.51-.09A1.58,1.58,0,0,1,8,37.33v1H9v-1a1.58,1.58,0,0,1,.49-1.09,1.44,1.44,0,0,0,.51.09,1.49,1.49,0,0,0,1.44-1.11,1.47,1.47,0,0,0,.56.11,1.49,1.49,0,0,0,1.11-2.5A1.47,1.47,0,0,0,13.5,31.83Zm16,0a1.49,1.49,0,0,0-1.11-1.44,1.47,1.47,0,0,0,.11-.56,1.5,1.5,0,0,0-1-1.41s0-.06,0-.09a1.5,1.5,0,0,0-1.5-1.5,1.5,1.5,0,0,0-3,0,1.5,1.5,0,0,0-1.5,1.5s0,.06,0,.09a1.5,1.5,0,0,0-1,1.41,1.47,1.47,0,0,0,.11.56,1.49,1.49,0,0,0-1.11,1.44,1.47,1.47,0,0,0,.39,1A1.49,1.49,0,0,0,21,35.33a1.47,1.47,0,0,0,.56-.11A1.49,1.49,0,0,0,23,36.33a1.44,1.44,0,0,0,.51-.09A1.58,1.58,0,0,1,24,37.33v1h1v-1a1.58,1.58,0,0,1,.49-1.09,1.44,1.44,0,0,0,.51.09,1.49,1.49,0,0,0,1.44-1.11,1.47,1.47,0,0,0,.56.11,1.49,1.49,0,0,0,1.11-2.5A1.47,1.47,0,0,0,29.5,31.83Zm16,0a1.49,1.49,0,0,0-1.11-1.44,1.47,1.47,0,0,0,.11-.56,1.5,1.5,0,0,0-1-1.41s0-.06,0-.09a1.5,1.5,0,0,0-1.5-1.5,1.5,1.5,0,0,0-3,0,1.5,1.5,0,0,0-1.5,1.5s0,.06,0,.09a1.5,1.5,0,0,0-1,1.41,1.47,1.47,0,0,0,.11.56,1.49,1.49,0,0,0-1.11,1.44,1.47,1.47,0,0,0,.39,1A1.49,1.49,0,0,0,37,35.33a1.47,1.47,0,0,0,.56-.11A1.49,1.49,0,0,0,39,36.33a1.44,1.44,0,0,0,.51-.09A1.58,1.58,0,0,1,40,37.33v1h1v-1a1.58,1.58,0,0,1,.49-1.09,1.44,1.44,0,0,0,.51.09,1.49,1.49,0,0,0,1.44-1.11,1.47,1.47,0,0,0,.56.11,1.49,1.49,0,0,0,1.11-2.5A1.47,1.47,0,0,0,45.5,31.83Zm16,0a1.49,1.49,0,0,0-1.11-1.44,1.47,1.47,0,0,0,.11-.56,1.5,1.5,0,0,0-1-1.41s0-.06,0-.09a1.5,1.5,0,0,0-1.5-1.5,1.5,1.5,0,0,0-3,0,1.5,1.5,0,0,0-1.5,1.5s0,.06,0,.09a1.5,1.5,0,0,0-1,1.41,1.47,1.47,0,0,0,.11.56,1.49,1.49,0,0,0-1.11,1.44,1.47,1.47,0,0,0,.39,1A1.49,1.49,0,0,0,53,35.33a1.47,1.47,0,0,0,.56-.11A1.49,1.49,0,0,0,55,36.33a1.44,1.44,0,0,0,.51-.09A1.58,1.58,0,0,1,56,37.33v1h1v-1a1.58,1.58,0,0,1,.49-1.09,1.44,1.44,0,0,0,.51.09,1.49,1.49,0,0,0,1.44-1.11,1.47,1.47,0,0,0,.56.11,1.49,1.49,0,0,0,1.11-2.5A1.47,1.47,0,0,0,61.5,31.83Zm-48,21.34a1.5,1.5,0,0,0-1.11-1.45,1.46,1.46,0,0,0,.11-.55,1.48,1.48,0,0,0-1-1.41s0-.06,0-.09a1.5,1.5,0,0,0-1.5-1.5,1.5,1.5,0,0,0-3,0,1.5,1.5,0,0,0-1.5,1.5s0,.06,0,.09a1.48,1.48,0,0,0-1,1.41,1.46,1.46,0,0,0,.11.55,1.49,1.49,0,0,0-.72,2.45,1.47,1.47,0,0,0-.39,1A1.5,1.5,0,0,0,5,56.67a1.47,1.47,0,0,0,.56-.11A1.5,1.5,0,0,0,7,57.67a1.45,1.45,0,0,0,.51-.1A1.62,1.62,0,0,1,8,58.67v1H9v-1a1.62,1.62,0,0,1,.49-1.1,1.45,1.45,0,0,0,.51.1,1.5,1.5,0,0,0,1.44-1.11,1.47,1.47,0,0,0,.56.11,1.5,1.5,0,0,0,1.5-1.5,1.47,1.47,0,0,0-.39-1A1.51,1.51,0,0,0,13.5,53.17Zm16,0a1.5,1.5,0,0,0-1.11-1.45,1.46,1.46,0,0,0,.11-.55,1.48,1.48,0,0,0-1-1.41s0-.06,0-.09a1.5,1.5,0,0,0-1.5-1.5,1.5,1.5,0,0,0-3,0,1.5,1.5,0,0,0-1.5,1.5s0,.06,0,.09a1.48,1.48,0,0,0-1,1.41,1.46,1.46,0,0,0,.11.55,1.49,1.49,0,0,0-.72,2.45,1.47,1.47,0,0,0-.39,1,1.5,1.5,0,0,0,1.5,1.5,1.47,1.47,0,0,0,.56-.11A1.5,1.5,0,0,0,23,57.67a1.45,1.45,0,0,0,.51-.1,1.62,1.62,0,0,1,.49,1.1v1h1v-1a1.62,1.62,0,0,1,.49-1.1,1.45,1.45,0,0,0,.51.1,1.5,1.5,0,0,0,1.44-1.11,1.47,1.47,0,0,0,.56.11,1.5,1.5,0,0,0,1.5-1.5,1.47,1.47,0,0,0-.39-1A1.51,1.51,0,0,0,29.5,53.17Zm16,0a1.5,1.5,0,0,0-1.11-1.45,1.46,1.46,0,0,0,.11-.55,1.48,1.48,0,0,0-1-1.41s0-.06,0-.09a1.5,1.5,0,0,0-1.5-1.5,1.5,1.5,0,0,0-3,0,1.5,1.5,0,0,0-1.5,1.5s0,.06,0,.09a1.48,1.48,0,0,0-1,1.41,1.46,1.46,0,0,0,.11.55,1.49,1.49,0,0,0-.72,2.45,1.47,1.47,0,0,0-.39,1,1.5,1.5,0,0,0,1.5,1.5,1.47,1.47,0,0,0,.56-.11A1.5,1.5,0,0,0,39,57.67a1.45,1.45,0,0,0,.51-.1,1.62,1.62,0,0,1,.49,1.1v1h1v-1a1.62,1.62,0,0,1,.49-1.1,1.45,1.45,0,0,0,.51.1,1.5,1.5,0,0,0,1.44-1.11,1.47,1.47,0,0,0,.56.11,1.5,1.5,0,0,0,1.5-1.5,1.47,1.47,0,0,0-.39-1A1.51,1.51,0,0,0,45.5,53.17Zm16,0a1.5,1.5,0,0,0-1.11-1.45,1.46,1.46,0,0,0,.11-.55,1.48,1.48,0,0,0-1-1.41s0-.06,0-.09a1.5,1.5,0,0,0-1.5-1.5,1.5,1.5,0,0,0-3,0,1.5,1.5,0,0,0-1.5,1.5s0,.06,0,.09a1.48,1.48,0,0,0-1,1.41,1.46,1.46,0,0,0,.11.55,1.49,1.49,0,0,0-.72,2.45,1.47,1.47,0,0,0-.39,1,1.5,1.5,0,0,0,1.5,1.5,1.47,1.47,0,0,0,.56-.11A1.5,1.5,0,0,0,55,57.67a1.45,1.45,0,0,0,.51-.1,1.62,1.62,0,0,1,.49,1.1v1h1v-1a1.62,1.62,0,0,1,.49-1.1,1.45,1.45,0,0,0,.51.1,1.5,1.5,0,0,0,1.44-1.11,1.47,1.47,0,0,0,.56.11,1.5,1.5,0,0,0,1.5-1.5,1.47,1.47,0,0,0-.39-1A1.51,1.51,0,0,0,61.5,53.17Z"/></svg>