<svg id="Sprites" xmlns="http://www.w3.org/2000/svg" viewBox="0 0 16 16"><defs><style>.cls-1{fill:#236035;}</style></defs><path id="exotic_pnt_non_green" class="cls-1" d="M13,8a1.49,1.49,0,0,0-1.11-1.44,1.49,1.49,0,0,0-.9-2s0-.06,0-.09A1.5,1.5,0,0,0,9.5,3a1.5,1.5,0,0,0-3,0A1.5,1.5,0,0,0,5,4.5s0,.06,0,.09a1.49,1.49,0,0,0-.9,2A1.49,1.49,0,0,0,3.39,9,1.49,1.49,0,0,0,4.5,11.5a1.47,1.47,0,0,0,.56-.11A1.49,1.49,0,0,0,6.5,12.5,1.71,1.71,0,0,0,7,12.41,1.58,1.58,0,0,1,7.5,13.5v1h1v-1A1.58,1.58,0,0,1,9,12.41a1.71,1.71,0,0,0,.51.09,1.49,1.49,0,0,0,1.44-1.11,1.47,1.47,0,0,0,.56.11A1.49,1.49,0,0,0,12.61,9,1.49,1.49,0,0,0,13,8Z"/></svg>