<svg id="Sprites" xmlns="http://www.w3.org/2000/svg" viewBox="0 0 64 64"><defs><style>.cls-1{fill:none;}.cls-2{fill:#236035;}</style></defs><g id="exotic_non_poly_grid_sparse_half"><rect id="bbox_64" class="cls-1" width="32" height="32"/><path id="exotic_non_grid_sparse" class="cls-2" d="M3.28,4.12a.39.39,0,0,1,.1.25A.38.38,0,0,1,3,4.75a.32.32,0,0,1-.14,0A.38.38,0,0,1,2.5,5L2.37,5a.4.4,0,0,0-.12.27V5.5H2V5.25A.4.4,0,0,0,1.88,5L1.75,5a.38.38,0,0,1-.36-.28.32.32,0,0,1-.14,0,.37.37,0,0,1-.37-.38A.38.38,0,0,1,1,4.12a.35.35,0,0,1-.09-.25.38.38,0,0,1,.27-.36.58.58,0,0,1,0-.14A.38.38,0,0,1,1.38,3V3a.37.37,0,0,1,.37-.38.38.38,0,0,1,.75,0A.38.38,0,0,1,2.88,3V3a.37.37,0,0,1,.25.35.59.59,0,0,1,0,.14.38.38,0,0,1,.28.36A.36.36,0,0,1,3.28,4.12Zm5.43-.25a.38.38,0,0,0-.28-.36.32.32,0,0,0,0-.14A.38.38,0,0,0,8.21,3V3a.38.38,0,0,0-.38-.38.37.37,0,0,0-.37-.37.38.38,0,0,0-.38.37A.38.38,0,0,0,6.71,3V3a.37.37,0,0,0-.25.35.32.32,0,0,0,0,.14.38.38,0,0,0-.28.36.36.36,0,0,0,.1.25.39.39,0,0,0-.1.25.38.38,0,0,0,.37.38.32.32,0,0,0,.14,0A.38.38,0,0,0,7.08,5l.13,0a.4.4,0,0,1,.12.27V5.5h.25V5.25A.37.37,0,0,1,7.71,5l.12,0a.37.37,0,0,0,.36-.28.35.35,0,0,0,.14,0,.38.38,0,0,0,.38-.38.39.39,0,0,0-.1-.25A.36.36,0,0,0,8.71,3.87Zm5.33,0a.38.38,0,0,0-.28-.36.32.32,0,0,0,0-.14A.37.37,0,0,0,13.54,3V3a.38.38,0,0,0-.37-.38.38.38,0,0,0-.38-.37.37.37,0,0,0-.37.37A.38.38,0,0,0,12,3V3a.38.38,0,0,0-.25.35.32.32,0,0,0,0,.14.38.38,0,0,0-.28.36.36.36,0,0,0,.1.25.39.39,0,0,0-.1.25.38.38,0,0,0,.38.38.35.35,0,0,0,.14,0,.37.37,0,0,0,.36.28l.12,0a.37.37,0,0,1,.13.27V5.5h.25V5.25A.4.4,0,0,1,13,5l.13,0a.38.38,0,0,0,.36-.28.32.32,0,0,0,.14,0A.38.38,0,0,0,14,4.37a.39.39,0,0,0-.1-.25A.36.36,0,0,0,14,3.87Zm-10.66,8a.38.38,0,0,0-.28-.36.59.59,0,0,0,0-.14A.37.37,0,0,0,2.87,11v0a.38.38,0,0,0-.38-.38.38.38,0,0,0-.75,0,.37.37,0,0,0-.37.38v0a.38.38,0,0,0-.26.35.58.58,0,0,0,0,.14.38.38,0,0,0-.27.36.35.35,0,0,0,.09.25.38.38,0,0,0-.09.25.37.37,0,0,0,.37.38.32.32,0,0,0,.14,0,.38.38,0,0,0,.36.28l.13,0a.4.4,0,0,1,.12.27v.25h.25v-.25A.4.4,0,0,1,2.37,13l.13,0a.38.38,0,0,0,.36-.28.32.32,0,0,0,.14,0,.38.38,0,0,0,.38-.38.39.39,0,0,0-.1-.25A.36.36,0,0,0,3.38,11.87Zm5.33,0a.38.38,0,0,0-.28-.36.32.32,0,0,0,0-.14A.38.38,0,0,0,8.21,11v0a.38.38,0,0,0-.38-.38.37.37,0,0,0-.37-.37.38.38,0,0,0-.38.37.38.38,0,0,0-.37.38v0a.37.37,0,0,0-.25.35.32.32,0,0,0,0,.14.38.38,0,0,0-.28.36.36.36,0,0,0,.1.25.39.39,0,0,0-.1.25.38.38,0,0,0,.37.38.32.32,0,0,0,.14,0,.38.38,0,0,0,.36.28l.13,0a.4.4,0,0,1,.12.27v.25h.25v-.25A.37.37,0,0,1,7.71,13l.12,0a.37.37,0,0,0,.36-.28.35.35,0,0,0,.14,0,.38.38,0,0,0,.38-.38.39.39,0,0,0-.1-.25A.36.36,0,0,0,8.71,11.87Zm5.33,0a.38.38,0,0,0-.28-.36.32.32,0,0,0,0-.14.37.37,0,0,0-.25-.35v0a.38.38,0,0,0-.37-.38.38.38,0,0,0-.38-.37.37.37,0,0,0-.37.37A.38.38,0,0,0,12,11v0a.38.38,0,0,0-.25.35.32.32,0,0,0,0,.14.38.38,0,0,0-.28.36.36.36,0,0,0,.1.25.39.39,0,0,0-.1.25.38.38,0,0,0,.38.38.35.35,0,0,0,.14,0,.37.37,0,0,0,.36.28l.12,0a.37.37,0,0,1,.13.27v.25h.25v-.25A.4.4,0,0,1,13,13l.13,0a.38.38,0,0,0,.36-.28.32.32,0,0,0,.14,0,.38.38,0,0,0,.37-.38.39.39,0,0,0-.1-.25A.36.36,0,0,0,14,11.87Z"/><path id="exotic_non_grid_sparse-2" data-name="exotic_non_grid_sparse" class="cls-2" d="M3.28,20.12a.39.39,0,0,1,.1.25.38.38,0,0,1-.38.38.32.32,0,0,1-.14,0A.38.38,0,0,1,2.5,21l-.13,0a.4.4,0,0,0-.12.27v.25H2v-.25A.4.4,0,0,0,1.88,21l-.13,0a.38.38,0,0,1-.36-.28.32.32,0,0,1-.14,0,.37.37,0,0,1-.37-.38A.38.38,0,0,1,1,20.12a.35.35,0,0,1-.09-.25.37.37,0,0,1,.27-.36.58.58,0,0,1,0-.14A.38.38,0,0,1,1.38,19v0a.37.37,0,0,1,.37-.38.38.38,0,0,1,.75,0,.38.38,0,0,1,.38.38v0a.37.37,0,0,1,.25.35.59.59,0,0,1,0,.14.38.38,0,0,1,.28.36A.36.36,0,0,1,3.28,20.12Zm5.43-.25a.38.38,0,0,0-.28-.36.32.32,0,0,0,0-.14A.38.38,0,0,0,8.21,19v0a.38.38,0,0,0-.38-.38.37.37,0,0,0-.37-.37.38.38,0,0,0-.38.37.38.38,0,0,0-.37.38v0a.37.37,0,0,0-.25.35.32.32,0,0,0,0,.14.38.38,0,0,0-.28.36.36.36,0,0,0,.1.25.39.39,0,0,0-.1.25.38.38,0,0,0,.37.38.32.32,0,0,0,.14,0,.38.38,0,0,0,.36.28l.13,0a.4.4,0,0,1,.12.27v.25h.25v-.25A.37.37,0,0,1,7.71,21l.12,0a.37.37,0,0,0,.36-.28.35.35,0,0,0,.14,0,.38.38,0,0,0,.38-.38.39.39,0,0,0-.1-.25A.36.36,0,0,0,8.71,19.87Zm5.33,0a.38.38,0,0,0-.28-.36.32.32,0,0,0,0-.14.37.37,0,0,0-.25-.35v0a.38.38,0,0,0-.37-.38.38.38,0,0,0-.38-.37.37.37,0,0,0-.37.37A.38.38,0,0,0,12,19v0a.38.38,0,0,0-.25.35.32.32,0,0,0,0,.14.38.38,0,0,0-.28.36.36.36,0,0,0,.1.25.39.39,0,0,0-.1.25.38.38,0,0,0,.38.38.35.35,0,0,0,.14,0,.37.37,0,0,0,.36.28l.12,0a.37.37,0,0,1,.13.27v.25h.25v-.25A.4.4,0,0,1,13,21l.13,0a.38.38,0,0,0,.36-.28.32.32,0,0,0,.14,0,.38.38,0,0,0,.37-.38.39.39,0,0,0-.1-.25A.36.36,0,0,0,14,19.87Zm-10.66,8a.38.38,0,0,0-.28-.36.59.59,0,0,0,0-.14A.37.37,0,0,0,2.87,27v0a.38.38,0,0,0-.38-.38.38.38,0,0,0-.75,0,.37.37,0,0,0-.37.38v0a.38.38,0,0,0-.26.35.58.58,0,0,0,0,.14.37.37,0,0,0-.27.36.35.35,0,0,0,.09.25.38.38,0,0,0-.09.25.37.37,0,0,0,.37.38.32.32,0,0,0,.14,0,.38.38,0,0,0,.36.28l.13,0a.4.4,0,0,1,.12.27v.25h.25v-.25A.4.4,0,0,1,2.37,29l.13,0a.38.38,0,0,0,.36-.28.32.32,0,0,0,.14,0,.38.38,0,0,0,.38-.38.39.39,0,0,0-.1-.25A.36.36,0,0,0,3.38,27.87Zm5.33,0a.38.38,0,0,0-.28-.36.32.32,0,0,0,0-.14A.38.38,0,0,0,8.21,27v0a.38.38,0,0,0-.38-.38.37.37,0,0,0-.37-.37.38.38,0,0,0-.38.37.38.38,0,0,0-.37.38v0a.37.37,0,0,0-.25.35.32.32,0,0,0,0,.14.38.38,0,0,0-.28.36.36.36,0,0,0,.1.25.39.39,0,0,0-.1.25.38.38,0,0,0,.37.38.32.32,0,0,0,.14,0,.38.38,0,0,0,.36.28l.13,0a.4.4,0,0,1,.12.27v.25h.25v-.25A.37.37,0,0,1,7.71,29l.12,0a.37.37,0,0,0,.36-.28.35.35,0,0,0,.14,0,.38.38,0,0,0,.38-.38.39.39,0,0,0-.1-.25A.36.36,0,0,0,8.71,27.87Zm5.33,0a.38.38,0,0,0-.28-.36.32.32,0,0,0,0-.14.37.37,0,0,0-.25-.35v0a.38.38,0,0,0-.37-.38.38.38,0,0,0-.38-.37.37.37,0,0,0-.37.37A.38.38,0,0,0,12,27v0a.38.38,0,0,0-.25.35.32.32,0,0,0,0,.14.38.38,0,0,0-.28.36.36.36,0,0,0,.1.25.39.39,0,0,0-.1.25.38.38,0,0,0,.38.38.35.35,0,0,0,.14,0,.37.37,0,0,0,.36.28l.12,0a.37.37,0,0,1,.13.27v.25h.25v-.25A.4.4,0,0,1,13,29l.13,0a.38.38,0,0,0,.36-.28.32.32,0,0,0,.14,0,.38.38,0,0,0,.37-.38.39.39,0,0,0-.1-.25A.36.36,0,0,0,14,27.87Z"/><path id="exotic_non_grid_sparse-3" data-name="exotic_non_grid_sparse" class="cls-2" d="M19.28,4.12a.39.39,0,0,1,.1.25.38.38,0,0,1-.38.38.32.32,0,0,1-.14,0A.38.38,0,0,1,18.5,5l-.13,0a.4.4,0,0,0-.12.27V5.5H18V5.25A.4.4,0,0,0,17.88,5l-.13,0a.38.38,0,0,1-.36-.28.32.32,0,0,1-.14,0,.37.37,0,0,1-.37-.38A.38.38,0,0,1,17,4.12a.35.35,0,0,1-.09-.25.38.38,0,0,1,.27-.36.59.59,0,0,1,0-.14A.37.37,0,0,1,17.38,3V3a.37.37,0,0,1,.37-.38.38.38,0,0,1,.75,0,.38.38,0,0,1,.38.38V3a.38.38,0,0,1,.26.35.58.58,0,0,1,0,.14.38.38,0,0,1,.28.36A.36.36,0,0,1,19.28,4.12Zm5.43-.25a.38.38,0,0,0-.28-.36.32.32,0,0,0,0-.14A.38.38,0,0,0,24.21,3V3a.38.38,0,0,0-.38-.38.37.37,0,0,0-.37-.37.38.38,0,0,0-.38.37.38.38,0,0,0-.37.38V3a.37.37,0,0,0-.25.35.32.32,0,0,0,0,.14.38.38,0,0,0-.28.36.36.36,0,0,0,.1.25.39.39,0,0,0-.1.25.38.38,0,0,0,.37.38.32.32,0,0,0,.14,0,.38.38,0,0,0,.36.28l.13,0a.4.4,0,0,1,.12.27V5.5h.25V5.25A.37.37,0,0,1,23.71,5l.12,0a.37.37,0,0,0,.36-.28.35.35,0,0,0,.14,0,.38.38,0,0,0,.38-.38.39.39,0,0,0-.1-.25A.36.36,0,0,0,24.71,3.87Zm5.33,0a.38.38,0,0,0-.28-.36.32.32,0,0,0,0-.14A.37.37,0,0,0,29.54,3V3a.38.38,0,0,0-.37-.38.38.38,0,0,0-.38-.37.37.37,0,0,0-.37.37A.38.38,0,0,0,28,3V3a.38.38,0,0,0-.25.35.32.32,0,0,0,0,.14.38.38,0,0,0-.28.36.36.36,0,0,0,.1.25.39.39,0,0,0-.1.25.38.38,0,0,0,.38.38.35.35,0,0,0,.14,0,.37.37,0,0,0,.36.28l.12,0a.37.37,0,0,1,.13.27V5.5h.25V5.25A.4.4,0,0,1,29,5l.13,0a.38.38,0,0,0,.36-.28.32.32,0,0,0,.14,0A.38.38,0,0,0,30,4.37a.39.39,0,0,0-.1-.25A.36.36,0,0,0,30,3.87Zm-10.66,8a.38.38,0,0,0-.28-.36.58.58,0,0,0,0-.14.38.38,0,0,0-.26-.35v0a.38.38,0,0,0-.38-.38.38.38,0,0,0-.75,0,.37.37,0,0,0-.37.38v0a.37.37,0,0,0-.25.35.59.59,0,0,0,0,.14.38.38,0,0,0-.27.36.35.35,0,0,0,.09.25.38.38,0,0,0-.09.25.37.37,0,0,0,.37.38.32.32,0,0,0,.14,0,.38.38,0,0,0,.36.28l.13,0a.4.4,0,0,1,.12.27v.25h.25v-.25a.4.4,0,0,1,.12-.27l.13,0a.38.38,0,0,0,.36-.28.32.32,0,0,0,.14,0,.38.38,0,0,0,.38-.38.39.39,0,0,0-.1-.25A.36.36,0,0,0,19.38,11.87Zm5.33,0a.38.38,0,0,0-.28-.36.32.32,0,0,0,0-.14.38.38,0,0,0-.25-.35v0a.38.38,0,0,0-.38-.38.37.37,0,0,0-.37-.37.38.38,0,0,0-.38.37.38.38,0,0,0-.37.38v0a.37.37,0,0,0-.25.35.32.32,0,0,0,0,.14.38.38,0,0,0-.28.36.36.36,0,0,0,.1.25.39.39,0,0,0-.1.25.38.38,0,0,0,.37.38.32.32,0,0,0,.14,0,.38.38,0,0,0,.36.28l.13,0a.4.4,0,0,1,.12.27v.25h.25v-.25a.37.37,0,0,1,.13-.27l.12,0a.37.37,0,0,0,.36-.28.35.35,0,0,0,.14,0,.38.38,0,0,0,.38-.38.39.39,0,0,0-.1-.25A.36.36,0,0,0,24.71,11.87Zm5.33,0a.38.38,0,0,0-.28-.36.32.32,0,0,0,0-.14.37.37,0,0,0-.25-.35v0a.38.38,0,0,0-.37-.38.38.38,0,0,0-.38-.37.37.37,0,0,0-.37.37A.38.38,0,0,0,28,11v0a.38.38,0,0,0-.25.35.32.32,0,0,0,0,.14.38.38,0,0,0-.28.36.36.36,0,0,0,.1.25.39.39,0,0,0-.1.25.38.38,0,0,0,.38.38.35.35,0,0,0,.14,0,.37.37,0,0,0,.36.28l.12,0a.37.37,0,0,1,.13.27v.25h.25v-.25A.4.4,0,0,1,29,13l.13,0a.38.38,0,0,0,.36-.28.32.32,0,0,0,.14,0,.38.38,0,0,0,.37-.38.39.39,0,0,0-.1-.25A.36.36,0,0,0,30,11.87Z"/><path id="exotic_non_grid_sparse-4" data-name="exotic_non_grid_sparse" class="cls-2" d="M19.28,20.12a.39.39,0,0,1,.1.25.38.38,0,0,1-.38.38.32.32,0,0,1-.14,0,.38.38,0,0,1-.36.28l-.13,0a.4.4,0,0,0-.12.27v.25H18v-.25a.4.4,0,0,0-.12-.27l-.13,0a.38.38,0,0,1-.36-.28.32.32,0,0,1-.14,0,.37.37,0,0,1-.37-.38.38.38,0,0,1,.09-.25.35.35,0,0,1-.09-.25.37.37,0,0,1,.27-.36.59.59,0,0,1,0-.14.37.37,0,0,1,.25-.35v0a.37.37,0,0,1,.37-.38.38.38,0,0,1,.75,0,.38.38,0,0,1,.38.38v0a.38.38,0,0,1,.26.35.58.58,0,0,1,0,.14.38.38,0,0,1,.28.36A.36.36,0,0,1,19.28,20.12Zm5.43-.25a.38.38,0,0,0-.28-.36.32.32,0,0,0,0-.14.38.38,0,0,0-.25-.35v0a.38.38,0,0,0-.38-.38.37.37,0,0,0-.37-.37.38.38,0,0,0-.38.37.38.38,0,0,0-.37.38v0a.37.37,0,0,0-.25.35.32.32,0,0,0,0,.14.38.38,0,0,0-.28.36.36.36,0,0,0,.1.25.39.39,0,0,0-.1.25.38.38,0,0,0,.37.38.32.32,0,0,0,.14,0,.38.38,0,0,0,.36.28l.13,0a.4.4,0,0,1,.12.27v.25h.25v-.25a.37.37,0,0,1,.13-.27l.12,0a.37.37,0,0,0,.36-.28.35.35,0,0,0,.14,0,.38.38,0,0,0,.38-.38.39.39,0,0,0-.1-.25A.36.36,0,0,0,24.71,19.87Zm5.33,0a.38.38,0,0,0-.28-.36.32.32,0,0,0,0-.14.37.37,0,0,0-.25-.35v0a.38.38,0,0,0-.37-.38.38.38,0,0,0-.38-.37.37.37,0,0,0-.37.37A.38.38,0,0,0,28,19v0a.38.38,0,0,0-.25.35.32.32,0,0,0,0,.14.38.38,0,0,0-.28.36.36.36,0,0,0,.1.25.39.39,0,0,0-.1.25.38.38,0,0,0,.38.38.35.35,0,0,0,.14,0,.37.37,0,0,0,.36.28l.12,0a.37.37,0,0,1,.13.27v.25h.25v-.25A.4.4,0,0,1,29,21l.13,0a.38.38,0,0,0,.36-.28.32.32,0,0,0,.14,0,.38.38,0,0,0,.37-.38.39.39,0,0,0-.1-.25A.36.36,0,0,0,30,19.87Zm-10.66,8a.38.38,0,0,0-.28-.36.58.58,0,0,0,0-.14.38.38,0,0,0-.26-.35v0a.38.38,0,0,0-.38-.38.38.38,0,0,0-.75,0,.37.37,0,0,0-.37.38v0a.37.37,0,0,0-.25.35.59.59,0,0,0,0,.14.37.37,0,0,0-.27.36.35.35,0,0,0,.09.25.38.38,0,0,0-.09.25.37.37,0,0,0,.37.38.32.32,0,0,0,.14,0,.38.38,0,0,0,.36.28l.13,0a.4.4,0,0,1,.12.27v.25h.25v-.25a.4.4,0,0,1,.12-.27l.13,0a.38.38,0,0,0,.36-.28.32.32,0,0,0,.14,0,.38.38,0,0,0,.38-.38.39.39,0,0,0-.1-.25A.36.36,0,0,0,19.38,27.87Zm5.33,0a.38.38,0,0,0-.28-.36.32.32,0,0,0,0-.14.38.38,0,0,0-.25-.35v0a.38.38,0,0,0-.38-.38.37.37,0,0,0-.37-.37.38.38,0,0,0-.38.37.38.38,0,0,0-.37.38v0a.37.37,0,0,0-.25.35.32.32,0,0,0,0,.14.38.38,0,0,0-.28.36.36.36,0,0,0,.1.25.39.39,0,0,0-.1.25.38.38,0,0,0,.37.38.32.32,0,0,0,.14,0,.38.38,0,0,0,.36.28l.13,0a.4.4,0,0,1,.12.27v.25h.25v-.25a.37.37,0,0,1,.13-.27l.12,0a.37.37,0,0,0,.36-.28.35.35,0,0,0,.14,0,.38.38,0,0,0,.38-.38.39.39,0,0,0-.1-.25A.36.36,0,0,0,24.71,27.87Zm5.33,0a.38.38,0,0,0-.28-.36.32.32,0,0,0,0-.14.37.37,0,0,0-.25-.35v0a.38.38,0,0,0-.37-.38.38.38,0,0,0-.38-.37.37.37,0,0,0-.37.37A.38.38,0,0,0,28,27v0a.38.38,0,0,0-.25.35.32.32,0,0,0,0,.14.38.38,0,0,0-.28.36.36.36,0,0,0,.1.25.39.39,0,0,0-.1.25.38.38,0,0,0,.38.38.35.35,0,0,0,.14,0,.37.37,0,0,0,.36.28l.12,0a.37.37,0,0,1,.13.27v.25h.25v-.25A.4.4,0,0,1,29,29l.13,0a.38.38,0,0,0,.36-.28.32.32,0,0,0,.14,0,.38.38,0,0,0,.37-.38.39.39,0,0,0-.1-.25A.36.36,0,0,0,30,27.87Z"/></g><g id="exotic_non_poly_grid_sparse_half-2" data-name="exotic_non_poly_grid_sparse_half"><rect id="bbox_64-2" data-name="bbox_64" class="cls-1" x="32" width="32" height="32"/><path id="exotic_non_grid_sparse-5" data-name="exotic_non_grid_sparse" class="cls-2" d="M35.28,4.12a.39.39,0,0,1,.1.25.38.38,0,0,1-.38.38.32.32,0,0,1-.14,0A.38.38,0,0,1,34.5,5l-.13,0a.4.4,0,0,0-.12.27V5.5H34V5.25A.4.4,0,0,0,33.88,5l-.13,0a.38.38,0,0,1-.36-.28.32.32,0,0,1-.14,0,.37.37,0,0,1-.37-.38A.38.38,0,0,1,33,4.12a.35.35,0,0,1-.09-.25.37.37,0,0,1,.27-.36.58.58,0,0,1,0-.14A.38.38,0,0,1,33.38,3V3a.37.37,0,0,1,.37-.38.38.38,0,0,1,.75,0,.38.38,0,0,1,.38.38V3a.37.37,0,0,1,.25.35.59.59,0,0,1,0,.14.38.38,0,0,1,.28.36A.36.36,0,0,1,35.28,4.12Zm5.43-.25a.38.38,0,0,0-.28-.36.32.32,0,0,0,0-.14A.38.38,0,0,0,40.21,3V3a.38.38,0,0,0-.38-.38.37.37,0,0,0-.37-.37.38.38,0,0,0-.38.37.38.38,0,0,0-.37.38V3a.37.37,0,0,0-.25.35.32.32,0,0,0,0,.14.38.38,0,0,0-.28.36.36.36,0,0,0,.1.25.39.39,0,0,0-.1.25.38.38,0,0,0,.37.38.32.32,0,0,0,.14,0,.38.38,0,0,0,.36.28l.13,0a.4.4,0,0,1,.12.27V5.5h.25V5.25A.37.37,0,0,1,39.71,5l.12,0a.37.37,0,0,0,.36-.28.35.35,0,0,0,.14,0,.38.38,0,0,0,.38-.38.39.39,0,0,0-.1-.25A.36.36,0,0,0,40.71,3.87Zm5.33,0a.38.38,0,0,0-.28-.36.32.32,0,0,0,0-.14A.37.37,0,0,0,45.54,3V3a.38.38,0,0,0-.37-.38.38.38,0,0,0-.38-.37.37.37,0,0,0-.37.37A.38.38,0,0,0,44,3V3a.38.38,0,0,0-.25.35.32.32,0,0,0,0,.14.38.38,0,0,0-.28.36.36.36,0,0,0,.1.25.39.39,0,0,0-.1.25.38.38,0,0,0,.38.38.35.35,0,0,0,.14,0,.37.37,0,0,0,.36.28l.12,0a.37.37,0,0,1,.13.27V5.5h.25V5.25A.4.4,0,0,1,45,5l.13,0a.38.38,0,0,0,.36-.28.32.32,0,0,0,.14,0A.38.38,0,0,0,46,4.37a.39.39,0,0,0-.1-.25A.36.36,0,0,0,46,3.87Zm-10.66,8a.38.38,0,0,0-.28-.36.59.59,0,0,0,0-.14.37.37,0,0,0-.25-.35v0a.38.38,0,0,0-.38-.38.38.38,0,0,0-.75,0,.37.37,0,0,0-.37.38v0a.38.38,0,0,0-.26.35.58.58,0,0,0,0,.14.38.38,0,0,0-.27.36.35.35,0,0,0,.09.25.38.38,0,0,0-.09.25.37.37,0,0,0,.37.38.32.32,0,0,0,.14,0,.38.38,0,0,0,.36.28l.13,0a.4.4,0,0,1,.12.27v.25h.25v-.25a.4.4,0,0,1,.12-.27l.13,0a.38.38,0,0,0,.36-.28.32.32,0,0,0,.14,0,.38.38,0,0,0,.38-.38.39.39,0,0,0-.1-.25A.36.36,0,0,0,35.38,11.87Zm5.33,0a.38.38,0,0,0-.28-.36.32.32,0,0,0,0-.14.38.38,0,0,0-.25-.35v0a.38.38,0,0,0-.38-.38.37.37,0,0,0-.37-.37.38.38,0,0,0-.38.37.38.38,0,0,0-.37.38v0a.37.37,0,0,0-.25.35.32.32,0,0,0,0,.14.38.38,0,0,0-.28.36.36.36,0,0,0,.1.25.39.39,0,0,0-.1.25.38.38,0,0,0,.37.38.32.32,0,0,0,.14,0,.38.38,0,0,0,.36.28l.13,0a.4.4,0,0,1,.12.27v.25h.25v-.25a.37.37,0,0,1,.13-.27l.12,0a.37.37,0,0,0,.36-.28.35.35,0,0,0,.14,0,.38.38,0,0,0,.38-.38.39.39,0,0,0-.1-.25A.36.36,0,0,0,40.71,11.87Zm5.33,0a.38.38,0,0,0-.28-.36.32.32,0,0,0,0-.14.37.37,0,0,0-.25-.35v0a.38.38,0,0,0-.37-.38.38.38,0,0,0-.38-.37.37.37,0,0,0-.37.37A.38.38,0,0,0,44,11v0a.38.38,0,0,0-.25.35.32.32,0,0,0,0,.14.38.38,0,0,0-.28.36.36.36,0,0,0,.1.25.39.39,0,0,0-.1.25.38.38,0,0,0,.38.38.35.35,0,0,0,.14,0,.37.37,0,0,0,.36.28l.12,0a.37.37,0,0,1,.13.27v.25h.25v-.25A.4.4,0,0,1,45,13l.13,0a.38.38,0,0,0,.36-.28.32.32,0,0,0,.14,0,.38.38,0,0,0,.37-.38.39.39,0,0,0-.1-.25A.36.36,0,0,0,46,11.87Z"/><path id="exotic_non_grid_sparse-6" data-name="exotic_non_grid_sparse" class="cls-2" d="M35.28,20.12a.39.39,0,0,1,.1.25.38.38,0,0,1-.38.38.32.32,0,0,1-.14,0,.38.38,0,0,1-.36.28l-.13,0a.4.4,0,0,0-.12.27v.25H34v-.25a.4.4,0,0,0-.12-.27l-.13,0a.38.38,0,0,1-.36-.28.32.32,0,0,1-.14,0,.37.37,0,0,1-.37-.38.38.38,0,0,1,.09-.25.35.35,0,0,1-.09-.25.37.37,0,0,1,.27-.36.58.58,0,0,1,0-.14.38.38,0,0,1,.26-.35v0a.37.37,0,0,1,.37-.38.38.38,0,0,1,.75,0,.38.38,0,0,1,.38.38v0a.37.37,0,0,1,.25.35.59.59,0,0,1,0,.14.38.38,0,0,1,.28.36A.36.36,0,0,1,35.28,20.12Zm5.43-.25a.38.38,0,0,0-.28-.36.32.32,0,0,0,0-.14.38.38,0,0,0-.25-.35v0a.38.38,0,0,0-.38-.38.37.37,0,0,0-.37-.37.38.38,0,0,0-.38.37.38.38,0,0,0-.37.38v0a.37.37,0,0,0-.25.35.32.32,0,0,0,0,.14.38.38,0,0,0-.28.36.36.36,0,0,0,.1.25.39.39,0,0,0-.1.25.38.38,0,0,0,.37.38.32.32,0,0,0,.14,0,.38.38,0,0,0,.36.28l.13,0a.4.4,0,0,1,.12.27v.25h.25v-.25a.37.37,0,0,1,.13-.27l.12,0a.37.37,0,0,0,.36-.28.35.35,0,0,0,.14,0,.38.38,0,0,0,.38-.38.39.39,0,0,0-.1-.25A.36.36,0,0,0,40.71,19.87Zm5.33,0a.38.38,0,0,0-.28-.36.32.32,0,0,0,0-.14.37.37,0,0,0-.25-.35v0a.38.38,0,0,0-.37-.38.38.38,0,0,0-.38-.37.37.37,0,0,0-.37.37A.38.38,0,0,0,44,19v0a.38.38,0,0,0-.25.35.32.32,0,0,0,0,.14.38.38,0,0,0-.28.36.36.36,0,0,0,.1.25.39.39,0,0,0-.1.25.38.38,0,0,0,.38.38.35.35,0,0,0,.14,0,.37.37,0,0,0,.36.28l.12,0a.37.37,0,0,1,.13.27v.25h.25v-.25A.4.4,0,0,1,45,21l.13,0a.38.38,0,0,0,.36-.28.32.32,0,0,0,.14,0,.38.38,0,0,0,.37-.38.39.39,0,0,0-.1-.25A.36.36,0,0,0,46,19.87Zm-10.66,8a.38.38,0,0,0-.28-.36.59.59,0,0,0,0-.14.37.37,0,0,0-.25-.35v0a.38.38,0,0,0-.38-.38.38.38,0,0,0-.75,0,.37.37,0,0,0-.37.38v0a.38.38,0,0,0-.26.35.58.58,0,0,0,0,.14.37.37,0,0,0-.27.36.35.35,0,0,0,.09.25.38.38,0,0,0-.09.25.37.37,0,0,0,.37.38.32.32,0,0,0,.14,0,.38.38,0,0,0,.36.28l.13,0a.4.4,0,0,1,.12.27v.25h.25v-.25a.4.4,0,0,1,.12-.27l.13,0a.38.38,0,0,0,.36-.28.32.32,0,0,0,.14,0,.38.38,0,0,0,.38-.38.39.39,0,0,0-.1-.25A.36.36,0,0,0,35.38,27.87Zm5.33,0a.38.38,0,0,0-.28-.36.32.32,0,0,0,0-.14.38.38,0,0,0-.25-.35v0a.38.38,0,0,0-.38-.38.37.37,0,0,0-.37-.37.38.38,0,0,0-.38.37.38.38,0,0,0-.37.38v0a.37.37,0,0,0-.25.35.32.32,0,0,0,0,.14.38.38,0,0,0-.28.36.36.36,0,0,0,.1.25.39.39,0,0,0-.1.25.38.38,0,0,0,.37.38.32.32,0,0,0,.14,0,.38.38,0,0,0,.36.28l.13,0a.4.4,0,0,1,.12.27v.25h.25v-.25a.37.37,0,0,1,.13-.27l.12,0a.37.37,0,0,0,.36-.28.35.35,0,0,0,.14,0,.38.38,0,0,0,.38-.38.39.39,0,0,0-.1-.25A.36.36,0,0,0,40.71,27.87Zm5.33,0a.38.38,0,0,0-.28-.36.32.32,0,0,0,0-.14.37.37,0,0,0-.25-.35v0a.38.38,0,0,0-.37-.38.38.38,0,0,0-.38-.37.37.37,0,0,0-.37.37A.38.38,0,0,0,44,27v0a.38.38,0,0,0-.25.35.32.32,0,0,0,0,.14.38.38,0,0,0-.28.36.36.36,0,0,0,.1.25.39.39,0,0,0-.1.25.38.38,0,0,0,.38.38.35.35,0,0,0,.14,0,.37.37,0,0,0,.36.28l.12,0a.37.37,0,0,1,.13.27v.25h.25v-.25A.4.4,0,0,1,45,29l.13,0a.38.38,0,0,0,.36-.28.32.32,0,0,0,.14,0,.38.38,0,0,0,.37-.38.39.39,0,0,0-.1-.25A.36.36,0,0,0,46,27.87Z"/><path id="exotic_non_grid_sparse-7" data-name="exotic_non_grid_sparse" class="cls-2" d="M51.28,4.12a.39.39,0,0,1,.1.25.38.38,0,0,1-.38.38.32.32,0,0,1-.14,0A.38.38,0,0,1,50.5,5l-.13,0a.4.4,0,0,0-.12.27V5.5H50V5.25A.4.4,0,0,0,49.88,5l-.13,0a.38.38,0,0,1-.36-.28.32.32,0,0,1-.14,0,.37.37,0,0,1-.37-.38A.38.38,0,0,1,49,4.12a.35.35,0,0,1-.09-.25.37.37,0,0,1,.27-.36.59.59,0,0,1,0-.14A.37.37,0,0,1,49.38,3V3a.37.37,0,0,1,.37-.38.38.38,0,0,1,.75,0,.38.38,0,0,1,.38.38V3a.38.38,0,0,1,.26.35.58.58,0,0,1,0,.14.38.38,0,0,1,.28.36A.36.36,0,0,1,51.28,4.12Zm5.43-.25a.38.38,0,0,0-.28-.36.32.32,0,0,0,0-.14A.38.38,0,0,0,56.21,3V3a.38.38,0,0,0-.38-.38.37.37,0,0,0-.37-.37.38.38,0,0,0-.38.37.38.38,0,0,0-.37.38V3a.37.37,0,0,0-.25.35.32.32,0,0,0,0,.14.38.38,0,0,0-.28.36.36.36,0,0,0,.1.25.39.39,0,0,0-.1.25.38.38,0,0,0,.37.38.32.32,0,0,0,.14,0,.38.38,0,0,0,.36.28l.13,0a.4.4,0,0,1,.12.27V5.5h.25V5.25A.37.37,0,0,1,55.71,5l.12,0a.37.37,0,0,0,.36-.28.35.35,0,0,0,.14,0,.38.38,0,0,0,.38-.38.39.39,0,0,0-.1-.25A.36.36,0,0,0,56.71,3.87Zm5.33,0a.38.38,0,0,0-.28-.36.32.32,0,0,0,0-.14A.37.37,0,0,0,61.54,3V3a.38.38,0,0,0-.37-.38.38.38,0,0,0-.38-.37.37.37,0,0,0-.37.37A.38.38,0,0,0,60,3V3a.38.38,0,0,0-.25.35.32.32,0,0,0,0,.14.38.38,0,0,0-.28.36.36.36,0,0,0,.1.25.39.39,0,0,0-.1.25.38.38,0,0,0,.38.38.35.35,0,0,0,.14,0,.37.37,0,0,0,.36.28l.12,0a.37.37,0,0,1,.13.27V5.5h.25V5.25A.4.4,0,0,1,61,5l.13,0a.38.38,0,0,0,.36-.28.32.32,0,0,0,.14,0A.38.38,0,0,0,62,4.37a.39.39,0,0,0-.1-.25A.36.36,0,0,0,62,3.87Zm-10.66,8a.38.38,0,0,0-.28-.36.58.58,0,0,0,0-.14.38.38,0,0,0-.26-.35v0a.38.38,0,0,0-.38-.38.38.38,0,0,0-.75,0,.37.37,0,0,0-.37.38v0a.37.37,0,0,0-.25.35.59.59,0,0,0,0,.14.37.37,0,0,0-.27.36.35.35,0,0,0,.09.25.38.38,0,0,0-.09.25.37.37,0,0,0,.37.38.32.32,0,0,0,.14,0,.38.38,0,0,0,.36.28l.13,0a.4.4,0,0,1,.12.27v.25h.25v-.25a.4.4,0,0,1,.12-.27l.13,0a.38.38,0,0,0,.36-.28.32.32,0,0,0,.14,0,.38.38,0,0,0,.38-.38.39.39,0,0,0-.1-.25A.36.36,0,0,0,51.38,11.87Zm5.33,0a.38.38,0,0,0-.28-.36.32.32,0,0,0,0-.14.38.38,0,0,0-.25-.35v0a.38.38,0,0,0-.38-.38.37.37,0,0,0-.37-.37.38.38,0,0,0-.38.37.38.38,0,0,0-.37.38v0a.37.37,0,0,0-.25.35.32.32,0,0,0,0,.14.38.38,0,0,0-.28.36.36.36,0,0,0,.1.25.39.39,0,0,0-.1.25.38.38,0,0,0,.37.38.32.32,0,0,0,.14,0,.38.38,0,0,0,.36.28l.13,0a.4.4,0,0,1,.12.27v.25h.25v-.25a.37.37,0,0,1,.13-.27l.12,0a.37.37,0,0,0,.36-.28.35.35,0,0,0,.14,0,.38.38,0,0,0,.38-.38.39.39,0,0,0-.1-.25A.36.36,0,0,0,56.71,11.87Zm5.33,0a.38.38,0,0,0-.28-.36.32.32,0,0,0,0-.14.37.37,0,0,0-.25-.35v0a.38.38,0,0,0-.37-.38.38.38,0,0,0-.38-.37.37.37,0,0,0-.37.37A.38.38,0,0,0,60,11v0a.38.38,0,0,0-.25.35.32.32,0,0,0,0,.14.38.38,0,0,0-.28.36.36.36,0,0,0,.1.25.39.39,0,0,0-.1.25.38.38,0,0,0,.38.38.35.35,0,0,0,.14,0,.37.37,0,0,0,.36.28l.12,0a.37.37,0,0,1,.13.27v.25h.25v-.25A.4.4,0,0,1,61,13l.13,0a.38.38,0,0,0,.36-.28.32.32,0,0,0,.14,0,.38.38,0,0,0,.37-.38.39.39,0,0,0-.1-.25A.36.36,0,0,0,62,11.87Z"/><path id="exotic_non_grid_sparse-8" data-name="exotic_non_grid_sparse" class="cls-2" d="M51.28,20.12a.39.39,0,0,1,.1.25.38.38,0,0,1-.38.38.32.32,0,0,1-.14,0,.38.38,0,0,1-.36.28l-.13,0a.4.4,0,0,0-.12.27v.25H50v-.25a.4.4,0,0,0-.12-.27l-.13,0a.38.38,0,0,1-.36-.28.32.32,0,0,1-.14,0,.37.37,0,0,1-.37-.38.38.38,0,0,1,.09-.25.35.35,0,0,1-.09-.25.37.37,0,0,1,.27-.36.59.59,0,0,1,0-.14.37.37,0,0,1,.25-.35v0a.37.37,0,0,1,.37-.38.38.38,0,0,1,.75,0,.38.38,0,0,1,.38.38v0a.38.38,0,0,1,.26.35.58.58,0,0,1,0,.14.38.38,0,0,1,.28.36A.36.36,0,0,1,51.28,20.12Zm5.43-.25a.38.38,0,0,0-.28-.36.32.32,0,0,0,0-.14.38.38,0,0,0-.25-.35v0a.38.38,0,0,0-.38-.38.37.37,0,0,0-.37-.37.38.38,0,0,0-.38.37.38.38,0,0,0-.37.38v0a.37.37,0,0,0-.25.35.32.32,0,0,0,0,.14.38.38,0,0,0-.28.36.36.36,0,0,0,.1.25.39.39,0,0,0-.1.25.38.38,0,0,0,.37.38.32.32,0,0,0,.14,0,.38.38,0,0,0,.36.28l.13,0a.4.4,0,0,1,.12.27v.25h.25v-.25a.37.37,0,0,1,.13-.27l.12,0a.37.37,0,0,0,.36-.28.35.35,0,0,0,.14,0,.38.38,0,0,0,.38-.38.39.39,0,0,0-.1-.25A.36.36,0,0,0,56.71,19.87Zm5.33,0a.38.38,0,0,0-.28-.36.32.32,0,0,0,0-.14.37.37,0,0,0-.25-.35v0a.38.38,0,0,0-.37-.38.38.38,0,0,0-.38-.37.37.37,0,0,0-.37.37A.38.38,0,0,0,60,19v0a.38.38,0,0,0-.25.35.32.32,0,0,0,0,.14.38.38,0,0,0-.28.36.36.36,0,0,0,.1.25.39.39,0,0,0-.1.25.38.38,0,0,0,.38.38.35.35,0,0,0,.14,0,.37.37,0,0,0,.36.28l.12,0a.37.37,0,0,1,.13.27v.25h.25v-.25A.4.4,0,0,1,61,21l.13,0a.38.38,0,0,0,.36-.28.32.32,0,0,0,.14,0,.38.38,0,0,0,.37-.38.39.39,0,0,0-.1-.25A.36.36,0,0,0,62,19.87Zm-10.66,8a.38.38,0,0,0-.28-.36.58.58,0,0,0,0-.14.38.38,0,0,0-.26-.35v0a.38.38,0,0,0-.38-.38.38.38,0,0,0-.75,0,.37.37,0,0,0-.37.38v0a.37.37,0,0,0-.25.35.59.59,0,0,0,0,.14.37.37,0,0,0-.27.36.35.35,0,0,0,.09.25.38.38,0,0,0-.09.25.37.37,0,0,0,.37.38.32.32,0,0,0,.14,0,.38.38,0,0,0,.36.28l.13,0a.4.4,0,0,1,.12.27v.25h.25v-.25a.4.4,0,0,1,.12-.27l.13,0a.38.38,0,0,0,.36-.28.32.32,0,0,0,.14,0,.38.38,0,0,0,.38-.38.39.39,0,0,0-.1-.25A.36.36,0,0,0,51.38,27.87Zm5.33,0a.38.38,0,0,0-.28-.36.32.32,0,0,0,0-.14.38.38,0,0,0-.25-.35v0a.38.38,0,0,0-.38-.38.37.37,0,0,0-.37-.37.38.38,0,0,0-.38.37.38.38,0,0,0-.37.38v0a.37.37,0,0,0-.25.35.32.32,0,0,0,0,.14.38.38,0,0,0-.28.36.36.36,0,0,0,.1.25.39.39,0,0,0-.1.25.38.38,0,0,0,.37.38.32.32,0,0,0,.14,0,.38.38,0,0,0,.36.28l.13,0a.4.4,0,0,1,.12.27v.25h.25v-.25a.37.37,0,0,1,.13-.27l.12,0a.37.37,0,0,0,.36-.28.35.35,0,0,0,.14,0,.38.38,0,0,0,.38-.38.39.39,0,0,0-.1-.25A.36.36,0,0,0,56.71,27.87Zm5.33,0a.38.38,0,0,0-.28-.36.32.32,0,0,0,0-.14.37.37,0,0,0-.25-.35v0a.38.38,0,0,0-.37-.38.38.38,0,0,0-.38-.37.37.37,0,0,0-.37.37A.38.38,0,0,0,60,27v0a.38.38,0,0,0-.25.35.32.32,0,0,0,0,.14.38.38,0,0,0-.28.36.36.36,0,0,0,.1.25.39.39,0,0,0-.1.25.38.38,0,0,0,.38.38.35.35,0,0,0,.14,0,.37.37,0,0,0,.36.28l.12,0a.37.37,0,0,1,.13.27v.25h.25v-.25A.4.4,0,0,1,61,29l.13,0a.38.38,0,0,0,.36-.28.32.32,0,0,0,.14,0,.38.38,0,0,0,.37-.38.39.39,0,0,0-.1-.25A.36.36,0,0,0,62,27.87Z"/></g><g id="exotic_non_poly_grid_sparse_half-3" data-name="exotic_non_poly_grid_sparse_half"><rect id="bbox_64-3" data-name="bbox_64" class="cls-1" y="32" width="32" height="32"/><path id="exotic_non_grid_sparse-9" data-name="exotic_non_grid_sparse" class="cls-2" d="M3.28,36.12a.39.39,0,0,1,.1.25.38.38,0,0,1-.38.38.32.32,0,0,1-.14,0A.38.38,0,0,1,2.5,37l-.13,0a.4.4,0,0,0-.12.27v.25H2v-.25A.4.4,0,0,0,1.88,37l-.13,0a.38.38,0,0,1-.36-.28.32.32,0,0,1-.14,0,.37.37,0,0,1-.37-.38A.38.38,0,0,1,1,36.12a.35.35,0,0,1-.09-.25.38.38,0,0,1,.27-.36.58.58,0,0,1,0-.14A.38.38,0,0,1,1.38,35v0a.37.37,0,0,1,.37-.38.38.38,0,0,1,.75,0,.38.38,0,0,1,.38.38v0a.37.37,0,0,1,.25.35.59.59,0,0,1,0,.14.38.38,0,0,1,.28.36A.36.36,0,0,1,3.28,36.12Zm5.43-.25a.38.38,0,0,0-.28-.36.32.32,0,0,0,0-.14A.38.38,0,0,0,8.21,35v0a.38.38,0,0,0-.38-.38.37.37,0,0,0-.37-.37.38.38,0,0,0-.38.37.38.38,0,0,0-.37.38v0a.37.37,0,0,0-.25.35.32.32,0,0,0,0,.14.38.38,0,0,0-.28.36.36.36,0,0,0,.1.25.39.39,0,0,0-.1.25.38.38,0,0,0,.37.38.32.32,0,0,0,.14,0,.38.38,0,0,0,.36.28l.13,0a.4.4,0,0,1,.12.27v.25h.25v-.25A.37.37,0,0,1,7.71,37l.12,0a.37.37,0,0,0,.36-.28.35.35,0,0,0,.14,0,.38.38,0,0,0,.38-.38.39.39,0,0,0-.1-.25A.36.36,0,0,0,8.71,35.87Zm5.33,0a.38.38,0,0,0-.28-.36.32.32,0,0,0,0-.14.37.37,0,0,0-.25-.35v0a.38.38,0,0,0-.37-.38.38.38,0,0,0-.38-.37.37.37,0,0,0-.37.37A.38.38,0,0,0,12,35v0a.38.38,0,0,0-.25.35.32.32,0,0,0,0,.14.38.38,0,0,0-.28.36.36.36,0,0,0,.1.25.39.39,0,0,0-.1.25.38.38,0,0,0,.38.38.35.35,0,0,0,.14,0,.37.37,0,0,0,.36.28l.12,0a.37.37,0,0,1,.13.27v.25h.25v-.25A.4.4,0,0,1,13,37l.13,0a.38.38,0,0,0,.36-.28.32.32,0,0,0,.14,0,.38.38,0,0,0,.37-.38.39.39,0,0,0-.1-.25A.36.36,0,0,0,14,35.87Zm-10.66,8a.38.38,0,0,0-.28-.36.59.59,0,0,0,0-.14A.37.37,0,0,0,2.87,43v0a.38.38,0,0,0-.38-.38.38.38,0,0,0-.75,0,.37.37,0,0,0-.37.38v0a.38.38,0,0,0-.26.35.58.58,0,0,0,0,.14.38.38,0,0,0-.27.36.35.35,0,0,0,.09.25.38.38,0,0,0-.09.25.37.37,0,0,0,.37.38.32.32,0,0,0,.14,0,.38.38,0,0,0,.36.28l.13,0a.4.4,0,0,1,.12.27v.25h.25v-.25A.4.4,0,0,1,2.37,45l.13,0a.38.38,0,0,0,.36-.28.32.32,0,0,0,.14,0,.38.38,0,0,0,.38-.38.39.39,0,0,0-.1-.25A.36.36,0,0,0,3.38,43.87Zm5.33,0a.38.38,0,0,0-.28-.36.32.32,0,0,0,0-.14A.38.38,0,0,0,8.21,43v0a.38.38,0,0,0-.38-.38.37.37,0,0,0-.37-.37.38.38,0,0,0-.38.37.38.38,0,0,0-.37.38v0a.37.37,0,0,0-.25.35.32.32,0,0,0,0,.14.38.38,0,0,0-.28.36.36.36,0,0,0,.1.25.39.39,0,0,0-.1.25.38.38,0,0,0,.37.38.32.32,0,0,0,.14,0,.38.38,0,0,0,.36.28l.13,0a.4.4,0,0,1,.12.27v.25h.25v-.25A.37.37,0,0,1,7.71,45l.12,0a.37.37,0,0,0,.36-.28.35.35,0,0,0,.14,0,.38.38,0,0,0,.38-.38.39.39,0,0,0-.1-.25A.36.36,0,0,0,8.71,43.87Zm5.33,0a.38.38,0,0,0-.28-.36.32.32,0,0,0,0-.14.37.37,0,0,0-.25-.35v0a.38.38,0,0,0-.37-.38.38.38,0,0,0-.38-.37.37.37,0,0,0-.37.37A.38.38,0,0,0,12,43v0a.38.38,0,0,0-.25.35.32.32,0,0,0,0,.14.38.38,0,0,0-.28.36.36.36,0,0,0,.1.25.39.39,0,0,0-.1.25.38.38,0,0,0,.38.38.35.35,0,0,0,.14,0,.37.37,0,0,0,.36.28l.12,0a.37.37,0,0,1,.13.27v.25h.25v-.25A.4.4,0,0,1,13,45l.13,0a.38.38,0,0,0,.36-.28.32.32,0,0,0,.14,0,.38.38,0,0,0,.37-.38.39.39,0,0,0-.1-.25A.36.36,0,0,0,14,43.87Z"/><path id="exotic_non_grid_sparse-10" data-name="exotic_non_grid_sparse" class="cls-2" d="M3.28,52.12a.39.39,0,0,1,.1.25.38.38,0,0,1-.38.38.32.32,0,0,1-.14,0A.38.38,0,0,1,2.5,53l-.13,0a.4.4,0,0,0-.12.27v.25H2v-.25A.4.4,0,0,0,1.88,53l-.13,0a.38.38,0,0,1-.36-.28.32.32,0,0,1-.14,0,.37.37,0,0,1-.37-.38A.38.38,0,0,1,1,52.12a.35.35,0,0,1-.09-.25.38.38,0,0,1,.27-.36.58.58,0,0,1,0-.14A.38.38,0,0,1,1.38,51v0a.37.37,0,0,1,.37-.38.38.38,0,0,1,.75,0,.38.38,0,0,1,.38.38v0a.37.37,0,0,1,.25.35.59.59,0,0,1,0,.14.38.38,0,0,1,.28.36A.36.36,0,0,1,3.28,52.12Zm5.43-.25a.38.38,0,0,0-.28-.36.32.32,0,0,0,0-.14A.38.38,0,0,0,8.21,51v0a.38.38,0,0,0-.38-.38.37.37,0,0,0-.37-.37.38.38,0,0,0-.38.37.38.38,0,0,0-.37.38v0a.37.37,0,0,0-.25.35.32.32,0,0,0,0,.14.38.38,0,0,0-.28.36.36.36,0,0,0,.1.25.39.39,0,0,0-.1.25.38.38,0,0,0,.37.38.32.32,0,0,0,.14,0,.38.38,0,0,0,.36.28l.13,0a.4.4,0,0,1,.12.27v.25h.25v-.25A.37.37,0,0,1,7.71,53l.12,0a.37.37,0,0,0,.36-.28.35.35,0,0,0,.14,0,.38.38,0,0,0,.38-.38.39.39,0,0,0-.1-.25A.36.36,0,0,0,8.71,51.87Zm5.33,0a.38.38,0,0,0-.28-.36.32.32,0,0,0,0-.14.37.37,0,0,0-.25-.35v0a.38.38,0,0,0-.37-.38.38.38,0,0,0-.38-.37.37.37,0,0,0-.37.37A.38.38,0,0,0,12,51v0a.38.38,0,0,0-.25.35.32.32,0,0,0,0,.14.38.38,0,0,0-.28.36.36.36,0,0,0,.1.25.39.39,0,0,0-.1.25.38.38,0,0,0,.38.38.35.35,0,0,0,.14,0,.37.37,0,0,0,.36.28l.12,0a.37.37,0,0,1,.13.27v.25h.25v-.25A.4.4,0,0,1,13,53l.13,0a.38.38,0,0,0,.36-.28.32.32,0,0,0,.14,0,.38.38,0,0,0,.37-.38.39.39,0,0,0-.1-.25A.36.36,0,0,0,14,51.87Zm-10.66,8a.38.38,0,0,0-.28-.36.59.59,0,0,0,0-.14A.37.37,0,0,0,2.87,59v0a.38.38,0,0,0-.38-.38.38.38,0,0,0-.75,0,.37.37,0,0,0-.37.38v0a.38.38,0,0,0-.26.35.58.58,0,0,0,0,.14.38.38,0,0,0-.27.36.35.35,0,0,0,.09.25.38.38,0,0,0-.09.25.37.37,0,0,0,.37.38.32.32,0,0,0,.14,0,.38.38,0,0,0,.36.28l.13,0a.4.4,0,0,1,.12.27v.25h.25v-.25A.4.4,0,0,1,2.37,61l.13,0a.38.38,0,0,0,.36-.28.32.32,0,0,0,.14,0,.38.38,0,0,0,.38-.38.39.39,0,0,0-.1-.25A.36.36,0,0,0,3.38,59.87Zm5.33,0a.38.38,0,0,0-.28-.36.32.32,0,0,0,0-.14A.38.38,0,0,0,8.21,59v0a.38.38,0,0,0-.38-.38.37.37,0,0,0-.37-.37.38.38,0,0,0-.38.37.38.38,0,0,0-.37.38v0a.37.37,0,0,0-.25.35.32.32,0,0,0,0,.14.38.38,0,0,0-.28.36.36.36,0,0,0,.1.25.39.39,0,0,0-.1.25.38.38,0,0,0,.37.38.32.32,0,0,0,.14,0,.38.38,0,0,0,.36.28l.13,0a.4.4,0,0,1,.12.27v.25h.25v-.25A.37.37,0,0,1,7.71,61l.12,0a.37.37,0,0,0,.36-.28.35.35,0,0,0,.14,0,.38.38,0,0,0,.38-.38.39.39,0,0,0-.1-.25A.36.36,0,0,0,8.71,59.87Zm5.33,0a.38.38,0,0,0-.28-.36.32.32,0,0,0,0-.14.37.37,0,0,0-.25-.35v0a.38.38,0,0,0-.37-.38.38.38,0,0,0-.38-.37.37.37,0,0,0-.37.37A.38.38,0,0,0,12,59v0a.38.38,0,0,0-.25.35.32.32,0,0,0,0,.14.38.38,0,0,0-.28.36.36.36,0,0,0,.1.25.39.39,0,0,0-.1.25.38.38,0,0,0,.38.38.35.35,0,0,0,.14,0,.37.37,0,0,0,.36.28l.12,0a.37.37,0,0,1,.13.27v.25h.25v-.25A.4.4,0,0,1,13,61l.13,0a.38.38,0,0,0,.36-.28.32.32,0,0,0,.14,0,.38.38,0,0,0,.37-.38.39.39,0,0,0-.1-.25A.36.36,0,0,0,14,59.87Z"/><path id="exotic_non_grid_sparse-11" data-name="exotic_non_grid_sparse" class="cls-2" d="M19.28,36.12a.39.39,0,0,1,.1.25.38.38,0,0,1-.38.38.32.32,0,0,1-.14,0,.38.38,0,0,1-.36.28l-.13,0a.4.4,0,0,0-.12.27v.25H18v-.25a.4.4,0,0,0-.12-.27l-.13,0a.38.38,0,0,1-.36-.28.32.32,0,0,1-.14,0,.37.37,0,0,1-.37-.38.38.38,0,0,1,.09-.25.35.35,0,0,1-.09-.25.38.38,0,0,1,.27-.36.59.59,0,0,1,0-.14.37.37,0,0,1,.25-.35v0a.37.37,0,0,1,.37-.38.38.38,0,0,1,.75,0,.38.38,0,0,1,.38.38v0a.38.38,0,0,1,.26.35.58.58,0,0,1,0,.14.38.38,0,0,1,.28.36A.36.36,0,0,1,19.28,36.12Zm5.43-.25a.38.38,0,0,0-.28-.36.32.32,0,0,0,0-.14.38.38,0,0,0-.25-.35v0a.38.38,0,0,0-.38-.38.37.37,0,0,0-.37-.37.38.38,0,0,0-.38.37.38.38,0,0,0-.37.38v0a.37.37,0,0,0-.25.35.32.32,0,0,0,0,.14.38.38,0,0,0-.28.36.36.36,0,0,0,.1.25.39.39,0,0,0-.1.25.38.38,0,0,0,.37.38.32.32,0,0,0,.14,0,.38.38,0,0,0,.36.28l.13,0a.4.4,0,0,1,.12.27v.25h.25v-.25a.37.37,0,0,1,.13-.27l.12,0a.37.37,0,0,0,.36-.28.35.35,0,0,0,.14,0,.38.38,0,0,0,.38-.38.39.39,0,0,0-.1-.25A.36.36,0,0,0,24.71,35.87Zm5.33,0a.38.38,0,0,0-.28-.36.32.32,0,0,0,0-.14.37.37,0,0,0-.25-.35v0a.38.38,0,0,0-.37-.38.38.38,0,0,0-.38-.37.37.37,0,0,0-.37.37A.38.38,0,0,0,28,35v0a.38.38,0,0,0-.25.35.32.32,0,0,0,0,.14.38.38,0,0,0-.28.36.36.36,0,0,0,.1.25.39.39,0,0,0-.1.25.38.38,0,0,0,.38.38.35.35,0,0,0,.14,0,.37.37,0,0,0,.36.28l.12,0a.37.37,0,0,1,.13.27v.25h.25v-.25A.4.4,0,0,1,29,37l.13,0a.38.38,0,0,0,.36-.28.32.32,0,0,0,.14,0,.38.38,0,0,0,.37-.38.39.39,0,0,0-.1-.25A.36.36,0,0,0,30,35.87Zm-10.66,8a.38.38,0,0,0-.28-.36.58.58,0,0,0,0-.14.38.38,0,0,0-.26-.35v0a.38.38,0,0,0-.38-.38.38.38,0,0,0-.75,0,.37.37,0,0,0-.37.38v0a.37.37,0,0,0-.25.35.59.59,0,0,0,0,.14.38.38,0,0,0-.27.36.35.35,0,0,0,.09.25.38.38,0,0,0-.09.25.37.37,0,0,0,.37.38.32.32,0,0,0,.14,0,.38.38,0,0,0,.36.28l.13,0a.4.4,0,0,1,.12.27v.25h.25v-.25a.4.4,0,0,1,.12-.27l.13,0a.38.38,0,0,0,.36-.28.32.32,0,0,0,.14,0,.38.38,0,0,0,.38-.38.39.39,0,0,0-.1-.25A.36.36,0,0,0,19.38,43.87Zm5.33,0a.38.38,0,0,0-.28-.36.32.32,0,0,0,0-.14.38.38,0,0,0-.25-.35v0a.38.38,0,0,0-.38-.38.37.37,0,0,0-.37-.37.38.38,0,0,0-.38.37.38.38,0,0,0-.37.38v0a.37.37,0,0,0-.25.35.32.32,0,0,0,0,.14.38.38,0,0,0-.28.36.36.36,0,0,0,.1.25.39.39,0,0,0-.1.25.38.38,0,0,0,.37.38.32.32,0,0,0,.14,0,.38.38,0,0,0,.36.28l.13,0a.4.4,0,0,1,.12.27v.25h.25v-.25a.37.37,0,0,1,.13-.27l.12,0a.37.37,0,0,0,.36-.28.35.35,0,0,0,.14,0,.38.38,0,0,0,.38-.38.39.39,0,0,0-.1-.25A.36.36,0,0,0,24.71,43.87Zm5.33,0a.38.38,0,0,0-.28-.36.32.32,0,0,0,0-.14.37.37,0,0,0-.25-.35v0a.38.38,0,0,0-.37-.38.38.38,0,0,0-.38-.37.37.37,0,0,0-.37.37A.38.38,0,0,0,28,43v0a.38.38,0,0,0-.25.35.32.32,0,0,0,0,.14.38.38,0,0,0-.28.36.36.36,0,0,0,.1.25.39.39,0,0,0-.1.25.38.38,0,0,0,.38.38.35.35,0,0,0,.14,0,.37.37,0,0,0,.36.28l.12,0a.37.37,0,0,1,.13.27v.25h.25v-.25A.4.4,0,0,1,29,45l.13,0a.38.38,0,0,0,.36-.28.32.32,0,0,0,.14,0,.38.38,0,0,0,.37-.38.39.39,0,0,0-.1-.25A.36.36,0,0,0,30,43.87Z"/><path id="exotic_non_grid_sparse-12" data-name="exotic_non_grid_sparse" class="cls-2" d="M19.28,52.12a.39.39,0,0,1,.1.25.38.38,0,0,1-.38.38.32.32,0,0,1-.14,0,.38.38,0,0,1-.36.28l-.13,0a.4.4,0,0,0-.12.27v.25H18v-.25a.4.4,0,0,0-.12-.27l-.13,0a.38.38,0,0,1-.36-.28.32.32,0,0,1-.14,0,.37.37,0,0,1-.37-.38.38.38,0,0,1,.09-.25.35.35,0,0,1-.09-.25.37.37,0,0,1,.27-.36.59.59,0,0,1,0-.14.37.37,0,0,1,.25-.35v0a.37.37,0,0,1,.37-.38.38.38,0,0,1,.75,0,.38.38,0,0,1,.38.38v0a.38.38,0,0,1,.26.35.58.58,0,0,1,0,.14.38.38,0,0,1,.28.36A.36.36,0,0,1,19.28,52.12Zm5.43-.25a.38.38,0,0,0-.28-.36.32.32,0,0,0,0-.14.38.38,0,0,0-.25-.35v0a.38.38,0,0,0-.38-.38.37.37,0,0,0-.37-.37.38.38,0,0,0-.38.37.38.38,0,0,0-.37.38v0a.37.37,0,0,0-.25.35.32.32,0,0,0,0,.14.38.38,0,0,0-.28.36.36.36,0,0,0,.1.25.39.39,0,0,0-.1.25.38.38,0,0,0,.37.38.32.32,0,0,0,.14,0,.38.38,0,0,0,.36.28l.13,0a.4.4,0,0,1,.12.27v.25h.25v-.25a.37.37,0,0,1,.13-.27l.12,0a.37.37,0,0,0,.36-.28.35.35,0,0,0,.14,0,.38.38,0,0,0,.38-.38.39.39,0,0,0-.1-.25A.36.36,0,0,0,24.71,51.87Zm5.33,0a.38.38,0,0,0-.28-.36.32.32,0,0,0,0-.14.37.37,0,0,0-.25-.35v0a.38.38,0,0,0-.37-.38.38.38,0,0,0-.38-.37.37.37,0,0,0-.37.37A.38.38,0,0,0,28,51v0a.38.38,0,0,0-.25.35.32.32,0,0,0,0,.14.38.38,0,0,0-.28.36.36.36,0,0,0,.1.25.39.39,0,0,0-.1.25.38.38,0,0,0,.38.38.35.35,0,0,0,.14,0,.37.37,0,0,0,.36.28l.12,0a.37.37,0,0,1,.13.27v.25h.25v-.25A.4.4,0,0,1,29,53l.13,0a.38.38,0,0,0,.36-.28.32.32,0,0,0,.14,0,.38.38,0,0,0,.37-.38.39.39,0,0,0-.1-.25A.36.36,0,0,0,30,51.87Zm-10.66,8a.38.38,0,0,0-.28-.36.58.58,0,0,0,0-.14.38.38,0,0,0-.26-.35v0a.38.38,0,0,0-.38-.38.38.38,0,0,0-.75,0,.37.37,0,0,0-.37.38v0a.37.37,0,0,0-.25.35.59.59,0,0,0,0,.14.38.38,0,0,0-.27.36.35.35,0,0,0,.09.25.38.38,0,0,0-.09.25.37.37,0,0,0,.37.38.32.32,0,0,0,.14,0,.38.38,0,0,0,.36.28l.13,0a.4.4,0,0,1,.12.27v.25h.25v-.25a.4.4,0,0,1,.12-.27l.13,0a.38.38,0,0,0,.36-.28.32.32,0,0,0,.14,0,.38.38,0,0,0,.38-.38.39.39,0,0,0-.1-.25A.36.36,0,0,0,19.38,59.87Zm5.33,0a.38.38,0,0,0-.28-.36.32.32,0,0,0,0-.14.38.38,0,0,0-.25-.35v0a.38.38,0,0,0-.38-.38.37.37,0,0,0-.37-.37.38.38,0,0,0-.38.37.38.38,0,0,0-.37.38v0a.37.37,0,0,0-.25.35.32.32,0,0,0,0,.14.38.38,0,0,0-.28.36.36.36,0,0,0,.1.25.39.39,0,0,0-.1.25.38.38,0,0,0,.37.38.32.32,0,0,0,.14,0,.38.38,0,0,0,.36.28l.13,0a.4.4,0,0,1,.12.27v.25h.25v-.25a.37.37,0,0,1,.13-.27l.12,0a.37.37,0,0,0,.36-.28.35.35,0,0,0,.14,0,.38.38,0,0,0,.38-.38.39.39,0,0,0-.1-.25A.36.36,0,0,0,24.71,59.87Zm5.33,0a.38.38,0,0,0-.28-.36.32.32,0,0,0,0-.14.37.37,0,0,0-.25-.35v0a.38.38,0,0,0-.37-.38.38.38,0,0,0-.38-.37.37.37,0,0,0-.37.37A.38.38,0,0,0,28,59v0a.38.38,0,0,0-.25.35.32.32,0,0,0,0,.14.38.38,0,0,0-.28.36.36.36,0,0,0,.1.25.39.39,0,0,0-.1.25.38.38,0,0,0,.38.38.35.35,0,0,0,.14,0,.37.37,0,0,0,.36.28l.12,0a.37.37,0,0,1,.13.27v.25h.25v-.25A.4.4,0,0,1,29,61l.13,0a.38.38,0,0,0,.36-.28.32.32,0,0,0,.14,0,.38.38,0,0,0,.37-.38.39.39,0,0,0-.1-.25A.36.36,0,0,0,30,59.87Z"/></g><g id="exotic_non_poly_grid_sparse_half-4" data-name="exotic_non_poly_grid_sparse_half"><rect id="bbox_64-4" data-name="bbox_64" class="cls-1" x="32" y="32" width="32" height="32"/><path id="exotic_non_grid_sparse-13" data-name="exotic_non_grid_sparse" class="cls-2" d="M35.28,36.12a.39.39,0,0,1,.1.25.38.38,0,0,1-.38.38.32.32,0,0,1-.14,0,.38.38,0,0,1-.36.28l-.13,0a.4.4,0,0,0-.12.27v.25H34v-.25a.4.4,0,0,0-.12-.27l-.13,0a.38.38,0,0,1-.36-.28.32.32,0,0,1-.14,0,.37.37,0,0,1-.37-.38.38.38,0,0,1,.09-.25.35.35,0,0,1-.09-.25.37.37,0,0,1,.27-.36.58.58,0,0,1,0-.14.38.38,0,0,1,.26-.35v0a.37.37,0,0,1,.37-.38.38.38,0,0,1,.75,0,.38.38,0,0,1,.38.38v0a.37.37,0,0,1,.25.35.59.59,0,0,1,0,.14.38.38,0,0,1,.28.36A.36.36,0,0,1,35.28,36.12Zm5.43-.25a.38.38,0,0,0-.28-.36.32.32,0,0,0,0-.14.38.38,0,0,0-.25-.35v0a.38.38,0,0,0-.38-.38.37.37,0,0,0-.37-.37.38.38,0,0,0-.38.37.38.38,0,0,0-.37.38v0a.37.37,0,0,0-.25.35.32.32,0,0,0,0,.14.38.38,0,0,0-.28.36.36.36,0,0,0,.1.25.39.39,0,0,0-.1.25.38.38,0,0,0,.37.38.32.32,0,0,0,.14,0,.38.38,0,0,0,.36.28l.13,0a.4.4,0,0,1,.12.27v.25h.25v-.25a.37.37,0,0,1,.13-.27l.12,0a.37.37,0,0,0,.36-.28.35.35,0,0,0,.14,0,.38.38,0,0,0,.38-.38.39.39,0,0,0-.1-.25A.36.36,0,0,0,40.71,35.87Zm5.33,0a.38.38,0,0,0-.28-.36.32.32,0,0,0,0-.14.37.37,0,0,0-.25-.35v0a.38.38,0,0,0-.37-.38.38.38,0,0,0-.38-.37.37.37,0,0,0-.37.37A.38.38,0,0,0,44,35v0a.38.38,0,0,0-.25.35.32.32,0,0,0,0,.14.38.38,0,0,0-.28.36.36.36,0,0,0,.1.25.39.39,0,0,0-.1.25.38.38,0,0,0,.38.38.35.35,0,0,0,.14,0,.37.37,0,0,0,.36.28l.12,0a.37.37,0,0,1,.13.27v.25h.25v-.25A.4.4,0,0,1,45,37l.13,0a.38.38,0,0,0,.36-.28.32.32,0,0,0,.14,0,.38.38,0,0,0,.37-.38.39.39,0,0,0-.1-.25A.36.36,0,0,0,46,35.87Zm-10.66,8a.38.38,0,0,0-.28-.36.59.59,0,0,0,0-.14.37.37,0,0,0-.25-.35v0a.38.38,0,0,0-.38-.38.38.38,0,0,0-.75,0,.37.37,0,0,0-.37.38v0a.38.38,0,0,0-.26.35.58.58,0,0,0,0,.14.38.38,0,0,0-.27.36.35.35,0,0,0,.09.25.38.38,0,0,0-.09.25.37.37,0,0,0,.37.38.32.32,0,0,0,.14,0,.38.38,0,0,0,.36.28l.13,0a.4.4,0,0,1,.12.27v.25h.25v-.25a.4.4,0,0,1,.12-.27l.13,0a.38.38,0,0,0,.36-.28.32.32,0,0,0,.14,0,.38.38,0,0,0,.38-.38.39.39,0,0,0-.1-.25A.36.36,0,0,0,35.38,43.87Zm5.33,0a.38.38,0,0,0-.28-.36.32.32,0,0,0,0-.14.38.38,0,0,0-.25-.35v0a.38.38,0,0,0-.38-.38.37.37,0,0,0-.37-.37,19.89,19.89,0,0,0-.75.75v0a.37.37,0,0,0-.25.35.32.32,0,0,0,0,.14.38.38,0,0,0-.28.36.36.36,0,0,0,.1.25.39.39,0,0,0-.1.25.38.38,0,0,0,.37.38.32.32,0,0,0,.14,0,.38.38,0,0,0,.36.28l.13,0a.4.4,0,0,1,.12.27v.25h.25v-.25a.37.37,0,0,1,.13-.27l.12,0a.37.37,0,0,0,.36-.28.35.35,0,0,0,.14,0,.38.38,0,0,0,.38-.38.39.39,0,0,0-.1-.25A.36.36,0,0,0,40.71,43.87Zm5.33,0a.38.38,0,0,0-.28-.36.32.32,0,0,0,0-.14.37.37,0,0,0-.25-.35v0a19.89,19.89,0,0,0-.75-.75.37.37,0,0,0-.37.37A.38.38,0,0,0,44,43v0a.38.38,0,0,0-.25.35.32.32,0,0,0,0,.14.38.38,0,0,0-.28.36.36.36,0,0,0,.1.25.39.39,0,0,0-.1.25.38.38,0,0,0,.38.38.35.35,0,0,0,.14,0,.37.37,0,0,0,.36.28l.12,0a.37.37,0,0,1,.13.27v.25h.25v-.25A.4.4,0,0,1,45,45l.13,0a.38.38,0,0,0,.36-.28.32.32,0,0,0,.14,0,.38.38,0,0,0,.37-.38.39.39,0,0,0-.1-.25A.36.36,0,0,0,46,43.87Z"/><path id="exotic_non_grid_sparse-14" data-name="exotic_non_grid_sparse" class="cls-2" d="M35.28,52.12a.39.39,0,0,1,.1.25.38.38,0,0,1-.38.38.32.32,0,0,1-.14,0,.38.38,0,0,1-.36.28l-.13,0a.4.4,0,0,0-.12.27v.25H34v-.25a.4.4,0,0,0-.12-.27l-.13,0a.38.38,0,0,1-.36-.28.32.32,0,0,1-.14,0,.37.37,0,0,1-.37-.38.38.38,0,0,1,.09-.25.35.35,0,0,1-.09-.25.37.37,0,0,1,.27-.36.58.58,0,0,1,0-.14.38.38,0,0,1,.26-.35v0a.37.37,0,0,1,.37-.38.38.38,0,0,1,.75,0,.38.38,0,0,1,.38.38v0a.37.37,0,0,1,.25.35.59.59,0,0,1,0,.14.38.38,0,0,1,.28.36A.36.36,0,0,1,35.28,52.12Zm5.43-.25a.38.38,0,0,0-.28-.36.32.32,0,0,0,0-.14.38.38,0,0,0-.25-.35v0a.38.38,0,0,0-.38-.38.37.37,0,0,0-.37-.37,19.89,19.89,0,0,0-.75.75v0a.37.37,0,0,0-.25.35.32.32,0,0,0,0,.14.38.38,0,0,0-.28.36.36.36,0,0,0,.1.25.39.39,0,0,0-.1.25.38.38,0,0,0,.37.38.32.32,0,0,0,.14,0,.38.38,0,0,0,.36.28l.13,0a.4.4,0,0,1,.12.27v.25h.25v-.25a.37.37,0,0,1,.13-.27l.12,0a.37.37,0,0,0,.36-.28.35.35,0,0,0,.14,0,.38.38,0,0,0,.38-.38.39.39,0,0,0-.1-.25A.36.36,0,0,0,40.71,51.87Zm5.33,0a.38.38,0,0,0-.28-.36.32.32,0,0,0,0-.14.37.37,0,0,0-.25-.35v0a19.89,19.89,0,0,0-.75-.75.37.37,0,0,0-.37.37A.38.38,0,0,0,44,51v0a.38.38,0,0,0-.25.35.32.32,0,0,0,0,.14.38.38,0,0,0-.28.36.36.36,0,0,0,.1.25.39.39,0,0,0-.1.25.38.38,0,0,0,.38.38.35.35,0,0,0,.14,0,.37.37,0,0,0,.36.28l.12,0a.37.37,0,0,1,.13.27v.25h.25v-.25A.4.4,0,0,1,45,53l.13,0a.38.38,0,0,0,.36-.28.32.32,0,0,0,.14,0,.38.38,0,0,0,.37-.38.39.39,0,0,0-.1-.25A.36.36,0,0,0,46,51.87Zm-10.66,8a.38.38,0,0,0-.28-.36.59.59,0,0,0,0-.14.37.37,0,0,0-.25-.35v0a.38.38,0,0,0-.38-.38.38.38,0,0,0-.75,0,.37.37,0,0,0-.37.38v0a.38.38,0,0,0-.26.35.58.58,0,0,0,0,.14.38.38,0,0,0-.27.36.35.35,0,0,0,.09.25.38.38,0,0,0-.09.25.37.37,0,0,0,.37.38.32.32,0,0,0,.14,0,.38.38,0,0,0,.36.28l.13,0a.4.4,0,0,1,.12.27v.25h.25v-.25a.4.4,0,0,1,.12-.27l.13,0a.38.38,0,0,0,.36-.28.32.32,0,0,0,.14,0,.38.38,0,0,0,.38-.38.39.39,0,0,0-.1-.25A.36.36,0,0,0,35.38,59.87Zm5.33,0a.38.38,0,0,0-.28-.36.32.32,0,0,0,0-.14.38.38,0,0,0-.25-.35v0a.38.38,0,0,0-.38-.38.37.37,0,0,0-.37-.37,19.89,19.89,0,0,0-.75.75v0a.37.37,0,0,0-.25.35.32.32,0,0,0,0,.14.38.38,0,0,0-.28.36.36.36,0,0,0,.1.25.39.39,0,0,0-.1.25.38.38,0,0,0,.37.38.32.32,0,0,0,.14,0,.38.38,0,0,0,.36.28l.13,0a.4.4,0,0,1,.12.27v.25h.25v-.25a.37.37,0,0,1,.13-.27l.12,0a.37.37,0,0,0,.36-.28.35.35,0,0,0,.14,0,.38.38,0,0,0,.38-.38.39.39,0,0,0-.1-.25A.36.36,0,0,0,40.71,59.87Zm5.33,0a.38.38,0,0,0-.28-.36.32.32,0,0,0,0-.14.37.37,0,0,0-.25-.35v0a19.89,19.89,0,0,0-.75-.75.37.37,0,0,0-.37.37A.38.38,0,0,0,44,59v0a.38.38,0,0,0-.25.35.32.32,0,0,0,0,.14.38.38,0,0,0-.28.36.36.36,0,0,0,.1.25.39.39,0,0,0-.1.25.38.38,0,0,0,.38.38.35.35,0,0,0,.14,0,.37.37,0,0,0,.36.28l.12,0a.37.37,0,0,1,.13.27v.25h.25v-.25A.4.4,0,0,1,45,61l.13,0a.38.38,0,0,0,.36-.28.32.32,0,0,0,.14,0,.38.38,0,0,0,.37-.38.39.39,0,0,0-.1-.25A.36.36,0,0,0,46,59.87Z"/><path id="exotic_non_grid_sparse-15" data-name="exotic_non_grid_sparse" class="cls-2" d="M51.28,36.12a.39.39,0,0,1,.1.25.38.38,0,0,1-.38.38.32.32,0,0,1-.14,0,.38.38,0,0,1-.36.28l-.13,0a.4.4,0,0,0-.12.27v.25H50v-.25a.4.4,0,0,0-.12-.27l-.13,0a.38.38,0,0,1-.36-.28.32.32,0,0,1-.14,0,.37.37,0,0,1-.37-.38.38.38,0,0,1,.09-.25.35.35,0,0,1-.09-.25.37.37,0,0,1,.27-.36.59.59,0,0,1,0-.14.37.37,0,0,1,.25-.35v0a.37.37,0,0,1,.37-.38.38.38,0,0,1,.75,0,.38.38,0,0,1,.38.38v0a.38.38,0,0,1,.26.35.58.58,0,0,1,0,.14.38.38,0,0,1,.28.36A.36.36,0,0,1,51.28,36.12Zm5.43-.25a.38.38,0,0,0-.28-.36.32.32,0,0,0,0-.14.38.38,0,0,0-.25-.35v0a.38.38,0,0,0-.38-.38.37.37,0,0,0-.37-.37.38.38,0,0,0-.38.37.38.38,0,0,0-.37.38v0a.37.37,0,0,0-.25.35.32.32,0,0,0,0,.14.38.38,0,0,0-.28.36.36.36,0,0,0,.1.25.39.39,0,0,0-.1.25.38.38,0,0,0,.37.38.32.32,0,0,0,.14,0,.38.38,0,0,0,.36.28l.13,0a.4.4,0,0,1,.12.27v.25h.25v-.25a.37.37,0,0,1,.13-.27l.12,0a.37.37,0,0,0,.36-.28.35.35,0,0,0,.14,0,.38.38,0,0,0,.38-.38.39.39,0,0,0-.1-.25A.36.36,0,0,0,56.71,35.87Zm5.33,0a.38.38,0,0,0-.28-.36.32.32,0,0,0,0-.14.37.37,0,0,0-.25-.35v0a.38.38,0,0,0-.37-.38.38.38,0,0,0-.38-.37.37.37,0,0,0-.37.37A.38.38,0,0,0,60,35v0a.38.38,0,0,0-.25.35.32.32,0,0,0,0,.14.38.38,0,0,0-.28.36.36.36,0,0,0,.1.25.39.39,0,0,0-.1.25.38.38,0,0,0,.38.38.35.35,0,0,0,.14,0,.37.37,0,0,0,.36.28l.12,0a.37.37,0,0,1,.13.27v.25h.25v-.25A.4.4,0,0,1,61,37l.13,0a.38.38,0,0,0,.36-.28.32.32,0,0,0,.14,0,.38.38,0,0,0,.37-.38.39.39,0,0,0-.1-.25A.36.36,0,0,0,62,35.87Zm-10.66,8a.38.38,0,0,0-.28-.36.58.58,0,0,0,0-.14.38.38,0,0,0-.26-.35v0a.38.38,0,0,0-.38-.38.38.38,0,0,0-.75,0,.37.37,0,0,0-.37.38v0a.37.37,0,0,0-.25.35.59.59,0,0,0,0,.14.37.37,0,0,0-.27.36.35.35,0,0,0,.09.25.38.38,0,0,0-.09.25.37.37,0,0,0,.37.38.32.32,0,0,0,.14,0,.38.38,0,0,0,.36.28l.13,0a.4.4,0,0,1,.12.27v.25h.25v-.25a.4.4,0,0,1,.12-.27l.13,0a.38.38,0,0,0,.36-.28.32.32,0,0,0,.14,0,.38.38,0,0,0,.38-.38.39.39,0,0,0-.1-.25A.36.36,0,0,0,51.38,43.87Zm5.33,0a.38.38,0,0,0-.28-.36.32.32,0,0,0,0-.14.38.38,0,0,0-.25-.35v0a.38.38,0,0,0-.38-.38.37.37,0,0,0-.37-.37,19.89,19.89,0,0,0-.75.75v0a.37.37,0,0,0-.25.35.32.32,0,0,0,0,.14.38.38,0,0,0-.28.36.36.36,0,0,0,.1.25.39.39,0,0,0-.1.25.38.38,0,0,0,.37.38.32.32,0,0,0,.14,0,.38.38,0,0,0,.36.28l.13,0a.4.4,0,0,1,.12.27v.25h.25v-.25a.37.37,0,0,1,.13-.27l.12,0a.37.37,0,0,0,.36-.28.35.35,0,0,0,.14,0,.38.38,0,0,0,.38-.38.39.39,0,0,0-.1-.25A.36.36,0,0,0,56.71,43.87Zm5.33,0a.38.38,0,0,0-.28-.36.32.32,0,0,0,0-.14.37.37,0,0,0-.25-.35v0a19.89,19.89,0,0,0-.75-.75.37.37,0,0,0-.37.37A.38.38,0,0,0,60,43v0a.38.38,0,0,0-.25.35.32.32,0,0,0,0,.14.38.38,0,0,0-.28.36.36.36,0,0,0,.1.25.39.39,0,0,0-.1.25.38.38,0,0,0,.38.38.35.35,0,0,0,.14,0,.37.37,0,0,0,.36.28l.12,0a.37.37,0,0,1,.13.27v.25h.25v-.25A.4.4,0,0,1,61,45l.13,0a.38.38,0,0,0,.36-.28.32.32,0,0,0,.14,0,.38.38,0,0,0,.37-.38.39.39,0,0,0-.1-.25A.36.36,0,0,0,62,43.87Z"/><path id="exotic_non_grid_sparse-16" data-name="exotic_non_grid_sparse" class="cls-2" d="M51.28,52.12a.39.39,0,0,1,.1.25.38.38,0,0,1-.38.38.32.32,0,0,1-.14,0,.38.38,0,0,1-.36.28l-.13,0a.4.4,0,0,0-.12.27v.25H50v-.25a.4.4,0,0,0-.12-.27l-.13,0a.38.38,0,0,1-.36-.28.32.32,0,0,1-.14,0,.37.37,0,0,1-.37-.38.38.38,0,0,1,.09-.25.35.35,0,0,1-.09-.25.37.37,0,0,1,.27-.36.59.59,0,0,1,0-.14.37.37,0,0,1,.25-.35v0a.37.37,0,0,1,.37-.38.84.84,0,0,1,1.13.38v0a.38.38,0,0,1,.26.35.58.58,0,0,1,0,.14.38.38,0,0,1,.28.36A.36.36,0,0,1,51.28,52.12Zm5.43-.25a.38.38,0,0,0-.28-.36.32.32,0,0,0,0-.14.38.38,0,0,0-.25-.35v0a.38.38,0,0,0-.38-.38.37.37,0,0,0-.37-.37,19.89,19.89,0,0,0-.75.75v0a.37.37,0,0,0-.25.35.32.32,0,0,0,0,.14.38.38,0,0,0-.28.36.36.36,0,0,0,.1.25.39.39,0,0,0-.1.25.38.38,0,0,0,.37.38.32.32,0,0,0,.14,0,.38.38,0,0,0,.36.28l.13,0a.4.4,0,0,1,.12.27v.25h.25v-.25a.37.37,0,0,1,.13-.27l.12,0a.37.37,0,0,0,.36-.28.35.35,0,0,0,.14,0,.38.38,0,0,0,.38-.38.39.39,0,0,0-.1-.25A.36.36,0,0,0,56.71,51.87Zm5.33,0a.38.38,0,0,0-.28-.36.32.32,0,0,0,0-.14.37.37,0,0,0-.25-.35v0a19.89,19.89,0,0,0-.75-.75.37.37,0,0,0-.37.37A.38.38,0,0,0,60,51v0a.38.38,0,0,0-.25.35.32.32,0,0,0,0,.14.38.38,0,0,0-.28.36.36.36,0,0,0,.1.25.39.39,0,0,0-.1.25.38.38,0,0,0,.38.38.35.35,0,0,0,.14,0,.37.37,0,0,0,.36.28l.12,0a.37.37,0,0,1,.13.27v.25h.25v-.25A.4.4,0,0,1,61,53l.13,0a.38.38,0,0,0,.36-.28.32.32,0,0,0,.14,0,.38.38,0,0,0,.37-.38.39.39,0,0,0-.1-.25A.36.36,0,0,0,62,51.87Zm-10.66,8a.38.38,0,0,0-.28-.36.58.58,0,0,0,0-.14.38.38,0,0,0-.26-.35v0a.38.38,0,0,0-.38-.38.38.38,0,0,0-.75,0,.37.37,0,0,0-.37.38v0a.37.37,0,0,0-.25.35.59.59,0,0,0,0,.14.37.37,0,0,0-.27.36.35.35,0,0,0,.09.25.38.38,0,0,0-.09.25.37.37,0,0,0,.37.38.32.32,0,0,0,.14,0,.38.38,0,0,0,.36.28l.13,0a.4.4,0,0,1,.12.27v.25h.25v-.25a.4.4,0,0,1,.12-.27l.13,0a.38.38,0,0,0,.36-.28.32.32,0,0,0,.14,0,.38.38,0,0,0,.38-.38.39.39,0,0,0-.1-.25A.36.36,0,0,0,51.38,59.87Zm5.33,0a.38.38,0,0,0-.28-.36.32.32,0,0,0,0-.14.38.38,0,0,0-.25-.35v0a.38.38,0,0,0-.38-.38.37.37,0,0,0-.37-.37,19.89,19.89,0,0,0-.75.75v0a.37.37,0,0,0-.25.35.32.32,0,0,0,0,.14.38.38,0,0,0-.28.36.36.36,0,0,0,.1.25.39.39,0,0,0-.1.25.38.38,0,0,0,.37.38.32.32,0,0,0,.14,0,.38.38,0,0,0,.36.28l.13,0a.4.4,0,0,1,.12.27v.25h.25v-.25a.37.37,0,0,1,.13-.27l.12,0a.37.37,0,0,0,.36-.28.35.35,0,0,0,.14,0,.38.38,0,0,0,.38-.38.39.39,0,0,0-.1-.25A.36.36,0,0,0,56.71,59.87Zm5.33,0a.38.38,0,0,0-.28-.36.32.32,0,0,0,0-.14.37.37,0,0,0-.25-.35v0a19.89,19.89,0,0,0-.75-.75.37.37,0,0,0-.37.37A.38.38,0,0,0,60,59v0a.38.38,0,0,0-.25.35.32.32,0,0,0,0,.14.38.38,0,0,0-.28.36.36.36,0,0,0,.1.25.39.39,0,0,0-.1.25.38.38,0,0,0,.38.38.35.35,0,0,0,.14,0,.37.37,0,0,0,.36.28l.12,0a.37.37,0,0,1,.13.27v.25h.25v-.25A.4.4,0,0,1,61,61l.13,0a.38.38,0,0,0,.36-.28.32.32,0,0,0,.14,0,.38.38,0,0,0,.37-.38.39.39,0,0,0-.1-.25A.36.36,0,0,0,62,59.87Z"/></g></svg>