<svg id="Sprites" xmlns="http://www.w3.org/2000/svg" viewBox="0 0 64 64"><defs><style>.cls-1{fill:none;}.cls-2{fill:#236035;}</style></defs><g id="exotic_non_poly_green_grid_sparse"><rect id="bbox_64" class="cls-1" width="64" height="64"/><path id="exotic_non_grid_sparse" class="cls-2" d="M13.11,16.5A1.49,1.49,0,0,1,12,19a1.47,1.47,0,0,1-.56-.11A1.49,1.49,0,0,1,10,20a1.71,1.71,0,0,1-.51-.09A1.58,1.58,0,0,0,9,21v1H8V21a1.58,1.58,0,0,0-.49-1.09A1.71,1.71,0,0,1,7,20a1.49,1.49,0,0,1-1.44-1.11A1.47,1.47,0,0,1,5,19a1.49,1.49,0,0,1-1.11-2.5,1.49,1.49,0,0,1,.72-2.44,1.49,1.49,0,0,1,.9-2s0-.06,0-.09A1.5,1.5,0,0,1,7,10.5a1.5,1.5,0,0,1,3,0A1.5,1.5,0,0,1,11.5,12s0,.06,0,.09a1.49,1.49,0,0,1,.9,2,1.49,1.49,0,0,1,.72,2.44Zm21.72-1a1.49,1.49,0,0,0-1.11-1.44,1.49,1.49,0,0,0-.9-2,.28.28,0,0,0,0-.09,1.5,1.5,0,0,0-1.5-1.5,1.5,1.5,0,0,0-3,0,1.5,1.5,0,0,0-1.5,1.5s0,.06,0,.09a1.49,1.49,0,0,0-1,1.41,1.47,1.47,0,0,0,.11.56,1.5,1.5,0,0,0-1.11,1.44,1.49,1.49,0,0,0,.39,1A1.49,1.49,0,0,0,26.33,19a1.47,1.47,0,0,0,.56-.11A1.49,1.49,0,0,0,28.33,20a1.71,1.71,0,0,0,.51-.09A1.54,1.54,0,0,1,29.33,21v1h1V21a1.58,1.58,0,0,1,.49-1.09,1.71,1.71,0,0,0,.51.09,1.5,1.5,0,0,0,1.45-1.11,1.46,1.46,0,0,0,.55.11,1.49,1.49,0,0,0,1.11-2.5A1.49,1.49,0,0,0,34.83,15.5Zm21.34,0a1.5,1.5,0,0,0-1.11-1.44,1.47,1.47,0,0,0,.11-.56,1.49,1.49,0,0,0-1-1.41s0-.06,0-.09a1.5,1.5,0,0,0-1.5-1.5,1.5,1.5,0,0,0-3,0,1.5,1.5,0,0,0-1.5,1.5.28.28,0,0,0,0,.09,1.49,1.49,0,0,0-.9,2,1.49,1.49,0,0,0-.72,2.44A1.49,1.49,0,0,0,47.67,19a1.46,1.46,0,0,0,.55-.11A1.5,1.5,0,0,0,49.67,20a1.71,1.71,0,0,0,.51-.09A1.58,1.58,0,0,1,50.67,21v1h1V21a1.54,1.54,0,0,1,.49-1.09,1.71,1.71,0,0,0,.51.09,1.49,1.49,0,0,0,1.44-1.11,1.47,1.47,0,0,0,.56.11,1.49,1.49,0,0,0,1.11-2.5A1.49,1.49,0,0,0,56.17,15.5ZM13.5,47.5a1.49,1.49,0,0,0-1.11-1.44,1.49,1.49,0,0,0-.9-2s0-.06,0-.09A1.5,1.5,0,0,0,10,42.5a1.5,1.5,0,0,0-3,0A1.5,1.5,0,0,0,5.5,44s0,.06,0,.09a1.49,1.49,0,0,0-.9,2,1.49,1.49,0,0,0-.72,2.44A1.49,1.49,0,0,0,5,51a1.47,1.47,0,0,0,.56-.11A1.49,1.49,0,0,0,7,52a1.71,1.71,0,0,0,.51-.09A1.58,1.58,0,0,1,8,53v1H9V53a1.58,1.58,0,0,1,.49-1.09A1.71,1.71,0,0,0,10,52a1.49,1.49,0,0,0,1.44-1.11A1.47,1.47,0,0,0,12,51a1.49,1.49,0,0,0,1.11-2.5A1.49,1.49,0,0,0,13.5,47.5Zm21.33,0a1.49,1.49,0,0,0-1.11-1.44,1.49,1.49,0,0,0-.9-2,.28.28,0,0,0,0-.09,1.5,1.5,0,0,0-1.5-1.5,1.5,1.5,0,0,0-3,0,1.5,1.5,0,0,0-1.5,1.5s0,.06,0,.09a1.49,1.49,0,0,0-1,1.41,1.47,1.47,0,0,0,.11.56,1.5,1.5,0,0,0-1.11,1.44,1.49,1.49,0,0,0,.39,1A1.49,1.49,0,0,0,26.33,51a1.47,1.47,0,0,0,.56-.11A1.49,1.49,0,0,0,28.33,52a1.71,1.71,0,0,0,.51-.09A1.54,1.54,0,0,1,29.33,53v1h1V53a1.58,1.58,0,0,1,.49-1.09,1.71,1.71,0,0,0,.51.09,1.5,1.5,0,0,0,1.45-1.11,1.46,1.46,0,0,0,.55.11,1.49,1.49,0,0,0,1.11-2.5A1.49,1.49,0,0,0,34.83,47.5Zm21.34,0a1.5,1.5,0,0,0-1.11-1.44,1.47,1.47,0,0,0,.11-.56,1.49,1.49,0,0,0-1-1.41s0-.06,0-.09a1.5,1.5,0,0,0-1.5-1.5,1.5,1.5,0,0,0-3,0,1.5,1.5,0,0,0-1.5,1.5.28.28,0,0,0,0,.09,1.49,1.49,0,0,0-.9,2,1.49,1.49,0,0,0-.72,2.44A1.49,1.49,0,0,0,47.67,51a1.46,1.46,0,0,0,.55-.11A1.5,1.5,0,0,0,49.67,52a1.71,1.71,0,0,0,.51-.09A1.58,1.58,0,0,1,50.67,53v1h1V53a1.54,1.54,0,0,1,.49-1.09,1.71,1.71,0,0,0,.51.09,1.49,1.49,0,0,0,1.44-1.11,1.47,1.47,0,0,0,.56.11,1.49,1.49,0,0,0,1.11-2.5A1.49,1.49,0,0,0,56.17,47.5Z"/></g></svg>