<svg id="Sprites" xmlns="http://www.w3.org/2000/svg" viewBox="0 0 64 64"><defs><style>.cls-1{fill:none;}.cls-2{fill:#236035;}</style></defs><g id="exotic_con_poly_random_sparse_half"><rect id="bbox_64" class="cls-1" width="64" height="64"/><path id="exotic_con_random_sparse" class="cls-2" d="M9.72,10.23a.24.24,0,0,1-.22.14H7.75v.5h-.5v-.5H5.5a.24.24,0,0,1-.22-.14.23.23,0,0,1,0-.26L6.65,8.12H6A.24.24,0,0,1,5.78,8a.23.23,0,0,1,0-.26L7,6.12H6.5A.25.25,0,0,1,6.28,6a.27.27,0,0,1,0-.26l1-1.5a.26.26,0,0,1,.42,0l1,1.5a.27.27,0,0,1,0,.26.25.25,0,0,1-.22.13H8l1.2,1.6a.23.23,0,0,1,0,.26A.24.24,0,0,1,9,8.12H8.35L9.7,10A.23.23,0,0,1,9.72,10.23Zm15,2.24-1.35-1.85H24a.24.24,0,0,0,.22-.14.23.23,0,0,0,0-.26L23,8.62h.5a.25.25,0,0,0,.22-.13.27.27,0,0,0,0-.26l-1-1.5a.26.26,0,0,0-.42,0l-1,1.5a.27.27,0,0,0,0,.26.25.25,0,0,0,.22.13H22l-1.2,1.6a.23.23,0,0,0,0,.26.24.24,0,0,0,.22.14h.65L20.3,12.47a.23.23,0,0,0,0,.26.24.24,0,0,0,.22.14h1.75v.5h.5v-.5H24.5a.24.24,0,0,0,.22-.14A.23.23,0,0,0,24.7,12.47Zm-10.5,10-1.35-1.85h.65a.24.24,0,0,0,.22-.14.23.23,0,0,0,0-.26l-1.2-1.6H13a.25.25,0,0,0,.22-.13.27.27,0,0,0,0-.26l-1-1.5a.26.26,0,0,0-.42,0l-1,1.5a.27.27,0,0,0,0,.26.25.25,0,0,0,.22.13h.5l-1.2,1.6a.23.23,0,0,0,0,.26.24.24,0,0,0,.22.14h.65L9.8,22.47a.23.23,0,0,0,0,.26.24.24,0,0,0,.22.14h1.75v.5h.5v-.5H14a.24.24,0,0,0,.22-.14A.23.23,0,0,0,14.2,22.47Zm13,5-1.35-1.85h.65a.24.24,0,0,0,.22-.14.23.23,0,0,0,0-.26l-1.2-1.6H26a.25.25,0,0,0,.22-.13.27.27,0,0,0,0-.26l-1-1.5a.26.26,0,0,0-.42,0l-1,1.5a.27.27,0,0,0,0,.26.25.25,0,0,0,.22.13h.5l-1.2,1.6a.23.23,0,0,0,0,.26.24.24,0,0,0,.22.14h.65L22.8,27.47a.23.23,0,0,0,0,.26.24.24,0,0,0,.22.14h1.75v.5h.5v-.5H27a.24.24,0,0,0,.22-.14A.23.23,0,0,0,27.2,27.47Z"/><path id="exotic_con_random_sparse-2" data-name="exotic_con_random_sparse" class="cls-2" d="M41.72,10.23a.24.24,0,0,1-.22.14H39.75v.5h-.5v-.5H37.5a.24.24,0,0,1-.22-.14.23.23,0,0,1,0-.26l1.35-1.85H38A.24.24,0,0,1,37.78,8a.23.23,0,0,1,0-.26L39,6.12h-.5A.25.25,0,0,1,38.28,6a.27.27,0,0,1,0-.26l1-1.5a.26.26,0,0,1,.42,0l1,1.5a.27.27,0,0,1,0,.26.25.25,0,0,1-.22.13H40l1.2,1.6a.23.23,0,0,1,0,.26.24.24,0,0,1-.22.14h-.65L41.7,10A.23.23,0,0,1,41.72,10.23Zm15,2.24-1.35-1.85H56a.24.24,0,0,0,.22-.14.23.23,0,0,0,0-.26L55,8.62h.5a.25.25,0,0,0,.22-.13.27.27,0,0,0,0-.26l-1-1.5a.26.26,0,0,0-.42,0l-1,1.5a.27.27,0,0,0,0,.26.25.25,0,0,0,.22.13H54l-1.2,1.6a.23.23,0,0,0,0,.26.24.24,0,0,0,.22.14h.65L52.3,12.47a.23.23,0,0,0,0,.26.24.24,0,0,0,.22.14h1.75v.5h.5v-.5H56.5a.24.24,0,0,0,.22-.14A.23.23,0,0,0,56.7,12.47Zm-10.5,10-1.35-1.85h.65a.24.24,0,0,0,.22-.14.23.23,0,0,0,0-.26l-1.2-1.6H45a.25.25,0,0,0,.22-.13.27.27,0,0,0,0-.26l-1-1.5a.26.26,0,0,0-.42,0l-1,1.5a.27.27,0,0,0,0,.26.25.25,0,0,0,.22.13h.5l-1.2,1.6a.23.23,0,0,0,0,.26.24.24,0,0,0,.22.14h.65L41.8,22.47a.23.23,0,0,0,0,.26.24.24,0,0,0,.22.14h1.75v.5h.5v-.5H46a.24.24,0,0,0,.22-.14A.23.23,0,0,0,46.2,22.47Zm13,5-1.35-1.85h.65a.24.24,0,0,0,.22-.14.23.23,0,0,0,0-.26l-1.2-1.6H58a.25.25,0,0,0,.22-.13.27.27,0,0,0,0-.26l-1-1.5a.26.26,0,0,0-.42,0l-1,1.5a.27.27,0,0,0,0,.26.25.25,0,0,0,.22.13h.5l-1.2,1.6a.23.23,0,0,0,0,.26.24.24,0,0,0,.22.14h.65L54.8,27.47a.23.23,0,0,0,0,.26.24.24,0,0,0,.22.14h1.75v.5h.5v-.5H59a.24.24,0,0,0,.22-.14A.23.23,0,0,0,59.2,27.47Z"/><path id="exotic_con_random_sparse-3" data-name="exotic_con_random_sparse" class="cls-2" d="M9.72,42.23a.24.24,0,0,1-.22.14H7.75v.5h-.5v-.5H5.5a.24.24,0,0,1-.22-.14.23.23,0,0,1,0-.26l1.35-1.85H6A.24.24,0,0,1,5.78,40a.23.23,0,0,1,0-.26L7,38.12H6.5A.25.25,0,0,1,6.28,38a.27.27,0,0,1,0-.26l1-1.5a.26.26,0,0,1,.42,0l1,1.5a.27.27,0,0,1,0,.26.25.25,0,0,1-.22.13H8l1.2,1.6a.23.23,0,0,1,0,.26.24.24,0,0,1-.22.14H8.35L9.7,42A.23.23,0,0,1,9.72,42.23Zm15,2.24-1.35-1.85H24a.24.24,0,0,0,.22-.14.23.23,0,0,0,0-.26L23,40.62h.5a.25.25,0,0,0,.22-.13.27.27,0,0,0,0-.26l-1-1.5a.26.26,0,0,0-.42,0l-1,1.5a.27.27,0,0,0,0,.26.25.25,0,0,0,.22.13H22l-1.2,1.6a.23.23,0,0,0,0,.26.24.24,0,0,0,.22.14h.65L20.3,44.47a.23.23,0,0,0,0,.26.24.24,0,0,0,.22.14h1.75v.5h.5v-.5H24.5a.24.24,0,0,0,.22-.14A.23.23,0,0,0,24.7,44.47Zm-10.5,10-1.35-1.85h.65a.24.24,0,0,0,.22-.14.23.23,0,0,0,0-.26l-1.2-1.6H13a.25.25,0,0,0,.22-.13.27.27,0,0,0,0-.26l-1-1.5a.26.26,0,0,0-.42,0l-1,1.5a.27.27,0,0,0,0,.26.25.25,0,0,0,.22.13h.5l-1.2,1.6a.23.23,0,0,0,0,.26.24.24,0,0,0,.22.14h.65L9.8,54.47a.23.23,0,0,0,0,.26.24.24,0,0,0,.22.14h1.75v.5h.5v-.5H14a.24.24,0,0,0,.22-.14A.23.23,0,0,0,14.2,54.47Zm13,5-1.35-1.85h.65a.24.24,0,0,0,.22-.14.23.23,0,0,0,0-.26l-1.2-1.6H26a.25.25,0,0,0,.22-.13.27.27,0,0,0,0-.26l-1-1.5a.26.26,0,0,0-.42,0l-1,1.5a.27.27,0,0,0,0,.26.25.25,0,0,0,.22.13h.5l-1.2,1.6a.23.23,0,0,0,0,.26.24.24,0,0,0,.22.14h.65L22.8,59.47a.23.23,0,0,0,0,.26.24.24,0,0,0,.22.14h1.75v.5h.5v-.5H27a.24.24,0,0,0,.22-.14A.23.23,0,0,0,27.2,59.47Z"/><path id="exotic_con_random_sparse-4" data-name="exotic_con_random_sparse" class="cls-2" d="M41.72,42.23a.24.24,0,0,1-.22.14H39.75v.5h-.5v-.5H37.5a.24.24,0,0,1-.22-.14.23.23,0,0,1,0-.26l1.35-1.85H38a.24.24,0,0,1-.22-.14.23.23,0,0,1,0-.26l1.2-1.6h-.5a.25.25,0,0,1-.22-.13.27.27,0,0,1,0-.26l1-1.5a.26.26,0,0,1,.42,0l1,1.5a.27.27,0,0,1,0,.26.25.25,0,0,1-.22.13H40l1.2,1.6a.23.23,0,0,1,0,.26.24.24,0,0,1-.22.14h-.65L41.7,42A.23.23,0,0,1,41.72,42.23Zm15,2.24-1.35-1.85H56a.24.24,0,0,0,.22-.14.23.23,0,0,0,0-.26L55,40.62h.5a.25.25,0,0,0,.22-.13.27.27,0,0,0,0-.26l-1-1.5a.26.26,0,0,0-.42,0l-1,1.5a.27.27,0,0,0,0,.26.25.25,0,0,0,.22.13H54l-1.2,1.6a.23.23,0,0,0,0,.26.24.24,0,0,0,.22.14h.65L52.3,44.47a.23.23,0,0,0,0,.26.24.24,0,0,0,.22.14h1.75v.5h.5v-.5H56.5a.24.24,0,0,0,.22-.14A.23.23,0,0,0,56.7,44.47Zm-10.5,10-1.35-1.85h.65a.24.24,0,0,0,.22-.14.23.23,0,0,0,0-.26l-1.2-1.6H45a.25.25,0,0,0,.22-.13.27.27,0,0,0,0-.26l-1-1.5a.26.26,0,0,0-.42,0l-1,1.5a.27.27,0,0,0,0,.26.25.25,0,0,0,.22.13h.5l-1.2,1.6a.23.23,0,0,0,0,.26.24.24,0,0,0,.22.14h.65L41.8,54.47a.23.23,0,0,0,0,.26.24.24,0,0,0,.22.14h1.75v.5h.5v-.5H46a.24.24,0,0,0,.22-.14A.23.23,0,0,0,46.2,54.47Zm13,5-1.35-1.85h.65a.24.24,0,0,0,.22-.14.23.23,0,0,0,0-.26l-1.2-1.6H58a.25.25,0,0,0,.22-.13.27.27,0,0,0,0-.26l-1-1.5a.26.26,0,0,0-.42,0l-1,1.5a.27.27,0,0,0,0,.26.25.25,0,0,0,.22.13h.5l-1.2,1.6a.23.23,0,0,0,0,.26.24.24,0,0,0,.22.14h.65L54.8,59.47a.23.23,0,0,0,0,.26.24.24,0,0,0,.22.14h1.75v.5h.5v-.5H59a.24.24,0,0,0,.22-.14A.23.23,0,0,0,59.2,59.47Z"/></g></svg>