<svg id="Sprites" xmlns="http://www.w3.org/2000/svg" viewBox="0 0 16 16"><defs><style>.cls-1{fill:none;}.cls-2{fill:#236035;}</style></defs><g id="exotic_con_pnt_dual"><rect id="bbox_16" class="cls-1" width="16" height="16"/><rect id="exotic_con_trunk" x="7.5" y="13.5" width="1" height="1"/><path id="exotic_con_tree" class="cls-2" d="M12.45,13.23a.52.52,0,0,1-.45.27H4a.52.52,0,0,1-.45-.27.51.51,0,0,1,.05-.52L6.29,9H5a.5.5,0,0,1-.4-.8L7,5H6a.5.5,0,0,1-.42-.78l2-3a.54.54,0,0,1,.84,0l2,3A.5.5,0,0,1,10,5H9l2.4,3.2A.5.5,0,0,1,11,9H9.71l2.69,3.71A.51.51,0,0,1,12.45,13.23Z"/></g></svg>