<svg id="Sprites" xmlns="http://www.w3.org/2000/svg" viewBox="0 0 64 64"><defs><style>.cls-1{fill:none;}.cls-2{fill:#236035;}</style></defs><g id="exotic_con_poly_grid_sparse_half"><rect id="bbox_64" class="cls-1" width="64" height="64"/><path id="exotic_con_grid_sparse" class="cls-2" d="M6.47,8.36a.24.24,0,0,1-.22.14H4.5V9H4V8.5H2.25A.24.24,0,0,1,2,8.36a.23.23,0,0,1,0-.26L3.4,6.25H2.75a.24.24,0,0,1-.22-.14.23.23,0,0,1,0-.26l1.2-1.6h-.5A.25.25,0,0,1,3,4.12a.27.27,0,0,1,0-.26l1-1.5a.26.26,0,0,1,.42,0l1,1.5a.27.27,0,0,1,0,.26.25.25,0,0,1-.22.13h-.5L6,5.85a.23.23,0,0,1,0,.26.24.24,0,0,1-.22.14H5.1L6.45,8.1A.23.23,0,0,1,6.47,8.36ZM17.12,8.1,15.77,6.25h.65a.24.24,0,0,0,.22-.14.27.27,0,0,0,0-.26l-1.2-1.6h.5a.26.26,0,0,0,.22-.13.25.25,0,0,0,0-.26l-1-1.5a.25.25,0,0,0-.41,0l-1,1.5a.24.24,0,0,0,0,.26.24.24,0,0,0,.22.13h.5l-1.2,1.6a.25.25,0,0,0,0,.26.25.25,0,0,0,.23.14h.64L12.71,8.1a.27.27,0,0,0,0,.26.25.25,0,0,0,.23.14h1.75V9h.5V8.5h1.75a.24.24,0,0,0,.22-.14A.27.27,0,0,0,17.12,8.1Zm10.67,0L26.44,6.25h.64a.25.25,0,0,0,.23-.14.25.25,0,0,0,0-.26l-1.2-1.6h.5a.24.24,0,0,0,.22-.13.24.24,0,0,0,0-.26l-1-1.5a.25.25,0,0,0-.41,0l-1,1.5a.25.25,0,0,0,0,.26.26.26,0,0,0,.22.13h.5l-1.2,1.6a.27.27,0,0,0,0,.26.24.24,0,0,0,.22.14h.65L23.38,8.1a.27.27,0,0,0,0,.26.24.24,0,0,0,.22.14h1.75V9h.5V8.5h1.75a.25.25,0,0,0,.23-.14A.27.27,0,0,0,27.79,8.1ZM6.45,24.1,5.1,22.25h.65A.24.24,0,0,0,6,22.11a.23.23,0,0,0,0-.26l-1.2-1.6h.5a.25.25,0,0,0,.22-.13.27.27,0,0,0,0-.26l-1-1.5a.26.26,0,0,0-.42,0l-1,1.5a.27.27,0,0,0,0,.26.25.25,0,0,0,.22.13h.5l-1.2,1.6a.23.23,0,0,0,0,.26.24.24,0,0,0,.22.14H3.4L2.05,24.1a.23.23,0,0,0,0,.26.24.24,0,0,0,.22.14H4V25h.5v-.5H6.25a.24.24,0,0,0,.22-.14A.23.23,0,0,0,6.45,24.1Zm10.67,0-1.35-1.85h.65a.24.24,0,0,0,.22-.14.27.27,0,0,0,0-.26l-1.2-1.6h.5a.26.26,0,0,0,.22-.13.25.25,0,0,0,0-.26l-1-1.5a.25.25,0,0,0-.41,0l-1,1.5a.24.24,0,0,0,0,.26.24.24,0,0,0,.22.13h.5l-1.2,1.6a.25.25,0,0,0,0,.26.25.25,0,0,0,.23.14h.64L12.71,24.1a.27.27,0,0,0,0,.26.25.25,0,0,0,.23.14h1.75V25h.5v-.5h1.75a.24.24,0,0,0,.22-.14A.27.27,0,0,0,17.12,24.1Zm10.67,0-1.35-1.85h.64a.25.25,0,0,0,.23-.14.25.25,0,0,0,0-.26l-1.2-1.6h.5a.24.24,0,0,0,.22-.13.24.24,0,0,0,0-.26l-1-1.5a.25.25,0,0,0-.41,0l-1,1.5a.25.25,0,0,0,0,.26.26.26,0,0,0,.22.13h.5l-1.2,1.6a.27.27,0,0,0,0,.26.24.24,0,0,0,.22.14h.65L23.38,24.1a.27.27,0,0,0,0,.26.24.24,0,0,0,.22.14h1.75V25h.5v-.5h1.75a.25.25,0,0,0,.23-.14A.27.27,0,0,0,27.79,24.1Z"/><path id="exotic_con_grid_sparse-2" data-name="exotic_con_grid_sparse" class="cls-2" d="M6.47,40.36a.24.24,0,0,1-.22.14H4.5V41H4v-.5H2.25A.24.24,0,0,1,2,40.36a.23.23,0,0,1,0-.26L3.4,38.25H2.75a.24.24,0,0,1-.22-.14.23.23,0,0,1,0-.26l1.2-1.6h-.5A.25.25,0,0,1,3,36.12a.27.27,0,0,1,0-.26l1-1.5a.26.26,0,0,1,.42,0l1,1.5a.27.27,0,0,1,0,.26.25.25,0,0,1-.22.13h-.5L6,37.85a.23.23,0,0,1,0,.26.24.24,0,0,1-.22.14H5.1L6.45,40.1A.23.23,0,0,1,6.47,40.36Zm10.65-.26-1.35-1.85h.65a.24.24,0,0,0,.22-.14.27.27,0,0,0,0-.26l-1.2-1.6h.5a.26.26,0,0,0,.22-.13.25.25,0,0,0,0-.26l-1-1.5a.25.25,0,0,0-.41,0l-1,1.5a.24.24,0,0,0,0,.26.24.24,0,0,0,.22.13h.5l-1.2,1.6a.25.25,0,0,0,0,.26.25.25,0,0,0,.23.14h.64L12.71,40.1a.27.27,0,0,0,0,.26.25.25,0,0,0,.23.14h1.75V41h.5v-.5h1.75a.24.24,0,0,0,.22-.14A.27.27,0,0,0,17.12,40.1Zm10.67,0-1.35-1.85h.64a.25.25,0,0,0,.23-.14.25.25,0,0,0,0-.26l-1.2-1.6h.5a.24.24,0,0,0,.22-.13.24.24,0,0,0,0-.26l-1-1.5a.25.25,0,0,0-.41,0l-1,1.5a.25.25,0,0,0,0,.26.26.26,0,0,0,.22.13h.5l-1.2,1.6a.27.27,0,0,0,0,.26.24.24,0,0,0,.22.14h.65L23.38,40.1a.27.27,0,0,0,0,.26.24.24,0,0,0,.22.14h1.75V41h.5v-.5h1.75a.25.25,0,0,0,.23-.14A.27.27,0,0,0,27.79,40.1ZM6.45,56.1,5.1,54.25h.65A.24.24,0,0,0,6,54.11a.23.23,0,0,0,0-.26l-1.2-1.6h.5a.25.25,0,0,0,.22-.13.27.27,0,0,0,0-.26l-1-1.5a.26.26,0,0,0-.42,0l-1,1.5a.27.27,0,0,0,0,.26.25.25,0,0,0,.22.13h.5l-1.2,1.6a.23.23,0,0,0,0,.26.24.24,0,0,0,.22.14H3.4L2.05,56.1a.23.23,0,0,0,0,.26.24.24,0,0,0,.22.14H4V57h.5v-.5H6.25a.24.24,0,0,0,.22-.14A.23.23,0,0,0,6.45,56.1Zm10.67,0-1.35-1.85h.65a.24.24,0,0,0,.22-.14.27.27,0,0,0,0-.26l-1.2-1.6h.5a.26.26,0,0,0,.22-.13.25.25,0,0,0,0-.26l-1-1.5a.25.25,0,0,0-.41,0l-1,1.5a.24.24,0,0,0,0,.26.24.24,0,0,0,.22.13h.5l-1.2,1.6a.25.25,0,0,0,0,.26.25.25,0,0,0,.23.14h.64L12.71,56.1a.27.27,0,0,0,0,.26.25.25,0,0,0,.23.14h1.75V57h.5v-.5h1.75a.24.24,0,0,0,.22-.14A.27.27,0,0,0,17.12,56.1Zm10.67,0-1.35-1.85h.64a.25.25,0,0,0,.23-.14.25.25,0,0,0,0-.26l-1.2-1.6h.5a.24.24,0,0,0,.22-.13.24.24,0,0,0,0-.26l-1-1.5a.25.25,0,0,0-.41,0l-1,1.5a.25.25,0,0,0,0,.26.26.26,0,0,0,.22.13h.5l-1.2,1.6a.27.27,0,0,0,0,.26.24.24,0,0,0,.22.14h.65L23.38,56.1a.27.27,0,0,0,0,.26.24.24,0,0,0,.22.14h1.75V57h.5v-.5h1.75a.25.25,0,0,0,.23-.14A.27.27,0,0,0,27.79,56.1Z"/><path id="exotic_con_grid_sparse-3" data-name="exotic_con_grid_sparse" class="cls-2" d="M38.47,8.36a.24.24,0,0,1-.22.14H36.5V9H36V8.5H34.25A.24.24,0,0,1,34,8.36a.23.23,0,0,1,0-.26L35.4,6.25h-.65a.24.24,0,0,1-.22-.14.23.23,0,0,1,0-.26l1.2-1.6h-.5A.25.25,0,0,1,35,4.12a.27.27,0,0,1,0-.26l1-1.5a.26.26,0,0,1,.42,0l1,1.5a.27.27,0,0,1,0,.26.25.25,0,0,1-.22.13h-.5L38,5.85a.23.23,0,0,1,0,.26.24.24,0,0,1-.22.14H37.1L38.45,8.1A.23.23,0,0,1,38.47,8.36ZM49.12,8.1,47.77,6.25h.65a.24.24,0,0,0,.22-.14.27.27,0,0,0,0-.26l-1.2-1.6h.5a.26.26,0,0,0,.22-.13.25.25,0,0,0,0-.26l-1-1.5a.25.25,0,0,0-.41,0l-1,1.5a.24.24,0,0,0,0,.26.24.24,0,0,0,.22.13h.5l-1.2,1.6a.25.25,0,0,0,0,.26.25.25,0,0,0,.23.14h.64L44.71,8.1a.27.27,0,0,0,0,.26.25.25,0,0,0,.23.14h1.75V9h.5V8.5h1.75a.24.24,0,0,0,.22-.14A.27.27,0,0,0,49.12,8.1Zm10.67,0L58.44,6.25h.64a.25.25,0,0,0,.23-.14.25.25,0,0,0,0-.26l-1.2-1.6h.5a.24.24,0,0,0,.22-.13.24.24,0,0,0,0-.26l-1-1.5a.25.25,0,0,0-.41,0l-1,1.5a.25.25,0,0,0,0,.26.26.26,0,0,0,.22.13h.5l-1.2,1.6a.27.27,0,0,0,0,.26.24.24,0,0,0,.22.14h.65L55.38,8.1a.27.27,0,0,0,0,.26.24.24,0,0,0,.22.14h1.75V9h.5V8.5h1.75a.25.25,0,0,0,.23-.14A.27.27,0,0,0,59.79,8.1Zm-21.34,16L37.1,22.25h.65a.24.24,0,0,0,.22-.14.23.23,0,0,0,0-.26l-1.2-1.6h.5a.25.25,0,0,0,.22-.13.27.27,0,0,0,0-.26l-1-1.5a.26.26,0,0,0-.42,0l-1,1.5a.27.27,0,0,0,0,.26.25.25,0,0,0,.22.13h.5l-1.2,1.6a.23.23,0,0,0,0,.26.24.24,0,0,0,.22.14h.65L34.05,24.1a.23.23,0,0,0,0,.26.24.24,0,0,0,.22.14H36V25h.5v-.5h1.75a.24.24,0,0,0,.22-.14A.23.23,0,0,0,38.45,24.1Zm10.67,0-1.35-1.85h.65a.24.24,0,0,0,.22-.14.27.27,0,0,0,0-.26l-1.2-1.6h.5a.26.26,0,0,0,.22-.13.25.25,0,0,0,0-.26l-1-1.5a.25.25,0,0,0-.41,0l-1,1.5a.24.24,0,0,0,0,.26.24.24,0,0,0,.22.13h.5l-1.2,1.6a.25.25,0,0,0,0,.26.25.25,0,0,0,.23.14h.64L44.71,24.1a.27.27,0,0,0,0,.26.25.25,0,0,0,.23.14h1.75V25h.5v-.5h1.75a.24.24,0,0,0,.22-.14A.27.27,0,0,0,49.12,24.1Zm10.67,0-1.35-1.85h.64a.25.25,0,0,0,.23-.14.25.25,0,0,0,0-.26l-1.2-1.6h.5a.24.24,0,0,0,.22-.13.24.24,0,0,0,0-.26l-1-1.5a.25.25,0,0,0-.41,0l-1,1.5a.25.25,0,0,0,0,.26.26.26,0,0,0,.22.13h.5l-1.2,1.6a.27.27,0,0,0,0,.26.24.24,0,0,0,.22.14h.65L55.38,24.1a.27.27,0,0,0,0,.26.24.24,0,0,0,.22.14h1.75V25h.5v-.5h1.75a.25.25,0,0,0,.23-.14A.27.27,0,0,0,59.79,24.1Z"/><path id="exotic_con_grid_sparse-4" data-name="exotic_con_grid_sparse" class="cls-2" d="M38.47,40.36a.24.24,0,0,1-.22.14H36.5V41H36v-.5H34.25a.24.24,0,0,1-.22-.14.23.23,0,0,1,0-.26l1.35-1.85h-.65a.24.24,0,0,1-.22-.14.23.23,0,0,1,0-.26l1.2-1.6h-.5a.25.25,0,0,1-.22-.13.27.27,0,0,1,0-.26l1-1.5a.26.26,0,0,1,.42,0l1,1.5a.27.27,0,0,1,0,.26.25.25,0,0,1-.22.13h-.5l1.2,1.6a.23.23,0,0,1,0,.26.24.24,0,0,1-.22.14H37.1l1.35,1.85A.23.23,0,0,1,38.47,40.36Zm10.65-.26-1.35-1.85h.65a.24.24,0,0,0,.22-.14.27.27,0,0,0,0-.26l-1.2-1.6h.5a.26.26,0,0,0,.22-.13.25.25,0,0,0,0-.26l-1-1.5a.25.25,0,0,0-.41,0l-1,1.5a.24.24,0,0,0,0,.26.24.24,0,0,0,.22.13h.5l-1.2,1.6a.25.25,0,0,0,0,.26.25.25,0,0,0,.23.14h.64L44.71,40.1a.27.27,0,0,0,0,.26.25.25,0,0,0,.23.14h1.75V41h.5v-.5h1.75a.24.24,0,0,0,.22-.14A.27.27,0,0,0,49.12,40.1Zm10.67,0-1.35-1.85h.64a.25.25,0,0,0,.23-.14.25.25,0,0,0,0-.26l-1.2-1.6h.5a.24.24,0,0,0,.22-.13.24.24,0,0,0,0-.26l-1-1.5a.25.25,0,0,0-.41,0l-1,1.5a.25.25,0,0,0,0,.26.26.26,0,0,0,.22.13h.5l-1.2,1.6a.27.27,0,0,0,0,.26.24.24,0,0,0,.22.14h.65L55.38,40.1a.27.27,0,0,0,0,.26.24.24,0,0,0,.22.14h1.75V41h.5v-.5h1.75a.25.25,0,0,0,.23-.14A.27.27,0,0,0,59.79,40.1Zm-21.34,16L37.1,54.25h.65a.24.24,0,0,0,.22-.14.23.23,0,0,0,0-.26l-1.2-1.6h.5a.25.25,0,0,0,.22-.13.27.27,0,0,0,0-.26l-1-1.5a.26.26,0,0,0-.42,0l-1,1.5a.27.27,0,0,0,0,.26.25.25,0,0,0,.22.13h.5l-1.2,1.6a.23.23,0,0,0,0,.26.24.24,0,0,0,.22.14h.65L34.05,56.1a.23.23,0,0,0,0,.26.24.24,0,0,0,.22.14H36V57h.5v-.5h1.75a.24.24,0,0,0,.22-.14A.23.23,0,0,0,38.45,56.1Zm10.67,0-1.35-1.85h.65a.24.24,0,0,0,.22-.14.27.27,0,0,0,0-.26l-1.2-1.6h.5a.26.26,0,0,0,.22-.13.25.25,0,0,0,0-.26l-1-1.5a.25.25,0,0,0-.41,0l-1,1.5a.24.24,0,0,0,0,.26.24.24,0,0,0,.22.13h.5l-1.2,1.6a.25.25,0,0,0,0,.26.25.25,0,0,0,.23.14h.64L44.71,56.1a.27.27,0,0,0,0,.26.25.25,0,0,0,.23.14h1.75V57h.5v-.5h1.75a.24.24,0,0,0,.22-.14A.27.27,0,0,0,49.12,56.1Zm10.67,0-1.35-1.85h.64a.25.25,0,0,0,.23-.14.25.25,0,0,0,0-.26l-1.2-1.6h.5a.24.24,0,0,0,.22-.13.24.24,0,0,0,0-.26l-1-1.5a.25.25,0,0,0-.41,0l-1,1.5a.25.25,0,0,0,0,.26.26.26,0,0,0,.22.13h.5l-1.2,1.6a.27.27,0,0,0,0,.26.24.24,0,0,0,.22.14h.65L55.38,56.1a.27.27,0,0,0,0,.26.24.24,0,0,0,.22.14h1.75V57h.5v-.5h1.75a.25.25,0,0,0,.23-.14A.27.27,0,0,0,59.79,56.1Z"/></g></svg>