<svg id="Sprites" xmlns="http://www.w3.org/2000/svg" viewBox="0 0 64 64"><defs><style>.cls-1{fill:none;}.cls-2{fill:#236035;}</style></defs><g id="exotic_non_poly_green_random_sparse"><rect id="bbox_64" class="cls-1" width="64" height="64"/><path id="exotic_non_random_sparse" class="cls-2" d="M19.61,16a1.49,1.49,0,0,1-1.11,2.5,1.47,1.47,0,0,1-.56-.11A1.49,1.49,0,0,1,16.5,19.5a1.71,1.71,0,0,1-.51-.09,1.58,1.58,0,0,0-.49,1.09v1h-1v-1A1.58,1.58,0,0,0,14,19.41a1.71,1.71,0,0,1-.51.09,1.49,1.49,0,0,1-1.44-1.11,1.47,1.47,0,0,1-.56.11A1.49,1.49,0,0,1,10.39,16a1.49,1.49,0,0,1,.72-2.44,1.49,1.49,0,0,1,.9-2s0-.06,0-.09A1.5,1.5,0,0,1,13.5,10a1.5,1.5,0,0,1,3,0A1.5,1.5,0,0,1,18,11.5s0,.06,0,.09a1.49,1.49,0,0,1,.9,2A1.49,1.49,0,0,1,19.61,16ZM50,20a1.49,1.49,0,0,0-1.11-1.44,1.49,1.49,0,0,0-.9-2s0-.06,0-.09A1.5,1.5,0,0,0,46.5,15a1.5,1.5,0,0,0-3,0A1.5,1.5,0,0,0,42,16.5s0,.06,0,.09a1.49,1.49,0,0,0-.9,2A1.49,1.49,0,0,0,40.39,21a1.49,1.49,0,0,0,1.11,2.5,1.47,1.47,0,0,0,.56-.11A1.49,1.49,0,0,0,43.5,24.5a1.71,1.71,0,0,0,.51-.09,1.58,1.58,0,0,1,.49,1.09v1h1v-1A1.58,1.58,0,0,1,46,24.41a1.71,1.71,0,0,0,.51.09,1.49,1.49,0,0,0,1.44-1.11,1.47,1.47,0,0,0,.56.11A1.49,1.49,0,0,0,49.61,21,1.49,1.49,0,0,0,50,20ZM29,40a1.49,1.49,0,0,0-1.11-1.44,1.49,1.49,0,0,0-.9-2s0-.06,0-.09A1.5,1.5,0,0,0,25.5,35a1.5,1.5,0,0,0-3,0A1.5,1.5,0,0,0,21,36.5s0,.06,0,.09a1.49,1.49,0,0,0-.9,2A1.49,1.49,0,0,0,19.39,41a1.49,1.49,0,0,0,1.11,2.5,1.47,1.47,0,0,0,.56-.11A1.49,1.49,0,0,0,22.5,44.5a1.71,1.71,0,0,0,.51-.09,1.58,1.58,0,0,1,.49,1.09v1h1v-1A1.58,1.58,0,0,1,25,44.41a1.71,1.71,0,0,0,.51.09,1.49,1.49,0,0,0,1.44-1.11,1.47,1.47,0,0,0,.56.11A1.49,1.49,0,0,0,28.61,41,1.49,1.49,0,0,0,29,40ZM55,50a1.49,1.49,0,0,0-1.11-1.44,1.49,1.49,0,0,0-.9-2s0-.06,0-.09A1.5,1.5,0,0,0,51.5,45a1.5,1.5,0,0,0-3,0A1.5,1.5,0,0,0,47,46.5s0,.06,0,.09a1.49,1.49,0,0,0-.9,2A1.49,1.49,0,0,0,45.39,51a1.49,1.49,0,0,0,1.11,2.5,1.47,1.47,0,0,0,.56-.11A1.49,1.49,0,0,0,48.5,54.5a1.71,1.71,0,0,0,.51-.09,1.58,1.58,0,0,1,.49,1.09v1h1v-1A1.58,1.58,0,0,1,51,54.41a1.71,1.71,0,0,0,.51.09,1.49,1.49,0,0,0,1.44-1.11,1.47,1.47,0,0,0,.56.11A1.49,1.49,0,0,0,54.61,51,1.49,1.49,0,0,0,55,50Z"/></g></svg>