<svg id="Sprites" xmlns="http://www.w3.org/2000/svg" viewBox="0 0 64 64"><defs><style>.cls-1{fill:none;}.cls-2{fill:#236035;}</style></defs><g id="exotic_con_poly_grid_sparse_half"><rect id="bbox_64" class="cls-1" width="32" height="32"/><path id="exotic_con_grid_sparse" class="cls-2" d="M3.24,4.18a.14.14,0,0,1-.12.07H2.25V4.5H2V4.25H1.12A.14.14,0,0,1,1,4.18a.15.15,0,0,1,0-.13l.68-.93H1.37a.13.13,0,0,1-.11-.06.14.14,0,0,1,0-.13l.6-.81H1.62a.14.14,0,0,1-.11-.06.15.15,0,0,1,0-.13L2,1.18a.13.13,0,0,1,.21,0l.5.75a.15.15,0,0,1,0,.13.14.14,0,0,1-.12.06H2.38l.6.81a.14.14,0,0,1,0,.13.13.13,0,0,1-.12.06H2.55l.68.93A.15.15,0,0,1,3.24,4.18Zm5.32-.13-.67-.93h.32a.11.11,0,0,0,.11-.06.12.12,0,0,0,0-.13l-.6-.81H8a.13.13,0,0,0,.11-.06.12.12,0,0,0,0-.13l-.5-.75a.13.13,0,0,0-.21,0l-.5.75a.15.15,0,0,0,0,.13A.11.11,0,0,0,7,2.12h.25l-.6.81a.12.12,0,0,0,0,.13.11.11,0,0,0,.11.06H7l-.67.93a.13.13,0,0,0,.1.2h.87V4.5h.25V4.25h.88a.13.13,0,0,0,.1-.2Zm5.33,0-.67-.93h.32a.11.11,0,0,0,.11-.06.12.12,0,0,0,0-.13L13,2.12h.25a.11.11,0,0,0,.11-.06.15.15,0,0,0,0-.13l-.5-.75a.13.13,0,0,0-.21,0l-.5.75a.12.12,0,0,0,0,.13.13.13,0,0,0,.11.06h.25l-.6.81a.12.12,0,0,0,0,.13.11.11,0,0,0,.11.06h.32l-.67.93a.13.13,0,0,0,.1.2h.88V4.5h.25V4.25h.87a.13.13,0,0,0,.1-.2Zm-10.66,8-.68-.92h.32A.14.14,0,0,0,3,11.06a.14.14,0,0,0,0-.13l-.6-.8h.24a.15.15,0,0,0,.12-.07.15.15,0,0,0,0-.13l-.5-.75a.13.13,0,0,0-.21,0l-.5.75a.15.15,0,0,0,0,.13.15.15,0,0,0,.11.07h.25l-.6.8a.14.14,0,0,0,0,.13.14.14,0,0,0,.11.07H1.7L1,12.05a.15.15,0,0,0,0,.13.14.14,0,0,0,.11.07H2v.25h.25v-.25h.87a.14.14,0,0,0,.12-.07A.15.15,0,0,0,3.23,12.05Zm5.33,0-.67-.92h.32a.12.12,0,0,0,.11-.07.12.12,0,0,0,0-.13l-.6-.8H8a.14.14,0,0,0,.11-.07.12.12,0,0,0,0-.13l-.5-.75a.13.13,0,0,0-.21,0l-.5.75a.15.15,0,0,0,0,.13.12.12,0,0,0,.11.07h.25l-.6.8a.12.12,0,0,0,0,.13.12.12,0,0,0,.11.07H7l-.67.92a.13.13,0,0,0,.1.2h.87v.25h.25v-.25h.88a.13.13,0,0,0,.1-.2Zm5.33,0-.67-.92h.32a.12.12,0,0,0,.11-.07.12.12,0,0,0,0-.13l-.6-.8h.25a.12.12,0,0,0,.11-.07.15.15,0,0,0,0-.13l-.5-.75a.13.13,0,0,0-.21,0l-.5.75a.12.12,0,0,0,0,.13.14.14,0,0,0,.11.07h.25l-.6.8a.12.12,0,0,0,0,.13.12.12,0,0,0,.11.07h.32l-.67.92a.13.13,0,0,0,.1.2h.88v.25h.25v-.25h.87a.13.13,0,0,0,.1-.2Z"/><path id="exotic_con_grid_sparse-2" data-name="exotic_con_grid_sparse" class="cls-2" d="M3.24,20.18a.14.14,0,0,1-.12.07H2.25v.25H2v-.25H1.12A.14.14,0,0,1,1,20.18a.15.15,0,0,1,0-.13l.68-.92H1.37a.14.14,0,0,1-.11-.07.14.14,0,0,1,0-.13l.6-.8H1.62a.15.15,0,0,1-.11-.07.15.15,0,0,1,0-.13l.5-.75a.13.13,0,0,1,.21,0l.5.75a.15.15,0,0,1,0,.13.15.15,0,0,1-.12.07H2.38l.6.8a.14.14,0,0,1,0,.13.14.14,0,0,1-.12.07H2.55l.68.92A.15.15,0,0,1,3.24,20.18Zm5.32-.13-.67-.92h.32a.12.12,0,0,0,.11-.07.12.12,0,0,0,0-.13l-.6-.8H8a.14.14,0,0,0,.11-.07.12.12,0,0,0,0-.13l-.5-.75a.13.13,0,0,0-.21,0l-.5.75a.15.15,0,0,0,0,.13.12.12,0,0,0,.11.07h.25l-.6.8a.12.12,0,0,0,0,.13.12.12,0,0,0,.11.07H7l-.67.92a.13.13,0,0,0,.1.2h.87v.25h.25v-.25h.88a.13.13,0,0,0,.1-.2Zm5.33,0-.67-.92h.32a.12.12,0,0,0,.11-.07.12.12,0,0,0,0-.13l-.6-.8h.25a.12.12,0,0,0,.11-.07.15.15,0,0,0,0-.13l-.5-.75a.13.13,0,0,0-.21,0l-.5.75a.12.12,0,0,0,0,.13.14.14,0,0,0,.11.07h.25l-.6.8a.12.12,0,0,0,0,.13.12.12,0,0,0,.11.07h.32l-.67.92a.13.13,0,0,0,.1.2h.88v.25h.25v-.25h.87a.13.13,0,0,0,.1-.2Zm-10.66,8-.68-.92h.32A.14.14,0,0,0,3,27.06a.14.14,0,0,0,0-.13l-.6-.8h.24a.15.15,0,0,0,.12-.07.15.15,0,0,0,0-.13l-.5-.75a.13.13,0,0,0-.21,0l-.5.75a.15.15,0,0,0,0,.13.15.15,0,0,0,.11.07h.25l-.6.8a.14.14,0,0,0,0,.13.14.14,0,0,0,.11.07H1.7L1,28.05a.15.15,0,0,0,0,.13.14.14,0,0,0,.11.07H2v.25h.25v-.25h.87a.14.14,0,0,0,.12-.07A.15.15,0,0,0,3.23,28.05Zm5.33,0-.67-.92h.32a.12.12,0,0,0,.11-.07.12.12,0,0,0,0-.13l-.6-.8H8a.14.14,0,0,0,.11-.07.12.12,0,0,0,0-.13l-.5-.75a.13.13,0,0,0-.21,0l-.5.75a.15.15,0,0,0,0,.13.12.12,0,0,0,.11.07h.25l-.6.8a.12.12,0,0,0,0,.13.12.12,0,0,0,.11.07H7l-.67.92a.13.13,0,0,0,.1.2h.87v.25h.25v-.25h.88a.13.13,0,0,0,.1-.2Zm5.33,0-.67-.92h.32a.12.12,0,0,0,.11-.07.12.12,0,0,0,0-.13l-.6-.8h.25a.12.12,0,0,0,.11-.07.15.15,0,0,0,0-.13l-.5-.75a.13.13,0,0,0-.21,0l-.5.75a.12.12,0,0,0,0,.13.14.14,0,0,0,.11.07h.25l-.6.8a.12.12,0,0,0,0,.13.12.12,0,0,0,.11.07h.32l-.67.92a.13.13,0,0,0,.1.2h.88v.25h.25v-.25h.87a.13.13,0,0,0,.1-.2Z"/><path id="exotic_con_grid_sparse-3" data-name="exotic_con_grid_sparse" class="cls-2" d="M19.24,4.18a.14.14,0,0,1-.12.07h-.87V4.5H18V4.25h-.88A.14.14,0,0,1,17,4.18a.15.15,0,0,1,0-.13l.68-.93h-.33a.13.13,0,0,1-.11-.06.14.14,0,0,1,0-.13l.6-.81h-.25a.14.14,0,0,1-.11-.06.15.15,0,0,1,0-.13l.5-.75a.13.13,0,0,1,.21,0l.5.75a.15.15,0,0,1,0,.13.14.14,0,0,1-.12.06h-.24l.6.81a.14.14,0,0,1,0,.13.13.13,0,0,1-.12.06h-.32l.68.93A.15.15,0,0,1,19.24,4.18Zm5.32-.13-.67-.93h.32a.11.11,0,0,0,.11-.06.12.12,0,0,0,0-.13l-.6-.81H24a.13.13,0,0,0,.11-.06.12.12,0,0,0,0-.13l-.5-.75a.13.13,0,0,0-.21,0l-.5.75a.15.15,0,0,0,0,.13.11.11,0,0,0,.11.06h.25l-.6.81a.12.12,0,0,0,0,.13.11.11,0,0,0,.11.06H23l-.67.93a.13.13,0,0,0,.1.2h.87V4.5h.25V4.25h.88a.13.13,0,0,0,.1-.2Zm5.33,0-.67-.93h.32a.11.11,0,0,0,.11-.06.12.12,0,0,0,0-.13L29,2.12h.25a.11.11,0,0,0,.11-.06.15.15,0,0,0,0-.13l-.5-.75a.13.13,0,0,0-.21,0l-.5.75a.12.12,0,0,0,0,.13.13.13,0,0,0,.11.06h.25l-.6.81a.12.12,0,0,0,0,.13.11.11,0,0,0,.11.06h.32l-.67.93a.13.13,0,0,0,.1.2h.88V4.5h.25V4.25h.87a.13.13,0,0,0,.1-.2Zm-10.66,8-.68-.92h.32a.14.14,0,0,0,.12-.07.14.14,0,0,0,0-.13l-.6-.8h.24a.15.15,0,0,0,.12-.07.15.15,0,0,0,0-.13l-.5-.75a.13.13,0,0,0-.21,0l-.5.75a.15.15,0,0,0,0,.13.15.15,0,0,0,.11.07h.25l-.6.8a.14.14,0,0,0,0,.13.14.14,0,0,0,.11.07h.33l-.68.92a.15.15,0,0,0,0,.13.14.14,0,0,0,.11.07H18v.25h.25v-.25h.87a.14.14,0,0,0,.12-.07A.15.15,0,0,0,19.23,12.05Zm5.33,0-.67-.92h.32a.12.12,0,0,0,.11-.07.12.12,0,0,0,0-.13l-.6-.8H24a.14.14,0,0,0,.11-.07.12.12,0,0,0,0-.13l-.5-.75a.13.13,0,0,0-.21,0l-.5.75a.15.15,0,0,0,0,.13.12.12,0,0,0,.11.07h.25l-.6.8a.12.12,0,0,0,0,.13.12.12,0,0,0,.11.07H23l-.67.92a.13.13,0,0,0,.1.2h.87v.25h.25v-.25h.88a.13.13,0,0,0,.1-.2Zm5.33,0-.67-.92h.32a.12.12,0,0,0,.11-.07.12.12,0,0,0,0-.13l-.6-.8h.25a.12.12,0,0,0,.11-.07.15.15,0,0,0,0-.13l-.5-.75a.13.13,0,0,0-.21,0l-.5.75a.12.12,0,0,0,0,.13.14.14,0,0,0,.11.07h.25l-.6.8a.12.12,0,0,0,0,.13.12.12,0,0,0,.11.07h.32l-.67.92a.13.13,0,0,0,.1.2h.88v.25h.25v-.25h.87a.13.13,0,0,0,.1-.2Z"/><path id="exotic_con_grid_sparse-4" data-name="exotic_con_grid_sparse" class="cls-2" d="M19.24,20.18a.14.14,0,0,1-.12.07h-.87v.25H18v-.25h-.88a.14.14,0,0,1-.11-.07.15.15,0,0,1,0-.13l.68-.92h-.33a.14.14,0,0,1-.11-.07.14.14,0,0,1,0-.13l.6-.8h-.25a.15.15,0,0,1-.11-.07.15.15,0,0,1,0-.13l.5-.75a.13.13,0,0,1,.21,0l.5.75a.15.15,0,0,1,0,.13.15.15,0,0,1-.12.07h-.24l.6.8a.14.14,0,0,1,0,.13.14.14,0,0,1-.12.07h-.32l.68.92A.15.15,0,0,1,19.24,20.18Zm5.32-.13-.67-.92h.32a.12.12,0,0,0,.11-.07.12.12,0,0,0,0-.13l-.6-.8H24a.14.14,0,0,0,.11-.07.12.12,0,0,0,0-.13l-.5-.75a.13.13,0,0,0-.21,0l-.5.75a.15.15,0,0,0,0,.13.12.12,0,0,0,.11.07h.25l-.6.8a.12.12,0,0,0,0,.13.12.12,0,0,0,.11.07H23l-.67.92a.13.13,0,0,0,.1.2h.87v.25h.25v-.25h.88a.13.13,0,0,0,.1-.2Zm5.33,0-.67-.92h.32a.12.12,0,0,0,.11-.07.12.12,0,0,0,0-.13l-.6-.8h.25a.12.12,0,0,0,.11-.07.15.15,0,0,0,0-.13l-.5-.75a.13.13,0,0,0-.21,0l-.5.75a.12.12,0,0,0,0,.13.14.14,0,0,0,.11.07h.25l-.6.8a.12.12,0,0,0,0,.13.12.12,0,0,0,.11.07h.32l-.67.92a.13.13,0,0,0,.1.2h.88v.25h.25v-.25h.87a.13.13,0,0,0,.1-.2Zm-10.66,8-.68-.92h.32a.14.14,0,0,0,.12-.07.14.14,0,0,0,0-.13l-.6-.8h.24a.15.15,0,0,0,.12-.07.15.15,0,0,0,0-.13l-.5-.75a.13.13,0,0,0-.21,0l-.5.75a.15.15,0,0,0,0,.13.15.15,0,0,0,.11.07h.25l-.6.8a.14.14,0,0,0,0,.13.14.14,0,0,0,.11.07h.33l-.68.92a.15.15,0,0,0,0,.13.14.14,0,0,0,.11.07H18v.25h.25v-.25h.87a.14.14,0,0,0,.12-.07A.15.15,0,0,0,19.23,28.05Zm5.33,0-.67-.92h.32a.12.12,0,0,0,.11-.07.12.12,0,0,0,0-.13l-.6-.8H24a.14.14,0,0,0,.11-.07.12.12,0,0,0,0-.13l-.5-.75a.13.13,0,0,0-.21,0l-.5.75a.15.15,0,0,0,0,.13.12.12,0,0,0,.11.07h.25l-.6.8a.12.12,0,0,0,0,.13.12.12,0,0,0,.11.07H23l-.67.92a.13.13,0,0,0,.1.2h.87v.25h.25v-.25h.88a.13.13,0,0,0,.1-.2Zm5.33,0-.67-.92h.32a.12.12,0,0,0,.11-.07.12.12,0,0,0,0-.13l-.6-.8h.25a.12.12,0,0,0,.11-.07.15.15,0,0,0,0-.13l-.5-.75a.13.13,0,0,0-.21,0l-.5.75a.12.12,0,0,0,0,.13.14.14,0,0,0,.11.07h.25l-.6.8a.12.12,0,0,0,0,.13.12.12,0,0,0,.11.07h.32l-.67.92a.13.13,0,0,0,.1.2h.88v.25h.25v-.25h.87a.13.13,0,0,0,.1-.2Z"/></g><g id="exotic_con_poly_grid_sparse_half-2" data-name="exotic_con_poly_grid_sparse_half"><rect id="bbox_64-2" data-name="bbox_64" class="cls-1" x="32" width="32" height="32"/><path id="exotic_con_grid_sparse-5" data-name="exotic_con_grid_sparse" class="cls-2" d="M35.24,4.18a.14.14,0,0,1-.12.07h-.87V4.5H34V4.25h-.88A.14.14,0,0,1,33,4.18a.15.15,0,0,1,0-.13l.68-.93h-.33a.13.13,0,0,1-.11-.06.14.14,0,0,1,0-.13l.6-.81h-.25a.14.14,0,0,1-.11-.06.15.15,0,0,1,0-.13l.5-.75a.13.13,0,0,1,.21,0l.5.75a.15.15,0,0,1,0,.13.14.14,0,0,1-.12.06h-.24l.6.81a.14.14,0,0,1,0,.13.13.13,0,0,1-.12.06h-.32l.68.93A.15.15,0,0,1,35.24,4.18Zm5.32-.13-.67-.93h.32a.11.11,0,0,0,.11-.06.12.12,0,0,0,0-.13l-.6-.81H40a.13.13,0,0,0,.11-.06.12.12,0,0,0,0-.13l-.5-.75a.13.13,0,0,0-.21,0l-.5.75a.15.15,0,0,0,0,.13.11.11,0,0,0,.11.06h.25l-.6.81a.12.12,0,0,0,0,.13.11.11,0,0,0,.11.06H39l-.67.93a.13.13,0,0,0,.1.2h.87V4.5h.25V4.25h.88a.13.13,0,0,0,.1-.2Zm5.33,0-.67-.93h.32a.11.11,0,0,0,.11-.06.12.12,0,0,0,0-.13L45,2.12h.25a.11.11,0,0,0,.11-.06.15.15,0,0,0,0-.13l-.5-.75a.13.13,0,0,0-.21,0l-.5.75a.12.12,0,0,0,0,.13.13.13,0,0,0,.11.06h.25l-.6.81a.12.12,0,0,0,0,.13.11.11,0,0,0,.11.06h.32l-.67.93a.13.13,0,0,0,.1.2h.88V4.5h.25V4.25h.87a.13.13,0,0,0,.1-.2Zm-10.66,8-.68-.92h.32a.14.14,0,0,0,.12-.07.14.14,0,0,0,0-.13l-.6-.8h.24a.15.15,0,0,0,.12-.07.15.15,0,0,0,0-.13l-.5-.75a.13.13,0,0,0-.21,0l-.5.75a.15.15,0,0,0,0,.13.15.15,0,0,0,.11.07h.25l-.6.8a.14.14,0,0,0,0,.13.14.14,0,0,0,.11.07h.33l-.68.92a.15.15,0,0,0,0,.13.14.14,0,0,0,.11.07H34v.25h.25v-.25h.87a.14.14,0,0,0,.12-.07A.15.15,0,0,0,35.23,12.05Zm5.33,0-.67-.92h.32a.12.12,0,0,0,.11-.07.12.12,0,0,0,0-.13l-.6-.8H40a.14.14,0,0,0,.11-.07.12.12,0,0,0,0-.13l-.5-.75a.13.13,0,0,0-.21,0l-.5.75a.15.15,0,0,0,0,.13.12.12,0,0,0,.11.07h.25l-.6.8a.12.12,0,0,0,0,.13.12.12,0,0,0,.11.07H39l-.67.92a.13.13,0,0,0,.1.2h.87v.25h.25v-.25h.88a.13.13,0,0,0,.1-.2Zm5.33,0-.67-.92h.32a.12.12,0,0,0,.11-.07.12.12,0,0,0,0-.13l-.6-.8h.25a.12.12,0,0,0,.11-.07.15.15,0,0,0,0-.13l-.5-.75a.13.13,0,0,0-.21,0l-.5.75a.12.12,0,0,0,0,.13.14.14,0,0,0,.11.07h.25l-.6.8a.12.12,0,0,0,0,.13.12.12,0,0,0,.11.07h.32l-.67.92a.13.13,0,0,0,.1.2h.88v.25h.25v-.25h.87a.13.13,0,0,0,.1-.2Z"/><path id="exotic_con_grid_sparse-6" data-name="exotic_con_grid_sparse" class="cls-2" d="M35.24,20.18a.14.14,0,0,1-.12.07h-.87v.25H34v-.25h-.88a.14.14,0,0,1-.11-.07.15.15,0,0,1,0-.13l.68-.92h-.33a.14.14,0,0,1-.11-.07.14.14,0,0,1,0-.13l.6-.8h-.25a.15.15,0,0,1-.11-.07.15.15,0,0,1,0-.13l.5-.75a.13.13,0,0,1,.21,0l.5.75a.15.15,0,0,1,0,.13.15.15,0,0,1-.12.07h-.24l.6.8a.14.14,0,0,1,0,.13.14.14,0,0,1-.12.07h-.32l.68.92A.15.15,0,0,1,35.24,20.18Zm5.32-.13-.67-.92h.32a.12.12,0,0,0,.11-.07.12.12,0,0,0,0-.13l-.6-.8H40a.14.14,0,0,0,.11-.07.12.12,0,0,0,0-.13l-.5-.75a.13.13,0,0,0-.21,0l-.5.75a.15.15,0,0,0,0,.13.12.12,0,0,0,.11.07h.25l-.6.8a.12.12,0,0,0,0,.13.12.12,0,0,0,.11.07H39l-.67.92a.13.13,0,0,0,.1.2h.87v.25h.25v-.25h.88a.13.13,0,0,0,.1-.2Zm5.33,0-.67-.92h.32a.12.12,0,0,0,.11-.07.12.12,0,0,0,0-.13l-.6-.8h.25a.12.12,0,0,0,.11-.07.15.15,0,0,0,0-.13l-.5-.75a.13.13,0,0,0-.21,0l-.5.75a.12.12,0,0,0,0,.13.14.14,0,0,0,.11.07h.25l-.6.8a.12.12,0,0,0,0,.13.12.12,0,0,0,.11.07h.32l-.67.92a.13.13,0,0,0,.1.2h.88v.25h.25v-.25h.87a.13.13,0,0,0,.1-.2Zm-10.66,8-.68-.92h.32a.14.14,0,0,0,.12-.07.14.14,0,0,0,0-.13l-.6-.8h.24a.15.15,0,0,0,.12-.07.15.15,0,0,0,0-.13l-.5-.75a.13.13,0,0,0-.21,0l-.5.75a.15.15,0,0,0,0,.13.15.15,0,0,0,.11.07h.25l-.6.8a.14.14,0,0,0,0,.13.14.14,0,0,0,.11.07h.33l-.68.92a.15.15,0,0,0,0,.13.14.14,0,0,0,.11.07H34v.25h.25v-.25h.87a.14.14,0,0,0,.12-.07A.15.15,0,0,0,35.23,28.05Zm5.33,0-.67-.92h.32a.12.12,0,0,0,.11-.07.12.12,0,0,0,0-.13l-.6-.8H40a.14.14,0,0,0,.11-.07.12.12,0,0,0,0-.13l-.5-.75a.13.13,0,0,0-.21,0l-.5.75a.15.15,0,0,0,0,.13.12.12,0,0,0,.11.07h.25l-.6.8a.12.12,0,0,0,0,.13.12.12,0,0,0,.11.07H39l-.67.92a.13.13,0,0,0,.1.2h.87v.25h.25v-.25h.88a.13.13,0,0,0,.1-.2Zm5.33,0-.67-.92h.32a.12.12,0,0,0,.11-.07.12.12,0,0,0,0-.13l-.6-.8h.25a.12.12,0,0,0,.11-.07.15.15,0,0,0,0-.13l-.5-.75a.13.13,0,0,0-.21,0l-.5.75a.12.12,0,0,0,0,.13.14.14,0,0,0,.11.07h.25l-.6.8a.12.12,0,0,0,0,.13.12.12,0,0,0,.11.07h.32l-.67.92a.13.13,0,0,0,.1.2h.88v.25h.25v-.25h.87a.13.13,0,0,0,.1-.2Z"/><path id="exotic_con_grid_sparse-7" data-name="exotic_con_grid_sparse" class="cls-2" d="M51.24,4.18a.14.14,0,0,1-.12.07h-.87V4.5H50V4.25h-.88A.14.14,0,0,1,49,4.18a.15.15,0,0,1,0-.13l.68-.93h-.33a.13.13,0,0,1-.11-.06.14.14,0,0,1,0-.13l.6-.81h-.25a.14.14,0,0,1-.11-.06.15.15,0,0,1,0-.13l.5-.75a.13.13,0,0,1,.21,0l.5.75a.15.15,0,0,1,0,.13.14.14,0,0,1-.12.06h-.24l.6.81a.14.14,0,0,1,0,.13.13.13,0,0,1-.12.06h-.32l.68.93A.15.15,0,0,1,51.24,4.18Zm5.32-.13-.67-.93h.32a.11.11,0,0,0,.11-.06.12.12,0,0,0,0-.13l-.6-.81H56a.13.13,0,0,0,.11-.06.12.12,0,0,0,0-.13l-.5-.75a.13.13,0,0,0-.21,0l-.5.75a.15.15,0,0,0,0,.13.11.11,0,0,0,.11.06h.25l-.6.81a.12.12,0,0,0,0,.13.11.11,0,0,0,.11.06H55l-.67.93a.13.13,0,0,0,.1.2h.87V4.5h.25V4.25h.88a.13.13,0,0,0,.1-.2Zm5.33,0-.67-.93h.32a.11.11,0,0,0,.11-.06.12.12,0,0,0,0-.13L61,2.12h.25a.11.11,0,0,0,.11-.06.15.15,0,0,0,0-.13l-.5-.75a.13.13,0,0,0-.21,0l-.5.75a.12.12,0,0,0,0,.13.13.13,0,0,0,.11.06h.25l-.6.81a.12.12,0,0,0,0,.13.11.11,0,0,0,.11.06h.32l-.67.93a.13.13,0,0,0,.1.2h.88V4.5h.25V4.25h.87a.13.13,0,0,0,.1-.2Zm-10.66,8-.68-.92h.32a.14.14,0,0,0,.12-.07.14.14,0,0,0,0-.13l-.6-.8h.24a.15.15,0,0,0,.12-.07.15.15,0,0,0,0-.13l-.5-.75a.13.13,0,0,0-.21,0l-.5.75a.15.15,0,0,0,0,.13.15.15,0,0,0,.11.07h.25l-.6.8a.14.14,0,0,0,0,.13.14.14,0,0,0,.11.07h.33l-.68.92a.15.15,0,0,0,0,.13.14.14,0,0,0,.11.07H50v.25h.25v-.25h.87a.14.14,0,0,0,.12-.07A.15.15,0,0,0,51.23,12.05Zm5.33,0-.67-.92h.32a.12.12,0,0,0,.11-.07.12.12,0,0,0,0-.13l-.6-.8H56a.14.14,0,0,0,.11-.07.12.12,0,0,0,0-.13l-.5-.75a.13.13,0,0,0-.21,0l-.5.75a.15.15,0,0,0,0,.13.12.12,0,0,0,.11.07h.25l-.6.8a.12.12,0,0,0,0,.13.12.12,0,0,0,.11.07H55l-.67.92a.13.13,0,0,0,.1.2h.87v.25h.25v-.25h.88a.13.13,0,0,0,.1-.2Zm5.33,0-.67-.92h.32a.12.12,0,0,0,.11-.07.12.12,0,0,0,0-.13l-.6-.8h.25a.12.12,0,0,0,.11-.07.15.15,0,0,0,0-.13l-.5-.75a.13.13,0,0,0-.21,0l-.5.75a.12.12,0,0,0,0,.13.14.14,0,0,0,.11.07h.25l-.6.8a.12.12,0,0,0,0,.13.12.12,0,0,0,.11.07h.32l-.67.92a.13.13,0,0,0,.1.2h.88v.25h.25v-.25h.87a.13.13,0,0,0,.1-.2Z"/><path id="exotic_con_grid_sparse-8" data-name="exotic_con_grid_sparse" class="cls-2" d="M51.24,20.18a.14.14,0,0,1-.12.07h-.87v.25H50v-.25h-.88a.14.14,0,0,1-.11-.07.15.15,0,0,1,0-.13l.68-.92h-.33a.14.14,0,0,1-.11-.07.14.14,0,0,1,0-.13l.6-.8h-.25a.15.15,0,0,1-.11-.07.15.15,0,0,1,0-.13l.5-.75a.13.13,0,0,1,.21,0l.5.75a.15.15,0,0,1,0,.13.15.15,0,0,1-.12.07h-.24l.6.8a.14.14,0,0,1,0,.13.14.14,0,0,1-.12.07h-.32l.68.92A.15.15,0,0,1,51.24,20.18Zm5.32-.13-.67-.92h.32a.12.12,0,0,0,.11-.07.12.12,0,0,0,0-.13l-.6-.8H56a.14.14,0,0,0,.11-.07.12.12,0,0,0,0-.13l-.5-.75a.13.13,0,0,0-.21,0l-.5.75a.15.15,0,0,0,0,.13.12.12,0,0,0,.11.07h.25l-.6.8a.12.12,0,0,0,0,.13.12.12,0,0,0,.11.07H55l-.67.92a.13.13,0,0,0,.1.2h.87v.25h.25v-.25h.88a.13.13,0,0,0,.1-.2Zm5.33,0-.67-.92h.32a.12.12,0,0,0,.11-.07.12.12,0,0,0,0-.13l-.6-.8h.25a.12.12,0,0,0,.11-.07.15.15,0,0,0,0-.13l-.5-.75a.13.13,0,0,0-.21,0l-.5.75a.12.12,0,0,0,0,.13.14.14,0,0,0,.11.07h.25l-.6.8a.12.12,0,0,0,0,.13.12.12,0,0,0,.11.07h.32l-.67.92a.13.13,0,0,0,.1.2h.88v.25h.25v-.25h.87a.13.13,0,0,0,.1-.2Zm-10.66,8-.68-.92h.32a.14.14,0,0,0,.12-.07.14.14,0,0,0,0-.13l-.6-.8h.24a.15.15,0,0,0,.12-.07.15.15,0,0,0,0-.13l-.5-.75a.13.13,0,0,0-.21,0l-.5.75a.15.15,0,0,0,0,.13.15.15,0,0,0,.11.07h.25l-.6.8a.14.14,0,0,0,0,.13.14.14,0,0,0,.11.07h.33l-.68.92a.15.15,0,0,0,0,.13.14.14,0,0,0,.11.07H50v.25h.25v-.25h.87a.14.14,0,0,0,.12-.07A.15.15,0,0,0,51.23,28.05Zm5.33,0-.67-.92h.32a.12.12,0,0,0,.11-.07.12.12,0,0,0,0-.13l-.6-.8H56a.14.14,0,0,0,.11-.07.12.12,0,0,0,0-.13l-.5-.75a.13.13,0,0,0-.21,0l-.5.75a.15.15,0,0,0,0,.13.12.12,0,0,0,.11.07h.25l-.6.8a.12.12,0,0,0,0,.13.12.12,0,0,0,.11.07H55l-.67.92a.13.13,0,0,0,.1.2h.87v.25h.25v-.25h.88a.13.13,0,0,0,.1-.2Zm5.33,0-.67-.92h.32a.12.12,0,0,0,.11-.07.12.12,0,0,0,0-.13l-.6-.8h.25a.12.12,0,0,0,.11-.07.15.15,0,0,0,0-.13l-.5-.75a.13.13,0,0,0-.21,0l-.5.75a.12.12,0,0,0,0,.13.14.14,0,0,0,.11.07h.25l-.6.8a.12.12,0,0,0,0,.13.12.12,0,0,0,.11.07h.32l-.67.92a.13.13,0,0,0,.1.2h.88v.25h.25v-.25h.87a.13.13,0,0,0,.1-.2Z"/></g><g id="exotic_con_poly_grid_sparse_half-3" data-name="exotic_con_poly_grid_sparse_half"><rect id="bbox_64-3" data-name="bbox_64" class="cls-1" y="32" width="32" height="32"/><path id="exotic_con_grid_sparse-9" data-name="exotic_con_grid_sparse" class="cls-2" d="M3.24,36.18a.14.14,0,0,1-.12.07H2.25v.25H2v-.25H1.12A.14.14,0,0,1,1,36.18a.15.15,0,0,1,0-.13l.68-.93H1.37a.13.13,0,0,1-.11-.06.14.14,0,0,1,0-.13l.6-.81H1.62a.14.14,0,0,1-.11-.06.15.15,0,0,1,0-.13l.5-.75a.13.13,0,0,1,.21,0l.5.75a.15.15,0,0,1,0,.13.14.14,0,0,1-.12.06H2.38l.6.81a.14.14,0,0,1,0,.13.13.13,0,0,1-.12.06H2.55l.68.93A.15.15,0,0,1,3.24,36.18Zm5.32-.13-.67-.93h.32a.11.11,0,0,0,.11-.06.12.12,0,0,0,0-.13l-.6-.81H8a.13.13,0,0,0,.11-.06.12.12,0,0,0,0-.13l-.5-.75a.13.13,0,0,0-.21,0l-.5.75a.15.15,0,0,0,0,.13.11.11,0,0,0,.11.06h.25l-.6.81a.12.12,0,0,0,0,.13.11.11,0,0,0,.11.06H7l-.67.93a.13.13,0,0,0,.1.2h.87v.25h.25v-.25h.88a.13.13,0,0,0,.1-.2Zm5.33,0-.67-.93h.32a.11.11,0,0,0,.11-.06.12.12,0,0,0,0-.13l-.6-.81h.25a.11.11,0,0,0,.11-.06.15.15,0,0,0,0-.13l-.5-.75a.13.13,0,0,0-.21,0l-.5.75a.12.12,0,0,0,0,.13.13.13,0,0,0,.11.06h.25l-.6.81a.12.12,0,0,0,0,.13.11.11,0,0,0,.11.06h.32l-.67.93a.13.13,0,0,0,.1.2h.88v.25h.25v-.25h.87a.13.13,0,0,0,.1-.2Zm-10.66,8-.68-.92h.32A.14.14,0,0,0,3,43.06a.14.14,0,0,0,0-.13l-.6-.8h.24a.15.15,0,0,0,.12-.07.15.15,0,0,0,0-.13l-.5-.75a.13.13,0,0,0-.21,0l-.5.75a.15.15,0,0,0,0,.13.15.15,0,0,0,.11.07h.25l-.6.8a.14.14,0,0,0,0,.13.14.14,0,0,0,.11.07H1.7L1,44.05a.15.15,0,0,0,0,.13.14.14,0,0,0,.11.07H2v.25h.25v-.25h.87a.14.14,0,0,0,.12-.07A.15.15,0,0,0,3.23,44.05Zm5.33,0-.67-.92h.32a.12.12,0,0,0,.11-.07.12.12,0,0,0,0-.13l-.6-.8H8a.14.14,0,0,0,.11-.07.12.12,0,0,0,0-.13l-.5-.75a.13.13,0,0,0-.21,0l-.5.75a.15.15,0,0,0,0,.13.12.12,0,0,0,.11.07h.25l-.6.8a.12.12,0,0,0,0,.13.12.12,0,0,0,.11.07H7l-.67.92a.13.13,0,0,0,.1.2h.87v.25h.25v-.25h.88a.13.13,0,0,0,.1-.2Zm5.33,0-.67-.92h.32a.12.12,0,0,0,.11-.07.12.12,0,0,0,0-.13l-.6-.8h.25a.12.12,0,0,0,.11-.07.15.15,0,0,0,0-.13l-.5-.75a.13.13,0,0,0-.21,0l-.5.75a.12.12,0,0,0,0,.13.14.14,0,0,0,.11.07h.25l-.6.8a.12.12,0,0,0,0,.13.12.12,0,0,0,.11.07h.32l-.67.92a.13.13,0,0,0,.1.2h.88v.25h.25v-.25h.87a.13.13,0,0,0,.1-.2Z"/><path id="exotic_con_grid_sparse-10" data-name="exotic_con_grid_sparse" class="cls-2" d="M3.24,52.18a.14.14,0,0,1-.12.07H2.25v.25H2v-.25H1.12A.14.14,0,0,1,1,52.18a.15.15,0,0,1,0-.13l.68-.92H1.37a.14.14,0,0,1-.11-.07.14.14,0,0,1,0-.13l.6-.8H1.62a.15.15,0,0,1-.11-.07.15.15,0,0,1,0-.13l.5-.75a.13.13,0,0,1,.21,0l.5.75a.15.15,0,0,1,0,.13.15.15,0,0,1-.12.07H2.38l.6.8a.14.14,0,0,1,0,.13.14.14,0,0,1-.12.07H2.55l.68.92A.15.15,0,0,1,3.24,52.18Zm5.32-.13-.67-.92h.32a.12.12,0,0,0,.11-.07.12.12,0,0,0,0-.13l-.6-.8H8a.14.14,0,0,0,.11-.07.12.12,0,0,0,0-.13l-.5-.75a.13.13,0,0,0-.21,0l-.5.75a.15.15,0,0,0,0,.13.12.12,0,0,0,.11.07h.25l-.6.8a.12.12,0,0,0,0,.13.12.12,0,0,0,.11.07H7l-.67.92a.13.13,0,0,0,.1.2h.87v.25h.25v-.25h.88a.13.13,0,0,0,.1-.2Zm5.33,0-.67-.92h.32a.12.12,0,0,0,.11-.07.12.12,0,0,0,0-.13l-.6-.8h.25a.12.12,0,0,0,.11-.07.15.15,0,0,0,0-.13l-.5-.75a.13.13,0,0,0-.21,0l-.5.75a.12.12,0,0,0,0,.13.14.14,0,0,0,.11.07h.25l-.6.8a.12.12,0,0,0,0,.13.12.12,0,0,0,.11.07h.32l-.67.92a.13.13,0,0,0,.1.2h.88v.25h.25v-.25h.87a.13.13,0,0,0,.1-.2Zm-10.66,8-.68-.92h.32A.14.14,0,0,0,3,59.06a.14.14,0,0,0,0-.13l-.6-.8h.24a.15.15,0,0,0,.12-.07.15.15,0,0,0,0-.13l-.5-.75a.13.13,0,0,0-.21,0l-.5.75a.15.15,0,0,0,0,.13.15.15,0,0,0,.11.07h.25l-.6.8a.14.14,0,0,0,0,.13.14.14,0,0,0,.11.07H1.7L1,60.05a.15.15,0,0,0,0,.13.14.14,0,0,0,.11.07H2v.25h.25v-.25h.87a.14.14,0,0,0,.12-.07A.15.15,0,0,0,3.23,60.05Zm5.33,0-.67-.92h.32a.12.12,0,0,0,.11-.07.12.12,0,0,0,0-.13l-.6-.8H8a.14.14,0,0,0,.11-.07.12.12,0,0,0,0-.13l-.5-.75a.13.13,0,0,0-.21,0l-.5.75a.15.15,0,0,0,0,.13.12.12,0,0,0,.11.07h.25l-.6.8a.12.12,0,0,0,0,.13.12.12,0,0,0,.11.07H7l-.67.92a.13.13,0,0,0,.1.2h.87v.25h.25v-.25h.88a.13.13,0,0,0,.1-.2Zm5.33,0-.67-.92h.32a.12.12,0,0,0,.11-.07.12.12,0,0,0,0-.13l-.6-.8h.25a.12.12,0,0,0,.11-.07.15.15,0,0,0,0-.13l-.5-.75a.13.13,0,0,0-.21,0l-.5.75a.12.12,0,0,0,0,.13.14.14,0,0,0,.11.07h.25l-.6.8a.12.12,0,0,0,0,.13.12.12,0,0,0,.11.07h.32l-.67.92a.13.13,0,0,0,.1.2h.88v.25h.25v-.25h.87a.13.13,0,0,0,.1-.2Z"/><path id="exotic_con_grid_sparse-11" data-name="exotic_con_grid_sparse" class="cls-2" d="M19.24,36.18a.14.14,0,0,1-.12.07h-.87v.25H18v-.25h-.88a.14.14,0,0,1-.11-.07.15.15,0,0,1,0-.13l.68-.93h-.33a.13.13,0,0,1-.11-.06.14.14,0,0,1,0-.13l.6-.81h-.25a.14.14,0,0,1-.11-.06.15.15,0,0,1,0-.13l.5-.75a.13.13,0,0,1,.21,0l.5.75a.15.15,0,0,1,0,.13.14.14,0,0,1-.12.06h-.24l.6.81a.14.14,0,0,1,0,.13.13.13,0,0,1-.12.06h-.32l.68.93A.15.15,0,0,1,19.24,36.18Zm5.32-.13-.67-.93h.32a.11.11,0,0,0,.11-.06.12.12,0,0,0,0-.13l-.6-.81H24a.13.13,0,0,0,.11-.06.12.12,0,0,0,0-.13l-.5-.75a.13.13,0,0,0-.21,0l-.5.75a.15.15,0,0,0,0,.13.11.11,0,0,0,.11.06h.25l-.6.81a.12.12,0,0,0,0,.13.11.11,0,0,0,.11.06H23l-.67.93a.13.13,0,0,0,.1.2h.87v.25h.25v-.25h.88a.13.13,0,0,0,.1-.2Zm5.33,0-.67-.93h.32a.11.11,0,0,0,.11-.06.12.12,0,0,0,0-.13l-.6-.81h.25a.11.11,0,0,0,.11-.06.15.15,0,0,0,0-.13l-.5-.75a.13.13,0,0,0-.21,0l-.5.75a.12.12,0,0,0,0,.13.13.13,0,0,0,.11.06h.25l-.6.81a.12.12,0,0,0,0,.13.11.11,0,0,0,.11.06h.32l-.67.93a.13.13,0,0,0,.1.2h.88v.25h.25v-.25h.87a.13.13,0,0,0,.1-.2Zm-10.66,8-.68-.92h.32a.14.14,0,0,0,.12-.07.14.14,0,0,0,0-.13l-.6-.8h.24a.15.15,0,0,0,.12-.07.15.15,0,0,0,0-.13l-.5-.75a.13.13,0,0,0-.21,0l-.5.75a.15.15,0,0,0,0,.13.15.15,0,0,0,.11.07h.25l-.6.8a.14.14,0,0,0,0,.13.14.14,0,0,0,.11.07h.33l-.68.92a.15.15,0,0,0,0,.13.14.14,0,0,0,.11.07H18v.25h.25v-.25h.87a.14.14,0,0,0,.12-.07A.15.15,0,0,0,19.23,44.05Zm5.33,0-.67-.92h.32a.12.12,0,0,0,.11-.07.12.12,0,0,0,0-.13l-.6-.8H24a.14.14,0,0,0,.11-.07.12.12,0,0,0,0-.13l-.5-.75a.13.13,0,0,0-.21,0l-.5.75a.15.15,0,0,0,0,.13.12.12,0,0,0,.11.07h.25l-.6.8a.12.12,0,0,0,0,.13.12.12,0,0,0,.11.07H23l-.67.92a.13.13,0,0,0,.1.2h.87v.25h.25v-.25h.88a.13.13,0,0,0,.1-.2Zm5.33,0-.67-.92h.32a.12.12,0,0,0,.11-.07.12.12,0,0,0,0-.13l-.6-.8h.25a.12.12,0,0,0,.11-.07.15.15,0,0,0,0-.13l-.5-.75a.13.13,0,0,0-.21,0l-.5.75a.12.12,0,0,0,0,.13.14.14,0,0,0,.11.07h.25l-.6.8a.12.12,0,0,0,0,.13.12.12,0,0,0,.11.07h.32l-.67.92a.13.13,0,0,0,.1.2h.88v.25h.25v-.25h.87a.13.13,0,0,0,.1-.2Z"/><path id="exotic_con_grid_sparse-12" data-name="exotic_con_grid_sparse" class="cls-2" d="M19.24,52.18a.14.14,0,0,1-.12.07h-.87v.25H18v-.25h-.88a.14.14,0,0,1-.11-.07.15.15,0,0,1,0-.13l.68-.92h-.33a.14.14,0,0,1-.11-.07.14.14,0,0,1,0-.13l.6-.8h-.25a.15.15,0,0,1-.11-.07.15.15,0,0,1,0-.13l.5-.75a.13.13,0,0,1,.21,0l.5.75a.15.15,0,0,1,0,.13.15.15,0,0,1-.12.07h-.24l.6.8a.14.14,0,0,1,0,.13.14.14,0,0,1-.12.07h-.32l.68.92A.15.15,0,0,1,19.24,52.18Zm5.32-.13-.67-.92h.32a.12.12,0,0,0,.11-.07.12.12,0,0,0,0-.13l-.6-.8H24a.14.14,0,0,0,.11-.07.12.12,0,0,0,0-.13l-.5-.75a.13.13,0,0,0-.21,0l-.5.75a.15.15,0,0,0,0,.13.12.12,0,0,0,.11.07h.25l-.6.8a.12.12,0,0,0,0,.13.12.12,0,0,0,.11.07H23l-.67.92a.13.13,0,0,0,.1.2h.87v.25h.25v-.25h.88a.13.13,0,0,0,.1-.2Zm5.33,0-.67-.92h.32a.12.12,0,0,0,.11-.07.12.12,0,0,0,0-.13l-.6-.8h.25a.12.12,0,0,0,.11-.07.15.15,0,0,0,0-.13l-.5-.75a.13.13,0,0,0-.21,0l-.5.75a.12.12,0,0,0,0,.13.14.14,0,0,0,.11.07h.25l-.6.8a.12.12,0,0,0,0,.13.12.12,0,0,0,.11.07h.32l-.67.92a.13.13,0,0,0,.1.2h.88v.25h.25v-.25h.87a.13.13,0,0,0,.1-.2Zm-10.66,8-.68-.92h.32a.14.14,0,0,0,.12-.07.14.14,0,0,0,0-.13l-.6-.8h.24a.15.15,0,0,0,.12-.07.15.15,0,0,0,0-.13l-.5-.75a.13.13,0,0,0-.21,0l-.5.75a.15.15,0,0,0,0,.13.15.15,0,0,0,.11.07h.25l-.6.8a.14.14,0,0,0,0,.13.14.14,0,0,0,.11.07h.33l-.68.92a.15.15,0,0,0,0,.13.14.14,0,0,0,.11.07H18v.25h.25v-.25h.87a.14.14,0,0,0,.12-.07A.15.15,0,0,0,19.23,60.05Zm5.33,0-.67-.92h.32a.12.12,0,0,0,.11-.07.12.12,0,0,0,0-.13l-.6-.8H24a.14.14,0,0,0,.11-.07.12.12,0,0,0,0-.13l-.5-.75a.13.13,0,0,0-.21,0l-.5.75a.15.15,0,0,0,0,.13.12.12,0,0,0,.11.07h.25l-.6.8a.12.12,0,0,0,0,.13.12.12,0,0,0,.11.07H23l-.67.92a.13.13,0,0,0,.1.2h.87v.25h.25v-.25h.88a.13.13,0,0,0,.1-.2Zm5.33,0-.67-.92h.32a.12.12,0,0,0,.11-.07.12.12,0,0,0,0-.13l-.6-.8h.25a.12.12,0,0,0,.11-.07.15.15,0,0,0,0-.13l-.5-.75a.13.13,0,0,0-.21,0l-.5.75a.12.12,0,0,0,0,.13.14.14,0,0,0,.11.07h.25l-.6.8a.12.12,0,0,0,0,.13.12.12,0,0,0,.11.07h.32l-.67.92a.13.13,0,0,0,.1.2h.88v.25h.25v-.25h.87a.13.13,0,0,0,.1-.2Z"/></g><g id="exotic_con_poly_grid_sparse_half-4" data-name="exotic_con_poly_grid_sparse_half"><rect id="bbox_64-4" data-name="bbox_64" class="cls-1" x="32" y="32" width="32" height="32"/><path id="exotic_con_grid_sparse-13" data-name="exotic_con_grid_sparse" class="cls-2" d="M35.24,36.18a.14.14,0,0,1-.12.07h-.87v.25H34v-.25h-.88a.14.14,0,0,1-.11-.07.15.15,0,0,1,0-.13l.68-.93h-.33a.13.13,0,0,1-.11-.06.14.14,0,0,1,0-.13l.6-.81h-.25a.14.14,0,0,1-.11-.06.15.15,0,0,1,0-.13l.5-.75a.13.13,0,0,1,.21,0l.5.75a.15.15,0,0,1,0,.13.14.14,0,0,1-.12.06h-.24l.6.81a.14.14,0,0,1,0,.13.13.13,0,0,1-.12.06h-.32l.68.93A.15.15,0,0,1,35.24,36.18Zm5.32-.13-.67-.93h.32a.11.11,0,0,0,.11-.06.12.12,0,0,0,0-.13l-.6-.81H40a.13.13,0,0,0,.11-.06.12.12,0,0,0,0-.13l-.5-.75a.13.13,0,0,0-.21,0l-.5.75a.15.15,0,0,0,0,.13.11.11,0,0,0,.11.06h.25l-.6.81a.12.12,0,0,0,0,.13.11.11,0,0,0,.11.06H39l-.67.93a.13.13,0,0,0,.1.2h.87v.25h.25v-.25h.88a.13.13,0,0,0,.1-.2Zm5.33,0-.67-.93h.32a.11.11,0,0,0,.11-.06.12.12,0,0,0,0-.13l-.6-.81h.25a.11.11,0,0,0,.11-.06.15.15,0,0,0,0-.13l-.5-.75a.13.13,0,0,0-.21,0l-.5.75a.12.12,0,0,0,0,.13.13.13,0,0,0,.11.06h.25l-.6.81a.12.12,0,0,0,0,.13.11.11,0,0,0,.11.06h.32l-.67.93a.13.13,0,0,0,.1.2h.88v.25h.25v-.25h.87a.13.13,0,0,0,.1-.2Zm-10.66,8-.68-.92h.32a.14.14,0,0,0,.12-.07.14.14,0,0,0,0-.13l-.6-.8h.24a.15.15,0,0,0,.12-.07.15.15,0,0,0,0-.13l-.5-.75a.13.13,0,0,0-.21,0l-.5.75a.15.15,0,0,0,0,.13.15.15,0,0,0,.11.07h.25l-.6.8a.14.14,0,0,0,0,.13.14.14,0,0,0,.11.07h.33l-.68.92a.15.15,0,0,0,0,.13.14.14,0,0,0,.11.07H34v.25h.25v-.25h.87a.14.14,0,0,0,.12-.07A.15.15,0,0,0,35.23,44.05Zm5.33,0-.67-.92h.32a.12.12,0,0,0,.11-.07.12.12,0,0,0,0-.13l-.6-.8H40a.14.14,0,0,0,.11-.07.12.12,0,0,0,0-.13l-.5-.75a.13.13,0,0,0-.21,0l-.5.75a.15.15,0,0,0,0,.13.12.12,0,0,0,.11.07h.25l-.6.8a.12.12,0,0,0,0,.13.12.12,0,0,0,.11.07H39l-.67.92a.13.13,0,0,0,.1.2h.87v.25h.25v-.25h.88a.13.13,0,0,0,.1-.2Zm5.33,0-.67-.92h.32a.12.12,0,0,0,.11-.07.12.12,0,0,0,0-.13l-.6-.8h.25a.12.12,0,0,0,.11-.07.15.15,0,0,0,0-.13l-.5-.75a.13.13,0,0,0-.21,0l-.5.75a.12.12,0,0,0,0,.13.14.14,0,0,0,.11.07h.25l-.6.8a.12.12,0,0,0,0,.13.12.12,0,0,0,.11.07h.32l-.67.92a.13.13,0,0,0,.1.2h.88v.25h.25v-.25h.87a.13.13,0,0,0,.1-.2Z"/><path id="exotic_con_grid_sparse-14" data-name="exotic_con_grid_sparse" class="cls-2" d="M35.24,52.18a.14.14,0,0,1-.12.07h-.87v.25H34v-.25h-.88a.14.14,0,0,1-.11-.07.15.15,0,0,1,0-.13l.68-.92h-.33a.14.14,0,0,1-.11-.07.14.14,0,0,1,0-.13l.6-.8h-.25a.15.15,0,0,1-.11-.07.15.15,0,0,1,0-.13l.5-.75a.13.13,0,0,1,.21,0l.5.75a.15.15,0,0,1,0,.13.15.15,0,0,1-.12.07h-.24l.6.8a.14.14,0,0,1,0,.13.14.14,0,0,1-.12.07h-.32l.68.92A.15.15,0,0,1,35.24,52.18Zm5.32-.13-.67-.92h.32a.12.12,0,0,0,.11-.07.12.12,0,0,0,0-.13l-.6-.8H40a.14.14,0,0,0,.11-.07.12.12,0,0,0,0-.13l-.5-.75a.13.13,0,0,0-.21,0l-.5.75a.15.15,0,0,0,0,.13.12.12,0,0,0,.11.07h.25l-.6.8a.12.12,0,0,0,0,.13.12.12,0,0,0,.11.07H39l-.67.92a.13.13,0,0,0,.1.2h.87v.25h.25v-.25h.88a.13.13,0,0,0,.1-.2Zm5.33,0-.67-.92h.32a.12.12,0,0,0,.11-.07.12.12,0,0,0,0-.13l-.6-.8h.25a.12.12,0,0,0,.11-.07.15.15,0,0,0,0-.13l-.5-.75a.13.13,0,0,0-.21,0l-.5.75a.12.12,0,0,0,0,.13.14.14,0,0,0,.11.07h.25l-.6.8a.12.12,0,0,0,0,.13.12.12,0,0,0,.11.07h.32l-.67.92a.13.13,0,0,0,.1.2h.88v.25h.25v-.25h.87a.13.13,0,0,0,.1-.2Zm-10.66,8-.68-.92h.32a.14.14,0,0,0,.12-.07.14.14,0,0,0,0-.13l-.6-.8h.24a.15.15,0,0,0,.12-.07.15.15,0,0,0,0-.13l-.5-.75a.13.13,0,0,0-.21,0l-.5.75a.15.15,0,0,0,0,.13.15.15,0,0,0,.11.07h.25l-.6.8a.14.14,0,0,0,0,.13.14.14,0,0,0,.11.07h.33l-.68.92a.15.15,0,0,0,0,.13.14.14,0,0,0,.11.07H34v.25h.25v-.25h.87a.14.14,0,0,0,.12-.07A.15.15,0,0,0,35.23,60.05Zm5.33,0-.67-.92h.32a.12.12,0,0,0,.11-.07.12.12,0,0,0,0-.13l-.6-.8H40a.14.14,0,0,0,.11-.07.12.12,0,0,0,0-.13l-.5-.75a.13.13,0,0,0-.21,0l-.5.75a.15.15,0,0,0,0,.13.12.12,0,0,0,.11.07h.25l-.6.8a.12.12,0,0,0,0,.13.12.12,0,0,0,.11.07H39l-.67.92a.13.13,0,0,0,.1.2h.87v.25h.25v-.25h.88a.13.13,0,0,0,.1-.2Zm5.33,0-.67-.92h.32a.12.12,0,0,0,.11-.07.12.12,0,0,0,0-.13l-.6-.8h.25a.12.12,0,0,0,.11-.07.15.15,0,0,0,0-.13l-.5-.75a.13.13,0,0,0-.21,0l-.5.75a.12.12,0,0,0,0,.13.14.14,0,0,0,.11.07h.25l-.6.8a.12.12,0,0,0,0,.13.12.12,0,0,0,.11.07h.32l-.67.92a.13.13,0,0,0,.1.2h.88v.25h.25v-.25h.87a.13.13,0,0,0,.1-.2Z"/><path id="exotic_con_grid_sparse-15" data-name="exotic_con_grid_sparse" class="cls-2" d="M51.24,36.18a.14.14,0,0,1-.12.07h-.87v.25H50v-.25h-.88a.14.14,0,0,1-.11-.07.15.15,0,0,1,0-.13l.68-.93h-.33a.13.13,0,0,1-.11-.06.14.14,0,0,1,0-.13l.6-.81h-.25a.14.14,0,0,1-.11-.06.15.15,0,0,1,0-.13l.5-.75a.13.13,0,0,1,.21,0l.5.75a.15.15,0,0,1,0,.13.14.14,0,0,1-.12.06h-.24l.6.81a.14.14,0,0,1,0,.13.13.13,0,0,1-.12.06h-.32l.68.93A.15.15,0,0,1,51.24,36.18Zm5.32-.13-.67-.93h.32a.11.11,0,0,0,.11-.06.12.12,0,0,0,0-.13l-.6-.81H56a.13.13,0,0,0,.11-.06.12.12,0,0,0,0-.13l-.5-.75a.13.13,0,0,0-.21,0l-.5.75a.15.15,0,0,0,0,.13.11.11,0,0,0,.11.06h.25l-.6.81a.12.12,0,0,0,0,.13.11.11,0,0,0,.11.06H55l-.67.93a.13.13,0,0,0,.1.2h.87v.25h.25v-.25h.88a.13.13,0,0,0,.1-.2Zm5.33,0-.67-.93h.32a.11.11,0,0,0,.11-.06.12.12,0,0,0,0-.13l-.6-.81h.25a.11.11,0,0,0,.11-.06.15.15,0,0,0,0-.13l-.5-.75a.13.13,0,0,0-.21,0l-.5.75a.12.12,0,0,0,0,.13.13.13,0,0,0,.11.06h.25l-.6.81a.12.12,0,0,0,0,.13.11.11,0,0,0,.11.06h.32l-.67.93a.13.13,0,0,0,.1.2h.88v.25h.25v-.25h.87a.13.13,0,0,0,.1-.2Zm-10.66,8-.68-.92h.32a.14.14,0,0,0,.12-.07.14.14,0,0,0,0-.13l-.6-.8h.24a.15.15,0,0,0,.12-.07.15.15,0,0,0,0-.13l-.5-.75a.13.13,0,0,0-.21,0l-.5.75a.15.15,0,0,0,0,.13.15.15,0,0,0,.11.07h.25l-.6.8a.14.14,0,0,0,0,.13.14.14,0,0,0,.11.07h.33l-.68.92a.15.15,0,0,0,0,.13.14.14,0,0,0,.11.07H50v.25h.25v-.25h.87a.14.14,0,0,0,.12-.07A.15.15,0,0,0,51.23,44.05Zm5.33,0-.67-.92h.32a.12.12,0,0,0,.11-.07.12.12,0,0,0,0-.13l-.6-.8H56a.14.14,0,0,0,.11-.07.12.12,0,0,0,0-.13l-.5-.75a.13.13,0,0,0-.21,0l-.5.75a.15.15,0,0,0,0,.13.12.12,0,0,0,.11.07h.25l-.6.8a.12.12,0,0,0,0,.13.12.12,0,0,0,.11.07H55l-.67.92a.13.13,0,0,0,.1.2h.87v.25h.25v-.25h.88a.13.13,0,0,0,.1-.2Zm5.33,0-.67-.92h.32a.12.12,0,0,0,.11-.07.12.12,0,0,0,0-.13l-.6-.8h.25a.12.12,0,0,0,.11-.07.15.15,0,0,0,0-.13l-.5-.75a.13.13,0,0,0-.21,0l-.5.75a.12.12,0,0,0,0,.13.14.14,0,0,0,.11.07h.25l-.6.8a.12.12,0,0,0,0,.13.12.12,0,0,0,.11.07h.32l-.67.92a.13.13,0,0,0,.1.2h.88v.25h.25v-.25h.87a.13.13,0,0,0,.1-.2Z"/><path id="exotic_con_grid_sparse-16" data-name="exotic_con_grid_sparse" class="cls-2" d="M51.24,52.18a.14.14,0,0,1-.12.07h-.87v.25H50v-.25h-.88a.14.14,0,0,1-.11-.07.15.15,0,0,1,0-.13l.68-.92h-.33a.14.14,0,0,1-.11-.07.14.14,0,0,1,0-.13l.6-.8h-.25a.15.15,0,0,1-.11-.07.15.15,0,0,1,0-.13l.5-.75a.13.13,0,0,1,.21,0l.5.75a.15.15,0,0,1,0,.13.15.15,0,0,1-.12.07h-.24l.6.8a.14.14,0,0,1,0,.13.14.14,0,0,1-.12.07h-.32l.68.92A.15.15,0,0,1,51.24,52.18Zm5.32-.13-.67-.92h.32a.12.12,0,0,0,.11-.07.12.12,0,0,0,0-.13l-.6-.8H56a.14.14,0,0,0,.11-.07.12.12,0,0,0,0-.13l-.5-.75a.13.13,0,0,0-.21,0l-.5.75a.15.15,0,0,0,0,.13.12.12,0,0,0,.11.07h.25l-.6.8a.12.12,0,0,0,0,.13.12.12,0,0,0,.11.07H55l-.67.92a.13.13,0,0,0,.1.2h.87v.25h.25v-.25h.88a.13.13,0,0,0,.1-.2Zm5.33,0-.67-.92h.32a.12.12,0,0,0,.11-.07.12.12,0,0,0,0-.13l-.6-.8h.25a.12.12,0,0,0,.11-.07.15.15,0,0,0,0-.13l-.5-.75a.13.13,0,0,0-.21,0l-.5.75a.12.12,0,0,0,0,.13.14.14,0,0,0,.11.07h.25l-.6.8a.12.12,0,0,0,0,.13.12.12,0,0,0,.11.07h.32l-.67.92a.13.13,0,0,0,.1.2h.88v.25h.25v-.25h.87a.13.13,0,0,0,.1-.2Zm-10.66,8-.68-.92h.32a.14.14,0,0,0,.12-.07.14.14,0,0,0,0-.13l-.6-.8h.24a.15.15,0,0,0,.12-.07.15.15,0,0,0,0-.13l-.5-.75a.13.13,0,0,0-.21,0l-.5.75a.15.15,0,0,0,0,.13.15.15,0,0,0,.11.07h.25l-.6.8a.14.14,0,0,0,0,.13.14.14,0,0,0,.11.07h.33l-.68.92a.15.15,0,0,0,0,.13.14.14,0,0,0,.11.07H50v.25h.25v-.25h.87a.14.14,0,0,0,.12-.07A.15.15,0,0,0,51.23,60.05Zm5.33,0-.67-.92h.32a.12.12,0,0,0,.11-.07.12.12,0,0,0,0-.13l-.6-.8H56a.14.14,0,0,0,.11-.07.12.12,0,0,0,0-.13l-.5-.75a.13.13,0,0,0-.21,0l-.5.75a.15.15,0,0,0,0,.13.12.12,0,0,0,.11.07h.25l-.6.8a.12.12,0,0,0,0,.13.12.12,0,0,0,.11.07H55l-.67.92a.13.13,0,0,0,.1.2h.87v.25h.25v-.25h.88a.13.13,0,0,0,.1-.2Zm5.33,0-.67-.92h.32a.12.12,0,0,0,.11-.07.12.12,0,0,0,0-.13l-.6-.8h.25a.12.12,0,0,0,.11-.07.15.15,0,0,0,0-.13l-.5-.75a.13.13,0,0,0-.21,0l-.5.75a.12.12,0,0,0,0,.13.14.14,0,0,0,.11.07h.25l-.6.8a.12.12,0,0,0,0,.13.12.12,0,0,0,.11.07h.32l-.67.92a.13.13,0,0,0,.1.2h.88v.25h.25v-.25h.87a.13.13,0,0,0,.1-.2Z"/></g></svg>