<svg id="Sprites" xmlns="http://www.w3.org/2000/svg" viewBox="0 0 64 64"><defs><style>.cls-1{fill:none;}.cls-2{fill:#236035;}</style></defs><g id="exotic_non_poly_random_sparse_half"><rect id="bbox_64" class="cls-1" width="32" height="32"/><path id="exotic_non_random_sparse" class="cls-2" d="M4.9,4a.37.37,0,0,1-.28.62l-.13,0a.38.38,0,0,1-.37.27.25.25,0,0,1-.12,0,.37.37,0,0,0-.12.27v.25H3.62V5.12a.37.37,0,0,0-.12-.27.25.25,0,0,1-.12,0A.38.38,0,0,1,3,4.6l-.13,0A.37.37,0,0,1,2.6,4a.37.37,0,0,1,.18-.61.32.32,0,0,1,0-.14A.38.38,0,0,1,3,2.9v0a.38.38,0,0,1,.38-.37.37.37,0,1,1,.74,0,.38.38,0,0,1,.38.37v0a.38.38,0,0,1,.25.35.32.32,0,0,1,0,.14A.37.37,0,0,1,4.9,4Zm7.6,1a.38.38,0,0,0-.28-.36.32.32,0,0,0,0-.14A.38.38,0,0,0,12,4.15v0a.38.38,0,0,0-.38-.37.37.37,0,1,0-.74,0,.38.38,0,0,0-.38.37v0a.38.38,0,0,0-.25.35.32.32,0,0,0,0,.14.37.37,0,0,0-.18.61.37.37,0,0,0,.28.62l.13,0a.38.38,0,0,0,.37.27.25.25,0,0,0,.12,0,.37.37,0,0,1,.12.27v.25h.26V6.37a.37.37,0,0,1,.12-.27.25.25,0,0,0,.12,0A.38.38,0,0,0,12,5.85l.13,0a.37.37,0,0,0,.28-.62A.37.37,0,0,0,12.5,5ZM7.25,10A.38.38,0,0,0,7,9.64.32.32,0,0,0,7,9.5a.38.38,0,0,0-.25-.35v0a.38.38,0,0,0-.37-.37.38.38,0,1,0-.76,0,.38.38,0,0,0-.37.37v0A.38.38,0,0,0,5,9.5a.32.32,0,0,0,0,.14.37.37,0,0,0-.18.61.37.37,0,0,0-.1.25.37.37,0,0,0,.37.37l.14,0a.37.37,0,0,0,.36.27.27.27,0,0,0,.13,0,.39.39,0,0,1,.13.27v.25h.24v-.25a.39.39,0,0,1,.13-.27.27.27,0,0,0,.13,0,.38.38,0,0,0,.36-.27l.14,0a.37.37,0,0,0,.37-.37.37.37,0,0,0-.1-.25A.37.37,0,0,0,7.25,10Zm6.5,2.5a.38.38,0,0,0-.28-.36.32.32,0,0,0,0-.14.38.38,0,0,0-.25-.35v0a.38.38,0,0,0-.37-.37.38.38,0,0,0-.76,0,.38.38,0,0,0-.37.37v0a.38.38,0,0,0-.25.35.32.32,0,0,0,0,.14.37.37,0,0,0-.18.61.37.37,0,0,0-.1.25.37.37,0,0,0,.37.37l.14,0a.37.37,0,0,0,.36.27.27.27,0,0,0,.13,0,.39.39,0,0,1,.13.27v.25h.24v-.25a.39.39,0,0,1,.13-.27.27.27,0,0,0,.13,0,.38.38,0,0,0,.36-.27l.14,0a.37.37,0,0,0,.37-.37.37.37,0,0,0-.1-.25A.37.37,0,0,0,13.75,12.5Z"/><path id="exotic_non_random_sparse-2" data-name="exotic_non_random_sparse" class="cls-2" d="M4.9,20a.37.37,0,0,1-.28.62l-.13,0a.38.38,0,0,1-.37.27.25.25,0,0,1-.12,0,.37.37,0,0,0-.12.27v.25H3.62v-.25a.37.37,0,0,0-.12-.27.25.25,0,0,1-.12,0A.38.38,0,0,1,3,20.6l-.13,0A.37.37,0,0,1,2.6,20a.37.37,0,0,1,.18-.61.32.32,0,0,1,0-.14A.38.38,0,0,1,3,18.9v0a.38.38,0,0,1,.38-.37.37.37,0,1,1,.74,0,.38.38,0,0,1,.38.37v0a.38.38,0,0,1,.25.35.32.32,0,0,1,0,.14A.37.37,0,0,1,4.9,20Zm7.6,1a.38.38,0,0,0-.28-.36.32.32,0,0,0,0-.14.38.38,0,0,0-.25-.35v0a.38.38,0,0,0-.38-.37.37.37,0,1,0-.74,0,.38.38,0,0,0-.38.37v0a.38.38,0,0,0-.25.35.32.32,0,0,0,0,.14.37.37,0,0,0-.18.61.37.37,0,0,0,.28.62l.13,0a.38.38,0,0,0,.37.27.25.25,0,0,0,.12,0,.37.37,0,0,1,.12.27v.25h.26v-.25a.37.37,0,0,1,.12-.27.25.25,0,0,0,.12,0,.38.38,0,0,0,.37-.27l.13,0a.37.37,0,0,0,.28-.62A.37.37,0,0,0,12.5,21ZM7.25,26A.38.38,0,0,0,7,25.64a.32.32,0,0,0,0-.14.38.38,0,0,0-.25-.35v0a.38.38,0,0,0-.37-.37.38.38,0,0,0-.76,0,.38.38,0,0,0-.37.37v0A.38.38,0,0,0,5,25.5a.32.32,0,0,0,0,.14.37.37,0,0,0-.18.61.37.37,0,0,0-.1.25.37.37,0,0,0,.37.37l.14,0a.37.37,0,0,0,.36.27.27.27,0,0,0,.13,0,.39.39,0,0,1,.13.27v.25h.24v-.25a.39.39,0,0,1,.13-.27.27.27,0,0,0,.13,0,.38.38,0,0,0,.36-.27l.14,0a.37.37,0,0,0,.37-.37.37.37,0,0,0-.1-.25A.37.37,0,0,0,7.25,26Zm6.5,2.5a.38.38,0,0,0-.28-.36.32.32,0,0,0,0-.14.38.38,0,0,0-.25-.35v0a.38.38,0,0,0-.37-.37.38.38,0,1,0-.76,0,.38.38,0,0,0-.37.37v0a.38.38,0,0,0-.25.35.32.32,0,0,0,0,.14.37.37,0,0,0-.18.61.37.37,0,0,0-.1.25.37.37,0,0,0,.37.37l.14,0a.38.38,0,0,0,.36.27.27.27,0,0,0,.13,0,.39.39,0,0,1,.13.27v.25h.24v-.25a.39.39,0,0,1,.13-.27.27.27,0,0,0,.13,0,.37.37,0,0,0,.36-.27l.14,0a.37.37,0,0,0,.37-.37.37.37,0,0,0-.1-.25A.37.37,0,0,0,13.75,28.5Z"/><path id="exotic_non_random_sparse-3" data-name="exotic_non_random_sparse" class="cls-2" d="M20.9,4a.37.37,0,0,1-.28.62l-.13,0a.38.38,0,0,1-.37.27.25.25,0,0,1-.12,0,.37.37,0,0,0-.12.27v.25h-.26V5.12a.37.37,0,0,0-.12-.27.25.25,0,0,1-.12,0A.38.38,0,0,1,19,4.6l-.13,0A.37.37,0,0,1,18.6,4a.37.37,0,0,1,.18-.61.32.32,0,0,1,0-.14A.38.38,0,0,1,19,2.9v0a.38.38,0,0,1,.38-.37.37.37,0,1,1,.74,0,.38.38,0,0,1,.38.37v0a.38.38,0,0,1,.25.35.32.32,0,0,1,0,.14A.37.37,0,0,1,20.9,4Zm7.6,1a.38.38,0,0,0-.28-.36.32.32,0,0,0,0-.14A.38.38,0,0,0,28,4.15v0a.38.38,0,0,0-.38-.37.37.37,0,1,0-.74,0,.38.38,0,0,0-.38.37v0a.38.38,0,0,0-.25.35.32.32,0,0,0,0,.14.37.37,0,0,0-.18.61.37.37,0,0,0,.28.62l.13,0a.38.38,0,0,0,.37.27.25.25,0,0,0,.12,0,.37.37,0,0,1,.12.27v.25h.26V6.37a.37.37,0,0,1,.12-.27.25.25,0,0,0,.12,0A.38.38,0,0,0,28,5.85l.13,0a.37.37,0,0,0,.28-.62A.37.37,0,0,0,28.5,5Zm-5.25,5A.38.38,0,0,0,23,9.64a.32.32,0,0,0,0-.14.38.38,0,0,0-.25-.35v0a.38.38,0,0,0-.37-.37.38.38,0,1,0-.76,0,.38.38,0,0,0-.37.37v0A.38.38,0,0,0,21,9.5a.32.32,0,0,0,0,.14.37.37,0,0,0-.18.61.37.37,0,0,0-.1.25.37.37,0,0,0,.37.37l.14,0a.38.38,0,0,0,.36.27.27.27,0,0,0,.13,0,.39.39,0,0,1,.13.27v.25h.24v-.25a.39.39,0,0,1,.13-.27.27.27,0,0,0,.13,0,.37.37,0,0,0,.36-.27l.14,0a.37.37,0,0,0,.37-.37.37.37,0,0,0-.1-.25A.37.37,0,0,0,23.25,10Zm6.5,2.5a.38.38,0,0,0-.28-.36.32.32,0,0,0,0-.14.38.38,0,0,0-.25-.35v0a.38.38,0,0,0-.37-.37.38.38,0,0,0-.76,0,.38.38,0,0,0-.37.37v0a.38.38,0,0,0-.25.35.32.32,0,0,0,0,.14.37.37,0,0,0-.18.61.37.37,0,0,0-.1.25.37.37,0,0,0,.37.37l.14,0a.37.37,0,0,0,.36.27.27.27,0,0,0,.13,0,.39.39,0,0,1,.13.27v.25h.24v-.25a.39.39,0,0,1,.13-.27.27.27,0,0,0,.13,0,.38.38,0,0,0,.36-.27l.14,0a.37.37,0,0,0,.37-.37.37.37,0,0,0-.1-.25A.37.37,0,0,0,29.75,12.5Z"/><path id="exotic_non_random_sparse-4" data-name="exotic_non_random_sparse" class="cls-2" d="M20.9,20a.37.37,0,0,1-.28.62l-.13,0a.38.38,0,0,1-.37.27.25.25,0,0,1-.12,0,.37.37,0,0,0-.12.27v.25h-.26v-.25a.37.37,0,0,0-.12-.27.25.25,0,0,1-.12,0A.38.38,0,0,1,19,20.6l-.13,0A.37.37,0,0,1,18.6,20a.37.37,0,0,1,.18-.61.32.32,0,0,1,0-.14A.38.38,0,0,1,19,18.9v0a.38.38,0,0,1,.38-.37.37.37,0,1,1,.74,0,.38.38,0,0,1,.38.37v0a.38.38,0,0,1,.25.35.32.32,0,0,1,0,.14.37.37,0,0,1,.18.61Zm7.6,1a.38.38,0,0,0-.28-.36.32.32,0,0,0,0-.14.38.38,0,0,0-.25-.35v0a.38.38,0,0,0-.38-.37.37.37,0,1,0-.74,0,.38.38,0,0,0-.38.37v0a.38.38,0,0,0-.25.35.32.32,0,0,0,0,.14.37.37,0,0,0-.18.61.37.37,0,0,0,.28.62l.13,0a.38.38,0,0,0,.37.27.25.25,0,0,0,.12,0,.37.37,0,0,1,.12.27v.25h.26v-.25a.37.37,0,0,1,.12-.27.25.25,0,0,0,.12,0,.38.38,0,0,0,.37-.27l.13,0a.37.37,0,0,0,.28-.62A.37.37,0,0,0,28.5,21Zm-5.25,5a.38.38,0,0,0-.28-.36.32.32,0,0,0,0-.14.38.38,0,0,0-.25-.35v0a.38.38,0,0,0-.37-.37.38.38,0,0,0-.76,0,.38.38,0,0,0-.37.37v0a.38.38,0,0,0-.25.35.32.32,0,0,0,0,.14.37.37,0,0,0-.18.61.37.37,0,0,0-.1.25.37.37,0,0,0,.37.37l.14,0a.38.38,0,0,0,.36.27.27.27,0,0,0,.13,0,.39.39,0,0,1,.13.27v.25h.24v-.25a.39.39,0,0,1,.13-.27.27.27,0,0,0,.13,0,.37.37,0,0,0,.36-.27l.14,0a.37.37,0,0,0,.37-.37.37.37,0,0,0-.1-.25A.37.37,0,0,0,23.25,26Zm6.5,2.5a.38.38,0,0,0-.28-.36.32.32,0,0,0,0-.14.38.38,0,0,0-.25-.35v0a.38.38,0,0,0-.37-.37.38.38,0,0,0-.76,0,.38.38,0,0,0-.37.37v0a.38.38,0,0,0-.25.35.32.32,0,0,0,0,.14.37.37,0,0,0-.18.61.37.37,0,0,0-.1.25.37.37,0,0,0,.37.37l.14,0a.38.38,0,0,0,.36.27.27.27,0,0,0,.13,0,.39.39,0,0,1,.13.27v.25h.24v-.25a.39.39,0,0,1,.13-.27.27.27,0,0,0,.13,0,.37.37,0,0,0,.36-.27l.14,0a.37.37,0,0,0,.37-.37.37.37,0,0,0-.1-.25A.37.37,0,0,0,29.75,28.5Z"/></g><g id="exotic_non_poly_random_sparse_half-2" data-name="exotic_non_poly_random_sparse_half"><rect id="bbox_64-2" data-name="bbox_64" class="cls-1" x="32" width="32" height="32"/><path id="exotic_non_random_sparse-5" data-name="exotic_non_random_sparse" class="cls-2" d="M36.9,4a.37.37,0,0,1-.28.62l-.13,0a.38.38,0,0,1-.37.27.25.25,0,0,1-.12,0,.37.37,0,0,0-.12.27v.25h-.26V5.12a.37.37,0,0,0-.12-.27.25.25,0,0,1-.12,0A.38.38,0,0,1,35,4.6l-.13,0A.37.37,0,0,1,34.6,4a.37.37,0,0,1,.18-.61.32.32,0,0,1,0-.14A.38.38,0,0,1,35,2.9v0a.38.38,0,0,1,.38-.37.37.37,0,1,1,.74,0,.38.38,0,0,1,.38.37v0a.38.38,0,0,1,.25.35.32.32,0,0,1,0,.14A.37.37,0,0,1,36.9,4Zm7.6,1a.38.38,0,0,0-.28-.36.32.32,0,0,0,0-.14A.38.38,0,0,0,44,4.15v0a.38.38,0,0,0-.38-.37.37.37,0,1,0-.74,0,.38.38,0,0,0-.38.37v0a.38.38,0,0,0-.25.35.32.32,0,0,0,0,.14.37.37,0,0,0-.18.61.37.37,0,0,0,.28.62l.13,0a.38.38,0,0,0,.37.27.25.25,0,0,0,.12,0,.37.37,0,0,1,.12.27v.25h.26V6.37a.37.37,0,0,1,.12-.27.25.25,0,0,0,.12,0A.38.38,0,0,0,44,5.85l.13,0a.37.37,0,0,0,.28-.62A.37.37,0,0,0,44.5,5Zm-5.25,5A.38.38,0,0,0,39,9.64a.32.32,0,0,0,0-.14.38.38,0,0,0-.25-.35v0a.38.38,0,0,0-.37-.37.38.38,0,1,0-.76,0,.38.38,0,0,0-.37.37v0A.38.38,0,0,0,37,9.5a.32.32,0,0,0,0,.14.37.37,0,0,0-.18.61.37.37,0,0,0-.1.25.37.37,0,0,0,.37.37l.14,0a.38.38,0,0,0,.36.27.27.27,0,0,0,.13,0,.39.39,0,0,1,.13.27v.25h.24v-.25a.39.39,0,0,1,.13-.27.27.27,0,0,0,.13,0,.37.37,0,0,0,.36-.27l.14,0a.37.37,0,0,0,.37-.37.37.37,0,0,0-.1-.25A.37.37,0,0,0,39.25,10Zm6.5,2.5a.38.38,0,0,0-.28-.36.32.32,0,0,0,0-.14.38.38,0,0,0-.25-.35v0a.38.38,0,0,0-.37-.37.38.38,0,1,0-.76,0,.38.38,0,0,0-.37.37v0a.38.38,0,0,0-.25.35.32.32,0,0,0,0,.14.37.37,0,0,0-.18.61.37.37,0,0,0-.1.25.37.37,0,0,0,.37.37l.14,0a.38.38,0,0,0,.36.27.27.27,0,0,0,.13,0,.39.39,0,0,1,.13.27v.25h.24v-.25a.39.39,0,0,1,.13-.27.27.27,0,0,0,.13,0,.37.37,0,0,0,.36-.27l.14,0a.37.37,0,0,0,.37-.37.37.37,0,0,0-.1-.25A.37.37,0,0,0,45.75,12.5Z"/><path id="exotic_non_random_sparse-6" data-name="exotic_non_random_sparse" class="cls-2" d="M36.9,20a.37.37,0,0,1-.28.62l-.13,0a.38.38,0,0,1-.37.27.25.25,0,0,1-.12,0,.37.37,0,0,0-.12.27v.25h-.26v-.25a.37.37,0,0,0-.12-.27.25.25,0,0,1-.12,0A.38.38,0,0,1,35,20.6l-.13,0A.37.37,0,0,1,34.6,20a.37.37,0,0,1,.18-.61.32.32,0,0,1,0-.14A.38.38,0,0,1,35,18.9v0a.38.38,0,0,1,.38-.37.37.37,0,1,1,.74,0,.38.38,0,0,1,.38.37v0a.38.38,0,0,1,.25.35.32.32,0,0,1,0,.14.37.37,0,0,1,.18.61Zm7.6,1a.38.38,0,0,0-.28-.36.32.32,0,0,0,0-.14.38.38,0,0,0-.25-.35v0a.38.38,0,0,0-.38-.37.37.37,0,1,0-.74,0,.38.38,0,0,0-.38.37v0a.38.38,0,0,0-.25.35.32.32,0,0,0,0,.14.37.37,0,0,0-.18.61.37.37,0,0,0,.28.62l.13,0a.38.38,0,0,0,.37.27.25.25,0,0,0,.12,0,.37.37,0,0,1,.12.27v.25h.26v-.25a.37.37,0,0,1,.12-.27.25.25,0,0,0,.12,0,.38.38,0,0,0,.37-.27l.13,0a.37.37,0,0,0,.28-.62A.37.37,0,0,0,44.5,21Zm-5.25,5a.38.38,0,0,0-.28-.36.32.32,0,0,0,0-.14.38.38,0,0,0-.25-.35v0a.38.38,0,0,0-.37-.37.38.38,0,0,0-.76,0,.38.38,0,0,0-.37.37v0a.38.38,0,0,0-.25.35.32.32,0,0,0,0,.14.37.37,0,0,0-.18.61.37.37,0,0,0-.1.25.37.37,0,0,0,.37.37l.14,0a.38.38,0,0,0,.36.27.27.27,0,0,0,.13,0,.39.39,0,0,1,.13.27v.25h.24v-.25a.39.39,0,0,1,.13-.27.27.27,0,0,0,.13,0,.37.37,0,0,0,.36-.27l.14,0a.37.37,0,0,0,.37-.37.37.37,0,0,0-.1-.25A.37.37,0,0,0,39.25,26Zm6.5,2.5a.38.38,0,0,0-.28-.36.32.32,0,0,0,0-.14.38.38,0,0,0-.25-.35v0a.38.38,0,0,0-.37-.37.38.38,0,1,0-.76,0,.38.38,0,0,0-.37.37v0a.38.38,0,0,0-.25.35.32.32,0,0,0,0,.14.37.37,0,0,0-.18.61.37.37,0,0,0-.1.25.37.37,0,0,0,.37.37l.14,0a.38.38,0,0,0,.36.27.27.27,0,0,0,.13,0,.39.39,0,0,1,.13.27v.25h.24v-.25a.39.39,0,0,1,.13-.27.27.27,0,0,0,.13,0,.38.38,0,0,0,.36-.27l.14,0a.37.37,0,0,0,.37-.37.37.37,0,0,0-.1-.25A.37.37,0,0,0,45.75,28.5Z"/><path id="exotic_non_random_sparse-7" data-name="exotic_non_random_sparse" class="cls-2" d="M52.9,4a.37.37,0,0,1-.28.62l-.13,0a.38.38,0,0,1-.37.27.25.25,0,0,1-.12,0,.37.37,0,0,0-.12.27v.25h-.26V5.12a.37.37,0,0,0-.12-.27.25.25,0,0,1-.12,0A.38.38,0,0,1,51,4.6l-.13,0A.37.37,0,0,1,50.6,4a.37.37,0,0,1,.18-.61.32.32,0,0,1,0-.14A.38.38,0,0,1,51,2.9v0a.38.38,0,0,1,.38-.37.37.37,0,1,1,.74,0,.38.38,0,0,1,.38.37v0a.38.38,0,0,1,.25.35.32.32,0,0,1,0,.14A.37.37,0,0,1,52.9,4Zm7.6,1a.38.38,0,0,0-.28-.36.32.32,0,0,0,0-.14A.38.38,0,0,0,60,4.15v0a.38.38,0,0,0-.38-.37.37.37,0,1,0-.74,0,.38.38,0,0,0-.38.37v0a.38.38,0,0,0-.25.35.32.32,0,0,0,0,.14.37.37,0,0,0-.18.61.37.37,0,0,0,.28.62l.13,0a.38.38,0,0,0,.37.27.25.25,0,0,0,.12,0,.37.37,0,0,1,.12.27v.25h.26V6.37a.37.37,0,0,1,.12-.27.25.25,0,0,0,.12,0A.38.38,0,0,0,60,5.85l.13,0a.37.37,0,0,0,.28-.62A.37.37,0,0,0,60.5,5Zm-5.25,5A.38.38,0,0,0,55,9.64a.32.32,0,0,0,0-.14.38.38,0,0,0-.25-.35v0a.38.38,0,0,0-.37-.37.38.38,0,0,0-.76,0,.38.38,0,0,0-.37.37v0A.38.38,0,0,0,53,9.5a.32.32,0,0,0,0,.14.37.37,0,0,0-.18.61.37.37,0,0,0-.1.25.37.37,0,0,0,.37.37l.14,0a.38.38,0,0,0,.36.27.27.27,0,0,0,.13,0,.39.39,0,0,1,.13.27v.25h.24v-.25a.39.39,0,0,1,.13-.27.27.27,0,0,0,.13,0,.37.37,0,0,0,.36-.27l.14,0a.37.37,0,0,0,.37-.37.37.37,0,0,0-.1-.25A.37.37,0,0,0,55.25,10Zm6.5,2.5a.38.38,0,0,0-.28-.36.32.32,0,0,0,0-.14.38.38,0,0,0-.25-.35v0a.38.38,0,0,0-.37-.37.38.38,0,0,0-.76,0,.38.38,0,0,0-.37.37v0a.38.38,0,0,0-.25.35.32.32,0,0,0,0,.14.37.37,0,0,0-.18.61.37.37,0,0,0-.1.25.37.37,0,0,0,.37.37l.14,0a.38.38,0,0,0,.36.27.27.27,0,0,0,.13,0,.39.39,0,0,1,.13.27v.25h.24v-.25a.39.39,0,0,1,.13-.27.27.27,0,0,0,.13,0,.37.37,0,0,0,.36-.27l.14,0a.37.37,0,0,0,.37-.37.37.37,0,0,0-.1-.25A.37.37,0,0,0,61.75,12.5Z"/><path id="exotic_non_random_sparse-8" data-name="exotic_non_random_sparse" class="cls-2" d="M52.9,20a.37.37,0,0,1-.28.62l-.13,0a.38.38,0,0,1-.37.27.25.25,0,0,1-.12,0,.37.37,0,0,0-.12.27v.25h-.26v-.25a.37.37,0,0,0-.12-.27.25.25,0,0,1-.12,0A.38.38,0,0,1,51,20.6l-.13,0A.37.37,0,0,1,50.6,20a.37.37,0,0,1,.18-.61.32.32,0,0,1,0-.14A.38.38,0,0,1,51,18.9v0a.38.38,0,0,1,.38-.37.37.37,0,1,1,.74,0,.38.38,0,0,1,.38.37v0a.38.38,0,0,1,.25.35.32.32,0,0,1,0,.14.37.37,0,0,1,.18.61Zm7.6,1a.38.38,0,0,0-.28-.36.32.32,0,0,0,0-.14.38.38,0,0,0-.25-.35v0a.38.38,0,0,0-.38-.37.37.37,0,1,0-.74,0,.38.38,0,0,0-.38.37v0a.38.38,0,0,0-.25.35.32.32,0,0,0,0,.14.37.37,0,0,0-.18.61.37.37,0,0,0,.28.62l.13,0a.38.38,0,0,0,.37.27.25.25,0,0,0,.12,0,.37.37,0,0,1,.12.27v.25h.26v-.25a.37.37,0,0,1,.12-.27.25.25,0,0,0,.12,0,.38.38,0,0,0,.37-.27l.13,0a.37.37,0,0,0,.28-.62A.37.37,0,0,0,60.5,21Zm-5.25,5a.38.38,0,0,0-.28-.36.32.32,0,0,0,0-.14.38.38,0,0,0-.25-.35v0a.38.38,0,0,0-.37-.37.38.38,0,1,0-.76,0,.38.38,0,0,0-.37.37v0a.38.38,0,0,0-.25.35.32.32,0,0,0,0,.14.37.37,0,0,0-.18.61.37.37,0,0,0-.1.25.37.37,0,0,0,.37.37l.14,0a.38.38,0,0,0,.36.27.27.27,0,0,0,.13,0,.39.39,0,0,1,.13.27v.25h.24v-.25a.39.39,0,0,1,.13-.27.27.27,0,0,0,.13,0,.37.37,0,0,0,.36-.27l.14,0a.37.37,0,0,0,.37-.37.37.37,0,0,0-.1-.25A.37.37,0,0,0,55.25,26Zm6.5,2.5a.38.38,0,0,0-.28-.36.32.32,0,0,0,0-.14.38.38,0,0,0-.25-.35v0a.38.38,0,0,0-.37-.37.38.38,0,1,0-.76,0,.38.38,0,0,0-.37.37v0a.38.38,0,0,0-.25.35.32.32,0,0,0,0,.14.37.37,0,0,0-.18.61.37.37,0,0,0-.1.25.37.37,0,0,0,.37.37l.14,0a.38.38,0,0,0,.36.27.27.27,0,0,0,.13,0,.39.39,0,0,1,.13.27v.25h.24v-.25a.39.39,0,0,1,.13-.27.27.27,0,0,0,.13,0,.37.37,0,0,0,.36-.27l.14,0a.37.37,0,0,0,.37-.37.37.37,0,0,0-.1-.25A.37.37,0,0,0,61.75,28.5Z"/></g><g id="exotic_non_poly_random_sparse_half-3" data-name="exotic_non_poly_random_sparse_half"><rect id="bbox_64-3" data-name="bbox_64" class="cls-1" y="32" width="32" height="32"/><path id="exotic_non_random_sparse-9" data-name="exotic_non_random_sparse" class="cls-2" d="M4.9,36a.37.37,0,0,1-.28.62l-.13,0a.38.38,0,0,1-.37.27.25.25,0,0,1-.12,0,.37.37,0,0,0-.12.27v.25H3.62v-.25a.37.37,0,0,0-.12-.27.25.25,0,0,1-.12,0A.38.38,0,0,1,3,36.6l-.13,0A.37.37,0,0,1,2.6,36a.37.37,0,0,1,.18-.61.32.32,0,0,1,0-.14A.38.38,0,0,1,3,34.9v0a.38.38,0,0,1,.38-.37.37.37,0,1,1,.74,0,.38.38,0,0,1,.38.37v0a.38.38,0,0,1,.25.35.32.32,0,0,1,0,.14A.37.37,0,0,1,4.9,36Zm7.6,1a.38.38,0,0,0-.28-.36.32.32,0,0,0,0-.14.38.38,0,0,0-.25-.35v0a.38.38,0,0,0-.38-.37.37.37,0,1,0-.74,0,.38.38,0,0,0-.38.37v0a.38.38,0,0,0-.25.35.32.32,0,0,0,0,.14.37.37,0,0,0-.18.61.37.37,0,0,0,.28.62l.13,0a.38.38,0,0,0,.37.27.25.25,0,0,0,.12,0,.37.37,0,0,1,.12.27v.25h.26v-.25a.37.37,0,0,1,.12-.27.25.25,0,0,0,.12,0,.38.38,0,0,0,.37-.27l.13,0a.37.37,0,0,0,.28-.62A.37.37,0,0,0,12.5,37ZM7.25,42A.38.38,0,0,0,7,41.64a.32.32,0,0,0,0-.14.38.38,0,0,0-.25-.35v0a.38.38,0,0,0-.37-.37.38.38,0,0,0-.76,0,.38.38,0,0,0-.37.37v0A.38.38,0,0,0,5,41.5a.32.32,0,0,0,0,.14.37.37,0,0,0-.18.61.37.37,0,0,0-.1.25.37.37,0,0,0,.37.37l.14,0a.37.37,0,0,0,.36.27.27.27,0,0,0,.13,0,.39.39,0,0,1,.13.27v.25h.24v-.25a.39.39,0,0,1,.13-.27.27.27,0,0,0,.13,0,.37.37,0,0,0,.36-.27l.14,0a.37.37,0,0,0,.37-.37.37.37,0,0,0-.1-.25A.37.37,0,0,0,7.25,42Zm6.5,2.5a.38.38,0,0,0-.28-.36.32.32,0,0,0,0-.14.38.38,0,0,0-.25-.35v0a.38.38,0,0,0-.37-.37.38.38,0,0,0-.76,0,.38.38,0,0,0-.37.37v0a.38.38,0,0,0-.25.35.32.32,0,0,0,0,.14.37.37,0,0,0-.18.61.37.37,0,0,0-.1.25.37.37,0,0,0,.37.37l.14,0a.37.37,0,0,0,.36.27.27.27,0,0,0,.13,0,.39.39,0,0,1,.13.27v.25h.24v-.25a.39.39,0,0,1,.13-.27.27.27,0,0,0,.13,0,.37.37,0,0,0,.36-.27l.14,0a.37.37,0,0,0,.37-.37.37.37,0,0,0-.1-.25A.37.37,0,0,0,13.75,44.5Z"/><path id="exotic_non_random_sparse-10" data-name="exotic_non_random_sparse" class="cls-2" d="M4.9,52a.37.37,0,0,1-.28.62l-.13,0a.38.38,0,0,1-.37.27.25.25,0,0,1-.12,0,.37.37,0,0,0-.12.27v.25H3.62v-.25a.37.37,0,0,0-.12-.27.25.25,0,0,1-.12,0A.38.38,0,0,1,3,52.6l-.13,0a.7.7,0,0,1-.1-1.23.32.32,0,0,1,0-.14A.38.38,0,0,1,3,50.9v0a.38.38,0,0,1,.38-.37.37.37,0,1,1,.74,0,.38.38,0,0,1,.38.37v0a.38.38,0,0,1,.25.35.32.32,0,0,1,0,.14A.37.37,0,0,1,4.9,52Zm7.6,1a.38.38,0,0,0-.28-.36.32.32,0,0,0,0-.14.38.38,0,0,0-.25-.35v0a.38.38,0,0,0-.38-.37.37.37,0,1,0-.74,0,.38.38,0,0,0-.38.37v0a.38.38,0,0,0-.25.35.32.32,0,0,0,0,.14,4.84,4.84,0,0,1-.28.86.37.37,0,0,0,.38.37l.13,0a.38.38,0,0,0,.37.27.25.25,0,0,0,.12,0,.37.37,0,0,1,.12.27v.25h.26v-.25a.37.37,0,0,1,.12-.27.25.25,0,0,0,.12,0,.38.38,0,0,0,.37-.27l.13,0A10.87,10.87,0,0,0,12.5,53ZM7.25,58A.38.38,0,0,0,7,57.64a.32.32,0,0,0,0-.14.38.38,0,0,0-.25-.35v0a.38.38,0,0,0-.37-.37.38.38,0,0,0-.76,0,.38.38,0,0,0-.37.37v0A.38.38,0,0,0,5,57.5a.32.32,0,0,0,0,.14,4.84,4.84,0,0,1-.28.86.37.37,0,0,0,.37.37l.14,0a.37.37,0,0,0,.36.27.27.27,0,0,0,.13,0,.39.39,0,0,1,.13.27v.25h.24v-.25a.39.39,0,0,1,.13-.27.27.27,0,0,0,.13,0,.37.37,0,0,0,.36-.27l.14,0a.37.37,0,0,0,.37-.37.36.36,0,0,1,0-.5Zm6.5,2.5a.38.38,0,0,0-.28-.36.32.32,0,0,0,0-.14.38.38,0,0,0-.25-.35v0a.38.38,0,0,0-.37-.37.38.38,0,1,0-.76,0,.38.38,0,0,0-.37.37v0a.38.38,0,0,0-.25.35.32.32,0,0,0,0,.14,4.84,4.84,0,0,1-.28.86.37.37,0,0,0,.37.37l.14,0a.37.37,0,0,0,.36.27.27.27,0,0,0,.13,0,.39.39,0,0,1,.13.27v.25h.24v-.25a.39.39,0,0,1,.13-.27.27.27,0,0,0,.13,0,.37.37,0,0,0,.36-.27l.14,0a.37.37,0,0,0,.37-.37.36.36,0,0,1,0-.5Z"/><path id="exotic_non_random_sparse-11" data-name="exotic_non_random_sparse" class="cls-2" d="M20.9,36a.37.37,0,0,1-.28.62l-.13,0a.38.38,0,0,1-.37.27.25.25,0,0,1-.12,0,.37.37,0,0,0-.12.27v.25h-.26v-.25a.37.37,0,0,0-.12-.27.25.25,0,0,1-.12,0A.38.38,0,0,1,19,36.6l-.13,0A.37.37,0,0,1,18.6,36a.37.37,0,0,1,.18-.61.32.32,0,0,1,0-.14A.38.38,0,0,1,19,34.9v0a.38.38,0,0,1,.38-.37.37.37,0,1,1,.74,0,.38.38,0,0,1,.38.37v0a.38.38,0,0,1,.25.35.32.32,0,0,1,0,.14.37.37,0,0,1,.18.61Zm7.6,1a.38.38,0,0,0-.28-.36.32.32,0,0,0,0-.14.38.38,0,0,0-.25-.35v0a.38.38,0,0,0-.38-.37.37.37,0,1,0-.74,0,.38.38,0,0,0-.38.37v0a.38.38,0,0,0-.25.35.32.32,0,0,0,0,.14.37.37,0,0,0-.18.61.37.37,0,0,0,.28.62l.13,0a.38.38,0,0,0,.37.27.25.25,0,0,0,.12,0,.37.37,0,0,1,.12.27v.25h.26v-.25a.37.37,0,0,1,.12-.27.25.25,0,0,0,.12,0,.38.38,0,0,0,.37-.27l.13,0a.37.37,0,0,0,.28-.62A.37.37,0,0,0,28.5,37Zm-5.25,5a.38.38,0,0,0-.28-.36.32.32,0,0,0,0-.14.38.38,0,0,0-.25-.35v0a.38.38,0,0,0-.37-.37.38.38,0,1,0-.76,0,.38.38,0,0,0-.37.37v0a.38.38,0,0,0-.25.35.32.32,0,0,0,0,.14.37.37,0,0,0-.18.61.37.37,0,0,0-.1.25.37.37,0,0,0,.37.37l.14,0a.37.37,0,0,0,.36.27.27.27,0,0,0,.13,0,.39.39,0,0,1,.13.27v.25h.24v-.25a.39.39,0,0,1,.13-.27.27.27,0,0,0,.13,0,.38.38,0,0,0,.36-.27l.14,0a.37.37,0,0,0,.37-.37.37.37,0,0,0-.1-.25A.37.37,0,0,0,23.25,42Zm6.5,2.5a.38.38,0,0,0-.28-.36.32.32,0,0,0,0-.14.38.38,0,0,0-.25-.35v0a.38.38,0,0,0-.37-.37.38.38,0,0,0-.76,0,.38.38,0,0,0-.37.37v0a.38.38,0,0,0-.25.35.32.32,0,0,0,0,.14.37.37,0,0,0-.18.61.37.37,0,0,0-.1.25.37.37,0,0,0,.37.37l.14,0a.37.37,0,0,0,.36.27.27.27,0,0,0,.13,0,.39.39,0,0,1,.13.27v.25h.24v-.25a.39.39,0,0,1,.13-.27.27.27,0,0,0,.13,0,.38.38,0,0,0,.36-.27l.14,0a.37.37,0,0,0,.37-.37.37.37,0,0,0-.1-.25A.37.37,0,0,0,29.75,44.5Z"/><path id="exotic_non_random_sparse-12" data-name="exotic_non_random_sparse" class="cls-2" d="M20.9,52a.37.37,0,0,1-.28.62l-.13,0a.38.38,0,0,1-.37.27.25.25,0,0,1-.12,0,.37.37,0,0,0-.12.27v.25h-.26v-.25a.37.37,0,0,0-.12-.27.25.25,0,0,1-.12,0A.38.38,0,0,1,19,52.6l-.13,0a.7.7,0,0,1-.1-1.23.32.32,0,0,1,0-.14A.38.38,0,0,1,19,50.9v0a.38.38,0,0,1,.38-.37.37.37,0,1,1,.74,0,.38.38,0,0,1,.38.37v0a.38.38,0,0,1,.25.35.32.32,0,0,1,0,.14.37.37,0,0,1,.18.61Zm7.6,1a.38.38,0,0,0-.28-.36.32.32,0,0,0,0-.14.38.38,0,0,0-.25-.35v0a.38.38,0,0,0-.38-.37.37.37,0,1,0-.74,0,.38.38,0,0,0-.38.37v0a.38.38,0,0,0-.25.35.32.32,0,0,0,0,.14,4.84,4.84,0,0,1-.28.86.37.37,0,0,0,.38.37l.13,0a.38.38,0,0,0,.37.27.25.25,0,0,0,.12,0,.37.37,0,0,1,.12.27v.25h.26v-.25a.37.37,0,0,1,.12-.27.25.25,0,0,0,.12,0,.38.38,0,0,0,.37-.27l.13,0A10.87,10.87,0,0,0,28.5,53Zm-5.25,5a.38.38,0,0,0-.28-.36.32.32,0,0,0,0-.14.38.38,0,0,0-.25-.35v0a.38.38,0,0,0-.37-.37.38.38,0,0,0-.76,0,.38.38,0,0,0-.37.37v0a.38.38,0,0,0-.25.35.32.32,0,0,0,0,.14,4.84,4.84,0,0,1-.28.86.37.37,0,0,0,.37.37l.14,0a.38.38,0,0,0,.36.27.27.27,0,0,0,.13,0,.39.39,0,0,1,.13.27v.25h.24v-.25a.39.39,0,0,1,.13-.27.27.27,0,0,0,.13,0,.37.37,0,0,0,.36-.27l.14,0a.37.37,0,0,0,.37-.37.36.36,0,0,1,0-.5Zm6.5,2.5a.38.38,0,0,0-.28-.36.32.32,0,0,0,0-.14.38.38,0,0,0-.25-.35v0a.38.38,0,0,0-.37-.37.38.38,0,0,0-.76,0,.38.38,0,0,0-.37.37v0a.38.38,0,0,0-.25.35.32.32,0,0,0,0,.14,4.84,4.84,0,0,1-.28.86.37.37,0,0,0,.37.37l.14,0a.37.37,0,0,0,.36.27.27.27,0,0,0,.13,0,.39.39,0,0,1,.13.27v.25h.24v-.25a.39.39,0,0,1,.13-.27.27.27,0,0,0,.13,0,.37.37,0,0,0,.36-.27l.14,0a.37.37,0,0,0,.37-.37.36.36,0,0,1,0-.5Z"/></g><g id="exotic_non_poly_random_sparse_half-4" data-name="exotic_non_poly_random_sparse_half"><rect id="bbox_64-4" data-name="bbox_64" class="cls-1" x="32" y="32" width="32" height="32"/><path id="exotic_non_random_sparse-13" data-name="exotic_non_random_sparse" class="cls-2" d="M36.9,36a.37.37,0,0,1-.28.62l-.13,0a.38.38,0,0,1-.37.27.25.25,0,0,1-.12,0,.37.37,0,0,0-.12.27v.25h-.26v-.25a.37.37,0,0,0-.12-.27.25.25,0,0,1-.12,0A.38.38,0,0,1,35,36.6l-.13,0A.37.37,0,0,1,34.6,36a.37.37,0,0,1,.18-.61.32.32,0,0,1,0-.14A.38.38,0,0,1,35,34.9v0a.38.38,0,0,1,.38-.37.37.37,0,1,1,.74,0,.38.38,0,0,1,.38.37v0a.38.38,0,0,1,.25.35.32.32,0,0,1,0,.14.37.37,0,0,1,.18.61Zm7.6,1a.38.38,0,0,0-.28-.36.32.32,0,0,0,0-.14.38.38,0,0,0-.25-.35v0a.38.38,0,0,0-.38-.37.37.37,0,1,0-.74,0,.38.38,0,0,0-.38.37v0a.38.38,0,0,0-.25.35.32.32,0,0,0,0,.14.37.37,0,0,0-.18.61.37.37,0,0,0,.28.62l.13,0a.38.38,0,0,0,.37.27.25.25,0,0,0,.12,0,.37.37,0,0,1,.12.27v.25h.26v-.25a.37.37,0,0,1,.12-.27.25.25,0,0,0,.12,0,.38.38,0,0,0,.37-.27l.13,0a.37.37,0,0,0,.28-.62A.37.37,0,0,0,44.5,37Zm-5.25,5a.38.38,0,0,0-.28-.36.32.32,0,0,0,0-.14.38.38,0,0,0-.25-.35v0a.38.38,0,0,0-.37-.37.38.38,0,0,0-.76,0,.38.38,0,0,0-.37.37v0a.38.38,0,0,0-.25.35.32.32,0,0,0,0,.14.37.37,0,0,0-.18.61.37.37,0,0,0-.1.25.37.37,0,0,0,.37.37l.14,0a.38.38,0,0,0,.36.27.27.27,0,0,0,.13,0,.39.39,0,0,1,.13.27v.25h.24v-.25a.39.39,0,0,1,.13-.27.27.27,0,0,0,.13,0,.37.37,0,0,0,.36-.27l.14,0a.37.37,0,0,0,.37-.37.37.37,0,0,0-.1-.25A.37.37,0,0,0,39.25,42Zm6.5,2.5a.38.38,0,0,0-.28-.36.32.32,0,0,0,0-.14.38.38,0,0,0-.25-.35v0a.38.38,0,0,0-.37-.37.38.38,0,0,0-.76,0,.38.38,0,0,0-.37.37v0a.38.38,0,0,0-.25.35.32.32,0,0,0,0,.14.37.37,0,0,0-.18.61.37.37,0,0,0-.1.25.37.37,0,0,0,.37.37l.14,0a.38.38,0,0,0,.36.27.27.27,0,0,0,.13,0,.39.39,0,0,1,.13.27v.25h.24v-.25a.39.39,0,0,1,.13-.27.27.27,0,0,0,.13,0,.38.38,0,0,0,.36-.27l.14,0a.37.37,0,0,0,.37-.37.37.37,0,0,0-.1-.25A.37.37,0,0,0,45.75,44.5Z"/><path id="exotic_non_random_sparse-14" data-name="exotic_non_random_sparse" class="cls-2" d="M36.9,52a.37.37,0,0,1-.28.62l-.13,0a.38.38,0,0,1-.37.27.25.25,0,0,1-.12,0,.37.37,0,0,0-.12.27v.25h-.26v-.25a.37.37,0,0,0-.12-.27.25.25,0,0,1-.12,0A.38.38,0,0,1,35,52.6l-.13,0a.7.7,0,0,1-.1-1.23.32.32,0,0,1,0-.14A.38.38,0,0,1,35,50.9v0a.38.38,0,0,1,.38-.37.37.37,0,1,1,.74,0,.38.38,0,0,1,.38.37v0a.38.38,0,0,1,.25.35.32.32,0,0,1,0,.14.37.37,0,0,1,.18.61Zm7.6,1a.38.38,0,0,0-.28-.36.32.32,0,0,0,0-.14.38.38,0,0,0-.25-.35v0a.38.38,0,0,0-.38-.37.37.37,0,1,0-.74,0,.38.38,0,0,0-.38.37v0a.38.38,0,0,0-.25.35.32.32,0,0,0,0,.14,4.84,4.84,0,0,1-.28.86.37.37,0,0,0,.38.37l.13,0a.38.38,0,0,0,.37.27.25.25,0,0,0,.12,0,.37.37,0,0,1,.12.27v.25h.26v-.25a.37.37,0,0,1,.12-.27.25.25,0,0,0,.12,0,.38.38,0,0,0,.37-.27l.13,0A10.87,10.87,0,0,0,44.5,53Zm-5.25,5a.38.38,0,0,0-.28-.36.32.32,0,0,0,0-.14.38.38,0,0,0-.25-.35v0a.38.38,0,0,0-.37-.37.38.38,0,0,0-.76,0,.38.38,0,0,0-.37.37v0a.38.38,0,0,0-.25.35.32.32,0,0,0,0,.14,4.84,4.84,0,0,1-.28.86.37.37,0,0,0,.37.37l.14,0a.38.38,0,0,0,.36.27.27.27,0,0,0,.13,0,.39.39,0,0,1,.13.27v.25h.24v-.25a.39.39,0,0,1,.13-.27.27.27,0,0,0,.13,0,.38.38,0,0,0,.36-.27l.14,0a.37.37,0,0,0,.37-.37.36.36,0,0,1,0-.5Zm6.5,2.5a.38.38,0,0,0-.28-.36.32.32,0,0,0,0-.14.38.38,0,0,0-.25-.35v0a.38.38,0,0,0-.37-.37.38.38,0,0,0-.76,0,.38.38,0,0,0-.37.37v0a.38.38,0,0,0-.25.35.32.32,0,0,0,0,.14,4.84,4.84,0,0,1-.28.86.37.37,0,0,0,.37.37l.14,0a.38.38,0,0,0,.36.27.27.27,0,0,0,.13,0,.39.39,0,0,1,.13.27v.25h.24v-.25a.39.39,0,0,1,.13-.27.27.27,0,0,0,.13,0,.38.38,0,0,0,.36-.27l.14,0a.37.37,0,0,0,.37-.37.36.36,0,0,1,0-.5Z"/><path id="exotic_non_random_sparse-15" data-name="exotic_non_random_sparse" class="cls-2" d="M52.9,36a.37.37,0,0,1-.28.62l-.13,0a.38.38,0,0,1-.37.27.25.25,0,0,1-.12,0,.37.37,0,0,0-.12.27v.25h-.26v-.25a.37.37,0,0,0-.12-.27.25.25,0,0,1-.12,0A.38.38,0,0,1,51,36.6l-.13,0A.37.37,0,0,1,50.6,36a.37.37,0,0,1,.18-.61.32.32,0,0,1,0-.14A.38.38,0,0,1,51,34.9v0a.38.38,0,0,1,.38-.37.37.37,0,1,1,.74,0,.38.38,0,0,1,.38.37v0a.38.38,0,0,1,.25.35.32.32,0,0,1,0,.14.37.37,0,0,1,.18.61Zm7.6,1a.38.38,0,0,0-.28-.36.32.32,0,0,0,0-.14.38.38,0,0,0-.25-.35v0a.38.38,0,0,0-.38-.37.37.37,0,1,0-.74,0,.38.38,0,0,0-.38.37v0a.38.38,0,0,0-.25.35.32.32,0,0,0,0,.14.37.37,0,0,0-.18.61.37.37,0,0,0,.28.62l.13,0a.38.38,0,0,0,.37.27.25.25,0,0,0,.12,0,.37.37,0,0,1,.12.27v.25h.26v-.25a.37.37,0,0,1,.12-.27.25.25,0,0,0,.12,0,.38.38,0,0,0,.37-.27l.13,0a.37.37,0,0,0,.28-.62A.37.37,0,0,0,60.5,37Zm-5.25,5a.38.38,0,0,0-.28-.36.32.32,0,0,0,0-.14.38.38,0,0,0-.25-.35v0a.38.38,0,0,0-.37-.37.38.38,0,0,0-.76,0,.38.38,0,0,0-.37.37v0a.38.38,0,0,0-.25.35.32.32,0,0,0,0,.14.37.37,0,0,0-.18.61.37.37,0,0,0-.1.25.37.37,0,0,0,.37.37l.14,0a.38.38,0,0,0,.36.27.27.27,0,0,0,.13,0,.39.39,0,0,1,.13.27v.25h.24v-.25a.39.39,0,0,1,.13-.27.27.27,0,0,0,.13,0,.38.38,0,0,0,.36-.27l.14,0a.37.37,0,0,0,.37-.37.37.37,0,0,0-.1-.25A.37.37,0,0,0,55.25,42Zm6.5,2.5a.38.38,0,0,0-.28-.36.32.32,0,0,0,0-.14.38.38,0,0,0-.25-.35v0a.38.38,0,0,0-.37-.37.38.38,0,0,0-.76,0,.38.38,0,0,0-.37.37v0a.38.38,0,0,0-.25.35.32.32,0,0,0,0,.14.37.37,0,0,0-.18.61.37.37,0,0,0-.1.25.37.37,0,0,0,.37.37l.14,0a.38.38,0,0,0,.36.27.27.27,0,0,0,.13,0,.39.39,0,0,1,.13.27v.25h.24v-.25a.39.39,0,0,1,.13-.27.27.27,0,0,0,.13,0,.37.37,0,0,0,.36-.27l.14,0a.37.37,0,0,0,.37-.37.37.37,0,0,0-.1-.25A.37.37,0,0,0,61.75,44.5Z"/><path id="exotic_non_random_sparse-16" data-name="exotic_non_random_sparse" class="cls-2" d="M52.9,52a.37.37,0,0,1-.28.62l-.13,0a.38.38,0,0,1-.37.27.25.25,0,0,1-.12,0,.37.37,0,0,0-.12.27v.25h-.26v-.25a.37.37,0,0,0-.12-.27.25.25,0,0,1-.12,0A.38.38,0,0,1,51,52.6l-.13,0a.7.7,0,0,1-.1-1.23.32.32,0,0,1,0-.14A.38.38,0,0,1,51,50.9v0a.38.38,0,0,1,.38-.37.37.37,0,1,1,.74,0,.38.38,0,0,1,.38.37v0a.38.38,0,0,1,.25.35.32.32,0,0,1,0,.14.37.37,0,0,1,.18.61Zm7.6,1a.38.38,0,0,0-.28-.36.32.32,0,0,0,0-.14.38.38,0,0,0-.25-.35v0a.38.38,0,0,0-.38-.37.37.37,0,1,0-.74,0,.38.38,0,0,0-.38.37v0a.38.38,0,0,0-.25.35.32.32,0,0,0,0,.14,4.84,4.84,0,0,1-.28.86.37.37,0,0,0,.38.37l.13,0a.38.38,0,0,0,.37.27.25.25,0,0,0,.12,0,.37.37,0,0,1,.12.27v.25h.26v-.25a.37.37,0,0,1,.12-.27.25.25,0,0,0,.12,0,.38.38,0,0,0,.37-.27l.13,0A10.87,10.87,0,0,0,60.5,53Zm-5.25,5a.38.38,0,0,0-.28-.36.32.32,0,0,0,0-.14.38.38,0,0,0-.25-.35v0a.38.38,0,0,0-.37-.37.38.38,0,0,0-.76,0,.38.38,0,0,0-.37.37v0a.38.38,0,0,0-.25.35.32.32,0,0,0,0,.14,4.84,4.84,0,0,1-.28.86.37.37,0,0,0,.37.37l.14,0a.38.38,0,0,0,.36.27.27.27,0,0,0,.13,0,.39.39,0,0,1,.13.27v.25h.24v-.25a.39.39,0,0,1,.13-.27.27.27,0,0,0,.13,0,.38.38,0,0,0,.36-.27l.14,0a.37.37,0,0,0,.37-.37.36.36,0,0,1,0-.5Zm6.5,2.5a.38.38,0,0,0-.28-.36.32.32,0,0,0,0-.14.38.38,0,0,0-.25-.35v0a.38.38,0,0,0-.37-.37.38.38,0,0,0-.76,0,.38.38,0,0,0-.37.37v0a.38.38,0,0,0-.25.35.32.32,0,0,0,0,.14,4.84,4.84,0,0,1-.28.86.37.37,0,0,0,.37.37l.14,0a.38.38,0,0,0,.36.27.27.27,0,0,0,.13,0,.39.39,0,0,1,.13.27v.25h.24v-.25a.39.39,0,0,1,.13-.27.27.27,0,0,0,.13,0,.38.38,0,0,0,.36-.27l.14,0a.37.37,0,0,0,.37-.37.36.36,0,0,1,0-.5Z"/></g></svg>