<svg id="Sprites" xmlns="http://www.w3.org/2000/svg" viewBox="0 0 16 16"><defs><style>.cls-1{fill:none;}.cls-2{fill:#236035;}</style></defs><g id="exotic_con_pnt_green"><rect id="bbox_16" class="cls-1" width="16" height="16"/><path id="exotic_con_green" class="cls-2" d="M12.4,12.71,9.71,9H11a.5.5,0,0,0,.4-.8L9,5h1a.5.5,0,0,0,.42-.78l-2-3a.54.54,0,0,0-.84,0l-2,3A.5.5,0,0,0,6,5H7L4.6,8.2A.5.5,0,0,0,5,9H6.29L3.6,12.71a.51.51,0,0,0-.05.52A.52.52,0,0,0,4,13.5H7.5v1h1v-1H12a.52.52,0,0,0,.45-.27A.51.51,0,0,0,12.4,12.71Z"/></g></svg>