<svg id="Sprites" xmlns="http://www.w3.org/2000/svg" viewBox="0 0 64 64"><defs><style>.cls-1{fill:none;}.cls-2{fill:#236035;}</style></defs><g id="exotic_con_poly_grid_dense_half"><rect id="bbox_64" class="cls-1" width="64" height="64"/><path id="exotic_con_grid_dense" class="cls-2" d="M6.47,8a.26.26,0,0,1-.22.14H4.5v.5H4v-.5H2.25A.26.26,0,0,1,2,8a.23.23,0,0,1,0-.26L3.4,5.92H2.75a.26.26,0,0,1-.22-.14.22.22,0,0,1,0-.26l1.2-1.6h-.5A.24.24,0,0,1,3,3.78a.25.25,0,0,1,0-.25L4,2a.26.26,0,0,1,.42,0l1,1.5a.25.25,0,0,1,0,.25.24.24,0,0,1-.22.14h-.5L6,5.52a.22.22,0,0,1,0,.26.26.26,0,0,1-.22.14H5.1L6.45,7.77A.23.23,0,0,1,6.47,8Zm8,0a.26.26,0,0,1-.22.14H12.5v.5H12v-.5H10.25A.26.26,0,0,1,10,8a.23.23,0,0,1,0-.26L11.4,5.92h-.65a.26.26,0,0,1-.22-.14.22.22,0,0,1,0-.26l1.2-1.6h-.5A.24.24,0,0,1,11,3.78a.25.25,0,0,1,0-.25L12,2a.26.26,0,0,1,.42,0l1,1.5a.25.25,0,0,1,0,.25.24.24,0,0,1-.22.14h-.5L14,5.52a.22.22,0,0,1,0,.26.26.26,0,0,1-.22.14H13.1l1.35,1.85A.23.23,0,0,1,14.47,8Zm8,0a.26.26,0,0,1-.22.14H20.5v.5H20v-.5H18.25A.26.26,0,0,1,18,8a.23.23,0,0,1,0-.26L19.4,5.92h-.65a.26.26,0,0,1-.22-.14.22.22,0,0,1,0-.26l1.2-1.6h-.5A.24.24,0,0,1,19,3.78a.25.25,0,0,1,0-.25L20,2a.26.26,0,0,1,.42,0l1,1.5a.25.25,0,0,1,0,.25.24.24,0,0,1-.22.14h-.5L22,5.52a.22.22,0,0,1,0,.26.26.26,0,0,1-.22.14H21.1l1.35,1.85A.23.23,0,0,1,22.47,8Zm8,0a.26.26,0,0,1-.22.14H28.5v.5H28v-.5H26.25A.26.26,0,0,1,26,8a.23.23,0,0,1,0-.26L27.4,5.92h-.65a.26.26,0,0,1-.22-.14.22.22,0,0,1,0-.26l1.2-1.6h-.5A.24.24,0,0,1,27,3.78a.25.25,0,0,1,0-.25L28,2a.26.26,0,0,1,.42,0l1,1.5a.25.25,0,0,1,0,.25.24.24,0,0,1-.22.14h-.5L30,5.52a.22.22,0,0,1,0,.26.26.26,0,0,1-.22.14H29.1l1.35,1.85A.23.23,0,0,1,30.47,8ZM6.47,18.7a.25.25,0,0,1-.22.13H4.5v.5H4v-.5H2.25A.25.25,0,0,1,2,18.7a.22.22,0,0,1,0-.26L3.4,16.58H2.75a.25.25,0,0,1-.22-.13.24.24,0,0,1,0-.27l1.2-1.6h-.5A.25.25,0,0,1,3,14.45a.27.27,0,0,1,0-.26l1-1.5a.27.27,0,0,1,.42,0l1,1.5a.27.27,0,0,1,0,.26.25.25,0,0,1-.22.13h-.5L6,16.18a.24.24,0,0,1,0,.27.25.25,0,0,1-.22.13H5.1l1.35,1.86A.22.22,0,0,1,6.47,18.7Zm8,0a.25.25,0,0,1-.22.13H12.5v.5H12v-.5H10.25A.25.25,0,0,1,10,18.7a.22.22,0,0,1,0-.26l1.35-1.86h-.65a.25.25,0,0,1-.22-.13.24.24,0,0,1,0-.27l1.2-1.6h-.5a.25.25,0,0,1-.22-.13.27.27,0,0,1,0-.26l1-1.5a.27.27,0,0,1,.42,0l1,1.5a.27.27,0,0,1,0,.26.25.25,0,0,1-.22.13h-.5l1.2,1.6a.24.24,0,0,1,0,.27.25.25,0,0,1-.22.13H13.1l1.35,1.86A.22.22,0,0,1,14.47,18.7Zm8,0a.25.25,0,0,1-.22.13H20.5v.5H20v-.5H18.25A.25.25,0,0,1,18,18.7a.22.22,0,0,1,0-.26l1.35-1.86h-.65a.25.25,0,0,1-.22-.13.24.24,0,0,1,0-.27l1.2-1.6h-.5a.25.25,0,0,1-.22-.13.27.27,0,0,1,0-.26l1-1.5a.27.27,0,0,1,.42,0l1,1.5a.27.27,0,0,1,0,.26.25.25,0,0,1-.22.13h-.5l1.2,1.6a.24.24,0,0,1,0,.27.25.25,0,0,1-.22.13H21.1l1.35,1.86A.22.22,0,0,1,22.47,18.7Zm8,0a.25.25,0,0,1-.22.13H28.5v.5H28v-.5H26.25A.25.25,0,0,1,26,18.7a.22.22,0,0,1,0-.26l1.35-1.86h-.65a.25.25,0,0,1-.22-.13.24.24,0,0,1,0-.27l1.2-1.6h-.5a.25.25,0,0,1-.22-.13.27.27,0,0,1,0-.26l1-1.5a.27.27,0,0,1,.42,0l1,1.5a.27.27,0,0,1,0,.26.25.25,0,0,1-.22.13h-.5l1.2,1.6a.24.24,0,0,1,0,.27.25.25,0,0,1-.22.13H29.1l1.35,1.86A.22.22,0,0,1,30.47,18.7Zm-24,10.66a.24.24,0,0,1-.22.14H4.5V30H4v-.5H2.25A.24.24,0,0,1,2,29.36a.23.23,0,0,1,0-.26L3.4,27.25H2.75a.24.24,0,0,1-.22-.14.23.23,0,0,1,0-.26l1.2-1.6h-.5A.25.25,0,0,1,3,25.12a.27.27,0,0,1,0-.26l1-1.5a.26.26,0,0,1,.42,0l1,1.5a.27.27,0,0,1,0,.26.25.25,0,0,1-.22.13h-.5L6,26.85a.23.23,0,0,1,0,.26.24.24,0,0,1-.22.14H5.1L6.45,29.1A.23.23,0,0,1,6.47,29.36Zm8,0a.24.24,0,0,1-.22.14H12.5V30H12v-.5H10.25a.24.24,0,0,1-.22-.14.23.23,0,0,1,0-.26l1.35-1.85h-.65a.24.24,0,0,1-.22-.14.23.23,0,0,1,0-.26l1.2-1.6h-.5a.25.25,0,0,1-.22-.13.27.27,0,0,1,0-.26l1-1.5a.26.26,0,0,1,.42,0l1,1.5a.27.27,0,0,1,0,.26.25.25,0,0,1-.22.13h-.5l1.2,1.6a.23.23,0,0,1,0,.26.24.24,0,0,1-.22.14H13.1l1.35,1.85A.23.23,0,0,1,14.47,29.36Zm8,0a.24.24,0,0,1-.22.14H20.5V30H20v-.5H18.25a.24.24,0,0,1-.22-.14.23.23,0,0,1,0-.26l1.35-1.85h-.65a.24.24,0,0,1-.22-.14.23.23,0,0,1,0-.26l1.2-1.6h-.5a.25.25,0,0,1-.22-.13.27.27,0,0,1,0-.26l1-1.5a.26.26,0,0,1,.42,0l1,1.5a.27.27,0,0,1,0,.26.25.25,0,0,1-.22.13h-.5l1.2,1.6a.23.23,0,0,1,0,.26.24.24,0,0,1-.22.14H21.1l1.35,1.85A.23.23,0,0,1,22.47,29.36Zm8,0a.24.24,0,0,1-.22.14H28.5V30H28v-.5H26.25a.24.24,0,0,1-.22-.14.23.23,0,0,1,0-.26l1.35-1.85h-.65a.24.24,0,0,1-.22-.14.23.23,0,0,1,0-.26l1.2-1.6h-.5a.25.25,0,0,1-.22-.13.27.27,0,0,1,0-.26l1-1.5a.26.26,0,0,1,.42,0l1,1.5a.27.27,0,0,1,0,.26.25.25,0,0,1-.22.13h-.5l1.2,1.6a.23.23,0,0,1,0,.26.24.24,0,0,1-.22.14H29.1l1.35,1.85A.23.23,0,0,1,30.47,29.36Z"/><path id="exotic_con_grid_dense-2" data-name="exotic_con_grid_dense" class="cls-2" d="M6.47,40a.26.26,0,0,1-.22.14H4.5v.5H4v-.5H2.25A.26.26,0,0,1,2,40a.23.23,0,0,1,0-.26L3.4,37.92H2.75a.26.26,0,0,1-.22-.14.22.22,0,0,1,0-.26l1.2-1.6h-.5A.24.24,0,0,1,3,35.78a.25.25,0,0,1,0-.25L4,34a.26.26,0,0,1,.42,0l1,1.5a.25.25,0,0,1,0,.25.24.24,0,0,1-.22.14h-.5L6,37.52a.22.22,0,0,1,0,.26.26.26,0,0,1-.22.14H5.1l1.35,1.85A.23.23,0,0,1,6.47,40Zm8,0a.26.26,0,0,1-.22.14H12.5v.5H12v-.5H10.25A.26.26,0,0,1,10,40a.23.23,0,0,1,0-.26l1.35-1.85h-.65a.26.26,0,0,1-.22-.14.22.22,0,0,1,0-.26l1.2-1.6h-.5a.24.24,0,0,1-.22-.14.25.25,0,0,1,0-.25L12,34a.26.26,0,0,1,.42,0l1,1.5a.25.25,0,0,1,0,.25.24.24,0,0,1-.22.14h-.5l1.2,1.6a.22.22,0,0,1,0,.26.26.26,0,0,1-.22.14H13.1l1.35,1.85A.23.23,0,0,1,14.47,40Zm8,0a.26.26,0,0,1-.22.14H20.5v.5H20v-.5H18.25A.26.26,0,0,1,18,40a.23.23,0,0,1,0-.26l1.35-1.85h-.65a.26.26,0,0,1-.22-.14.22.22,0,0,1,0-.26l1.2-1.6h-.5a.24.24,0,0,1-.22-.14.25.25,0,0,1,0-.25L20,34a.26.26,0,0,1,.42,0l1,1.5a.25.25,0,0,1,0,.25.24.24,0,0,1-.22.14h-.5l1.2,1.6a.22.22,0,0,1,0,.26.26.26,0,0,1-.22.14H21.1l1.35,1.85A.23.23,0,0,1,22.47,40Zm8,0a.26.26,0,0,1-.22.14H28.5v.5H28v-.5H26.25A.26.26,0,0,1,26,40a.23.23,0,0,1,0-.26l1.35-1.85h-.65a.26.26,0,0,1-.22-.14.22.22,0,0,1,0-.26l1.2-1.6h-.5a.24.24,0,0,1-.22-.14.25.25,0,0,1,0-.25L28,34a.26.26,0,0,1,.42,0l1,1.5a.25.25,0,0,1,0,.25.24.24,0,0,1-.22.14h-.5l1.2,1.6a.22.22,0,0,1,0,.26.26.26,0,0,1-.22.14H29.1l1.35,1.85A.23.23,0,0,1,30.47,40ZM6.47,50.7a.25.25,0,0,1-.22.13H4.5v.5H4v-.5H2.25A.25.25,0,0,1,2,50.7a.22.22,0,0,1,0-.26L3.4,48.58H2.75a.25.25,0,0,1-.22-.13.24.24,0,0,1,0-.27l1.2-1.6h-.5A.25.25,0,0,1,3,46.45a.27.27,0,0,1,0-.26l1-1.5a.27.27,0,0,1,.42,0l1,1.5a.27.27,0,0,1,0,.26.25.25,0,0,1-.22.13h-.5L6,48.18a.24.24,0,0,1,0,.27.25.25,0,0,1-.22.13H5.1l1.35,1.86A.22.22,0,0,1,6.47,50.7Zm8,0a.25.25,0,0,1-.22.13H12.5v.5H12v-.5H10.25A.25.25,0,0,1,10,50.7a.22.22,0,0,1,0-.26l1.35-1.86h-.65a.25.25,0,0,1-.22-.13.24.24,0,0,1,0-.27l1.2-1.6h-.5a.25.25,0,0,1-.22-.13.27.27,0,0,1,0-.26l1-1.5a.27.27,0,0,1,.42,0l1,1.5a.27.27,0,0,1,0,.26.25.25,0,0,1-.22.13h-.5l1.2,1.6a.24.24,0,0,1,0,.27.25.25,0,0,1-.22.13H13.1l1.35,1.86A.22.22,0,0,1,14.47,50.7Zm8,0a.25.25,0,0,1-.22.13H20.5v.5H20v-.5H18.25A.25.25,0,0,1,18,50.7a.22.22,0,0,1,0-.26l1.35-1.86h-.65a.25.25,0,0,1-.22-.13.24.24,0,0,1,0-.27l1.2-1.6h-.5a.25.25,0,0,1-.22-.13.27.27,0,0,1,0-.26l1-1.5a.27.27,0,0,1,.42,0l1,1.5a.27.27,0,0,1,0,.26.25.25,0,0,1-.22.13h-.5l1.2,1.6a.24.24,0,0,1,0,.27.25.25,0,0,1-.22.13H21.1l1.35,1.86A.22.22,0,0,1,22.47,50.7Zm8,0a.25.25,0,0,1-.22.13H28.5v.5H28v-.5H26.25A.25.25,0,0,1,26,50.7a.22.22,0,0,1,0-.26l1.35-1.86h-.65a.25.25,0,0,1-.22-.13.24.24,0,0,1,0-.27l1.2-1.6h-.5a.25.25,0,0,1-.22-.13.27.27,0,0,1,0-.26l1-1.5a.27.27,0,0,1,.42,0l1,1.5a.27.27,0,0,1,0,.26.25.25,0,0,1-.22.13h-.5l1.2,1.6a.24.24,0,0,1,0,.27.25.25,0,0,1-.22.13H29.1l1.35,1.86A.22.22,0,0,1,30.47,50.7Zm-24,10.66a.24.24,0,0,1-.22.14H4.5V62H4v-.5H2.25A.24.24,0,0,1,2,61.36a.23.23,0,0,1,0-.26L3.4,59.25H2.75a.24.24,0,0,1-.22-.14.23.23,0,0,1,0-.26l1.2-1.6h-.5A.25.25,0,0,1,3,57.12a.27.27,0,0,1,0-.26l1-1.5a.26.26,0,0,1,.42,0l1,1.5a.27.27,0,0,1,0,.26.25.25,0,0,1-.22.13h-.5L6,58.85a.23.23,0,0,1,0,.26.24.24,0,0,1-.22.14H5.1L6.45,61.1A.23.23,0,0,1,6.47,61.36Zm8,0a.24.24,0,0,1-.22.14H12.5V62H12v-.5H10.25a.24.24,0,0,1-.22-.14.23.23,0,0,1,0-.26l1.35-1.85h-.65a.24.24,0,0,1-.22-.14.23.23,0,0,1,0-.26l1.2-1.6h-.5a.25.25,0,0,1-.22-.13.27.27,0,0,1,0-.26l1-1.5a.26.26,0,0,1,.42,0l1,1.5a.27.27,0,0,1,0,.26.25.25,0,0,1-.22.13h-.5l1.2,1.6a.23.23,0,0,1,0,.26.24.24,0,0,1-.22.14H13.1l1.35,1.85A.23.23,0,0,1,14.47,61.36Zm8,0a.24.24,0,0,1-.22.14H20.5V62H20v-.5H18.25a.24.24,0,0,1-.22-.14.23.23,0,0,1,0-.26l1.35-1.85h-.65a.24.24,0,0,1-.22-.14.23.23,0,0,1,0-.26l1.2-1.6h-.5a.25.25,0,0,1-.22-.13.27.27,0,0,1,0-.26l1-1.5a.26.26,0,0,1,.42,0l1,1.5a.27.27,0,0,1,0,.26.25.25,0,0,1-.22.13h-.5l1.2,1.6a.23.23,0,0,1,0,.26.24.24,0,0,1-.22.14H21.1l1.35,1.85A.23.23,0,0,1,22.47,61.36Zm8,0a.24.24,0,0,1-.22.14H28.5V62H28v-.5H26.25a.24.24,0,0,1-.22-.14.23.23,0,0,1,0-.26l1.35-1.85h-.65a.24.24,0,0,1-.22-.14.23.23,0,0,1,0-.26l1.2-1.6h-.5a.25.25,0,0,1-.22-.13.27.27,0,0,1,0-.26l1-1.5a.26.26,0,0,1,.42,0l1,1.5a.27.27,0,0,1,0,.26.25.25,0,0,1-.22.13h-.5l1.2,1.6a.23.23,0,0,1,0,.26.24.24,0,0,1-.22.14H29.1l1.35,1.85A.23.23,0,0,1,30.47,61.36Z"/><path id="exotic_con_grid_dense-3" data-name="exotic_con_grid_dense" class="cls-2" d="M38.47,8a.26.26,0,0,1-.22.14H36.5v.5H36v-.5H34.25A.26.26,0,0,1,34,8a.23.23,0,0,1,0-.26L35.4,5.92h-.65a.26.26,0,0,1-.22-.14.22.22,0,0,1,0-.26l1.2-1.6h-.5A.24.24,0,0,1,35,3.78a.25.25,0,0,1,0-.25L36,2a.26.26,0,0,1,.42,0l1,1.5a.25.25,0,0,1,0,.25.24.24,0,0,1-.22.14h-.5L38,5.52a.22.22,0,0,1,0,.26.26.26,0,0,1-.22.14H37.1l1.35,1.85A.23.23,0,0,1,38.47,8Zm8,0a.26.26,0,0,1-.22.14H44.5v.5H44v-.5H42.25A.26.26,0,0,1,42,8a.23.23,0,0,1,0-.26L43.4,5.92h-.65a.26.26,0,0,1-.22-.14.22.22,0,0,1,0-.26l1.2-1.6h-.5A.24.24,0,0,1,43,3.78a.25.25,0,0,1,0-.25L44,2a.26.26,0,0,1,.42,0l1,1.5a.25.25,0,0,1,0,.25.24.24,0,0,1-.22.14h-.5L46,5.52a.22.22,0,0,1,0,.26.26.26,0,0,1-.22.14H45.1l1.35,1.85A.23.23,0,0,1,46.47,8Zm8,0a.26.26,0,0,1-.22.14H52.5v.5H52v-.5H50.25A.26.26,0,0,1,50,8a.23.23,0,0,1,0-.26L51.4,5.92h-.65a.26.26,0,0,1-.22-.14.22.22,0,0,1,0-.26l1.2-1.6h-.5A.24.24,0,0,1,51,3.78a.25.25,0,0,1,0-.25L52,2a.26.26,0,0,1,.42,0l1,1.5a.25.25,0,0,1,0,.25.24.24,0,0,1-.22.14h-.5L54,5.52a.22.22,0,0,1,0,.26.26.26,0,0,1-.22.14H53.1l1.35,1.85A.23.23,0,0,1,54.47,8Zm8,0a.26.26,0,0,1-.22.14H60.5v.5H60v-.5H58.25A.26.26,0,0,1,58,8a.23.23,0,0,1,0-.26L59.4,5.92h-.65a.26.26,0,0,1-.22-.14.22.22,0,0,1,0-.26l1.2-1.6h-.5A.24.24,0,0,1,59,3.78a.25.25,0,0,1,0-.25L60,2a.26.26,0,0,1,.42,0l1,1.5a.25.25,0,0,1,0,.25.24.24,0,0,1-.22.14h-.5L62,5.52a.22.22,0,0,1,0,.26.26.26,0,0,1-.22.14H61.1l1.35,1.85A.23.23,0,0,1,62.47,8Zm-24,10.67a.25.25,0,0,1-.22.13H36.5v.5H36v-.5H34.25A.25.25,0,0,1,34,18.7a.22.22,0,0,1,0-.26l1.35-1.86h-.65a.25.25,0,0,1-.22-.13.24.24,0,0,1,0-.27l1.2-1.6h-.5a.25.25,0,0,1-.22-.13.27.27,0,0,1,0-.26l1-1.5a.27.27,0,0,1,.42,0l1,1.5a.27.27,0,0,1,0,.26.25.25,0,0,1-.22.13h-.5l1.2,1.6a.24.24,0,0,1,0,.27.25.25,0,0,1-.22.13H37.1l1.35,1.86A.22.22,0,0,1,38.47,18.7Zm8,0a.25.25,0,0,1-.22.13H44.5v.5H44v-.5H42.25A.25.25,0,0,1,42,18.7a.22.22,0,0,1,0-.26l1.35-1.86h-.65a.25.25,0,0,1-.22-.13.24.24,0,0,1,0-.27l1.2-1.6h-.5a.25.25,0,0,1-.22-.13.27.27,0,0,1,0-.26l1-1.5a.27.27,0,0,1,.42,0l1,1.5a.27.27,0,0,1,0,.26.25.25,0,0,1-.22.13h-.5l1.2,1.6a.24.24,0,0,1,0,.27.25.25,0,0,1-.22.13H45.1l1.35,1.86A.22.22,0,0,1,46.47,18.7Zm8,0a.25.25,0,0,1-.22.13H52.5v.5H52v-.5H50.25A.25.25,0,0,1,50,18.7a.22.22,0,0,1,0-.26l1.35-1.86h-.65a.25.25,0,0,1-.22-.13.24.24,0,0,1,0-.27l1.2-1.6h-.5a.25.25,0,0,1-.22-.13.27.27,0,0,1,0-.26l1-1.5a.27.27,0,0,1,.42,0l1,1.5a.27.27,0,0,1,0,.26.25.25,0,0,1-.22.13h-.5l1.2,1.6a.24.24,0,0,1,0,.27.25.25,0,0,1-.22.13H53.1l1.35,1.86A.22.22,0,0,1,54.47,18.7Zm8,0a.25.25,0,0,1-.22.13H60.5v.5H60v-.5H58.25A.25.25,0,0,1,58,18.7a.22.22,0,0,1,0-.26l1.35-1.86h-.65a.25.25,0,0,1-.22-.13.24.24,0,0,1,0-.27l1.2-1.6h-.5a.25.25,0,0,1-.22-.13.27.27,0,0,1,0-.26l1-1.5a.27.27,0,0,1,.42,0l1,1.5a.27.27,0,0,1,0,.26.25.25,0,0,1-.22.13h-.5l1.2,1.6a.24.24,0,0,1,0,.27.25.25,0,0,1-.22.13H61.1l1.35,1.86A.22.22,0,0,1,62.47,18.7Zm-24,10.66a.24.24,0,0,1-.22.14H36.5V30H36v-.5H34.25a.24.24,0,0,1-.22-.14.23.23,0,0,1,0-.26l1.35-1.85h-.65a.24.24,0,0,1-.22-.14.23.23,0,0,1,0-.26l1.2-1.6h-.5a.25.25,0,0,1-.22-.13.27.27,0,0,1,0-.26l1-1.5a.26.26,0,0,1,.42,0l1,1.5a.27.27,0,0,1,0,.26.25.25,0,0,1-.22.13h-.5l1.2,1.6a.23.23,0,0,1,0,.26.24.24,0,0,1-.22.14H37.1l1.35,1.85A.23.23,0,0,1,38.47,29.36Zm8,0a.24.24,0,0,1-.22.14H44.5V30H44v-.5H42.25a.24.24,0,0,1-.22-.14.23.23,0,0,1,0-.26l1.35-1.85h-.65a.24.24,0,0,1-.22-.14.23.23,0,0,1,0-.26l1.2-1.6h-.5a.25.25,0,0,1-.22-.13.27.27,0,0,1,0-.26l1-1.5a.26.26,0,0,1,.42,0l1,1.5a.27.27,0,0,1,0,.26.25.25,0,0,1-.22.13h-.5l1.2,1.6a.23.23,0,0,1,0,.26.24.24,0,0,1-.22.14H45.1l1.35,1.85A.23.23,0,0,1,46.47,29.36Zm8,0a.24.24,0,0,1-.22.14H52.5V30H52v-.5H50.25a.24.24,0,0,1-.22-.14.23.23,0,0,1,0-.26l1.35-1.85h-.65a.24.24,0,0,1-.22-.14.23.23,0,0,1,0-.26l1.2-1.6h-.5a.25.25,0,0,1-.22-.13.27.27,0,0,1,0-.26l1-1.5a.26.26,0,0,1,.42,0l1,1.5a.27.27,0,0,1,0,.26.25.25,0,0,1-.22.13h-.5l1.2,1.6a.23.23,0,0,1,0,.26.24.24,0,0,1-.22.14H53.1l1.35,1.85A.23.23,0,0,1,54.47,29.36Zm8,0a.24.24,0,0,1-.22.14H60.5V30H60v-.5H58.25a.24.24,0,0,1-.22-.14.23.23,0,0,1,0-.26l1.35-1.85h-.65a.24.24,0,0,1-.22-.14.23.23,0,0,1,0-.26l1.2-1.6h-.5a.25.25,0,0,1-.22-.13.27.27,0,0,1,0-.26l1-1.5a.26.26,0,0,1,.42,0l1,1.5a.27.27,0,0,1,0,.26.25.25,0,0,1-.22.13h-.5l1.2,1.6a.23.23,0,0,1,0,.26.24.24,0,0,1-.22.14H61.1l1.35,1.85A.23.23,0,0,1,62.47,29.36Z"/><path id="exotic_con_grid_dense-4" data-name="exotic_con_grid_dense" class="cls-2" d="M38.47,40a.26.26,0,0,1-.22.14H36.5v.5H36v-.5H34.25A.26.26,0,0,1,34,40a.23.23,0,0,1,0-.26l1.35-1.85h-.65a.26.26,0,0,1-.22-.14.22.22,0,0,1,0-.26l1.2-1.6h-.5a.24.24,0,0,1-.22-.14.25.25,0,0,1,0-.25L36,34a.26.26,0,0,1,.42,0l1,1.5a.25.25,0,0,1,0,.25.24.24,0,0,1-.22.14h-.5l1.2,1.6a.22.22,0,0,1,0,.26.26.26,0,0,1-.22.14H37.1l1.35,1.85A.23.23,0,0,1,38.47,40Zm8,0a.26.26,0,0,1-.22.14H44.5v.5H44v-.5H42.25A.26.26,0,0,1,42,40a.23.23,0,0,1,0-.26l1.35-1.85h-.65a.26.26,0,0,1-.22-.14.22.22,0,0,1,0-.26l1.2-1.6h-.5a.24.24,0,0,1-.22-.14.25.25,0,0,1,0-.25L44,34a.26.26,0,0,1,.42,0l1,1.5a.25.25,0,0,1,0,.25.24.24,0,0,1-.22.14h-.5l1.2,1.6a.22.22,0,0,1,0,.26.26.26,0,0,1-.22.14H45.1l1.35,1.85A.23.23,0,0,1,46.47,40Zm8,0a.26.26,0,0,1-.22.14H52.5v.5H52v-.5H50.25A.26.26,0,0,1,50,40a.23.23,0,0,1,0-.26l1.35-1.85h-.65a.26.26,0,0,1-.22-.14.22.22,0,0,1,0-.26l1.2-1.6h-.5a.24.24,0,0,1-.22-.14.25.25,0,0,1,0-.25L52,34a.26.26,0,0,1,.42,0l1,1.5a.25.25,0,0,1,0,.25.24.24,0,0,1-.22.14h-.5l1.2,1.6a.22.22,0,0,1,0,.26.26.26,0,0,1-.22.14H53.1l1.35,1.85A.23.23,0,0,1,54.47,40Zm8,0a.26.26,0,0,1-.22.14H60.5v.5H60v-.5H58.25A.26.26,0,0,1,58,40a.23.23,0,0,1,0-.26l1.35-1.85h-.65a.26.26,0,0,1-.22-.14.22.22,0,0,1,0-.26l1.2-1.6h-.5a.24.24,0,0,1-.22-.14.25.25,0,0,1,0-.25L60,34a.26.26,0,0,1,.42,0l1,1.5a.25.25,0,0,1,0,.25.24.24,0,0,1-.22.14h-.5l1.2,1.6a.22.22,0,0,1,0,.26.26.26,0,0,1-.22.14H61.1l1.35,1.85A.23.23,0,0,1,62.47,40Zm-24,10.67a.25.25,0,0,1-.22.13H36.5v.5H36v-.5H34.25A.25.25,0,0,1,34,50.7a.22.22,0,0,1,0-.26l1.35-1.86h-.65a.25.25,0,0,1-.22-.13.24.24,0,0,1,0-.27l1.2-1.6h-.5a.25.25,0,0,1-.22-.13.27.27,0,0,1,0-.26l1-1.5a.27.27,0,0,1,.42,0l1,1.5a.27.27,0,0,1,0,.26.25.25,0,0,1-.22.13h-.5l1.2,1.6a.24.24,0,0,1,0,.27.25.25,0,0,1-.22.13H37.1l1.35,1.86A.22.22,0,0,1,38.47,50.7Zm8,0a.25.25,0,0,1-.22.13H44.5v.5H44v-.5H42.25A.25.25,0,0,1,42,50.7a.22.22,0,0,1,0-.26l1.35-1.86h-.65a.25.25,0,0,1-.22-.13.24.24,0,0,1,0-.27l1.2-1.6h-.5a.25.25,0,0,1-.22-.13.27.27,0,0,1,0-.26l1-1.5a.27.27,0,0,1,.42,0l1,1.5a.27.27,0,0,1,0,.26.25.25,0,0,1-.22.13h-.5l1.2,1.6a.24.24,0,0,1,0,.27.25.25,0,0,1-.22.13H45.1l1.35,1.86A.22.22,0,0,1,46.47,50.7Zm8,0a.25.25,0,0,1-.22.13H52.5v.5H52v-.5H50.25A.25.25,0,0,1,50,50.7a.22.22,0,0,1,0-.26l1.35-1.86h-.65a.25.25,0,0,1-.22-.13.24.24,0,0,1,0-.27l1.2-1.6h-.5a.25.25,0,0,1-.22-.13.27.27,0,0,1,0-.26l1-1.5a.27.27,0,0,1,.42,0l1,1.5a.27.27,0,0,1,0,.26.25.25,0,0,1-.22.13h-.5l1.2,1.6a.24.24,0,0,1,0,.27.25.25,0,0,1-.22.13H53.1l1.35,1.86A.22.22,0,0,1,54.47,50.7Zm8,0a.25.25,0,0,1-.22.13H60.5v.5H60v-.5H58.25A.25.25,0,0,1,58,50.7a.22.22,0,0,1,0-.26l1.35-1.86h-.65a.25.25,0,0,1-.22-.13.24.24,0,0,1,0-.27l1.2-1.6h-.5a.25.25,0,0,1-.22-.13.27.27,0,0,1,0-.26l1-1.5a.27.27,0,0,1,.42,0l1,1.5a.27.27,0,0,1,0,.26.25.25,0,0,1-.22.13h-.5l1.2,1.6a.24.24,0,0,1,0,.27.25.25,0,0,1-.22.13H61.1l1.35,1.86A.22.22,0,0,1,62.47,50.7Zm-24,10.66a.24.24,0,0,1-.22.14H36.5V62H36v-.5H34.25a.24.24,0,0,1-.22-.14.23.23,0,0,1,0-.26l1.35-1.85h-.65a.24.24,0,0,1-.22-.14.23.23,0,0,1,0-.26l1.2-1.6h-.5a.25.25,0,0,1-.22-.13.27.27,0,0,1,0-.26l1-1.5a.26.26,0,0,1,.42,0l1,1.5a.27.27,0,0,1,0,.26.25.25,0,0,1-.22.13h-.5l1.2,1.6a.23.23,0,0,1,0,.26.24.24,0,0,1-.22.14H37.1l1.35,1.85A.23.23,0,0,1,38.47,61.36Zm8,0a.24.24,0,0,1-.22.14H44.5V62H44v-.5H42.25a.24.24,0,0,1-.22-.14.23.23,0,0,1,0-.26l1.35-1.85h-.65a.24.24,0,0,1-.22-.14.23.23,0,0,1,0-.26l1.2-1.6h-.5a.25.25,0,0,1-.22-.13.27.27,0,0,1,0-.26l1-1.5a.26.26,0,0,1,.42,0l1,1.5a.27.27,0,0,1,0,.26.25.25,0,0,1-.22.13h-.5l1.2,1.6a.23.23,0,0,1,0,.26.24.24,0,0,1-.22.14H45.1l1.35,1.85A.23.23,0,0,1,46.47,61.36Zm8,0a.24.24,0,0,1-.22.14H52.5V62H52v-.5H50.25a.24.24,0,0,1-.22-.14.23.23,0,0,1,0-.26l1.35-1.85h-.65a.24.24,0,0,1-.22-.14.23.23,0,0,1,0-.26l1.2-1.6h-.5a.25.25,0,0,1-.22-.13.27.27,0,0,1,0-.26l1-1.5a.26.26,0,0,1,.42,0l1,1.5a.27.27,0,0,1,0,.26.25.25,0,0,1-.22.13h-.5l1.2,1.6a.23.23,0,0,1,0,.26.24.24,0,0,1-.22.14H53.1l1.35,1.85A.23.23,0,0,1,54.47,61.36Zm8,0a.24.24,0,0,1-.22.14H60.5V62H60v-.5H58.25a.24.24,0,0,1-.22-.14.23.23,0,0,1,0-.26l1.35-1.85h-.65a.24.24,0,0,1-.22-.14.23.23,0,0,1,0-.26l1.2-1.6h-.5a.25.25,0,0,1-.22-.13.27.27,0,0,1,0-.26l1-1.5a.26.26,0,0,1,.42,0l1,1.5a.27.27,0,0,1,0,.26.25.25,0,0,1-.22.13h-.5l1.2,1.6a.23.23,0,0,1,0,.26.24.24,0,0,1-.22.14H61.1l1.35,1.85A.23.23,0,0,1,62.47,61.36Z"/></g></svg>