<svg id="Sprites" xmlns="http://www.w3.org/2000/svg" viewBox="0 0 16 16"><path id="exotic_pnt_non_black" d="M13,5.5h-.09A1.71,1.71,0,0,0,13,5a1.5,1.5,0,0,0-1.5-1.5,1.47,1.47,0,0,0-.56.11A1.49,1.49,0,0,0,9.5,2.5,1.53,1.53,0,0,0,8.4,3a1.5,1.5,0,0,0-2.9.52s0,.06,0,.09A1.71,1.71,0,0,0,5,3.5,1.5,1.5,0,0,0,3.5,5,1.5,1.5,0,0,0,2,6.5a1.48,1.48,0,0,0,.7,1.26,1.54,1.54,0,0,0-.2.74,1.5,1.5,0,0,0,2.72.87,4.79,4.79,0,0,0,1.06,1.2A2.64,2.64,0,0,1,7.5,12.5v2h1V13c0-.82.71-1.35,1.46-1.91A5.32,5.32,0,0,0,11.19,10a1.55,1.55,0,0,0,.31,0A1.5,1.5,0,0,0,13,8.5a1.5,1.5,0,0,0,0-3ZM7,9.82A3.93,3.93,0,0,1,6.15,9,1.34,1.34,0,0,0,6.5,9a1.49,1.49,0,0,0,1-.39v1.73C7.32,10.15,7.13,10,7,9.82Zm2.41.47a10.57,10.57,0,0,0-.86.7V8.61A1.49,1.49,0,0,0,9.5,9a1.47,1.47,0,0,0,.56-.11,1.38,1.38,0,0,0,.27.54A4.48,4.48,0,0,1,9.36,10.29Z"/></svg>