<svg id="Sprites" xmlns="http://www.w3.org/2000/svg" viewBox="0 0 64 64"><defs><style>.cls-1{fill:none;}.cls-2{fill:#236035;}</style></defs><g id="exotic_con_poly_random_sparse_half"><rect id="bbox_64" class="cls-1" width="32" height="32"/><path id="exotic_con_random_sparse" class="cls-2" d="M4.86,5.12a.12.12,0,0,1-.11.07H3.87v.25H3.62V5.19H2.75a.13.13,0,0,1-.1-.2l.67-.93H3a.13.13,0,0,1-.1-.2l.6-.8H3.25A.11.11,0,0,1,3.14,3a.1.1,0,0,1,0-.12l.5-.75a.12.12,0,0,1,.2,0l.5.75a.1.1,0,0,1,0,.12.11.11,0,0,1-.11.07H4l.6.8a.13.13,0,0,1-.1.2H4.18L4.85,5A.12.12,0,0,1,4.86,5.12Zm7.49,1.12-.67-.93H12a.13.13,0,0,0,.1-.2l-.6-.8h.25a.11.11,0,0,0,.11-.07.1.1,0,0,0,0-.12l-.5-.75a.12.12,0,0,0-.2,0l-.5.75a.1.1,0,0,0,0,.12.11.11,0,0,0,.11.07H11l-.6.8a.13.13,0,0,0,.1.2h.32l-.67.93a.13.13,0,0,0,.1.2h.87v.25h.26V6.44h.87a.13.13,0,0,0,.1-.2Zm-5.25,5-.67-.93h.32a.13.13,0,0,0,.1-.2l-.6-.8H6.5a.11.11,0,0,0,.11-.07.1.1,0,0,0,0-.12l-.5-.75a.12.12,0,0,0-.2,0l-.5.75a.1.1,0,0,0,0,.12.11.11,0,0,0,.11.07h.25l-.6.8a.13.13,0,0,0,.1.2h.32l-.67.93a.13.13,0,0,0,.1.2h.88v.25h.24v-.25H7a.13.13,0,0,0,.1-.2Zm6.5,2.5-.67-.93h.32a.13.13,0,0,0,.1-.2l-.6-.8H13a.11.11,0,0,0,.11-.07.1.1,0,0,0,0-.12l-.5-.75a.12.12,0,0,0-.2,0l-.5.75a.1.1,0,0,0,0,.12.11.11,0,0,0,.11.07h.25l-.6.8a.13.13,0,0,0,.1.2h.32l-.67.93a.13.13,0,0,0,.1.2h.88v.25h.24v-.25h.88a.13.13,0,0,0,.1-.2Z"/><path id="exotic_con_random_sparse-2" data-name="exotic_con_random_sparse" class="cls-2" d="M20.86,5.12a.12.12,0,0,1-.11.07h-.88v.25h-.25V5.19h-.87a.13.13,0,0,1-.1-.2l.67-.93H19a.13.13,0,0,1-.1-.2l.6-.8h-.25A.11.11,0,0,1,19.14,3a.1.1,0,0,1,0-.12l.5-.75a.12.12,0,0,1,.2,0l.5.75a.1.1,0,0,1,0,.12.11.11,0,0,1-.11.07H20l.6.8a.13.13,0,0,1-.1.2h-.32l.67.93A.12.12,0,0,1,20.86,5.12Zm7.49,1.12-.67-.93H28a.13.13,0,0,0,.1-.2l-.6-.8h.25a.11.11,0,0,0,.11-.07.1.1,0,0,0,0-.12l-.5-.75a.12.12,0,0,0-.2,0l-.5.75a.1.1,0,0,0,0,.12.11.11,0,0,0,.11.07H27l-.6.8a.13.13,0,0,0,.1.2h.32l-.67.93a.13.13,0,0,0,.1.2h.87v.25h.26V6.44h.87a.13.13,0,0,0,.1-.2Zm-5.25,5-.67-.93h.32a.13.13,0,0,0,.1-.2l-.6-.8h.25a.11.11,0,0,0,.11-.07.1.1,0,0,0,0-.12l-.5-.75a.12.12,0,0,0-.2,0l-.5.75a.1.1,0,0,0,0,.12.11.11,0,0,0,.11.07h.25l-.6.8a.13.13,0,0,0,.1.2h.32l-.67.93a.13.13,0,0,0,.1.2h.88v.25h.24v-.25H23a.13.13,0,0,0,.1-.2Zm6.5,2.5-.67-.93h.32a.13.13,0,0,0,.1-.2l-.6-.8H29a.11.11,0,0,0,.11-.07.1.1,0,0,0,0-.12l-.5-.75a.12.12,0,0,0-.2,0l-.5.75a.1.1,0,0,0,0,.12.11.11,0,0,0,.11.07h.25l-.6.8a.13.13,0,0,0,.1.2h.32l-.67.93a.13.13,0,0,0,.1.2h.88v.25h.24v-.25h.88a.13.13,0,0,0,.1-.2Z"/><path id="exotic_con_random_sparse-3" data-name="exotic_con_random_sparse" class="cls-2" d="M4.86,21.12a.12.12,0,0,1-.11.07H3.87v.25H3.62v-.25H2.75a.13.13,0,0,1-.1-.2l.67-.93H3a.13.13,0,0,1-.1-.2l.6-.8H3.25A.11.11,0,0,1,3.14,19a.1.1,0,0,1,0-.12l.5-.75a.12.12,0,0,1,.2,0l.5.75a.1.1,0,0,1,0,.12.11.11,0,0,1-.11.07H4l.6.8a.13.13,0,0,1-.1.2H4.18l.67.93A.12.12,0,0,1,4.86,21.12Zm7.49,1.12-.67-.93H12a.13.13,0,0,0,.1-.2l-.6-.8h.25a.11.11,0,0,0,.11-.07.1.1,0,0,0,0-.12l-.5-.75a.12.12,0,0,0-.2,0l-.5.75a.1.1,0,0,0,0,.12.11.11,0,0,0,.11.07H11l-.6.8a.13.13,0,0,0,.1.2h.32l-.67.93a.13.13,0,0,0,.1.2h.87v.25h.26v-.25h.87a.13.13,0,0,0,.1-.2Zm-5.25,5-.67-.93h.32a.13.13,0,0,0,.1-.2l-.6-.8H6.5a.11.11,0,0,0,.11-.07.1.1,0,0,0,0-.12l-.5-.75a.12.12,0,0,0-.2,0l-.5.75a.1.1,0,0,0,0,.12.11.11,0,0,0,.11.07h.25l-.6.8a.13.13,0,0,0,.1.2h.32l-.67.93a.13.13,0,0,0,.1.2h.88v.25h.24v-.25H7a.13.13,0,0,0,.1-.2Zm6.5,2.5-.67-.93h.32a.13.13,0,0,0,.1-.2l-.6-.8H13a.11.11,0,0,0,.11-.07.1.1,0,0,0,0-.12l-.5-.75a.12.12,0,0,0-.2,0l-.5.75a.1.1,0,0,0,0,.12.11.11,0,0,0,.11.07h.25l-.6.8a.13.13,0,0,0,.1.2h.32l-.67.93a.13.13,0,0,0,.1.2h.88v.25h.24v-.25h.88a.13.13,0,0,0,.1-.2Z"/><path id="exotic_con_random_sparse-4" data-name="exotic_con_random_sparse" class="cls-2" d="M20.86,21.12a.12.12,0,0,1-.11.07h-.88v.25h-.25v-.25h-.87a.13.13,0,0,1-.1-.2l.67-.93H19a.13.13,0,0,1-.1-.2l.6-.8h-.25a.11.11,0,0,1-.11-.07.1.1,0,0,1,0-.12l.5-.75a.12.12,0,0,1,.2,0l.5.75a.1.1,0,0,1,0,.12.11.11,0,0,1-.11.07H20l.6.8a.13.13,0,0,1-.1.2h-.32l.67.93A.12.12,0,0,1,20.86,21.12Zm7.49,1.12-.67-.93H28a.13.13,0,0,0,.1-.2l-.6-.8h.25a.11.11,0,0,0,.11-.07.1.1,0,0,0,0-.12l-.5-.75a.12.12,0,0,0-.2,0l-.5.75a.1.1,0,0,0,0,.12.11.11,0,0,0,.11.07H27l-.6.8a.13.13,0,0,0,.1.2h.32l-.67.93a.13.13,0,0,0,.1.2h.87v.25h.26v-.25h.87a.13.13,0,0,0,.1-.2Zm-5.25,5-.67-.93h.32a.13.13,0,0,0,.1-.2l-.6-.8h.25a.11.11,0,0,0,.11-.07.1.1,0,0,0,0-.12l-.5-.75a.12.12,0,0,0-.2,0l-.5.75a.1.1,0,0,0,0,.12.11.11,0,0,0,.11.07h.25l-.6.8a.13.13,0,0,0,.1.2h.32l-.67.93a.13.13,0,0,0,.1.2h.88v.25h.24v-.25H23a.13.13,0,0,0,.1-.2Zm6.5,2.5-.67-.93h.32a.13.13,0,0,0,.1-.2l-.6-.8H29a.11.11,0,0,0,.11-.07.1.1,0,0,0,0-.12l-.5-.75a.12.12,0,0,0-.2,0l-.5.75a.1.1,0,0,0,0,.12.11.11,0,0,0,.11.07h.25l-.6.8a.13.13,0,0,0,.1.2h.32l-.67.93a.13.13,0,0,0,.1.2h.88v.25h.24v-.25h.88a.13.13,0,0,0,.1-.2Z"/></g><g id="exotic_con_poly_random_sparse_half-2" data-name="exotic_con_poly_random_sparse_half"><rect id="bbox_64-2" data-name="bbox_64" class="cls-1" x="32" width="32" height="32"/><path id="exotic_con_random_sparse-5" data-name="exotic_con_random_sparse" class="cls-2" d="M36.86,5.12a.12.12,0,0,1-.11.07h-.88v.25h-.25V5.19h-.87a.13.13,0,0,1-.1-.2l.67-.93H35a.13.13,0,0,1-.1-.2l.6-.8h-.25A.11.11,0,0,1,35.14,3a.1.1,0,0,1,0-.12l.5-.75a.12.12,0,0,1,.2,0l.5.75a.1.1,0,0,1,0,.12.11.11,0,0,1-.11.07H36l.6.8a.13.13,0,0,1-.1.2h-.32l.67.93A.12.12,0,0,1,36.86,5.12Zm7.49,1.12-.67-.93H44a.13.13,0,0,0,.1-.2l-.6-.8h.25a.11.11,0,0,0,.11-.07.1.1,0,0,0,0-.12l-.5-.75a.12.12,0,0,0-.2,0l-.5.75a.1.1,0,0,0,0,.12.11.11,0,0,0,.11.07H43l-.6.8a.13.13,0,0,0,.1.2h.32l-.67.93a.13.13,0,0,0,.1.2h.87v.25h.26V6.44h.87a.13.13,0,0,0,.1-.2Zm-5.25,5-.67-.93h.32a.13.13,0,0,0,.1-.2l-.6-.8h.25a.11.11,0,0,0,.11-.07.1.1,0,0,0,0-.12l-.5-.75a.12.12,0,0,0-.2,0l-.5.75a.1.1,0,0,0,0,.12.11.11,0,0,0,.11.07h.25l-.6.8a.13.13,0,0,0,.1.2h.32l-.67.93a.13.13,0,0,0,.1.2h.88v.25h.24v-.25H39a.13.13,0,0,0,.1-.2Zm6.5,2.5-.67-.93h.32a.13.13,0,0,0,.1-.2l-.6-.8H45a.11.11,0,0,0,.11-.07.1.1,0,0,0,0-.12l-.5-.75a.12.12,0,0,0-.2,0l-.5.75a.1.1,0,0,0,0,.12.11.11,0,0,0,.11.07h.25l-.6.8a.13.13,0,0,0,.1.2h.32l-.67.93a.13.13,0,0,0,.1.2h.88v.25h.24v-.25h.88a.13.13,0,0,0,.1-.2Z"/><path id="exotic_con_random_sparse-6" data-name="exotic_con_random_sparse" class="cls-2" d="M52.86,5.12a.12.12,0,0,1-.11.07h-.88v.25h-.25V5.19h-.87a.13.13,0,0,1-.1-.2l.67-.93H51a.13.13,0,0,1-.1-.2l.6-.8h-.25A.11.11,0,0,1,51.14,3a.1.1,0,0,1,0-.12l.5-.75a.12.12,0,0,1,.2,0l.5.75a.1.1,0,0,1,0,.12.11.11,0,0,1-.11.07H52l.6.8a.13.13,0,0,1-.1.2h-.32l.67.93A.12.12,0,0,1,52.86,5.12Zm7.49,1.12-.67-.93H60a.13.13,0,0,0,.1-.2l-.6-.8h.25a.11.11,0,0,0,.11-.07.1.1,0,0,0,0-.12l-.5-.75a.12.12,0,0,0-.2,0l-.5.75a.1.1,0,0,0,0,.12.11.11,0,0,0,.11.07H59l-.6.8a.13.13,0,0,0,.1.2h.32l-.67.93a.13.13,0,0,0,.1.2h.87v.25h.26V6.44h.87a.13.13,0,0,0,.1-.2Zm-5.25,5-.67-.93h.32a.13.13,0,0,0,.1-.2l-.6-.8h.25a.11.11,0,0,0,.11-.07.1.1,0,0,0,0-.12l-.5-.75a.12.12,0,0,0-.2,0l-.5.75a.1.1,0,0,0,0,.12.11.11,0,0,0,.11.07h.25l-.6.8a.13.13,0,0,0,.1.2h.32l-.67.93a.13.13,0,0,0,.1.2h.88v.25h.24v-.25H55a.13.13,0,0,0,.1-.2Zm6.5,2.5-.67-.93h.32a.13.13,0,0,0,.1-.2l-.6-.8H61a.11.11,0,0,0,.11-.07.1.1,0,0,0,0-.12l-.5-.75a.12.12,0,0,0-.2,0l-.5.75a.1.1,0,0,0,0,.12.11.11,0,0,0,.11.07h.25l-.6.8a.13.13,0,0,0,.1.2h.32l-.67.93a.13.13,0,0,0,.1.2h.88v.25h.24v-.25h.88a.13.13,0,0,0,.1-.2Z"/><path id="exotic_con_random_sparse-7" data-name="exotic_con_random_sparse" class="cls-2" d="M36.86,21.12a.12.12,0,0,1-.11.07h-.88v.25h-.25v-.25h-.87a.13.13,0,0,1-.1-.2l.67-.93H35a.13.13,0,0,1-.1-.2l.6-.8h-.25a.11.11,0,0,1-.11-.07.1.1,0,0,1,0-.12l.5-.75a.12.12,0,0,1,.2,0l.5.75a.1.1,0,0,1,0,.12.11.11,0,0,1-.11.07H36l.6.8a.13.13,0,0,1-.1.2h-.32l.67.93A.12.12,0,0,1,36.86,21.12Zm7.49,1.12-.67-.93H44a.13.13,0,0,0,.1-.2l-.6-.8h.25a.11.11,0,0,0,.11-.07.1.1,0,0,0,0-.12l-.5-.75a.12.12,0,0,0-.2,0l-.5.75a.1.1,0,0,0,0,.12.11.11,0,0,0,.11.07H43l-.6.8a.13.13,0,0,0,.1.2h.32l-.67.93a.13.13,0,0,0,.1.2h.87v.25h.26v-.25h.87a.13.13,0,0,0,.1-.2Zm-5.25,5-.67-.93h.32a.13.13,0,0,0,.1-.2l-.6-.8h.25a.11.11,0,0,0,.11-.07.1.1,0,0,0,0-.12l-.5-.75a.12.12,0,0,0-.2,0l-.5.75a.1.1,0,0,0,0,.12.11.11,0,0,0,.11.07h.25l-.6.8a.13.13,0,0,0,.1.2h.32l-.67.93a.13.13,0,0,0,.1.2h.88v.25h.24v-.25H39a.13.13,0,0,0,.1-.2Zm6.5,2.5-.67-.93h.32a.13.13,0,0,0,.1-.2l-.6-.8H45a.11.11,0,0,0,.11-.07.1.1,0,0,0,0-.12l-.5-.75a.12.12,0,0,0-.2,0l-.5.75a.1.1,0,0,0,0,.12.11.11,0,0,0,.11.07h.25l-.6.8a.13.13,0,0,0,.1.2h.32l-.67.93a.13.13,0,0,0,.1.2h.88v.25h.24v-.25h.88a.13.13,0,0,0,.1-.2Z"/><path id="exotic_con_random_sparse-8" data-name="exotic_con_random_sparse" class="cls-2" d="M52.86,21.12a.12.12,0,0,1-.11.07h-.88v.25h-.25v-.25h-.87a.13.13,0,0,1-.1-.2l.67-.93H51a.13.13,0,0,1-.1-.2l.6-.8h-.25a.11.11,0,0,1-.11-.07.1.1,0,0,1,0-.12l.5-.75a.12.12,0,0,1,.2,0l.5.75a.1.1,0,0,1,0,.12.11.11,0,0,1-.11.07H52l.6.8a.13.13,0,0,1-.1.2h-.32l.67.93A.12.12,0,0,1,52.86,21.12Zm7.49,1.12-.67-.93H60a.13.13,0,0,0,.1-.2l-.6-.8h.25a.11.11,0,0,0,.11-.07.1.1,0,0,0,0-.12l-.5-.75a.12.12,0,0,0-.2,0l-.5.75a.1.1,0,0,0,0,.12.11.11,0,0,0,.11.07H59l-.6.8a.13.13,0,0,0,.1.2h.32l-.67.93a.13.13,0,0,0,.1.2h.87v.25h.26v-.25h.87a.13.13,0,0,0,.1-.2Zm-5.25,5-.67-.93h.32a.13.13,0,0,0,.1-.2l-.6-.8h.25a.11.11,0,0,0,.11-.07.1.1,0,0,0,0-.12l-.5-.75a.12.12,0,0,0-.2,0l-.5.75a.1.1,0,0,0,0,.12.11.11,0,0,0,.11.07h.25l-.6.8a.13.13,0,0,0,.1.2h.32l-.67.93a.13.13,0,0,0,.1.2h.88v.25h.24v-.25H55a.13.13,0,0,0,.1-.2Zm6.5,2.5-.67-.93h.32a.13.13,0,0,0,.1-.2l-.6-.8H61a.11.11,0,0,0,.11-.07.1.1,0,0,0,0-.12l-.5-.75a.12.12,0,0,0-.2,0l-.5.75a.1.1,0,0,0,0,.12.11.11,0,0,0,.11.07h.25l-.6.8a.13.13,0,0,0,.1.2h.32l-.67.93a.13.13,0,0,0,.1.2h.88v.25h.24v-.25h.88a.13.13,0,0,0,.1-.2Z"/></g><g id="exotic_con_poly_random_sparse_half-3" data-name="exotic_con_poly_random_sparse_half"><rect id="bbox_64-3" data-name="bbox_64" class="cls-1" y="32" width="32" height="32"/><path id="exotic_con_random_sparse-9" data-name="exotic_con_random_sparse" class="cls-2" d="M4.86,37.12a.12.12,0,0,1-.11.07H3.87v.25H3.62v-.25H2.75a.13.13,0,0,1-.1-.2l.67-.93H3a.13.13,0,0,1-.1-.2l.6-.8H3.25A.11.11,0,0,1,3.14,35a.1.1,0,0,1,0-.12l.5-.75a.12.12,0,0,1,.2,0l.5.75a.1.1,0,0,1,0,.12.11.11,0,0,1-.11.07H4l.6.8a.13.13,0,0,1-.1.2H4.18l.67.93A.12.12,0,0,1,4.86,37.12Zm7.49,1.12-.67-.93H12a.13.13,0,0,0,.1-.2l-.6-.8h.25a.11.11,0,0,0,.11-.07.1.1,0,0,0,0-.12l-.5-.75a.12.12,0,0,0-.2,0l-.5.75a.1.1,0,0,0,0,.12.11.11,0,0,0,.11.07H11l-.6.8a.13.13,0,0,0,.1.2h.32l-.67.93a.13.13,0,0,0,.1.2h.87v.25h.26v-.25h.87a.13.13,0,0,0,.1-.2Zm-5.25,5-.67-.93h.32a.13.13,0,0,0,.1-.2l-.6-.8H6.5a.11.11,0,0,0,.11-.07.1.1,0,0,0,0-.12l-.5-.75a.12.12,0,0,0-.2,0l-.5.75a.1.1,0,0,0,0,.12.11.11,0,0,0,.11.07h.25l-.6.8a.13.13,0,0,0,.1.2h.32l-.67.93a.13.13,0,0,0,.1.2h.88v.25h.24v-.25H7a.13.13,0,0,0,.1-.2Zm6.5,2.5-.67-.93h.32a.13.13,0,0,0,.1-.2l-.6-.8H13a.11.11,0,0,0,.11-.07.1.1,0,0,0,0-.12l-.5-.75a.12.12,0,0,0-.2,0l-.5.75a.1.1,0,0,0,0,.12.11.11,0,0,0,.11.07h.25l-.6.8a.13.13,0,0,0,.1.2h.32l-.67.93a.13.13,0,0,0,.1.2h.88v.25h.24v-.25h.88a.13.13,0,0,0,.1-.2Z"/><path id="exotic_con_random_sparse-10" data-name="exotic_con_random_sparse" class="cls-2" d="M20.86,37.12a.12.12,0,0,1-.11.07h-.88v.25h-.25v-.25h-.87a.13.13,0,0,1-.1-.2l.67-.93H19a.13.13,0,0,1-.1-.2l.6-.8h-.25a.11.11,0,0,1-.11-.07.1.1,0,0,1,0-.12l.5-.75a.12.12,0,0,1,.2,0l.5.75a.1.1,0,0,1,0,.12.11.11,0,0,1-.11.07H20l.6.8a.13.13,0,0,1-.1.2h-.32l.67.93A.12.12,0,0,1,20.86,37.12Zm7.49,1.12-.67-.93H28a.13.13,0,0,0,.1-.2l-.6-.8h.25a.11.11,0,0,0,.11-.07.1.1,0,0,0,0-.12l-.5-.75a.12.12,0,0,0-.2,0l-.5.75a.1.1,0,0,0,0,.12.11.11,0,0,0,.11.07H27l-.6.8a.13.13,0,0,0,.1.2h.32l-.67.93a.13.13,0,0,0,.1.2h.87v.25h.26v-.25h.87a.13.13,0,0,0,.1-.2Zm-5.25,5-.67-.93h.32a.13.13,0,0,0,.1-.2l-.6-.8h.25a.11.11,0,0,0,.11-.07.1.1,0,0,0,0-.12l-.5-.75a.12.12,0,0,0-.2,0l-.5.75a.1.1,0,0,0,0,.12.11.11,0,0,0,.11.07h.25l-.6.8a.13.13,0,0,0,.1.2h.32l-.67.93a.13.13,0,0,0,.1.2h.88v.25h.24v-.25H23a.13.13,0,0,0,.1-.2Zm6.5,2.5-.67-.93h.32a.13.13,0,0,0,.1-.2l-.6-.8H29a.11.11,0,0,0,.11-.07.1.1,0,0,0,0-.12l-.5-.75a.12.12,0,0,0-.2,0l-.5.75a.1.1,0,0,0,0,.12.11.11,0,0,0,.11.07h.25l-.6.8a.13.13,0,0,0,.1.2h.32l-.67.93a.13.13,0,0,0,.1.2h.88v.25h.24v-.25h.88a.13.13,0,0,0,.1-.2Z"/><path id="exotic_con_random_sparse-11" data-name="exotic_con_random_sparse" class="cls-2" d="M4.86,53.12a.12.12,0,0,1-.11.07H3.87v.25H3.62v-.25H2.75a.13.13,0,0,1-.1-.2l.67-.93H3a.13.13,0,0,1-.1-.2l.6-.8H3.25A.11.11,0,0,1,3.14,51a.1.1,0,0,1,0-.12l.5-.75a.12.12,0,0,1,.2,0l.5.75a.1.1,0,0,1,0,.12.11.11,0,0,1-.11.07H4l.6.8a.13.13,0,0,1-.1.2H4.18l.67.93A.12.12,0,0,1,4.86,53.12Zm7.49,1.12-.67-.93H12a.13.13,0,0,0,.1-.2l-.6-.8h.25a.11.11,0,0,0,.11-.07.1.1,0,0,0,0-.12l-.5-.75a.12.12,0,0,0-.2,0l-.5.75a.1.1,0,0,0,0,.12.11.11,0,0,0,.11.07H11l-.6.8a.13.13,0,0,0,.1.2h.32l-.67.93a.13.13,0,0,0,.1.2h.87v.25h.26v-.25h.87a.13.13,0,0,0,.1-.2Zm-5.25,5-.67-.93h.32a.13.13,0,0,0,.1-.2l-.6-.8H6.5a.11.11,0,0,0,.11-.07.1.1,0,0,0,0-.12l-.5-.75a.12.12,0,0,0-.2,0l-.5.75a.1.1,0,0,0,0,.12.11.11,0,0,0,.11.07h.25l-.6.8a.13.13,0,0,0,.1.2h.32l-.67.93a.13.13,0,0,0,.1.2h.88v.25h.24v-.25H7a.13.13,0,0,0,.1-.2Zm6.5,2.5-.67-.93h.32a.13.13,0,0,0,.1-.2l-.6-.8H13a.11.11,0,0,0,.11-.07.1.1,0,0,0,0-.12l-.5-.75a.12.12,0,0,0-.2,0l-.5.75a.1.1,0,0,0,0,.12.11.11,0,0,0,.11.07h.25l-.6.8a.13.13,0,0,0,.1.2h.32l-.67.93a.13.13,0,0,0,.1.2h.88v.25h.24v-.25h.88a.13.13,0,0,0,.1-.2Z"/><path id="exotic_con_random_sparse-12" data-name="exotic_con_random_sparse" class="cls-2" d="M20.86,53.12a.12.12,0,0,1-.11.07h-.88v.25h-.25v-.25h-.87a.13.13,0,0,1-.1-.2l.67-.93H19a.13.13,0,0,1-.1-.2l.6-.8h-.25a.11.11,0,0,1-.11-.07.1.1,0,0,1,0-.12l.5-.75a.12.12,0,0,1,.2,0l.5.75a.1.1,0,0,1,0,.12.11.11,0,0,1-.11.07H20l.6.8a.13.13,0,0,1-.1.2h-.32l.67.93A.12.12,0,0,1,20.86,53.12Zm7.49,1.12-.67-.93H28a.13.13,0,0,0,.1-.2l-.6-.8h.25a.11.11,0,0,0,.11-.07.1.1,0,0,0,0-.12l-.5-.75a.12.12,0,0,0-.2,0l-.5.75a.1.1,0,0,0,0,.12.11.11,0,0,0,.11.07H27l-.6.8a.13.13,0,0,0,.1.2h.32l-.67.93a.13.13,0,0,0,.1.2h.87v.25h.26v-.25h.87a.13.13,0,0,0,.1-.2Zm-5.25,5-.67-.93h.32a.13.13,0,0,0,.1-.2l-.6-.8h.25a.11.11,0,0,0,.11-.07.1.1,0,0,0,0-.12l-.5-.75a.12.12,0,0,0-.2,0l-.5.75a.1.1,0,0,0,0,.12.11.11,0,0,0,.11.07h.25l-.6.8a.13.13,0,0,0,.1.2h.32l-.67.93a.13.13,0,0,0,.1.2h.88v.25h.24v-.25H23a.13.13,0,0,0,.1-.2Zm6.5,2.5-.67-.93h.32a.13.13,0,0,0,.1-.2l-.6-.8H29a.11.11,0,0,0,.11-.07.1.1,0,0,0,0-.12l-.5-.75a.12.12,0,0,0-.2,0l-.5.75a.1.1,0,0,0,0,.12.11.11,0,0,0,.11.07h.25l-.6.8a.13.13,0,0,0,.1.2h.32l-.67.93a.13.13,0,0,0,.1.2h.88v.25h.24v-.25h.88a.13.13,0,0,0,.1-.2Z"/></g><g id="exotic_con_poly_random_sparse_half-4" data-name="exotic_con_poly_random_sparse_half"><rect id="bbox_64-4" data-name="bbox_64" class="cls-1" x="32" y="32" width="32" height="32"/><path id="exotic_con_random_sparse-13" data-name="exotic_con_random_sparse" class="cls-2" d="M36.86,37.12a.12.12,0,0,1-.11.07h-.88v.25h-.25v-.25h-.87a.13.13,0,0,1-.1-.2l.67-.93H35a.13.13,0,0,1-.1-.2l.6-.8h-.25a.11.11,0,0,1-.11-.07.1.1,0,0,1,0-.12l.5-.75a.12.12,0,0,1,.2,0l.5.75a.1.1,0,0,1,0,.12.11.11,0,0,1-.11.07H36l.6.8a.13.13,0,0,1-.1.2h-.32l.67.93A.12.12,0,0,1,36.86,37.12Zm7.49,1.12-.67-.93H44a.13.13,0,0,0,.1-.2l-.6-.8h.25a.11.11,0,0,0,.11-.07.1.1,0,0,0,0-.12l-.5-.75a.12.12,0,0,0-.2,0l-.5.75a.1.1,0,0,0,0,.12.11.11,0,0,0,.11.07H43l-.6.8a.13.13,0,0,0,.1.2h.32l-.67.93a.13.13,0,0,0,.1.2h.87v.25h.26v-.25h.87a.13.13,0,0,0,.1-.2Zm-5.25,5-.67-.93h.32a.13.13,0,0,0,.1-.2l-.6-.8h.25a.11.11,0,0,0,.11-.07.1.1,0,0,0,0-.12l-.5-.75a.12.12,0,0,0-.2,0l-.5.75a.1.1,0,0,0,0,.12.11.11,0,0,0,.11.07h.25l-.6.8a.13.13,0,0,0,.1.2h.32l-.67.93a.13.13,0,0,0,.1.2h.88v.25h.24v-.25H39a.13.13,0,0,0,.1-.2Zm6.5,2.5-.67-.93h.32a.13.13,0,0,0,.1-.2l-.6-.8H45a.11.11,0,0,0,.11-.07.1.1,0,0,0,0-.12l-.5-.75a.12.12,0,0,0-.2,0l-.5.75a.1.1,0,0,0,0,.12.11.11,0,0,0,.11.07h.25l-.6.8a.13.13,0,0,0,.1.2h.32l-.67.93a.13.13,0,0,0,.1.2h.88v.25h.24v-.25h.88a.13.13,0,0,0,.1-.2Z"/><path id="exotic_con_random_sparse-14" data-name="exotic_con_random_sparse" class="cls-2" d="M52.86,37.12a.12.12,0,0,1-.11.07h-.88v.25h-.25v-.25h-.87a.13.13,0,0,1-.1-.2l.67-.93H51a.13.13,0,0,1-.1-.2l.6-.8h-.25a.11.11,0,0,1-.11-.07.1.1,0,0,1,0-.12l.5-.75a.12.12,0,0,1,.2,0l.5.75a.1.1,0,0,1,0,.12.11.11,0,0,1-.11.07H52l.6.8a.13.13,0,0,1-.1.2h-.32l.67.93A.12.12,0,0,1,52.86,37.12Zm7.49,1.12-.67-.93H60a.13.13,0,0,0,.1-.2l-.6-.8h.25a.11.11,0,0,0,.11-.07.1.1,0,0,0,0-.12l-.5-.75a.12.12,0,0,0-.2,0l-.5.75a.1.1,0,0,0,0,.12.11.11,0,0,0,.11.07H59l-.6.8a.13.13,0,0,0,.1.2h.32l-.67.93a.13.13,0,0,0,.1.2h.87v.25h.26v-.25h.87a.13.13,0,0,0,.1-.2Zm-5.25,5-.67-.93h.32a.13.13,0,0,0,.1-.2l-.6-.8h.25a.11.11,0,0,0,.11-.07.1.1,0,0,0,0-.12l-.5-.75a.12.12,0,0,0-.2,0l-.5.75a.1.1,0,0,0,0,.12.11.11,0,0,0,.11.07h.25l-.6.8a.13.13,0,0,0,.1.2h.32l-.67.93a.13.13,0,0,0,.1.2h.88v.25h.24v-.25H55a.13.13,0,0,0,.1-.2Zm6.5,2.5-.67-.93h.32a.13.13,0,0,0,.1-.2l-.6-.8H61a.11.11,0,0,0,.11-.07.1.1,0,0,0,0-.12l-.5-.75a.12.12,0,0,0-.2,0l-.5.75a.1.1,0,0,0,0,.12.11.11,0,0,0,.11.07h.25l-.6.8a.13.13,0,0,0,.1.2h.32l-.67.93a.13.13,0,0,0,.1.2h.88v.25h.24v-.25h.88a.13.13,0,0,0,.1-.2Z"/><path id="exotic_con_random_sparse-15" data-name="exotic_con_random_sparse" class="cls-2" d="M36.86,53.12a.12.12,0,0,1-.11.07h-.88v.25h-.25v-.25h-.87a.13.13,0,0,1-.1-.2l.67-.93H35a.13.13,0,0,1-.1-.2l.6-.8h-.25a.11.11,0,0,1-.11-.07.1.1,0,0,1,0-.12l.5-.75a.12.12,0,0,1,.2,0l.5.75a.1.1,0,0,1,0,.12.11.11,0,0,1-.11.07H36l.6.8a.13.13,0,0,1-.1.2h-.32l.67.93A.12.12,0,0,1,36.86,53.12Zm7.49,1.12-.67-.93H44a.13.13,0,0,0,.1-.2l-.6-.8h.25a.11.11,0,0,0,.11-.07.1.1,0,0,0,0-.12l-.5-.75a.12.12,0,0,0-.2,0l-.5.75a.1.1,0,0,0,0,.12.11.11,0,0,0,.11.07H43l-.6.8a.13.13,0,0,0,.1.2h.32l-.67.93a.13.13,0,0,0,.1.2h.87v.25h.26v-.25h.87a.13.13,0,0,0,.1-.2Zm-5.25,5-.67-.93h.32a.13.13,0,0,0,.1-.2l-.6-.8h.25a.11.11,0,0,0,.11-.07.1.1,0,0,0,0-.12l-.5-.75a.12.12,0,0,0-.2,0l-.5.75a.1.1,0,0,0,0,.12.11.11,0,0,0,.11.07h.25l-.6.8a.13.13,0,0,0,.1.2h.32l-.67.93a.13.13,0,0,0,.1.2h.88v.25h.24v-.25H39a.13.13,0,0,0,.1-.2Zm6.5,2.5-.67-.93h.32a.13.13,0,0,0,.1-.2l-.6-.8H45a.11.11,0,0,0,.11-.07.1.1,0,0,0,0-.12l-.5-.75a.12.12,0,0,0-.2,0l-.5.75a.1.1,0,0,0,0,.12.11.11,0,0,0,.11.07h.25l-.6.8a.13.13,0,0,0,.1.2h.32l-.67.93a.13.13,0,0,0,.1.2h.88v.25h.24v-.25h.88a.13.13,0,0,0,.1-.2Z"/><path id="exotic_con_random_sparse-16" data-name="exotic_con_random_sparse" class="cls-2" d="M52.86,53.12a.12.12,0,0,1-.11.07h-.88v.25h-.25v-.25h-.87a.13.13,0,0,1-.1-.2l.67-.93H51a.13.13,0,0,1-.1-.2l.6-.8h-.25a.11.11,0,0,1-.11-.07.1.1,0,0,1,0-.12l.5-.75a.12.12,0,0,1,.2,0l.5.75a.1.1,0,0,1,0,.12.11.11,0,0,1-.11.07H52l.6.8a.13.13,0,0,1-.1.2h-.32l.67.93A.12.12,0,0,1,52.86,53.12Zm7.49,1.12-.67-.93H60a.13.13,0,0,0,.1-.2l-.6-.8h.25a.11.11,0,0,0,.11-.07.1.1,0,0,0,0-.12l-.5-.75a.12.12,0,0,0-.2,0l-.5.75a.1.1,0,0,0,0,.12.11.11,0,0,0,.11.07H59l-.6.8a.13.13,0,0,0,.1.2h.32l-.67.93a.13.13,0,0,0,.1.2h.87v.25h.26v-.25h.87a.13.13,0,0,0,.1-.2Zm-5.25,5-.67-.93h.32a.13.13,0,0,0,.1-.2l-.6-.8h.25a.11.11,0,0,0,.11-.07.1.1,0,0,0,0-.12l-.5-.75a.12.12,0,0,0-.2,0l-.5.75a.1.1,0,0,0,0,.12.11.11,0,0,0,.11.07h.25l-.6.8a.13.13,0,0,0,.1.2h.32l-.67.93a.13.13,0,0,0,.1.2h.88v.25h.24v-.25H55a.13.13,0,0,0,.1-.2Zm6.5,2.5-.67-.93h.32a.13.13,0,0,0,.1-.2l-.6-.8H61a.11.11,0,0,0,.11-.07.1.1,0,0,0,0-.12l-.5-.75a.12.12,0,0,0-.2,0l-.5.75a.1.1,0,0,0,0,.12.11.11,0,0,0,.11.07h.25l-.6.8a.13.13,0,0,0,.1.2h.32l-.67.93a.13.13,0,0,0,.1.2h.88v.25h.24v-.25h.88a.13.13,0,0,0,.1-.2Z"/></g></svg>