<svg id="Sprites" xmlns="http://www.w3.org/2000/svg" viewBox="0 0 64 64"><defs><style>.cls-1{fill:none;}.cls-2{fill:#236035;}</style></defs><g id="exotic_non_poly_grid_dense_half"><rect id="bbox_64" class="cls-1" width="64" height="64"/><path id="exotic_non_grid_dense" class="cls-2" d="M6.56,5.75a.74.74,0,0,1,.19.5A.76.76,0,0,1,6,7a.87.87,0,0,1-.28,0A.75.75,0,0,1,5,7.5a.7.7,0,0,1-.25,0A.78.78,0,0,0,4.5,8v.5H4V8a.78.78,0,0,0-.25-.55.7.7,0,0,1-.25,0A.75.75,0,0,1,2.78,7,.87.87,0,0,1,2.5,7a.76.76,0,0,1-.75-.75.74.74,0,0,1,.19-.5.74.74,0,0,1-.19-.5.75.75,0,0,1,.55-.72.87.87,0,0,1,0-.28.76.76,0,0,1,.5-.71v0a.76.76,0,0,1,.75-.75.75.75,0,0,1,1.5,0,.76.76,0,0,1,.75.75v0a.76.76,0,0,1,.5.71.87.87,0,0,1,0,.28.75.75,0,0,1,.55.72A.74.74,0,0,1,6.56,5.75Zm8.19-.5a.75.75,0,0,0-.55-.72.87.87,0,0,0,.05-.28.76.76,0,0,0-.5-.71v0A.76.76,0,0,0,13,2.75a.75.75,0,0,0-1.5,0,.76.76,0,0,0-.75.75v0a.76.76,0,0,0-.5.71.87.87,0,0,0,.05.28.75.75,0,0,0-.55.72.74.74,0,0,0,.19.5.74.74,0,0,0-.19.5A.76.76,0,0,0,10.5,7a.87.87,0,0,0,.28,0,.75.75,0,0,0,.72.55.7.7,0,0,0,.25,0A.78.78,0,0,1,12,8v.5h.5V8a.78.78,0,0,1,.25-.55.7.7,0,0,0,.25,0A.75.75,0,0,0,13.72,7,.87.87,0,0,0,14,7a.76.76,0,0,0,.75-.75.74.74,0,0,0-.19-.5A.74.74,0,0,0,14.75,5.25Zm8,0a.75.75,0,0,0-.55-.72.87.87,0,0,0,.05-.28.76.76,0,0,0-.5-.71v0A.76.76,0,0,0,21,2.75a.75.75,0,0,0-1.5,0,.76.76,0,0,0-.75.75v0a.76.76,0,0,0-.5.71.87.87,0,0,0,.05.28.75.75,0,0,0-.55.72.74.74,0,0,0,.19.5.74.74,0,0,0-.19.5A.76.76,0,0,0,18.5,7a.87.87,0,0,0,.28,0,.75.75,0,0,0,.72.55.7.7,0,0,0,.25,0A.78.78,0,0,1,20,8v.5h.5V8a.78.78,0,0,1,.25-.55.7.7,0,0,0,.25,0A.75.75,0,0,0,21.72,7,.87.87,0,0,0,22,7a.76.76,0,0,0,.75-.75.74.74,0,0,0-.19-.5A.74.74,0,0,0,22.75,5.25Zm8,0a.75.75,0,0,0-.55-.72.87.87,0,0,0,.05-.28.76.76,0,0,0-.5-.71v0A.76.76,0,0,0,29,2.75a.75.75,0,0,0-1.5,0,.76.76,0,0,0-.75.75v0a.76.76,0,0,0-.5.71.87.87,0,0,0,.05.28.75.75,0,0,0-.55.72.74.74,0,0,0,.19.5.74.74,0,0,0-.19.5A.76.76,0,0,0,26.5,7a.87.87,0,0,0,.28,0,.75.75,0,0,0,.72.55.7.7,0,0,0,.25,0A.78.78,0,0,1,28,8v.5h.5V8a.78.78,0,0,1,.25-.55.7.7,0,0,0,.25,0A.75.75,0,0,0,29.72,7,.87.87,0,0,0,30,7a.76.76,0,0,0,.75-.75.74.74,0,0,0-.19-.5A.74.74,0,0,0,30.75,5.25Zm-24,10.67a.74.74,0,0,0-.55-.72.87.87,0,0,0,0-.28.75.75,0,0,0-.5-.71v0A.75.75,0,0,0,5,13.42a.75.75,0,0,0-1.5,0,.75.75,0,0,0-.75.75v0a.75.75,0,0,0-.5.71.87.87,0,0,0,0,.28.74.74,0,0,0-.55.72.76.76,0,0,0,.19.5.72.72,0,0,0-.19.5.76.76,0,0,0,.75.75.67.67,0,0,0,.28-.06.75.75,0,0,0,.72.56.7.7,0,0,0,.25-.05.78.78,0,0,1,.25.55v.5h.5v-.5a.78.78,0,0,1,.25-.55.7.7,0,0,0,.25.05.75.75,0,0,0,.72-.56.67.67,0,0,0,.28.06.76.76,0,0,0,.75-.75.72.72,0,0,0-.19-.5A.76.76,0,0,0,6.75,15.92Zm8,0a.74.74,0,0,0-.55-.72.87.87,0,0,0,.05-.28.75.75,0,0,0-.5-.71v0a.75.75,0,0,0-.75-.75.75.75,0,0,0-1.5,0,.75.75,0,0,0-.75.75v0a.75.75,0,0,0-.5.71.87.87,0,0,0,.05.28.74.74,0,0,0-.55.72.76.76,0,0,0,.19.5.72.72,0,0,0-.19.5.76.76,0,0,0,.75.75.67.67,0,0,0,.28-.06.75.75,0,0,0,.72.56.7.7,0,0,0,.25-.05.78.78,0,0,1,.25.55v.5h.5v-.5a.78.78,0,0,1,.25-.55.7.7,0,0,0,.25.05.75.75,0,0,0,.72-.56.67.67,0,0,0,.28.06.76.76,0,0,0,.75-.75.72.72,0,0,0-.19-.5A.76.76,0,0,0,14.75,15.92Zm8,0a.74.74,0,0,0-.55-.72.87.87,0,0,0,.05-.28.75.75,0,0,0-.5-.71v0a.75.75,0,0,0-.75-.75.75.75,0,0,0-1.5,0,.75.75,0,0,0-.75.75v0a.75.75,0,0,0-.5.71.87.87,0,0,0,.05.28.74.74,0,0,0-.55.72.76.76,0,0,0,.19.5.72.72,0,0,0-.19.5.76.76,0,0,0,.75.75.67.67,0,0,0,.28-.06.75.75,0,0,0,.72.56.7.7,0,0,0,.25-.05.78.78,0,0,1,.25.55v.5h.5v-.5a.78.78,0,0,1,.25-.55.7.7,0,0,0,.25.05.75.75,0,0,0,.72-.56.67.67,0,0,0,.28.06.76.76,0,0,0,.75-.75.72.72,0,0,0-.19-.5A.76.76,0,0,0,22.75,15.92Zm8,0a.74.74,0,0,0-.55-.72.87.87,0,0,0,.05-.28.75.75,0,0,0-.5-.71v0a.75.75,0,0,0-.75-.75.75.75,0,0,0-1.5,0,.75.75,0,0,0-.75.75v0a.75.75,0,0,0-.5.71.87.87,0,0,0,.05.28.74.74,0,0,0-.55.72.76.76,0,0,0,.19.5.72.72,0,0,0-.19.5.76.76,0,0,0,.75.75.67.67,0,0,0,.28-.06.75.75,0,0,0,.72.56.7.7,0,0,0,.25-.05.78.78,0,0,1,.25.55v.5h.5v-.5a.78.78,0,0,1,.25-.55.7.7,0,0,0,.25.05.75.75,0,0,0,.72-.56.67.67,0,0,0,.28.06.76.76,0,0,0,.75-.75.72.72,0,0,0-.19-.5A.76.76,0,0,0,30.75,15.92Zm-24,10.66a.76.76,0,0,0-.55-.72.82.82,0,0,0,0-.28.75.75,0,0,0-.5-.7v-.05A.76.76,0,0,0,5,24.08a.75.75,0,0,0-1.5,0,.76.76,0,0,0-.75.75v.05a.75.75,0,0,0-.5.7.82.82,0,0,0,0,.28.76.76,0,0,0-.55.72.72.72,0,0,0,.19.5.76.76,0,0,0-.19.5.75.75,0,0,0,.75.75.87.87,0,0,0,.28,0,.74.74,0,0,0,.72.55,1,1,0,0,0,.25,0,.76.76,0,0,1,.25.54v.5h.5v-.5a.76.76,0,0,1,.25-.54,1,1,0,0,0,.25,0,.74.74,0,0,0,.72-.55.87.87,0,0,0,.28,0,.75.75,0,0,0,.75-.75.76.76,0,0,0-.19-.5A.72.72,0,0,0,6.75,26.58Zm8,0a.76.76,0,0,0-.55-.72.82.82,0,0,0,.05-.28.75.75,0,0,0-.5-.7v-.05a.76.76,0,0,0-.75-.75.75.75,0,0,0-1.5,0,.76.76,0,0,0-.75.75v.05a.75.75,0,0,0-.5.7.82.82,0,0,0,.05.28.76.76,0,0,0-.55.72.72.72,0,0,0,.19.5.76.76,0,0,0-.19.5.75.75,0,0,0,.75.75.87.87,0,0,0,.28,0,.74.74,0,0,0,.72.55,1,1,0,0,0,.25,0,.76.76,0,0,1,.25.54v.5h.5v-.5a.76.76,0,0,1,.25-.54,1,1,0,0,0,.25,0,.74.74,0,0,0,.72-.55.87.87,0,0,0,.28,0,.75.75,0,0,0,.75-.75.76.76,0,0,0-.19-.5A.72.72,0,0,0,14.75,26.58Zm8,0a.76.76,0,0,0-.55-.72.82.82,0,0,0,.05-.28.75.75,0,0,0-.5-.7v-.05a.76.76,0,0,0-.75-.75.75.75,0,0,0-1.5,0,.76.76,0,0,0-.75.75v.05a.75.75,0,0,0-.5.7.82.82,0,0,0,.05.28.76.76,0,0,0-.55.72.72.72,0,0,0,.19.5.76.76,0,0,0-.19.5.75.75,0,0,0,.75.75.87.87,0,0,0,.28,0,.74.74,0,0,0,.72.55,1,1,0,0,0,.25,0,.76.76,0,0,1,.25.54v.5h.5v-.5a.76.76,0,0,1,.25-.54,1,1,0,0,0,.25,0,.74.74,0,0,0,.72-.55.87.87,0,0,0,.28,0,.75.75,0,0,0,.75-.75.76.76,0,0,0-.19-.5A.72.72,0,0,0,22.75,26.58Zm8,0a.76.76,0,0,0-.55-.72.82.82,0,0,0,.05-.28.75.75,0,0,0-.5-.7v-.05a.76.76,0,0,0-.75-.75.75.75,0,0,0-1.5,0,.76.76,0,0,0-.75.75v.05a.75.75,0,0,0-.5.7.82.82,0,0,0,.05.28.76.76,0,0,0-.55.72.72.72,0,0,0,.19.5.76.76,0,0,0-.19.5.75.75,0,0,0,.75.75.87.87,0,0,0,.28,0,.74.74,0,0,0,.72.55,1,1,0,0,0,.25,0,.76.76,0,0,1,.25.54v.5h.5v-.5a.76.76,0,0,1,.25-.54,1,1,0,0,0,.25,0,.74.74,0,0,0,.72-.55.87.87,0,0,0,.28,0,.75.75,0,0,0,.75-.75.76.76,0,0,0-.19-.5A.72.72,0,0,0,30.75,26.58Z"/><path id="exotic_non_grid_dense-2" data-name="exotic_non_grid_dense" class="cls-2" d="M6.56,37.75a.74.74,0,0,1,.19.5A.76.76,0,0,1,6,39a.87.87,0,0,1-.28,0A.75.75,0,0,1,5,39.5a.7.7,0,0,1-.25,0A.78.78,0,0,0,4.5,40v.5H4V40a.78.78,0,0,0-.25-.55.7.7,0,0,1-.25,0A.75.75,0,0,1,2.78,39a.87.87,0,0,1-.28,0,.76.76,0,0,1-.75-.75.74.74,0,0,1,.19-.5.74.74,0,0,1-.19-.5.75.75,0,0,1,.55-.72.87.87,0,0,1,0-.28.76.76,0,0,1,.5-.71v0a.76.76,0,0,1,.75-.75.75.75,0,0,1,1.5,0,.76.76,0,0,1,.75.75v0a.76.76,0,0,1,.5.71.87.87,0,0,1,0,.28.75.75,0,0,1,.55.72A.74.74,0,0,1,6.56,37.75Zm8.19-.5a.75.75,0,0,0-.55-.72.87.87,0,0,0,.05-.28.76.76,0,0,0-.5-.71v0a.76.76,0,0,0-.75-.75.75.75,0,0,0-1.5,0,.76.76,0,0,0-.75.75v0a.76.76,0,0,0-.5.71.87.87,0,0,0,.05.28.75.75,0,0,0-.55.72.74.74,0,0,0,.19.5.74.74,0,0,0-.19.5.76.76,0,0,0,.75.75.87.87,0,0,0,.28,0,.75.75,0,0,0,.72.55.7.7,0,0,0,.25,0A.78.78,0,0,1,12,40v.5h.5V40a.78.78,0,0,1,.25-.55.7.7,0,0,0,.25,0,.75.75,0,0,0,.72-.55A.87.87,0,0,0,14,39a.76.76,0,0,0,.75-.75.74.74,0,0,0-.19-.5A.74.74,0,0,0,14.75,37.25Zm8,0a.75.75,0,0,0-.55-.72.87.87,0,0,0,.05-.28.76.76,0,0,0-.5-.71v0a.76.76,0,0,0-.75-.75.75.75,0,0,0-1.5,0,.76.76,0,0,0-.75.75v0a.76.76,0,0,0-.5.71.87.87,0,0,0,.05.28.75.75,0,0,0-.55.72.74.74,0,0,0,.19.5.74.74,0,0,0-.19.5.76.76,0,0,0,.75.75.87.87,0,0,0,.28,0,.75.75,0,0,0,.72.55.7.7,0,0,0,.25,0A.78.78,0,0,1,20,40v.5h.5V40a.78.78,0,0,1,.25-.55.7.7,0,0,0,.25,0,.75.75,0,0,0,.72-.55A.87.87,0,0,0,22,39a.76.76,0,0,0,.75-.75.74.74,0,0,0-.19-.5A.74.74,0,0,0,22.75,37.25Zm8,0a.75.75,0,0,0-.55-.72.87.87,0,0,0,.05-.28.76.76,0,0,0-.5-.71v0a.76.76,0,0,0-.75-.75.75.75,0,0,0-1.5,0,.76.76,0,0,0-.75.75v0a.76.76,0,0,0-.5.71.87.87,0,0,0,.05.28.75.75,0,0,0-.55.72.74.74,0,0,0,.19.5.74.74,0,0,0-.19.5.76.76,0,0,0,.75.75.87.87,0,0,0,.28,0,.75.75,0,0,0,.72.55.7.7,0,0,0,.25,0A.78.78,0,0,1,28,40v.5h.5V40a.78.78,0,0,1,.25-.55.7.7,0,0,0,.25,0,.75.75,0,0,0,.72-.55A.87.87,0,0,0,30,39a.76.76,0,0,0,.75-.75.74.74,0,0,0-.19-.5A.74.74,0,0,0,30.75,37.25Zm-24,10.67a.74.74,0,0,0-.55-.72.87.87,0,0,0,0-.28.75.75,0,0,0-.5-.71v0A.75.75,0,0,0,5,45.42a.75.75,0,0,0-1.5,0,.75.75,0,0,0-.75.75v0a.75.75,0,0,0-.5.71.87.87,0,0,0,0,.28.74.74,0,0,0-.55.72.76.76,0,0,0,.19.5.72.72,0,0,0-.19.5.76.76,0,0,0,.75.75.67.67,0,0,0,.28-.06.75.75,0,0,0,.72.56.7.7,0,0,0,.25-.05.78.78,0,0,1,.25.55v.5h.5v-.5a.78.78,0,0,1,.25-.55.7.7,0,0,0,.25.05.75.75,0,0,0,.72-.56.67.67,0,0,0,.28.06.76.76,0,0,0,.75-.75.72.72,0,0,0-.19-.5A.76.76,0,0,0,6.75,47.92Zm8,0a.74.74,0,0,0-.55-.72.87.87,0,0,0,.05-.28.75.75,0,0,0-.5-.71v0a.75.75,0,0,0-.75-.75.75.75,0,0,0-1.5,0,.75.75,0,0,0-.75.75v0a.75.75,0,0,0-.5.71.87.87,0,0,0,.05.28.74.74,0,0,0-.55.72.76.76,0,0,0,.19.5.72.72,0,0,0-.19.5.76.76,0,0,0,.75.75.67.67,0,0,0,.28-.06.75.75,0,0,0,.72.56.7.7,0,0,0,.25-.05.78.78,0,0,1,.25.55v.5h.5v-.5a.78.78,0,0,1,.25-.55.7.7,0,0,0,.25.05.75.75,0,0,0,.72-.56.67.67,0,0,0,.28.06.76.76,0,0,0,.75-.75.72.72,0,0,0-.19-.5A.76.76,0,0,0,14.75,47.92Zm8,0a.74.74,0,0,0-.55-.72.87.87,0,0,0,.05-.28.75.75,0,0,0-.5-.71v0a.75.75,0,0,0-.75-.75.75.75,0,0,0-1.5,0,.75.75,0,0,0-.75.75v0a.75.75,0,0,0-.5.71.87.87,0,0,0,.05.28.74.74,0,0,0-.55.72.76.76,0,0,0,.19.5.72.72,0,0,0-.19.5.76.76,0,0,0,.75.75.67.67,0,0,0,.28-.06.75.75,0,0,0,.72.56.7.7,0,0,0,.25-.05.78.78,0,0,1,.25.55v.5h.5v-.5a.78.78,0,0,1,.25-.55.7.7,0,0,0,.25.05.75.75,0,0,0,.72-.56.67.67,0,0,0,.28.06.76.76,0,0,0,.75-.75.72.72,0,0,0-.19-.5A.76.76,0,0,0,22.75,47.92Zm8,0a.74.74,0,0,0-.55-.72.87.87,0,0,0,.05-.28.75.75,0,0,0-.5-.71v0a.75.75,0,0,0-.75-.75.75.75,0,0,0-1.5,0,.75.75,0,0,0-.75.75v0a.75.75,0,0,0-.5.71.87.87,0,0,0,.05.28.74.74,0,0,0-.55.72.76.76,0,0,0,.19.5.72.72,0,0,0-.19.5.76.76,0,0,0,.75.75.67.67,0,0,0,.28-.06.75.75,0,0,0,.72.56.7.7,0,0,0,.25-.05.78.78,0,0,1,.25.55v.5h.5v-.5a.78.78,0,0,1,.25-.55.7.7,0,0,0,.25.05.75.75,0,0,0,.72-.56.67.67,0,0,0,.28.06.76.76,0,0,0,.75-.75.72.72,0,0,0-.19-.5A.76.76,0,0,0,30.75,47.92Zm-24,10.66a.76.76,0,0,0-.55-.72.82.82,0,0,0,0-.28.75.75,0,0,0-.5-.7v-.05A.76.76,0,0,0,5,56.08a.75.75,0,0,0-1.5,0,.76.76,0,0,0-.75.75v.05a.75.75,0,0,0-.5.7.82.82,0,0,0,0,.28.76.76,0,0,0-.55.72.72.72,0,0,0,.19.5.76.76,0,0,0-.19.5.75.75,0,0,0,.75.75.87.87,0,0,0,.28,0,.74.74,0,0,0,.72.55,1,1,0,0,0,.25,0,.76.76,0,0,1,.25.54v.5h.5v-.5a.76.76,0,0,1,.25-.54,1,1,0,0,0,.25,0,.74.74,0,0,0,.72-.55.87.87,0,0,0,.28,0,.75.75,0,0,0,.75-.75.76.76,0,0,0-.19-.5A.72.72,0,0,0,6.75,58.58Zm8,0a.76.76,0,0,0-.55-.72.82.82,0,0,0,.05-.28.75.75,0,0,0-.5-.7v-.05a.76.76,0,0,0-.75-.75.75.75,0,0,0-1.5,0,.76.76,0,0,0-.75.75v.05a.75.75,0,0,0-.5.7.82.82,0,0,0,.05.28.76.76,0,0,0-.55.72.72.72,0,0,0,.19.5.76.76,0,0,0-.19.5.75.75,0,0,0,.75.75.87.87,0,0,0,.28,0,.74.74,0,0,0,.72.55,1,1,0,0,0,.25,0,.76.76,0,0,1,.25.54v.5h.5v-.5a.76.76,0,0,1,.25-.54,1,1,0,0,0,.25,0,.74.74,0,0,0,.72-.55.87.87,0,0,0,.28,0,.75.75,0,0,0,.75-.75.76.76,0,0,0-.19-.5A.72.72,0,0,0,14.75,58.58Zm8,0a.76.76,0,0,0-.55-.72.82.82,0,0,0,.05-.28.75.75,0,0,0-.5-.7v-.05a.76.76,0,0,0-.75-.75.75.75,0,0,0-1.5,0,.76.76,0,0,0-.75.75v.05a.75.75,0,0,0-.5.7.82.82,0,0,0,.05.28.76.76,0,0,0-.55.72.72.72,0,0,0,.19.5.76.76,0,0,0-.19.5.75.75,0,0,0,.75.75.87.87,0,0,0,.28,0,.74.74,0,0,0,.72.55,1,1,0,0,0,.25,0,.76.76,0,0,1,.25.54v.5h.5v-.5a.76.76,0,0,1,.25-.54,1,1,0,0,0,.25,0,.74.74,0,0,0,.72-.55.87.87,0,0,0,.28,0,.75.75,0,0,0,.75-.75.76.76,0,0,0-.19-.5A.72.72,0,0,0,22.75,58.58Zm8,0a.76.76,0,0,0-.55-.72.82.82,0,0,0,.05-.28.75.75,0,0,0-.5-.7v-.05a.76.76,0,0,0-.75-.75.75.75,0,0,0-1.5,0,.76.76,0,0,0-.75.75v.05a.75.75,0,0,0-.5.7.82.82,0,0,0,.05.28.76.76,0,0,0-.55.72.72.72,0,0,0,.19.5.76.76,0,0,0-.19.5.75.75,0,0,0,.75.75.87.87,0,0,0,.28,0,.74.74,0,0,0,.72.55,1,1,0,0,0,.25,0,.76.76,0,0,1,.25.54v.5h.5v-.5a.76.76,0,0,1,.25-.54,1,1,0,0,0,.25,0,.74.74,0,0,0,.72-.55.87.87,0,0,0,.28,0,.75.75,0,0,0,.75-.75.76.76,0,0,0-.19-.5A.72.72,0,0,0,30.75,58.58Z"/><path id="exotic_non_grid_dense-3" data-name="exotic_non_grid_dense" class="cls-2" d="M38.56,5.75a.74.74,0,0,1,.19.5A.76.76,0,0,1,38,7a.87.87,0,0,1-.28,0A.75.75,0,0,1,37,7.5a.7.7,0,0,1-.25,0A.78.78,0,0,0,36.5,8v.5H36V8a.78.78,0,0,0-.25-.55.7.7,0,0,1-.25,0A.75.75,0,0,1,34.78,7a.87.87,0,0,1-.28,0,.76.76,0,0,1-.75-.75.74.74,0,0,1,.19-.5.74.74,0,0,1-.19-.5.75.75,0,0,1,.55-.72.87.87,0,0,1,0-.28.76.76,0,0,1,.5-.71v0a.76.76,0,0,1,.75-.75.75.75,0,0,1,1.5,0,.76.76,0,0,1,.75.75v0a.76.76,0,0,1,.5.71.87.87,0,0,1,0,.28.75.75,0,0,1,.55.72A.74.74,0,0,1,38.56,5.75Zm8.19-.5a.75.75,0,0,0-.55-.72.87.87,0,0,0,0-.28.76.76,0,0,0-.5-.71v0A.76.76,0,0,0,45,2.75a.75.75,0,0,0-1.5,0,.76.76,0,0,0-.75.75v0a.76.76,0,0,0-.5.71.87.87,0,0,0,0,.28.75.75,0,0,0-.55.72.74.74,0,0,0,.19.5.74.74,0,0,0-.19.5A.76.76,0,0,0,42.5,7a.87.87,0,0,0,.28,0,.75.75,0,0,0,.72.55.7.7,0,0,0,.25,0A.78.78,0,0,1,44,8v.5h.5V8a.78.78,0,0,1,.25-.55.7.7,0,0,0,.25,0A.75.75,0,0,0,45.72,7,.87.87,0,0,0,46,7a.76.76,0,0,0,.75-.75.74.74,0,0,0-.19-.5A.74.74,0,0,0,46.75,5.25Zm8,0a.75.75,0,0,0-.55-.72.87.87,0,0,0,0-.28.76.76,0,0,0-.5-.71v0A.76.76,0,0,0,53,2.75a.75.75,0,0,0-1.5,0,.76.76,0,0,0-.75.75v0a.76.76,0,0,0-.5.71.87.87,0,0,0,0,.28.75.75,0,0,0-.55.72.74.74,0,0,0,.19.5.74.74,0,0,0-.19.5A.76.76,0,0,0,50.5,7a.87.87,0,0,0,.28,0,.75.75,0,0,0,.72.55.7.7,0,0,0,.25,0A.78.78,0,0,1,52,8v.5h.5V8a.78.78,0,0,1,.25-.55.7.7,0,0,0,.25,0A.75.75,0,0,0,53.72,7,.87.87,0,0,0,54,7a.76.76,0,0,0,.75-.75.74.74,0,0,0-.19-.5A.74.74,0,0,0,54.75,5.25Zm8,0a.75.75,0,0,0-.55-.72.87.87,0,0,0,0-.28.76.76,0,0,0-.5-.71v0A.76.76,0,0,0,61,2.75a.75.75,0,0,0-1.5,0,.76.76,0,0,0-.75.75v0a.76.76,0,0,0-.5.71.87.87,0,0,0,0,.28.75.75,0,0,0-.55.72.74.74,0,0,0,.19.5.74.74,0,0,0-.19.5A.76.76,0,0,0,58.5,7a.87.87,0,0,0,.28,0,.75.75,0,0,0,.72.55.7.7,0,0,0,.25,0A.78.78,0,0,1,60,8v.5h.5V8a.78.78,0,0,1,.25-.55.7.7,0,0,0,.25,0A.75.75,0,0,0,61.72,7,.87.87,0,0,0,62,7a.76.76,0,0,0,.75-.75.74.74,0,0,0-.19-.5A.74.74,0,0,0,62.75,5.25Zm-24,10.67a.74.74,0,0,0-.55-.72.87.87,0,0,0,0-.28.75.75,0,0,0-.5-.71v0a.75.75,0,0,0-.75-.75.75.75,0,0,0-1.5,0,.75.75,0,0,0-.75.75v0a.75.75,0,0,0-.5.71.87.87,0,0,0,0,.28.74.74,0,0,0-.55.72.76.76,0,0,0,.19.5.72.72,0,0,0-.19.5.76.76,0,0,0,.75.75.67.67,0,0,0,.28-.06.75.75,0,0,0,.72.56.7.7,0,0,0,.25-.05.78.78,0,0,1,.25.55v.5h.5v-.5a.78.78,0,0,1,.25-.55.7.7,0,0,0,.25.05.75.75,0,0,0,.72-.56.67.67,0,0,0,.28.06.76.76,0,0,0,.75-.75.72.72,0,0,0-.19-.5A.76.76,0,0,0,38.75,15.92Zm8,0a.74.74,0,0,0-.55-.72.87.87,0,0,0,0-.28.75.75,0,0,0-.5-.71v0a.75.75,0,0,0-.75-.75.75.75,0,0,0-1.5,0,.75.75,0,0,0-.75.75v0a.75.75,0,0,0-.5.71.87.87,0,0,0,0,.28.74.74,0,0,0-.55.72.76.76,0,0,0,.19.5.72.72,0,0,0-.19.5.76.76,0,0,0,.75.75.67.67,0,0,0,.28-.06.75.75,0,0,0,.72.56.7.7,0,0,0,.25-.05.78.78,0,0,1,.25.55v.5h.5v-.5a.78.78,0,0,1,.25-.55.7.7,0,0,0,.25.05.75.75,0,0,0,.72-.56.67.67,0,0,0,.28.06.76.76,0,0,0,.75-.75.72.72,0,0,0-.19-.5A.76.76,0,0,0,46.75,15.92Zm8,0a.74.74,0,0,0-.55-.72.87.87,0,0,0,0-.28.75.75,0,0,0-.5-.71v0a.75.75,0,0,0-.75-.75.75.75,0,0,0-1.5,0,.75.75,0,0,0-.75.75v0a.75.75,0,0,0-.5.71.87.87,0,0,0,0,.28.74.74,0,0,0-.55.72.76.76,0,0,0,.19.5.72.72,0,0,0-.19.5.76.76,0,0,0,.75.75.67.67,0,0,0,.28-.06.75.75,0,0,0,.72.56.7.7,0,0,0,.25-.05.78.78,0,0,1,.25.55v.5h.5v-.5a.78.78,0,0,1,.25-.55.7.7,0,0,0,.25.05.75.75,0,0,0,.72-.56.67.67,0,0,0,.28.06.76.76,0,0,0,.75-.75.72.72,0,0,0-.19-.5A.76.76,0,0,0,54.75,15.92Zm8,0a.74.74,0,0,0-.55-.72.87.87,0,0,0,0-.28.75.75,0,0,0-.5-.71v0a.75.75,0,0,0-.75-.75.75.75,0,0,0-1.5,0,.75.75,0,0,0-.75.75v0a.75.75,0,0,0-.5.71.87.87,0,0,0,0,.28.74.74,0,0,0-.55.72.76.76,0,0,0,.19.5.72.72,0,0,0-.19.5.76.76,0,0,0,.75.75.67.67,0,0,0,.28-.06.75.75,0,0,0,.72.56.7.7,0,0,0,.25-.05.78.78,0,0,1,.25.55v.5h.5v-.5a.78.78,0,0,1,.25-.55.7.7,0,0,0,.25.05.75.75,0,0,0,.72-.56.67.67,0,0,0,.28.06.76.76,0,0,0,.75-.75.72.72,0,0,0-.19-.5A.76.76,0,0,0,62.75,15.92Zm-24,10.66a.76.76,0,0,0-.55-.72.82.82,0,0,0,0-.28.75.75,0,0,0-.5-.7v-.05a.76.76,0,0,0-.75-.75.75.75,0,0,0-1.5,0,.76.76,0,0,0-.75.75v.05a.75.75,0,0,0-.5.7.82.82,0,0,0,0,.28.76.76,0,0,0-.55.72.72.72,0,0,0,.19.5.76.76,0,0,0-.19.5.75.75,0,0,0,.75.75.87.87,0,0,0,.28,0,.74.74,0,0,0,.72.55,1,1,0,0,0,.25,0,.76.76,0,0,1,.25.54v.5h.5v-.5a.76.76,0,0,1,.25-.54,1,1,0,0,0,.25,0,.74.74,0,0,0,.72-.55.87.87,0,0,0,.28,0,.75.75,0,0,0,.75-.75.76.76,0,0,0-.19-.5A.72.72,0,0,0,38.75,26.58Zm8,0a.76.76,0,0,0-.55-.72.82.82,0,0,0,0-.28.75.75,0,0,0-.5-.7v-.05a.76.76,0,0,0-.75-.75.75.75,0,0,0-1.5,0,.76.76,0,0,0-.75.75v.05a.75.75,0,0,0-.5.7.82.82,0,0,0,0,.28.76.76,0,0,0-.55.72.72.72,0,0,0,.19.5.76.76,0,0,0-.19.5.75.75,0,0,0,.75.75.87.87,0,0,0,.28,0,.74.74,0,0,0,.72.55,1,1,0,0,0,.25,0,.76.76,0,0,1,.25.54v.5h.5v-.5a.76.76,0,0,1,.25-.54,1,1,0,0,0,.25,0,.74.74,0,0,0,.72-.55.87.87,0,0,0,.28,0,.75.75,0,0,0,.75-.75.76.76,0,0,0-.19-.5A.72.72,0,0,0,46.75,26.58Zm8,0a.76.76,0,0,0-.55-.72.82.82,0,0,0,0-.28.75.75,0,0,0-.5-.7v-.05a.76.76,0,0,0-.75-.75.75.75,0,0,0-1.5,0,.76.76,0,0,0-.75.75v.05a.75.75,0,0,0-.5.7.82.82,0,0,0,0,.28.76.76,0,0,0-.55.72.72.72,0,0,0,.19.5.76.76,0,0,0-.19.5.75.75,0,0,0,.75.75.87.87,0,0,0,.28,0,.74.74,0,0,0,.72.55,1,1,0,0,0,.25,0,.76.76,0,0,1,.25.54v.5h.5v-.5a.76.76,0,0,1,.25-.54,1,1,0,0,0,.25,0,.74.74,0,0,0,.72-.55.87.87,0,0,0,.28,0,.75.75,0,0,0,.75-.75.76.76,0,0,0-.19-.5A.72.72,0,0,0,54.75,26.58Zm8,0a.76.76,0,0,0-.55-.72.82.82,0,0,0,0-.28.75.75,0,0,0-.5-.7v-.05a.76.76,0,0,0-.75-.75.75.75,0,0,0-1.5,0,.76.76,0,0,0-.75.75v.05a.75.75,0,0,0-.5.7.82.82,0,0,0,0,.28.76.76,0,0,0-.55.72.72.72,0,0,0,.19.5.76.76,0,0,0-.19.5.75.75,0,0,0,.75.75.87.87,0,0,0,.28,0,.74.74,0,0,0,.72.55,1,1,0,0,0,.25,0,.76.76,0,0,1,.25.54v.5h.5v-.5a.76.76,0,0,1,.25-.54,1,1,0,0,0,.25,0,.74.74,0,0,0,.72-.55.87.87,0,0,0,.28,0,.75.75,0,0,0,.75-.75.76.76,0,0,0-.19-.5A.72.72,0,0,0,62.75,26.58Z"/><path id="exotic_non_grid_dense-4" data-name="exotic_non_grid_dense" class="cls-2" d="M38.56,37.75a.74.74,0,0,1,.19.5A.76.76,0,0,1,38,39a.87.87,0,0,1-.28,0,.75.75,0,0,1-.72.55.7.7,0,0,1-.25,0,.78.78,0,0,0-.25.55v.5H36V40a.78.78,0,0,0-.25-.55.7.7,0,0,1-.25,0,.75.75,0,0,1-.72-.55.87.87,0,0,1-.28,0,.76.76,0,0,1-.75-.75.74.74,0,0,1,.19-.5.74.74,0,0,1-.19-.5.75.75,0,0,1,.55-.72.87.87,0,0,1,0-.28.76.76,0,0,1,.5-.71v0a.76.76,0,0,1,.75-.75.75.75,0,0,1,1.5,0,.76.76,0,0,1,.75.75v0a.76.76,0,0,1,.5.71.87.87,0,0,1,0,.28.75.75,0,0,1,.55.72A.74.74,0,0,1,38.56,37.75Zm8.19-.5a.75.75,0,0,0-.55-.72.87.87,0,0,0,0-.28.76.76,0,0,0-.5-.71v0a.76.76,0,0,0-.75-.75.75.75,0,0,0-1.5,0,.76.76,0,0,0-.75.75v0a.76.76,0,0,0-.5.71.87.87,0,0,0,0,.28.75.75,0,0,0-.55.72.74.74,0,0,0,.19.5.74.74,0,0,0-.19.5.76.76,0,0,0,.75.75.87.87,0,0,0,.28,0,.75.75,0,0,0,.72.55.7.7,0,0,0,.25,0A.78.78,0,0,1,44,40v.5h.5V40a.78.78,0,0,1,.25-.55.7.7,0,0,0,.25,0,.75.75,0,0,0,.72-.55A.87.87,0,0,0,46,39a.76.76,0,0,0,.75-.75.74.74,0,0,0-.19-.5A.74.74,0,0,0,46.75,37.25Zm8,0a.75.75,0,0,0-.55-.72.87.87,0,0,0,0-.28.76.76,0,0,0-.5-.71v0a.76.76,0,0,0-.75-.75.75.75,0,0,0-1.5,0,.76.76,0,0,0-.75.75v0a.76.76,0,0,0-.5.71.87.87,0,0,0,0,.28.75.75,0,0,0-.55.72.74.74,0,0,0,.19.5.74.74,0,0,0-.19.5.76.76,0,0,0,.75.75.87.87,0,0,0,.28,0,.75.75,0,0,0,.72.55.7.7,0,0,0,.25,0A.78.78,0,0,1,52,40v.5h.5V40a.78.78,0,0,1,.25-.55.7.7,0,0,0,.25,0,.75.75,0,0,0,.72-.55A.87.87,0,0,0,54,39a.76.76,0,0,0,.75-.75.74.74,0,0,0-.19-.5A.74.74,0,0,0,54.75,37.25Zm8,0a.75.75,0,0,0-.55-.72.87.87,0,0,0,0-.28.76.76,0,0,0-.5-.71v0a.76.76,0,0,0-.75-.75.75.75,0,0,0-1.5,0,.76.76,0,0,0-.75.75v0a.76.76,0,0,0-.5.71.87.87,0,0,0,0,.28.75.75,0,0,0-.55.72.74.74,0,0,0,.19.5.74.74,0,0,0-.19.5.76.76,0,0,0,.75.75.87.87,0,0,0,.28,0,.75.75,0,0,0,.72.55.7.7,0,0,0,.25,0A.78.78,0,0,1,60,40v.5h.5V40a.78.78,0,0,1,.25-.55.7.7,0,0,0,.25,0,.75.75,0,0,0,.72-.55A.87.87,0,0,0,62,39a.76.76,0,0,0,.75-.75.74.74,0,0,0-.19-.5A.74.74,0,0,0,62.75,37.25Zm-24,10.67a.74.74,0,0,0-.55-.72.87.87,0,0,0,0-.28.75.75,0,0,0-.5-.71v0a.75.75,0,0,0-.75-.75.75.75,0,0,0-1.5,0,.75.75,0,0,0-.75.75v0a.75.75,0,0,0-.5.71.87.87,0,0,0,0,.28.74.74,0,0,0-.55.72.76.76,0,0,0,.19.5.72.72,0,0,0-.19.5.76.76,0,0,0,.75.75.67.67,0,0,0,.28-.06.75.75,0,0,0,.72.56.7.7,0,0,0,.25-.05.78.78,0,0,1,.25.55v.5h.5v-.5a.78.78,0,0,1,.25-.55.7.7,0,0,0,.25.05.75.75,0,0,0,.72-.56.67.67,0,0,0,.28.06.76.76,0,0,0,.75-.75.72.72,0,0,0-.19-.5A.76.76,0,0,0,38.75,47.92Zm8,0a.74.74,0,0,0-.55-.72.87.87,0,0,0,0-.28.75.75,0,0,0-.5-.71v0a.75.75,0,0,0-.75-.75.75.75,0,0,0-1.5,0,.75.75,0,0,0-.75.75v0a.75.75,0,0,0-.5.71.87.87,0,0,0,0,.28.74.74,0,0,0-.55.72.76.76,0,0,0,.19.5.72.72,0,0,0-.19.5.76.76,0,0,0,.75.75.67.67,0,0,0,.28-.06.75.75,0,0,0,.72.56.7.7,0,0,0,.25-.05.78.78,0,0,1,.25.55v.5h.5v-.5a.78.78,0,0,1,.25-.55.7.7,0,0,0,.25.05.75.75,0,0,0,.72-.56.67.67,0,0,0,.28.06.76.76,0,0,0,.75-.75.72.72,0,0,0-.19-.5A.76.76,0,0,0,46.75,47.92Zm8,0a.74.74,0,0,0-.55-.72.87.87,0,0,0,0-.28.75.75,0,0,0-.5-.71v0a.75.75,0,0,0-.75-.75.75.75,0,0,0-1.5,0,.75.75,0,0,0-.75.75v0a.75.75,0,0,0-.5.71.87.87,0,0,0,0,.28.74.74,0,0,0-.55.72.76.76,0,0,0,.19.5.72.72,0,0,0-.19.5.76.76,0,0,0,.75.75.67.67,0,0,0,.28-.06.75.75,0,0,0,.72.56.7.7,0,0,0,.25-.05.78.78,0,0,1,.25.55v.5h.5v-.5a.78.78,0,0,1,.25-.55.7.7,0,0,0,.25.05.75.75,0,0,0,.72-.56.67.67,0,0,0,.28.06.76.76,0,0,0,.75-.75.72.72,0,0,0-.19-.5A.76.76,0,0,0,54.75,47.92Zm8,0a.74.74,0,0,0-.55-.72.87.87,0,0,0,0-.28.75.75,0,0,0-.5-.71v0a.75.75,0,0,0-.75-.75.75.75,0,0,0-1.5,0,.75.75,0,0,0-.75.75v0a.75.75,0,0,0-.5.71.87.87,0,0,0,0,.28.74.74,0,0,0-.55.72.76.76,0,0,0,.19.5.72.72,0,0,0-.19.5.76.76,0,0,0,.75.75.67.67,0,0,0,.28-.06.75.75,0,0,0,.72.56.7.7,0,0,0,.25-.05.78.78,0,0,1,.25.55v.5h.5v-.5a.78.78,0,0,1,.25-.55.7.7,0,0,0,.25.05.75.75,0,0,0,.72-.56.67.67,0,0,0,.28.06.76.76,0,0,0,.75-.75.72.72,0,0,0-.19-.5A.76.76,0,0,0,62.75,47.92Zm-24,10.66a.76.76,0,0,0-.55-.72.82.82,0,0,0,0-.28.75.75,0,0,0-.5-.7v-.05a.76.76,0,0,0-.75-.75.75.75,0,0,0-1.5,0,.76.76,0,0,0-.75.75v.05a.75.75,0,0,0-.5.7.82.82,0,0,0,0,.28.76.76,0,0,0-.55.72.72.72,0,0,0,.19.5.76.76,0,0,0-.19.5.75.75,0,0,0,.75.75.87.87,0,0,0,.28,0,.74.74,0,0,0,.72.55,1,1,0,0,0,.25,0,.76.76,0,0,1,.25.54v.5h.5v-.5a.76.76,0,0,1,.25-.54,1,1,0,0,0,.25,0,.74.74,0,0,0,.72-.55.87.87,0,0,0,.28,0,.75.75,0,0,0,.75-.75.76.76,0,0,0-.19-.5A.72.72,0,0,0,38.75,58.58Zm8,0a.76.76,0,0,0-.55-.72.82.82,0,0,0,0-.28.75.75,0,0,0-.5-.7v-.05a.76.76,0,0,0-.75-.75.75.75,0,0,0-1.5,0,.76.76,0,0,0-.75.75v.05a.75.75,0,0,0-.5.7.82.82,0,0,0,0,.28.76.76,0,0,0-.55.72.72.72,0,0,0,.19.5.76.76,0,0,0-.19.5.75.75,0,0,0,.75.75.87.87,0,0,0,.28,0,.74.74,0,0,0,.72.55,1,1,0,0,0,.25,0,.76.76,0,0,1,.25.54v.5h.5v-.5a.76.76,0,0,1,.25-.54,1,1,0,0,0,.25,0,.74.74,0,0,0,.72-.55.87.87,0,0,0,.28,0,.75.75,0,0,0,.75-.75.76.76,0,0,0-.19-.5A.72.72,0,0,0,46.75,58.58Zm8,0a.76.76,0,0,0-.55-.72.82.82,0,0,0,0-.28.75.75,0,0,0-.5-.7v-.05a.76.76,0,0,0-.75-.75.75.75,0,0,0-1.5,0,.76.76,0,0,0-.75.75v.05a.75.75,0,0,0-.5.7.82.82,0,0,0,0,.28.76.76,0,0,0-.55.72.72.72,0,0,0,.19.5.76.76,0,0,0-.19.5.75.75,0,0,0,.75.75.87.87,0,0,0,.28,0,.74.74,0,0,0,.72.55,1,1,0,0,0,.25,0,.76.76,0,0,1,.25.54v.5h.5v-.5a.76.76,0,0,1,.25-.54,1,1,0,0,0,.25,0,.74.74,0,0,0,.72-.55.87.87,0,0,0,.28,0,.75.75,0,0,0,.75-.75.76.76,0,0,0-.19-.5A.72.72,0,0,0,54.75,58.58Zm8,0a.76.76,0,0,0-.55-.72.82.82,0,0,0,0-.28.75.75,0,0,0-.5-.7v-.05a.76.76,0,0,0-.75-.75.75.75,0,0,0-1.5,0,.76.76,0,0,0-.75.75v.05a.75.75,0,0,0-.5.7.82.82,0,0,0,0,.28.76.76,0,0,0-.55.72.72.72,0,0,0,.19.5.76.76,0,0,0-.19.5.75.75,0,0,0,.75.75.87.87,0,0,0,.28,0,.74.74,0,0,0,.72.55,1,1,0,0,0,.25,0,.76.76,0,0,1,.25.54v.5h.5v-.5a.76.76,0,0,1,.25-.54,1,1,0,0,0,.25,0,.74.74,0,0,0,.72-.55.87.87,0,0,0,.28,0,.75.75,0,0,0,.75-.75.76.76,0,0,0-.19-.5A.72.72,0,0,0,62.75,58.58Z"/></g></svg>