<svg id="Sprites" xmlns="http://www.w3.org/2000/svg" viewBox="0 0 64 64"><defs><style>.cls-1{fill:#236035;}</style></defs><path id="exotic_poly_con_grid_dense" class="cls-1" d="M13,16.06a.5.5,0,0,1-.45.27H9v1H8v-1H4.5a.5.5,0,0,1-.45-.27.51.51,0,0,1,0-.52l2.69-3.71H5.5a.5.5,0,0,1-.45-.27.53.53,0,0,1,0-.53l2.4-3.2h-1a.51.51,0,0,1-.44-.26.49.49,0,0,1,0-.51l2-3a.53.53,0,0,1,.84,0l2,3a.49.49,0,0,1,0,.51.51.51,0,0,1-.44.26h-1L11.9,11a.53.53,0,0,1,0,.53.5.5,0,0,1-.45.27H10.21l2.69,3.71A.51.51,0,0,1,13,16.06Zm16,0a.5.5,0,0,1-.45.27H25v1H24v-1H20.5a.5.5,0,0,1-.45-.27.51.51,0,0,1,.05-.52l2.69-3.71H21.5a.5.5,0,0,1-.45-.27A.53.53,0,0,1,21.1,11l2.4-3.2h-1a.51.51,0,0,1-.44-.26.49.49,0,0,1,0-.51l2-3a.53.53,0,0,1,.84,0l2,3a.49.49,0,0,1,0,.51.51.51,0,0,1-.44.26h-1L27.9,11a.53.53,0,0,1,.05.53.5.5,0,0,1-.45.27H26.21l2.69,3.71A.51.51,0,0,1,29,16.06Zm16,0a.5.5,0,0,1-.45.27H41v1H40v-1H36.5a.5.5,0,0,1-.45-.27.51.51,0,0,1,.05-.52l2.69-3.71H37.5a.5.5,0,0,1-.45-.27A.53.53,0,0,1,37.1,11l2.4-3.2h-1a.51.51,0,0,1-.44-.26.49.49,0,0,1,0-.51l2-3a.52.52,0,0,1,.84,0l2,3a.49.49,0,0,1,0,.51.51.51,0,0,1-.44.26h-1L43.9,11a.53.53,0,0,1,.05.53.5.5,0,0,1-.45.27H42.21l2.69,3.71A.51.51,0,0,1,45,16.06Zm16,0a.5.5,0,0,1-.45.27H57v1H56v-1H52.5a.5.5,0,0,1-.45-.27.51.51,0,0,1,.05-.52l2.69-3.71H53.5a.5.5,0,0,1-.45-.27A.53.53,0,0,1,53.1,11l2.4-3.2h-1a.51.51,0,0,1-.44-.26.49.49,0,0,1,0-.51l2-3a.52.52,0,0,1,.84,0l2,3a.49.49,0,0,1,0,.51.51.51,0,0,1-.44.26h-1L59.9,11a.53.53,0,0,1,.05.53.5.5,0,0,1-.45.27H58.21l2.69,3.71A.51.51,0,0,1,61,16.06ZM13,37.39a.51.51,0,0,1-.45.28H9v1H8v-1H4.5a.5.5,0,0,1-.4-.8l2.69-3.7H5.5a.5.5,0,0,1-.4-.8l2.4-3.2h-1a.5.5,0,0,1-.44-.27.49.49,0,0,1,0-.51l2-3a.52.52,0,0,1,.84,0l2,3a.49.49,0,0,1,0,.51.5.5,0,0,1-.44.27h-1l2.4,3.2a.5.5,0,0,1-.4.8H10.21l2.69,3.7A.52.52,0,0,1,13,37.39Zm16,0a.51.51,0,0,1-.45.28H25v1H24v-1H20.5a.5.5,0,0,1-.4-.8l2.69-3.7H21.5a.5.5,0,0,1-.4-.8l2.4-3.2h-1a.5.5,0,0,1-.44-.27.49.49,0,0,1,0-.51l2-3a.53.53,0,0,1,.84,0l2,3a.49.49,0,0,1,0,.51.5.5,0,0,1-.44.27h-1l2.4,3.2a.5.5,0,0,1-.4.8H26.21l2.69,3.7A.52.52,0,0,1,29,37.39Zm16,0a.51.51,0,0,1-.45.28H41v1H40v-1H36.5a.5.5,0,0,1-.4-.8l2.69-3.7H37.5a.5.5,0,0,1-.4-.8l2.4-3.2h-1a.5.5,0,0,1-.44-.27.49.49,0,0,1,0-.51l2-3a.53.53,0,0,1,.84,0l2,3a.49.49,0,0,1,0,.51.5.5,0,0,1-.44.27h-1l2.4,3.2a.5.5,0,0,1-.4.8H42.21l2.69,3.7A.52.52,0,0,1,45,37.39Zm16,0a.51.51,0,0,1-.45.28H57v1H56v-1H52.5a.5.5,0,0,1-.4-.8l2.69-3.7H53.5a.5.5,0,0,1-.4-.8l2.4-3.2h-1a.5.5,0,0,1-.44-.27.49.49,0,0,1,0-.51l2-3a.53.53,0,0,1,.84,0l2,3a.49.49,0,0,1,0,.51.5.5,0,0,1-.44.27h-1l2.4,3.2a.5.5,0,0,1-.4.8H58.21l2.69,3.7A.52.52,0,0,1,61,37.39ZM13,58.73a.52.52,0,0,1-.45.27H9v1H8V59H4.5a.52.52,0,0,1-.45-.27.51.51,0,0,1,0-.52L6.79,54.5H5.5a.5.5,0,0,1-.4-.8l2.4-3.2h-1a.5.5,0,0,1-.42-.78l2-3a.54.54,0,0,1,.84,0l2,3a.5.5,0,0,1-.42.78h-1l2.4,3.2a.5.5,0,0,1-.4.8H10.21l2.69,3.71A.51.51,0,0,1,13,58.73Zm16,0a.52.52,0,0,1-.45.27H25v1H24V59H20.5a.52.52,0,0,1-.45-.27.51.51,0,0,1,.05-.52l2.69-3.71H21.5a.5.5,0,0,1-.4-.8l2.4-3.2h-1a.5.5,0,0,1-.42-.78l2-3a.54.54,0,0,1,.84,0l2,3a.5.5,0,0,1-.42.78h-1l2.4,3.2a.5.5,0,0,1-.4.8H26.21l2.69,3.71A.51.51,0,0,1,29,58.73Zm16,0a.52.52,0,0,1-.45.27H41v1H40V59H36.5a.52.52,0,0,1-.45-.27.51.51,0,0,1,.05-.52l2.69-3.71H37.5a.5.5,0,0,1-.4-.8l2.4-3.2h-1a.5.5,0,0,1-.42-.78l2-3a.54.54,0,0,1,.84,0l2,3a.5.5,0,0,1-.42.78h-1l2.4,3.2a.5.5,0,0,1-.4.8H42.21l2.69,3.71A.51.51,0,0,1,45,58.73Zm16,0a.52.52,0,0,1-.45.27H57v1H56V59H52.5a.52.52,0,0,1-.45-.27.51.51,0,0,1,.05-.52l2.69-3.71H53.5a.5.5,0,0,1-.4-.8l2.4-3.2h-1a.5.5,0,0,1-.42-.78l2-3a.54.54,0,0,1,.84,0l2,3a.5.5,0,0,1-.42.78h-1l2.4,3.2a.5.5,0,0,1-.4.8H58.21l2.69,3.71A.51.51,0,0,1,61,58.73Z"/></svg>