<svg id="Sprites" xmlns="http://www.w3.org/2000/svg" viewBox="0 0 64 64"><defs><style>.cls-1{fill:none;}.cls-2{fill:#236035;}</style></defs><g id="exotic_non_poly_random_dense_half"><rect id="bbox_64" class="cls-1" width="64" height="64"/><path id="exotic_non_random_dense" class="cls-2" d="M2.05,4.75a.73.73,0,0,1,.2.5A.75.75,0,0,1,1.5,6a.82.82,0,0,1-.28,0A.74.74,0,0,1,.5,6.5a.8.8,0,0,1-.26,0A.84.84,0,0,0,0,7V1a.75.75,0,0,1,.5.71.74.74,0,0,1,.75.75s0,0,0,0a.74.74,0,0,1,.51.71.82.82,0,0,1-.05.28.73.73,0,0,1,.55.72A.75.75,0,0,1,2.05,4.75ZM10,7.5a.75.75,0,0,0-.55-.72A.87.87,0,0,0,9.5,6.5.76.76,0,0,0,9,5.79v0A.76.76,0,0,0,8.25,5a.75.75,0,0,0-1.5,0A.76.76,0,0,0,6,5.75v0a.76.76,0,0,0-.5.71.87.87,0,0,0,0,.28A.75.75,0,0,0,5,7.5a.74.74,0,0,0,.19.5A.74.74,0,0,0,5,8.5a.76.76,0,0,0,.75.75A.87.87,0,0,0,6,9.2a.75.75,0,0,0,.72.55A.7.7,0,0,0,7,9.7a.78.78,0,0,1,.25.55v.5h.5v-.5A.78.78,0,0,1,8,9.7a.7.7,0,0,0,.25.05A.75.75,0,0,0,9,9.2a.87.87,0,0,0,.28.05A.76.76,0,0,0,10,8.5.74.74,0,0,0,9.81,8,.74.74,0,0,0,10,7.5ZM25,10a.75.75,0,0,0-.55-.72A.87.87,0,0,0,24.5,9a.76.76,0,0,0-.5-.71v0a.76.76,0,0,0-.75-.75.75.75,0,0,0-1.5,0,.76.76,0,0,0-.75.75v0a.76.76,0,0,0-.5.71.87.87,0,0,0,.05.28A.75.75,0,0,0,20,10a.74.74,0,0,0,.19.5A.74.74,0,0,0,20,11a.76.76,0,0,0,.75.75A.87.87,0,0,0,21,11.7a.75.75,0,0,0,.72.55A.7.7,0,0,0,22,12.2a.78.78,0,0,1,.25.55v.5h.5v-.5A.78.78,0,0,1,23,12.2a.7.7,0,0,0,.25.05A.75.75,0,0,0,24,11.7a.87.87,0,0,0,.28.05A.76.76,0,0,0,25,11a.74.74,0,0,0-.19-.5A.74.74,0,0,0,25,10ZM14.5,20a.75.75,0,0,0-.55-.72A.87.87,0,0,0,14,19a.76.76,0,0,0-.5-.71v0a.76.76,0,0,0-.75-.75.75.75,0,0,0-1.5,0,.76.76,0,0,0-.75.75v0A.76.76,0,0,0,10,19a.87.87,0,0,0,.05.28A.75.75,0,0,0,9.5,20a.74.74,0,0,0,.19.5.74.74,0,0,0-.19.5.76.76,0,0,0,.75.75.87.87,0,0,0,.28-.05.75.75,0,0,0,.72.55.7.7,0,0,0,.25-.05.78.78,0,0,1,.25.55v.5h.5v-.5a.78.78,0,0,1,.25-.55.7.7,0,0,0,.25.05.75.75,0,0,0,.72-.55.87.87,0,0,0,.28.05A.76.76,0,0,0,14.5,21a.74.74,0,0,0-.19-.5A.74.74,0,0,0,14.5,20Zm13,5a.75.75,0,0,0-.55-.72A.87.87,0,0,0,27,24a.76.76,0,0,0-.5-.71v0a.76.76,0,0,0-.75-.75.75.75,0,0,0-1.5,0,.76.76,0,0,0-.75.75v0A.76.76,0,0,0,23,24a.87.87,0,0,0,.05.28.75.75,0,0,0-.55.72.74.74,0,0,0,.19.5.74.74,0,0,0-.19.5.76.76,0,0,0,.75.75.87.87,0,0,0,.28-.05.75.75,0,0,0,.72.55.7.7,0,0,0,.25-.05.78.78,0,0,1,.25.55v.5h.5v-.5a.78.78,0,0,1,.25-.55.7.7,0,0,0,.25.05.75.75,0,0,0,.72-.55.87.87,0,0,0,.28.05A.76.76,0,0,0,27.5,26a.74.74,0,0,0-.19-.5A.74.74,0,0,0,27.5,25ZM31.75,1a.74.74,0,0,0-.75.75.74.74,0,0,0-.75.75s0,0,0,0a.74.74,0,0,0-.51.71.82.82,0,0,0,.05.28.73.73,0,0,0-.55.72.75.75,0,0,0,.2.5.73.73,0,0,0-.2.5A.75.75,0,0,0,30,6a.82.82,0,0,0,.28,0A.74.74,0,0,0,31,6.5a.8.8,0,0,0,.26,0A.84.84,0,0,1,31.5,7v.5H32V1A.69.69,0,0,0,31.75,1Zm-25,26a.75.75,0,0,0-.55-.72.87.87,0,0,0,0-.28.76.76,0,0,0-.5-.71v0A.76.76,0,0,0,5,24.5a.75.75,0,0,0-1.5,0,.76.76,0,0,0-.75.75v0a.76.76,0,0,0-.5.71.87.87,0,0,0,0,.28.75.75,0,0,0-.55.72.74.74,0,0,0,.19.5.74.74,0,0,0-.19.5.76.76,0,0,0,.75.75.87.87,0,0,0,.28-.05.75.75,0,0,0,.72.55.7.7,0,0,0,.25-.05.78.78,0,0,1,.25.55v.5h.5v-.5a.78.78,0,0,1,.25-.55.7.7,0,0,0,.25.05.75.75,0,0,0,.72-.55.87.87,0,0,0,.28.05A.76.76,0,0,0,6.75,28a.74.74,0,0,0-.19-.5A.74.74,0,0,0,6.75,27ZM32,16.35a.74.74,0,0,0-.55-.72.87.87,0,0,0,.05-.28.75.75,0,0,0-.5-.71v0a.75.75,0,0,0-.75-.75.75.75,0,0,0-1.5,0,.75.75,0,0,0-.75.75v0a.75.75,0,0,0-.5.71.87.87,0,0,0,.05.28.74.74,0,0,0-.55.72.76.76,0,0,0,.19.5.72.72,0,0,0-.19.5.76.76,0,0,0,.75.75A.67.67,0,0,0,28,18a.75.75,0,0,0,.72.56.7.7,0,0,0,.25-.05.78.78,0,0,1,.25.55v.5h.5v-.5a.78.78,0,0,1,.25-.55.7.7,0,0,0,.25.05A.75.75,0,0,0,31,18a.67.67,0,0,0,.28.06.76.76,0,0,0,.75-.75.72.72,0,0,0-.19-.5A.76.76,0,0,0,32,16.35ZM19.05.25A.64.64,0,0,0,19.2,0H14.3a.64.64,0,0,0,.15.25.73.73,0,0,0-.2.5A.75.75,0,0,0,15,1.5a.82.82,0,0,0,.28-.05A.74.74,0,0,0,16,2,.8.8,0,0,0,16.26,2a.84.84,0,0,1,.24.55V3H17V2.5A.84.84,0,0,1,17.24,2,.8.8,0,0,0,17.5,2a.74.74,0,0,0,.72-.55.82.82,0,0,0,.28.05.75.75,0,0,0,.75-.75A.73.73,0,0,0,19.05.25ZM18.7,31a.82.82,0,0,0,.05-.28.74.74,0,0,0-.51-.71s0,0,0,0a.74.74,0,0,0-.75-.75.75.75,0,0,0-1.5,0,.74.74,0,0,0-.75.75s0,0,0,0a.74.74,0,0,0-.51.71.82.82,0,0,0,.05.28.73.73,0,0,0-.55.72.7.7,0,0,0,.05.25h4.9a.7.7,0,0,0,.05-.25A.73.73,0,0,0,18.7,31Z"/><path id="exotic_non_random_dense-2" data-name="exotic_non_random_dense" class="cls-2" d="M2.05,36.75a.73.73,0,0,1,.2.5A.75.75,0,0,1,1.5,38a.82.82,0,0,1-.28,0,.74.74,0,0,1-.72.55.8.8,0,0,1-.26,0A.84.84,0,0,0,0,39V33a.75.75,0,0,1,.5.71.74.74,0,0,1,.75.75v0a.74.74,0,0,1,.51.71.82.82,0,0,1-.05.28.73.73,0,0,1,.55.72A.75.75,0,0,1,2.05,36.75Zm8,2.75a.75.75,0,0,0-.55-.72.87.87,0,0,0,.05-.28.76.76,0,0,0-.5-.71v0A.76.76,0,0,0,8.25,37a.75.75,0,0,0-1.5,0,.76.76,0,0,0-.75.75v0a.76.76,0,0,0-.5.71.87.87,0,0,0,0,.28A.75.75,0,0,0,5,39.5a.74.74,0,0,0,.19.5.74.74,0,0,0-.19.5.76.76,0,0,0,.75.75.87.87,0,0,0,.28,0,.75.75,0,0,0,.72.55.7.7,0,0,0,.25,0,.78.78,0,0,1,.25.55v.5h.5v-.5A.78.78,0,0,1,8,41.7a.7.7,0,0,0,.25,0A.75.75,0,0,0,9,41.2a.87.87,0,0,0,.28,0A.76.76,0,0,0,10,40.5a.74.74,0,0,0-.19-.5A.74.74,0,0,0,10,39.5ZM25,42a.75.75,0,0,0-.55-.72A.87.87,0,0,0,24.5,41a.76.76,0,0,0-.5-.71v0a.76.76,0,0,0-.75-.75.75.75,0,0,0-1.5,0,.76.76,0,0,0-.75.75v0a.76.76,0,0,0-.5.71.87.87,0,0,0,.05.28A.75.75,0,0,0,20,42a.74.74,0,0,0,.19.5A.74.74,0,0,0,20,43a.76.76,0,0,0,.75.75.87.87,0,0,0,.28,0,.75.75,0,0,0,.72.55.7.7,0,0,0,.25,0,.78.78,0,0,1,.25.55v.5h.5v-.5A.78.78,0,0,1,23,44.2a.7.7,0,0,0,.25,0A.75.75,0,0,0,24,43.7a.87.87,0,0,0,.28,0A.76.76,0,0,0,25,43a.74.74,0,0,0-.19-.5A.74.74,0,0,0,25,42ZM14.5,52a.75.75,0,0,0-.55-.72A.87.87,0,0,0,14,51a.76.76,0,0,0-.5-.71v0a.76.76,0,0,0-.75-.75.75.75,0,0,0-1.5,0,.76.76,0,0,0-.75.75v0A.76.76,0,0,0,10,51a.87.87,0,0,0,.05.28A.75.75,0,0,0,9.5,52a.74.74,0,0,0,.19.5.74.74,0,0,0-.19.5.76.76,0,0,0,.75.75.87.87,0,0,0,.28,0,.75.75,0,0,0,.72.55.7.7,0,0,0,.25,0,.78.78,0,0,1,.25.55v.5h.5v-.5a.78.78,0,0,1,.25-.55.7.7,0,0,0,.25,0,.75.75,0,0,0,.72-.55.87.87,0,0,0,.28,0A.76.76,0,0,0,14.5,53a.74.74,0,0,0-.19-.5A.74.74,0,0,0,14.5,52Zm13,5a.75.75,0,0,0-.55-.72A.87.87,0,0,0,27,56a.76.76,0,0,0-.5-.71v0a.76.76,0,0,0-.75-.75.75.75,0,0,0-1.5,0,.76.76,0,0,0-.75.75v0A.76.76,0,0,0,23,56a.87.87,0,0,0,.05.28.75.75,0,0,0-.55.72.74.74,0,0,0,.19.5.74.74,0,0,0-.19.5.76.76,0,0,0,.75.75.87.87,0,0,0,.28,0,.75.75,0,0,0,.72.55.7.7,0,0,0,.25,0,.78.78,0,0,1,.25.55v.5h.5v-.5a.78.78,0,0,1,.25-.55.7.7,0,0,0,.25,0,.75.75,0,0,0,.72-.55.87.87,0,0,0,.28,0A.76.76,0,0,0,27.5,58a.74.74,0,0,0-.19-.5A.74.74,0,0,0,27.5,57Zm4.25-24a.74.74,0,0,0-.75.75.74.74,0,0,0-.75.75v0a.74.74,0,0,0-.51.71.82.82,0,0,0,.05.28.73.73,0,0,0-.55.72.75.75,0,0,0,.2.5.73.73,0,0,0-.2.5A.75.75,0,0,0,30,38a.82.82,0,0,0,.28,0,.74.74,0,0,0,.72.55.8.8,0,0,0,.26,0,.84.84,0,0,1,.24.55v.5H32V33A.69.69,0,0,0,31.75,33Zm-25,26a.75.75,0,0,0-.55-.72.87.87,0,0,0,0-.28.76.76,0,0,0-.5-.71v0A.76.76,0,0,0,5,56.5a.75.75,0,0,0-1.5,0,.76.76,0,0,0-.75.75v0a.76.76,0,0,0-.5.71.87.87,0,0,0,0,.28.75.75,0,0,0-.55.72.74.74,0,0,0,.19.5.74.74,0,0,0-.19.5.76.76,0,0,0,.75.75.87.87,0,0,0,.28,0,.75.75,0,0,0,.72.55.7.7,0,0,0,.25,0,.78.78,0,0,1,.25.55v.5h.5v-.5a.78.78,0,0,1,.25-.55.7.7,0,0,0,.25,0,.75.75,0,0,0,.72-.55.87.87,0,0,0,.28,0A.76.76,0,0,0,6.75,60a.74.74,0,0,0-.19-.5A.74.74,0,0,0,6.75,59ZM32,48.35a.74.74,0,0,0-.55-.72.87.87,0,0,0,.05-.28.75.75,0,0,0-.5-.71v0a.75.75,0,0,0-.75-.75.75.75,0,1,0-1.5,0,.75.75,0,0,0-.75.75v0a.75.75,0,0,0-.5.71.87.87,0,0,0,.05.28.74.74,0,0,0-.55.72.76.76,0,0,0,.19.5.72.72,0,0,0-.19.5.76.76,0,0,0,.75.75A.67.67,0,0,0,28,50a.75.75,0,0,0,.72.56.7.7,0,0,0,.25-.05.78.78,0,0,1,.25.55v.5h.5v-.5a.78.78,0,0,1,.25-.55.7.7,0,0,0,.25.05A.75.75,0,0,0,31,50a.67.67,0,0,0,.28.06.76.76,0,0,0,.75-.75.72.72,0,0,0-.19-.5A.76.76,0,0,0,32,48.35ZM19.05,32.25A.64.64,0,0,0,19.2,32H14.3a.64.64,0,0,0,.15.25.73.73,0,0,0-.2.5.75.75,0,0,0,.75.75.82.82,0,0,0,.28,0A.74.74,0,0,0,16,34a.8.8,0,0,0,.26,0,.84.84,0,0,1,.24.55V35H17v-.5a.84.84,0,0,1,.24-.55.8.8,0,0,0,.26,0,.74.74,0,0,0,.72-.55.82.82,0,0,0,.28,0,.75.75,0,0,0,.75-.75A.73.73,0,0,0,19.05,32.25ZM18.7,63a.82.82,0,0,0,.05-.28.74.74,0,0,0-.51-.71v0a.74.74,0,0,0-.75-.75.75.75,0,0,0-1.5,0,.74.74,0,0,0-.75.75v0a.74.74,0,0,0-.51.71.82.82,0,0,0,.05.28.73.73,0,0,0-.55.72.7.7,0,0,0,.05.25h4.9a.7.7,0,0,0,.05-.25A.73.73,0,0,0,18.7,63Z"/><path id="exotic_non_random_dense-3" data-name="exotic_non_random_dense" class="cls-2" d="M34.05,4.75a.73.73,0,0,1,.2.5A.75.75,0,0,1,33.5,6a.82.82,0,0,1-.28,0,.74.74,0,0,1-.72.55.8.8,0,0,1-.26,0A.84.84,0,0,0,32,7V1a.75.75,0,0,1,.5.71.74.74,0,0,1,.75.75s0,0,0,0a.74.74,0,0,1,.51.71.82.82,0,0,1,0,.28.73.73,0,0,1,.55.72A.75.75,0,0,1,34.05,4.75ZM42,7.5a.75.75,0,0,0-.55-.72.87.87,0,0,0,0-.28.76.76,0,0,0-.5-.71v0A.76.76,0,0,0,40.25,5a.75.75,0,0,0-1.5,0,.76.76,0,0,0-.75.75v0a.76.76,0,0,0-.5.71.87.87,0,0,0,0,.28A.75.75,0,0,0,37,7.5a.74.74,0,0,0,.19.5.74.74,0,0,0-.19.5.76.76,0,0,0,.75.75A.87.87,0,0,0,38,9.2a.75.75,0,0,0,.72.55A.7.7,0,0,0,39,9.7a.78.78,0,0,1,.25.55v.5h.5v-.5A.78.78,0,0,1,40,9.7a.7.7,0,0,0,.25.05A.75.75,0,0,0,41,9.2a.87.87,0,0,0,.28.05A.76.76,0,0,0,42,8.5a.74.74,0,0,0-.19-.5A.74.74,0,0,0,42,7.5ZM57,10a.75.75,0,0,0-.55-.72.87.87,0,0,0,0-.28.76.76,0,0,0-.5-.71v0a.76.76,0,0,0-.75-.75.75.75,0,0,0-1.5,0,.76.76,0,0,0-.75.75v0a.76.76,0,0,0-.5.71.87.87,0,0,0,0,.28A.75.75,0,0,0,52,10a.74.74,0,0,0,.19.5A.74.74,0,0,0,52,11a.76.76,0,0,0,.75.75A.87.87,0,0,0,53,11.7a.75.75,0,0,0,.72.55A.7.7,0,0,0,54,12.2a.78.78,0,0,1,.25.55v.5h.5v-.5A.78.78,0,0,1,55,12.2a.7.7,0,0,0,.25.05A.75.75,0,0,0,56,11.7a.87.87,0,0,0,.28.05A.76.76,0,0,0,57,11a.74.74,0,0,0-.19-.5A.74.74,0,0,0,57,10ZM46.5,20a.75.75,0,0,0-.55-.72A.87.87,0,0,0,46,19a.76.76,0,0,0-.5-.71v0a.76.76,0,0,0-.75-.75.75.75,0,0,0-1.5,0,.76.76,0,0,0-.75.75v0A.76.76,0,0,0,42,19a.87.87,0,0,0,0,.28.75.75,0,0,0-.55.72.74.74,0,0,0,.19.5.74.74,0,0,0-.19.5.76.76,0,0,0,.75.75.87.87,0,0,0,.28-.05.75.75,0,0,0,.72.55.7.7,0,0,0,.25-.05.78.78,0,0,1,.25.55v.5h.5v-.5a.78.78,0,0,1,.25-.55.7.7,0,0,0,.25.05.75.75,0,0,0,.72-.55.87.87,0,0,0,.28.05A.76.76,0,0,0,46.5,21a.74.74,0,0,0-.19-.5A.74.74,0,0,0,46.5,20Zm13,5a.75.75,0,0,0-.55-.72A.87.87,0,0,0,59,24a.76.76,0,0,0-.5-.71v0a.76.76,0,0,0-.75-.75.75.75,0,0,0-1.5,0,.76.76,0,0,0-.75.75v0A.76.76,0,0,0,55,24a.87.87,0,0,0,0,.28.75.75,0,0,0-.55.72.74.74,0,0,0,.19.5.74.74,0,0,0-.19.5.76.76,0,0,0,.75.75.87.87,0,0,0,.28-.05.75.75,0,0,0,.72.55.7.7,0,0,0,.25-.05.78.78,0,0,1,.25.55v.5h.5v-.5a.78.78,0,0,1,.25-.55.7.7,0,0,0,.25.05.75.75,0,0,0,.72-.55.87.87,0,0,0,.28.05A.76.76,0,0,0,59.5,26a.74.74,0,0,0-.19-.5A.74.74,0,0,0,59.5,25ZM63.75,1a.74.74,0,0,0-.75.75.74.74,0,0,0-.75.75s0,0,0,0a.74.74,0,0,0-.51.71.82.82,0,0,0,0,.28.73.73,0,0,0-.55.72.75.75,0,0,0,.2.5.73.73,0,0,0-.2.5A.75.75,0,0,0,62,6a.82.82,0,0,0,.28,0A.74.74,0,0,0,63,6.5a.8.8,0,0,0,.26,0A.84.84,0,0,1,63.5,7v.5H64V1A.69.69,0,0,0,63.75,1Zm-25,26a.75.75,0,0,0-.55-.72.87.87,0,0,0,0-.28.76.76,0,0,0-.5-.71v0A.76.76,0,0,0,37,24.5a.75.75,0,0,0-1.5,0,.76.76,0,0,0-.75.75v0a.76.76,0,0,0-.5.71.87.87,0,0,0,0,.28.75.75,0,0,0-.55.72.74.74,0,0,0,.19.5.74.74,0,0,0-.19.5.76.76,0,0,0,.75.75.87.87,0,0,0,.28-.05.75.75,0,0,0,.72.55.7.7,0,0,0,.25-.05.78.78,0,0,1,.25.55v.5h.5v-.5a.78.78,0,0,1,.25-.55.7.7,0,0,0,.25.05.75.75,0,0,0,.72-.55.87.87,0,0,0,.28.05.76.76,0,0,0,.75-.75.74.74,0,0,0-.19-.5A.74.74,0,0,0,38.75,27ZM64,16.35a.74.74,0,0,0-.55-.72.87.87,0,0,0,0-.28.75.75,0,0,0-.5-.71v0a.75.75,0,0,0-.75-.75.75.75,0,1,0-1.5,0,.75.75,0,0,0-.75.75v0a.75.75,0,0,0-.5.71.87.87,0,0,0,0,.28.74.74,0,0,0-.55.72.76.76,0,0,0,.19.5.72.72,0,0,0-.19.5.76.76,0,0,0,.75.75A.67.67,0,0,0,60,18a.75.75,0,0,0,.72.56.7.7,0,0,0,.25-.05.78.78,0,0,1,.25.55v.5h.5v-.5a.78.78,0,0,1,.25-.55.7.7,0,0,0,.25.05A.75.75,0,0,0,63,18a.67.67,0,0,0,.28.06.76.76,0,0,0,.75-.75.72.72,0,0,0-.19-.5A.76.76,0,0,0,64,16.35ZM51.05.25A.64.64,0,0,0,51.2,0H46.3a.64.64,0,0,0,.15.25.73.73,0,0,0-.2.5A.75.75,0,0,0,47,1.5a.82.82,0,0,0,.28-.05A.74.74,0,0,0,48,2,.8.8,0,0,0,48.26,2a.84.84,0,0,1,.24.55V3H49V2.5A.84.84,0,0,1,49.24,2,.8.8,0,0,0,49.5,2a.74.74,0,0,0,.72-.55.82.82,0,0,0,.28.05.75.75,0,0,0,.75-.75A.73.73,0,0,0,51.05.25ZM50.7,31a.82.82,0,0,0,0-.28.74.74,0,0,0-.51-.71s0,0,0,0a.74.74,0,0,0-.75-.75.75.75,0,0,0-1.5,0,.74.74,0,0,0-.75.75s0,0,0,0a.74.74,0,0,0-.51.71.82.82,0,0,0,0,.28.73.73,0,0,0-.55.72.7.7,0,0,0,0,.25h4.9a.7.7,0,0,0,0-.25A.73.73,0,0,0,50.7,31Z"/><path id="exotic_non_random_dense-4" data-name="exotic_non_random_dense" class="cls-2" d="M34.05,36.75a.73.73,0,0,1,.2.5.75.75,0,0,1-.75.75.82.82,0,0,1-.28,0,.74.74,0,0,1-.72.55.8.8,0,0,1-.26,0A.84.84,0,0,0,32,39V33a.75.75,0,0,1,.5.71.74.74,0,0,1,.75.75v0a.74.74,0,0,1,.51.71.82.82,0,0,1,0,.28.73.73,0,0,1,.55.72A.75.75,0,0,1,34.05,36.75Zm8,2.75a.75.75,0,0,0-.55-.72.87.87,0,0,0,0-.28.76.76,0,0,0-.5-.71v0a.76.76,0,0,0-.75-.75.75.75,0,0,0-1.5,0,.76.76,0,0,0-.75.75v0a.76.76,0,0,0-.5.71.87.87,0,0,0,0,.28.75.75,0,0,0-.55.72.74.74,0,0,0,.19.5.74.74,0,0,0-.19.5.76.76,0,0,0,.75.75.87.87,0,0,0,.28,0,.75.75,0,0,0,.72.55.7.7,0,0,0,.25,0,.78.78,0,0,1,.25.55v.5h.5v-.5A.78.78,0,0,1,40,41.7a.7.7,0,0,0,.25,0A.75.75,0,0,0,41,41.2a.87.87,0,0,0,.28,0A.76.76,0,0,0,42,40.5a.74.74,0,0,0-.19-.5A.74.74,0,0,0,42,39.5ZM57,42a.75.75,0,0,0-.55-.72.87.87,0,0,0,0-.28.76.76,0,0,0-.5-.71v0a.76.76,0,0,0-.75-.75.75.75,0,0,0-1.5,0,.76.76,0,0,0-.75.75v0a.76.76,0,0,0-.5.71.87.87,0,0,0,0,.28A.75.75,0,0,0,52,42a.74.74,0,0,0,.19.5A.74.74,0,0,0,52,43a.76.76,0,0,0,.75.75.87.87,0,0,0,.28,0,.75.75,0,0,0,.72.55.7.7,0,0,0,.25,0,.78.78,0,0,1,.25.55v.5h.5v-.5A.78.78,0,0,1,55,44.2a.7.7,0,0,0,.25,0A.75.75,0,0,0,56,43.7a.87.87,0,0,0,.28,0A.76.76,0,0,0,57,43a.74.74,0,0,0-.19-.5A.74.74,0,0,0,57,42ZM46.5,52a.75.75,0,0,0-.55-.72A.87.87,0,0,0,46,51a.76.76,0,0,0-.5-.71v0a.76.76,0,0,0-.75-.75.75.75,0,0,0-1.5,0,.76.76,0,0,0-.75.75v0A.76.76,0,0,0,42,51a.87.87,0,0,0,0,.28.75.75,0,0,0-.55.72.74.74,0,0,0,.19.5.74.74,0,0,0-.19.5.76.76,0,0,0,.75.75.87.87,0,0,0,.28,0,.75.75,0,0,0,.72.55.7.7,0,0,0,.25,0,.78.78,0,0,1,.25.55v.5h.5v-.5a.78.78,0,0,1,.25-.55.7.7,0,0,0,.25,0,.75.75,0,0,0,.72-.55.87.87,0,0,0,.28,0A.76.76,0,0,0,46.5,53a.74.74,0,0,0-.19-.5A.74.74,0,0,0,46.5,52Zm13,5a.75.75,0,0,0-.55-.72A.87.87,0,0,0,59,56a.76.76,0,0,0-.5-.71v0a.76.76,0,0,0-.75-.75.75.75,0,0,0-1.5,0,.76.76,0,0,0-.75.75v0A.76.76,0,0,0,55,56a.87.87,0,0,0,0,.28.75.75,0,0,0-.55.72.74.74,0,0,0,.19.5.74.74,0,0,0-.19.5.76.76,0,0,0,.75.75.87.87,0,0,0,.28,0,.75.75,0,0,0,.72.55.7.7,0,0,0,.25,0,.78.78,0,0,1,.25.55v.5h.5v-.5a.78.78,0,0,1,.25-.55.7.7,0,0,0,.25,0,.75.75,0,0,0,.72-.55.87.87,0,0,0,.28,0A.76.76,0,0,0,59.5,58a.74.74,0,0,0-.19-.5A.74.74,0,0,0,59.5,57Zm4.25-24a.74.74,0,0,0-.75.75.74.74,0,0,0-.75.75v0a.74.74,0,0,0-.51.71.82.82,0,0,0,0,.28.73.73,0,0,0-.55.72.75.75,0,0,0,.2.5.73.73,0,0,0-.2.5A.75.75,0,0,0,62,38a.82.82,0,0,0,.28,0,.74.74,0,0,0,.72.55.8.8,0,0,0,.26,0,.84.84,0,0,1,.24.55v.5H64V33A.69.69,0,0,0,63.75,33Zm-25,26a.75.75,0,0,0-.55-.72.87.87,0,0,0,0-.28.76.76,0,0,0-.5-.71v0A.76.76,0,0,0,37,56.5a.75.75,0,0,0-1.5,0,.76.76,0,0,0-.75.75v0a.76.76,0,0,0-.5.71.87.87,0,0,0,0,.28.75.75,0,0,0-.55.72.74.74,0,0,0,.19.5.74.74,0,0,0-.19.5.76.76,0,0,0,.75.75.87.87,0,0,0,.28,0,.75.75,0,0,0,.72.55.7.7,0,0,0,.25,0,.78.78,0,0,1,.25.55v.5h.5v-.5a.78.78,0,0,1,.25-.55.7.7,0,0,0,.25,0,.75.75,0,0,0,.72-.55.87.87,0,0,0,.28,0,.76.76,0,0,0,.75-.75.74.74,0,0,0-.19-.5A.74.74,0,0,0,38.75,59ZM64,48.35a.74.74,0,0,0-.55-.72.87.87,0,0,0,0-.28.75.75,0,0,0-.5-.71v0a.75.75,0,0,0-.75-.75.75.75,0,1,0-1.5,0,.75.75,0,0,0-.75.75v0a.75.75,0,0,0-.5.71.87.87,0,0,0,0,.28.74.74,0,0,0-.55.72.76.76,0,0,0,.19.5.72.72,0,0,0-.19.5.76.76,0,0,0,.75.75A.67.67,0,0,0,60,50a.75.75,0,0,0,.72.56.7.7,0,0,0,.25-.05.78.78,0,0,1,.25.55v.5h.5v-.5a.78.78,0,0,1,.25-.55.7.7,0,0,0,.25.05A.75.75,0,0,0,63,50a.67.67,0,0,0,.28.06.76.76,0,0,0,.75-.75.72.72,0,0,0-.19-.5A.76.76,0,0,0,64,48.35Zm-13-16.1A.64.64,0,0,0,51.2,32H46.3a.64.64,0,0,0,.15.25.73.73,0,0,0-.2.5.75.75,0,0,0,.75.75.82.82,0,0,0,.28,0A.74.74,0,0,0,48,34a.8.8,0,0,0,.26,0,.84.84,0,0,1,.24.55V35H49v-.5a.84.84,0,0,1,.24-.55.8.8,0,0,0,.26,0,.74.74,0,0,0,.72-.55.82.82,0,0,0,.28,0,.75.75,0,0,0,.75-.75A.73.73,0,0,0,51.05,32.25ZM50.7,63a.82.82,0,0,0,0-.28.74.74,0,0,0-.51-.71v0a.74.74,0,0,0-.75-.75.75.75,0,0,0-1.5,0,.74.74,0,0,0-.75.75v0a.74.74,0,0,0-.51.71.82.82,0,0,0,0,.28.73.73,0,0,0-.55.72.7.7,0,0,0,0,.25h4.9a.7.7,0,0,0,0-.25A.73.73,0,0,0,50.7,63Z"/></g></svg>