<svg id="Sprites" xmlns="http://www.w3.org/2000/svg" viewBox="0 0 64 64"><defs><style>.cls-1{fill:#236035;}</style></defs><path id="exotic_poly_con_grid_sparse" class="cls-1" d="M13,16.73a.52.52,0,0,1-.45.27H9v1H8V17H4.5a.52.52,0,0,1-.45-.27.51.51,0,0,1,0-.52L6.79,12.5H5.5a.5.5,0,0,1-.4-.8L7.5,8.5h-1a.5.5,0,0,1-.42-.78l2-3a.54.54,0,0,1,.84,0l2,3a.5.5,0,0,1-.42.78h-1l2.4,3.2a.5.5,0,0,1-.4.8H10.21l2.69,3.71A.51.51,0,0,1,13,16.73Zm21.29-.52-2.7-3.71h1.29a.5.5,0,0,0,.45-.28.47.47,0,0,0-.05-.52l-2.4-3.2h1a.49.49,0,0,0,.44-.26.51.51,0,0,0,0-.52l-2-3a.53.53,0,0,0-.83,0l-2,3a.5.5,0,0,0,.41.78h1l-2.4,3.2a.51.51,0,0,0,.4.8h1.29l-2.69,3.71a.49.49,0,0,0,0,.52.49.49,0,0,0,.44.27h3.5v1h1V17h3.5a.52.52,0,0,0,.45-.27A.51.51,0,0,0,34.24,16.21Zm21.33,0L52.88,12.5h1.29a.51.51,0,0,0,.4-.8l-2.4-3.2h1a.5.5,0,0,0,.41-.78l-2-3a.53.53,0,0,0-.83,0l-2,3a.51.51,0,0,0,0,.52.49.49,0,0,0,.44.26h1l-2.4,3.2a.47.47,0,0,0-.05.52.5.5,0,0,0,.45.28h1.29l-2.7,3.71a.51.51,0,0,0,0,.52.52.52,0,0,0,.45.27h3.5v1h1V17h3.5a.49.49,0,0,0,.44-.27A.49.49,0,0,0,55.57,16.21Zm-42.67,32L10.21,44.5H11.5a.5.5,0,0,0,.4-.8L9.5,40.5h1a.5.5,0,0,0,.42-.78l-2-3a.54.54,0,0,0-.84,0l-2,3a.5.5,0,0,0,.42.78h1L5.1,43.7a.5.5,0,0,0,.4.8H6.79L4.1,48.21a.51.51,0,0,0,0,.52A.52.52,0,0,0,4.5,49H8v1H9V49h3.5a.52.52,0,0,0,.45-.27A.51.51,0,0,0,12.9,48.21Zm21.34,0-2.7-3.71h1.29a.5.5,0,0,0,.45-.28.47.47,0,0,0-.05-.52l-2.4-3.2h1a.49.49,0,0,0,.44-.26.51.51,0,0,0,0-.52l-2-3a.53.53,0,0,0-.83,0l-2,3a.5.5,0,0,0,.41.78h1l-2.4,3.2a.51.51,0,0,0,.4.8h1.29l-2.69,3.71a.49.49,0,0,0,0,.52.49.49,0,0,0,.44.27h3.5v1h1V49h3.5a.52.52,0,0,0,.45-.27A.51.51,0,0,0,34.24,48.21Zm21.33,0L52.88,44.5h1.29a.51.51,0,0,0,.4-.8l-2.4-3.2h1a.5.5,0,0,0,.41-.78l-2-3a.53.53,0,0,0-.83,0l-2,3a.51.51,0,0,0,0,.52.49.49,0,0,0,.44.26h1l-2.4,3.2a.47.47,0,0,0-.05.52.5.5,0,0,0,.45.28h1.29l-2.7,3.71a.51.51,0,0,0,0,.52.52.52,0,0,0,.45.27h3.5v1h1V49h3.5a.49.49,0,0,0,.44-.27A.49.49,0,0,0,55.57,48.21Z"/></svg>