<svg id="Sprites" xmlns="http://www.w3.org/2000/svg" viewBox="0 0 64 64"><defs><style>.cls-1{fill:none;}.cls-2{fill:#236035;}</style></defs><g id="exotic_non_poly_random_sparse_half"><rect id="bbox_64" class="cls-1" width="64" height="64"/><path id="exotic_non_random_sparse" class="cls-2" d="M9.81,8a.74.74,0,0,1,.19.5.76.76,0,0,1-.75.75A.87.87,0,0,1,9,9.2a.75.75,0,0,1-.72.55A.7.7,0,0,1,8,9.7a.78.78,0,0,0-.25.55v.5h-.5v-.5A.78.78,0,0,0,7,9.7a.7.7,0,0,1-.25.05A.75.75,0,0,1,6,9.2a.87.87,0,0,1-.28.05A.76.76,0,0,1,5,8.5.74.74,0,0,1,5.19,8,.74.74,0,0,1,5,7.5a.75.75,0,0,1,.55-.72.87.87,0,0,1,0-.28A.76.76,0,0,1,6,5.79v0A.76.76,0,0,1,6.75,5a.75.75,0,0,1,1.5,0A.76.76,0,0,1,9,5.75v0a.76.76,0,0,1,.5.71.87.87,0,0,1-.05.28A.75.75,0,0,1,10,7.5.74.74,0,0,1,9.81,8ZM25,10a.75.75,0,0,0-.55-.72A.87.87,0,0,0,24.5,9a.76.76,0,0,0-.5-.71v0a.76.76,0,0,0-.75-.75.75.75,0,0,0-1.5,0,.76.76,0,0,0-.75.75v0a.76.76,0,0,0-.5.71.87.87,0,0,0,.05.28A.75.75,0,0,0,20,10a.74.74,0,0,0,.19.5A.74.74,0,0,0,20,11a.76.76,0,0,0,.75.75A.87.87,0,0,0,21,11.7a.75.75,0,0,0,.72.55A.7.7,0,0,0,22,12.2a.78.78,0,0,1,.25.55v.5h.5v-.5A.78.78,0,0,1,23,12.2a.7.7,0,0,0,.25.05A.75.75,0,0,0,24,11.7a.87.87,0,0,0,.28.05A.76.76,0,0,0,25,11a.74.74,0,0,0-.19-.5A.74.74,0,0,0,25,10ZM14.5,20a.75.75,0,0,0-.55-.72A.87.87,0,0,0,14,19a.76.76,0,0,0-.5-.71v0a.76.76,0,0,0-.75-.75.75.75,0,0,0-1.5,0,.76.76,0,0,0-.75.75v0A.76.76,0,0,0,10,19a.87.87,0,0,0,.05.28A.75.75,0,0,0,9.5,20a.74.74,0,0,0,.19.5.74.74,0,0,0-.19.5.76.76,0,0,0,.75.75.87.87,0,0,0,.28-.05.75.75,0,0,0,.72.55.7.7,0,0,0,.25-.05.78.78,0,0,1,.25.55v.5h.5v-.5a.78.78,0,0,1,.25-.55.7.7,0,0,0,.25.05.75.75,0,0,0,.72-.55.87.87,0,0,0,.28.05A.76.76,0,0,0,14.5,21a.74.74,0,0,0-.19-.5A.74.74,0,0,0,14.5,20Zm13,5a.75.75,0,0,0-.55-.72A.87.87,0,0,0,27,24a.76.76,0,0,0-.5-.71v0a.76.76,0,0,0-.75-.75.75.75,0,0,0-1.5,0,.76.76,0,0,0-.75.75v0A.76.76,0,0,0,23,24a.87.87,0,0,0,.05.28.75.75,0,0,0-.55.72.74.74,0,0,0,.19.5.74.74,0,0,0-.19.5.76.76,0,0,0,.75.75.87.87,0,0,0,.28-.05.75.75,0,0,0,.72.55.7.7,0,0,0,.25-.05.78.78,0,0,1,.25.55v.5h.5v-.5a.78.78,0,0,1,.25-.55.7.7,0,0,0,.25.05.75.75,0,0,0,.72-.55.87.87,0,0,0,.28.05A.76.76,0,0,0,27.5,26a.74.74,0,0,0-.19-.5A.74.74,0,0,0,27.5,25Z"/><path id="exotic_non_random_sparse-2" data-name="exotic_non_random_sparse" class="cls-2" d="M9.81,40a.74.74,0,0,1,.19.5.76.76,0,0,1-.75.75.87.87,0,0,1-.28,0,.75.75,0,0,1-.72.55.7.7,0,0,1-.25,0,.78.78,0,0,0-.25.55v.5h-.5v-.5A.78.78,0,0,0,7,41.7a.7.7,0,0,1-.25,0A.75.75,0,0,1,6,41.2a.87.87,0,0,1-.28,0A.76.76,0,0,1,5,40.5a.74.74,0,0,1,.19-.5A.74.74,0,0,1,5,39.5a.75.75,0,0,1,.55-.72.87.87,0,0,1,0-.28.76.76,0,0,1,.5-.71v0A.76.76,0,0,1,6.75,37a.75.75,0,0,1,1.5,0,.76.76,0,0,1,.75.75v0a.76.76,0,0,1,.5.71.87.87,0,0,1-.05.28.75.75,0,0,1,.55.72A.74.74,0,0,1,9.81,40ZM25,42a.75.75,0,0,0-.55-.72A.87.87,0,0,0,24.5,41a.76.76,0,0,0-.5-.71v0a.76.76,0,0,0-.75-.75.75.75,0,0,0-1.5,0,.76.76,0,0,0-.75.75v0a.76.76,0,0,0-.5.71.87.87,0,0,0,.05.28A.75.75,0,0,0,20,42a.74.74,0,0,0,.19.5A.74.74,0,0,0,20,43a.76.76,0,0,0,.75.75.87.87,0,0,0,.28,0,.75.75,0,0,0,.72.55.7.7,0,0,0,.25,0,.78.78,0,0,1,.25.55v.5h.5v-.5A.78.78,0,0,1,23,44.2a.7.7,0,0,0,.25,0A.75.75,0,0,0,24,43.7a.87.87,0,0,0,.28,0A.76.76,0,0,0,25,43a.74.74,0,0,0-.19-.5A.74.74,0,0,0,25,42ZM14.5,52a.75.75,0,0,0-.55-.72A.87.87,0,0,0,14,51a.76.76,0,0,0-.5-.71v0a.76.76,0,0,0-.75-.75.75.75,0,0,0-1.5,0,.76.76,0,0,0-.75.75v0A.76.76,0,0,0,10,51a.87.87,0,0,0,.05.28A.75.75,0,0,0,9.5,52a.74.74,0,0,0,.19.5.74.74,0,0,0-.19.5.76.76,0,0,0,.75.75.87.87,0,0,0,.28,0,.75.75,0,0,0,.72.55.7.7,0,0,0,.25,0,.78.78,0,0,1,.25.55v.5h.5v-.5a.78.78,0,0,1,.25-.55.7.7,0,0,0,.25,0,.75.75,0,0,0,.72-.55.87.87,0,0,0,.28,0A.76.76,0,0,0,14.5,53a.74.74,0,0,0-.19-.5A.74.74,0,0,0,14.5,52Zm13,5a.75.75,0,0,0-.55-.72A.87.87,0,0,0,27,56a.76.76,0,0,0-.5-.71v0a.76.76,0,0,0-.75-.75.75.75,0,0,0-1.5,0,.76.76,0,0,0-.75.75v0A.76.76,0,0,0,23,56a.87.87,0,0,0,.05.28.75.75,0,0,0-.55.72.74.74,0,0,0,.19.5.74.74,0,0,0-.19.5.76.76,0,0,0,.75.75.87.87,0,0,0,.28,0,.75.75,0,0,0,.72.55.7.7,0,0,0,.25,0,.78.78,0,0,1,.25.55v.5h.5v-.5a.78.78,0,0,1,.25-.55.7.7,0,0,0,.25,0,.75.75,0,0,0,.72-.55.87.87,0,0,0,.28,0A.76.76,0,0,0,27.5,58a.74.74,0,0,0-.19-.5A.74.74,0,0,0,27.5,57Z"/><path id="exotic_non_random_sparse-3" data-name="exotic_non_random_sparse" class="cls-2" d="M41.81,8a.74.74,0,0,1,.19.5.76.76,0,0,1-.75.75A.87.87,0,0,1,41,9.2a.75.75,0,0,1-.72.55A.7.7,0,0,1,40,9.7a.78.78,0,0,0-.25.55v.5h-.5v-.5A.78.78,0,0,0,39,9.7a.7.7,0,0,1-.25.05A.75.75,0,0,1,38,9.2a.87.87,0,0,1-.28.05A.76.76,0,0,1,37,8.5a.74.74,0,0,1,.19-.5A.74.74,0,0,1,37,7.5a.75.75,0,0,1,.55-.72.87.87,0,0,1,0-.28.76.76,0,0,1,.5-.71v0A.76.76,0,0,1,38.75,5a.75.75,0,0,1,1.5,0,.76.76,0,0,1,.75.75v0a.76.76,0,0,1,.5.71.87.87,0,0,1,0,.28A.75.75,0,0,1,42,7.5.74.74,0,0,1,41.81,8ZM57,10a.75.75,0,0,0-.55-.72.87.87,0,0,0,0-.28.76.76,0,0,0-.5-.71v0a.76.76,0,0,0-.75-.75.75.75,0,0,0-1.5,0,.76.76,0,0,0-.75.75v0a.76.76,0,0,0-.5.71.87.87,0,0,0,0,.28A.75.75,0,0,0,52,10a.74.74,0,0,0,.19.5A.74.74,0,0,0,52,11a.76.76,0,0,0,.75.75A.87.87,0,0,0,53,11.7a.75.75,0,0,0,.72.55A.7.7,0,0,0,54,12.2a.78.78,0,0,1,.25.55v.5h.5v-.5A.78.78,0,0,1,55,12.2a.7.7,0,0,0,.25.05A.75.75,0,0,0,56,11.7a.87.87,0,0,0,.28.05A.76.76,0,0,0,57,11a.74.74,0,0,0-.19-.5A.74.74,0,0,0,57,10ZM46.5,20a.75.75,0,0,0-.55-.72A.87.87,0,0,0,46,19a.76.76,0,0,0-.5-.71v0a.76.76,0,0,0-.75-.75.75.75,0,0,0-1.5,0,.76.76,0,0,0-.75.75v0A.76.76,0,0,0,42,19a.87.87,0,0,0,0,.28.75.75,0,0,0-.55.72.74.74,0,0,0,.19.5.74.74,0,0,0-.19.5.76.76,0,0,0,.75.75.87.87,0,0,0,.28-.05.75.75,0,0,0,.72.55.7.7,0,0,0,.25-.05.78.78,0,0,1,.25.55v.5h.5v-.5a.78.78,0,0,1,.25-.55.7.7,0,0,0,.25.05.75.75,0,0,0,.72-.55.87.87,0,0,0,.28.05A.76.76,0,0,0,46.5,21a.74.74,0,0,0-.19-.5A.74.74,0,0,0,46.5,20Zm13,5a.75.75,0,0,0-.55-.72A.87.87,0,0,0,59,24a.76.76,0,0,0-.5-.71v0a.76.76,0,0,0-.75-.75.75.75,0,0,0-1.5,0,.76.76,0,0,0-.75.75v0A.76.76,0,0,0,55,24a.87.87,0,0,0,0,.28.75.75,0,0,0-.55.72.74.74,0,0,0,.19.5.74.74,0,0,0-.19.5.76.76,0,0,0,.75.75.87.87,0,0,0,.28-.05.75.75,0,0,0,.72.55.7.7,0,0,0,.25-.05.78.78,0,0,1,.25.55v.5h.5v-.5a.78.78,0,0,1,.25-.55.7.7,0,0,0,.25.05.75.75,0,0,0,.72-.55.87.87,0,0,0,.28.05A.76.76,0,0,0,59.5,26a.74.74,0,0,0-.19-.5A.74.74,0,0,0,59.5,25Z"/><path id="exotic_non_random_sparse-4" data-name="exotic_non_random_sparse" class="cls-2" d="M41.81,40a.74.74,0,0,1,.19.5.76.76,0,0,1-.75.75.87.87,0,0,1-.28,0,.75.75,0,0,1-.72.55.7.7,0,0,1-.25,0,.78.78,0,0,0-.25.55v.5h-.5v-.5A.78.78,0,0,0,39,41.7a.7.7,0,0,1-.25,0A.75.75,0,0,1,38,41.2a.87.87,0,0,1-.28,0A.76.76,0,0,1,37,40.5a.74.74,0,0,1,.19-.5.74.74,0,0,1-.19-.5.75.75,0,0,1,.55-.72.87.87,0,0,1,0-.28.76.76,0,0,1,.5-.71v0a.76.76,0,0,1,.75-.75.75.75,0,0,1,1.5,0,.76.76,0,0,1,.75.75v0a.76.76,0,0,1,.5.71.87.87,0,0,1,0,.28.75.75,0,0,1,.55.72A.74.74,0,0,1,41.81,40ZM57,42a.75.75,0,0,0-.55-.72.87.87,0,0,0,0-.28.76.76,0,0,0-.5-.71v0a.76.76,0,0,0-.75-.75.75.75,0,0,0-1.5,0,.76.76,0,0,0-.75.75v0a.76.76,0,0,0-.5.71.87.87,0,0,0,0,.28A.75.75,0,0,0,52,42a.74.74,0,0,0,.19.5A.74.74,0,0,0,52,43a.76.76,0,0,0,.75.75.87.87,0,0,0,.28,0,.75.75,0,0,0,.72.55.7.7,0,0,0,.25,0,.78.78,0,0,1,.25.55v.5h.5v-.5A.78.78,0,0,1,55,44.2a.7.7,0,0,0,.25,0A.75.75,0,0,0,56,43.7a.87.87,0,0,0,.28,0A.76.76,0,0,0,57,43a.74.74,0,0,0-.19-.5A.74.74,0,0,0,57,42ZM46.5,52a.75.75,0,0,0-.55-.72A.87.87,0,0,0,46,51a.76.76,0,0,0-.5-.71v0a.76.76,0,0,0-.75-.75.75.75,0,0,0-1.5,0,.76.76,0,0,0-.75.75v0A.76.76,0,0,0,42,51a.87.87,0,0,0,0,.28.75.75,0,0,0-.55.72.74.74,0,0,0,.19.5.74.74,0,0,0-.19.5.76.76,0,0,0,.75.75.87.87,0,0,0,.28,0,.75.75,0,0,0,.72.55.7.7,0,0,0,.25,0,.78.78,0,0,1,.25.55v.5h.5v-.5a.78.78,0,0,1,.25-.55.7.7,0,0,0,.25,0,.75.75,0,0,0,.72-.55.87.87,0,0,0,.28,0A.76.76,0,0,0,46.5,53a.74.74,0,0,0-.19-.5A.74.74,0,0,0,46.5,52Zm13,5a.75.75,0,0,0-.55-.72A.87.87,0,0,0,59,56a.76.76,0,0,0-.5-.71v0a.76.76,0,0,0-.75-.75.75.75,0,0,0-1.5,0,.76.76,0,0,0-.75.75v0A.76.76,0,0,0,55,56a.87.87,0,0,0,0,.28.75.75,0,0,0-.55.72.74.74,0,0,0,.19.5.74.74,0,0,0-.19.5.76.76,0,0,0,.75.75.87.87,0,0,0,.28,0,.75.75,0,0,0,.72.55.7.7,0,0,0,.25,0,.78.78,0,0,1,.25.55v.5h.5v-.5a.78.78,0,0,1,.25-.55.7.7,0,0,0,.25,0,.75.75,0,0,0,.72-.55.87.87,0,0,0,.28,0A.76.76,0,0,0,59.5,58a.74.74,0,0,0-.19-.5A.74.74,0,0,0,59.5,57Z"/></g></svg>