<svg id="Sprites" xmlns="http://www.w3.org/2000/svg" viewBox="0 0 16 16"><defs><style>.cls-1{fill:none;}.cls-2{fill:#fff;}.cls-3{fill:#0984ba;}</style></defs><g id="ferry_route_pnt"><rect id="bbox_16" class="cls-1" width="16" height="16"/><circle class="cls-2" cx="8" cy="8" r="7"/><path d="M8,1a7,7,0,0,0-6.44,9.76,6.24,6.24,0,0,0,.37.73,7,7,0,0,0,12.14,0,6.24,6.24,0,0,0,.37-.73A7,7,0,0,0,8,1ZM8,14a5.91,5.91,0,0,1-4-1.5A5.73,5.73,0,0,1,2.6,10.6,5.81,5.81,0,0,1,2,8,6,6,0,0,1,14,8a5.85,5.85,0,0,1-.6,2.61A6,6,0,0,1,8,14Z"/><path class="cls-3" d="M13.4,10.61A5.94,5.94,0,0,1,12,12.5a1.75,1.75,0,0,1-1.31-.65c-.25-.24-.37-.35-.65-.35s-.4.11-.65.35a1.73,1.73,0,0,1-2.7,0c-.25-.24-.37-.35-.65-.35s-.4.11-.65.35a1.76,1.76,0,0,1-1.24.64H4A5.73,5.73,0,0,1,2.6,10.6a2,2,0,0,1,.68.48l.07.07c.25.24.37.35.65.35a.66.66,0,0,0,.38-.11c.08-.06.16-.14.27-.24a2,2,0,0,1,.74-.54A1.58,1.58,0,0,1,6,10.5a1.74,1.74,0,0,1,1.35.65c.25.24.37.35.65.35s.4-.11.65-.35a2,2,0,0,1,.76-.55,1.69,1.69,0,0,1,.59-.1,1.58,1.58,0,0,1,.61.11,2,2,0,0,1,.74.54c.25.24.37.35.65.35s.4-.11.65-.35l.24-.23A1.51,1.51,0,0,1,13.4,10.61Z"/><path d="M11.5,7.5,11.36,8l-.75,2.63A1.58,1.58,0,0,0,10,10.5a1.69,1.69,0,0,0-.59.1,2,2,0,0,0-.76.55c-.25.24-.37.35-.65.35s-.4-.11-.65-.35A1.74,1.74,0,0,0,6,10.5a1.58,1.58,0,0,0-.61.11L4.64,8,4.5,7.5l1-.29L8,6.5l2.5.71ZM10,4.5H8.5v-1h-1v1H6a.5.5,0,0,0-.5.5V6.7L8,6l2.5.72V5A.5.5,0,0,0,10,4.5Z"/></g></svg>