<svg id="Sprites" xmlns="http://www.w3.org/2000/svg" viewBox="0 0 16 16"><defs><style>.cls-1{fill:none;}.cls-2{fill:#b12221;}</style></defs><g id="geobore_pnt_red_thick"><rect id="bbox_16" class="cls-1" width="16" height="16"/><path id="geobore_red_thick" class="cls-2" d="M13.6,3.82A6,6,0,0,0,12.18,2.4a6.94,6.94,0,0,0-8.36,0A6,6,0,0,0,2.4,3.82a6.94,6.94,0,0,0,0,8.36A6,6,0,0,0,3.82,13.6a6.94,6.94,0,0,0,8.36,0,6,6,0,0,0,1.42-1.42,6.94,6.94,0,0,0,0-8.36ZM8,3a5,5,0,0,1,2.76.83L8,6.59,5.24,3.83A5,5,0,0,1,8,3ZM3,8a5,5,0,0,1,.83-2.76L6.59,8,3.83,10.76A5,5,0,0,1,3,8Zm5,5a5,5,0,0,1-2.76-.83L8,9.41l2.76,2.76A5,5,0,0,1,8,13ZM9.41,8l2.76-2.76a5,5,0,0,1,0,5.52Z"/></g></svg>