<svg id="Sprites" xmlns="http://www.w3.org/2000/svg" viewBox="0 0 16 16"><defs><style>.cls-1{fill:none;}.cls-2{fill:#b12221;}</style></defs><g id="geobore_pnt_red_thin"><rect id="bbox_16" class="cls-1" width="16" height="16"/><path id="geobore_red_thin" class="cls-2" d="M8,1a7,7,0,1,0,7,7A7,7,0,0,0,8,1Zm6,7a6,6,0,0,1-1.42,3.87L8.71,8l3.87-3.87A6,6,0,0,1,14,8ZM11.87,3.42,8,7.29,4.13,3.42a6,6,0,0,1,7.74,0ZM2,8A6,6,0,0,1,3.42,4.13L7.29,8,3.42,11.87A6,6,0,0,1,2,8Zm2.13,4.58L8,8.71l3.87,3.87a6,6,0,0,1-7.74,0Z"/></g></svg>