<svg id="Sprites" xmlns="http://www.w3.org/2000/svg" viewBox="0 0 16 16"><defs><style>.cls-1{fill:#fff;}.cls-2{fill:#236035;}</style></defs><g id="golf_course_pnt_dual_fill"><path class="cls-1" d="M14.5,12.5c0,1.58-4.09,2-6.5,2s-6.5-.42-6.5-2,4.09-2,6.5-2S14.5,10.92,14.5,12.5ZM9,2.5l-.5,3,3.5-1Z"/><path id="golf_course_pnt_dual_hole" class="cls-2" d="M14.5,12.5c0,1.58-4.09,2-6.5,2s-6.5-.42-6.5-2c0-1.24,2.53-1.77,4.79-1.93l-.15,1c-2.21.19-3.51.67-3.65,1,.18.3,2.17,1,5.51,1s5.2-.62,5.48-1c-.24-.33-1.78-.85-4.33-1l.14-1C11.64,10.67,14.5,11.18,14.5,12.5Z"/><path id="golf_course_pnt_dual_flag" d="M13.25,4.73l-4-2.65h0L9.18,2a.29.29,0,0,0-.1,0H8.89l-.09,0a.2.2,0,0,0-.08,0,.6.6,0,0,0-.08.08l-.06.05h0a.41.41,0,0,0,0,.08.25.25,0,0,0,0,.11h0L7,12.43a.48.48,0,0,0,.42.56H7.5A.5.5,0,0,0,8,12.57l1-6.9ZM9.19,4.61l.19-1.26,1.37.92Z"/></g></svg>