<svg id="Sprites" xmlns="http://www.w3.org/2000/svg" viewBox="0 0 16 16"><defs><style>.cls-1{fill:#236035;}</style></defs><path id="golf_course_pnt_green" class="cls-1" d="M14.5,12.5c0,1.58-4.09,2-6.5,2s-6.5-.42-6.5-2c0-1.24,2.53-1.77,4.79-1.93l-.15,1c-2.21.19-3.51.67-3.65,1,.18.3,2.17,1,5.51,1s5.2-.62,5.48-1c-.24-.33-1.78-.85-4.33-1l.14-1C11.64,10.67,14.5,11.18,14.5,12.5ZM9,5.67l-1,6.9A.5.5,0,0,1,7.5,13H7.43A.48.48,0,0,1,7,12.43l1.5-10h0a.25.25,0,0,1,0-.11.41.41,0,0,1,0-.08h0l.06-.05a.6.6,0,0,1,.08-.08.2.2,0,0,1,.08,0l.09,0h.19a.29.29,0,0,1,.1,0l.09,0h0l4,2.65Zm1.72-1.4L9.38,3.35,9.19,4.61Z"/></svg>