<svg id="Sprites" xmlns="http://www.w3.org/2000/svg" viewBox="0 0 16 16"><path d="M8.3,10.5,9,5.67l4.22-.94-4-2.65h0L9.18,2a.29.29,0,0,0-.1,0H8.89l-.09,0a.2.2,0,0,0-.08,0,.6.6,0,0,0-.08.08l-.06.05h0a.41.41,0,0,0,0,.08.25.25,0,0,0,0,.11h0L7.29,10.51c-2.42.08-5.79.56-5.79,2,0,1.58,4.09,2,6.5,2s6.5-.42,6.5-2S10.74,10.54,8.3,10.5Zm.89-5.89.19-1.26,1.37.92ZM8,13.5c-3.34,0-5.33-.66-5.51-1,.16-.34,1.84-.92,4.65-1L7,12.43a.48.48,0,0,0,.42.56H7.5A.5.5,0,0,0,8,12.57l.16-1.07c3.14,0,5.06.63,5.33,1C13.2,12.88,11.23,13.5,8,13.5Z"/></svg>