<svg id="Sprites" xmlns="http://www.w3.org/2000/svg" viewBox="0 0 64 64"><defs><style>.cls-1{fill:none;}</style></defs><g id="gravel_poly_half"><rect id="bbox_64" class="cls-1" width="64" height="64"/><path id="gravel" d="M4.5,6.25a.75.75,0,1,1-.75-.75A.76.76,0,0,1,4.5,6.25ZM27,23a.75.75,0,1,0,.75.75A.76.76,0,0,0,27,23ZM25.25,12.75a.75.75,0,1,0,.75.75A.76.76,0,0,0,25.25,12.75Zm-5.75,12a.75.75,0,1,0,.75.75A.76.76,0,0,0,19.5,24.75Zm-3.25-11.5A.75.75,0,1,0,17,14,.76.76,0,0,0,16.25,13.25ZM11.5,3.75a.75.75,0,1,0,.75.75A.76.76,0,0,0,11.5,3.75ZM4,19.75a.75.75,0,1,0,.75.75A.76.76,0,0,0,4,19.75ZM8.66,30.5a.75.75,0,1,0,.75.75A.76.76,0,0,0,8.66,30.5Zm18.59-29a.75.75,0,1,0,.75.75A.76.76,0,0,0,27.25,1.5ZM9.5,13a1,1,0,1,0,1,1A1,1,0,0,0,9.5,13Zm0,1.75a.75.75,0,1,1,.75-.75A.75.75,0,0,1,9.5,14.75ZM27,23a.75.75,0,1,0,.75.75A.76.76,0,0,0,27,23ZM25.25,12.75a.75.75,0,1,0,.75.75A.76.76,0,0,0,25.25,12.75ZM20,5.25a1,1,0,1,0,1,1A1,1,0,0,0,20,5.25ZM20,7a.75.75,0,1,1,.75-.75A.75.75,0,0,1,20,7ZM11.25,24a1,1,0,1,0,1,1A1,1,0,0,0,11.25,24Zm0,1.75A.75.75,0,1,1,12,25,.75.75,0,0,1,11.25,25.75Zm8.25-1a.75.75,0,1,0,.75.75A.76.76,0,0,0,19.5,24.75Zm-3.25-11.5A.75.75,0,1,0,17,14,.76.76,0,0,0,16.25,13.25Zm5.25,4.5a1,1,0,1,0,1,1A1,1,0,0,0,21.5,17.75Zm0,1.75a.75.75,0,1,1,.75-.75A.75.75,0,0,1,21.5,19.5ZM25.75,0a.75.75,0,0,1-1.5,0H24a1,1,0,0,0,1,1,1,1,0,0,0,1-1Zm-11,20.75a.5.5,0,1,0,.5.5A.5.5,0,0,0,14.75,20.75Zm-4.5-3.25a.5.5,0,1,0,.5.5A.5.5,0,0,0,10.25,17.5Zm6.5-.25a.5.5,0,1,0,.5.5A.5.5,0,0,0,16.75,17.25ZM8,21.5a.5.5,0,1,0,.5.5A.5.5,0,0,0,8,21.5ZM1.5,22.75a.5.5,0,1,0,.5.5A.5.5,0,0,0,1.5,22.75ZM4.75,27a.5.5,0,1,0,.5.5A.5.5,0,0,0,4.75,27Zm6,1.5a.5.5,0,1,0,.5.5A.5.5,0,0,0,10.75,28.5Zm5.25-2a.5.5,0,1,0,.5.5A.5.5,0,0,0,16,26.5Zm3,2.75a.5.5,0,1,0,.5.5A.5.5,0,0,0,19,29.25Zm7.25-.5a.5.5,0,1,0,.5.5A.5.5,0,0,0,26.25,28.75ZM24,24.5a.5.5,0,1,0,.5.5A.5.5,0,0,0,24,24.5ZM24,21a.5.5,0,1,0,.5.5A.5.5,0,0,0,24,21Zm6-1.25a1,1,0,1,0,1,1A1,1,0,0,0,30,19.75Zm0,1.75a.75.75,0,1,1,.75-.75A.75.75,0,0,1,30,21.5Zm-3.75-4.75a.5.5,0,1,0,.5.5A.5.5,0,0,0,26.25,16.75Zm4.25-3.5a.5.5,0,1,0,.5.5A.5.5,0,0,0,30.5,13.25ZM21.25,13a.5.5,0,1,0,.5.5A.5.5,0,0,0,21.25,13ZM18.5,9a.5.5,0,1,0,.5.5A.5.5,0,0,0,18.5,9ZM24,7a.5.5,0,1,0,.5.5A.5.5,0,0,0,24,7Zm3.5,2a.5.5,0,1,0,.5.5A.5.5,0,0,0,27.5,9Zm2.75-4.5a.5.5,0,1,0,.5.5A.5.5,0,0,0,30.25,4.5Zm-12-2a.5.5,0,1,0,.5.5A.5.5,0,0,0,18.25,2.5Zm-4-2.25a.5.5,0,0,0-.5.5.5.5,0,0,0,1,0A.5.5,0,0,0,14.25.25Zm1,6.25a.5.5,0,1,0,.5.5A.5.5,0,0,0,15.25,6.5ZM13.5,10.25a.5.5,0,1,0,.5.5A.5.5,0,0,0,13.5,10.25ZM8.25,8.75a.5.5,0,1,0,.5.5A.5.5,0,0,0,8.25,8.75ZM7.75,4.5a.5.5,0,1,0,.5.5A.5.5,0,0,0,7.75,4.5Zm-3-3.25a1,1,0,1,0,1,1A1,1,0,0,0,4.75,1.25ZM4.75,3a.75.75,0,1,1,.75-.75A.75.75,0,0,1,4.75,3ZM5,11.75a.5.5,0,1,0,.5.5A.5.5,0,0,0,5,11.75ZM5.75,16a.5.5,0,1,0,.5.5A.5.5,0,0,0,5.75,16Zm26-14.5a.49.49,0,0,0,.25.43V1.07A.49.49,0,0,0,31.75,1.5Zm-.25,15a.51.51,0,0,0,.5.5V16A.51.51,0,0,0,31.5,16.5ZM19.25,21.75a.5.5,0,1,0,.5.5A.5.5,0,0,0,19.25,21.75ZM30,31.75a.49.49,0,0,0-.43.25h.86A.49.49,0,0,0,30,31.75Zm.25-6a.5.5,0,1,0,.5.5A.5.5,0,0,0,30.25,25.75ZM3.5,31.5A.51.51,0,0,0,3,32H4A.51.51,0,0,0,3.5,31.5Zm8-27.75a.75.75,0,1,0,.75.75A.76.76,0,0,0,11.5,3.75ZM4,19.75a.75.75,0,1,0,.75.75A.76.76,0,0,0,4,19.75Zm-3.25,8a1,1,0,0,0-.75.34v.66A.74.74,0,0,1,.75,28a.75.75,0,0,1,0,1.5A.75.75,0,0,1,0,28.75v.66a1,1,0,0,0,.75.34,1,1,0,0,0,0-2ZM8.66,30.5a.75.75,0,1,0,.75.75A.76.76,0,0,0,8.66,30.5ZM31.5,10.25a.75.75,0,0,0,.5.7V9.54A.75.75,0,0,0,31.5,10.25ZM27.25,1.5a.75.75,0,1,0,.75.75A.76.76,0,0,0,27.25,1.5Zm-27,8a.69.69,0,0,0-.25,0V11A.7.7,0,0,0,.25,11,.75.75,0,0,0,1,10.25.74.74,0,0,0,.25,9.5ZM.25,1A.45.45,0,0,0,0,1.07v.86A.45.45,0,0,0,.25,2a.51.51,0,0,0,.5-.5A.51.51,0,0,0,.25,1ZM0,16v1a.51.51,0,0,0,.5-.5A.51.51,0,0,0,0,16ZM3,0a.51.51,0,0,0,.5.5A.51.51,0,0,0,4,0ZM30.43,0h-.86a.43.43,0,0,0-.07.25.5.5,0,0,0,1,0A.43.43,0,0,0,30.43,0Zm1.32,28.75a1,1,0,0,0,.25.66V28.09A1,1,0,0,0,31.75,28.75ZM25,31a1,1,0,0,0-1,1h.25a.75.75,0,0,1,1.5,0H26A1,1,0,0,0,25,31Z"/><path id="gravel-2" data-name="gravel" d="M4.5,38.25a.75.75,0,1,1-.75-.75A.76.76,0,0,1,4.5,38.25ZM27,55a.75.75,0,1,0,.75.75A.76.76,0,0,0,27,55ZM25.25,44.75a.75.75,0,1,0,.75.75A.76.76,0,0,0,25.25,44.75Zm-5.75,12a.75.75,0,1,0,.75.75A.76.76,0,0,0,19.5,56.75Zm-3.25-11.5A.75.75,0,1,0,17,46,.76.76,0,0,0,16.25,45.25Zm-4.75-9.5a.75.75,0,1,0,.75.75A.76.76,0,0,0,11.5,35.75ZM4,51.75a.75.75,0,1,0,.75.75A.76.76,0,0,0,4,51.75ZM8.66,62.5a.75.75,0,1,0,.75.75A.76.76,0,0,0,8.66,62.5Zm18.59-29a.75.75,0,1,0,.75.75A.76.76,0,0,0,27.25,33.5ZM9.5,45a1,1,0,1,0,1,1A1,1,0,0,0,9.5,45Zm0,1.75a.75.75,0,1,1,.75-.75A.75.75,0,0,1,9.5,46.75ZM27,55a.75.75,0,1,0,.75.75A.76.76,0,0,0,27,55ZM25.25,44.75a.75.75,0,1,0,.75.75A.76.76,0,0,0,25.25,44.75ZM20,37.25a1,1,0,1,0,1,1A1,1,0,0,0,20,37.25ZM20,39a.75.75,0,1,1,.75-.75A.75.75,0,0,1,20,39ZM11.25,56a1,1,0,1,0,1,1A1,1,0,0,0,11.25,56Zm0,1.75A.75.75,0,1,1,12,57,.75.75,0,0,1,11.25,57.75Zm8.25-1a.75.75,0,1,0,.75.75A.76.76,0,0,0,19.5,56.75Zm-3.25-11.5A.75.75,0,1,0,17,46,.76.76,0,0,0,16.25,45.25Zm5.25,4.5a1,1,0,1,0,1,1A1,1,0,0,0,21.5,49.75Zm0,1.75a.75.75,0,1,1,.75-.75A.75.75,0,0,1,21.5,51.5ZM25.75,32a.75.75,0,0,1-1.5,0H24a1,1,0,0,0,2,0Zm-11,20.75a.5.5,0,1,0,.5.5A.5.5,0,0,0,14.75,52.75Zm-4.5-3.25a.5.5,0,1,0,.5.5A.5.5,0,0,0,10.25,49.5Zm6.5-.25a.5.5,0,1,0,.5.5A.5.5,0,0,0,16.75,49.25ZM8,53.5a.5.5,0,1,0,.5.5A.5.5,0,0,0,8,53.5ZM1.5,54.75a.5.5,0,1,0,.5.5A.5.5,0,0,0,1.5,54.75ZM4.75,59a.5.5,0,1,0,.5.5A.5.5,0,0,0,4.75,59Zm6,1.5a.5.5,0,1,0,.5.5A.5.5,0,0,0,10.75,60.5Zm5.25-2a.5.5,0,1,0,.5.5A.5.5,0,0,0,16,58.5Zm3,2.75a.5.5,0,1,0,.5.5A.5.5,0,0,0,19,61.25Zm7.25-.5a.5.5,0,1,0,.5.5A.5.5,0,0,0,26.25,60.75ZM24,56.5a.5.5,0,1,0,.5.5A.5.5,0,0,0,24,56.5ZM24,53a.5.5,0,1,0,.5.5A.5.5,0,0,0,24,53Zm6-1.25a1,1,0,1,0,1,1A1,1,0,0,0,30,51.75Zm0,1.75a.75.75,0,1,1,.75-.75A.75.75,0,0,1,30,53.5Zm-3.75-4.75a.5.5,0,1,0,.5.5A.5.5,0,0,0,26.25,48.75Zm4.25-3.5a.5.5,0,1,0,.5.5A.5.5,0,0,0,30.5,45.25ZM21.25,45a.5.5,0,1,0,.5.5A.5.5,0,0,0,21.25,45ZM18.5,41a.5.5,0,1,0,.5.5A.5.5,0,0,0,18.5,41ZM24,39a.5.5,0,1,0,.5.5A.5.5,0,0,0,24,39Zm3.5,2a.5.5,0,1,0,.5.5A.5.5,0,0,0,27.5,41Zm2.75-4.5a.5.5,0,1,0,.5.5A.5.5,0,0,0,30.25,36.5Zm-12-2a.5.5,0,1,0,.5.5A.5.5,0,0,0,18.25,34.5Zm-4-2.25a.5.5,0,1,0,.5.5A.5.5,0,0,0,14.25,32.25Zm1,6.25a.5.5,0,1,0,.5.5A.5.5,0,0,0,15.25,38.5ZM13.5,42.25a.5.5,0,1,0,.5.5A.5.5,0,0,0,13.5,42.25Zm-5.25-1.5a.5.5,0,1,0,.5.5A.5.5,0,0,0,8.25,40.75Zm-.5-4.25a.5.5,0,1,0,.5.5A.5.5,0,0,0,7.75,36.5Zm-3-3.25a1,1,0,1,0,1,1A1,1,0,0,0,4.75,33.25Zm0,1.75a.75.75,0,1,1,.75-.75A.75.75,0,0,1,4.75,35ZM5,43.75a.5.5,0,1,0,.5.5A.5.5,0,0,0,5,43.75ZM5.75,48a.5.5,0,1,0,.5.5A.5.5,0,0,0,5.75,48Zm26-14.5a.49.49,0,0,0,.25.43v-.86A.49.49,0,0,0,31.75,33.5Zm-.25,15a.51.51,0,0,0,.5.5V48A.51.51,0,0,0,31.5,48.5ZM19.25,53.75a.5.5,0,1,0,.5.5A.5.5,0,0,0,19.25,53.75ZM30,63.75a.49.49,0,0,0-.43.25h.86A.49.49,0,0,0,30,63.75Zm.25-6a.5.5,0,1,0,.5.5A.5.5,0,0,0,30.25,57.75ZM3.5,63.5A.51.51,0,0,0,3,64H4A.51.51,0,0,0,3.5,63.5Zm8-27.75a.75.75,0,1,0,.75.75A.76.76,0,0,0,11.5,35.75ZM4,51.75a.75.75,0,1,0,.75.75A.76.76,0,0,0,4,51.75Zm-3.25,8a1,1,0,0,0-.75.34v.66A.74.74,0,0,1,.75,60a.75.75,0,0,1,0,1.5A.75.75,0,0,1,0,60.75v.66a1,1,0,0,0,.75.34,1,1,0,0,0,0-2ZM8.66,62.5a.75.75,0,1,0,.75.75A.76.76,0,0,0,8.66,62.5ZM31.5,42.25a.75.75,0,0,0,.5.7V41.54A.75.75,0,0,0,31.5,42.25ZM27.25,33.5a.75.75,0,1,0,.75.75A.76.76,0,0,0,27.25,33.5Zm-27,8a.69.69,0,0,0-.25,0V43a.7.7,0,0,0,.25,0A.75.75,0,0,0,1,42.25.74.74,0,0,0,.25,41.5Zm0-8.5a.45.45,0,0,0-.25.07v.86A.45.45,0,0,0,.25,34a.5.5,0,0,0,0-1ZM0,48v1a.51.51,0,0,0,.5-.5A.51.51,0,0,0,0,48ZM3,32a.5.5,0,0,0,1,0Zm27.43,0h-.86a.43.43,0,0,0-.07.25.5.5,0,0,0,1,0A.43.43,0,0,0,30.43,32Zm1.32,28.75a1,1,0,0,0,.25.66V60.09A1,1,0,0,0,31.75,60.75ZM25,63a1,1,0,0,0-1,1h.25a.75.75,0,0,1,1.5,0H26A1,1,0,0,0,25,63Z"/><path id="gravel-3" data-name="gravel" d="M36.5,6.25a.75.75,0,1,1-.75-.75A.76.76,0,0,1,36.5,6.25ZM59,23a.75.75,0,1,0,.75.75A.76.76,0,0,0,59,23ZM57.25,12.75a.75.75,0,1,0,.75.75A.76.76,0,0,0,57.25,12.75Zm-5.75,12a.75.75,0,1,0,.75.75A.76.76,0,0,0,51.5,24.75Zm-3.25-11.5A.75.75,0,1,0,49,14,.76.76,0,0,0,48.25,13.25ZM43.5,3.75a.75.75,0,1,0,.75.75A.76.76,0,0,0,43.5,3.75Zm-7.5,16a.75.75,0,1,0,.75.75A.76.76,0,0,0,36,19.75ZM40.66,30.5a.75.75,0,1,0,.75.75A.76.76,0,0,0,40.66,30.5Zm18.59-29a.75.75,0,1,0,.75.75A.76.76,0,0,0,59.25,1.5ZM41.5,13a1,1,0,1,0,1,1A1,1,0,0,0,41.5,13Zm0,1.75a.75.75,0,1,1,.75-.75A.75.75,0,0,1,41.5,14.75ZM59,23a.75.75,0,1,0,.75.75A.76.76,0,0,0,59,23ZM57.25,12.75a.75.75,0,1,0,.75.75A.76.76,0,0,0,57.25,12.75ZM52,5.25a1,1,0,1,0,1,1A1,1,0,0,0,52,5.25ZM52,7a.75.75,0,1,1,.75-.75A.75.75,0,0,1,52,7ZM43.25,24a1,1,0,1,0,1,1A1,1,0,0,0,43.25,24Zm0,1.75A.75.75,0,1,1,44,25,.75.75,0,0,1,43.25,25.75Zm8.25-1a.75.75,0,1,0,.75.75A.76.76,0,0,0,51.5,24.75Zm-3.25-11.5A.75.75,0,1,0,49,14,.76.76,0,0,0,48.25,13.25Zm5.25,4.5a1,1,0,1,0,1,1A1,1,0,0,0,53.5,17.75Zm0,1.75a.75.75,0,1,1,.75-.75A.75.75,0,0,1,53.5,19.5ZM57.75,0a.75.75,0,0,1-1.5,0H56a1,1,0,0,0,1,1,1,1,0,0,0,1-1Zm-11,20.75a.5.5,0,1,0,.5.5A.5.5,0,0,0,46.75,20.75Zm-4.5-3.25a.5.5,0,1,0,.5.5A.5.5,0,0,0,42.25,17.5Zm6.5-.25a.5.5,0,1,0,.5.5A.5.5,0,0,0,48.75,17.25ZM40,21.5a.5.5,0,1,0,.5.5A.5.5,0,0,0,40,21.5Zm-6.5,1.25a.5.5,0,1,0,.5.5A.5.5,0,0,0,33.5,22.75ZM36.75,27a.5.5,0,1,0,.5.5A.5.5,0,0,0,36.75,27Zm6,1.5a.5.5,0,1,0,.5.5A.5.5,0,0,0,42.75,28.5Zm5.25-2a.5.5,0,1,0,.5.5A.5.5,0,0,0,48,26.5Zm3,2.75a.5.5,0,1,0,.5.5A.5.5,0,0,0,51,29.25Zm7.25-.5a.5.5,0,1,0,.5.5A.5.5,0,0,0,58.25,28.75ZM56,24.5a.5.5,0,1,0,.5.5A.5.5,0,0,0,56,24.5ZM56,21a.5.5,0,1,0,.5.5A.5.5,0,0,0,56,21Zm6-1.25a1,1,0,1,0,1,1A1,1,0,0,0,62,19.75Zm0,1.75a.75.75,0,1,1,.75-.75A.75.75,0,0,1,62,21.5Zm-3.75-4.75a.5.5,0,1,0,.5.5A.5.5,0,0,0,58.25,16.75Zm4.25-3.5a.5.5,0,1,0,.5.5A.5.5,0,0,0,62.5,13.25ZM53.25,13a.5.5,0,1,0,.5.5A.5.5,0,0,0,53.25,13ZM50.5,9a.5.5,0,1,0,.5.5A.5.5,0,0,0,50.5,9ZM56,7a.5.5,0,1,0,.5.5A.5.5,0,0,0,56,7Zm3.5,2a.5.5,0,1,0,.5.5A.5.5,0,0,0,59.5,9Zm2.75-4.5a.5.5,0,1,0,.5.5A.5.5,0,0,0,62.25,4.5Zm-12-2a.5.5,0,1,0,.5.5A.5.5,0,0,0,50.25,2.5Zm-4-2.25a.5.5,0,0,0-.5.5.5.5,0,0,0,1,0A.5.5,0,0,0,46.25.25Zm1,6.25a.5.5,0,1,0,.5.5A.5.5,0,0,0,47.25,6.5ZM45.5,10.25a.5.5,0,1,0,.5.5A.5.5,0,0,0,45.5,10.25Zm-5.25-1.5a.5.5,0,1,0,.5.5A.5.5,0,0,0,40.25,8.75Zm-.5-4.25a.5.5,0,1,0,.5.5A.5.5,0,0,0,39.75,4.5Zm-3-3.25a1,1,0,1,0,1,1A1,1,0,0,0,36.75,1.25Zm0,1.75a.75.75,0,1,1,.75-.75A.75.75,0,0,1,36.75,3ZM37,11.75a.5.5,0,1,0,.5.5A.5.5,0,0,0,37,11.75ZM37.75,16a.5.5,0,1,0,.5.5A.5.5,0,0,0,37.75,16Zm26-14.5a.49.49,0,0,0,.25.43V1.07A.49.49,0,0,0,63.75,1.5Zm-.25,15a.51.51,0,0,0,.5.5V16A.51.51,0,0,0,63.5,16.5ZM51.25,21.75a.5.5,0,1,0,.5.5A.5.5,0,0,0,51.25,21.75ZM62,31.75a.49.49,0,0,0-.43.25h.86A.49.49,0,0,0,62,31.75Zm.25-6a.5.5,0,1,0,.5.5A.5.5,0,0,0,62.25,25.75ZM35.5,31.5a.51.51,0,0,0-.5.5h1A.51.51,0,0,0,35.5,31.5Zm8-27.75a.75.75,0,1,0,.75.75A.76.76,0,0,0,43.5,3.75Zm-7.5,16a.75.75,0,1,0,.75.75A.76.76,0,0,0,36,19.75Zm-3.25,8a1,1,0,0,0-.75.34v.66a.75.75,0,1,1,.75.75.74.74,0,0,1-.75-.75v.66a1,1,0,0,0,.75.34,1,1,0,0,0,0-2Zm7.91,2.75a.75.75,0,1,0,.75.75A.76.76,0,0,0,40.66,30.5ZM63.5,10.25a.75.75,0,0,0,.5.7V9.54A.75.75,0,0,0,63.5,10.25ZM59.25,1.5a.75.75,0,1,0,.75.75A.76.76,0,0,0,59.25,1.5Zm-27,8a.69.69,0,0,0-.25,0V11a.7.7,0,0,0,.25.05.75.75,0,0,0,0-1.5Zm0-8.5a.45.45,0,0,0-.25.07v.86a.45.45,0,0,0,.25.07.51.51,0,0,0,.5-.5A.51.51,0,0,0,32.25,1ZM32,16v1a.5.5,0,0,0,0-1ZM35,0a.51.51,0,0,0,.5.5A.51.51,0,0,0,36,0ZM62.43,0h-.86a.43.43,0,0,0-.07.25.5.5,0,0,0,1,0A.43.43,0,0,0,62.43,0Zm1.32,28.75a1,1,0,0,0,.25.66V28.09A1,1,0,0,0,63.75,28.75ZM57,31a1,1,0,0,0-1,1h.25a.75.75,0,0,1,1.5,0H58A1,1,0,0,0,57,31Z"/><path id="gravel-4" data-name="gravel" d="M36.5,38.25a.75.75,0,1,1-.75-.75A.76.76,0,0,1,36.5,38.25ZM59,55a.75.75,0,1,0,.75.75A.76.76,0,0,0,59,55ZM57.25,44.75a.75.75,0,1,0,.75.75A.76.76,0,0,0,57.25,44.75Zm-5.75,12a.75.75,0,1,0,.75.75A.76.76,0,0,0,51.5,56.75Zm-3.25-11.5A.75.75,0,1,0,49,46,.76.76,0,0,0,48.25,45.25Zm-4.75-9.5a.75.75,0,1,0,.75.75A.76.76,0,0,0,43.5,35.75Zm-7.5,16a.75.75,0,1,0,.75.75A.76.76,0,0,0,36,51.75ZM40.66,62.5a.75.75,0,1,0,.75.75A.76.76,0,0,0,40.66,62.5Zm18.59-29a.75.75,0,1,0,.75.75A.76.76,0,0,0,59.25,33.5ZM41.5,45a1,1,0,1,0,1,1A1,1,0,0,0,41.5,45Zm0,1.75a.75.75,0,1,1,.75-.75A.75.75,0,0,1,41.5,46.75ZM59,55a.75.75,0,1,0,.75.75A.76.76,0,0,0,59,55ZM57.25,44.75a.75.75,0,1,0,.75.75A.76.76,0,0,0,57.25,44.75ZM52,37.25a1,1,0,1,0,1,1A1,1,0,0,0,52,37.25ZM52,39a.75.75,0,1,1,.75-.75A.75.75,0,0,1,52,39ZM43.25,56a1,1,0,1,0,1,1A1,1,0,0,0,43.25,56Zm0,1.75A.75.75,0,1,1,44,57,.75.75,0,0,1,43.25,57.75Zm8.25-1a.75.75,0,1,0,.75.75A.76.76,0,0,0,51.5,56.75Zm-3.25-11.5A.75.75,0,1,0,49,46,.76.76,0,0,0,48.25,45.25Zm5.25,4.5a1,1,0,1,0,1,1A1,1,0,0,0,53.5,49.75Zm0,1.75a.75.75,0,1,1,.75-.75A.75.75,0,0,1,53.5,51.5ZM57.75,32a.75.75,0,0,1-1.5,0H56a1,1,0,0,0,2,0Zm-11,20.75a.5.5,0,1,0,.5.5A.5.5,0,0,0,46.75,52.75Zm-4.5-3.25a.5.5,0,1,0,.5.5A.5.5,0,0,0,42.25,49.5Zm6.5-.25a.5.5,0,1,0,.5.5A.5.5,0,0,0,48.75,49.25ZM40,53.5a.5.5,0,1,0,.5.5A.5.5,0,0,0,40,53.5Zm-6.5,1.25a.5.5,0,1,0,.5.5A.5.5,0,0,0,33.5,54.75ZM36.75,59a.5.5,0,1,0,.5.5A.5.5,0,0,0,36.75,59Zm6,1.5a.5.5,0,1,0,.5.5A.5.5,0,0,0,42.75,60.5Zm5.25-2a.5.5,0,1,0,.5.5A.5.5,0,0,0,48,58.5Zm3,2.75a.5.5,0,1,0,.5.5A.5.5,0,0,0,51,61.25Zm7.25-.5a.5.5,0,1,0,.5.5A.5.5,0,0,0,58.25,60.75ZM56,56.5a.5.5,0,1,0,.5.5A.5.5,0,0,0,56,56.5ZM56,53a.5.5,0,1,0,.5.5A.5.5,0,0,0,56,53Zm6-1.25a1,1,0,1,0,1,1A1,1,0,0,0,62,51.75Zm0,1.75a.75.75,0,1,1,.75-.75A.75.75,0,0,1,62,53.5Zm-3.75-4.75a.5.5,0,1,0,.5.5A.5.5,0,0,0,58.25,48.75Zm4.25-3.5a.5.5,0,1,0,.5.5A.5.5,0,0,0,62.5,45.25ZM53.25,45a.5.5,0,1,0,.5.5A.5.5,0,0,0,53.25,45ZM50.5,41a.5.5,0,1,0,.5.5A.5.5,0,0,0,50.5,41ZM56,39a.5.5,0,1,0,.5.5A.5.5,0,0,0,56,39Zm3.5,2a.5.5,0,1,0,.5.5A.5.5,0,0,0,59.5,41Zm2.75-4.5a.5.5,0,1,0,.5.5A.5.5,0,0,0,62.25,36.5Zm-12-2a.5.5,0,1,0,.5.5A.5.5,0,0,0,50.25,34.5Zm-4-2.25a.5.5,0,1,0,.5.5A.5.5,0,0,0,46.25,32.25Zm1,6.25a.5.5,0,1,0,.5.5A.5.5,0,0,0,47.25,38.5ZM45.5,42.25a.5.5,0,1,0,.5.5A.5.5,0,0,0,45.5,42.25Zm-5.25-1.5a.5.5,0,1,0,.5.5A.5.5,0,0,0,40.25,40.75Zm-.5-4.25a.5.5,0,1,0,.5.5A.5.5,0,0,0,39.75,36.5Zm-3-3.25a1,1,0,1,0,1,1A1,1,0,0,0,36.75,33.25Zm0,1.75a.75.75,0,1,1,.75-.75A.75.75,0,0,1,36.75,35ZM37,43.75a.5.5,0,1,0,.5.5A.5.5,0,0,0,37,43.75ZM37.75,48a.5.5,0,1,0,.5.5A.5.5,0,0,0,37.75,48Zm26-14.5a.49.49,0,0,0,.25.43v-.86A.49.49,0,0,0,63.75,33.5Zm-.25,15a.51.51,0,0,0,.5.5V48A.51.51,0,0,0,63.5,48.5ZM51.25,53.75a.5.5,0,1,0,.5.5A.5.5,0,0,0,51.25,53.75ZM62,63.75a.49.49,0,0,0-.43.25h.86A.49.49,0,0,0,62,63.75Zm.25-6a.5.5,0,1,0,.5.5A.5.5,0,0,0,62.25,57.75ZM35.5,63.5a.51.51,0,0,0-.5.5h1A.51.51,0,0,0,35.5,63.5Zm8-27.75a.75.75,0,1,0,.75.75A.76.76,0,0,0,43.5,35.75Zm-7.5,16a.75.75,0,1,0,.75.75A.76.76,0,0,0,36,51.75Zm-3.25,8a1,1,0,0,0-.75.34v.66a.75.75,0,1,1,.75.75.74.74,0,0,1-.75-.75v.66a1,1,0,0,0,.75.34,1,1,0,0,0,0-2Zm7.91,2.75a.75.75,0,1,0,.75.75A.76.76,0,0,0,40.66,62.5ZM63.5,42.25a.75.75,0,0,0,.5.7V41.54A.75.75,0,0,0,63.5,42.25ZM59.25,33.5a.75.75,0,1,0,.75.75A.76.76,0,0,0,59.25,33.5Zm-27,8a.69.69,0,0,0-.25,0V43a.7.7,0,0,0,.25,0,.75.75,0,0,0,0-1.5Zm0-8.5a.45.45,0,0,0-.25.07v.86a.45.45,0,0,0,.25.07.5.5,0,0,0,0-1ZM32,48v1a.5.5,0,0,0,0-1Zm3-16a.5.5,0,0,0,1,0Zm27.43,0h-.86a.43.43,0,0,0-.07.25.5.5,0,0,0,1,0A.43.43,0,0,0,62.43,32Zm1.32,28.75a1,1,0,0,0,.25.66V60.09A1,1,0,0,0,63.75,60.75ZM57,63a1,1,0,0,0-1,1h.25a.75.75,0,0,1,1.5,0H58A1,1,0,0,0,57,63Z"/></g></svg>