<svg id="Sprites" xmlns="http://www.w3.org/2000/svg" viewBox="0 0 16 16"><defs><style>.cls-1{fill:none;}.cls-2{fill:#b12221;}.cls-3{fill:#fff;}</style></defs><g id="highway_standard_pnt_red"><rect id="bbox_16" class="cls-1" width="16" height="16"/><path id="highway_standard_fill" class="cls-2" d="M14,5.82A8.51,8.51,0,0,1,8,14,8.51,8.51,0,0,1,2,5.82,8.55,8.55,0,0,1,2.9,2H13.1A8.55,8.55,0,0,1,14,5.82Z"/><path id="highway_standard_line" class="cls-3" d="M13.69,1s-1.27,0-2.95,0H2.31A9.52,9.52,0,0,0,8,15,9.52,9.52,0,0,0,13.69,1ZM10,13.07A8.44,8.44,0,0,1,8,14,8.51,8.51,0,0,1,2,5.82,8.55,8.55,0,0,1,2.9,2H13.1A8.55,8.55,0,0,1,14,5.82,8.46,8.46,0,0,1,10,13.07Z"/></g></svg>