<svg id="Sprites" xmlns="http://www.w3.org/2000/svg" viewBox="0 0 24 16"><defs><style>.cls-1{fill:none;}.cls-2{fill:#b12221;}.cls-3{fill:#fff;}</style></defs><g id="highway_wide_pnt_red"><rect id="bbox_16" class="cls-1" width="24" height="16"/><path id="highway_wide_fill" class="cls-2" d="M22,5.82c0,2.86-2.48,5.6-6.47,7.17A18.71,18.71,0,0,1,12,14a18.71,18.71,0,0,1-3.53-1C4.48,11.42,2,8.68,2,5.82A6,6,0,0,1,3.51,2h17A6,6,0,0,1,22,5.82Z"/><path id="highway_wide_line" class="cls-3" d="M20.94,1H3.06A7.1,7.1,0,0,0,1,5.82c0,3.43,2.84,6.43,7.1,8.1A20.28,20.28,0,0,0,12,15a20.28,20.28,0,0,0,3.9-1.08c4.26-1.67,7.1-4.67,7.1-8.1A7.1,7.1,0,0,0,20.94,1ZM15.53,13A18.71,18.71,0,0,1,12,14a18.71,18.71,0,0,1-3.53-1C4.48,11.42,2,8.68,2,5.82A6,6,0,0,1,3.51,2h17A6,6,0,0,1,22,5.82C22,8.68,19.52,11.42,15.53,13Z"/></g></svg>