<svg id="Sprites" xmlns="http://www.w3.org/2000/svg" viewBox="0 0 16 16"><defs><style>.cls-1{fill:none;}.cls-2{fill:#fff;}</style></defs><g id="landfill_pnt"><rect id="bbox_16" class="cls-1" width="16" height="16"/><circle class="cls-2" cx="8" cy="8" r="7.5"/><path d="M8,15.5A7.5,7.5,0,1,1,15.5,8,7.5,7.5,0,0,1,8,15.5Zm0-14A6.5,6.5,0,1,0,14.5,8,6.51,6.51,0,0,0,8,1.5Z"/><path d="M6.48,10.35a.77.77,0,0,1,0,.15.75.75,0,0,1-.75.75.7.7,0,0,1-.5-.2A.73.73,0,0,1,5,10.5a.7.7,0,0,1,0-.25.73.73,0,0,1,.54-.48h0l.15,0a.76.76,0,0,1,.52.21.85.85,0,0,1,.14.19.42.42,0,0,1,0,.1A.17.17,0,0,1,6.48,10.35Zm.77-.6a.76.76,0,0,0-.52.21.7.7,0,0,0-.13.17.61.61,0,0,0,0,.12l0,.1a.77.77,0,0,0,0,.15.75.75,0,0,0,.75.75A.76.76,0,0,0,8,10.5a.7.7,0,0,0,0-.25A.75.75,0,0,0,7.25,9.75Zm5.5-1.25V10a.25.25,0,0,1-.25.25h-.16a1.12,1.12,0,0,0-2.18,0H10A.25.25,0,0,1,9.75,10a.25.25,0,0,1-.25.25H8.34a1.12,1.12,0,0,0-1.09-.88,1.08,1.08,0,0,0-.75.3,1.08,1.08,0,0,0-.75-.3h0l-.56.18a1.12,1.12,0,0,0-.48.7H4a.24.24,0,0,1-.22-.14l-.5-1a.25.25,0,0,1,0-.19l1-3a.26.26,0,0,1,.24-.17H12a.25.25,0,0,1,.25.25v.5a.25.25,0,0,1-.25.25h-.5a.26.26,0,0,1,.21.11l1,1.5A.23.23,0,0,1,12.75,8.5ZM12,8.5,11,7h-.5V8.5Zm-.1,1.65-.06-.1a.27.27,0,0,0-.07-.08l-.13-.1L11.5,9.8a.19.19,0,0,0-.1,0l-.15,0-.15,0a.19.19,0,0,0-.1,0l-.14.07-.13.1a.27.27,0,0,0-.07.08l-.06.1,0,.1a.7.7,0,0,0-.05.25.75.75,0,0,0,1.5,0,.7.7,0,0,0-.05-.25Z"/></g></svg>