<svg id="Sprites" xmlns="http://www.w3.org/2000/svg" viewBox="0 0 16 16"><defs><style>.cls-1{fill:none;}.cls-2{fill:#fff;}</style></defs><g id="landfill_pnt"><rect id="bbox_16" class="cls-1" width="16" height="16"/><circle class="cls-2" cx="8" cy="8" r="7.5"/><path d="M6.48,10.35a.17.17,0,0,0,0-.1.42.42,0,0,0,0-.1A.85.85,0,0,0,6.27,10a.76.76,0,0,0-.52-.21l-.15,0h0a.73.73,0,0,0-.54.48.7.7,0,0,0,0,.25.73.73,0,0,0,.25.55.7.7,0,0,0,.5.2.75.75,0,0,0,.75-.75A.77.77,0,0,0,6.48,10.35ZM8,10.25a.75.75,0,0,0-.7-.5.76.76,0,0,0-.52.21.7.7,0,0,0-.13.17.61.61,0,0,0,0,.12l0,.1a.77.77,0,0,0,0,.15.75.75,0,0,0,.75.75A.76.76,0,0,0,8,10.5.7.7,0,0,0,8,10.25Zm4.76-1.89-1-1.5a.26.26,0,0,0-.21-.11H12a.25.25,0,0,0,.25-.25V6A.25.25,0,0,0,12,5.75H6.69l-1,3.62h0a1.08,1.08,0,0,1,.75.3,1.08,1.08,0,0,1,.75-.3,1.12,1.12,0,0,1,1.09.88H9.5A.25.25,0,0,0,9.75,10a.25.25,0,0,0,.25.25h.16a1.12,1.12,0,0,1,2.18,0h.16a.25.25,0,0,0,.25-.25V8.5A.23.23,0,0,0,12.71,8.36ZM10.5,8.5V7H11l1,1.5ZM12,10.25l0-.1-.06-.1a.27.27,0,0,0-.07-.08l-.13-.1L11.5,9.8a.19.19,0,0,0-.1,0l-.15,0-.15,0a.19.19,0,0,0-.1,0l-.14.07-.13.1a.27.27,0,0,0-.07.08l-.06.1,0,.1a.7.7,0,0,0-.05.25.75.75,0,0,0,1.5,0A.7.7,0,0,0,12,10.25ZM4.5,5.75a.26.26,0,0,0-.24.17l-1,3a.25.25,0,0,0,0,.19l.5,1a.24.24,0,0,0,.22.14h.66a1.12,1.12,0,0,1,.48-.7l1-3.8Z"/><path d="M8,15.5A7.5,7.5,0,1,1,15.5,8,7.5,7.5,0,0,1,8,15.5Zm0-14A6.5,6.5,0,1,0,14.5,8,6.51,6.51,0,0,0,8,1.5Z"/></g></svg>