<svg id="Sprites" xmlns="http://www.w3.org/2000/svg" viewBox="0 0 16 16"><path d="M11,4.5a.51.51,0,0,1,.28-.45l2-1a.5.5,0,1,1,.44.9l-1.1.55,1.1.55a.5.5,0,0,1-.22,1,.54.54,0,0,1-.22,0l-2-1A.51.51,0,0,1,11,4.5ZM2.05,5.72A.5.5,0,0,0,2.5,6a.54.54,0,0,0,.22,0l2-1a.5.5,0,0,0,0-.9l-2-1a.5.5,0,1,0-.44.9l1.1.55-1.1.55A.51.51,0,0,0,2.05,5.72ZM14,12a.5.5,0,0,1-.5.5h-1a.44.44,0,0,1-.06.25A.5.5,0,0,1,12,13a.45.45,0,0,1-.25-.07,5.64,5.64,0,0,1-.65-.43H4.9a5.64,5.64,0,0,1-.65.43A.45.45,0,0,1,4,13a.5.5,0,0,1-.43-.25.44.44,0,0,1-.06-.25h-1a.5.5,0,0,1,0-1h2c.78-.72,1-1.66,1-4V7h-1V6h1V5a2.5,2.5,0,0,1,5,0V6h1V7h-1v.5c0,2.34.18,3.28,1,4h2A.5.5,0,0,1,14,12ZM6.5,6h3V5a1.5,1.5,0,0,0-3,0Zm-.67,5.5h4.34a7.76,7.76,0,0,1-.67-4V7h-3v.5A7.76,7.76,0,0,1,5.83,11.5Z"/></svg>