<svg id="Sprites" xmlns="http://www.w3.org/2000/svg" viewBox="0 0 16 16"><path d="M11,4.5a.51.51,0,0,1,.28-.45l2-1a.5.5,0,1,1,.44.9l-1.1.55,1.1.55a.5.5,0,0,1-.22,1,.54.54,0,0,1-.22,0l-2-1A.51.51,0,0,1,11,4.5ZM2.05,5.72A.5.5,0,0,0,2.5,6a.54.54,0,0,0,.22,0l2-1a.5.5,0,0,0,0-.9l-2-1a.5.5,0,1,0-.44.9l1.1.55-1.1.55A.51.51,0,0,0,2.05,5.72ZM14.5,12a.5.5,0,0,1-.5.5c-.28,0-.4.11-.65.35a1.73,1.73,0,0,1-2.7,0c-.25-.24-.37-.35-.65-.35s-.4.11-.65.35a1.73,1.73,0,0,1-2.7,0c-.25-.24-.37-.35-.65-.35s-.4.11-.65.35a1.73,1.73,0,0,1-2.7,0c-.25-.24-.37-.35-.65-.35a.5.5,0,0,1,0-1,1.74,1.74,0,0,1,1.35.65,1,1,0,0,0,.52.34c1.39-.89,1.63-2.22,1.63-5V7h-1V6h1V5a2.5,2.5,0,0,1,5,0V6h1V7h-1v.5c0,2.77.24,4.1,1.63,5a1,1,0,0,0,.52-.34A1.74,1.74,0,0,1,14,11.5.5.5,0,0,1,14.5,12Zm-8-6h3V5a1.5,1.5,0,0,0-3,0ZM10,11.5h0a10.5,10.5,0,0,1-.53-4V7h-3v.5a10.5,10.5,0,0,1-.53,4H6a1.74,1.74,0,0,1,1.35.65c.25.24.37.35.65.35s.4-.11.65-.35A1.74,1.74,0,0,1,10,11.5Z"/></svg>