<svg id="Sprites" xmlns="http://www.w3.org/2000/svg" viewBox="0 0 16 16"><defs><style>.cls-1{fill:none;}.cls-2{fill:#fff;}</style></defs><g id="mailbox_pnt"><rect id="bbox_16" class="cls-1" width="16" height="16"/><path d="M12.5,3h-3V2.5H11V1H8.5V3h-5C1.82,3,1,4.14,1,6.5v3a.5.5,0,0,0,.5.5H7v5H9V10h5.5a.5.5,0,0,0,.5-.5v-3C15,4.14,14.18,3,12.5,3Z"/><path class="cls-2" d="M10.53,4l-.12.23a2.44,2.44,0,0,0-.1.24,1.42,1.42,0,0,0-.1.29,1.76,1.76,0,0,0-.07.27A4.66,4.66,0,0,0,10,6a1,1,0,0,0,0,.17c0,.11,0,.22,0,.34V9H2V6.5C2,4,2.94,4,3.5,4h5V6a.5.5,0,0,0,1,0V4Zm2,0C11.94,4,11,4,11,6.5V9h3V6.5C14,4,13.06,4,12.5,4Z"/></g></svg>