<svg id="Sprites" xmlns="http://www.w3.org/2000/svg" viewBox="0 0 64 64"><defs><style>.cls-1{fill:none;}.cls-2{fill:#236035;}</style></defs><g id="mangrove_poly_sparse_half"><rect id="bbox_64" class="cls-1" width="32" height="32"/><path id="mangrove_sparse" class="cls-2" d="M4.26,4.62a1.09,1.09,0,0,0,.43-.87A1.13,1.13,0,1,0,3.56,4.88h1.5V4.62ZM2.69,3.75a.88.88,0,1,1,.87.87A.87.87,0,0,1,2.69,3.75Zm9.07,2.13a1.13,1.13,0,1,0-.7.24h1.5V5.88ZM10.19,5a.88.88,0,1,1,.87.88A.88.88,0,0,1,10.19,5ZM6.51,10.88a1.13,1.13,0,1,0-.7.24h1.5v-.24ZM4.94,10a.88.88,0,1,1,.87.88A.88.88,0,0,1,4.94,10ZM13,13.38a1.13,1.13,0,1,0-.7.24h1.5v-.24Zm-1.57-.88a.88.88,0,1,1,.87.88A.88.88,0,0,1,11.44,12.5Z"/><path id="mangrove_sparse-2" data-name="mangrove_sparse" class="cls-2" d="M4.26,20.62a1.09,1.09,0,0,0,.43-.87,1.13,1.13,0,1,0-1.13,1.13h1.5v-.26Zm-1.57-.87a.88.88,0,1,1,.87.87A.87.87,0,0,1,2.69,19.75Zm9.07,2.13a1.13,1.13,0,1,0-.7.24h1.5v-.24ZM10.19,21a.88.88,0,1,1,.87.88A.88.88,0,0,1,10.19,21ZM6.51,26.88a1.13,1.13,0,1,0-.7.24h1.5v-.24ZM4.94,26a.88.88,0,1,1,.87.88A.88.88,0,0,1,4.94,26ZM13,29.38a1.13,1.13,0,1,0-.7.24h1.5v-.24Zm-1.57-.88a.88.88,0,1,1,.87.88A.88.88,0,0,1,11.44,28.5Z"/><path id="mangrove_sparse-3" data-name="mangrove_sparse" class="cls-2" d="M20.26,4.62a1.09,1.09,0,0,0,.43-.87,1.13,1.13,0,1,0-1.13,1.13h1.5V4.62Zm-1.57-.87a.88.88,0,1,1,.87.87A.87.87,0,0,1,18.69,3.75Zm9.07,2.13a1.13,1.13,0,1,0-.7.24h1.5V5.88ZM26.19,5a.88.88,0,1,1,.87.88A.88.88,0,0,1,26.19,5Zm-3.68,5.88a1.13,1.13,0,1,0-.7.24h1.5v-.24ZM20.94,10a.88.88,0,1,1,.87.88A.88.88,0,0,1,20.94,10ZM29,13.38a1.13,1.13,0,1,0-.7.24h1.5v-.24Zm-1.57-.88a.88.88,0,1,1,.87.88A.88.88,0,0,1,27.44,12.5Z"/><path id="mangrove_sparse-4" data-name="mangrove_sparse" class="cls-2" d="M20.26,20.62a1.09,1.09,0,0,0,.43-.87,1.13,1.13,0,1,0-1.13,1.13h1.5v-.26Zm-1.57-.87a.88.88,0,1,1,.87.87A.87.87,0,0,1,18.69,19.75Zm9.07,2.13a1.13,1.13,0,1,0-.7.24h1.5v-.24ZM26.19,21a.88.88,0,1,1,.87.88A.88.88,0,0,1,26.19,21Zm-3.68,5.88a1.13,1.13,0,1,0-.7.24h1.5v-.24ZM20.94,26a.88.88,0,1,1,.87.88A.88.88,0,0,1,20.94,26ZM29,29.38a1.13,1.13,0,1,0-.7.24h1.5v-.24Zm-1.57-.88a.88.88,0,1,1,.87.88A.88.88,0,0,1,27.44,28.5Z"/></g><g id="mangrove_poly_sparse_half-2" data-name="mangrove_poly_sparse_half"><rect id="bbox_64-2" data-name="bbox_64" class="cls-1" x="32" width="32" height="32"/><path id="mangrove_sparse-5" data-name="mangrove_sparse" class="cls-2" d="M36.26,4.62a1.09,1.09,0,0,0,.43-.87,1.13,1.13,0,1,0-1.13,1.13h1.5V4.62Zm-1.57-.87a.88.88,0,1,1,.87.87A.87.87,0,0,1,34.69,3.75Zm9.07,2.13a1.13,1.13,0,1,0-.7.24h1.5V5.88ZM42.19,5a.88.88,0,1,1,.87.88A.88.88,0,0,1,42.19,5Zm-3.68,5.88a1.13,1.13,0,1,0-.7.24h1.5v-.24ZM36.94,10a.88.88,0,1,1,.87.88A.88.88,0,0,1,36.94,10ZM45,13.38a1.13,1.13,0,1,0-.7.24h1.5v-.24Zm-1.57-.88a.88.88,0,1,1,.87.88A.88.88,0,0,1,43.44,12.5Z"/><path id="mangrove_sparse-6" data-name="mangrove_sparse" class="cls-2" d="M36.26,20.62a1.09,1.09,0,0,0,.43-.87,1.13,1.13,0,1,0-1.13,1.13h1.5v-.26Zm-1.57-.87a.88.88,0,1,1,.87.87A.87.87,0,0,1,34.69,19.75Zm9.07,2.13a1.13,1.13,0,1,0-.7.24h1.5v-.24ZM42.19,21a.88.88,0,1,1,.87.88A.88.88,0,0,1,42.19,21Zm-3.68,5.88a1.13,1.13,0,1,0-.7.24h1.5v-.24ZM36.94,26a.88.88,0,1,1,.87.88A.88.88,0,0,1,36.94,26ZM45,29.38a1.13,1.13,0,1,0-.7.24h1.5v-.24Zm-1.57-.88a.88.88,0,1,1,.87.88A.88.88,0,0,1,43.44,28.5Z"/><path id="mangrove_sparse-7" data-name="mangrove_sparse" class="cls-2" d="M52.26,4.62a1.09,1.09,0,0,0,.43-.87,1.13,1.13,0,1,0-1.13,1.13h1.5V4.62Zm-1.57-.87a.88.88,0,1,1,.87.87A.87.87,0,0,1,50.69,3.75Zm9.07,2.13a1.13,1.13,0,1,0-.7.24h1.5V5.88ZM58.19,5a.88.88,0,1,1,.87.88A.88.88,0,0,1,58.19,5Zm-3.68,5.88a1.13,1.13,0,1,0-.7.24h1.5v-.24ZM52.94,10a.88.88,0,1,1,.87.88A.88.88,0,0,1,52.94,10ZM61,13.38a1.13,1.13,0,1,0-.7.24h1.5v-.24Zm-1.57-.88a.88.88,0,1,1,.87.88A.88.88,0,0,1,59.44,12.5Z"/><path id="mangrove_sparse-8" data-name="mangrove_sparse" class="cls-2" d="M52.26,20.62a1.09,1.09,0,0,0,.43-.87,1.13,1.13,0,1,0-1.13,1.13h1.5v-.26Zm-1.57-.87a.88.88,0,1,1,.87.87A.87.87,0,0,1,50.69,19.75Zm9.07,2.13a1.13,1.13,0,1,0-.7.24h1.5v-.24ZM58.19,21a.88.88,0,1,1,.87.88A.88.88,0,0,1,58.19,21Zm-3.68,5.88a1.13,1.13,0,1,0-.7.24h1.5v-.24ZM52.94,26a.88.88,0,1,1,.87.88A.88.88,0,0,1,52.94,26ZM61,29.38a1.13,1.13,0,1,0-.7.24h1.5v-.24Zm-1.57-.88a.88.88,0,1,1,.87.88A.88.88,0,0,1,59.44,28.5Z"/></g><g id="mangrove_poly_sparse_half-3" data-name="mangrove_poly_sparse_half"><rect id="bbox_64-3" data-name="bbox_64" class="cls-1" y="32" width="32" height="32"/><path id="mangrove_sparse-9" data-name="mangrove_sparse" class="cls-2" d="M4.26,36.62a1.09,1.09,0,0,0,.43-.87,1.13,1.13,0,1,0-1.13,1.13h1.5v-.26Zm-1.57-.87a.88.88,0,1,1,.87.87A.87.87,0,0,1,2.69,35.75Zm9.07,2.13a1.13,1.13,0,1,0-.7.24h1.5v-.24ZM10.19,37a.88.88,0,1,1,.87.88A.88.88,0,0,1,10.19,37ZM6.51,42.88a1.13,1.13,0,1,0-.7.24h1.5v-.24ZM4.94,42a.88.88,0,1,1,.87.88A.88.88,0,0,1,4.94,42ZM13,45.38a1.13,1.13,0,1,0-.7.24h1.5v-.24Zm-1.57-.88a.88.88,0,1,1,.87.88A.88.88,0,0,1,11.44,44.5Z"/><path id="mangrove_sparse-10" data-name="mangrove_sparse" class="cls-2" d="M4.26,52.62a1.09,1.09,0,0,0,.43-.87,1.13,1.13,0,1,0-1.13,1.13h1.5v-.26Zm-1.57-.87a.88.88,0,1,1,.87.87A.87.87,0,0,1,2.69,51.75Zm9.07,2.13a1.13,1.13,0,1,0-.7.24h1.5v-.24ZM10.19,53a.88.88,0,1,1,.87.88A.88.88,0,0,1,10.19,53ZM6.51,58.88a1.13,1.13,0,1,0-.7.24h1.5v-.24ZM4.94,58a.88.88,0,1,1,.87.88A.88.88,0,0,1,4.94,58ZM13,61.38a1.13,1.13,0,1,0-.7.24h1.5v-.24Zm-1.57-.88a.88.88,0,1,1,.87.88A.88.88,0,0,1,11.44,60.5Z"/><path id="mangrove_sparse-11" data-name="mangrove_sparse" class="cls-2" d="M20.26,36.62a1.09,1.09,0,0,0,.43-.87,1.13,1.13,0,1,0-1.13,1.13h1.5v-.26Zm-1.57-.87a.88.88,0,1,1,.87.87A.87.87,0,0,1,18.69,35.75Zm9.07,2.13a1.13,1.13,0,1,0-.7.24h1.5v-.24ZM26.19,37a.88.88,0,1,1,.87.88A.88.88,0,0,1,26.19,37Zm-3.68,5.88a1.13,1.13,0,1,0-.7.24h1.5v-.24ZM20.94,42a.88.88,0,1,1,.87.88A.88.88,0,0,1,20.94,42ZM29,45.38a1.13,1.13,0,1,0-.7.24h1.5v-.24Zm-1.57-.88a.88.88,0,1,1,.87.88A.88.88,0,0,1,27.44,44.5Z"/><path id="mangrove_sparse-12" data-name="mangrove_sparse" class="cls-2" d="M20.26,52.62a1.09,1.09,0,0,0,.43-.87,1.13,1.13,0,1,0-1.13,1.13h1.5v-.26Zm-1.57-.87a.88.88,0,1,1,.87.87A.87.87,0,0,1,18.69,51.75Zm9.07,2.13a1.13,1.13,0,1,0-.7.24h1.5v-.24ZM26.19,53a.88.88,0,1,1,.87.88A.88.88,0,0,1,26.19,53Zm-3.68,5.88a1.13,1.13,0,1,0-.7.24h1.5v-.24ZM20.94,58a.88.88,0,1,1,.87.88A.88.88,0,0,1,20.94,58ZM29,61.38a1.13,1.13,0,1,0-.7.24h1.5v-.24Zm-1.57-.88a.88.88,0,1,1,.87.88A.88.88,0,0,1,27.44,60.5Z"/></g><g id="mangrove_poly_sparse_half-4" data-name="mangrove_poly_sparse_half"><rect id="bbox_64-4" data-name="bbox_64" class="cls-1" x="32" y="32" width="32" height="32"/><path id="mangrove_sparse-13" data-name="mangrove_sparse" class="cls-2" d="M36.26,36.62a1.09,1.09,0,0,0,.43-.87,1.13,1.13,0,1,0-1.13,1.13h1.5v-.26Zm-1.57-.87a.88.88,0,1,1,.87.87A.87.87,0,0,1,34.69,35.75Zm9.07,2.13a1.13,1.13,0,1,0-.7.24h1.5v-.24ZM42.19,37a.88.88,0,1,1,.87.88A.88.88,0,0,1,42.19,37Zm-3.68,5.88a1.13,1.13,0,1,0-.7.24h1.5v-.24ZM36.94,42a.88.88,0,1,1,.87.88A.88.88,0,0,1,36.94,42ZM45,45.38a1.13,1.13,0,1,0-.7.24h1.5v-.24Zm-1.57-.88a.88.88,0,1,1,.87.88A.88.88,0,0,1,43.44,44.5Z"/><path id="mangrove_sparse-14" data-name="mangrove_sparse" class="cls-2" d="M36.26,52.62a1.09,1.09,0,0,0,.43-.87,1.13,1.13,0,1,0-1.13,1.13h1.5v-.26Zm-1.57-.87a.88.88,0,1,1,.87.87A.87.87,0,0,1,34.69,51.75Zm9.07,2.13a1.13,1.13,0,1,0-.7.24h1.5v-.24ZM42.19,53a.88.88,0,1,1,.87.88A.88.88,0,0,1,42.19,53Zm-3.68,5.88a1.13,1.13,0,1,0-.7.24h1.5v-.24ZM36.94,58a.88.88,0,1,1,.87.88A.88.88,0,0,1,36.94,58ZM45,61.38a1.13,1.13,0,1,0-.7.24h1.5v-.24Zm-1.57-.88a.88.88,0,1,1,.87.88A.88.88,0,0,1,43.44,60.5Z"/><path id="mangrove_sparse-15" data-name="mangrove_sparse" class="cls-2" d="M52.26,36.62a1.09,1.09,0,0,0,.43-.87,1.13,1.13,0,1,0-1.13,1.13h1.5v-.26Zm-1.57-.87a.88.88,0,1,1,.87.87A.87.87,0,0,1,50.69,35.75Zm9.07,2.13a1.13,1.13,0,1,0-.7.24h1.5v-.24ZM58.19,37a.88.88,0,1,1,.87.88A.88.88,0,0,1,58.19,37Zm-3.68,5.88a1.13,1.13,0,1,0-.7.24h1.5v-.24ZM52.94,42a.88.88,0,1,1,.87.88A.88.88,0,0,1,52.94,42ZM61,45.38a1.13,1.13,0,1,0-.7.24h1.5v-.24Zm-1.57-.88a.88.88,0,1,1,.87.88A.88.88,0,0,1,59.44,44.5Z"/><path id="mangrove_sparse-16" data-name="mangrove_sparse" class="cls-2" d="M52.26,52.62a1.09,1.09,0,0,0,.43-.87,1.13,1.13,0,1,0-1.13,1.13h1.5v-.26Zm-1.57-.87a.88.88,0,1,1,.87.87A.87.87,0,0,1,50.69,51.75Zm9.07,2.13a1.13,1.13,0,1,0-.7.24h1.5v-.24ZM58.19,53a.88.88,0,1,1,.87.88A.88.88,0,0,1,58.19,53Zm-3.68,5.88a1.13,1.13,0,1,0-.7.24h1.5v-.24ZM52.94,58a.88.88,0,1,1,.87.88A.88.88,0,0,1,52.94,58ZM61,61.38a1.13,1.13,0,1,0-.7.24h1.5v-.24Zm-1.57-.88a.88.88,0,1,1,.87.88A.88.88,0,0,1,59.44,60.5Z"/></g></svg>