<svg id="Sprites" xmlns="http://www.w3.org/2000/svg" viewBox="0 0 64 64"><defs><style>.cls-1{fill:#236035;}</style></defs><path id="mangrove_poly_sparse" class="cls-1" d="M17,18.5A4.46,4.46,0,0,0,18.75,15a4.5,4.5,0,1,0-4.5,4.5h6v-1ZM10.75,15a3.5,3.5,0,1,1,3.5,3.5A3.5,3.5,0,0,1,10.75,15ZM47,23.5A4.46,4.46,0,0,0,48.75,20a4.5,4.5,0,1,0-4.5,4.5h6v-1ZM40.75,20a3.5,3.5,0,1,1,3.5,3.5A3.5,3.5,0,0,1,40.75,20ZM26,43.5A4.46,4.46,0,0,0,27.75,40a4.5,4.5,0,1,0-4.5,4.5h6v-1ZM19.75,40a3.5,3.5,0,1,1,3.5,3.5A3.5,3.5,0,0,1,19.75,40ZM52,53.5A4.46,4.46,0,0,0,53.75,50a4.5,4.5,0,1,0-4.5,4.5h6v-1ZM45.75,50a3.5,3.5,0,1,1,3.5,3.5A3.5,3.5,0,0,1,45.75,50Z"/></svg>