<svg id="Sprites" xmlns="http://www.w3.org/2000/svg" viewBox="0 0 64 64"><defs><style>.cls-1{fill:none;}.cls-2{fill:#236035;}</style></defs><g id="mangrove_poly_dense_half"><rect id="bbox_64" class="cls-1" width="64" height="64"/><path id="mangrove_dense" class="cls-2" d="M15,13.25H9a.25.25,0,0,1,0-.5h6a.25.25,0,0,1,0,.5Zm12,7H21a.25.25,0,0,1,0-.5h6a.25.25,0,0,1,0,.5ZM32,3.38v.5H29.38a.26.26,0,0,1-.26-.26.24.24,0,0,1,.26-.24ZM28,15.25H24a.25.25,0,0,1,0-.5h4a.25.25,0,0,1,0,.5ZM5.5,18h-4a.25.25,0,0,1,0-.5h4a.25.25,0,0,1,0,.5Zm7,9.75h-6a.25.25,0,0,1,0-.5h6a.25.25,0,0,1,0,.5ZM18.12,1.38h-4a.25.25,0,0,1-.24-.26.24.24,0,0,1,.24-.24h4a.25.25,0,0,1,.26.24A.26.26,0,0,1,18.12,1.38ZM1.62,3.62a.25.25,0,0,1-.24.26H0v-.5H1.38A.23.23,0,0,1,1.62,3.62ZM15,13.25H9a.25.25,0,0,1,0-.5h6a.25.25,0,0,1,0,.5Zm12,7H21a.25.25,0,0,1,0-.5h6a.25.25,0,0,1,0,.5ZM32,3.38v.5H29.38a.26.26,0,0,1-.26-.26.24.24,0,0,1,.26-.24ZM28,15.25H24a.25.25,0,0,1,0-.5h4a.25.25,0,0,1,0,.5ZM5.5,18h-4a.25.25,0,0,1,0-.5h4a.25.25,0,0,1,0,.5Zm7,9.75h-6a.25.25,0,0,1,0-.5h6a.25.25,0,0,1,0,.5ZM18.12,1.38h-4a.25.25,0,0,1-.24-.26.24.24,0,0,1,.24-.24h4a.25.25,0,0,1,.26.24A.26.26,0,0,1,18.12,1.38ZM1.62,3.62a.25.25,0,0,1-.24.26H0v-.5H1.38A.23.23,0,0,1,1.62,3.62Zm6.9,5.63A2.23,2.23,0,0,0,9.38,7.5,2.25,2.25,0,1,0,7.12,9.75h3v-.5ZM5.38,7.5A1.75,1.75,0,1,1,7.12,9.25,1.75,1.75,0,0,1,5.38,7.5Zm18.14,4.25A2.23,2.23,0,0,0,24.38,10a2.25,2.25,0,1,0-2.26,2.25h3v-.5ZM20.38,10a1.75,1.75,0,1,1,1.74,1.75A1.75,1.75,0,0,1,20.38,10ZM13,21.75A2.23,2.23,0,0,0,13.88,20a2.25,2.25,0,1,0-2.26,2.25h3v-.5ZM9.88,20a1.75,1.75,0,1,1,1.74,1.75A1.75,1.75,0,0,1,9.88,20ZM26,26.75A2.23,2.23,0,0,0,26.88,25a2.25,2.25,0,1,0-2.26,2.25h3v-.5ZM22.88,25a1.75,1.75,0,1,1,1.74,1.75A1.75,1.75,0,0,1,22.88,25Z"/><path id="mangrove_dense-2" data-name="mangrove_dense" class="cls-2" d="M15,45.25H9a.25.25,0,0,1,0-.5h6a.25.25,0,0,1,0,.5Zm12,7H21a.25.25,0,0,1,0-.5h6a.25.25,0,0,1,0,.5Zm5-16.87v.5H29.38a.26.26,0,0,1-.26-.26.24.24,0,0,1,.26-.24ZM28,47.25H24a.25.25,0,0,1,0-.5h4a.25.25,0,0,1,0,.5ZM5.5,50h-4a.25.25,0,0,1,0-.5h4a.25.25,0,0,1,0,.5Zm7,9.75h-6a.25.25,0,0,1,0-.5h6a.25.25,0,0,1,0,.5Zm5.62-26.37h-4a.25.25,0,0,1-.24-.26.24.24,0,0,1,.24-.24h4a.25.25,0,0,1,.26.24A.26.26,0,0,1,18.12,33.38ZM1.62,35.62a.25.25,0,0,1-.24.26H0v-.5H1.38A.23.23,0,0,1,1.62,35.62ZM15,45.25H9a.25.25,0,0,1,0-.5h6a.25.25,0,0,1,0,.5Zm12,7H21a.25.25,0,0,1,0-.5h6a.25.25,0,0,1,0,.5Zm5-16.87v.5H29.38a.26.26,0,0,1-.26-.26.24.24,0,0,1,.26-.24ZM28,47.25H24a.25.25,0,0,1,0-.5h4a.25.25,0,0,1,0,.5ZM5.5,50h-4a.25.25,0,0,1,0-.5h4a.25.25,0,0,1,0,.5Zm7,9.75h-6a.25.25,0,0,1,0-.5h6a.25.25,0,0,1,0,.5Zm5.62-26.37h-4a.25.25,0,0,1-.24-.26.24.24,0,0,1,.24-.24h4a.25.25,0,0,1,.26.24A.26.26,0,0,1,18.12,33.38ZM1.62,35.62a.25.25,0,0,1-.24.26H0v-.5H1.38A.23.23,0,0,1,1.62,35.62Zm6.9,5.63a2.23,2.23,0,0,0,.86-1.75,2.25,2.25,0,1,0-2.26,2.25h3v-.5ZM5.38,39.5a1.75,1.75,0,1,1,1.74,1.75A1.75,1.75,0,0,1,5.38,39.5Zm18.14,4.25A2.23,2.23,0,0,0,24.38,42a2.25,2.25,0,1,0-2.26,2.25h3v-.5ZM20.38,42a1.75,1.75,0,1,1,1.74,1.75A1.75,1.75,0,0,1,20.38,42ZM13,53.75A2.23,2.23,0,0,0,13.88,52a2.25,2.25,0,1,0-2.26,2.25h3v-.5ZM9.88,52a1.75,1.75,0,1,1,1.74,1.75A1.75,1.75,0,0,1,9.88,52ZM26,58.75A2.23,2.23,0,0,0,26.88,57a2.25,2.25,0,1,0-2.26,2.25h3v-.5ZM22.88,57a1.75,1.75,0,1,1,1.74,1.75A1.75,1.75,0,0,1,22.88,57Z"/><path id="mangrove_dense-3" data-name="mangrove_dense" class="cls-2" d="M47,13.25H41a.25.25,0,0,1,0-.5h6a.25.25,0,0,1,0,.5Zm12,7H53a.25.25,0,0,1,0-.5h6a.25.25,0,0,1,0,.5ZM64,3.38v.5H61.38a.26.26,0,0,1-.26-.26.24.24,0,0,1,.26-.24ZM60,15.25H56a.25.25,0,0,1,0-.5h4a.25.25,0,0,1,0,.5ZM37.5,18h-4a.25.25,0,0,1,0-.5h4a.25.25,0,0,1,0,.5Zm7,9.75h-6a.25.25,0,0,1,0-.5h6a.25.25,0,0,1,0,.5ZM50.12,1.38h-4a.25.25,0,0,1-.24-.26.24.24,0,0,1,.24-.24h4a.25.25,0,0,1,.26.24A.26.26,0,0,1,50.12,1.38ZM33.62,3.62a.25.25,0,0,1-.24.26H32v-.5h1.38A.23.23,0,0,1,33.62,3.62ZM47,13.25H41a.25.25,0,0,1,0-.5h6a.25.25,0,0,1,0,.5Zm12,7H53a.25.25,0,0,1,0-.5h6a.25.25,0,0,1,0,.5ZM64,3.38v.5H61.38a.26.26,0,0,1-.26-.26.24.24,0,0,1,.26-.24ZM60,15.25H56a.25.25,0,0,1,0-.5h4a.25.25,0,0,1,0,.5ZM37.5,18h-4a.25.25,0,0,1,0-.5h4a.25.25,0,0,1,0,.5Zm7,9.75h-6a.25.25,0,0,1,0-.5h6a.25.25,0,0,1,0,.5ZM50.12,1.38h-4a.25.25,0,0,1-.24-.26.24.24,0,0,1,.24-.24h4a.25.25,0,0,1,.26.24A.26.26,0,0,1,50.12,1.38ZM33.62,3.62a.25.25,0,0,1-.24.26H32v-.5h1.38A.23.23,0,0,1,33.62,3.62Zm6.9,5.63a2.23,2.23,0,0,0,.86-1.75,2.25,2.25,0,1,0-2.26,2.25h3v-.5ZM37.38,7.5a1.75,1.75,0,1,1,1.74,1.75A1.75,1.75,0,0,1,37.38,7.5Zm18.14,4.25A2.23,2.23,0,0,0,56.38,10a2.25,2.25,0,1,0-2.26,2.25h3v-.5ZM52.38,10a1.75,1.75,0,1,1,1.74,1.75A1.75,1.75,0,0,1,52.38,10ZM45,21.75A2.23,2.23,0,0,0,45.88,20a2.25,2.25,0,1,0-2.26,2.25h3v-.5ZM41.88,20a1.75,1.75,0,1,1,1.74,1.75A1.75,1.75,0,0,1,41.88,20ZM58,26.75A2.23,2.23,0,0,0,58.88,25a2.25,2.25,0,1,0-2.26,2.25h3v-.5ZM54.88,25a1.75,1.75,0,1,1,1.74,1.75A1.75,1.75,0,0,1,54.88,25Z"/><path id="mangrove_dense-4" data-name="mangrove_dense" class="cls-2" d="M47,45.25H41a.25.25,0,0,1,0-.5h6a.25.25,0,0,1,0,.5Zm12,7H53a.25.25,0,0,1,0-.5h6a.25.25,0,0,1,0,.5Zm5-16.87v.5H61.38a.26.26,0,0,1-.26-.26.24.24,0,0,1,.26-.24ZM60,47.25H56a.25.25,0,0,1,0-.5h4a.25.25,0,0,1,0,.5ZM37.5,50h-4a.25.25,0,0,1,0-.5h4a.25.25,0,0,1,0,.5Zm7,9.75h-6a.25.25,0,0,1,0-.5h6a.25.25,0,0,1,0,.5Zm5.62-26.37h-4a.25.25,0,0,1-.24-.26.24.24,0,0,1,.24-.24h4a.25.25,0,0,1,.26.24A.26.26,0,0,1,50.12,33.38Zm-16.5,2.24a.25.25,0,0,1-.24.26H32v-.5h1.38A.23.23,0,0,1,33.62,35.62ZM47,45.25H41a.25.25,0,0,1,0-.5h6a.25.25,0,0,1,0,.5Zm12,7H53a.25.25,0,0,1,0-.5h6a.25.25,0,0,1,0,.5Zm5-16.87v.5H61.38a.26.26,0,0,1-.26-.26.24.24,0,0,1,.26-.24ZM60,47.25H56a.25.25,0,0,1,0-.5h4a.25.25,0,0,1,0,.5ZM37.5,50h-4a.25.25,0,0,1,0-.5h4a.25.25,0,0,1,0,.5Zm7,9.75h-6a.25.25,0,0,1,0-.5h6a.25.25,0,0,1,0,.5Zm5.62-26.37h-4a.25.25,0,0,1-.24-.26.24.24,0,0,1,.24-.24h4a.25.25,0,0,1,.26.24A.26.26,0,0,1,50.12,33.38Zm-16.5,2.24a.25.25,0,0,1-.24.26H32v-.5h1.38A.23.23,0,0,1,33.62,35.62Zm6.9,5.63a2.23,2.23,0,0,0,.86-1.75,2.25,2.25,0,1,0-2.26,2.25h3v-.5ZM37.38,39.5a1.75,1.75,0,1,1,1.74,1.75A1.75,1.75,0,0,1,37.38,39.5Zm18.14,4.25A2.23,2.23,0,0,0,56.38,42a2.25,2.25,0,1,0-2.26,2.25h3v-.5ZM52.38,42a1.75,1.75,0,1,1,1.74,1.75A1.75,1.75,0,0,1,52.38,42ZM45,53.75A2.23,2.23,0,0,0,45.88,52a2.25,2.25,0,1,0-2.26,2.25h3v-.5ZM41.88,52a1.75,1.75,0,1,1,1.74,1.75A1.75,1.75,0,0,1,41.88,52ZM58,58.75A2.23,2.23,0,0,0,58.88,57a2.25,2.25,0,1,0-2.26,2.25h3v-.5ZM54.88,57a1.75,1.75,0,1,1,1.74,1.75A1.75,1.75,0,0,1,54.88,57Z"/></g></svg>