<svg id="Sprites" xmlns="http://www.w3.org/2000/svg" viewBox="0 0 64 64"><defs><style>.cls-1{fill:none;}.cls-2{fill:#236035;}</style></defs><g id="mangrove_poly_green_dense"><rect id="bbox_64" class="cls-1" width="64" height="64"/><path id="mangrove_dense" class="cls-2" d="M30,26.5H18a.5.5,0,0,1,0-1H30a.5.5,0,0,1,0,1Zm24,14H42a.5.5,0,0,1,0-1H54a.5.5,0,0,1,0,1ZM64,6.75v1H58.75a.5.5,0,0,1,0-1ZM56,30.5H48a.5.5,0,0,1,0-1h8a.5.5,0,0,1,0,1ZM11,36H3a.5.5,0,0,1,0-1h8a.5.5,0,0,1,0,1ZM25,55.5H13a.5.5,0,0,1,0-1H25a.5.5,0,0,1,0,1ZM36.25,2.75h-8a.5.5,0,0,1,0-1h8a.5.5,0,0,1,0,1Zm-33,4.5a.5.5,0,0,1-.5.5H0v-1H2.75A.5.5,0,0,1,3.25,7.25ZM30,26.5H18a.5.5,0,0,1,0-1H30a.5.5,0,0,1,0,1Zm24,14H42a.5.5,0,0,1,0-1H54a.5.5,0,0,1,0,1ZM64,6.75v1H58.75a.5.5,0,0,1,0-1ZM56,30.5H48a.5.5,0,0,1,0-1h8a.5.5,0,0,1,0,1ZM11,36H3a.5.5,0,0,1,0-1h8a.5.5,0,0,1,0,1ZM25,55.5H13a.5.5,0,0,1,0-1H25a.5.5,0,0,1,0,1ZM36.25,2.75h-8a.5.5,0,0,1,0-1h8a.5.5,0,0,1,0,1Zm-33,4.5a.5.5,0,0,1-.5.5H0v-1H2.75A.5.5,0,0,1,3.25,7.25ZM17,18.5A4.46,4.46,0,0,0,18.75,15a4.5,4.5,0,1,0-4.5,4.5h6v-1ZM10.75,15a3.5,3.5,0,1,1,3.5,3.5A3.5,3.5,0,0,1,10.75,15ZM47,23.5A4.46,4.46,0,0,0,48.75,20a4.5,4.5,0,1,0-4.5,4.5h6v-1ZM40.75,20a3.5,3.5,0,1,1,3.5,3.5A3.5,3.5,0,0,1,40.75,20ZM26,43.5A4.46,4.46,0,0,0,27.75,40a4.5,4.5,0,1,0-4.5,4.5h6v-1ZM19.75,40a3.5,3.5,0,1,1,3.5,3.5A3.5,3.5,0,0,1,19.75,40ZM52,53.5A4.46,4.46,0,0,0,53.75,50a4.5,4.5,0,1,0-4.5,4.5h6v-1ZM45.75,50a3.5,3.5,0,1,1,3.5,3.5A3.5,3.5,0,0,1,45.75,50Z"/></g></svg>