<svg id="Sprites" xmlns="http://www.w3.org/2000/svg" viewBox="0 0 64 64"><defs><style>.cls-1{fill:none;}.cls-2{fill:#236035;}</style></defs><g id="mangrove_poly_dense_half"><rect id="bbox_64" class="cls-1" width="32" height="32"/><path id="mangrove_dense" class="cls-2" d="M7.5,6.62h-3a.12.12,0,0,1,0-.24h3a.12.12,0,0,1,0,.24Zm6,3.5h-3a.12.12,0,0,1,0-.24h3a.12.12,0,0,1,0,.24ZM16,1.69v.25H14.69a.13.13,0,0,1-.13-.13.12.12,0,0,1,.13-.12ZM14,7.62H12a.12.12,0,0,1,0-.24h2a.12.12,0,0,1,0,.24ZM2.75,9h-2a.13.13,0,0,1-.13-.12.13.13,0,0,1,.13-.13h2a.13.13,0,0,1,.13.13A.13.13,0,0,1,2.75,9Zm3.5,4.88h-3a.13.13,0,0,1,0-.26h3a.13.13,0,0,1,0,.26ZM9.06.69h-2A.12.12,0,0,1,6.94.56.12.12,0,0,1,7.06.44h2a.12.12,0,0,1,.13.12A.13.13,0,0,1,9.06.69ZM.81,1.81a.12.12,0,0,1-.12.13H0V1.69H.69A.12.12,0,0,1,.81,1.81ZM7.5,6.62h-3a.12.12,0,0,1,0-.24h3a.12.12,0,0,1,0,.24Zm6,3.5h-3a.12.12,0,0,1,0-.24h3a.12.12,0,0,1,0,.24ZM16,1.69v.25H14.69a.13.13,0,0,1-.13-.13.12.12,0,0,1,.13-.12ZM14,7.62H12a.12.12,0,0,1,0-.24h2a.12.12,0,0,1,0,.24ZM2.75,9h-2a.13.13,0,0,1-.13-.12.13.13,0,0,1,.13-.13h2a.13.13,0,0,1,.13.13A.13.13,0,0,1,2.75,9Zm3.5,4.88h-3a.13.13,0,0,1,0-.26h3a.13.13,0,0,1,0,.26ZM9.06.69h-2A.12.12,0,0,1,6.94.56.12.12,0,0,1,7.06.44h2a.12.12,0,0,1,.13.12A.13.13,0,0,1,9.06.69ZM.81,1.81a.12.12,0,0,1-.12.13H0V1.69H.69A.12.12,0,0,1,.81,1.81ZM4.26,4.62a1.09,1.09,0,0,0,.43-.87A1.13,1.13,0,1,0,3.56,4.88h1.5V4.62ZM2.69,3.75a.88.88,0,1,1,.87.87A.87.87,0,0,1,2.69,3.75Zm9.07,2.13a1.13,1.13,0,1,0-.7.24h1.5V5.88ZM10.19,5a.88.88,0,1,1,.87.88A.88.88,0,0,1,10.19,5ZM6.51,10.88a1.13,1.13,0,1,0-.7.24h1.5v-.24ZM4.94,10a.88.88,0,1,1,.87.88A.88.88,0,0,1,4.94,10ZM13,13.38a1.13,1.13,0,1,0-.7.24h1.5v-.24Zm-1.57-.88a.88.88,0,1,1,.87.88A.88.88,0,0,1,11.44,12.5Z"/><path id="mangrove_dense-2" data-name="mangrove_dense" class="cls-2" d="M7.5,22.62h-3a.12.12,0,0,1,0-.24h3a.12.12,0,0,1,0,.24Zm6,3.5h-3a.12.12,0,0,1,0-.24h3a.12.12,0,0,1,0,.24ZM16,17.69v.25H14.69a.13.13,0,0,1-.13-.13.12.12,0,0,1,.13-.12Zm-2,5.93H12a.12.12,0,0,1,0-.24h2a.12.12,0,0,1,0,.24ZM2.75,25h-2a.13.13,0,0,1-.13-.12.13.13,0,0,1,.13-.13h2a.13.13,0,0,1,.13.13A.13.13,0,0,1,2.75,25Zm3.5,4.88h-3a.13.13,0,1,1,0-.26h3a.13.13,0,0,1,0,.26ZM9.06,16.69h-2a.12.12,0,0,1-.12-.13.12.12,0,0,1,.12-.12h2a.12.12,0,0,1,.13.12A.13.13,0,0,1,9.06,16.69ZM.81,17.81a.12.12,0,0,1-.12.13H0v-.25H.69A.12.12,0,0,1,.81,17.81ZM7.5,22.62h-3a.12.12,0,0,1,0-.24h3a.12.12,0,0,1,0,.24Zm6,3.5h-3a.12.12,0,0,1,0-.24h3a.12.12,0,0,1,0,.24ZM16,17.69v.25H14.69a.13.13,0,0,1-.13-.13.12.12,0,0,1,.13-.12Zm-2,5.93H12a.12.12,0,0,1,0-.24h2a.12.12,0,0,1,0,.24ZM2.75,25h-2a.13.13,0,0,1-.13-.12.13.13,0,0,1,.13-.13h2a.13.13,0,0,1,.13.13A.13.13,0,0,1,2.75,25Zm3.5,4.88h-3a.13.13,0,1,1,0-.26h3a.13.13,0,0,1,0,.26ZM9.06,16.69h-2a.12.12,0,0,1-.12-.13.12.12,0,0,1,.12-.12h2a.12.12,0,0,1,.13.12A.13.13,0,0,1,9.06,16.69ZM.81,17.81a.12.12,0,0,1-.12.13H0v-.25H.69A.12.12,0,0,1,.81,17.81Zm3.45,2.81a1.09,1.09,0,0,0,.43-.87,1.13,1.13,0,1,0-1.13,1.13h1.5v-.26Zm-1.57-.87a.88.88,0,1,1,.87.87A.87.87,0,0,1,2.69,19.75Zm9.07,2.13a1.13,1.13,0,1,0-.7.24h1.5v-.24ZM10.19,21a.88.88,0,1,1,.87.88A.88.88,0,0,1,10.19,21ZM6.51,26.88a1.13,1.13,0,1,0-.7.24h1.5v-.24ZM4.94,26a.88.88,0,1,1,.87.88A.88.88,0,0,1,4.94,26ZM13,29.38a1.13,1.13,0,1,0-.7.24h1.5v-.24Zm-1.57-.88a.88.88,0,1,1,.87.88A.88.88,0,0,1,11.44,28.5Z"/><path id="mangrove_dense-3" data-name="mangrove_dense" class="cls-2" d="M23.5,6.62h-3a.12.12,0,0,1,0-.24h3a.12.12,0,1,1,0,.24Zm6,3.5h-3a.12.12,0,0,1,0-.24h3a.12.12,0,1,1,0,.24ZM32,1.69v.25H30.69a.13.13,0,0,1-.13-.13.12.12,0,0,1,.13-.12ZM30,7.62H28a.12.12,0,0,1,0-.24h2a.12.12,0,1,1,0,.24ZM18.75,9h-2a.13.13,0,0,1-.13-.12.13.13,0,0,1,.13-.13h2a.13.13,0,0,1,.13.13A.13.13,0,0,1,18.75,9Zm3.5,4.88h-3a.13.13,0,0,1,0-.26h3a.13.13,0,0,1,0,.26ZM25.06.69h-2a.12.12,0,0,1-.12-.13.12.12,0,0,1,.12-.12h2a.12.12,0,0,1,.13.12A.13.13,0,0,1,25.06.69ZM16.81,1.81a.12.12,0,0,1-.12.13H16V1.69h.69A.12.12,0,0,1,16.81,1.81ZM23.5,6.62h-3a.12.12,0,0,1,0-.24h3a.12.12,0,1,1,0,.24Zm6,3.5h-3a.12.12,0,0,1,0-.24h3a.12.12,0,1,1,0,.24ZM32,1.69v.25H30.69a.13.13,0,0,1-.13-.13.12.12,0,0,1,.13-.12ZM30,7.62H28a.12.12,0,0,1,0-.24h2a.12.12,0,1,1,0,.24ZM18.75,9h-2a.13.13,0,0,1-.13-.12.13.13,0,0,1,.13-.13h2a.13.13,0,0,1,.13.13A.13.13,0,0,1,18.75,9Zm3.5,4.88h-3a.13.13,0,0,1,0-.26h3a.13.13,0,0,1,0,.26ZM25.06.69h-2a.12.12,0,0,1-.12-.13.12.12,0,0,1,.12-.12h2a.12.12,0,0,1,.13.12A.13.13,0,0,1,25.06.69ZM16.81,1.81a.12.12,0,0,1-.12.13H16V1.69h.69A.12.12,0,0,1,16.81,1.81Zm3.45,2.81a1.09,1.09,0,0,0,.43-.87,1.13,1.13,0,1,0-1.13,1.13h1.5V4.62Zm-1.57-.87a.88.88,0,1,1,.87.87A.87.87,0,0,1,18.69,3.75Zm9.07,2.13a1.13,1.13,0,1,0-.7.24h1.5V5.88ZM26.19,5a.88.88,0,1,1,.87.88A.88.88,0,0,1,26.19,5Zm-3.68,5.88a1.13,1.13,0,1,0-.7.24h1.5v-.24ZM20.94,10a.88.88,0,1,1,.87.88A.88.88,0,0,1,20.94,10ZM29,13.38a1.13,1.13,0,1,0-.7.24h1.5v-.24Zm-1.57-.88a.88.88,0,1,1,.87.88A.88.88,0,0,1,27.44,12.5Z"/><path id="mangrove_dense-4" data-name="mangrove_dense" class="cls-2" d="M23.5,22.62h-3a.12.12,0,0,1,0-.24h3a.12.12,0,0,1,0,.24Zm6,3.5h-3a.12.12,0,0,1,0-.24h3a.12.12,0,0,1,0,.24ZM32,17.69v.25H30.69a.13.13,0,0,1-.13-.13.12.12,0,0,1,.13-.12Zm-2,5.93H28a.12.12,0,0,1,0-.24h2a.12.12,0,0,1,0,.24ZM18.75,25h-2a.13.13,0,0,1-.13-.12.13.13,0,0,1,.13-.13h2a.13.13,0,0,1,.13.13A.13.13,0,0,1,18.75,25Zm3.5,4.88h-3a.13.13,0,0,1,0-.26h3a.13.13,0,0,1,0,.26Zm2.81-13.19h-2a.12.12,0,0,1-.12-.13.12.12,0,0,1,.12-.12h2a.12.12,0,0,1,.13.12A.13.13,0,0,1,25.06,16.69Zm-8.25,1.12a.12.12,0,0,1-.12.13H16v-.25h.69A.12.12,0,0,1,16.81,17.81Zm6.69,4.81h-3a.12.12,0,0,1,0-.24h3a.12.12,0,0,1,0,.24Zm6,3.5h-3a.12.12,0,0,1,0-.24h3a.12.12,0,0,1,0,.24ZM32,17.69v.25H30.69a.13.13,0,0,1-.13-.13.12.12,0,0,1,.13-.12Zm-2,5.93H28a.12.12,0,0,1,0-.24h2a.12.12,0,0,1,0,.24ZM18.75,25h-2a.13.13,0,0,1-.13-.12.13.13,0,0,1,.13-.13h2a.13.13,0,0,1,.13.13A.13.13,0,0,1,18.75,25Zm3.5,4.88h-3a.13.13,0,0,1,0-.26h3a.13.13,0,0,1,0,.26Zm2.81-13.19h-2a.12.12,0,0,1-.12-.13.12.12,0,0,1,.12-.12h2a.12.12,0,0,1,.13.12A.13.13,0,0,1,25.06,16.69Zm-8.25,1.12a.12.12,0,0,1-.12.13H16v-.25h.69A.12.12,0,0,1,16.81,17.81Zm3.45,2.81a1.09,1.09,0,0,0,.43-.87,1.13,1.13,0,1,0-1.13,1.13h1.5v-.26Zm-1.57-.87a.88.88,0,1,1,.87.87A.87.87,0,0,1,18.69,19.75Zm9.07,2.13a1.13,1.13,0,1,0-.7.24h1.5v-.24ZM26.19,21a.88.88,0,1,1,.87.88A.88.88,0,0,1,26.19,21Zm-3.68,5.88a1.13,1.13,0,1,0-.7.24h1.5v-.24ZM20.94,26a.88.88,0,1,1,.87.88A.88.88,0,0,1,20.94,26ZM29,29.38a1.13,1.13,0,1,0-.7.24h1.5v-.24Zm-1.57-.88a.88.88,0,1,1,.87.88A.88.88,0,0,1,27.44,28.5Z"/></g><g id="mangrove_poly_dense_half-2" data-name="mangrove_poly_dense_half"><rect id="bbox_64-2" data-name="bbox_64" class="cls-1" x="32" width="32" height="32"/><path id="mangrove_dense-5" data-name="mangrove_dense" class="cls-2" d="M39.5,6.62h-3a.12.12,0,1,1,0-.24h3a.12.12,0,0,1,0,.24Zm6,3.5h-3a.12.12,0,1,1,0-.24h3a.12.12,0,0,1,0,.24ZM48,1.69v.25H46.69a.13.13,0,0,1-.13-.13.12.12,0,0,1,.13-.12ZM46,7.62H44a.12.12,0,1,1,0-.24h2a.12.12,0,0,1,0,.24ZM34.75,9h-2a.13.13,0,0,1-.13-.12.13.13,0,0,1,.13-.13h2a.13.13,0,0,1,.13.13A.13.13,0,0,1,34.75,9Zm3.5,4.88h-3a.13.13,0,1,1,0-.26h3a.13.13,0,0,1,0,.26ZM41.06.69h-2a.12.12,0,0,1-.12-.13.12.12,0,0,1,.12-.12h2a.12.12,0,0,1,.13.12A.13.13,0,0,1,41.06.69ZM32.81,1.81a.12.12,0,0,1-.12.13H32V1.69h.69A.12.12,0,0,1,32.81,1.81ZM39.5,6.62h-3a.12.12,0,1,1,0-.24h3a.12.12,0,0,1,0,.24Zm6,3.5h-3a.12.12,0,1,1,0-.24h3a.12.12,0,0,1,0,.24ZM48,1.69v.25H46.69a.13.13,0,0,1-.13-.13.12.12,0,0,1,.13-.12ZM46,7.62H44a.12.12,0,1,1,0-.24h2a.12.12,0,0,1,0,.24ZM34.75,9h-2a.13.13,0,0,1-.13-.12.13.13,0,0,1,.13-.13h2a.13.13,0,0,1,.13.13A.13.13,0,0,1,34.75,9Zm3.5,4.88h-3a.13.13,0,1,1,0-.26h3a.13.13,0,0,1,0,.26ZM41.06.69h-2a.12.12,0,0,1-.12-.13.12.12,0,0,1,.12-.12h2a.12.12,0,0,1,.13.12A.13.13,0,0,1,41.06.69ZM32.81,1.81a.12.12,0,0,1-.12.13H32V1.69h.69A.12.12,0,0,1,32.81,1.81Zm3.45,2.81a1.09,1.09,0,0,0,.43-.87,1.13,1.13,0,1,0-1.13,1.13h1.5V4.62Zm-1.57-.87a.88.88,0,1,1,.87.87A.87.87,0,0,1,34.69,3.75Zm9.07,2.13a1.13,1.13,0,1,0-.7.24h1.5V5.88ZM42.19,5a.88.88,0,1,1,.87.88A.88.88,0,0,1,42.19,5Zm-3.68,5.88a1.13,1.13,0,1,0-.7.24h1.5v-.24ZM36.94,10a.88.88,0,1,1,.87.88A.88.88,0,0,1,36.94,10ZM45,13.38a1.13,1.13,0,1,0-.7.24h1.5v-.24Zm-1.57-.88a.88.88,0,1,1,.87.88A.88.88,0,0,1,43.44,12.5Z"/><path id="mangrove_dense-6" data-name="mangrove_dense" class="cls-2" d="M39.5,22.62h-3a.12.12,0,1,1,0-.24h3a.12.12,0,0,1,0,.24Zm6,3.5h-3a.12.12,0,1,1,0-.24h3a.12.12,0,0,1,0,.24ZM48,17.69v.25H46.69a.13.13,0,0,1-.13-.13.12.12,0,0,1,.13-.12Zm-2,5.93H44a.12.12,0,1,1,0-.24h2a.12.12,0,0,1,0,.24ZM34.75,25h-2a.13.13,0,0,1-.13-.12.13.13,0,0,1,.13-.13h2a.13.13,0,0,1,.13.13A.13.13,0,0,1,34.75,25Zm3.5,4.88h-3a.13.13,0,1,1,0-.26h3a.13.13,0,0,1,0,.26Zm2.81-13.19h-2a.12.12,0,0,1-.12-.13.12.12,0,0,1,.12-.12h2a.12.12,0,0,1,.13.12A.13.13,0,0,1,41.06,16.69Zm-8.25,1.12a.12.12,0,0,1-.12.13H32v-.25h.69A.12.12,0,0,1,32.81,17.81Zm6.69,4.81h-3a.12.12,0,1,1,0-.24h3a.12.12,0,0,1,0,.24Zm6,3.5h-3a.12.12,0,1,1,0-.24h3a.12.12,0,0,1,0,.24ZM48,17.69v.25H46.69a.13.13,0,0,1-.13-.13.12.12,0,0,1,.13-.12Zm-2,5.93H44a.12.12,0,1,1,0-.24h2a.12.12,0,0,1,0,.24ZM34.75,25h-2a.13.13,0,0,1-.13-.12.13.13,0,0,1,.13-.13h2a.13.13,0,0,1,.13.13A.13.13,0,0,1,34.75,25Zm3.5,4.88h-3a.13.13,0,1,1,0-.26h3a.13.13,0,0,1,0,.26Zm2.81-13.19h-2a.12.12,0,0,1-.12-.13.12.12,0,0,1,.12-.12h2a.12.12,0,0,1,.13.12A.13.13,0,0,1,41.06,16.69Zm-8.25,1.12a.12.12,0,0,1-.12.13H32v-.25h.69A.12.12,0,0,1,32.81,17.81Zm3.45,2.81a1.09,1.09,0,0,0,.43-.87,1.13,1.13,0,1,0-1.13,1.13h1.5v-.26Zm-1.57-.87a.88.88,0,1,1,.87.87A.87.87,0,0,1,34.69,19.75Zm9.07,2.13a1.13,1.13,0,1,0-.7.24h1.5v-.24ZM42.19,21a.88.88,0,1,1,.87.88A.88.88,0,0,1,42.19,21Zm-3.68,5.88a1.13,1.13,0,1,0-.7.24h1.5v-.24ZM36.94,26a.88.88,0,1,1,.87.88A.88.88,0,0,1,36.94,26ZM45,29.38a1.13,1.13,0,1,0-.7.24h1.5v-.24Zm-1.57-.88a.88.88,0,1,1,.87.88A.88.88,0,0,1,43.44,28.5Z"/><path id="mangrove_dense-7" data-name="mangrove_dense" class="cls-2" d="M55.5,6.62h-3a.12.12,0,1,1,0-.24h3a.12.12,0,0,1,0,.24Zm6,3.5h-3a.12.12,0,1,1,0-.24h3a.12.12,0,0,1,0,.24ZM64,1.69v.25H62.69a.13.13,0,0,1-.13-.13.12.12,0,0,1,.13-.12ZM62,7.62H60a.12.12,0,0,1,0-.24h2a.12.12,0,1,1,0,.24ZM50.75,9h-2a.13.13,0,0,1-.13-.12.13.13,0,0,1,.13-.13h2a.13.13,0,0,1,.13.13A.13.13,0,0,1,50.75,9Zm3.5,4.88h-3a.13.13,0,1,1,0-.26h3a.13.13,0,0,1,0,.26ZM57.06.69h-2a.12.12,0,0,1-.12-.13.12.12,0,0,1,.12-.12h2a.12.12,0,0,1,.13.12A.13.13,0,0,1,57.06.69ZM48.81,1.81a.12.12,0,0,1-.12.13H48V1.69h.69A.12.12,0,0,1,48.81,1.81ZM55.5,6.62h-3a.12.12,0,1,1,0-.24h3a.12.12,0,0,1,0,.24Zm6,3.5h-3a.12.12,0,1,1,0-.24h3a.12.12,0,0,1,0,.24ZM64,1.69v.25H62.69a.13.13,0,0,1-.13-.13.12.12,0,0,1,.13-.12ZM62,7.62H60a.12.12,0,0,1,0-.24h2a.12.12,0,1,1,0,.24ZM50.75,9h-2a.13.13,0,0,1-.13-.12.13.13,0,0,1,.13-.13h2a.13.13,0,0,1,.13.13A.13.13,0,0,1,50.75,9Zm3.5,4.88h-3a.13.13,0,1,1,0-.26h3a.13.13,0,0,1,0,.26ZM57.06.69h-2a.12.12,0,0,1-.12-.13.12.12,0,0,1,.12-.12h2a.12.12,0,0,1,.13.12A.13.13,0,0,1,57.06.69ZM48.81,1.81a.12.12,0,0,1-.12.13H48V1.69h.69A.12.12,0,0,1,48.81,1.81Zm3.45,2.81a1.09,1.09,0,0,0,.43-.87,1.13,1.13,0,1,0-1.13,1.13h1.5V4.62Zm-1.57-.87a.88.88,0,1,1,.87.87A.87.87,0,0,1,50.69,3.75Zm9.07,2.13a1.13,1.13,0,1,0-.7.24h1.5V5.88ZM58.19,5a.88.88,0,1,1,.87.88A.88.88,0,0,1,58.19,5Zm-3.68,5.88a1.13,1.13,0,1,0-.7.24h1.5v-.24ZM52.94,10a.88.88,0,1,1,.87.88A.88.88,0,0,1,52.94,10ZM61,13.38a1.13,1.13,0,1,0-.7.24h1.5v-.24Zm-1.57-.88a.88.88,0,1,1,.87.88A.88.88,0,0,1,59.44,12.5Z"/><path id="mangrove_dense-8" data-name="mangrove_dense" class="cls-2" d="M55.5,22.62h-3a.12.12,0,1,1,0-.24h3a.12.12,0,0,1,0,.24Zm6,3.5h-3a.12.12,0,1,1,0-.24h3a.12.12,0,0,1,0,.24ZM64,17.69v.25H62.69a.13.13,0,0,1-.13-.13.12.12,0,0,1,.13-.12Zm-2,5.93H60a.12.12,0,1,1,0-.24h2a.12.12,0,0,1,0,.24ZM50.75,25h-2a.13.13,0,0,1-.13-.12.13.13,0,0,1,.13-.13h2a.13.13,0,0,1,.13.13A.13.13,0,0,1,50.75,25Zm3.5,4.88h-3a.13.13,0,1,1,0-.26h3a.13.13,0,0,1,0,.26Zm2.81-13.19h-2a.12.12,0,0,1-.12-.13.12.12,0,0,1,.12-.12h2a.12.12,0,0,1,.13.12A.13.13,0,0,1,57.06,16.69Zm-8.25,1.12a.12.12,0,0,1-.12.13H48v-.25h.69A.12.12,0,0,1,48.81,17.81Zm6.69,4.81h-3a.12.12,0,1,1,0-.24h3a.12.12,0,0,1,0,.24Zm6,3.5h-3a.12.12,0,1,1,0-.24h3a.12.12,0,0,1,0,.24ZM64,17.69v.25H62.69a.13.13,0,0,1-.13-.13.12.12,0,0,1,.13-.12Zm-2,5.93H60a.12.12,0,1,1,0-.24h2a.12.12,0,0,1,0,.24ZM50.75,25h-2a.13.13,0,0,1-.13-.12.13.13,0,0,1,.13-.13h2a.13.13,0,0,1,.13.13A.13.13,0,0,1,50.75,25Zm3.5,4.88h-3a.13.13,0,1,1,0-.26h3a.13.13,0,0,1,0,.26Zm2.81-13.19h-2a.12.12,0,0,1-.12-.13.12.12,0,0,1,.12-.12h2a.12.12,0,0,1,.13.12A.13.13,0,0,1,57.06,16.69Zm-8.25,1.12a.12.12,0,0,1-.12.13H48v-.25h.69A.12.12,0,0,1,48.81,17.81Zm3.45,2.81a1.09,1.09,0,0,0,.43-.87,1.13,1.13,0,1,0-1.13,1.13h1.5v-.26Zm-1.57-.87a.88.88,0,1,1,.87.87A.87.87,0,0,1,50.69,19.75Zm9.07,2.13a1.13,1.13,0,1,0-.7.24h1.5v-.24ZM58.19,21a.88.88,0,1,1,.87.88A.88.88,0,0,1,58.19,21Zm-3.68,5.88a1.13,1.13,0,1,0-.7.24h1.5v-.24ZM52.94,26a.88.88,0,1,1,.87.88A.88.88,0,0,1,52.94,26ZM61,29.38a1.13,1.13,0,1,0-.7.24h1.5v-.24Zm-1.57-.88a.88.88,0,1,1,.87.88A.88.88,0,0,1,59.44,28.5Z"/></g><g id="mangrove_poly_dense_half-3" data-name="mangrove_poly_dense_half"><rect id="bbox_64-3" data-name="bbox_64" class="cls-1" y="32" width="32" height="32"/><path id="mangrove_dense-9" data-name="mangrove_dense" class="cls-2" d="M7.5,38.62h-3a.12.12,0,0,1,0-.24h3a.12.12,0,1,1,0,.24Zm6,3.5h-3a.12.12,0,0,1,0-.24h3a.12.12,0,1,1,0,.24ZM16,33.69v.25H14.69a.13.13,0,0,1-.13-.13.12.12,0,0,1,.13-.12Zm-2,5.93H12a.12.12,0,0,1,0-.24h2a.12.12,0,1,1,0,.24ZM2.75,41h-2a.13.13,0,0,1-.13-.12.13.13,0,0,1,.13-.13h2a.13.13,0,0,1,.13.13A.13.13,0,0,1,2.75,41Zm3.5,4.88h-3a.13.13,0,1,1,0-.26h3a.13.13,0,1,1,0,.26ZM9.06,32.69h-2a.12.12,0,0,1-.12-.13.12.12,0,0,1,.12-.12h2a.12.12,0,0,1,.13.12A.13.13,0,0,1,9.06,32.69ZM.81,33.81a.12.12,0,0,1-.12.13H0v-.25H.69A.12.12,0,0,1,.81,33.81ZM7.5,38.62h-3a.12.12,0,0,1,0-.24h3a.12.12,0,1,1,0,.24Zm6,3.5h-3a.12.12,0,0,1,0-.24h3a.12.12,0,1,1,0,.24ZM16,33.69v.25H14.69a.13.13,0,0,1-.13-.13.12.12,0,0,1,.13-.12Zm-2,5.93H12a.12.12,0,0,1,0-.24h2a.12.12,0,1,1,0,.24ZM2.75,41h-2a.13.13,0,0,1-.13-.12.13.13,0,0,1,.13-.13h2a.13.13,0,0,1,.13.13A.13.13,0,0,1,2.75,41Zm3.5,4.88h-3a.13.13,0,1,1,0-.26h3a.13.13,0,1,1,0,.26ZM9.06,32.69h-2a.12.12,0,0,1-.12-.13.12.12,0,0,1,.12-.12h2a.12.12,0,0,1,.13.12A.13.13,0,0,1,9.06,32.69ZM.81,33.81a.12.12,0,0,1-.12.13H0v-.25H.69A.12.12,0,0,1,.81,33.81Zm3.45,2.81a1.09,1.09,0,0,0,.43-.87,1.13,1.13,0,1,0-1.13,1.13h1.5v-.26Zm-1.57-.87a.88.88,0,1,1,.87.87A.87.87,0,0,1,2.69,35.75Zm9.07,2.13a1.13,1.13,0,1,0-.7.24h1.5v-.24ZM10.19,37a.88.88,0,1,1,.87.88A.88.88,0,0,1,10.19,37ZM6.51,42.88a1.13,1.13,0,1,0-.7.24h1.5v-.24ZM4.94,42a.88.88,0,1,1,.87.88A.88.88,0,0,1,4.94,42ZM13,45.38a1.13,1.13,0,1,0-.7.24h1.5v-.24Zm-1.57-.88a.88.88,0,1,1,.87.88A.88.88,0,0,1,11.44,44.5Z"/><path id="mangrove_dense-10" data-name="mangrove_dense" class="cls-2" d="M7.5,54.62h-3a.12.12,0,0,1,0-.24h3a.12.12,0,1,1,0,.24Zm6,3.5h-3a.12.12,0,0,1,0-.24h3a.12.12,0,1,1,0,.24ZM16,49.69v.25H14.69a.13.13,0,0,1-.13-.13.12.12,0,0,1,.13-.12Zm-2,5.93H12a.12.12,0,0,1,0-.24h2a.12.12,0,1,1,0,.24ZM2.75,57h-2a.13.13,0,0,1-.13-.12.13.13,0,0,1,.13-.13h2a.13.13,0,0,1,.13.13A.13.13,0,0,1,2.75,57Zm3.5,4.88h-3a.13.13,0,1,1,0-.26h3a.13.13,0,0,1,0,.26ZM9.06,48.69h-2a.12.12,0,0,1-.12-.13.12.12,0,0,1,.12-.12h2a.12.12,0,0,1,.13.12A.13.13,0,0,1,9.06,48.69ZM.81,49.81a.12.12,0,0,1-.12.13H0v-.25H.69A.12.12,0,0,1,.81,49.81ZM7.5,54.62h-3a.12.12,0,0,1,0-.24h3a.12.12,0,1,1,0,.24Zm6,3.5h-3a.12.12,0,0,1,0-.24h3a.12.12,0,1,1,0,.24ZM16,49.69v.25H14.69a.13.13,0,0,1-.13-.13.12.12,0,0,1,.13-.12Zm-2,5.93H12a.12.12,0,0,1,0-.24h2a.12.12,0,1,1,0,.24ZM2.75,57h-2a.13.13,0,0,1-.13-.12.13.13,0,0,1,.13-.13h2a.13.13,0,0,1,.13.13A.13.13,0,0,1,2.75,57Zm3.5,4.88h-3a.13.13,0,1,1,0-.26h3a.13.13,0,0,1,0,.26ZM9.06,48.69h-2a.12.12,0,0,1-.12-.13.12.12,0,0,1,.12-.12h2a.12.12,0,0,1,.13.12A.13.13,0,0,1,9.06,48.69ZM.81,49.81a.12.12,0,0,1-.12.13H0v-.25H.69A.12.12,0,0,1,.81,49.81Zm3.45,2.81a1.09,1.09,0,0,0,.43-.87,1.13,1.13,0,1,0-1.13,1.13h1.5v-.26Zm-1.57-.87a.88.88,0,1,1,.87.87A.87.87,0,0,1,2.69,51.75Zm9.07,2.13a1.13,1.13,0,1,0-.7.24h1.5v-.24ZM10.19,53a.88.88,0,1,1,.87.88A.88.88,0,0,1,10.19,53ZM6.51,58.88a1.13,1.13,0,1,0-.7.24h1.5v-.24ZM4.94,58a.88.88,0,1,1,.87.88A.88.88,0,0,1,4.94,58ZM13,61.38a1.13,1.13,0,1,0-.7.24h1.5v-.24Zm-1.57-.88a.88.88,0,1,1,.87.88A.88.88,0,0,1,11.44,60.5Z"/><path id="mangrove_dense-11" data-name="mangrove_dense" class="cls-2" d="M23.5,38.62h-3a.12.12,0,0,1,0-.24h3a.12.12,0,1,1,0,.24Zm6,3.5h-3a.12.12,0,0,1,0-.24h3a.12.12,0,1,1,0,.24ZM32,33.69v.25H30.69a.13.13,0,0,1-.13-.13.12.12,0,0,1,.13-.12Zm-2,5.93H28a.12.12,0,0,1,0-.24h2a.12.12,0,1,1,0,.24ZM18.75,41h-2a.13.13,0,0,1-.13-.12.13.13,0,0,1,.13-.13h2a.13.13,0,0,1,.13.13A.13.13,0,0,1,18.75,41Zm3.5,4.88h-3a.13.13,0,0,1,0-.26h3a.13.13,0,1,1,0,.26Zm2.81-13.19h-2a.12.12,0,0,1-.12-.13.12.12,0,0,1,.12-.12h2a.12.12,0,0,1,.13.12A.13.13,0,0,1,25.06,32.69Zm-8.25,1.12a.12.12,0,0,1-.12.13H16v-.25h.69A.12.12,0,0,1,16.81,33.81Zm6.69,4.81h-3a.12.12,0,0,1,0-.24h3a.12.12,0,1,1,0,.24Zm6,3.5h-3a.12.12,0,0,1,0-.24h3a.12.12,0,1,1,0,.24ZM32,33.69v.25H30.69a.13.13,0,0,1-.13-.13.12.12,0,0,1,.13-.12Zm-2,5.93H28a.12.12,0,0,1,0-.24h2a.12.12,0,1,1,0,.24ZM18.75,41h-2a.13.13,0,0,1-.13-.12.13.13,0,0,1,.13-.13h2a.13.13,0,0,1,.13.13A.13.13,0,0,1,18.75,41Zm3.5,4.88h-3a.13.13,0,0,1,0-.26h3a.13.13,0,1,1,0,.26Zm2.81-13.19h-2a.12.12,0,0,1-.12-.13.12.12,0,0,1,.12-.12h2a.12.12,0,0,1,.13.12A.13.13,0,0,1,25.06,32.69Zm-8.25,1.12a.12.12,0,0,1-.12.13H16v-.25h.69A.12.12,0,0,1,16.81,33.81Zm3.45,2.81a1.09,1.09,0,0,0,.43-.87,1.13,1.13,0,1,0-1.13,1.13h1.5v-.26Zm-1.57-.87a.88.88,0,1,1,.87.87A.87.87,0,0,1,18.69,35.75Zm9.07,2.13a1.13,1.13,0,1,0-.7.24h1.5v-.24ZM26.19,37a.88.88,0,1,1,.87.88A.88.88,0,0,1,26.19,37Zm-3.68,5.88a1.13,1.13,0,1,0-.7.24h1.5v-.24ZM20.94,42a.88.88,0,1,1,.87.88A.88.88,0,0,1,20.94,42ZM29,45.38a1.13,1.13,0,1,0-.7.24h1.5v-.24Zm-1.57-.88a.88.88,0,1,1,.87.88A.88.88,0,0,1,27.44,44.5Z"/><path id="mangrove_dense-12" data-name="mangrove_dense" class="cls-2" d="M23.5,54.62h-3a.12.12,0,0,1,0-.24h3a.12.12,0,1,1,0,.24Zm6,3.5h-3a.12.12,0,0,1,0-.24h3a.12.12,0,1,1,0,.24ZM32,49.69v.25H30.69a.13.13,0,0,1-.13-.13.12.12,0,0,1,.13-.12Zm-2,5.93H28a.12.12,0,0,1,0-.24h2a.12.12,0,1,1,0,.24ZM18.75,57h-2a.13.13,0,0,1-.13-.12.13.13,0,0,1,.13-.13h2a.13.13,0,0,1,.13.13A.13.13,0,0,1,18.75,57Zm3.5,4.88h-3a.13.13,0,0,1,0-.26h3a.13.13,0,1,1,0,.26Zm2.81-13.19h-2a.12.12,0,0,1-.12-.13.12.12,0,0,1,.12-.12h2a.12.12,0,0,1,.13.12A.13.13,0,0,1,25.06,48.69Zm-8.25,1.12a.12.12,0,0,1-.12.13H16v-.25h.69A.12.12,0,0,1,16.81,49.81Zm6.69,4.81h-3a.12.12,0,0,1,0-.24h3a.12.12,0,1,1,0,.24Zm6,3.5h-3a.12.12,0,0,1,0-.24h3a.12.12,0,1,1,0,.24ZM32,49.69v.25H30.69a.13.13,0,0,1-.13-.13.12.12,0,0,1,.13-.12Zm-2,5.93H28a.12.12,0,0,1,0-.24h2a.12.12,0,1,1,0,.24ZM18.75,57h-2a.13.13,0,0,1-.13-.12.13.13,0,0,1,.13-.13h2a.13.13,0,0,1,.13.13A.13.13,0,0,1,18.75,57Zm3.5,4.88h-3a.13.13,0,0,1,0-.26h3a.13.13,0,1,1,0,.26Zm2.81-13.19h-2a.12.12,0,0,1-.12-.13.12.12,0,0,1,.12-.12h2a.12.12,0,0,1,.13.12A.13.13,0,0,1,25.06,48.69Zm-8.25,1.12a.12.12,0,0,1-.12.13H16v-.25h.69A.12.12,0,0,1,16.81,49.81Zm3.45,2.81a1.09,1.09,0,0,0,.43-.87,1.13,1.13,0,1,0-1.13,1.13h1.5v-.26Zm-1.57-.87a.88.88,0,1,1,.87.87A.87.87,0,0,1,18.69,51.75Zm9.07,2.13a1.13,1.13,0,1,0-.7.24h1.5v-.24ZM26.19,53a.88.88,0,1,1,.87.88A.88.88,0,0,1,26.19,53Zm-3.68,5.88a1.13,1.13,0,1,0-.7.24h1.5v-.24ZM20.94,58a.88.88,0,1,1,.87.88A.88.88,0,0,1,20.94,58ZM29,61.38a1.13,1.13,0,1,0-.7.24h1.5v-.24Zm-1.57-.88a.88.88,0,1,1,.87.88A.88.88,0,0,1,27.44,60.5Z"/></g><g id="mangrove_poly_dense_half-4" data-name="mangrove_poly_dense_half"><rect id="bbox_64-4" data-name="bbox_64" class="cls-1" x="32" y="32" width="32" height="32"/><path id="mangrove_dense-13" data-name="mangrove_dense" class="cls-2" d="M39.5,38.62h-3a.12.12,0,0,1,0-.24h3a.12.12,0,0,1,0,.24Zm6,3.5h-3a.12.12,0,0,1,0-.24h3a.12.12,0,0,1,0,.24ZM48,33.69v.25H46.69a.13.13,0,0,1-.13-.13.12.12,0,0,1,.13-.12Zm-2,5.93H44a.12.12,0,0,1,0-.24h2a.12.12,0,0,1,0,.24ZM34.75,41h-2a.13.13,0,0,1-.13-.12.13.13,0,0,1,.13-.13h2a.13.13,0,0,1,.13.13A.13.13,0,0,1,34.75,41Zm3.5,4.88h-3a.13.13,0,0,1,0-.26h3a.13.13,0,0,1,0,.26Zm2.81-13.19h-2a.12.12,0,0,1-.12-.13.12.12,0,0,1,.12-.12h2a.12.12,0,0,1,.13.12A.13.13,0,0,1,41.06,32.69Zm-8.25,1.12a.12.12,0,0,1-.12.13H32v-.25h.69A.12.12,0,0,1,32.81,33.81Zm6.69,4.81h-3a.12.12,0,0,1,0-.24h3a.12.12,0,0,1,0,.24Zm6,3.5h-3a.12.12,0,0,1,0-.24h3a.12.12,0,0,1,0,.24ZM48,33.69v.25H46.69a.13.13,0,0,1-.13-.13.12.12,0,0,1,.13-.12Zm-2,5.93H44a.12.12,0,0,1,0-.24h2a.12.12,0,0,1,0,.24ZM34.75,41h-2a.13.13,0,0,1-.13-.12.13.13,0,0,1,.13-.13h2a.13.13,0,0,1,.13.13A.13.13,0,0,1,34.75,41Zm3.5,4.88h-3a.13.13,0,0,1,0-.26h3a.13.13,0,0,1,0,.26Zm2.81-13.19h-2a.12.12,0,0,1-.12-.13.12.12,0,0,1,.12-.12h2a.12.12,0,0,1,.13.12A.13.13,0,0,1,41.06,32.69Zm-8.25,1.12a.12.12,0,0,1-.12.13H32v-.25h.69A.12.12,0,0,1,32.81,33.81Zm3.45,2.81a1.09,1.09,0,0,0,.43-.87,1.13,1.13,0,1,0-1.13,1.13h1.5v-.26Zm-1.57-.87a.88.88,0,1,1,.87.87A.87.87,0,0,1,34.69,35.75Zm9.07,2.13a1.13,1.13,0,1,0-.7.24h1.5v-.24ZM42.19,37a.88.88,0,1,1,.87.88A.88.88,0,0,1,42.19,37Zm-3.68,5.88a1.13,1.13,0,1,0-.7.24h1.5v-.24ZM36.94,42a.88.88,0,1,1,.87.88A.88.88,0,0,1,36.94,42ZM45,45.38a1.13,1.13,0,1,0-.7.24h1.5v-.24Zm-1.57-.88a.88.88,0,1,1,.87.88A.88.88,0,0,1,43.44,44.5Z"/><path id="mangrove_dense-14" data-name="mangrove_dense" class="cls-2" d="M39.5,54.62h-3a.12.12,0,0,1,0-.24h3a.12.12,0,0,1,0,.24Zm6,3.5h-3a.12.12,0,0,1,0-.24h3a.12.12,0,0,1,0,.24ZM48,49.69v.25H46.69a.13.13,0,0,1-.13-.13.12.12,0,0,1,.13-.12Zm-2,5.93H44a.12.12,0,0,1,0-.24h2a.12.12,0,0,1,0,.24ZM34.75,57h-2a.13.13,0,0,1-.13-.12.13.13,0,0,1,.13-.13h2a.13.13,0,0,1,.13.13A.13.13,0,0,1,34.75,57Zm3.5,4.88h-3a.13.13,0,0,1,0-.26h3a.13.13,0,0,1,0,.26Zm2.81-13.19h-2a.12.12,0,0,1-.12-.13.12.12,0,0,1,.12-.12h2a.12.12,0,0,1,.13.12A.13.13,0,0,1,41.06,48.69Zm-8.25,1.12a.12.12,0,0,1-.12.13H32v-.25h.69A.12.12,0,0,1,32.81,49.81Zm6.69,4.81h-3a.12.12,0,0,1,0-.24h3a.12.12,0,0,1,0,.24Zm6,3.5h-3a.12.12,0,0,1,0-.24h3a.12.12,0,0,1,0,.24ZM48,49.69v.25H46.69a.13.13,0,0,1-.13-.13.12.12,0,0,1,.13-.12Zm-2,5.93H44a.12.12,0,0,1,0-.24h2a.12.12,0,0,1,0,.24ZM34.75,57h-2a.13.13,0,0,1-.13-.12.13.13,0,0,1,.13-.13h2a.13.13,0,0,1,.13.13A.13.13,0,0,1,34.75,57Zm3.5,4.88h-3a.13.13,0,0,1,0-.26h3a.13.13,0,0,1,0,.26Zm2.81-13.19h-2a.12.12,0,0,1-.12-.13.12.12,0,0,1,.12-.12h2a.12.12,0,0,1,.13.12A.13.13,0,0,1,41.06,48.69Zm-8.25,1.12a.12.12,0,0,1-.12.13H32v-.25h.69A.12.12,0,0,1,32.81,49.81Zm3.45,2.81a1.09,1.09,0,0,0,.43-.87,1.13,1.13,0,1,0-1.13,1.13h1.5v-.26Zm-1.57-.87a.88.88,0,1,1,.87.87A.87.87,0,0,1,34.69,51.75Zm9.07,2.13a1.13,1.13,0,1,0-.7.24h1.5v-.24ZM42.19,53a.88.88,0,1,1,.87.88A.88.88,0,0,1,42.19,53Zm-3.68,5.88a1.13,1.13,0,1,0-.7.24h1.5v-.24ZM36.94,58a.88.88,0,1,1,.87.88A.88.88,0,0,1,36.94,58ZM45,61.38a1.13,1.13,0,1,0-.7.24h1.5v-.24Zm-1.57-.88a.88.88,0,1,1,.87.88A.88.88,0,0,1,43.44,60.5Z"/><path id="mangrove_dense-15" data-name="mangrove_dense" class="cls-2" d="M55.5,38.62h-3a.12.12,0,0,1,0-.24h3a.12.12,0,0,1,0,.24Zm6,3.5h-3a.12.12,0,0,1,0-.24h3a.12.12,0,0,1,0,.24ZM64,33.69v.25H62.69a.13.13,0,0,1-.13-.13.12.12,0,0,1,.13-.12Zm-2,5.93H60a.12.12,0,0,1,0-.24h2a.12.12,0,0,1,0,.24ZM50.75,41h-2a.13.13,0,0,1-.13-.12.13.13,0,0,1,.13-.13h2a.13.13,0,0,1,.13.13A.13.13,0,0,1,50.75,41Zm3.5,4.88h-3a.13.13,0,0,1,0-.26h3a.13.13,0,0,1,0,.26Zm2.81-13.19h-2a.12.12,0,0,1-.12-.13.12.12,0,0,1,.12-.12h2a.12.12,0,0,1,.13.12A.13.13,0,0,1,57.06,32.69Zm-8.25,1.12a.12.12,0,0,1-.12.13H48v-.25h.69A.12.12,0,0,1,48.81,33.81Zm6.69,4.81h-3a.12.12,0,0,1,0-.24h3a.12.12,0,0,1,0,.24Zm6,3.5h-3a.12.12,0,0,1,0-.24h3a.12.12,0,0,1,0,.24ZM64,33.69v.25H62.69a.13.13,0,0,1-.13-.13.12.12,0,0,1,.13-.12Zm-2,5.93H60a.12.12,0,0,1,0-.24h2a.12.12,0,0,1,0,.24ZM50.75,41h-2a.13.13,0,0,1-.13-.12.13.13,0,0,1,.13-.13h2a.13.13,0,0,1,.13.13A.13.13,0,0,1,50.75,41Zm3.5,4.88h-3a.13.13,0,0,1,0-.26h3a.13.13,0,0,1,0,.26Zm2.81-13.19h-2a.12.12,0,0,1-.12-.13.12.12,0,0,1,.12-.12h2a.12.12,0,0,1,.13.12A.13.13,0,0,1,57.06,32.69Zm-8.25,1.12a.12.12,0,0,1-.12.13H48v-.25h.69A.12.12,0,0,1,48.81,33.81Zm3.45,2.81a1.09,1.09,0,0,0,.43-.87,1.13,1.13,0,1,0-1.13,1.13h1.5v-.26Zm-1.57-.87a.88.88,0,1,1,.87.87A.87.87,0,0,1,50.69,35.75Zm9.07,2.13a1.13,1.13,0,1,0-.7.24h1.5v-.24ZM58.19,37a.88.88,0,1,1,.87.88A.88.88,0,0,1,58.19,37Zm-3.68,5.88a1.13,1.13,0,1,0-.7.24h1.5v-.24ZM52.94,42a.88.88,0,1,1,.87.88A.88.88,0,0,1,52.94,42ZM61,45.38a1.13,1.13,0,1,0-.7.24h1.5v-.24Zm-1.57-.88a.88.88,0,1,1,.87.88A.88.88,0,0,1,59.44,44.5Z"/><path id="mangrove_dense-16" data-name="mangrove_dense" class="cls-2" d="M55.5,54.62h-3a.12.12,0,0,1,0-.24h3a.12.12,0,0,1,0,.24Zm6,3.5h-3a.12.12,0,0,1,0-.24h3a.12.12,0,0,1,0,.24ZM64,49.69v.25H62.69a.13.13,0,0,1-.13-.13.12.12,0,0,1,.13-.12Zm-2,5.93H60a.12.12,0,0,1,0-.24h2a.12.12,0,0,1,0,.24ZM50.75,57h-2a.13.13,0,0,1-.13-.12.13.13,0,0,1,.13-.13h2a.13.13,0,0,1,.13.13A.13.13,0,0,1,50.75,57Zm3.5,4.88h-3a.13.13,0,0,1,0-.26h3a.13.13,0,0,1,0,.26Zm2.81-13.19h-2a.12.12,0,0,1-.12-.13.12.12,0,0,1,.12-.12h2a.12.12,0,0,1,.13.12A.13.13,0,0,1,57.06,48.69Zm-8.25,1.12a.12.12,0,0,1-.12.13H48v-.25h.69A.12.12,0,0,1,48.81,49.81Zm6.69,4.81h-3a.12.12,0,0,1,0-.24h3a.12.12,0,0,1,0,.24Zm6,3.5h-3a.12.12,0,0,1,0-.24h3a.12.12,0,0,1,0,.24ZM64,49.69v.25H62.69a.13.13,0,0,1-.13-.13.12.12,0,0,1,.13-.12Zm-2,5.93H60a.12.12,0,0,1,0-.24h2a.12.12,0,0,1,0,.24ZM50.75,57h-2a.13.13,0,0,1-.13-.12.13.13,0,0,1,.13-.13h2a.13.13,0,0,1,.13.13A.13.13,0,0,1,50.75,57Zm3.5,4.88h-3a.13.13,0,0,1,0-.26h3a.13.13,0,0,1,0,.26Zm2.81-13.19h-2a.12.12,0,0,1-.12-.13.12.12,0,0,1,.12-.12h2a.12.12,0,0,1,.13.12A.13.13,0,0,1,57.06,48.69Zm-8.25,1.12a.12.12,0,0,1-.12.13H48v-.25h.69A.12.12,0,0,1,48.81,49.81Zm3.45,2.81a1.09,1.09,0,0,0,.43-.87,1.13,1.13,0,1,0-1.13,1.13h1.5v-.26Zm-1.57-.87a.88.88,0,1,1,.87.87A.87.87,0,0,1,50.69,51.75Zm9.07,2.13a1.13,1.13,0,1,0-.7.24h1.5v-.24ZM58.19,53a.88.88,0,1,1,.87.88A.88.88,0,0,1,58.19,53Zm-3.68,5.88a1.13,1.13,0,1,0-.7.24h1.5v-.24ZM52.94,58a.88.88,0,1,1,.87.88A.88.88,0,0,1,52.94,58ZM61,61.38a1.13,1.13,0,1,0-.7.24h1.5v-.24Zm-1.57-.88a.88.88,0,1,1,.87.88A.88.88,0,0,1,59.44,60.5Z"/></g></svg>