<svg id="Sprites" xmlns="http://www.w3.org/2000/svg" viewBox="0 0 64 64"><defs><style>.cls-1{fill:none;}.cls-2{fill:#236035;}</style></defs><g id="mangrove_poly_sparse_half"><rect id="bbox_64" class="cls-1" width="64" height="64"/><path id="mangrove_sparse" class="cls-2" d="M8.52,9.25A2.23,2.23,0,0,0,9.38,7.5,2.25,2.25,0,1,0,7.12,9.75h3v-.5ZM5.38,7.5A1.75,1.75,0,1,1,7.12,9.25,1.75,1.75,0,0,1,5.38,7.5Zm18.14,4.25A2.23,2.23,0,0,0,24.38,10a2.25,2.25,0,1,0-2.26,2.25h3v-.5ZM20.38,10a1.75,1.75,0,1,1,1.74,1.75A1.75,1.75,0,0,1,20.38,10ZM13,21.75A2.23,2.23,0,0,0,13.88,20a2.25,2.25,0,1,0-2.26,2.25h3v-.5ZM9.88,20a1.75,1.75,0,1,1,1.74,1.75A1.75,1.75,0,0,1,9.88,20ZM26,26.75A2.23,2.23,0,0,0,26.88,25a2.25,2.25,0,1,0-2.26,2.25h3v-.5ZM22.88,25a1.75,1.75,0,1,1,1.74,1.75A1.75,1.75,0,0,1,22.88,25Z"/><path id="mangrove_sparse-2" data-name="mangrove_sparse" class="cls-2" d="M8.52,41.25a2.23,2.23,0,0,0,.86-1.75,2.25,2.25,0,1,0-2.26,2.25h3v-.5ZM5.38,39.5a1.75,1.75,0,1,1,1.74,1.75A1.75,1.75,0,0,1,5.38,39.5Zm18.14,4.25A2.23,2.23,0,0,0,24.38,42a2.25,2.25,0,1,0-2.26,2.25h3v-.5ZM20.38,42a1.75,1.75,0,1,1,1.74,1.75A1.75,1.75,0,0,1,20.38,42ZM13,53.75A2.23,2.23,0,0,0,13.88,52a2.25,2.25,0,1,0-2.26,2.25h3v-.5ZM9.88,52a1.75,1.75,0,1,1,1.74,1.75A1.75,1.75,0,0,1,9.88,52ZM26,58.75A2.23,2.23,0,0,0,26.88,57a2.25,2.25,0,1,0-2.26,2.25h3v-.5ZM22.88,57a1.75,1.75,0,1,1,1.74,1.75A1.75,1.75,0,0,1,22.88,57Z"/><path id="mangrove_sparse-3" data-name="mangrove_sparse" class="cls-2" d="M40.52,9.25a2.23,2.23,0,0,0,.86-1.75,2.25,2.25,0,1,0-2.26,2.25h3v-.5ZM37.38,7.5a1.75,1.75,0,1,1,1.74,1.75A1.75,1.75,0,0,1,37.38,7.5Zm18.14,4.25A2.23,2.23,0,0,0,56.38,10a2.25,2.25,0,1,0-2.26,2.25h3v-.5ZM52.38,10a1.75,1.75,0,1,1,1.74,1.75A1.75,1.75,0,0,1,52.38,10ZM45,21.75A2.23,2.23,0,0,0,45.88,20a2.25,2.25,0,1,0-2.26,2.25h3v-.5ZM41.88,20a1.75,1.75,0,1,1,1.74,1.75A1.75,1.75,0,0,1,41.88,20ZM58,26.75A2.23,2.23,0,0,0,58.88,25a2.25,2.25,0,1,0-2.26,2.25h3v-.5ZM54.88,25a1.75,1.75,0,1,1,1.74,1.75A1.75,1.75,0,0,1,54.88,25Z"/><path id="mangrove_sparse-4" data-name="mangrove_sparse" class="cls-2" d="M40.52,41.25a2.23,2.23,0,0,0,.86-1.75,2.25,2.25,0,1,0-2.26,2.25h3v-.5ZM37.38,39.5a1.75,1.75,0,1,1,1.74,1.75A1.75,1.75,0,0,1,37.38,39.5Zm18.14,4.25A2.23,2.23,0,0,0,56.38,42a2.25,2.25,0,1,0-2.26,2.25h3v-.5ZM52.38,42a1.75,1.75,0,1,1,1.74,1.75A1.75,1.75,0,0,1,52.38,42ZM45,53.75A2.23,2.23,0,0,0,45.88,52a2.25,2.25,0,1,0-2.26,2.25h3v-.5ZM41.88,52a1.75,1.75,0,1,1,1.74,1.75A1.75,1.75,0,0,1,41.88,52ZM58,58.75A2.23,2.23,0,0,0,58.88,57a2.25,2.25,0,1,0-2.26,2.25h3v-.5ZM54.88,57a1.75,1.75,0,1,1,1.74,1.75A1.75,1.75,0,0,1,54.88,57Z"/></g></svg>