<svg id="Sprites" xmlns="http://www.w3.org/2000/svg" viewBox="0 0 64 64"><defs><style>.cls-1{fill:none;}.cls-2{fill:#0984ba;}</style></defs><g id="marine_farm_poly_half"><rect id="bbox_64" class="cls-1" width="64" height="64"/><path id="marine_farm" class="cls-2" d="M29,11.25h3v.5H29a1.49,1.49,0,0,1-2.94,0H21a1.49,1.49,0,0,1-2.94,0H13a1.49,1.49,0,0,1-2.94,0H5a1.49,1.49,0,0,1-2.94,0H0v-.5H2a1.49,1.49,0,0,1,2.94,0H10a1.49,1.49,0,0,1,2.94,0H18a1.49,1.49,0,0,1,2.94,0H26a1.49,1.49,0,0,1,2.94,0ZM27.5,18A1.49,1.49,0,0,0,26,19.25H21a1.49,1.49,0,0,0-2.94,0H13a1.49,1.49,0,0,0-2.94,0H5a1.49,1.49,0,0,0-2.94,0H0v.5H2a1.49,1.49,0,0,0,2.94,0H10a1.49,1.49,0,0,0,2.94,0H18a1.49,1.49,0,0,0,2.94,0H26a1.49,1.49,0,0,0,2.94,0h3v-.5H29A1.49,1.49,0,0,0,27.5,18Zm0,8A1.49,1.49,0,0,0,26,27.25H21a1.49,1.49,0,0,0-2.94,0H13a1.49,1.49,0,0,0-2.94,0H5a1.49,1.49,0,0,0-2.94,0H0v.5H2a1.49,1.49,0,0,0,2.94,0H10a1.49,1.49,0,0,0,2.94,0H18a1.49,1.49,0,0,0,2.94,0H26a1.49,1.49,0,0,0,2.94,0h3v-.5H29A1.49,1.49,0,0,0,27.5,26ZM29,3.25a1.49,1.49,0,0,0-2.94,0H21a1.49,1.49,0,0,0-2.94,0H13a1.49,1.49,0,0,0-2.94,0H5A1.49,1.49,0,0,0,2,3.25H0v.5H2A1.49,1.49,0,0,0,5,3.75H10a1.49,1.49,0,0,0,2.94,0H18a1.49,1.49,0,0,0,2.94,0H26a1.49,1.49,0,0,0,2.94,0h3v-.5Z"/><path id="marine_farm-2" data-name="marine_farm" class="cls-2" d="M61,11.25h3v.5H61a1.49,1.49,0,0,1-2.94,0H53a1.49,1.49,0,0,1-2.94,0H45a1.49,1.49,0,0,1-2.94,0H37a1.49,1.49,0,0,1-2.94,0H32v-.5h2a1.49,1.49,0,0,1,2.94,0H42a1.49,1.49,0,0,1,2.94,0H50a1.49,1.49,0,0,1,2.94,0H58a1.49,1.49,0,0,1,2.94,0ZM59.5,18A1.49,1.49,0,0,0,58,19.25H53a1.49,1.49,0,0,0-2.94,0H45a1.49,1.49,0,0,0-2.94,0H37a1.49,1.49,0,0,0-2.94,0H32v.5h2a1.49,1.49,0,0,0,2.94,0H42a1.49,1.49,0,0,0,2.94,0H50a1.49,1.49,0,0,0,2.94,0H58a1.49,1.49,0,0,0,2.94,0h3v-.5H61A1.49,1.49,0,0,0,59.5,18Zm0,8A1.49,1.49,0,0,0,58,27.25H53a1.49,1.49,0,0,0-2.94,0H45a1.49,1.49,0,0,0-2.94,0H37a1.49,1.49,0,0,0-2.94,0H32v.5h2a1.49,1.49,0,0,0,2.94,0H42a1.49,1.49,0,0,0,2.94,0H50a1.49,1.49,0,0,0,2.94,0H58a1.49,1.49,0,0,0,2.94,0h3v-.5H61A1.49,1.49,0,0,0,59.5,26ZM61,3.25a1.49,1.49,0,0,0-2.94,0H53a1.49,1.49,0,0,0-2.94,0H45a1.49,1.49,0,0,0-2.94,0H37a1.49,1.49,0,0,0-2.94,0H32v.5h2a1.49,1.49,0,0,0,2.94,0H42a1.49,1.49,0,0,0,2.94,0H50a1.49,1.49,0,0,0,2.94,0H58a1.49,1.49,0,0,0,2.94,0h3v-.5Z"/><path id="marine_farm-3" data-name="marine_farm" class="cls-2" d="M29,43.25h3v.5H29a1.49,1.49,0,0,1-2.94,0H21a1.49,1.49,0,0,1-2.94,0H13a1.49,1.49,0,0,1-2.94,0H5a1.49,1.49,0,0,1-2.94,0H0v-.5H2a1.49,1.49,0,0,1,2.94,0H10a1.49,1.49,0,0,1,2.94,0H18a1.49,1.49,0,0,1,2.94,0H26a1.49,1.49,0,0,1,2.94,0ZM27.5,50A1.49,1.49,0,0,0,26,51.25H21a1.49,1.49,0,0,0-2.94,0H13a1.49,1.49,0,0,0-2.94,0H5a1.49,1.49,0,0,0-2.94,0H0v.5H2a1.49,1.49,0,0,0,2.94,0H10a1.49,1.49,0,0,0,2.94,0H18a1.49,1.49,0,0,0,2.94,0H26a1.49,1.49,0,0,0,2.94,0h3v-.5H29A1.49,1.49,0,0,0,27.5,50Zm0,8A1.49,1.49,0,0,0,26,59.25H21a1.49,1.49,0,0,0-2.94,0H13a1.49,1.49,0,0,0-2.94,0H5a1.49,1.49,0,0,0-2.94,0H0v.5H2a1.49,1.49,0,0,0,2.94,0H10a1.49,1.49,0,0,0,2.94,0H18a1.49,1.49,0,0,0,2.94,0H26a1.49,1.49,0,0,0,2.94,0h3v-.5H29A1.49,1.49,0,0,0,27.5,58ZM29,35.25a1.49,1.49,0,0,0-2.94,0H21a1.49,1.49,0,0,0-2.94,0H13a1.49,1.49,0,0,0-2.94,0H5a1.49,1.49,0,0,0-2.94,0H0v.5H2a1.49,1.49,0,0,0,2.94,0H10a1.49,1.49,0,0,0,2.94,0H18a1.49,1.49,0,0,0,2.94,0H26a1.49,1.49,0,0,0,2.94,0h3v-.5Z"/><path id="marine_farm-4" data-name="marine_farm" class="cls-2" d="M61,43.25h3v.5H61a1.49,1.49,0,0,1-2.94,0H53a1.49,1.49,0,0,1-2.94,0H45a1.49,1.49,0,0,1-2.94,0H37a1.49,1.49,0,0,1-2.94,0H32v-.5h2a1.49,1.49,0,0,1,2.94,0H42a1.49,1.49,0,0,1,2.94,0H50a1.49,1.49,0,0,1,2.94,0H58a1.49,1.49,0,0,1,2.94,0ZM59.5,50A1.49,1.49,0,0,0,58,51.25H53a1.49,1.49,0,0,0-2.94,0H45a1.49,1.49,0,0,0-2.94,0H37a1.49,1.49,0,0,0-2.94,0H32v.5h2a1.49,1.49,0,0,0,2.94,0H42a1.49,1.49,0,0,0,2.94,0H50a1.49,1.49,0,0,0,2.94,0H58a1.49,1.49,0,0,0,2.94,0h3v-.5H61A1.49,1.49,0,0,0,59.5,50Zm0,8A1.49,1.49,0,0,0,58,59.25H53a1.49,1.49,0,0,0-2.94,0H45a1.49,1.49,0,0,0-2.94,0H37a1.49,1.49,0,0,0-2.94,0H32v.5h2a1.49,1.49,0,0,0,2.94,0H42a1.49,1.49,0,0,0,2.94,0H50a1.49,1.49,0,0,0,2.94,0H58a1.49,1.49,0,0,0,2.94,0h3v-.5H61A1.49,1.49,0,0,0,59.5,58ZM61,35.25a1.49,1.49,0,0,0-2.94,0H53a1.49,1.49,0,0,0-2.94,0H45a1.49,1.49,0,0,0-2.94,0H37a1.49,1.49,0,0,0-2.94,0H32v.5h2a1.49,1.49,0,0,0,2.94,0H42a1.49,1.49,0,0,0,2.94,0H50a1.49,1.49,0,0,0,2.94,0H58a1.49,1.49,0,0,0,2.94,0h3v-.5Z"/></g></svg>