<svg id="Sprites" xmlns="http://www.w3.org/2000/svg" viewBox="0 0 64 64"><defs><style>.cls-1{fill:none;}.cls-2{fill:#0984ba;}</style></defs><g id="marine_farm_poly_blue"><rect id="bbox_64" class="cls-1" width="64" height="64"/><path id="marine_farm" class="cls-2" d="M58,22.5h6v1H58a3,3,0,0,1-5.9,0H42a3,3,0,0,1-5.9,0H26a3,3,0,0,1-5.9,0H10a3,3,0,0,1-5.9,0H0v-1H4.05a3,3,0,0,1,5.9,0h10.1a3,3,0,0,1,5.9,0h10.1a3,3,0,0,1,5.9,0h10.1a3,3,0,0,1,5.9,0ZM55,36a3,3,0,0,0-3,2.5H42a3,3,0,0,0-5.9,0H26a3,3,0,0,0-5.9,0H10a3,3,0,0,0-5.9,0H0v1H4.05a3,3,0,0,0,5.9,0h10.1a3,3,0,0,0,5.9,0h10.1a3,3,0,0,0,5.9,0h10.1a3,3,0,0,0,5.9,0h6v-1H58A3,3,0,0,0,55,36Zm0,16a3,3,0,0,0-3,2.5H42a3,3,0,0,0-5.9,0H26a3,3,0,0,0-5.9,0H10a3,3,0,0,0-5.9,0H0v1H4.05a3,3,0,0,0,5.9,0h10.1a3,3,0,0,0,5.9,0h10.1a3,3,0,0,0,5.9,0h10.1a3,3,0,0,0,5.9,0h6v-1H58A3,3,0,0,0,55,52ZM58,6.5a3,3,0,0,0-5.9,0H42a3,3,0,0,0-5.9,0H26a3,3,0,0,0-5.9,0H10a3,3,0,0,0-5.9,0H0v1H4.05a3,3,0,0,0,5.9,0h10.1a3,3,0,0,0,5.9,0h10.1a3,3,0,0,0,5.9,0h10.1a3,3,0,0,0,5.9,0h6v-1Z"/></g></svg>