<svg id="Sprites" xmlns="http://www.w3.org/2000/svg" viewBox="0 0 16 16"><path id="mine_pnt_opencast" d="M12.68,4l.17-.18a.49.49,0,0,0-.7-.7L12,3.32A6.35,6.35,0,0,0,9.1,2a.5.5,0,0,0-.2,1,5.44,5.44,0,0,1,2.36,1L8,7.29,5.35,4.65,7,3,5.5,1.5,3.85,3.15a.49.49,0,0,0-.7.7L1.5,5.5,3,7,4.65,5.35,7.29,8,3.15,12.15a.48.48,0,0,0,0,.7.48.48,0,0,0,.7,0L8,8.71l4.15,4.14a.48.48,0,0,0,.7,0,.48.48,0,0,0,0-.7L8.71,8,12,4.74A5.44,5.44,0,0,1,13,7.1a.5.5,0,0,0,.49.4h.1A.5.5,0,0,0,14,6.9,6.35,6.35,0,0,0,12.68,4Z"/></svg>