<svg id="Sprites" xmlns="http://www.w3.org/2000/svg" viewBox="0 0 64 64"><defs><style>.cls-1{fill:none;}</style></defs><g id="moraine_poly_black"><rect id="bbox_64" class="cls-1" width="64" height="64"/><path id="moraine" d="M12,17a1.5,1.5,0,1,1-1.5-1.5A1.5,1.5,0,0,1,12,17Zm6.5,9A1.5,1.5,0,1,0,20,27.5,1.5,1.5,0,0,0,18.5,26Zm36,20A1.5,1.5,0,1,0,56,47.5,1.5,1.5,0,0,0,54.5,46Zm-4-20.5A1.5,1.5,0,1,0,52,27,1.5,1.5,0,0,0,50.5,25.5ZM41.5,10A1.5,1.5,0,1,0,43,11.5,1.5,1.5,0,0,0,41.5,10ZM15,35.5A1.5,1.5,0,1,0,16.5,37,1.5,1.5,0,0,0,15,35.5Zm24,14A1.5,1.5,0,1,0,40.5,51,1.5,1.5,0,0,0,39,49.5Zm-7-25A1.5,1.5,0,1,0,33.5,26,1.5,1.5,0,0,0,32,24.5Zm10.5,12A1.5,1.5,0,1,0,44,38,1.5,1.5,0,0,0,42.5,36.5ZM23,7.5A1.5,1.5,0,1,0,24.5,9,1.5,1.5,0,0,0,23,7.5ZM8,39.5A1.5,1.5,0,1,0,9.5,41,1.5,1.5,0,0,0,8,39.5ZM1.5,55.6A1.5,1.5,0,1,0,3,57.1,1.5,1.5,0,0,0,1.5,55.6ZM17.33,61a1.5,1.5,0,1,0,1.5,1.5A1.5,1.5,0,0,0,17.33,61ZM54.5,3A1.5,1.5,0,1,0,56,4.5,1.5,1.5,0,0,0,54.5,3Zm-36,23A1.5,1.5,0,1,0,20,27.5,1.5,1.5,0,0,0,18.5,26Zm32-.5A1.5,1.5,0,1,0,52,27,1.5,1.5,0,0,0,50.5,25.5Zm-8-9A1.5,1.5,0,1,0,44,18,1.5,1.5,0,0,0,42.5,16.5ZM25,50a1.5,1.5,0,1,0,1.5,1.5A1.5,1.5,0,0,0,25,50Zm14-.5A1.5,1.5,0,1,0,40.5,51,1.5,1.5,0,0,0,39,49.5ZM28,31a1.5,1.5,0,1,0,1.5,1.5A1.5,1.5,0,0,0,28,31Zm14.5,5.5A1.5,1.5,0,1,0,44,38,1.5,1.5,0,0,0,42.5,36.5Zm-13,5a1,1,0,1,0,1,1A1,1,0,0,0,29.5,41.5Zm-9-6.5a1,1,0,1,0,1,1A1,1,0,0,0,20.5,35Zm5-8.5a1,1,0,1,0,1,1A1,1,0,0,0,25.5,26.5Zm8,8a1,1,0,1,0,1,1A1,1,0,0,0,33.5,34.5ZM16,43a1,1,0,1,0,1,1A1,1,0,0,0,16,43ZM3,45.5a1,1,0,1,0,1,1A1,1,0,0,0,3,45.5ZM9.5,54a1,1,0,1,0,1,1A1,1,0,0,0,9.5,54Zm-3,5a1,1,0,1,0,1,1A1,1,0,0,0,6.5,59Zm15-2a1,1,0,1,0,1,1A1,1,0,0,0,21.5,57ZM32,53a1,1,0,1,0,1,1A1,1,0,0,0,32,53Zm6,5.5a1,1,0,1,0,1,1A1,1,0,0,0,38,58.5Zm14.5-1a1,1,0,1,0,1,1A1,1,0,0,0,52.5,57.5ZM48,49a1,1,0,1,0,1,1A1,1,0,0,0,48,49Zm1.5-7a1,1,0,1,0,1,1A1,1,0,0,0,49.5,42ZM59,39.5a1,1,0,1,0,1,1A1,1,0,0,0,59,39.5Zm-11.5-6a1,1,0,1,0,1,1A1,1,0,0,0,47.5,33.5Zm13.5-7a1,1,0,1,0,1,1A1,1,0,0,0,61,26.5ZM58.5,22a1,1,0,1,0,1,1A1,1,0,0,0,58.5,22ZM44,23a1,1,0,1,0,1,1A1,1,0,0,0,44,23Zm-6.5-8.5a1,1,0,1,0,1,1A1,1,0,0,0,37.5,14.5Zm11,2.5a1,1,0,1,0,1,1A1,1,0,0,0,48.5,17ZM55,18a1,1,0,1,0,1,1A1,1,0,0,0,55,18ZM60.5,6.5a1,1,0,1,0,1,1A1,1,0,0,0,60.5,6.5ZM36.5,5a1,1,0,1,0,1,1A1,1,0,0,0,36.5,5Zm-4-3a1,1,0,1,0,1,1A1,1,0,0,0,32.5,2Zm-2,11a1,1,0,1,0,1,1A1,1,0,0,0,30.5,13ZM27,20.5a1,1,0,1,0,1,1A1,1,0,0,0,27,20.5Zm-10.5-3a1,1,0,1,0,1,1A1,1,0,0,0,16.5,17.5ZM15.5,9a1,1,0,1,0,1,1A1,1,0,0,0,15.5,9Zm-7-4.5a1,1,0,1,0,1,1A1,1,0,0,0,8.5,4.5ZM6.5,27a1,1,0,1,0,1,1A1,1,0,0,0,6.5,27Zm34,3.5a1,1,0,1,0,1,1A1,1,0,0,0,40.5,30.5ZM28.5,57a1,1,0,1,0,1,1A1,1,0,0,0,28.5,57ZM33,46.5a1,1,0,1,0,1,1A1,1,0,0,0,33,46.5ZM59.5,59a1,1,0,1,0,1,1A1,1,0,0,0,59.5,59ZM53,35.5a1,1,0,1,0,1,1A1,1,0,0,0,53,35.5ZM58.5,31a1,1,0,1,0,1,1A1,1,0,0,0,58.5,31ZM54.33,9.5a1,1,0,1,0,1,1A1,1,0,0,0,54.33,9.5Zm7,4a1,1,0,1,0,1,1A1,1,0,0,0,61.33,13.5Zm-50.83-3a1,1,0,1,0,1,1A1,1,0,0,0,10.5,10.5Zm0,12.5a1,1,0,1,0,1,1A1,1,0,0,0,10.5,23ZM14,30a1,1,0,1,0,1,1A1,1,0,0,0,14,30ZM8.5,47.5a1,1,0,1,0,1,1A1,1,0,0,0,8.5,47.5ZM15,56a1,1,0,1,0,1,1A1,1,0,0,0,15,56ZM35.5,20a1,1,0,1,0,1,1A1,1,0,0,0,35.5,20ZM20.5,2.5a1,1,0,1,0,1,1A1,1,0,0,0,20.5,2.5ZM14,2a1,1,0,1,0,1,1A1,1,0,0,0,14,2Zm1.5,20.5a1,1,0,1,0,1,1A1,1,0,0,0,15.5,22.5ZM7.5,35a1,1,0,1,0,1,1A1,1,0,0,0,7.5,35Zm31,8.5a1,1,0,1,0,1,1A1,1,0,0,0,38.5,43.5Zm18,9.5a1,1,0,1,0,1,1A1,1,0,0,0,56.5,53ZM4,9a1.5,1.5,0,1,0,1.5,1.5A1.5,1.5,0,0,0,4,9ZM8,39.5A1.5,1.5,0,1,0,9.5,41,1.5,1.5,0,0,0,8,39.5ZM22.5,18A1.5,1.5,0,1,0,24,19.5,1.5,1.5,0,0,0,22.5,18Zm26-11.5A1.5,1.5,0,1,0,50,8,1.5,1.5,0,0,0,48.5,6.5ZM23,42a1.5,1.5,0,1,0,1.5,1.5A1.5,1.5,0,0,0,23,42ZM45.5,56A1.5,1.5,0,1,0,47,57.5,1.5,1.5,0,0,0,45.5,56ZM40,25.5A1.5,1.5,0,1,0,41.5,27,1.5,1.5,0,0,0,40,25.5Zm-9.5-19A1.5,1.5,0,1,0,32,8,1.5,1.5,0,0,0,30.5,6.5ZM14,49a1.5,1.5,0,1,0,1.5,1.5A1.5,1.5,0,0,0,14,49ZM1.5,55.6A1.5,1.5,0,1,0,3,57.1,1.5,1.5,0,0,0,1.5,55.6ZM17.33,61a1.5,1.5,0,1,0,1.5,1.5A1.5,1.5,0,0,0,17.33,61ZM54.5,3A1.5,1.5,0,1,0,56,4.5,1.5,1.5,0,0,0,54.5,3ZM60,48.5a1,1,0,1,0,1,1A1,1,0,0,0,60,48.5ZM.5,18.5a1.39,1.39,0,0,0-.5.09v2.82a1.39,1.39,0,0,0,.5.09,1.5,1.5,0,0,0,0-3Zm1,37.1A1.5,1.5,0,1,0,3,57.1,1.5,1.5,0,0,0,1.5,55.6Zm1-54.1a1,1,0,1,0,1,1A1,1,0,0,0,2.5,1.5Zm0,50a1,1,0,1,0,1,1A1,1,0,0,0,2.5,51.5ZM2,33a1,1,0,1,0,1,1A1,1,0,0,0,2,33ZM1,40a1.47,1.47,0,0,0-1,.39v2.22A1.47,1.47,0,0,0,1,43a1.5,1.5,0,0,0,0-3ZM63,20a1.5,1.5,0,0,0,1,1.41V18.59A1.5,1.5,0,0,0,63,20Zm.5,21.5a1.47,1.47,0,0,0,.5,1.11V40.39A1.47,1.47,0,0,0,63.5,41.5Zm-43-28a1,1,0,1,0,1,1A1,1,0,0,0,20.5,13.5Zm6,23.5a1,1,0,1,0,1,1A1,1,0,0,0,26.5,37ZM20,51a1,1,0,1,0,1,1A1,1,0,0,0,20,51ZM36.5,38.5a1,1,0,1,0,1,1A1,1,0,0,0,36.5,38.5Zm8,6.5a1,1,0,1,0,1,1A1,1,0,0,0,44.5,45ZM6,20a1,1,0,1,0,1,1A1,1,0,0,0,6,20Zm5.5,40a1,1,0,1,0,1,1A1,1,0,0,0,11.5,60Zm-9-35a1,1,0,1,0,1,1A1,1,0,0,0,2.5,25ZM60,1a1,1,0,1,0,1,1A1,1,0,0,0,60,1ZM26.11,62a1,1,0,1,0,1,1A1,1,0,0,0,26.11,62ZM27.5,3.5a1,1,0,1,0,1,1A1,1,0,0,0,27.5,3.5ZM34,60a1,1,0,1,0,1,1A1,1,0,0,0,34,60ZM43.5,2.5a1,1,0,1,0,1,1A1,1,0,0,0,43.5,2.5ZM49,61a1,1,0,1,0,1,1A1,1,0,0,0,49,61ZM39.59,0A1.5,1.5,0,0,0,41,1a1.5,1.5,0,0,0,1.41-1ZM41,62a1.5,1.5,0,0,0-1.5,1.5,1.39,1.39,0,0,0,.09.5h2.82a1.39,1.39,0,0,0,.09-.5A1.5,1.5,0,0,0,41,62Z"/></g></svg>