<svg id="Sprites" xmlns="http://www.w3.org/2000/svg" viewBox="0 0 64 64"><defs><style>.cls-1{fill:none;}</style></defs><g id="moraine_poly_half"><rect id="bbox_64" class="cls-1" width="64" height="64"/><path id="moraine" d="M6,8.5a.75.75,0,1,1-.75-.75A.76.76,0,0,1,6,8.5ZM9.25,13a.75.75,0,1,0,.75.75A.76.76,0,0,0,9.25,13Zm18,10a.75.75,0,1,0,.75.75A.76.76,0,0,0,27.25,23Zm-2-10.25a.75.75,0,1,0,.75.75A.76.76,0,0,0,25.25,12.75ZM20.75,5a.75.75,0,1,0,.75.75A.76.76,0,0,0,20.75,5ZM7.5,17.75a.75.75,0,1,0,.75.75A.76.76,0,0,0,7.5,17.75Zm12,7a.75.75,0,1,0,.75.75A.76.76,0,0,0,19.5,24.75ZM16,12.25a.75.75,0,1,0,.75.75A.76.76,0,0,0,16,12.25Zm5.25,6A.75.75,0,1,0,22,19,.76.76,0,0,0,21.25,18.25ZM11.5,3.75a.75.75,0,1,0,.75.75A.76.76,0,0,0,11.5,3.75ZM4,19.75a.75.75,0,1,0,.75.75A.76.76,0,0,0,4,19.75ZM.75,27.8a.75.75,0,1,0,.75.75A.75.75,0,0,0,.75,27.8Zm7.91,2.7a.75.75,0,1,0,.75.75A.76.76,0,0,0,8.66,30.5Zm18.59-29a.75.75,0,1,0,.75.75A.76.76,0,0,0,27.25,1.5ZM9.25,13a.75.75,0,1,0,.75.75A.76.76,0,0,0,9.25,13Zm16-.25a.75.75,0,1,0,.75.75A.76.76,0,0,0,25.25,12.75Zm-4-4.5A.75.75,0,1,0,22,9,.76.76,0,0,0,21.25,8.25ZM12.5,25a.75.75,0,1,0,.75.75A.76.76,0,0,0,12.5,25Zm7-.25a.75.75,0,1,0,.75.75A.76.76,0,0,0,19.5,24.75ZM14,15.5a.75.75,0,1,0,.75.75A.76.76,0,0,0,14,15.5Zm7.25,2.75A.75.75,0,1,0,22,19,.76.76,0,0,0,21.25,18.25Zm-6.5,2.5a.5.5,0,1,0,.5.5A.5.5,0,0,0,14.75,20.75Zm-4.5-3.25a.5.5,0,1,0,.5.5A.5.5,0,0,0,10.25,17.5Zm2.5-4.25a.5.5,0,1,0,.5.5A.5.5,0,0,0,12.75,13.25Zm4,4a.5.5,0,1,0,.5.5A.5.5,0,0,0,16.75,17.25ZM8,21.5a.5.5,0,1,0,.5.5A.5.5,0,0,0,8,21.5ZM1.5,22.75a.5.5,0,1,0,.5.5A.5.5,0,0,0,1.5,22.75ZM4.75,27a.5.5,0,1,0,.5.5A.5.5,0,0,0,4.75,27Zm-1.5,2.5a.5.5,0,1,0,.5.5A.5.5,0,0,0,3.25,29.5Zm7.5-1a.5.5,0,1,0,.5.5A.5.5,0,0,0,10.75,28.5Zm5.25-2a.5.5,0,1,0,.5.5A.5.5,0,0,0,16,26.5Zm3,2.75a.5.5,0,1,0,.5.5A.5.5,0,0,0,19,29.25Zm7.25-.5a.5.5,0,1,0,.5.5A.5.5,0,0,0,26.25,28.75ZM24,24.5a.5.5,0,1,0,.5.5A.5.5,0,0,0,24,24.5Zm.75-3.5a.5.5,0,1,0,.5.5A.5.5,0,0,0,24.75,21Zm4.75-1.25a.5.5,0,1,0,.5.5A.5.5,0,0,0,29.5,19.75Zm-5.75-3a.5.5,0,1,0,.5.5A.5.5,0,0,0,23.75,16.75Zm6.75-3.5a.5.5,0,1,0,.5.5A.5.5,0,0,0,30.5,13.25ZM29.25,11a.5.5,0,1,0,.5.5A.5.5,0,0,0,29.25,11ZM22,11.5a.5.5,0,1,0,.5.5A.5.5,0,0,0,22,11.5ZM18.75,7.25a.5.5,0,1,0,.5.5A.5.5,0,0,0,18.75,7.25Zm5.5,1.25a.5.5,0,1,0,.5.5A.5.5,0,0,0,24.25,8.5ZM27.5,9a.5.5,0,1,0,.5.5A.5.5,0,0,0,27.5,9Zm2.75-5.75a.5.5,0,1,0,.5.5A.5.5,0,0,0,30.25,3.25Zm-12-.75a.5.5,0,1,0,.5.5A.5.5,0,0,0,18.25,2.5Zm-2-1.5a.5.5,0,1,0,.5.5A.5.5,0,0,0,16.25,1Zm-1,5.5a.5.5,0,1,0,.5.5A.5.5,0,0,0,15.25,6.5ZM13.5,10.25a.5.5,0,1,0,.5.5A.5.5,0,0,0,13.5,10.25ZM8.25,8.75a.5.5,0,1,0,.5.5A.5.5,0,0,0,8.25,8.75ZM7.75,4.5a.5.5,0,1,0,.5.5A.5.5,0,0,0,7.75,4.5ZM4.25,2.25a.5.5,0,1,0,.5.5A.5.5,0,0,0,4.25,2.25Zm-1,11.25a.5.5,0,1,0,.5.5A.5.5,0,0,0,3.25,13.5Zm17,1.75a.5.5,0,1,0,.5.5A.5.5,0,0,0,20.25,15.25Zm-6,13.25a.5.5,0,1,0,.5.5A.5.5,0,0,0,14.25,28.5Zm2.25-5.25a.5.5,0,1,0,.5.5A.5.5,0,0,0,16.5,23.25ZM29.75,29.5a.5.5,0,1,0,.5.5A.5.5,0,0,0,29.75,29.5ZM26.5,17.75a.5.5,0,1,0,.5.5A.5.5,0,0,0,26.5,17.75Zm2.75-2.25a.5.5,0,1,0,.5.5A.5.5,0,0,0,29.25,15.5ZM27.16,4.75a.5.5,0,1,0,0,1,.5.5,0,0,0,0-1Zm3.5,2a.5.5,0,1,0,0,1,.5.5,0,0,0,0-1ZM5.25,5.25a.5.5,0,1,0,.5.5A.5.5,0,0,0,5.25,5.25Zm0,6.25a.5.5,0,1,0,.5.5A.5.5,0,0,0,5.25,11.5ZM7,15a.5.5,0,1,0,.5.5A.5.5,0,0,0,7,15ZM4.25,23.75a.5.5,0,1,0,.5.5A.5.5,0,0,0,4.25,23.75ZM7.5,28a.5.5,0,1,0,.5.5A.5.5,0,0,0,7.5,28ZM17.75,10a.5.5,0,1,0,.5.5A.5.5,0,0,0,17.75,10Zm-7.5-8.75a.5.5,0,1,0,.5.5A.5.5,0,0,0,10.25,1.25ZM7,1a.5.5,0,1,0,.5.5A.5.5,0,0,0,7,1Zm.75,10.25a.5.5,0,1,0,.5.5A.5.5,0,0,0,7.75,11.25Zm-4,6.25a.5.5,0,1,0,.5.5A.5.5,0,0,0,3.75,17.5Zm15.5,4.25a.5.5,0,1,0,.5.5A.5.5,0,0,0,19.25,21.75Zm9,4.75a.5.5,0,1,0,.5.5A.5.5,0,0,0,28.25,26.5ZM2,4.5a.75.75,0,1,0,.75.75A.76.76,0,0,0,2,4.5ZM4,19.75a.75.75,0,1,0,.75.75A.76.76,0,0,0,4,19.75ZM11.25,9a.75.75,0,1,0,.75.75A.76.76,0,0,0,11.25,9Zm13-5.75A.75.75,0,1,0,25,4,.76.76,0,0,0,24.25,3.25ZM11.5,21a.75.75,0,1,0,.75.75A.76.76,0,0,0,11.5,21Zm11.25,7a.75.75,0,1,0,.75.75A.76.76,0,0,0,22.75,28ZM20,12.75a.75.75,0,1,0,.75.75A.76.76,0,0,0,20,12.75Zm-4.75-9.5A.75.75,0,1,0,16,4,.76.76,0,0,0,15.25,3.25ZM7,24.5a.75.75,0,1,0,.75.75A.76.76,0,0,0,7,24.5ZM.75,27.8a.75.75,0,1,0,.75.75A.75.75,0,0,0,.75,27.8Zm7.91,2.7a.75.75,0,1,0,.75.75A.76.76,0,0,0,8.66,30.5Zm18.59-29a.75.75,0,1,0,.75.75A.76.76,0,0,0,27.25,1.5ZM30,24.25a.5.5,0,1,0,.5.5A.5.5,0,0,0,30,24.25ZM.25,9.25a.69.69,0,0,0-.25,0V10.7a.7.7,0,0,0,.25.05A.75.75,0,0,0,1,10,.74.74,0,0,0,.25,9.25ZM.75,27.8a.75.75,0,1,0,.75.75A.75.75,0,0,0,.75,27.8Zm.5-27a.5.5,0,1,0,.5.5A.5.5,0,0,0,1.25.75Zm0,25a.5.5,0,1,0,.5.5A.5.5,0,0,0,1.25,25.75ZM1,16.5a.5.5,0,1,0,.5.5A.5.5,0,0,0,1,16.5ZM.5,20a.69.69,0,0,0-.5.2v1.1a.73.73,0,0,0,.5.2.75.75,0,0,0,.75-.75A.74.74,0,0,0,.5,20Zm31-10a.75.75,0,0,0,.5.7V9.29A.75.75,0,0,0,31.5,10Zm.25,10.75a.73.73,0,0,0,.25.55V20.2A.73.73,0,0,0,31.75,20.75Zm-21.5-14a.5.5,0,1,0,.5.5A.5.5,0,0,0,10.25,6.75Zm3,11.75a.5.5,0,1,0,.5.5A.5.5,0,0,0,13.25,18.5ZM10,25.5a.5.5,0,1,0,.5.5A.5.5,0,0,0,10,25.5Zm8.25-6.25a.5.5,0,1,0,.5.5A.5.5,0,0,0,18.25,19.25Zm4,3.25a.5.5,0,1,0,.5.5A.5.5,0,0,0,22.25,22.5ZM3,10a.5.5,0,1,0,.5.5A.5.5,0,0,0,3,10ZM5.75,30a.5.5,0,1,0,.5.5A.5.5,0,0,0,5.75,30ZM1.25,12.5a.5.5,0,1,0,.5.5A.5.5,0,0,0,1.25,12.5ZM30,.5a.5.5,0,1,0,.5.5A.5.5,0,0,0,30,.5ZM13.05,31a.5.5,0,1,0,0,1,.5.5,0,0,0,0-1Zm.7-29.25a.5.5,0,1,0,.5.5A.5.5,0,0,0,13.75,1.75ZM17,30a.5.5,0,1,0,.5.5A.5.5,0,0,0,17,30ZM21.75,1.25a.5.5,0,1,0,.5.5A.5.5,0,0,0,21.75,1.25ZM24.5,30.5a.5.5,0,1,0,.5.5A.5.5,0,0,0,24.5,30.5ZM19.8,0a.73.73,0,0,0,.7.5.73.73,0,0,0,.7-.5Zm.7,31a.74.74,0,0,0-.75.75.7.7,0,0,0,.05.25h1.4a.7.7,0,0,0,.05-.25A.74.74,0,0,0,20.5,31Z"/><path id="moraine-2" data-name="moraine" d="M6,40.5a.75.75,0,1,1-.75-.75A.76.76,0,0,1,6,40.5ZM9.25,45a.75.75,0,1,0,.75.75A.76.76,0,0,0,9.25,45Zm18,10a.75.75,0,1,0,.75.75A.76.76,0,0,0,27.25,55Zm-2-10.25a.75.75,0,1,0,.75.75A.76.76,0,0,0,25.25,44.75ZM20.75,37a.75.75,0,1,0,.75.75A.76.76,0,0,0,20.75,37ZM7.5,49.75a.75.75,0,1,0,.75.75A.76.76,0,0,0,7.5,49.75Zm12,7a.75.75,0,1,0,.75.75A.76.76,0,0,0,19.5,56.75ZM16,44.25a.75.75,0,1,0,.75.75A.76.76,0,0,0,16,44.25Zm5.25,6A.75.75,0,1,0,22,51,.76.76,0,0,0,21.25,50.25ZM11.5,35.75a.75.75,0,1,0,.75.75A.76.76,0,0,0,11.5,35.75ZM4,51.75a.75.75,0,1,0,.75.75A.76.76,0,0,0,4,51.75Zm-3.25,8a.75.75,0,1,0,.75.75A.75.75,0,0,0,.75,59.8Zm7.91,2.7a.75.75,0,1,0,.75.75A.76.76,0,0,0,8.66,62.5Zm18.59-29a.75.75,0,1,0,.75.75A.76.76,0,0,0,27.25,33.5ZM9.25,45a.75.75,0,1,0,.75.75A.76.76,0,0,0,9.25,45Zm16-.25a.75.75,0,1,0,.75.75A.76.76,0,0,0,25.25,44.75Zm-4-4.5A.75.75,0,1,0,22,41,.76.76,0,0,0,21.25,40.25ZM12.5,57a.75.75,0,1,0,.75.75A.76.76,0,0,0,12.5,57Zm7-.25a.75.75,0,1,0,.75.75A.76.76,0,0,0,19.5,56.75ZM14,47.5a.75.75,0,1,0,.75.75A.76.76,0,0,0,14,47.5Zm7.25,2.75A.75.75,0,1,0,22,51,.76.76,0,0,0,21.25,50.25Zm-6.5,2.5a.5.5,0,1,0,.5.5A.5.5,0,0,0,14.75,52.75Zm-4.5-3.25a.5.5,0,1,0,.5.5A.5.5,0,0,0,10.25,49.5Zm2.5-4.25a.5.5,0,1,0,.5.5A.5.5,0,0,0,12.75,45.25Zm4,4a.5.5,0,1,0,.5.5A.5.5,0,0,0,16.75,49.25ZM8,53.5a.5.5,0,1,0,.5.5A.5.5,0,0,0,8,53.5ZM1.5,54.75a.5.5,0,1,0,.5.5A.5.5,0,0,0,1.5,54.75ZM4.75,59a.5.5,0,1,0,.5.5A.5.5,0,0,0,4.75,59Zm-1.5,2.5a.5.5,0,1,0,.5.5A.5.5,0,0,0,3.25,61.5Zm7.5-1a.5.5,0,1,0,.5.5A.5.5,0,0,0,10.75,60.5Zm5.25-2a.5.5,0,1,0,.5.5A.5.5,0,0,0,16,58.5Zm3,2.75a.5.5,0,1,0,.5.5A.5.5,0,0,0,19,61.25Zm7.25-.5a.5.5,0,1,0,.5.5A.5.5,0,0,0,26.25,60.75ZM24,56.5a.5.5,0,1,0,.5.5A.5.5,0,0,0,24,56.5Zm.75-3.5a.5.5,0,1,0,.5.5A.5.5,0,0,0,24.75,53Zm4.75-1.25a.5.5,0,1,0,.5.5A.5.5,0,0,0,29.5,51.75Zm-5.75-3a.5.5,0,1,0,.5.5A.5.5,0,0,0,23.75,48.75Zm6.75-3.5a.5.5,0,1,0,.5.5A.5.5,0,0,0,30.5,45.25ZM29.25,43a.5.5,0,1,0,.5.5A.5.5,0,0,0,29.25,43ZM22,43.5a.5.5,0,1,0,.5.5A.5.5,0,0,0,22,43.5Zm-3.25-4.25a.5.5,0,1,0,.5.5A.5.5,0,0,0,18.75,39.25Zm5.5,1.25a.5.5,0,1,0,.5.5A.5.5,0,0,0,24.25,40.5Zm3.25.5a.5.5,0,1,0,.5.5A.5.5,0,0,0,27.5,41Zm2.75-5.75a.5.5,0,1,0,.5.5A.5.5,0,0,0,30.25,35.25Zm-12-.75a.5.5,0,1,0,.5.5A.5.5,0,0,0,18.25,34.5Zm-2-1.5a.5.5,0,1,0,.5.5A.5.5,0,0,0,16.25,33Zm-1,5.5a.5.5,0,1,0,.5.5A.5.5,0,0,0,15.25,38.5ZM13.5,42.25a.5.5,0,1,0,.5.5A.5.5,0,0,0,13.5,42.25Zm-5.25-1.5a.5.5,0,1,0,.5.5A.5.5,0,0,0,8.25,40.75Zm-.5-4.25a.5.5,0,1,0,.5.5A.5.5,0,0,0,7.75,36.5Zm-3.5-2.25a.5.5,0,1,0,.5.5A.5.5,0,0,0,4.25,34.25Zm-1,11.25a.5.5,0,1,0,.5.5A.5.5,0,0,0,3.25,45.5Zm17,1.75a.5.5,0,1,0,.5.5A.5.5,0,0,0,20.25,47.25Zm-6,13.25a.5.5,0,1,0,.5.5A.5.5,0,0,0,14.25,60.5Zm2.25-5.25a.5.5,0,1,0,.5.5A.5.5,0,0,0,16.5,55.25ZM29.75,61.5a.5.5,0,1,0,.5.5A.5.5,0,0,0,29.75,61.5ZM26.5,49.75a.5.5,0,1,0,.5.5A.5.5,0,0,0,26.5,49.75Zm2.75-2.25a.5.5,0,1,0,.5.5A.5.5,0,0,0,29.25,47.5ZM27.16,36.75a.5.5,0,1,0,0,1,.5.5,0,0,0,0-1Zm3.5,2a.5.5,0,1,0,0,1,.5.5,0,0,0,0-1ZM5.25,37.25a.5.5,0,1,0,.5.5A.5.5,0,0,0,5.25,37.25Zm0,6.25a.5.5,0,1,0,.5.5A.5.5,0,0,0,5.25,43.5ZM7,47a.5.5,0,1,0,.5.5A.5.5,0,0,0,7,47ZM4.25,55.75a.5.5,0,1,0,.5.5A.5.5,0,0,0,4.25,55.75ZM7.5,60a.5.5,0,1,0,.5.5A.5.5,0,0,0,7.5,60ZM17.75,42a.5.5,0,1,0,.5.5A.5.5,0,0,0,17.75,42Zm-7.5-8.75a.5.5,0,1,0,.5.5A.5.5,0,0,0,10.25,33.25ZM7,33a.5.5,0,1,0,.5.5A.5.5,0,0,0,7,33Zm.75,10.25a.5.5,0,1,0,.5.5A.5.5,0,0,0,7.75,43.25Zm-4,6.25a.5.5,0,1,0,.5.5A.5.5,0,0,0,3.75,49.5Zm15.5,4.25a.5.5,0,1,0,.5.5A.5.5,0,0,0,19.25,53.75Zm9,4.75a.5.5,0,1,0,.5.5A.5.5,0,0,0,28.25,58.5ZM2,36.5a.75.75,0,1,0,.75.75A.76.76,0,0,0,2,36.5ZM4,51.75a.75.75,0,1,0,.75.75A.76.76,0,0,0,4,51.75ZM11.25,41a.75.75,0,1,0,.75.75A.76.76,0,0,0,11.25,41Zm13-5.75A.75.75,0,1,0,25,36,.76.76,0,0,0,24.25,35.25ZM11.5,53a.75.75,0,1,0,.75.75A.76.76,0,0,0,11.5,53Zm11.25,7a.75.75,0,1,0,.75.75A.76.76,0,0,0,22.75,60ZM20,44.75a.75.75,0,1,0,.75.75A.76.76,0,0,0,20,44.75Zm-4.75-9.5A.75.75,0,1,0,16,36,.76.76,0,0,0,15.25,35.25ZM7,56.5a.75.75,0,1,0,.75.75A.76.76,0,0,0,7,56.5ZM.75,59.8a.75.75,0,1,0,.75.75A.75.75,0,0,0,.75,59.8Zm7.91,2.7a.75.75,0,1,0,.75.75A.76.76,0,0,0,8.66,62.5Zm18.59-29a.75.75,0,1,0,.75.75A.76.76,0,0,0,27.25,33.5ZM30,56.25a.5.5,0,1,0,.5.5A.5.5,0,0,0,30,56.25ZM.25,41.25a.69.69,0,0,0-.25,0V42.7a.7.7,0,0,0,.25,0A.75.75,0,0,0,1,42,.74.74,0,0,0,.25,41.25ZM.75,59.8a.75.75,0,1,0,.75.75A.75.75,0,0,0,.75,59.8Zm.5-27a.5.5,0,1,0,.5.5A.5.5,0,0,0,1.25,32.75Zm0,25a.5.5,0,1,0,.5.5A.5.5,0,0,0,1.25,57.75ZM1,48.5a.5.5,0,1,0,.5.5A.5.5,0,0,0,1,48.5ZM.5,52a.69.69,0,0,0-.5.2v1.1a.73.73,0,0,0,.5.2.75.75,0,0,0,.75-.75A.74.74,0,0,0,.5,52Zm31-10a.75.75,0,0,0,.5.7V41.29A.75.75,0,0,0,31.5,42Zm.25,10.75a.73.73,0,0,0,.25.55V52.2A.73.73,0,0,0,31.75,52.75Zm-21.5-14a.5.5,0,1,0,.5.5A.5.5,0,0,0,10.25,38.75Zm3,11.75a.5.5,0,1,0,.5.5A.5.5,0,0,0,13.25,50.5ZM10,57.5a.5.5,0,1,0,.5.5A.5.5,0,0,0,10,57.5Zm8.25-6.25a.5.5,0,1,0,.5.5A.5.5,0,0,0,18.25,51.25Zm4,3.25a.5.5,0,1,0,.5.5A.5.5,0,0,0,22.25,54.5ZM3,42a.5.5,0,1,0,.5.5A.5.5,0,0,0,3,42ZM5.75,62a.5.5,0,1,0,.5.5A.5.5,0,0,0,5.75,62ZM1.25,44.5a.5.5,0,1,0,.5.5A.5.5,0,0,0,1.25,44.5ZM30,32.5a.5.5,0,1,0,.5.5A.5.5,0,0,0,30,32.5ZM13.05,63a.5.5,0,1,0,0,1,.5.5,0,0,0,0-1Zm.7-29.25a.5.5,0,1,0,.5.5A.5.5,0,0,0,13.75,33.75ZM17,62a.5.5,0,1,0,.5.5A.5.5,0,0,0,17,62Zm4.75-28.75a.5.5,0,1,0,.5.5A.5.5,0,0,0,21.75,33.25ZM24.5,62.5a.5.5,0,1,0,.5.5A.5.5,0,0,0,24.5,62.5ZM19.8,32a.74.74,0,0,0,1.4,0Zm.7,31a.74.74,0,0,0-.75.75.7.7,0,0,0,.05.25h1.4a.7.7,0,0,0,.05-.25A.74.74,0,0,0,20.5,63Z"/><path id="moraine-3" data-name="moraine" d="M38,8.5a.75.75,0,1,1-.75-.75A.76.76,0,0,1,38,8.5ZM41.25,13a.75.75,0,1,0,.75.75A.76.76,0,0,0,41.25,13Zm18,10a.75.75,0,1,0,.75.75A.76.76,0,0,0,59.25,23Zm-2-10.25a.75.75,0,1,0,.75.75A.76.76,0,0,0,57.25,12.75ZM52.75,5a.75.75,0,1,0,.75.75A.76.76,0,0,0,52.75,5ZM39.5,17.75a.75.75,0,1,0,.75.75A.76.76,0,0,0,39.5,17.75Zm12,7a.75.75,0,1,0,.75.75A.76.76,0,0,0,51.5,24.75ZM48,12.25a.75.75,0,1,0,.75.75A.76.76,0,0,0,48,12.25Zm5.25,6A.75.75,0,1,0,54,19,.76.76,0,0,0,53.25,18.25ZM43.5,3.75a.75.75,0,1,0,.75.75A.76.76,0,0,0,43.5,3.75Zm-7.5,16a.75.75,0,1,0,.75.75A.76.76,0,0,0,36,19.75ZM32.75,27.8a.75.75,0,1,0,.75.75A.75.75,0,0,0,32.75,27.8Zm7.91,2.7a.75.75,0,1,0,.75.75A.76.76,0,0,0,40.66,30.5Zm18.59-29a.75.75,0,1,0,.75.75A.76.76,0,0,0,59.25,1.5ZM41.25,13a.75.75,0,1,0,.75.75A.76.76,0,0,0,41.25,13Zm16-.25a.75.75,0,1,0,.75.75A.76.76,0,0,0,57.25,12.75Zm-4-4.5A.75.75,0,1,0,54,9,.76.76,0,0,0,53.25,8.25ZM44.5,25a.75.75,0,1,0,.75.75A.76.76,0,0,0,44.5,25Zm7-.25a.75.75,0,1,0,.75.75A.76.76,0,0,0,51.5,24.75ZM46,15.5a.75.75,0,1,0,.75.75A.76.76,0,0,0,46,15.5Zm7.25,2.75A.75.75,0,1,0,54,19,.76.76,0,0,0,53.25,18.25Zm-6.5,2.5a.5.5,0,1,0,.5.5A.5.5,0,0,0,46.75,20.75Zm-4.5-3.25a.5.5,0,1,0,.5.5A.5.5,0,0,0,42.25,17.5Zm2.5-4.25a.5.5,0,1,0,.5.5A.5.5,0,0,0,44.75,13.25Zm4,4a.5.5,0,1,0,.5.5A.5.5,0,0,0,48.75,17.25ZM40,21.5a.5.5,0,1,0,.5.5A.5.5,0,0,0,40,21.5Zm-6.5,1.25a.5.5,0,1,0,.5.5A.5.5,0,0,0,33.5,22.75ZM36.75,27a.5.5,0,1,0,.5.5A.5.5,0,0,0,36.75,27Zm-1.5,2.5a.5.5,0,1,0,.5.5A.5.5,0,0,0,35.25,29.5Zm7.5-1a.5.5,0,1,0,.5.5A.5.5,0,0,0,42.75,28.5Zm5.25-2a.5.5,0,1,0,.5.5A.5.5,0,0,0,48,26.5Zm3,2.75a.5.5,0,1,0,.5.5A.5.5,0,0,0,51,29.25Zm7.25-.5a.5.5,0,1,0,.5.5A.5.5,0,0,0,58.25,28.75ZM56,24.5a.5.5,0,1,0,.5.5A.5.5,0,0,0,56,24.5Zm.75-3.5a.5.5,0,1,0,.5.5A.5.5,0,0,0,56.75,21Zm4.75-1.25a.5.5,0,1,0,.5.5A.5.5,0,0,0,61.5,19.75Zm-5.75-3a.5.5,0,1,0,.5.5A.5.5,0,0,0,55.75,16.75Zm6.75-3.5a.5.5,0,1,0,.5.5A.5.5,0,0,0,62.5,13.25ZM61.25,11a.5.5,0,1,0,.5.5A.5.5,0,0,0,61.25,11ZM54,11.5a.5.5,0,1,0,.5.5A.5.5,0,0,0,54,11.5ZM50.75,7.25a.5.5,0,1,0,.5.5A.5.5,0,0,0,50.75,7.25Zm5.5,1.25a.5.5,0,1,0,.5.5A.5.5,0,0,0,56.25,8.5ZM59.5,9a.5.5,0,1,0,.5.5A.5.5,0,0,0,59.5,9Zm2.75-5.75a.5.5,0,1,0,.5.5A.5.5,0,0,0,62.25,3.25Zm-12-.75a.5.5,0,1,0,.5.5A.5.5,0,0,0,50.25,2.5Zm-2-1.5a.5.5,0,1,0,.5.5A.5.5,0,0,0,48.25,1Zm-1,5.5a.5.5,0,1,0,.5.5A.5.5,0,0,0,47.25,6.5ZM45.5,10.25a.5.5,0,1,0,.5.5A.5.5,0,0,0,45.5,10.25Zm-5.25-1.5a.5.5,0,1,0,.5.5A.5.5,0,0,0,40.25,8.75Zm-.5-4.25a.5.5,0,1,0,.5.5A.5.5,0,0,0,39.75,4.5Zm-3.5-2.25a.5.5,0,1,0,.5.5A.5.5,0,0,0,36.25,2.25Zm-1,11.25a.5.5,0,1,0,.5.5A.5.5,0,0,0,35.25,13.5Zm17,1.75a.5.5,0,1,0,.5.5A.5.5,0,0,0,52.25,15.25Zm-6,13.25a.5.5,0,1,0,.5.5A.5.5,0,0,0,46.25,28.5Zm2.25-5.25a.5.5,0,1,0,.5.5A.5.5,0,0,0,48.5,23.25ZM61.75,29.5a.5.5,0,1,0,.5.5A.5.5,0,0,0,61.75,29.5ZM58.5,17.75a.5.5,0,1,0,.5.5A.5.5,0,0,0,58.5,17.75Zm2.75-2.25a.5.5,0,1,0,.5.5A.5.5,0,0,0,61.25,15.5ZM59.16,4.75a.5.5,0,0,0,0,1,.5.5,0,0,0,0-1Zm3.5,2a.5.5,0,0,0,0,1,.5.5,0,0,0,0-1ZM37.25,5.25a.5.5,0,1,0,.5.5A.5.5,0,0,0,37.25,5.25Zm0,6.25a.5.5,0,1,0,.5.5A.5.5,0,0,0,37.25,11.5ZM39,15a.5.5,0,1,0,.5.5A.5.5,0,0,0,39,15Zm-2.75,8.75a.5.5,0,1,0,.5.5A.5.5,0,0,0,36.25,23.75ZM39.5,28a.5.5,0,1,0,.5.5A.5.5,0,0,0,39.5,28ZM49.75,10a.5.5,0,1,0,.5.5A.5.5,0,0,0,49.75,10Zm-7.5-8.75a.5.5,0,1,0,.5.5A.5.5,0,0,0,42.25,1.25ZM39,1a.5.5,0,1,0,.5.5A.5.5,0,0,0,39,1Zm.75,10.25a.5.5,0,1,0,.5.5A.5.5,0,0,0,39.75,11.25Zm-4,6.25a.5.5,0,1,0,.5.5A.5.5,0,0,0,35.75,17.5Zm15.5,4.25a.5.5,0,1,0,.5.5A.5.5,0,0,0,51.25,21.75Zm9,4.75a.5.5,0,1,0,.5.5A.5.5,0,0,0,60.25,26.5ZM34,4.5a.75.75,0,1,0,.75.75A.76.76,0,0,0,34,4.5Zm2,15.25a.75.75,0,1,0,.75.75A.76.76,0,0,0,36,19.75ZM43.25,9a.75.75,0,1,0,.75.75A.76.76,0,0,0,43.25,9Zm13-5.75A.75.75,0,1,0,57,4,.76.76,0,0,0,56.25,3.25ZM43.5,21a.75.75,0,1,0,.75.75A.76.76,0,0,0,43.5,21Zm11.25,7a.75.75,0,1,0,.75.75A.76.76,0,0,0,54.75,28ZM52,12.75a.75.75,0,1,0,.75.75A.76.76,0,0,0,52,12.75Zm-4.75-9.5A.75.75,0,1,0,48,4,.76.76,0,0,0,47.25,3.25ZM39,24.5a.75.75,0,1,0,.75.75A.76.76,0,0,0,39,24.5Zm-6.25,3.3a.75.75,0,1,0,.75.75A.75.75,0,0,0,32.75,27.8Zm7.91,2.7a.75.75,0,1,0,.75.75A.76.76,0,0,0,40.66,30.5Zm18.59-29a.75.75,0,1,0,.75.75A.76.76,0,0,0,59.25,1.5ZM62,24.25a.5.5,0,1,0,.5.5A.5.5,0,0,0,62,24.25Zm-29.75-15a.69.69,0,0,0-.25,0V10.7a.7.7,0,0,0,.25.05.75.75,0,0,0,0-1.5Zm.5,18.55a.75.75,0,1,0,.75.75A.75.75,0,0,0,32.75,27.8Zm.5-27a.5.5,0,1,0,.5.5A.5.5,0,0,0,33.25.75Zm0,25a.5.5,0,1,0,.5.5A.5.5,0,0,0,33.25,25.75ZM33,16.5a.5.5,0,1,0,.5.5A.5.5,0,0,0,33,16.5ZM32.5,20a.69.69,0,0,0-.5.2v1.1a.73.73,0,0,0,.5.2.75.75,0,0,0,0-1.5Zm31-10a.75.75,0,0,0,.5.7V9.29A.75.75,0,0,0,63.5,10Zm.25,10.75a.73.73,0,0,0,.25.55V20.2A.73.73,0,0,0,63.75,20.75Zm-21.5-14a.5.5,0,1,0,.5.5A.5.5,0,0,0,42.25,6.75Zm3,11.75a.5.5,0,1,0,.5.5A.5.5,0,0,0,45.25,18.5ZM42,25.5a.5.5,0,1,0,.5.5A.5.5,0,0,0,42,25.5Zm8.25-6.25a.5.5,0,1,0,.5.5A.5.5,0,0,0,50.25,19.25Zm4,3.25a.5.5,0,1,0,.5.5A.5.5,0,0,0,54.25,22.5ZM35,10a.5.5,0,1,0,.5.5A.5.5,0,0,0,35,10Zm2.75,20a.5.5,0,1,0,.5.5A.5.5,0,0,0,37.75,30Zm-4.5-17.5a.5.5,0,1,0,.5.5A.5.5,0,0,0,33.25,12.5ZM62,.5a.5.5,0,1,0,.5.5A.5.5,0,0,0,62,.5ZM45.05,31a.5.5,0,0,0,0,1,.5.5,0,0,0,0-1Zm.7-29.25a.5.5,0,1,0,.5.5A.5.5,0,0,0,45.75,1.75ZM49,30a.5.5,0,1,0,.5.5A.5.5,0,0,0,49,30ZM53.75,1.25a.5.5,0,1,0,.5.5A.5.5,0,0,0,53.75,1.25ZM56.5,30.5a.5.5,0,1,0,.5.5A.5.5,0,0,0,56.5,30.5ZM51.8,0a.73.73,0,0,0,.7.5.73.73,0,0,0,.7-.5Zm.7,31a.74.74,0,0,0-.75.75.7.7,0,0,0,0,.25h1.4a.7.7,0,0,0,0-.25A.74.74,0,0,0,52.5,31Z"/><path id="moraine-4" data-name="moraine" d="M38,40.5a.75.75,0,1,1-.75-.75A.76.76,0,0,1,38,40.5ZM41.25,45a.75.75,0,1,0,.75.75A.76.76,0,0,0,41.25,45Zm18,10a.75.75,0,1,0,.75.75A.76.76,0,0,0,59.25,55Zm-2-10.25a.75.75,0,1,0,.75.75A.76.76,0,0,0,57.25,44.75ZM52.75,37a.75.75,0,1,0,.75.75A.76.76,0,0,0,52.75,37ZM39.5,49.75a.75.75,0,1,0,.75.75A.76.76,0,0,0,39.5,49.75Zm12,7a.75.75,0,1,0,.75.75A.76.76,0,0,0,51.5,56.75ZM48,44.25a.75.75,0,1,0,.75.75A.76.76,0,0,0,48,44.25Zm5.25,6A.75.75,0,1,0,54,51,.76.76,0,0,0,53.25,50.25ZM43.5,35.75a.75.75,0,1,0,.75.75A.76.76,0,0,0,43.5,35.75Zm-7.5,16a.75.75,0,1,0,.75.75A.76.76,0,0,0,36,51.75Zm-3.25,8a.75.75,0,1,0,.75.75A.75.75,0,0,0,32.75,59.8Zm7.91,2.7a.75.75,0,1,0,.75.75A.76.76,0,0,0,40.66,62.5Zm18.59-29a.75.75,0,1,0,.75.75A.76.76,0,0,0,59.25,33.5ZM41.25,45a.75.75,0,1,0,.75.75A.76.76,0,0,0,41.25,45Zm16-.25a.75.75,0,1,0,.75.75A.76.76,0,0,0,57.25,44.75Zm-4-4.5A.75.75,0,1,0,54,41,.76.76,0,0,0,53.25,40.25ZM44.5,57a.75.75,0,1,0,.75.75A.76.76,0,0,0,44.5,57Zm7-.25a.75.75,0,1,0,.75.75A.76.76,0,0,0,51.5,56.75ZM46,47.5a.75.75,0,1,0,.75.75A.76.76,0,0,0,46,47.5Zm7.25,2.75A.75.75,0,1,0,54,51,.76.76,0,0,0,53.25,50.25Zm-6.5,2.5a.5.5,0,1,0,.5.5A.5.5,0,0,0,46.75,52.75Zm-4.5-3.25a.5.5,0,1,0,.5.5A.5.5,0,0,0,42.25,49.5Zm2.5-4.25a.5.5,0,1,0,.5.5A.5.5,0,0,0,44.75,45.25Zm4,4a.5.5,0,1,0,.5.5A.5.5,0,0,0,48.75,49.25ZM40,53.5a.5.5,0,1,0,.5.5A.5.5,0,0,0,40,53.5Zm-6.5,1.25a.5.5,0,1,0,.5.5A.5.5,0,0,0,33.5,54.75ZM36.75,59a.5.5,0,1,0,.5.5A.5.5,0,0,0,36.75,59Zm-1.5,2.5a.5.5,0,1,0,.5.5A.5.5,0,0,0,35.25,61.5Zm7.5-1a.5.5,0,1,0,.5.5A.5.5,0,0,0,42.75,60.5Zm5.25-2a.5.5,0,1,0,.5.5A.5.5,0,0,0,48,58.5Zm3,2.75a.5.5,0,1,0,.5.5A.5.5,0,0,0,51,61.25Zm7.25-.5a.5.5,0,1,0,.5.5A.5.5,0,0,0,58.25,60.75ZM56,56.5a.5.5,0,1,0,.5.5A.5.5,0,0,0,56,56.5Zm.75-3.5a.5.5,0,1,0,.5.5A.5.5,0,0,0,56.75,53Zm4.75-1.25a.5.5,0,1,0,.5.5A.5.5,0,0,0,61.5,51.75Zm-5.75-3a.5.5,0,1,0,.5.5A.5.5,0,0,0,55.75,48.75Zm6.75-3.5a.5.5,0,1,0,.5.5A.5.5,0,0,0,62.5,45.25ZM61.25,43a.5.5,0,1,0,.5.5A.5.5,0,0,0,61.25,43ZM54,43.5a.5.5,0,1,0,.5.5A.5.5,0,0,0,54,43.5Zm-3.25-4.25a.5.5,0,1,0,.5.5A.5.5,0,0,0,50.75,39.25Zm5.5,1.25a.5.5,0,1,0,.5.5A.5.5,0,0,0,56.25,40.5Zm3.25.5a.5.5,0,1,0,.5.5A.5.5,0,0,0,59.5,41Zm2.75-5.75a.5.5,0,1,0,.5.5A.5.5,0,0,0,62.25,35.25Zm-12-.75a.5.5,0,1,0,.5.5A.5.5,0,0,0,50.25,34.5Zm-2-1.5a.5.5,0,1,0,.5.5A.5.5,0,0,0,48.25,33Zm-1,5.5a.5.5,0,1,0,.5.5A.5.5,0,0,0,47.25,38.5ZM45.5,42.25a.5.5,0,1,0,.5.5A.5.5,0,0,0,45.5,42.25Zm-5.25-1.5a.5.5,0,1,0,.5.5A.5.5,0,0,0,40.25,40.75Zm-.5-4.25a.5.5,0,1,0,.5.5A.5.5,0,0,0,39.75,36.5Zm-3.5-2.25a.5.5,0,1,0,.5.5A.5.5,0,0,0,36.25,34.25Zm-1,11.25a.5.5,0,1,0,.5.5A.5.5,0,0,0,35.25,45.5Zm17,1.75a.5.5,0,1,0,.5.5A.5.5,0,0,0,52.25,47.25Zm-6,13.25a.5.5,0,1,0,.5.5A.5.5,0,0,0,46.25,60.5Zm2.25-5.25a.5.5,0,1,0,.5.5A.5.5,0,0,0,48.5,55.25ZM61.75,61.5a.5.5,0,1,0,.5.5A.5.5,0,0,0,61.75,61.5ZM58.5,49.75a.5.5,0,1,0,.5.5A.5.5,0,0,0,58.5,49.75Zm2.75-2.25a.5.5,0,1,0,.5.5A.5.5,0,0,0,61.25,47.5ZM59.16,36.75a.5.5,0,0,0,0,1,.5.5,0,0,0,0-1Zm3.5,2a.5.5,0,0,0,0,1,.5.5,0,0,0,0-1Zm-25.41-1.5a.5.5,0,1,0,.5.5A.5.5,0,0,0,37.25,37.25Zm0,6.25a.5.5,0,1,0,.5.5A.5.5,0,0,0,37.25,43.5ZM39,47a.5.5,0,1,0,.5.5A.5.5,0,0,0,39,47Zm-2.75,8.75a.5.5,0,1,0,.5.5A.5.5,0,0,0,36.25,55.75ZM39.5,60a.5.5,0,1,0,.5.5A.5.5,0,0,0,39.5,60ZM49.75,42a.5.5,0,1,0,.5.5A.5.5,0,0,0,49.75,42Zm-7.5-8.75a.5.5,0,1,0,.5.5A.5.5,0,0,0,42.25,33.25ZM39,33a.5.5,0,1,0,.5.5A.5.5,0,0,0,39,33Zm.75,10.25a.5.5,0,1,0,.5.5A.5.5,0,0,0,39.75,43.25Zm-4,6.25a.5.5,0,1,0,.5.5A.5.5,0,0,0,35.75,49.5Zm15.5,4.25a.5.5,0,1,0,.5.5A.5.5,0,0,0,51.25,53.75Zm9,4.75a.5.5,0,1,0,.5.5A.5.5,0,0,0,60.25,58.5ZM34,36.5a.75.75,0,1,0,.75.75A.76.76,0,0,0,34,36.5Zm2,15.25a.75.75,0,1,0,.75.75A.76.76,0,0,0,36,51.75ZM43.25,41a.75.75,0,1,0,.75.75A.76.76,0,0,0,43.25,41Zm13-5.75A.75.75,0,1,0,57,36,.76.76,0,0,0,56.25,35.25ZM43.5,53a.75.75,0,1,0,.75.75A.76.76,0,0,0,43.5,53Zm11.25,7a.75.75,0,1,0,.75.75A.76.76,0,0,0,54.75,60ZM52,44.75a.75.75,0,1,0,.75.75A.76.76,0,0,0,52,44.75Zm-4.75-9.5A.75.75,0,1,0,48,36,.76.76,0,0,0,47.25,35.25ZM39,56.5a.75.75,0,1,0,.75.75A.76.76,0,0,0,39,56.5Zm-6.25,3.3a.75.75,0,1,0,.75.75A.75.75,0,0,0,32.75,59.8Zm7.91,2.7a.75.75,0,1,0,.75.75A.76.76,0,0,0,40.66,62.5Zm18.59-29a.75.75,0,1,0,.75.75A.76.76,0,0,0,59.25,33.5ZM62,56.25a.5.5,0,1,0,.5.5A.5.5,0,0,0,62,56.25Zm-29.75-15a.69.69,0,0,0-.25,0V42.7a.7.7,0,0,0,.25,0,.75.75,0,0,0,0-1.5Zm.5,18.55a.75.75,0,1,0,.75.75A.75.75,0,0,0,32.75,59.8Zm.5-27a.5.5,0,1,0,.5.5A.5.5,0,0,0,33.25,32.75Zm0,25a.5.5,0,1,0,.5.5A.5.5,0,0,0,33.25,57.75ZM33,48.5a.5.5,0,1,0,.5.5A.5.5,0,0,0,33,48.5ZM32.5,52a.69.69,0,0,0-.5.2v1.1a.73.73,0,0,0,.5.2.75.75,0,0,0,0-1.5Zm31-10a.75.75,0,0,0,.5.7V41.29A.75.75,0,0,0,63.5,42Zm.25,10.75a.73.73,0,0,0,.25.55V52.2A.73.73,0,0,0,63.75,52.75Zm-21.5-14a.5.5,0,1,0,.5.5A.5.5,0,0,0,42.25,38.75Zm3,11.75a.5.5,0,1,0,.5.5A.5.5,0,0,0,45.25,50.5ZM42,57.5a.5.5,0,1,0,.5.5A.5.5,0,0,0,42,57.5Zm8.25-6.25a.5.5,0,1,0,.5.5A.5.5,0,0,0,50.25,51.25Zm4,3.25a.5.5,0,1,0,.5.5A.5.5,0,0,0,54.25,54.5ZM35,42a.5.5,0,1,0,.5.5A.5.5,0,0,0,35,42Zm2.75,20a.5.5,0,1,0,.5.5A.5.5,0,0,0,37.75,62Zm-4.5-17.5a.5.5,0,1,0,.5.5A.5.5,0,0,0,33.25,44.5ZM62,32.5a.5.5,0,1,0,.5.5A.5.5,0,0,0,62,32.5ZM45.05,63a.5.5,0,0,0,0,1,.5.5,0,0,0,0-1Zm.7-29.25a.5.5,0,1,0,.5.5A.5.5,0,0,0,45.75,33.75ZM49,62a.5.5,0,1,0,.5.5A.5.5,0,0,0,49,62Zm4.75-28.75a.5.5,0,1,0,.5.5A.5.5,0,0,0,53.75,33.25ZM56.5,62.5a.5.5,0,1,0,.5.5A.5.5,0,0,0,56.5,62.5ZM51.8,32a.74.74,0,0,0,1.4,0Zm.7,31a.74.74,0,0,0-.75.75.7.7,0,0,0,0,.25h1.4a.7.7,0,0,0,0-.25A.74.74,0,0,0,52.5,63Z"/></g></svg>