<svg id="Sprites" xmlns="http://www.w3.org/2000/svg" viewBox="0 0 64 64"><defs><style>.cls-1{fill:none;}</style></defs><g id="moraine_poly_black"><rect class="cls-1" width="64" height="64"/><path id="moraine" d="M10.5,15.5A1.5,1.5,0,1,0,12,17,1.5,1.5,0,0,0,10.5,15.5ZM0,17.39v2.22A1.47,1.47,0,0,0,.5,18.5,1.47,1.47,0,0,0,0,17.39ZM17,23.5A1.5,1.5,0,1,0,18.5,25,1.5,1.5,0,0,0,17,23.5ZM54,48a1.5,1.5,0,1,0,1.5,1.5A1.5,1.5,0,0,0,54,48ZM41.5,10A1.5,1.5,0,1,0,43,11.5,1.5,1.5,0,0,0,41.5,10ZM16,34.5A1.5,1.5,0,1,0,17.5,36,1.5,1.5,0,0,0,16,34.5Zm23,15A1.5,1.5,0,1,0,40.5,51,1.5,1.5,0,0,0,39,49.5Zm-5.5-24A1.5,1.5,0,1,0,35,27,1.5,1.5,0,0,0,33.5,25.5Zm9,11A1.5,1.5,0,1,0,44,38,1.5,1.5,0,0,0,42.5,36.5ZM23,7.5A1.5,1.5,0,1,0,24.5,9,1.5,1.5,0,0,0,23,7.5ZM17.33,61a1.5,1.5,0,1,0,1.5,1.5A1.5,1.5,0,0,0,17.33,61ZM54.5,3A1.5,1.5,0,1,0,56,4.5,1.5,1.5,0,0,0,54.5,3Zm-2,19.5A1.5,1.5,0,1,0,54,24,1.5,1.5,0,0,0,52.5,22.5Zm-10-6A1.5,1.5,0,1,0,44,18,1.5,1.5,0,0,0,42.5,16.5ZM25,50a1.5,1.5,0,1,0,1.5,1.5A1.5,1.5,0,0,0,25,50Zm14-.5A1.5,1.5,0,1,0,40.5,51,1.5,1.5,0,0,0,39,49.5ZM28,31a1.5,1.5,0,1,0,1.5,1.5A1.5,1.5,0,0,0,28,31Zm14.5,5.5A1.5,1.5,0,1,0,44,38,1.5,1.5,0,0,0,42.5,36.5Zm-13,5a1,1,0,1,0,1,1A1,1,0,0,0,29.5,41.5Zm-9-6.5a1,1,0,1,0,1,1A1,1,0,0,0,20.5,35Zm3-6a1,1,0,1,0,1,1A1,1,0,0,0,23.5,29Zm10,5.5a1,1,0,1,0,1,1A1,1,0,0,0,33.5,34.5Zm-16,7a1,1,0,1,0,1,1A1,1,0,0,0,17.5,41.5ZM3,45.5a1,1,0,1,0,1,1A1,1,0,0,0,3,45.5ZM9.5,54a1,1,0,1,0,1,1A1,1,0,0,0,9.5,54Zm-3,5a1,1,0,1,0,1,1A1,1,0,0,0,6.5,59Zm15-2a1,1,0,1,0,1,1A1,1,0,0,0,21.5,57ZM32,53a1,1,0,1,0,1,1A1,1,0,0,0,32,53Zm7,3.5a1,1,0,1,0,1,1A1,1,0,0,0,39,56.5Zm13.5,1a1,1,0,1,0,1,1A1,1,0,0,0,52.5,57.5Zm-2.5-4a1,1,0,1,0,1,1A1,1,0,0,0,50,53.5Zm-2,7a1,1,0,1,0,1,1A1,1,0,0,0,48,60.5ZM55.26,62a1,1,0,1,0,1,1A1,1,0,0,0,55.26,62ZM46.5,50a1,1,0,1,0,1,1A1,1,0,0,0,46.5,50Zm2-11.5a1,1,0,1,0,1,1A1,1,0,0,0,48.5,38.5ZM50,43a1,1,0,1,0,1,1A1,1,0,0,0,50,43Zm5.5-.5a1,1,0,1,0,1,1A1,1,0,0,0,55.5,42.5Zm5,1.5a1,1,0,1,0,1,1A1,1,0,0,0,60.5,44Zm-2-5.5a1,1,0,1,0,1,1A1,1,0,0,0,58.5,38.5Zm-11-5a1,1,0,1,0,1,1A1,1,0,0,0,47.5,33.5Zm13.5-7a1,1,0,1,0,1,1A1,1,0,0,0,61,26.5ZM58.5,22a1,1,0,1,0,1,1A1,1,0,0,0,58.5,22Zm-12,5a1,1,0,1,0,1,1A1,1,0,0,0,46.5,27ZM45,22.5a1,1,0,1,0,1,1A1,1,0,0,0,45,22.5Zm-7.5-8a1,1,0,1,0,1,1A1,1,0,0,0,37.5,14.5Zm11.5-2a1,1,0,1,0,1,1A1,1,0,0,0,49,12.5ZM55,18a1,1,0,1,0,1,1A1,1,0,0,0,55,18Zm-5.5-.5a1,1,0,1,0,1,1A1,1,0,0,0,49.5,17.5Zm11-11a1,1,0,1,0,1,1A1,1,0,0,0,60.5,6.5ZM36.5,5a1,1,0,1,0,1,1A1,1,0,0,0,36.5,5Zm-4-3a1,1,0,1,0,1,1A1,1,0,0,0,32.5,2ZM33,12a1,1,0,1,0,1,1A1,1,0,0,0,33,12Zm-5.5,2a1,1,0,1,0,1,1A1,1,0,0,0,27.5,14Zm0,10a1,1,0,1,0,1,1A1,1,0,0,0,27.5,24ZM31,18.5a1,1,0,1,0,1,1A1,1,0,0,0,31,18.5Zm-14.5-1a1,1,0,1,0,1,1A1,1,0,0,0,16.5,17.5ZM15.5,9a1,1,0,1,0,1,1A1,1,0,0,0,15.5,9Zm-7-4.5a1,1,0,1,0,1,1A1,1,0,0,0,8.5,4.5Zm.5,24a1,1,0,1,0,1,1A1,1,0,0,0,9,28.5Zm31.5,2a1,1,0,1,0,1,1A1,1,0,0,0,40.5,30.5ZM28.5,57a1,1,0,1,0,1,1A1,1,0,0,0,28.5,57ZM33,46.5a1,1,0,1,0,1,1A1,1,0,0,0,33,46.5ZM59.5,59a1,1,0,1,0,1,1A1,1,0,0,0,59.5,59ZM53,35.5a1,1,0,1,0,1,1A1,1,0,0,0,53,35.5Zm7-3a1,1,0,1,0,1,1A1,1,0,0,0,60,32.5ZM55,29a1,1,0,1,0,1,1A1,1,0,0,0,55,29ZM54.33,9.5a1,1,0,1,0,1,1A1,1,0,0,0,54.33,9.5Zm7,4a1,1,0,1,0,1,1A1,1,0,0,0,61.33,13.5Zm-50.83-3a1,1,0,1,0,1,1A1,1,0,0,0,10.5,10.5ZM4.5,15a1,1,0,1,0,1,1A1,1,0,0,0,4.5,15Zm6,8a1,1,0,1,0,1,1A1,1,0,0,0,10.5,23ZM16,30a1,1,0,1,0,1,1A1,1,0,0,0,16,30ZM8.5,47.5a1,1,0,1,0,1,1A1,1,0,0,0,8.5,47.5ZM15,56a1,1,0,1,0,1,1A1,1,0,0,0,15,56ZM36,20.5a1,1,0,1,0,1,1A1,1,0,0,0,36,20.5ZM20.5,2.5a1,1,0,1,0,1,1A1,1,0,0,0,20.5,2.5ZM14,2a1,1,0,1,0,1,1A1,1,0,0,0,14,2Zm8.5,21.5a1,1,0,1,0,1,1A1,1,0,0,0,22.5,23.5ZM9.5,34a1,1,0,1,0,1,1A1,1,0,0,0,9.5,34ZM7,39.5a1,1,0,1,0,1,1A1,1,0,0,0,7,39.5Zm31.5,4a1,1,0,1,0,1,1A1,1,0,0,0,38.5,43.5Zm18,9.5a1,1,0,1,0,1,1A1,1,0,0,0,56.5,53ZM4,9a1.5,1.5,0,1,0,1.5,1.5A1.5,1.5,0,0,0,4,9Zm7,33a1.5,1.5,0,1,0,1.5,1.5A1.5,1.5,0,0,0,11,42ZM1.5,39.8A1.5,1.5,0,1,0,3,41.3,1.5,1.5,0,0,0,1.5,39.8ZM22.5,18A1.5,1.5,0,1,0,24,19.5,1.5,1.5,0,0,0,22.5,18Zm26-11.5A1.5,1.5,0,1,0,50,8,1.5,1.5,0,0,0,48.5,6.5ZM23,42a1.5,1.5,0,1,0,1.5,1.5A1.5,1.5,0,0,0,23,42ZM45.5,56A1.5,1.5,0,1,0,47,57.5,1.5,1.5,0,0,0,45.5,56ZM40,25.5A1.5,1.5,0,1,0,41.5,27,1.5,1.5,0,0,0,40,25.5Zm-9.5-19A1.5,1.5,0,1,0,32,8,1.5,1.5,0,0,0,30.5,6.5Zm-15,42A1.5,1.5,0,1,0,17,50,1.5,1.5,0,0,0,15.5,48.5ZM17.33,61a1.5,1.5,0,1,0,1.5,1.5A1.5,1.5,0,0,0,17.33,61ZM54.5,3A1.5,1.5,0,1,0,56,4.5,1.5,1.5,0,0,0,54.5,3ZM60,48.5a1,1,0,1,0,1,1A1,1,0,0,0,60,48.5Zm2,5a1,1,0,1,0,1,1A1,1,0,0,0,62,53.5ZM1,56a1.47,1.47,0,0,0-1,.39v2.22A1.47,1.47,0,0,0,1,59a1.5,1.5,0,0,0,0-3ZM2.5,1.5a1,1,0,1,0,1,1A1,1,0,0,0,2.5,1.5Zm0,50a1,1,0,1,0,1,1A1,1,0,0,0,2.5,51.5ZM2,33a1,1,0,1,0,1,1A1,1,0,0,0,2,33ZM20.5,13.5a1,1,0,1,0,1,1A1,1,0,0,0,20.5,13.5Zm6,23.5a1,1,0,1,0,1,1A1,1,0,0,0,26.5,37ZM20,51a1,1,0,1,0,1,1A1,1,0,0,0,20,51ZM36.5,38.5a1,1,0,1,0,1,1A1,1,0,0,0,36.5,38.5Zm8,6.5a1,1,0,1,0,1,1A1,1,0,0,0,44.5,45ZM6,20a1,1,0,1,0,1,1A1,1,0,0,0,6,20Zm5.5,40a1,1,0,1,0,1,1A1,1,0,0,0,11.5,60ZM9,63a1,1,0,0,0-1,1h2A1,1,0,0,0,9,63ZM2.5,25a1,1,0,1,0,1,1A1,1,0,0,0,2.5,25ZM60,1a1,1,0,1,0,1,1A1,1,0,0,0,60,1ZM26.11,62a1,1,0,1,0,1,1A1,1,0,0,0,26.11,62ZM27.5,3.5a1,1,0,1,0,1,1A1,1,0,0,0,27.5,3.5ZM34,60a1,1,0,1,0,1,1A1,1,0,0,0,34,60ZM43.5,2.5a1,1,0,1,0,1,1A1,1,0,0,0,43.5,2.5ZM39.59,0A1.5,1.5,0,0,0,41,1a1.5,1.5,0,0,0,1.41-1ZM41,62a1.5,1.5,0,0,0-1.5,1.5,1.39,1.39,0,0,0,.09.5h2.82a1.39,1.39,0,0,0,.09-.5A1.5,1.5,0,0,0,41,62ZM63,17a1.5,1.5,0,0,0,0,3,1.47,1.47,0,0,0,1-.39V17.39A1.47,1.47,0,0,0,63,17Zm.5,40.5a1.47,1.47,0,0,0,.5,1.11V56.39A1.47,1.47,0,0,0,63.5,57.5ZM49.5.5a1,1,0,1,0,1,1A1,1,0,0,0,49.5.5ZM8,0A1,1,0,0,0,9,1a1,1,0,0,0,1-1Z"/></g></svg>