<svg id="Sprites" xmlns="http://www.w3.org/2000/svg" viewBox="0 0 64 64"><defs><style>.cls-1{fill:none;}</style></defs><g id="moraine_poly_half"><rect id="bbox_64" class="cls-1" width="64" height="64"/><path id="moraine" d="M5.25,7.75A.75.75,0,1,0,6,8.5.74.74,0,0,0,5.25,7.75ZM0,8.7V9.8a.7.7,0,0,0,.25-.55A.7.7,0,0,0,0,8.7Zm8.5,3.05a.75.75,0,1,0,.75.75A.74.74,0,0,0,8.5,11.75ZM27,24a.75.75,0,1,0,.75.75A.74.74,0,0,0,27,24ZM20.75,5a.75.75,0,1,0,.75.75A.74.74,0,0,0,20.75,5ZM8,17.25a.75.75,0,1,0,.75.75A.74.74,0,0,0,8,17.25Zm11.5,7.5a.75.75,0,1,0,.75.75A.74.74,0,0,0,19.5,24.75Zm-2.75-12a.75.75,0,1,0,.75.75A.74.74,0,0,0,16.75,12.75Zm4.5,5.5A.75.75,0,1,0,22,19,.74.74,0,0,0,21.25,18.25ZM11.5,3.75a.75.75,0,1,0,.75.75A.74.74,0,0,0,11.5,3.75ZM8.67,30.5a.75.75,0,0,0,0,1.5.75.75,0,1,0,0-1.5Zm18.58-29a.75.75,0,1,0,.75.75A.74.74,0,0,0,27.25,1.5Zm-1,9.75A.75.75,0,1,0,27,12,.74.74,0,0,0,26.25,11.25Zm-5-3A.75.75,0,1,0,22,9,.74.74,0,0,0,21.25,8.25ZM12.5,25a.75.75,0,1,0,.75.75A.74.74,0,0,0,12.5,25Zm7-.25a.75.75,0,1,0,.75.75A.74.74,0,0,0,19.5,24.75ZM14,15.5a.75.75,0,1,0,.75.75A.74.74,0,0,0,14,15.5Zm7.25,2.75A.75.75,0,1,0,22,19,.74.74,0,0,0,21.25,18.25Zm-6.5,2.5a.5.5,0,1,0,.5.5A.5.5,0,0,0,14.75,20.75Zm-4.5-3.25a.5.5,0,1,0,.5.5A.5.5,0,0,0,10.25,17.5Zm1.5-3a.5.5,0,1,0,.5.5A.5.5,0,0,0,11.75,14.5Zm5,2.75a.5.5,0,1,0,.5.5A.5.5,0,0,0,16.75,17.25Zm-8,3.5a.5.5,0,1,0,.5.5A.5.5,0,0,0,8.75,20.75Zm-7.25,2a.5.5,0,1,0,.5.5A.5.5,0,0,0,1.5,22.75ZM4.75,27a.5.5,0,1,0,.5.5A.5.5,0,0,0,4.75,27Zm-1.5,2.5a.5.5,0,1,0,.5.5A.5.5,0,0,0,3.25,29.5Zm7.5-1a.5.5,0,1,0,.5.5A.5.5,0,0,0,10.75,28.5Zm5.25-2a.5.5,0,1,0,.5.5A.5.5,0,0,0,16,26.5Zm3.5,1.75a.5.5,0,1,0,.5.5A.5.5,0,0,0,19.5,28.25Zm6.75.5a.5.5,0,1,0,.5.5A.5.5,0,0,0,26.25,28.75Zm-1.25-2a.5.5,0,1,0,.5.5A.5.5,0,0,0,25,26.75Zm-1,3.5a.5.5,0,1,0,.5.5A.5.5,0,0,0,24,30.25Zm3.63.75a.5.5,0,1,0,.5.5A.5.5,0,0,0,27.63,31Zm-4.38-6a.5.5,0,1,0,.5.5A.5.5,0,0,0,23.25,25Zm1-5.75a.5.5,0,1,0,.5.5A.5.5,0,0,0,24.25,19.25ZM25,21.5a.5.5,0,1,0,.5.5A.5.5,0,0,0,25,21.5Zm2.75-.25a.5.5,0,1,0,.5.5A.5.5,0,0,0,27.75,21.25Zm2.5.75a.5.5,0,1,0,.5.5A.5.5,0,0,0,30.25,22Zm-1-2.75a.5.5,0,1,0,.5.5A.5.5,0,0,0,29.25,19.25Zm-5.5-2.5a.5.5,0,1,0,.5.5A.5.5,0,0,0,23.75,16.75Zm6.75-3.5a.5.5,0,1,0,.5.5A.5.5,0,0,0,30.5,13.25ZM29.25,11a.5.5,0,1,0,.5.5A.5.5,0,0,0,29.25,11Zm-6,2.5a.5.5,0,1,0,.5.5A.5.5,0,0,0,23.25,13.5Zm-.75-2.25a.5.5,0,1,0,.5.5A.5.5,0,0,0,22.5,11.25Zm-3.75-4a.5.5,0,1,0,.5.5A.5.5,0,0,0,18.75,7.25Zm5.75-1a.5.5,0,1,0,.5.5A.5.5,0,0,0,24.5,6.25ZM27.5,9a.5.5,0,1,0,.5.5A.5.5,0,0,0,27.5,9Zm-2.75-.25a.5.5,0,1,0,.5.5A.5.5,0,0,0,24.75,8.75Zm5.5-5.5a.5.5,0,1,0,.5.5A.5.5,0,0,0,30.25,3.25Zm-12-.75a.5.5,0,1,0,.5.5A.5.5,0,0,0,18.25,2.5Zm-2-1.5a.5.5,0,1,0,.5.5A.5.5,0,0,0,16.25,1Zm.25,5a.5.5,0,1,0,.5.5A.5.5,0,0,0,16.5,6ZM13.75,7a.5.5,0,1,0,.5.5A.5.5,0,0,0,13.75,7Zm0,5a.5.5,0,1,0,.5.5A.5.5,0,0,0,13.75,12ZM15.5,9.25a.5.5,0,1,0,.5.5A.5.5,0,0,0,15.5,9.25Zm-7.25-.5a.5.5,0,1,0,.5.5A.5.5,0,0,0,8.25,8.75ZM7.75,4.5a.5.5,0,1,0,.5.5A.5.5,0,0,0,7.75,4.5ZM4.25,2.25a.5.5,0,1,0,.5.5A.5.5,0,0,0,4.25,2.25Zm.25,12a.5.5,0,1,0,.5.5A.5.5,0,0,0,4.5,14.25Zm15.75,1a.5.5,0,1,0,.5.5A.5.5,0,0,0,20.25,15.25Zm-6,13.25a.5.5,0,1,0,.5.5A.5.5,0,0,0,14.25,28.5Zm2.25-5.25a.5.5,0,1,0,.5.5A.5.5,0,0,0,16.5,23.25ZM29.75,29.5a.5.5,0,1,0,.5.5A.5.5,0,0,0,29.75,29.5ZM26.5,17.75a.5.5,0,1,0,.5.5A.5.5,0,0,0,26.5,17.75Zm3.5-1.5a.5.5,0,1,0,.5.5A.5.5,0,0,0,30,16.25ZM27.5,14.5a.5.5,0,1,0,.5.5A.5.5,0,0,0,27.5,14.5Zm-.33-9.75a.5.5,0,0,0,0,1,.5.5,0,0,0,0-1Zm3.5,2a.5.5,0,0,0,0,1,.5.5,0,0,0,0-1ZM5.25,5.25a.5.5,0,1,0,.5.5A.5.5,0,0,0,5.25,5.25Zm-3,2.25a.5.5,0,1,0,.5.5A.5.5,0,0,0,2.25,7.5Zm3,4a.5.5,0,1,0,.5.5A.5.5,0,0,0,5.25,11.5ZM8,15a.5.5,0,1,0,.5.5A.5.5,0,0,0,8,15ZM4.25,23.75a.5.5,0,1,0,.5.5A.5.5,0,0,0,4.25,23.75ZM7.5,28a.5.5,0,1,0,.5.5A.5.5,0,0,0,7.5,28ZM18,10.25a.5.5,0,1,0,.5.5A.5.5,0,0,0,18,10.25Zm-7.75-9a.5.5,0,1,0,.5.5A.5.5,0,0,0,10.25,1.25ZM7,1a.5.5,0,1,0,.5.5A.5.5,0,0,0,7,1Zm4.25,10.75a.5.5,0,1,0,.5.5A.5.5,0,0,0,11.25,11.75ZM4.75,17a.5.5,0,1,0,.5.5A.5.5,0,0,0,4.75,17ZM3.5,19.75a.5.5,0,1,0,.5.5A.5.5,0,0,0,3.5,19.75Zm15.75,2a.5.5,0,1,0,.5.5A.5.5,0,0,0,19.25,21.75Zm9,4.75a.5.5,0,1,0,.5.5A.5.5,0,0,0,28.25,26.5ZM2,4.5a.75.75,0,1,0,.75.75A.74.74,0,0,0,2,4.5ZM5.5,21a.75.75,0,1,0,.75.75A.74.74,0,0,0,5.5,21ZM.75,19.9a.75.75,0,0,0,0,1.5.75.75,0,0,0,0-1.5ZM11.25,9a.75.75,0,1,0,.75.75A.74.74,0,0,0,11.25,9Zm13-5.75A.75.75,0,1,0,25,4,.74.74,0,0,0,24.25,3.25ZM11.5,21a.75.75,0,1,0,.75.75A.74.74,0,0,0,11.5,21Zm11.25,7a.75.75,0,1,0,.75.75A.74.74,0,0,0,22.75,28ZM20,12.75a.75.75,0,1,0,.75.75A.74.74,0,0,0,20,12.75Zm-4.75-9.5A.75.75,0,1,0,16,4,.74.74,0,0,0,15.25,3.25Zm-7.5,21A.75.75,0,1,0,8.5,25,.74.74,0,0,0,7.75,24.25Zm.92,6.25a.75.75,0,0,0,0,1.5.75.75,0,1,0,0-1.5Zm18.58-29a.75.75,0,1,0,.75.75A.74.74,0,0,0,27.25,1.5ZM30,24.25a.5.5,0,1,0,.5.5A.5.5,0,0,0,30,24.25Zm1,2.5a.5.5,0,1,0,.5.5A.5.5,0,0,0,31,26.75ZM.5,28a.69.69,0,0,0-.5.2v1.1a.73.73,0,0,0,.5.2.75.75,0,0,0,.75-.75A.74.74,0,0,0,.5,28ZM1.25.75a.5.5,0,1,0,.5.5A.5.5,0,0,0,1.25.75Zm0,25a.5.5,0,1,0,.5.5A.5.5,0,0,0,1.25,25.75ZM1,16.5a.5.5,0,1,0,.5.5A.5.5,0,0,0,1,16.5Zm9.25-9.75a.5.5,0,1,0,.5.5A.5.5,0,0,0,10.25,6.75Zm3,11.75a.5.5,0,1,0,.5.5A.5.5,0,0,0,13.25,18.5ZM10,25.5a.5.5,0,1,0,.5.5A.5.5,0,0,0,10,25.5Zm8.25-6.25a.5.5,0,1,0,.5.5A.5.5,0,0,0,18.25,19.25Zm4,3.25a.5.5,0,1,0,.5.5A.5.5,0,0,0,22.25,22.5ZM3,10a.5.5,0,1,0,.5.5A.5.5,0,0,0,3,10ZM5.75,30a.5.5,0,1,0,.5.5A.5.5,0,0,0,5.75,30ZM4.5,31.5A.5.5,0,0,0,4,32H5A.5.5,0,0,0,4.5,31.5Zm-3.25-19a.5.5,0,1,0,.5.5A.5.5,0,0,0,1.25,12.5ZM30,.5a.5.5,0,1,0,.5.5A.5.5,0,0,0,30,.5ZM13.05,31a.5.5,0,1,0,0,1,.5.5,0,0,0,0-1Zm.7-29.25a.5.5,0,1,0,.5.5A.5.5,0,0,0,13.75,1.75ZM17,30a.5.5,0,1,0,.5.5A.5.5,0,0,0,17,30ZM21.75,1.25a.5.5,0,1,0,.5.5A.5.5,0,0,0,21.75,1.25ZM19.8,0a.74.74,0,0,0,.7.5.74.74,0,0,0,.7-.5Zm.7,31a.74.74,0,0,0-.75.75.7.7,0,0,0,.05.25h1.4a.7.7,0,0,0,.05-.25A.74.74,0,0,0,20.5,31Zm11-22.5a.75.75,0,0,0,0,1.5.73.73,0,0,0,.5-.2V8.7A.69.69,0,0,0,31.5,8.5Zm.25,20.25a.7.7,0,0,0,.25.55V28.2A.7.7,0,0,0,31.75,28.75Zm-7-28.5a.5.5,0,1,0,.5.5A.5.5,0,0,0,24.75.25ZM4,0a.5.5,0,0,0,.5.5A.5.5,0,0,0,5,0Z"/><path id="moraine-2" data-name="moraine" d="M37.25,7.75A.75.75,0,1,0,38,8.5.74.74,0,0,0,37.25,7.75ZM32,8.7V9.8a.73.73,0,0,0,0-1.1Zm8.5,3.05a.75.75,0,1,0,.75.75A.74.74,0,0,0,40.5,11.75ZM59,24a.75.75,0,1,0,.75.75A.74.74,0,0,0,59,24ZM52.75,5a.75.75,0,1,0,.75.75A.74.74,0,0,0,52.75,5ZM40,17.25a.75.75,0,1,0,.75.75A.74.74,0,0,0,40,17.25Zm11.5,7.5a.75.75,0,1,0,.75.75A.74.74,0,0,0,51.5,24.75Zm-2.75-12a.75.75,0,1,0,.75.75A.74.74,0,0,0,48.75,12.75Zm4.5,5.5A.75.75,0,1,0,54,19,.74.74,0,0,0,53.25,18.25ZM43.5,3.75a.75.75,0,1,0,.75.75A.74.74,0,0,0,43.5,3.75ZM40.67,30.5a.75.75,0,0,0,0,1.5.75.75,0,0,0,0-1.5Zm18.58-29a.75.75,0,1,0,.75.75A.74.74,0,0,0,59.25,1.5Zm-1,9.75A.75.75,0,1,0,59,12,.74.74,0,0,0,58.25,11.25Zm-5-3A.75.75,0,1,0,54,9,.74.74,0,0,0,53.25,8.25ZM44.5,25a.75.75,0,1,0,.75.75A.74.74,0,0,0,44.5,25Zm7-.25a.75.75,0,1,0,.75.75A.74.74,0,0,0,51.5,24.75ZM46,15.5a.75.75,0,1,0,.75.75A.74.74,0,0,0,46,15.5Zm7.25,2.75A.75.75,0,1,0,54,19,.74.74,0,0,0,53.25,18.25Zm-6.5,2.5a.5.5,0,1,0,.5.5A.5.5,0,0,0,46.75,20.75Zm-4.5-3.25a.5.5,0,1,0,.5.5A.5.5,0,0,0,42.25,17.5Zm1.5-3a.5.5,0,1,0,.5.5A.5.5,0,0,0,43.75,14.5Zm5,2.75a.5.5,0,1,0,.5.5A.5.5,0,0,0,48.75,17.25Zm-8,3.5a.5.5,0,1,0,.5.5A.5.5,0,0,0,40.75,20.75Zm-7.25,2a.5.5,0,1,0,.5.5A.5.5,0,0,0,33.5,22.75ZM36.75,27a.5.5,0,1,0,.5.5A.5.5,0,0,0,36.75,27Zm-1.5,2.5a.5.5,0,1,0,.5.5A.5.5,0,0,0,35.25,29.5Zm7.5-1a.5.5,0,1,0,.5.5A.5.5,0,0,0,42.75,28.5Zm5.25-2a.5.5,0,1,0,.5.5A.5.5,0,0,0,48,26.5Zm3.5,1.75a.5.5,0,1,0,.5.5A.5.5,0,0,0,51.5,28.25Zm6.75.5a.5.5,0,1,0,.5.5A.5.5,0,0,0,58.25,28.75Zm-1.25-2a.5.5,0,1,0,.5.5A.5.5,0,0,0,57,26.75Zm-1,3.5a.5.5,0,1,0,.5.5A.5.5,0,0,0,56,30.25Zm3.63.75a.5.5,0,1,0,.5.5A.5.5,0,0,0,59.63,31Zm-4.38-6a.5.5,0,1,0,.5.5A.5.5,0,0,0,55.25,25Zm1-5.75a.5.5,0,1,0,.5.5A.5.5,0,0,0,56.25,19.25ZM57,21.5a.5.5,0,1,0,.5.5A.5.5,0,0,0,57,21.5Zm2.75-.25a.5.5,0,1,0,.5.5A.5.5,0,0,0,59.75,21.25Zm2.5.75a.5.5,0,1,0,.5.5A.5.5,0,0,0,62.25,22Zm-1-2.75a.5.5,0,1,0,.5.5A.5.5,0,0,0,61.25,19.25Zm-5.5-2.5a.5.5,0,1,0,.5.5A.5.5,0,0,0,55.75,16.75Zm6.75-3.5a.5.5,0,1,0,.5.5A.5.5,0,0,0,62.5,13.25ZM61.25,11a.5.5,0,1,0,.5.5A.5.5,0,0,0,61.25,11Zm-6,2.5a.5.5,0,1,0,.5.5A.5.5,0,0,0,55.25,13.5Zm-.75-2.25a.5.5,0,1,0,.5.5A.5.5,0,0,0,54.5,11.25Zm-3.75-4a.5.5,0,1,0,.5.5A.5.5,0,0,0,50.75,7.25Zm5.75-1a.5.5,0,1,0,.5.5A.5.5,0,0,0,56.5,6.25ZM59.5,9a.5.5,0,1,0,.5.5A.5.5,0,0,0,59.5,9Zm-2.75-.25a.5.5,0,1,0,.5.5A.5.5,0,0,0,56.75,8.75Zm5.5-5.5a.5.5,0,1,0,.5.5A.5.5,0,0,0,62.25,3.25Zm-12-.75a.5.5,0,1,0,.5.5A.5.5,0,0,0,50.25,2.5Zm-2-1.5a.5.5,0,1,0,.5.5A.5.5,0,0,0,48.25,1Zm.25,5a.5.5,0,1,0,.5.5A.5.5,0,0,0,48.5,6ZM45.75,7a.5.5,0,1,0,.5.5A.5.5,0,0,0,45.75,7Zm0,5a.5.5,0,1,0,.5.5A.5.5,0,0,0,45.75,12ZM47.5,9.25a.5.5,0,1,0,.5.5A.5.5,0,0,0,47.5,9.25Zm-7.25-.5a.5.5,0,1,0,.5.5A.5.5,0,0,0,40.25,8.75Zm-.5-4.25a.5.5,0,1,0,.5.5A.5.5,0,0,0,39.75,4.5Zm-3.5-2.25a.5.5,0,1,0,.5.5A.5.5,0,0,0,36.25,2.25Zm.25,12a.5.5,0,1,0,.5.5A.5.5,0,0,0,36.5,14.25Zm15.75,1a.5.5,0,1,0,.5.5A.5.5,0,0,0,52.25,15.25Zm-6,13.25a.5.5,0,1,0,.5.5A.5.5,0,0,0,46.25,28.5Zm2.25-5.25a.5.5,0,1,0,.5.5A.5.5,0,0,0,48.5,23.25ZM61.75,29.5a.5.5,0,1,0,.5.5A.5.5,0,0,0,61.75,29.5ZM58.5,17.75a.5.5,0,1,0,.5.5A.5.5,0,0,0,58.5,17.75Zm3.5-1.5a.5.5,0,1,0,.5.5A.5.5,0,0,0,62,16.25ZM59.5,14.5a.5.5,0,1,0,.5.5A.5.5,0,0,0,59.5,14.5Zm-.33-9.75a.5.5,0,0,0,0,1,.5.5,0,0,0,0-1Zm3.5,2a.5.5,0,0,0,0,1,.5.5,0,0,0,0-1ZM37.25,5.25a.5.5,0,1,0,.5.5A.5.5,0,0,0,37.25,5.25Zm-3,2.25a.5.5,0,1,0,.5.5A.5.5,0,0,0,34.25,7.5Zm3,4a.5.5,0,1,0,.5.5A.5.5,0,0,0,37.25,11.5ZM40,15a.5.5,0,1,0,.5.5A.5.5,0,0,0,40,15Zm-3.75,8.75a.5.5,0,1,0,.5.5A.5.5,0,0,0,36.25,23.75ZM39.5,28a.5.5,0,1,0,.5.5A.5.5,0,0,0,39.5,28ZM50,10.25a.5.5,0,1,0,.5.5A.5.5,0,0,0,50,10.25Zm-7.75-9a.5.5,0,1,0,.5.5A.5.5,0,0,0,42.25,1.25ZM39,1a.5.5,0,1,0,.5.5A.5.5,0,0,0,39,1Zm4.25,10.75a.5.5,0,1,0,.5.5A.5.5,0,0,0,43.25,11.75ZM36.75,17a.5.5,0,1,0,.5.5A.5.5,0,0,0,36.75,17ZM35.5,19.75a.5.5,0,1,0,.5.5A.5.5,0,0,0,35.5,19.75Zm15.75,2a.5.5,0,1,0,.5.5A.5.5,0,0,0,51.25,21.75Zm9,4.75a.5.5,0,1,0,.5.5A.5.5,0,0,0,60.25,26.5ZM34,4.5a.75.75,0,1,0,.75.75A.74.74,0,0,0,34,4.5ZM37.5,21a.75.75,0,1,0,.75.75A.74.74,0,0,0,37.5,21Zm-4.75-1.1a.75.75,0,1,0,.75.75A.74.74,0,0,0,32.75,19.9ZM43.25,9a.75.75,0,1,0,.75.75A.74.74,0,0,0,43.25,9Zm13-5.75A.75.75,0,1,0,57,4,.74.74,0,0,0,56.25,3.25ZM43.5,21a.75.75,0,1,0,.75.75A.74.74,0,0,0,43.5,21Zm11.25,7a.75.75,0,1,0,.75.75A.74.74,0,0,0,54.75,28ZM52,12.75a.75.75,0,1,0,.75.75A.74.74,0,0,0,52,12.75Zm-4.75-9.5A.75.75,0,1,0,48,4,.74.74,0,0,0,47.25,3.25Zm-7.5,21a.75.75,0,1,0,.75.75A.74.74,0,0,0,39.75,24.25Zm.92,6.25a.75.75,0,0,0,0,1.5.75.75,0,0,0,0-1.5Zm18.58-29a.75.75,0,1,0,.75.75A.74.74,0,0,0,59.25,1.5ZM62,24.25a.5.5,0,1,0,.5.5A.5.5,0,0,0,62,24.25Zm1,2.5a.5.5,0,1,0,.5.5A.5.5,0,0,0,63,26.75ZM32.5,28a.69.69,0,0,0-.5.2v1.1a.73.73,0,0,0,.5.2.75.75,0,0,0,0-1.5ZM33.25.75a.5.5,0,1,0,.5.5A.5.5,0,0,0,33.25.75Zm0,25a.5.5,0,1,0,.5.5A.5.5,0,0,0,33.25,25.75ZM33,16.5a.5.5,0,1,0,.5.5A.5.5,0,0,0,33,16.5Zm9.25-9.75a.5.5,0,1,0,.5.5A.5.5,0,0,0,42.25,6.75Zm3,11.75a.5.5,0,1,0,.5.5A.5.5,0,0,0,45.25,18.5ZM42,25.5a.5.5,0,1,0,.5.5A.5.5,0,0,0,42,25.5Zm8.25-6.25a.5.5,0,1,0,.5.5A.5.5,0,0,0,50.25,19.25Zm4,3.25a.5.5,0,1,0,.5.5A.5.5,0,0,0,54.25,22.5ZM35,10a.5.5,0,1,0,.5.5A.5.5,0,0,0,35,10Zm2.75,20a.5.5,0,1,0,.5.5A.5.5,0,0,0,37.75,30ZM36.5,31.5a.5.5,0,0,0-.5.5h1A.5.5,0,0,0,36.5,31.5Zm-3.25-19a.5.5,0,1,0,.5.5A.5.5,0,0,0,33.25,12.5ZM62,.5a.5.5,0,1,0,.5.5A.5.5,0,0,0,62,.5ZM45.05,31a.5.5,0,0,0,0,1,.5.5,0,0,0,0-1Zm.7-29.25a.5.5,0,1,0,.5.5A.5.5,0,0,0,45.75,1.75ZM49,30a.5.5,0,1,0,.5.5A.5.5,0,0,0,49,30ZM53.75,1.25a.5.5,0,1,0,.5.5A.5.5,0,0,0,53.75,1.25ZM51.8,0a.74.74,0,0,0,.7.5.74.74,0,0,0,.7-.5Zm.7,31a.74.74,0,0,0-.75.75.7.7,0,0,0,0,.25h1.4a.7.7,0,0,0,0-.25A.74.74,0,0,0,52.5,31Zm11-22.5a.75.75,0,0,0,0,1.5.73.73,0,0,0,.5-.2V8.7A.69.69,0,0,0,63.5,8.5Zm.25,20.25a.7.7,0,0,0,.25.55V28.2A.7.7,0,0,0,63.75,28.75Zm-7-28.5a.5.5,0,1,0,.5.5A.5.5,0,0,0,56.75.25ZM36,0a.5.5,0,0,0,.5.5A.5.5,0,0,0,37,0Z"/><path id="moraine-3" data-name="moraine" d="M37.25,39.75a.75.75,0,1,0,.75.75A.74.74,0,0,0,37.25,39.75ZM32,40.7v1.1a.73.73,0,0,0,0-1.1Zm8.5,3a.75.75,0,1,0,.75.75A.74.74,0,0,0,40.5,43.75ZM59,56a.75.75,0,1,0,.75.75A.74.74,0,0,0,59,56ZM52.75,37a.75.75,0,1,0,.75.75A.74.74,0,0,0,52.75,37ZM40,49.25a.75.75,0,1,0,.75.75A.74.74,0,0,0,40,49.25Zm11.5,7.5a.75.75,0,1,0,.75.75A.74.74,0,0,0,51.5,56.75Zm-2.75-12a.75.75,0,1,0,.75.75A.74.74,0,0,0,48.75,44.75Zm4.5,5.5A.75.75,0,1,0,54,51,.74.74,0,0,0,53.25,50.25ZM43.5,35.75a.75.75,0,1,0,.75.75A.74.74,0,0,0,43.5,35.75ZM40.67,62.5a.75.75,0,0,0,0,1.5.75.75,0,0,0,0-1.5Zm18.58-29a.75.75,0,1,0,.75.75A.74.74,0,0,0,59.25,33.5Zm-1,9.75A.75.75,0,1,0,59,44,.74.74,0,0,0,58.25,43.25Zm-5-3A.75.75,0,1,0,54,41,.74.74,0,0,0,53.25,40.25ZM44.5,57a.75.75,0,1,0,.75.75A.74.74,0,0,0,44.5,57Zm7-.25a.75.75,0,1,0,.75.75A.74.74,0,0,0,51.5,56.75ZM46,47.5a.75.75,0,1,0,.75.75A.74.74,0,0,0,46,47.5Zm7.25,2.75A.75.75,0,1,0,54,51,.74.74,0,0,0,53.25,50.25Zm-6.5,2.5a.5.5,0,1,0,.5.5A.5.5,0,0,0,46.75,52.75Zm-4.5-3.25a.5.5,0,1,0,.5.5A.5.5,0,0,0,42.25,49.5Zm1.5-3a.5.5,0,1,0,.5.5A.5.5,0,0,0,43.75,46.5Zm5,2.75a.5.5,0,1,0,.5.5A.5.5,0,0,0,48.75,49.25Zm-8,3.5a.5.5,0,1,0,.5.5A.5.5,0,0,0,40.75,52.75Zm-7.25,2a.5.5,0,1,0,.5.5A.5.5,0,0,0,33.5,54.75ZM36.75,59a.5.5,0,1,0,.5.5A.5.5,0,0,0,36.75,59Zm-1.5,2.5a.5.5,0,1,0,.5.5A.5.5,0,0,0,35.25,61.5Zm7.5-1a.5.5,0,1,0,.5.5A.5.5,0,0,0,42.75,60.5Zm5.25-2a.5.5,0,1,0,.5.5A.5.5,0,0,0,48,58.5Zm3.5,1.75a.5.5,0,1,0,.5.5A.5.5,0,0,0,51.5,60.25Zm6.75.5a.5.5,0,1,0,.5.5A.5.5,0,0,0,58.25,60.75Zm-1.25-2a.5.5,0,1,0,.5.5A.5.5,0,0,0,57,58.75Zm-1,3.5a.5.5,0,1,0,.5.5A.5.5,0,0,0,56,62.25Zm3.63.75a.5.5,0,1,0,.5.5A.5.5,0,0,0,59.63,63Zm-4.38-6a.5.5,0,1,0,.5.5A.5.5,0,0,0,55.25,57Zm1-5.75a.5.5,0,1,0,.5.5A.5.5,0,0,0,56.25,51.25ZM57,53.5a.5.5,0,1,0,.5.5A.5.5,0,0,0,57,53.5Zm2.75-.25a.5.5,0,1,0,.5.5A.5.5,0,0,0,59.75,53.25Zm2.5.75a.5.5,0,1,0,.5.5A.5.5,0,0,0,62.25,54Zm-1-2.75a.5.5,0,1,0,.5.5A.5.5,0,0,0,61.25,51.25Zm-5.5-2.5a.5.5,0,1,0,.5.5A.5.5,0,0,0,55.75,48.75Zm6.75-3.5a.5.5,0,1,0,.5.5A.5.5,0,0,0,62.5,45.25ZM61.25,43a.5.5,0,1,0,.5.5A.5.5,0,0,0,61.25,43Zm-6,2.5a.5.5,0,1,0,.5.5A.5.5,0,0,0,55.25,45.5Zm-.75-2.25a.5.5,0,1,0,.5.5A.5.5,0,0,0,54.5,43.25Zm-3.75-4a.5.5,0,1,0,.5.5A.5.5,0,0,0,50.75,39.25Zm5.75-1a.5.5,0,1,0,.5.5A.5.5,0,0,0,56.5,38.25Zm3,2.75a.5.5,0,1,0,.5.5A.5.5,0,0,0,59.5,41Zm-2.75-.25a.5.5,0,1,0,.5.5A.5.5,0,0,0,56.75,40.75Zm5.5-5.5a.5.5,0,1,0,.5.5A.5.5,0,0,0,62.25,35.25Zm-12-.75a.5.5,0,1,0,.5.5A.5.5,0,0,0,50.25,34.5Zm-2-1.5a.5.5,0,1,0,.5.5A.5.5,0,0,0,48.25,33Zm.25,5a.5.5,0,1,0,.5.5A.5.5,0,0,0,48.5,38Zm-2.75,1a.5.5,0,1,0,.5.5A.5.5,0,0,0,45.75,39Zm0,5a.5.5,0,1,0,.5.5A.5.5,0,0,0,45.75,44Zm1.75-2.75a.5.5,0,1,0,.5.5A.5.5,0,0,0,47.5,41.25Zm-7.25-.5a.5.5,0,1,0,.5.5A.5.5,0,0,0,40.25,40.75Zm-.5-4.25a.5.5,0,1,0,.5.5A.5.5,0,0,0,39.75,36.5Zm-3.5-2.25a.5.5,0,1,0,.5.5A.5.5,0,0,0,36.25,34.25Zm.25,12a.5.5,0,1,0,.5.5A.5.5,0,0,0,36.5,46.25Zm15.75,1a.5.5,0,1,0,.5.5A.5.5,0,0,0,52.25,47.25Zm-6,13.25a.5.5,0,1,0,.5.5A.5.5,0,0,0,46.25,60.5Zm2.25-5.25a.5.5,0,1,0,.5.5A.5.5,0,0,0,48.5,55.25ZM61.75,61.5a.5.5,0,1,0,.5.5A.5.5,0,0,0,61.75,61.5ZM58.5,49.75a.5.5,0,1,0,.5.5A.5.5,0,0,0,58.5,49.75Zm3.5-1.5a.5.5,0,1,0,.5.5A.5.5,0,0,0,62,48.25ZM59.5,46.5a.5.5,0,1,0,.5.5A.5.5,0,0,0,59.5,46.5Zm-.33-9.75a.5.5,0,0,0,0,1,.5.5,0,0,0,0-1Zm3.5,2a.5.5,0,0,0,0,1,.5.5,0,0,0,0-1Zm-25.42-1.5a.5.5,0,1,0,.5.5A.5.5,0,0,0,37.25,37.25Zm-3,2.25a.5.5,0,1,0,.5.5A.5.5,0,0,0,34.25,39.5Zm3,4a.5.5,0,1,0,.5.5A.5.5,0,0,0,37.25,43.5ZM40,47a.5.5,0,1,0,.5.5A.5.5,0,0,0,40,47Zm-3.75,8.75a.5.5,0,1,0,.5.5A.5.5,0,0,0,36.25,55.75ZM39.5,60a.5.5,0,1,0,.5.5A.5.5,0,0,0,39.5,60ZM50,42.25a.5.5,0,1,0,.5.5A.5.5,0,0,0,50,42.25Zm-7.75-9a.5.5,0,1,0,.5.5A.5.5,0,0,0,42.25,33.25ZM39,33a.5.5,0,1,0,.5.5A.5.5,0,0,0,39,33Zm4.25,10.75a.5.5,0,1,0,.5.5A.5.5,0,0,0,43.25,43.75ZM36.75,49a.5.5,0,1,0,.5.5A.5.5,0,0,0,36.75,49ZM35.5,51.75a.5.5,0,1,0,.5.5A.5.5,0,0,0,35.5,51.75Zm15.75,2a.5.5,0,1,0,.5.5A.5.5,0,0,0,51.25,53.75Zm9,4.75a.5.5,0,1,0,.5.5A.5.5,0,0,0,60.25,58.5ZM34,36.5a.75.75,0,1,0,.75.75A.74.74,0,0,0,34,36.5ZM37.5,53a.75.75,0,1,0,.75.75A.74.74,0,0,0,37.5,53Zm-4.75-1.1a.75.75,0,1,0,.75.75A.74.74,0,0,0,32.75,51.9ZM43.25,41a.75.75,0,1,0,.75.75A.74.74,0,0,0,43.25,41Zm13-5.75A.75.75,0,1,0,57,36,.74.74,0,0,0,56.25,35.25ZM43.5,53a.75.75,0,1,0,.75.75A.74.74,0,0,0,43.5,53Zm11.25,7a.75.75,0,1,0,.75.75A.74.74,0,0,0,54.75,60ZM52,44.75a.75.75,0,1,0,.75.75A.74.74,0,0,0,52,44.75Zm-4.75-9.5A.75.75,0,1,0,48,36,.74.74,0,0,0,47.25,35.25Zm-7.5,21a.75.75,0,1,0,.75.75A.74.74,0,0,0,39.75,56.25Zm.92,6.25a.75.75,0,0,0,0,1.5.75.75,0,0,0,0-1.5Zm18.58-29a.75.75,0,1,0,.75.75A.74.74,0,0,0,59.25,33.5ZM62,56.25a.5.5,0,1,0,.5.5A.5.5,0,0,0,62,56.25Zm1,2.5a.5.5,0,1,0,.5.5A.5.5,0,0,0,63,58.75ZM32.5,60a.69.69,0,0,0-.5.2v1.1a.73.73,0,0,0,.5.2.75.75,0,0,0,0-1.5Zm.75-27.25a.5.5,0,1,0,.5.5A.5.5,0,0,0,33.25,32.75Zm0,25a.5.5,0,1,0,.5.5A.5.5,0,0,0,33.25,57.75ZM33,48.5a.5.5,0,1,0,.5.5A.5.5,0,0,0,33,48.5Zm9.25-9.75a.5.5,0,1,0,.5.5A.5.5,0,0,0,42.25,38.75Zm3,11.75a.5.5,0,1,0,.5.5A.5.5,0,0,0,45.25,50.5ZM42,57.5a.5.5,0,1,0,.5.5A.5.5,0,0,0,42,57.5Zm8.25-6.25a.5.5,0,1,0,.5.5A.5.5,0,0,0,50.25,51.25Zm4,3.25a.5.5,0,1,0,.5.5A.5.5,0,0,0,54.25,54.5ZM35,42a.5.5,0,1,0,.5.5A.5.5,0,0,0,35,42Zm2.75,20a.5.5,0,1,0,.5.5A.5.5,0,0,0,37.75,62ZM36.5,63.5a.5.5,0,0,0-.5.5h1A.5.5,0,0,0,36.5,63.5Zm-3.25-19a.5.5,0,1,0,.5.5A.5.5,0,0,0,33.25,44.5ZM62,32.5a.5.5,0,1,0,.5.5A.5.5,0,0,0,62,32.5ZM45.05,63a.5.5,0,0,0,0,1,.5.5,0,0,0,0-1Zm.7-29.25a.5.5,0,1,0,.5.5A.5.5,0,0,0,45.75,33.75ZM49,62a.5.5,0,1,0,.5.5A.5.5,0,0,0,49,62Zm4.75-28.75a.5.5,0,1,0,.5.5A.5.5,0,0,0,53.75,33.25ZM51.8,32a.74.74,0,0,0,1.4,0Zm.7,31a.74.74,0,0,0-.75.75.7.7,0,0,0,0,.25h1.4a.7.7,0,0,0,0-.25A.74.74,0,0,0,52.5,63Zm11-22.5a.75.75,0,0,0,0,1.5.73.73,0,0,0,.5-.2V40.7A.69.69,0,0,0,63.5,40.5Zm.25,20.25a.7.7,0,0,0,.25.55V60.2A.7.7,0,0,0,63.75,60.75Zm-7-28.5a.5.5,0,1,0,.5.5A.5.5,0,0,0,56.75,32.25ZM36,32a.5.5,0,0,0,1,0Z"/><path id="moraine-4" data-name="moraine" d="M5.25,39.75A.75.75,0,1,0,6,40.5.74.74,0,0,0,5.25,39.75ZM0,40.7v1.1a.7.7,0,0,0,.25-.55A.7.7,0,0,0,0,40.7Zm8.5,3a.75.75,0,1,0,.75.75A.74.74,0,0,0,8.5,43.75ZM27,56a.75.75,0,1,0,.75.75A.74.74,0,0,0,27,56ZM20.75,37a.75.75,0,1,0,.75.75A.74.74,0,0,0,20.75,37ZM8,49.25a.75.75,0,1,0,.75.75A.74.74,0,0,0,8,49.25Zm11.5,7.5a.75.75,0,1,0,.75.75A.74.74,0,0,0,19.5,56.75Zm-2.75-12a.75.75,0,1,0,.75.75A.74.74,0,0,0,16.75,44.75Zm4.5,5.5A.75.75,0,1,0,22,51,.74.74,0,0,0,21.25,50.25ZM11.5,35.75a.75.75,0,1,0,.75.75A.74.74,0,0,0,11.5,35.75ZM8.67,62.5a.75.75,0,0,0,0,1.5.75.75,0,1,0,0-1.5Zm18.58-29a.75.75,0,1,0,.75.75A.74.74,0,0,0,27.25,33.5Zm-1,9.75A.75.75,0,1,0,27,44,.74.74,0,0,0,26.25,43.25Zm-5-3A.75.75,0,1,0,22,41,.74.74,0,0,0,21.25,40.25ZM12.5,57a.75.75,0,1,0,.75.75A.74.74,0,0,0,12.5,57Zm7-.25a.75.75,0,1,0,.75.75A.74.74,0,0,0,19.5,56.75ZM14,47.5a.75.75,0,1,0,.75.75A.74.74,0,0,0,14,47.5Zm7.25,2.75A.75.75,0,1,0,22,51,.74.74,0,0,0,21.25,50.25Zm-6.5,2.5a.5.5,0,1,0,.5.5A.5.5,0,0,0,14.75,52.75Zm-4.5-3.25a.5.5,0,1,0,.5.5A.5.5,0,0,0,10.25,49.5Zm1.5-3a.5.5,0,1,0,.5.5A.5.5,0,0,0,11.75,46.5Zm5,2.75a.5.5,0,1,0,.5.5A.5.5,0,0,0,16.75,49.25Zm-8,3.5a.5.5,0,1,0,.5.5A.5.5,0,0,0,8.75,52.75Zm-7.25,2a.5.5,0,1,0,.5.5A.5.5,0,0,0,1.5,54.75ZM4.75,59a.5.5,0,1,0,.5.5A.5.5,0,0,0,4.75,59Zm-1.5,2.5a.5.5,0,1,0,.5.5A.5.5,0,0,0,3.25,61.5Zm7.5-1a.5.5,0,1,0,.5.5A.5.5,0,0,0,10.75,60.5Zm5.25-2a.5.5,0,1,0,.5.5A.5.5,0,0,0,16,58.5Zm3.5,1.75a.5.5,0,1,0,.5.5A.5.5,0,0,0,19.5,60.25Zm6.75.5a.5.5,0,1,0,.5.5A.5.5,0,0,0,26.25,60.75Zm-1.25-2a.5.5,0,1,0,.5.5A.5.5,0,0,0,25,58.75Zm-1,3.5a.5.5,0,1,0,.5.5A.5.5,0,0,0,24,62.25Zm3.63.75a.5.5,0,1,0,.5.5A.5.5,0,0,0,27.63,63Zm-4.38-6a.5.5,0,1,0,.5.5A.5.5,0,0,0,23.25,57Zm1-5.75a.5.5,0,1,0,.5.5A.5.5,0,0,0,24.25,51.25ZM25,53.5a.5.5,0,1,0,.5.5A.5.5,0,0,0,25,53.5Zm2.75-.25a.5.5,0,1,0,.5.5A.5.5,0,0,0,27.75,53.25Zm2.5.75a.5.5,0,1,0,.5.5A.5.5,0,0,0,30.25,54Zm-1-2.75a.5.5,0,1,0,.5.5A.5.5,0,0,0,29.25,51.25Zm-5.5-2.5a.5.5,0,1,0,.5.5A.5.5,0,0,0,23.75,48.75Zm6.75-3.5a.5.5,0,1,0,.5.5A.5.5,0,0,0,30.5,45.25ZM29.25,43a.5.5,0,1,0,.5.5A.5.5,0,0,0,29.25,43Zm-6,2.5a.5.5,0,1,0,.5.5A.5.5,0,0,0,23.25,45.5Zm-.75-2.25a.5.5,0,1,0,.5.5A.5.5,0,0,0,22.5,43.25Zm-3.75-4a.5.5,0,1,0,.5.5A.5.5,0,0,0,18.75,39.25Zm5.75-1a.5.5,0,1,0,.5.5A.5.5,0,0,0,24.5,38.25Zm3,2.75a.5.5,0,1,0,.5.5A.5.5,0,0,0,27.5,41Zm-2.75-.25a.5.5,0,1,0,.5.5A.5.5,0,0,0,24.75,40.75Zm5.5-5.5a.5.5,0,1,0,.5.5A.5.5,0,0,0,30.25,35.25Zm-12-.75a.5.5,0,1,0,.5.5A.5.5,0,0,0,18.25,34.5Zm-2-1.5a.5.5,0,1,0,.5.5A.5.5,0,0,0,16.25,33Zm.25,5a.5.5,0,1,0,.5.5A.5.5,0,0,0,16.5,38Zm-2.75,1a.5.5,0,1,0,.5.5A.5.5,0,0,0,13.75,39Zm0,5a.5.5,0,1,0,.5.5A.5.5,0,0,0,13.75,44Zm1.75-2.75a.5.5,0,1,0,.5.5A.5.5,0,0,0,15.5,41.25Zm-7.25-.5a.5.5,0,1,0,.5.5A.5.5,0,0,0,8.25,40.75Zm-.5-4.25a.5.5,0,1,0,.5.5A.5.5,0,0,0,7.75,36.5Zm-3.5-2.25a.5.5,0,1,0,.5.5A.5.5,0,0,0,4.25,34.25Zm.25,12a.5.5,0,1,0,.5.5A.5.5,0,0,0,4.5,46.25Zm15.75,1a.5.5,0,1,0,.5.5A.5.5,0,0,0,20.25,47.25Zm-6,13.25a.5.5,0,1,0,.5.5A.5.5,0,0,0,14.25,60.5Zm2.25-5.25a.5.5,0,1,0,.5.5A.5.5,0,0,0,16.5,55.25ZM29.75,61.5a.5.5,0,1,0,.5.5A.5.5,0,0,0,29.75,61.5ZM26.5,49.75a.5.5,0,1,0,.5.5A.5.5,0,0,0,26.5,49.75Zm3.5-1.5a.5.5,0,1,0,.5.5A.5.5,0,0,0,30,48.25ZM27.5,46.5a.5.5,0,1,0,.5.5A.5.5,0,0,0,27.5,46.5Zm-.33-9.75a.5.5,0,0,0,0,1,.5.5,0,0,0,0-1Zm3.5,2a.5.5,0,0,0,0,1,.5.5,0,0,0,0-1ZM5.25,37.25a.5.5,0,1,0,.5.5A.5.5,0,0,0,5.25,37.25Zm-3,2.25a.5.5,0,1,0,.5.5A.5.5,0,0,0,2.25,39.5Zm3,4a.5.5,0,1,0,.5.5A.5.5,0,0,0,5.25,43.5ZM8,47a.5.5,0,1,0,.5.5A.5.5,0,0,0,8,47ZM4.25,55.75a.5.5,0,1,0,.5.5A.5.5,0,0,0,4.25,55.75ZM7.5,60a.5.5,0,1,0,.5.5A.5.5,0,0,0,7.5,60ZM18,42.25a.5.5,0,1,0,.5.5A.5.5,0,0,0,18,42.25Zm-7.75-9a.5.5,0,1,0,.5.5A.5.5,0,0,0,10.25,33.25ZM7,33a.5.5,0,1,0,.5.5A.5.5,0,0,0,7,33Zm4.25,10.75a.5.5,0,1,0,.5.5A.5.5,0,0,0,11.25,43.75ZM4.75,49a.5.5,0,1,0,.5.5A.5.5,0,0,0,4.75,49ZM3.5,51.75a.5.5,0,1,0,.5.5A.5.5,0,0,0,3.5,51.75Zm15.75,2a.5.5,0,1,0,.5.5A.5.5,0,0,0,19.25,53.75Zm9,4.75a.5.5,0,1,0,.5.5A.5.5,0,0,0,28.25,58.5ZM2,36.5a.75.75,0,1,0,.75.75A.74.74,0,0,0,2,36.5ZM5.5,53a.75.75,0,1,0,.75.75A.74.74,0,0,0,5.5,53ZM.75,51.9a.75.75,0,0,0,0,1.5.75.75,0,0,0,0-1.5ZM11.25,41a.75.75,0,1,0,.75.75A.74.74,0,0,0,11.25,41Zm13-5.75A.75.75,0,1,0,25,36,.74.74,0,0,0,24.25,35.25ZM11.5,53a.75.75,0,1,0,.75.75A.74.74,0,0,0,11.5,53Zm11.25,7a.75.75,0,1,0,.75.75A.74.74,0,0,0,22.75,60ZM20,44.75a.75.75,0,1,0,.75.75A.74.74,0,0,0,20,44.75Zm-4.75-9.5A.75.75,0,1,0,16,36,.74.74,0,0,0,15.25,35.25Zm-7.5,21A.75.75,0,1,0,8.5,57,.74.74,0,0,0,7.75,56.25Zm.92,6.25a.75.75,0,0,0,0,1.5.75.75,0,1,0,0-1.5Zm18.58-29a.75.75,0,1,0,.75.75A.74.74,0,0,0,27.25,33.5ZM30,56.25a.5.5,0,1,0,.5.5A.5.5,0,0,0,30,56.25Zm1,2.5a.5.5,0,1,0,.5.5A.5.5,0,0,0,31,58.75ZM.5,60a.69.69,0,0,0-.5.2v1.1a.73.73,0,0,0,.5.2.75.75,0,0,0,.75-.75A.74.74,0,0,0,.5,60Zm.75-27.25a.5.5,0,1,0,.5.5A.5.5,0,0,0,1.25,32.75Zm0,25a.5.5,0,1,0,.5.5A.5.5,0,0,0,1.25,57.75ZM1,48.5a.5.5,0,1,0,.5.5A.5.5,0,0,0,1,48.5Zm9.25-9.75a.5.5,0,1,0,.5.5A.5.5,0,0,0,10.25,38.75Zm3,11.75a.5.5,0,1,0,.5.5A.5.5,0,0,0,13.25,50.5ZM10,57.5a.5.5,0,1,0,.5.5A.5.5,0,0,0,10,57.5Zm8.25-6.25a.5.5,0,1,0,.5.5A.5.5,0,0,0,18.25,51.25Zm4,3.25a.5.5,0,1,0,.5.5A.5.5,0,0,0,22.25,54.5ZM3,42a.5.5,0,1,0,.5.5A.5.5,0,0,0,3,42ZM5.75,62a.5.5,0,1,0,.5.5A.5.5,0,0,0,5.75,62ZM4.5,63.5A.5.5,0,0,0,4,64H5A.5.5,0,0,0,4.5,63.5Zm-3.25-19a.5.5,0,1,0,.5.5A.5.5,0,0,0,1.25,44.5ZM30,32.5a.5.5,0,1,0,.5.5A.5.5,0,0,0,30,32.5ZM13.05,63a.5.5,0,1,0,0,1,.5.5,0,0,0,0-1Zm.7-29.25a.5.5,0,1,0,.5.5A.5.5,0,0,0,13.75,33.75ZM17,62a.5.5,0,1,0,.5.5A.5.5,0,0,0,17,62Zm4.75-28.75a.5.5,0,1,0,.5.5A.5.5,0,0,0,21.75,33.25ZM19.8,32a.74.74,0,0,0,1.4,0Zm.7,31a.74.74,0,0,0-.75.75.7.7,0,0,0,.05.25h1.4a.7.7,0,0,0,.05-.25A.74.74,0,0,0,20.5,63Zm11-22.5a.75.75,0,0,0,0,1.5.73.73,0,0,0,.5-.2V40.7A.69.69,0,0,0,31.5,40.5Zm.25,20.25a.7.7,0,0,0,.25.55V60.2A.7.7,0,0,0,31.75,60.75Zm-7-28.5a.5.5,0,1,0,.5.5A.5.5,0,0,0,24.75,32.25ZM4,32a.5.5,0,0,0,1,0Z"/></g></svg>