<svg id="Sprites" xmlns="http://www.w3.org/2000/svg" viewBox="0 0 64 64"><defs><style>.cls-1{fill:none;}.cls-2{fill:#236035;}</style></defs><g id="orchard_poly_grid_dense_half"><rect id="bbox_64" class="cls-1" width="64" height="64"/><path id="orchard_grid_dense" class="cls-2" d="M6.5,4.17h0a.7.7,0,0,0,0-.25.75.75,0,0,0-.75-.75.87.87,0,0,0-.28.05A.75.75,0,0,0,4.2,2.91a.74.74,0,0,0-.7-.49.75.75,0,0,0-.75.75v0a1,1,0,0,0-.25,0,.75.75,0,0,0-.75.75.75.75,0,0,0-.4,1.38.75.75,0,0,0,1.26.8,2.31,2.31,0,0,0,.53.6c.31.28.61.54.61,1v1h.5V7.92c0-.41.35-.68.73-1a2.53,2.53,0,0,0,.61-.56l.16,0a.76.76,0,0,0,.75-.75.75.75,0,0,0,0-1.5Zm-3,2.16a2.28,2.28,0,0,1-.4-.44.57.57,0,0,0,.18,0,.75.75,0,0,0,.5-.2v.86Zm1.21.23c-.14.11-.29.22-.43.35V5.72a.75.75,0,0,0,.5.2A.67.67,0,0,0,5,5.86a.84.84,0,0,0,.13.27A2.09,2.09,0,0,1,4.68,6.56ZM14.5,4.17h-.05a.7.7,0,0,0,.05-.25.75.75,0,0,0-.75-.75.87.87,0,0,0-.28.05.75.75,0,0,0-1.27-.31.74.74,0,0,0-.7-.49.75.75,0,0,0-.75.75v0a1,1,0,0,0-.25,0,.75.75,0,0,0-.75.75.75.75,0,0,0-.4,1.38.75.75,0,0,0,1.26.8,2.31,2.31,0,0,0,.53.6c.31.28.61.54.61,1v1h.5V7.92c0-.41.35-.68.73-1a2.53,2.53,0,0,0,.61-.56l.16,0a.76.76,0,0,0,.75-.75.75.75,0,0,0,0-1.5Zm-3,2.16a2.28,2.28,0,0,1-.4-.44.57.57,0,0,0,.18,0,.75.75,0,0,0,.5-.2v.86Zm1.21.23c-.14.11-.29.22-.43.35V5.72a.75.75,0,0,0,.5.2A.67.67,0,0,0,13,5.86a.84.84,0,0,0,.13.27A2.09,2.09,0,0,1,12.68,6.56ZM22.5,4.17h-.05a.7.7,0,0,0,.05-.25.75.75,0,0,0-.75-.75.87.87,0,0,0-.28.05.75.75,0,0,0-1.27-.31.74.74,0,0,0-.7-.49.75.75,0,0,0-.75.75v0a1,1,0,0,0-.25,0,.75.75,0,0,0-.75.75.75.75,0,0,0-.4,1.38.75.75,0,0,0,1.26.8,2.31,2.31,0,0,0,.53.6c.31.28.61.54.61,1v1h.5V7.92c0-.41.35-.68.73-1a2.53,2.53,0,0,0,.61-.56l.16,0a.76.76,0,0,0,.75-.75.75.75,0,0,0,0-1.5Zm-3,2.16a2.28,2.28,0,0,1-.4-.44.57.57,0,0,0,.18,0,.75.75,0,0,0,.5-.2v.86Zm1.21.23c-.14.11-.29.22-.43.35V5.72a.75.75,0,0,0,.5.2A.67.67,0,0,0,21,5.86a.84.84,0,0,0,.13.27A2.09,2.09,0,0,1,20.68,6.56ZM30.5,4.17h-.05a.7.7,0,0,0,.05-.25.75.75,0,0,0-.75-.75.87.87,0,0,0-.28.05.75.75,0,0,0-1.27-.31.74.74,0,0,0-.7-.49.75.75,0,0,0-.75.75v0a1,1,0,0,0-.25,0,.75.75,0,0,0-.75.75.75.75,0,0,0-.4,1.38.75.75,0,0,0,1.26.8,2.31,2.31,0,0,0,.53.6c.31.28.61.54.61,1v1h.5V7.92c0-.41.35-.68.73-1a2.53,2.53,0,0,0,.61-.56l.16,0a.76.76,0,0,0,.75-.75.75.75,0,0,0,0-1.5Zm-3,2.16a2.28,2.28,0,0,1-.4-.44.57.57,0,0,0,.18,0,.75.75,0,0,0,.5-.2v.86Zm1.21.23c-.14.11-.29.22-.43.35V5.72a.75.75,0,0,0,.5.2A.67.67,0,0,0,29,5.86a.84.84,0,0,0,.13.27A2.09,2.09,0,0,1,28.68,6.56ZM6.5,14.83h0a.74.74,0,0,0-.7-1,.67.67,0,0,0-.28.06.74.74,0,0,0-1.27-.31.75.75,0,0,0-.7-.5.76.76,0,0,0-.75.75v.05a.7.7,0,0,0-.25-.05.76.76,0,0,0-.75.75.76.76,0,0,0-.75.75.77.77,0,0,0,.35.64.72.72,0,0,0-.1.36.75.75,0,0,0,1.36.44,2.49,2.49,0,0,0,.53.6c.31.28.61.54.61,1v1h.5v-.75c0-.41.35-.67.73-.95a2.75,2.75,0,0,0,.61-.56h.16a.75.75,0,0,0,.75-.75.75.75,0,1,0,0-1.5ZM3.47,17a2.58,2.58,0,0,1-.4-.43l.18,0a.74.74,0,0,0,.5-.19v.86Zm1.21.24a4.41,4.41,0,0,0-.43.35V16.39a.74.74,0,0,0,.5.19.87.87,0,0,0,.28,0,.84.84,0,0,0,.13.27A2.09,2.09,0,0,1,4.68,17.23Zm9.82-2.4h-.05a.74.74,0,0,0-.7-1,.67.67,0,0,0-.28.06.74.74,0,0,0-1.27-.31.75.75,0,0,0-.7-.5.76.76,0,0,0-.75.75v.05a.7.7,0,0,0-.25-.05.76.76,0,0,0-.75.75.76.76,0,0,0-.75.75.77.77,0,0,0,.35.64.72.72,0,0,0-.1.36.75.75,0,0,0,1.36.44,2.49,2.49,0,0,0,.53.6c.31.28.61.54.61,1v1h.5v-.75c0-.41.35-.67.73-.95a2.75,2.75,0,0,0,.61-.56h.16a.75.75,0,0,0,.75-.75.75.75,0,0,0,0-1.5Zm-3,2.16a2.58,2.58,0,0,1-.4-.43l.18,0a.74.74,0,0,0,.5-.19v.86Zm1.21.24a4.41,4.41,0,0,0-.43.35V16.39a.74.74,0,0,0,.5.19.87.87,0,0,0,.28,0,.84.84,0,0,0,.13.27A2.09,2.09,0,0,1,12.68,17.23Zm9.82-2.4h-.05a.74.74,0,0,0-.7-1,.67.67,0,0,0-.28.06.74.74,0,0,0-1.27-.31.75.75,0,0,0-.7-.5.76.76,0,0,0-.75.75v.05a.7.7,0,0,0-.25-.05.76.76,0,0,0-.75.75.76.76,0,0,0-.75.75.77.77,0,0,0,.35.64.72.72,0,0,0-.1.36.75.75,0,0,0,1.36.44,2.49,2.49,0,0,0,.53.6c.31.28.61.54.61,1v1h.5v-.75c0-.41.35-.67.73-.95a2.75,2.75,0,0,0,.61-.56h.16a.75.75,0,0,0,.75-.75.75.75,0,0,0,0-1.5Zm-3,2.16a2.58,2.58,0,0,1-.4-.43l.18,0a.74.74,0,0,0,.5-.19v.86Zm1.21.24a4.41,4.41,0,0,0-.43.35V16.39a.74.74,0,0,0,.5.19.87.87,0,0,0,.28,0,.84.84,0,0,0,.13.27A2.09,2.09,0,0,1,20.68,17.23Zm9.82-2.4h-.05a.74.74,0,0,0-.7-1,.67.67,0,0,0-.28.06.74.74,0,0,0-1.27-.31.75.75,0,0,0-.7-.5.76.76,0,0,0-.75.75v.05a.7.7,0,0,0-.25-.05.76.76,0,0,0-.75.75.76.76,0,0,0-.75.75.77.77,0,0,0,.35.64.72.72,0,0,0-.1.36.75.75,0,0,0,1.36.44,2.49,2.49,0,0,0,.53.6c.31.28.61.54.61,1v1h.5v-.75c0-.41.35-.67.73-.95a2.75,2.75,0,0,0,.61-.56h.16a.75.75,0,0,0,.75-.75.75.75,0,1,0,0-1.5Zm-3,2.16a2.58,2.58,0,0,1-.4-.43l.18,0a.74.74,0,0,0,.5-.19v.86Zm1.21.24a4.41,4.41,0,0,0-.43.35V16.39a.74.74,0,0,0,.5.19.87.87,0,0,0,.28,0,.84.84,0,0,0,.13.27A2.09,2.09,0,0,1,28.68,17.23ZM6.5,25.5h0a.7.7,0,0,0,0-.25.76.76,0,0,0-.75-.75.87.87,0,0,0-.28.05A.75.75,0,0,0,4.75,24a.74.74,0,0,0-.55.24.75.75,0,0,0-1.45.26v.05a.7.7,0,0,0-.25-.05.76.76,0,0,0-.75.75A.76.76,0,0,0,1,26a.74.74,0,0,0,.35.63.79.79,0,0,0-.1.37.75.75,0,0,0,1.36.43,2.16,2.16,0,0,0,.53.6,1.36,1.36,0,0,1,.61,1v1h.5v-.75c0-.41.35-.67.73-.95a2.56,2.56,0,0,0,.61-.57l.16,0A.76.76,0,0,0,6.5,27a.75.75,0,0,0,0-1.5Zm-3,2.16a2.58,2.58,0,0,1-.4-.43l.18,0a.74.74,0,0,0,.5-.19v.86A3.32,3.32,0,0,0,3.47,27.66Zm1.21.24a4.26,4.26,0,0,0-.43.34V27.06a.74.74,0,0,0,.5.19A.87.87,0,0,0,5,27.2a.91.91,0,0,0,.13.26A2.36,2.36,0,0,1,4.68,27.9Zm9.82-2.4h-.05a.7.7,0,0,0,.05-.25.76.76,0,0,0-.75-.75.87.87,0,0,0-.28.05.75.75,0,0,0-.72-.55.74.74,0,0,0-.55.24.75.75,0,0,0-1.45.26v.05a.7.7,0,0,0-.25-.05.76.76,0,0,0-.75.75A.76.76,0,0,0,9,26a.74.74,0,0,0,.35.63.79.79,0,0,0-.1.37.75.75,0,0,0,1.36.43,2.16,2.16,0,0,0,.53.6,1.36,1.36,0,0,1,.61,1v1h.5v-.75c0-.41.35-.67.73-.95a2.56,2.56,0,0,0,.61-.57l.16,0A.76.76,0,0,0,14.5,27a.75.75,0,0,0,0-1.5Zm-3,2.16a2.58,2.58,0,0,1-.4-.43l.18,0a.74.74,0,0,0,.5-.19v.86A3.32,3.32,0,0,0,11.47,27.66Zm1.21.24a4.26,4.26,0,0,0-.43.34V27.06a.74.74,0,0,0,.5.19A.87.87,0,0,0,13,27.2a.91.91,0,0,0,.13.26A2.36,2.36,0,0,1,12.68,27.9Zm9.82-2.4h-.05a.7.7,0,0,0,.05-.25.76.76,0,0,0-.75-.75.87.87,0,0,0-.28.05.75.75,0,0,0-.72-.55.74.74,0,0,0-.55.24.75.75,0,0,0-1.45.26v.05a.7.7,0,0,0-.25-.05.76.76,0,0,0-.75.75A.76.76,0,0,0,17,26a.74.74,0,0,0,.35.63.79.79,0,0,0-.1.37.75.75,0,0,0,1.36.43,2.16,2.16,0,0,0,.53.6,1.36,1.36,0,0,1,.61,1v1h.5v-.75c0-.41.35-.67.73-.95a2.56,2.56,0,0,0,.61-.57l.16,0A.76.76,0,0,0,22.5,27a.75.75,0,0,0,0-1.5Zm-3,2.16a2.58,2.58,0,0,1-.4-.43l.18,0a.74.74,0,0,0,.5-.19v.86A3.32,3.32,0,0,0,19.47,27.66Zm1.21.24a4.26,4.26,0,0,0-.43.34V27.06a.74.74,0,0,0,.5.19A.87.87,0,0,0,21,27.2a.91.91,0,0,0,.13.26A2.36,2.36,0,0,1,20.68,27.9Zm9.82-2.4h-.05a.7.7,0,0,0,.05-.25.76.76,0,0,0-.75-.75.87.87,0,0,0-.28.05.75.75,0,0,0-.72-.55.74.74,0,0,0-.55.24.75.75,0,0,0-1.45.26v.05a.7.7,0,0,0-.25-.05.76.76,0,0,0-.75.75A.76.76,0,0,0,25,26a.74.74,0,0,0,.35.63.79.79,0,0,0-.1.37.75.75,0,0,0,1.36.43,2.16,2.16,0,0,0,.53.6,1.36,1.36,0,0,1,.61,1v1h.5v-.75c0-.41.35-.67.73-.95a2.56,2.56,0,0,0,.61-.57l.16,0A.76.76,0,0,0,30.5,27a.75.75,0,0,0,0-1.5Zm-3,2.16a2.58,2.58,0,0,1-.4-.43l.18,0a.74.74,0,0,0,.5-.19v.86A3.32,3.32,0,0,0,27.47,27.66Zm1.21.24a4.26,4.26,0,0,0-.43.34V27.06a.74.74,0,0,0,.5.19A.87.87,0,0,0,29,27.2a.91.91,0,0,0,.13.26A2.36,2.36,0,0,1,28.68,27.9Z"/><path id="orchard_grid_dense-2" data-name="orchard_grid_dense" class="cls-2" d="M6.5,36.17h0a.7.7,0,0,0,0-.25.75.75,0,0,0-.75-.75.87.87,0,0,0-.28,0,.75.75,0,0,0-1.27-.31.74.74,0,0,0-.7-.49.75.75,0,0,0-.75.75v0a1,1,0,0,0-.25,0,.75.75,0,0,0-.75.75.75.75,0,0,0-.4,1.38.75.75,0,0,0,1.26.8,2.31,2.31,0,0,0,.53.6c.31.28.61.54.61,1v1h.5v-.75c0-.41.35-.68.73-1a2.53,2.53,0,0,0,.61-.56l.16,0a.76.76,0,0,0,.75-.75.75.75,0,0,0,0-1.5Zm-3,2.16a2.28,2.28,0,0,1-.4-.44l.18,0a.75.75,0,0,0,.5-.2v.86Zm1.21.23c-.14.11-.29.22-.43.35V37.72a.75.75,0,0,0,.5.2A.67.67,0,0,0,5,37.86a.84.84,0,0,0,.13.27A2.09,2.09,0,0,1,4.68,38.56Zm9.82-2.39h-.05a.7.7,0,0,0,.05-.25.75.75,0,0,0-.75-.75.87.87,0,0,0-.28,0,.75.75,0,0,0-1.27-.31.74.74,0,0,0-.7-.49.75.75,0,0,0-.75.75v0a1,1,0,0,0-.25,0,.75.75,0,0,0-.75.75.75.75,0,0,0-.4,1.38.75.75,0,0,0,1.26.8,2.31,2.31,0,0,0,.53.6c.31.28.61.54.61,1v1h.5v-.75c0-.41.35-.68.73-1a2.53,2.53,0,0,0,.61-.56l.16,0a.76.76,0,0,0,.75-.75.75.75,0,0,0,0-1.5Zm-3,2.16a2.28,2.28,0,0,1-.4-.44l.18,0a.75.75,0,0,0,.5-.2v.86Zm1.21.23c-.14.11-.29.22-.43.35V37.72a.75.75,0,0,0,.5.2.67.67,0,0,0,.28-.06.84.84,0,0,0,.13.27A2.09,2.09,0,0,1,12.68,38.56Zm9.82-2.39h-.05a.7.7,0,0,0,.05-.25.75.75,0,0,0-.75-.75.87.87,0,0,0-.28,0,.75.75,0,0,0-1.27-.31.74.74,0,0,0-.7-.49.75.75,0,0,0-.75.75v0a1,1,0,0,0-.25,0,.75.75,0,0,0-.75.75.75.75,0,0,0-.4,1.38.75.75,0,0,0,1.26.8,2.31,2.31,0,0,0,.53.6c.31.28.61.54.61,1v1h.5v-.75c0-.41.35-.68.73-1a2.53,2.53,0,0,0,.61-.56l.16,0a.76.76,0,0,0,.75-.75.75.75,0,0,0,0-1.5Zm-3,2.16a2.28,2.28,0,0,1-.4-.44l.18,0a.75.75,0,0,0,.5-.2v.86Zm1.21.23c-.14.11-.29.22-.43.35V37.72a.75.75,0,0,0,.5.2.67.67,0,0,0,.28-.06.84.84,0,0,0,.13.27A2.09,2.09,0,0,1,20.68,38.56Zm9.82-2.39h-.05a.7.7,0,0,0,.05-.25.75.75,0,0,0-.75-.75.87.87,0,0,0-.28,0,.75.75,0,0,0-1.27-.31.74.74,0,0,0-.7-.49.75.75,0,0,0-.75.75v0a1,1,0,0,0-.25,0,.75.75,0,0,0-.75.75.75.75,0,0,0-.4,1.38.75.75,0,0,0,1.26.8,2.31,2.31,0,0,0,.53.6c.31.28.61.54.61,1v1h.5v-.75c0-.41.35-.68.73-1a2.53,2.53,0,0,0,.61-.56l.16,0a.76.76,0,0,0,.75-.75.75.75,0,0,0,0-1.5Zm-3,2.16a2.28,2.28,0,0,1-.4-.44l.18,0a.75.75,0,0,0,.5-.2v.86Zm1.21.23c-.14.11-.29.22-.43.35V37.72a.75.75,0,0,0,.5.2.67.67,0,0,0,.28-.06.84.84,0,0,0,.13.27A2.09,2.09,0,0,1,28.68,38.56ZM6.5,46.83h0a.74.74,0,0,0-.7-1,.67.67,0,0,0-.28.06.74.74,0,0,0-1.27-.31.75.75,0,0,0-.7-.5.76.76,0,0,0-.75.75v.05a.7.7,0,0,0-.25-.05.76.76,0,0,0-.75.75.76.76,0,0,0-.75.75.77.77,0,0,0,.35.64.72.72,0,0,0-.1.36.75.75,0,0,0,1.36.44,2.49,2.49,0,0,0,.53.6c.31.28.61.54.61,1v1h.5v-.75c0-.41.35-.67.73-.95a2.75,2.75,0,0,0,.61-.56h.16a.75.75,0,0,0,.75-.75.75.75,0,0,0,0-1.5ZM3.47,49a2.58,2.58,0,0,1-.4-.43l.18,0a.74.74,0,0,0,.5-.19v.86Zm1.21.24a4.41,4.41,0,0,0-.43.35V48.39a.74.74,0,0,0,.5.19.87.87,0,0,0,.28,0,.84.84,0,0,0,.13.27A2.09,2.09,0,0,1,4.68,49.23Zm9.82-2.4h-.05a.74.74,0,0,0-.7-1,.67.67,0,0,0-.28.06.74.74,0,0,0-1.27-.31.75.75,0,0,0-.7-.5.76.76,0,0,0-.75.75v.05a.7.7,0,0,0-.25-.05.76.76,0,0,0-.75.75.76.76,0,0,0-.75.75.77.77,0,0,0,.35.64.72.72,0,0,0-.1.36.75.75,0,0,0,1.36.44,2.49,2.49,0,0,0,.53.6c.31.28.61.54.61,1v1h.5v-.75c0-.41.35-.67.73-.95a2.75,2.75,0,0,0,.61-.56h.16a.75.75,0,0,0,.75-.75.75.75,0,0,0,0-1.5Zm-3,2.16a2.58,2.58,0,0,1-.4-.43l.18,0a.74.74,0,0,0,.5-.19v.86Zm1.21.24a4.41,4.41,0,0,0-.43.35V48.39a.74.74,0,0,0,.5.19.87.87,0,0,0,.28,0,.84.84,0,0,0,.13.27A2.09,2.09,0,0,1,12.68,49.23Zm9.82-2.4h-.05a.74.74,0,0,0-.7-1,.67.67,0,0,0-.28.06.74.74,0,0,0-1.27-.31.75.75,0,0,0-.7-.5.76.76,0,0,0-.75.75v.05a.7.7,0,0,0-.25-.05.76.76,0,0,0-.75.75.76.76,0,0,0-.75.75.77.77,0,0,0,.35.64.72.72,0,0,0-.1.36.75.75,0,0,0,1.36.44,2.49,2.49,0,0,0,.53.6c.31.28.61.54.61,1v1h.5v-.75c0-.41.35-.67.73-.95a2.75,2.75,0,0,0,.61-.56h.16a.75.75,0,0,0,.75-.75.75.75,0,0,0,0-1.5Zm-3,2.16a2.58,2.58,0,0,1-.4-.43l.18,0a.74.74,0,0,0,.5-.19v.86Zm1.21.24a4.41,4.41,0,0,0-.43.35V48.39a.74.74,0,0,0,.5.19.87.87,0,0,0,.28,0,.84.84,0,0,0,.13.27A2.09,2.09,0,0,1,20.68,49.23Zm9.82-2.4h-.05a.74.74,0,0,0-.7-1,.67.67,0,0,0-.28.06.74.74,0,0,0-1.27-.31.75.75,0,0,0-.7-.5.76.76,0,0,0-.75.75v.05a.7.7,0,0,0-.25-.05.76.76,0,0,0-.75.75.76.76,0,0,0-.75.75.77.77,0,0,0,.35.64.72.72,0,0,0-.1.36.75.75,0,0,0,1.36.44,2.49,2.49,0,0,0,.53.6c.31.28.61.54.61,1v1h.5v-.75c0-.41.35-.67.73-.95a2.75,2.75,0,0,0,.61-.56h.16a.75.75,0,0,0,.75-.75.75.75,0,0,0,0-1.5Zm-3,2.16a2.58,2.58,0,0,1-.4-.43l.18,0a.74.74,0,0,0,.5-.19v.86Zm1.21.24a4.41,4.41,0,0,0-.43.35V48.39a.74.74,0,0,0,.5.19.87.87,0,0,0,.28,0,.84.84,0,0,0,.13.27A2.09,2.09,0,0,1,28.68,49.23ZM6.5,57.5h0a.7.7,0,0,0,0-.25.76.76,0,0,0-.75-.75.87.87,0,0,0-.28,0A.75.75,0,0,0,4.75,56a.74.74,0,0,0-.55.24.75.75,0,0,0-1.45.26v0a.7.7,0,0,0-.25,0,.76.76,0,0,0-.75.75A.76.76,0,0,0,1,58a.74.74,0,0,0,.35.63.79.79,0,0,0-.1.37.75.75,0,0,0,1.36.43,2.16,2.16,0,0,0,.53.6,1.36,1.36,0,0,1,.61,1v1h.5v-.75c0-.41.35-.67.73-1a2.56,2.56,0,0,0,.61-.57l.16,0A.76.76,0,0,0,6.5,59a.75.75,0,0,0,0-1.5Zm-3,2.16a2.58,2.58,0,0,1-.4-.43l.18,0a.74.74,0,0,0,.5-.19v.86A3.32,3.32,0,0,0,3.47,59.66Zm1.21.24a4.26,4.26,0,0,0-.43.34V59.06a.74.74,0,0,0,.5.19.87.87,0,0,0,.28,0,.91.91,0,0,0,.13.26A2.36,2.36,0,0,1,4.68,59.9Zm9.82-2.4h-.05a.7.7,0,0,0,.05-.25.76.76,0,0,0-.75-.75.87.87,0,0,0-.28,0,.75.75,0,0,0-.72-.55.74.74,0,0,0-.55.24.75.75,0,0,0-1.45.26v0a.7.7,0,0,0-.25,0,.76.76,0,0,0-.75.75A.76.76,0,0,0,9,58a.74.74,0,0,0,.35.63.79.79,0,0,0-.1.37.75.75,0,0,0,1.36.43,2.16,2.16,0,0,0,.53.6,1.36,1.36,0,0,1,.61,1v1h.5v-.75c0-.41.35-.67.73-1a2.56,2.56,0,0,0,.61-.57l.16,0A.76.76,0,0,0,14.5,59a.75.75,0,0,0,0-1.5Zm-3,2.16a2.58,2.58,0,0,1-.4-.43l.18,0a.74.74,0,0,0,.5-.19v.86A3.32,3.32,0,0,0,11.47,59.66Zm1.21.24a4.26,4.26,0,0,0-.43.34V59.06a.74.74,0,0,0,.5.19.87.87,0,0,0,.28,0,.91.91,0,0,0,.13.26A2.36,2.36,0,0,1,12.68,59.9Zm9.82-2.4h-.05a.7.7,0,0,0,.05-.25.76.76,0,0,0-.75-.75.87.87,0,0,0-.28,0,.75.75,0,0,0-.72-.55.74.74,0,0,0-.55.24.75.75,0,0,0-1.45.26v0a.7.7,0,0,0-.25,0,.76.76,0,0,0-.75.75A.76.76,0,0,0,17,58a.74.74,0,0,0,.35.63.79.79,0,0,0-.1.37.75.75,0,0,0,1.36.43,2.16,2.16,0,0,0,.53.6,1.36,1.36,0,0,1,.61,1v1h.5v-.75c0-.41.35-.67.73-1a2.56,2.56,0,0,0,.61-.57l.16,0A.76.76,0,0,0,22.5,59a.75.75,0,0,0,0-1.5Zm-3,2.16a2.58,2.58,0,0,1-.4-.43l.18,0a.74.74,0,0,0,.5-.19v.86A3.32,3.32,0,0,0,19.47,59.66Zm1.21.24a4.26,4.26,0,0,0-.43.34V59.06a.74.74,0,0,0,.5.19.87.87,0,0,0,.28,0,.91.91,0,0,0,.13.26A2.36,2.36,0,0,1,20.68,59.9Zm9.82-2.4h-.05a.7.7,0,0,0,.05-.25.76.76,0,0,0-.75-.75.87.87,0,0,0-.28,0,.75.75,0,0,0-.72-.55.74.74,0,0,0-.55.24.75.75,0,0,0-1.45.26v0a.7.7,0,0,0-.25,0,.76.76,0,0,0-.75.75A.76.76,0,0,0,25,58a.74.74,0,0,0,.35.63.79.79,0,0,0-.1.37.75.75,0,0,0,1.36.43,2.16,2.16,0,0,0,.53.6,1.36,1.36,0,0,1,.61,1v1h.5v-.75c0-.41.35-.67.73-1a2.56,2.56,0,0,0,.61-.57l.16,0A.76.76,0,0,0,30.5,59a.75.75,0,0,0,0-1.5Zm-3,2.16a2.58,2.58,0,0,1-.4-.43l.18,0a.74.74,0,0,0,.5-.19v.86A3.32,3.32,0,0,0,27.47,59.66Zm1.21.24a4.26,4.26,0,0,0-.43.34V59.06a.74.74,0,0,0,.5.19.87.87,0,0,0,.28,0,.91.91,0,0,0,.13.26A2.36,2.36,0,0,1,28.68,59.9Z"/><path id="orchard_grid_dense-3" data-name="orchard_grid_dense" class="cls-2" d="M38.5,4.17h0a.7.7,0,0,0,0-.25.75.75,0,0,0-.75-.75.87.87,0,0,0-.28.05.75.75,0,0,0-1.27-.31.74.74,0,0,0-.7-.49.75.75,0,0,0-.75.75v0a1,1,0,0,0-.25,0,.75.75,0,0,0-.75.75.75.75,0,0,0-.4,1.38.75.75,0,0,0,1.26.8,2.31,2.31,0,0,0,.53.6c.31.28.61.54.61,1v1h.5V7.92c0-.41.35-.68.73-1a2.53,2.53,0,0,0,.61-.56l.16,0a.76.76,0,0,0,.75-.75.75.75,0,0,0,0-1.5Zm-3,2.16a2.28,2.28,0,0,1-.4-.44.57.57,0,0,0,.18,0,.75.75,0,0,0,.5-.2v.86Zm1.21.23c-.14.11-.29.22-.43.35V5.72a.75.75,0,0,0,.5.2A.67.67,0,0,0,37,5.86a.84.84,0,0,0,.13.27A2.09,2.09,0,0,1,36.68,6.56ZM46.5,4.17h0a.7.7,0,0,0,0-.25.75.75,0,0,0-.75-.75.87.87,0,0,0-.28.05.75.75,0,0,0-1.27-.31.74.74,0,0,0-.7-.49.75.75,0,0,0-.75.75v0a1,1,0,0,0-.25,0,.75.75,0,0,0-.75.75.75.75,0,0,0-.4,1.38.75.75,0,0,0,1.26.8,2.31,2.31,0,0,0,.53.6c.31.28.61.54.61,1v1h.5V7.92c0-.41.35-.68.73-1a2.53,2.53,0,0,0,.61-.56l.16,0a.76.76,0,0,0,.75-.75.75.75,0,0,0,0-1.5Zm-3,2.16a2.28,2.28,0,0,1-.4-.44.57.57,0,0,0,.18,0,.75.75,0,0,0,.5-.2v.86Zm1.21.23c-.14.11-.29.22-.43.35V5.72a.75.75,0,0,0,.5.2A.67.67,0,0,0,45,5.86a.84.84,0,0,0,.13.27A2.09,2.09,0,0,1,44.68,6.56ZM54.5,4.17h0a.7.7,0,0,0,0-.25.75.75,0,0,0-.75-.75.87.87,0,0,0-.28.05.75.75,0,0,0-1.27-.31.74.74,0,0,0-.7-.49.75.75,0,0,0-.75.75v0a1,1,0,0,0-.25,0,.75.75,0,0,0-.75.75.75.75,0,0,0-.4,1.38.75.75,0,0,0,1.26.8,2.31,2.31,0,0,0,.53.6c.31.28.61.54.61,1v1h.5V7.92c0-.41.35-.68.73-1a2.53,2.53,0,0,0,.61-.56l.16,0a.76.76,0,0,0,.75-.75.75.75,0,0,0,0-1.5Zm-3,2.16a2.28,2.28,0,0,1-.4-.44.57.57,0,0,0,.18,0,.75.75,0,0,0,.5-.2v.86Zm1.21.23c-.14.11-.29.22-.43.35V5.72a.75.75,0,0,0,.5.2A.67.67,0,0,0,53,5.86a.84.84,0,0,0,.13.27A2.09,2.09,0,0,1,52.68,6.56ZM62.5,4.17h0a.7.7,0,0,0,0-.25.75.75,0,0,0-.75-.75.87.87,0,0,0-.28.05.75.75,0,0,0-1.27-.31.74.74,0,0,0-.7-.49.75.75,0,0,0-.75.75v0a1,1,0,0,0-.25,0,.75.75,0,0,0-.75.75.75.75,0,0,0-.4,1.38.75.75,0,0,0,1.26.8,2.31,2.31,0,0,0,.53.6c.31.28.61.54.61,1v1h.5V7.92c0-.41.35-.68.73-1a2.53,2.53,0,0,0,.61-.56l.16,0a.76.76,0,0,0,.75-.75.75.75,0,0,0,0-1.5Zm-3,2.16a2.28,2.28,0,0,1-.4-.44.57.57,0,0,0,.18,0,.75.75,0,0,0,.5-.2v.86Zm1.21.23c-.14.11-.29.22-.43.35V5.72a.75.75,0,0,0,.5.2A.67.67,0,0,0,61,5.86a.84.84,0,0,0,.13.27A2.09,2.09,0,0,1,60.68,6.56ZM38.5,14.83h0a.74.74,0,0,0-.7-1,.67.67,0,0,0-.28.06.74.74,0,0,0-1.27-.31.75.75,0,0,0-.7-.5.76.76,0,0,0-.75.75v.05a.7.7,0,0,0-.25-.05.76.76,0,0,0-.75.75.76.76,0,0,0-.75.75.77.77,0,0,0,.35.64.72.72,0,0,0-.1.36.75.75,0,0,0,1.36.44,2.49,2.49,0,0,0,.53.6c.31.28.61.54.61,1v1h.5v-.75c0-.41.35-.67.73-.95a2.75,2.75,0,0,0,.61-.56h.16a.75.75,0,0,0,.75-.75.75.75,0,0,0,0-1.5Zm-3,2.16a2.58,2.58,0,0,1-.4-.43l.18,0a.74.74,0,0,0,.5-.19v.86Zm1.21.24a4.41,4.41,0,0,0-.43.35V16.39a.74.74,0,0,0,.5.19.87.87,0,0,0,.28,0,.84.84,0,0,0,.13.27A2.09,2.09,0,0,1,36.68,17.23Zm9.82-2.4h0a.74.74,0,0,0-.7-1,.67.67,0,0,0-.28.06.74.74,0,0,0-1.27-.31.75.75,0,0,0-.7-.5.76.76,0,0,0-.75.75v.05a.7.7,0,0,0-.25-.05.76.76,0,0,0-.75.75.76.76,0,0,0-.75.75.77.77,0,0,0,.35.64.72.72,0,0,0-.1.36.75.75,0,0,0,1.36.44,2.49,2.49,0,0,0,.53.6c.31.28.61.54.61,1v1h.5v-.75c0-.41.35-.67.73-.95a2.75,2.75,0,0,0,.61-.56h.16a.75.75,0,0,0,.75-.75.75.75,0,0,0,0-1.5Zm-3,2.16a2.58,2.58,0,0,1-.4-.43l.18,0a.74.74,0,0,0,.5-.19v.86Zm1.21.24a4.41,4.41,0,0,0-.43.35V16.39a.74.74,0,0,0,.5.19.87.87,0,0,0,.28,0,.84.84,0,0,0,.13.27A2.09,2.09,0,0,1,44.68,17.23Zm9.82-2.4h0a.74.74,0,0,0-.7-1,.67.67,0,0,0-.28.06.74.74,0,0,0-1.27-.31.75.75,0,0,0-.7-.5.76.76,0,0,0-.75.75v.05a.7.7,0,0,0-.25-.05.76.76,0,0,0-.75.75.76.76,0,0,0-.75.75.77.77,0,0,0,.35.64.72.72,0,0,0-.1.36.75.75,0,0,0,1.36.44,2.49,2.49,0,0,0,.53.6c.31.28.61.54.61,1v1h.5v-.75c0-.41.35-.67.73-.95a2.75,2.75,0,0,0,.61-.56h.16a.75.75,0,0,0,.75-.75.75.75,0,1,0,0-1.5Zm-3,2.16a2.58,2.58,0,0,1-.4-.43l.18,0a.74.74,0,0,0,.5-.19v.86Zm1.21.24a4.41,4.41,0,0,0-.43.35V16.39a.74.74,0,0,0,.5.19.87.87,0,0,0,.28,0,.84.84,0,0,0,.13.27A2.09,2.09,0,0,1,52.68,17.23Zm9.82-2.4h0a.74.74,0,0,0-.7-1,.67.67,0,0,0-.28.06.74.74,0,0,0-1.27-.31.75.75,0,0,0-.7-.5.76.76,0,0,0-.75.75v.05a.7.7,0,0,0-.25-.05.76.76,0,0,0-.75.75.76.76,0,0,0-.75.75.77.77,0,0,0,.35.64.72.72,0,0,0-.1.36.75.75,0,0,0,1.36.44,2.49,2.49,0,0,0,.53.6c.31.28.61.54.61,1v1h.5v-.75c0-.41.35-.67.73-.95a2.75,2.75,0,0,0,.61-.56h.16a.75.75,0,0,0,.75-.75.75.75,0,1,0,0-1.5Zm-3,2.16a2.58,2.58,0,0,1-.4-.43l.18,0a.74.74,0,0,0,.5-.19v.86Zm1.21.24a4.41,4.41,0,0,0-.43.35V16.39a.74.74,0,0,0,.5.19.87.87,0,0,0,.28,0,.84.84,0,0,0,.13.27A2.09,2.09,0,0,1,60.68,17.23ZM38.5,25.5h0a.7.7,0,0,0,0-.25.76.76,0,0,0-.75-.75.87.87,0,0,0-.28.05.75.75,0,0,0-.72-.55.74.74,0,0,0-.55.24.75.75,0,0,0-1.45.26v.05a.7.7,0,0,0-.25-.05.76.76,0,0,0-.75.75A.76.76,0,0,0,33,26a.74.74,0,0,0,.35.63.79.79,0,0,0-.1.37.75.75,0,0,0,1.36.43,2.16,2.16,0,0,0,.53.6,1.36,1.36,0,0,1,.61,1v1h.5v-.75c0-.41.35-.67.73-.95a2.56,2.56,0,0,0,.61-.57l.16,0A.76.76,0,0,0,38.5,27a.75.75,0,0,0,0-1.5Zm-3,2.16a2.58,2.58,0,0,1-.4-.43l.18,0a.74.74,0,0,0,.5-.19v.86A3.32,3.32,0,0,0,35.47,27.66Zm1.21.24a4.26,4.26,0,0,0-.43.34V27.06a.74.74,0,0,0,.5.19A.87.87,0,0,0,37,27.2a.91.91,0,0,0,.13.26A2.36,2.36,0,0,1,36.68,27.9Zm9.82-2.4h0a.7.7,0,0,0,0-.25.76.76,0,0,0-.75-.75.87.87,0,0,0-.28.05.75.75,0,0,0-.72-.55.74.74,0,0,0-.55.24.75.75,0,0,0-1.45.26v.05a.7.7,0,0,0-.25-.05.76.76,0,0,0-.75.75A.76.76,0,0,0,41,26a.74.74,0,0,0,.35.63.79.79,0,0,0-.1.37.75.75,0,0,0,1.36.43,2.16,2.16,0,0,0,.53.6,1.36,1.36,0,0,1,.61,1v1h.5v-.75c0-.41.35-.67.73-.95a2.56,2.56,0,0,0,.61-.57l.16,0A.76.76,0,0,0,46.5,27a.75.75,0,0,0,0-1.5Zm-3,2.16a2.58,2.58,0,0,1-.4-.43l.18,0a.74.74,0,0,0,.5-.19v.86A3.32,3.32,0,0,0,43.47,27.66Zm1.21.24a4.26,4.26,0,0,0-.43.34V27.06a.74.74,0,0,0,.5.19A.87.87,0,0,0,45,27.2a.91.91,0,0,0,.13.26A2.36,2.36,0,0,1,44.68,27.9Zm9.82-2.4h0a.7.7,0,0,0,0-.25.76.76,0,0,0-.75-.75.87.87,0,0,0-.28.05.75.75,0,0,0-.72-.55.74.74,0,0,0-.55.24.75.75,0,0,0-1.45.26v.05a.7.7,0,0,0-.25-.05.76.76,0,0,0-.75.75A.76.76,0,0,0,49,26a.74.74,0,0,0,.35.63.79.79,0,0,0-.1.37.75.75,0,0,0,1.36.43,2.16,2.16,0,0,0,.53.6,1.36,1.36,0,0,1,.61,1v1h.5v-.75c0-.41.35-.67.73-.95a2.56,2.56,0,0,0,.61-.57l.16,0A.76.76,0,0,0,54.5,27a.75.75,0,0,0,0-1.5Zm-3,2.16a2.58,2.58,0,0,1-.4-.43l.18,0a.74.74,0,0,0,.5-.19v.86A3.32,3.32,0,0,0,51.47,27.66Zm1.21.24a4.26,4.26,0,0,0-.43.34V27.06a.74.74,0,0,0,.5.19A.87.87,0,0,0,53,27.2a.91.91,0,0,0,.13.26A2.36,2.36,0,0,1,52.68,27.9Zm9.82-2.4h0a.7.7,0,0,0,0-.25.76.76,0,0,0-.75-.75.87.87,0,0,0-.28.05.75.75,0,0,0-.72-.55.74.74,0,0,0-.55.24.75.75,0,0,0-1.45.26v.05a.7.7,0,0,0-.25-.05.76.76,0,0,0-.75.75A.76.76,0,0,0,57,26a.74.74,0,0,0,.35.63.79.79,0,0,0-.1.37.75.75,0,0,0,1.36.43,2.16,2.16,0,0,0,.53.6,1.36,1.36,0,0,1,.61,1v1h.5v-.75c0-.41.35-.67.73-.95a2.56,2.56,0,0,0,.61-.57l.16,0A.76.76,0,0,0,62.5,27a.75.75,0,0,0,0-1.5Zm-3,2.16a2.58,2.58,0,0,1-.4-.43l.18,0a.74.74,0,0,0,.5-.19v.86A3.32,3.32,0,0,0,59.47,27.66Zm1.21.24a4.26,4.26,0,0,0-.43.34V27.06a.74.74,0,0,0,.5.19A.87.87,0,0,0,61,27.2a.91.91,0,0,0,.13.26A2.36,2.36,0,0,1,60.68,27.9Z"/><path id="orchard_grid_dense-4" data-name="orchard_grid_dense" class="cls-2" d="M38.5,36.17h0a.7.7,0,0,0,0-.25.75.75,0,0,0-.75-.75.87.87,0,0,0-.28,0,.75.75,0,0,0-1.27-.31.74.74,0,0,0-.7-.49.75.75,0,0,0-.75.75v0a1,1,0,0,0-.25,0,.75.75,0,0,0-.75.75.75.75,0,0,0-.4,1.38.75.75,0,0,0,1.26.8,2.31,2.31,0,0,0,.53.6c.31.28.61.54.61,1v1h.5v-.75c0-.41.35-.68.73-1a2.53,2.53,0,0,0,.61-.56l.16,0a.76.76,0,0,0,.75-.75.75.75,0,0,0,0-1.5Zm-3,2.16a2.28,2.28,0,0,1-.4-.44l.18,0a.75.75,0,0,0,.5-.2v.86Zm1.21.23c-.14.11-.29.22-.43.35V37.72a.75.75,0,0,0,.5.2.67.67,0,0,0,.28-.06.84.84,0,0,0,.13.27A2.09,2.09,0,0,1,36.68,38.56Zm9.82-2.39h0a.7.7,0,0,0,0-.25.75.75,0,0,0-.75-.75.87.87,0,0,0-.28,0,.75.75,0,0,0-1.27-.31.74.74,0,0,0-.7-.49.75.75,0,0,0-.75.75v0a1,1,0,0,0-.25,0,.75.75,0,0,0-.75.75.75.75,0,0,0-.4,1.38.75.75,0,0,0,1.26.8,2.31,2.31,0,0,0,.53.6c.31.28.61.54.61,1v1h.5v-.75c0-.41.35-.68.73-1a2.53,2.53,0,0,0,.61-.56l.16,0a.76.76,0,0,0,.75-.75.75.75,0,0,0,0-1.5Zm-3,2.16a2.28,2.28,0,0,1-.4-.44l.18,0a.75.75,0,0,0,.5-.2v.86Zm1.21.23c-.14.11-.29.22-.43.35V37.72a.75.75,0,0,0,.5.2.67.67,0,0,0,.28-.06.84.84,0,0,0,.13.27A2.09,2.09,0,0,1,44.68,38.56Zm9.82-2.39h0a.7.7,0,0,0,0-.25.75.75,0,0,0-.75-.75.87.87,0,0,0-.28,0,.75.75,0,0,0-1.27-.31.74.74,0,0,0-.7-.49.75.75,0,0,0-.75.75v0a1,1,0,0,0-.25,0,.75.75,0,0,0-.75.75.75.75,0,0,0-.4,1.38.75.75,0,0,0,1.26.8,2.31,2.31,0,0,0,.53.6c.31.28.61.54.61,1v1h.5v-.75c0-.41.35-.68.73-1a2.53,2.53,0,0,0,.61-.56l.16,0a.76.76,0,0,0,.75-.75.75.75,0,0,0,0-1.5Zm-3,2.16a2.28,2.28,0,0,1-.4-.44l.18,0a.75.75,0,0,0,.5-.2v.86Zm1.21.23c-.14.11-.29.22-.43.35V37.72a.75.75,0,0,0,.5.2.67.67,0,0,0,.28-.06.84.84,0,0,0,.13.27A2.09,2.09,0,0,1,52.68,38.56Zm9.82-2.39h0a.7.7,0,0,0,0-.25.75.75,0,0,0-.75-.75.87.87,0,0,0-.28,0,.75.75,0,0,0-1.27-.31.74.74,0,0,0-.7-.49.75.75,0,0,0-.75.75v0a1,1,0,0,0-.25,0,.75.75,0,0,0-.75.75.75.75,0,0,0-.4,1.38.75.75,0,0,0,1.26.8,2.31,2.31,0,0,0,.53.6c.31.28.61.54.61,1v1h.5v-.75c0-.41.35-.68.73-1a2.53,2.53,0,0,0,.61-.56l.16,0a.76.76,0,0,0,.75-.75.75.75,0,0,0,0-1.5Zm-3,2.16a2.28,2.28,0,0,1-.4-.44l.18,0a.75.75,0,0,0,.5-.2v.86Zm1.21.23c-.14.11-.29.22-.43.35V37.72a.75.75,0,0,0,.5.2.67.67,0,0,0,.28-.06.84.84,0,0,0,.13.27A2.09,2.09,0,0,1,60.68,38.56ZM38.5,46.83h0a.74.74,0,0,0-.7-1,.67.67,0,0,0-.28.06.74.74,0,0,0-1.27-.31.75.75,0,0,0-.7-.5.76.76,0,0,0-.75.75v.05a.7.7,0,0,0-.25-.05.76.76,0,0,0-.75.75.76.76,0,0,0-.75.75.77.77,0,0,0,.35.64.72.72,0,0,0-.1.36.75.75,0,0,0,1.36.44,2.49,2.49,0,0,0,.53.6c.31.28.61.54.61,1v1h.5v-.75c0-.41.35-.67.73-.95a2.75,2.75,0,0,0,.61-.56h.16a.75.75,0,0,0,.75-.75.75.75,0,0,0,0-1.5Zm-3,2.16a2.58,2.58,0,0,1-.4-.43l.18,0a.74.74,0,0,0,.5-.19v.86Zm1.21.24a4.41,4.41,0,0,0-.43.35V48.39a.74.74,0,0,0,.5.19.87.87,0,0,0,.28,0,.84.84,0,0,0,.13.27A2.09,2.09,0,0,1,36.68,49.23Zm9.82-2.4h0a.74.74,0,0,0-.7-1,.67.67,0,0,0-.28.06.74.74,0,0,0-1.27-.31.75.75,0,0,0-.7-.5.76.76,0,0,0-.75.75v.05a.7.7,0,0,0-.25-.05.76.76,0,0,0-.75.75.76.76,0,0,0-.75.75.77.77,0,0,0,.35.64.72.72,0,0,0-.1.36.75.75,0,0,0,1.36.44,2.49,2.49,0,0,0,.53.6c.31.28.61.54.61,1v1h.5v-.75c0-.41.35-.67.73-.95a2.75,2.75,0,0,0,.61-.56h.16a.75.75,0,0,0,.75-.75.75.75,0,0,0,0-1.5Zm-3,2.16a2.58,2.58,0,0,1-.4-.43l.18,0a.74.74,0,0,0,.5-.19v.86Zm1.21.24a4.41,4.41,0,0,0-.43.35V48.39a.74.74,0,0,0,.5.19.87.87,0,0,0,.28,0,.84.84,0,0,0,.13.27A2.09,2.09,0,0,1,44.68,49.23Zm9.82-2.4h0a.74.74,0,0,0-.7-1,.67.67,0,0,0-.28.06.74.74,0,0,0-1.27-.31.75.75,0,0,0-.7-.5.76.76,0,0,0-.75.75v.05a.7.7,0,0,0-.25-.05.76.76,0,0,0-.75.75.76.76,0,0,0-.75.75.77.77,0,0,0,.35.64.72.72,0,0,0-.1.36.75.75,0,0,0,1.36.44,2.49,2.49,0,0,0,.53.6c.31.28.61.54.61,1v1h.5v-.75c0-.41.35-.67.73-.95a2.75,2.75,0,0,0,.61-.56h.16a.75.75,0,0,0,.75-.75.75.75,0,0,0,0-1.5Zm-3,2.16a2.58,2.58,0,0,1-.4-.43l.18,0a.74.74,0,0,0,.5-.19v.86Zm1.21.24a4.41,4.41,0,0,0-.43.35V48.39a.74.74,0,0,0,.5.19.87.87,0,0,0,.28,0,.84.84,0,0,0,.13.27A2.09,2.09,0,0,1,52.68,49.23Zm9.82-2.4h0a.74.74,0,0,0-.7-1,.67.67,0,0,0-.28.06.74.74,0,0,0-1.27-.31.75.75,0,0,0-.7-.5.76.76,0,0,0-.75.75v.05a.7.7,0,0,0-.25-.05.76.76,0,0,0-.75.75.76.76,0,0,0-.75.75.77.77,0,0,0,.35.64.72.72,0,0,0-.1.36.75.75,0,0,0,1.36.44,2.49,2.49,0,0,0,.53.6c.31.28.61.54.61,1v1h.5v-.75c0-.41.35-.67.73-.95a2.75,2.75,0,0,0,.61-.56h.16a.75.75,0,0,0,.75-.75.75.75,0,0,0,0-1.5Zm-3,2.16a2.58,2.58,0,0,1-.4-.43l.18,0a.74.74,0,0,0,.5-.19v.86Zm1.21.24a4.41,4.41,0,0,0-.43.35V48.39a.74.74,0,0,0,.5.19.87.87,0,0,0,.28,0,.84.84,0,0,0,.13.27A2.09,2.09,0,0,1,60.68,49.23ZM38.5,57.5h0a.7.7,0,0,0,0-.25.76.76,0,0,0-.75-.75.87.87,0,0,0-.28,0,.75.75,0,0,0-.72-.55.74.74,0,0,0-.55.24.75.75,0,0,0-1.45.26v0a.7.7,0,0,0-.25,0,.76.76,0,0,0-.75.75A.76.76,0,0,0,33,58a.74.74,0,0,0,.35.63.79.79,0,0,0-.1.37.75.75,0,0,0,1.36.43,2.16,2.16,0,0,0,.53.6,1.36,1.36,0,0,1,.61,1v1h.5v-.75c0-.41.35-.67.73-1a2.56,2.56,0,0,0,.61-.57l.16,0A.76.76,0,0,0,38.5,59a.75.75,0,0,0,0-1.5Zm-3,2.16a2.58,2.58,0,0,1-.4-.43l.18,0a.74.74,0,0,0,.5-.19v.86A3.32,3.32,0,0,0,35.47,59.66Zm1.21.24a4.26,4.26,0,0,0-.43.34V59.06a.74.74,0,0,0,.5.19.87.87,0,0,0,.28,0,.91.91,0,0,0,.13.26A2.36,2.36,0,0,1,36.68,59.9Zm9.82-2.4h0a.7.7,0,0,0,0-.25.76.76,0,0,0-.75-.75.87.87,0,0,0-.28,0,.75.75,0,0,0-.72-.55.74.74,0,0,0-.55.24.75.75,0,0,0-1.45.26v0a.7.7,0,0,0-.25,0,.76.76,0,0,0-.75.75A.76.76,0,0,0,41,58a.74.74,0,0,0,.35.63.79.79,0,0,0-.1.37.75.75,0,0,0,1.36.43,2.16,2.16,0,0,0,.53.6,1.36,1.36,0,0,1,.61,1v1h.5v-.75c0-.41.35-.67.73-1a2.56,2.56,0,0,0,.61-.57l.16,0A.76.76,0,0,0,46.5,59a.75.75,0,0,0,0-1.5Zm-3,2.16a2.58,2.58,0,0,1-.4-.43l.18,0a.74.74,0,0,0,.5-.19v.86A3.32,3.32,0,0,0,43.47,59.66Zm1.21.24a4.26,4.26,0,0,0-.43.34V59.06a.74.74,0,0,0,.5.19.87.87,0,0,0,.28,0,.91.91,0,0,0,.13.26A2.36,2.36,0,0,1,44.68,59.9Zm9.82-2.4h0a.7.7,0,0,0,0-.25.76.76,0,0,0-.75-.75.87.87,0,0,0-.28,0,.75.75,0,0,0-.72-.55.74.74,0,0,0-.55.24.75.75,0,0,0-1.45.26v0a.7.7,0,0,0-.25,0,.76.76,0,0,0-.75.75A.76.76,0,0,0,49,58a.74.74,0,0,0,.35.63.79.79,0,0,0-.1.37.75.75,0,0,0,1.36.43,2.16,2.16,0,0,0,.53.6,1.36,1.36,0,0,1,.61,1v1h.5v-.75c0-.41.35-.67.73-1a2.56,2.56,0,0,0,.61-.57l.16,0A.76.76,0,0,0,54.5,59a.75.75,0,0,0,0-1.5Zm-3,2.16a2.58,2.58,0,0,1-.4-.43l.18,0a.74.74,0,0,0,.5-.19v.86A3.32,3.32,0,0,0,51.47,59.66Zm1.21.24a4.26,4.26,0,0,0-.43.34V59.06a.74.74,0,0,0,.5.19.87.87,0,0,0,.28,0,.91.91,0,0,0,.13.26A2.36,2.36,0,0,1,52.68,59.9Zm9.82-2.4h0a.7.7,0,0,0,0-.25.76.76,0,0,0-.75-.75.87.87,0,0,0-.28,0,.75.75,0,0,0-.72-.55.74.74,0,0,0-.55.24.75.75,0,0,0-1.45.26v0a.7.7,0,0,0-.25,0,.76.76,0,0,0-.75.75A.76.76,0,0,0,57,58a.74.74,0,0,0,.35.63.79.79,0,0,0-.1.37.75.75,0,0,0,1.36.43,2.16,2.16,0,0,0,.53.6,1.36,1.36,0,0,1,.61,1v1h.5v-.75c0-.41.35-.67.73-1a2.56,2.56,0,0,0,.61-.57l.16,0A.76.76,0,0,0,62.5,59a.75.75,0,0,0,0-1.5Zm-3,2.16a2.58,2.58,0,0,1-.4-.43l.18,0a.74.74,0,0,0,.5-.19v.86A3.32,3.32,0,0,0,59.47,59.66Zm1.21.24a4.26,4.26,0,0,0-.43.34V59.06a.74.74,0,0,0,.5.19.87.87,0,0,0,.28,0,.91.91,0,0,0,.13.26A2.36,2.36,0,0,1,60.68,59.9Z"/></g></svg>