<svg id="Sprites" xmlns="http://www.w3.org/2000/svg" viewBox="0 0 16 16"><defs><style>.cls-1{fill:#236035;}</style></defs><g id="orchard_pnt_dual"><path id="orchard_pnt_dual_trunk" d="M11.19,10A5,5,0,0,1,10,11.09C9.21,11.65,8.5,12.18,8.5,13v1.5h-1v-2a2.64,2.64,0,0,0-1.22-1.93A4.49,4.49,0,0,1,5.22,9.36a1.45,1.45,0,0,0,.27-.76,1.32,1.32,0,0,0,.65.34A3.4,3.4,0,0,0,7,9.82c.18.16.37.33.55.52V8.61A1.57,1.57,0,0,0,7.91,8h.18a1.57,1.57,0,0,0,.41.61V11a10.57,10.57,0,0,1,.86-.7,4.57,4.57,0,0,0,1-.86A1.39,1.39,0,0,0,11.19,10Z"/><path id="orchard_pnt_dual_leaves" class="cls-1" d="M14.5,7A1.5,1.5,0,0,1,13,8.5,1.5,1.5,0,0,1,11.5,10a1.06,1.06,0,0,1-.31,0,1.53,1.53,0,0,1-1.13-1.07A1.48,1.48,0,0,1,8.5,8.61,1.57,1.57,0,0,1,8.09,8H7.91a1.57,1.57,0,0,1-.41.61A1.47,1.47,0,0,1,6.5,9a1.13,1.13,0,0,1-.36-.06,1.32,1.32,0,0,1-.65-.34,1.45,1.45,0,0,1-.27.76A1.47,1.47,0,0,1,4,10,1.5,1.5,0,0,1,2.5,8.5a1.54,1.54,0,0,1,.2-.74A1.48,1.48,0,0,1,2,6.5,1.5,1.5,0,0,1,3.5,5,1.5,1.5,0,0,1,5,3.5a1.71,1.71,0,0,1,.51.09s0-.06,0-.09A1.5,1.5,0,0,1,8.4,3,1.53,1.53,0,0,1,9.5,2.5a1.49,1.49,0,0,1,1.44,1.11,1.47,1.47,0,0,1,.56-.11A1.5,1.5,0,0,1,13,5a1.71,1.71,0,0,1-.09.51H13A1.5,1.5,0,0,1,14.5,7Z"/></g></svg>