<svg id="Sprites" xmlns="http://www.w3.org/2000/svg" viewBox="0 0 64 64"><defs><style>.cls-1{fill:none;}.cls-2{fill:#236035;}</style></defs><g id="orchard_poly_random_dense_half"><rect id="bbox_64" class="cls-1" width="64" height="64"/><path id="orchard_random_dense" class="cls-2" d="M9.88,6.12H9.83a.74.74,0,0,0-.71-1,.6.6,0,0,0-.27.06.75.75,0,0,0-1.27-.32.75.75,0,0,0-1.46.26s0,0,0,0a.74.74,0,0,0-.25,0,.76.76,0,0,0-.76.75.75.75,0,0,0-.74.75.77.77,0,0,0,.35.64.73.73,0,0,0-.11.36.75.75,0,0,0,.76.75A.73.73,0,0,0,6,8.06a2.56,2.56,0,0,0,.54.6,1.31,1.31,0,0,1,.6,1v1h.5V9.87c0-.41.36-.67.74-.95A3,3,0,0,0,9,8.36h.15a.75.75,0,0,0,.76-.75.75.75,0,0,0,0-1.5ZM7.12,8.54a2.11,2.11,0,0,0-.27-.25,2.57,2.57,0,0,1-.4-.44l.17,0a.72.72,0,0,0,.5-.19Zm.93,0-.43.35V7.68a.76.76,0,0,0,.5.19.78.78,0,0,0,.28,0,.87.87,0,0,0,.14.27A2.17,2.17,0,0,1,8.05,8.52Zm16.83.1h-.05a.74.74,0,0,0-.71-1,.6.6,0,0,0-.27.06.75.75,0,0,0-1.27-.32.75.75,0,0,0-1.46.26s0,0,0,0a.74.74,0,0,0-.25,0,.76.76,0,0,0-.76.75.75.75,0,0,0-.74.75.77.77,0,0,0,.35.64.73.73,0,0,0-.11.36.75.75,0,0,0,.76.75.73.73,0,0,0,.6-.31,2.56,2.56,0,0,0,.54.6,1.31,1.31,0,0,1,.6,1v1h.5v-.75c0-.41.36-.67.74-.95a3,3,0,0,0,.61-.56h.15a.75.75,0,0,0,.76-.75.75.75,0,0,0,0-1.5ZM22.12,11a2.11,2.11,0,0,0-.27-.25,2.57,2.57,0,0,1-.4-.44l.17,0a.72.72,0,0,0,.5-.19Zm.93,0-.43.35V10.18a.76.76,0,0,0,.5.19.78.78,0,0,0,.28,0,.87.87,0,0,0,.14.27A2.17,2.17,0,0,1,23.05,11Zm-8.67,7.6h-.05a.74.74,0,0,0-.71-1,.6.6,0,0,0-.27.06.75.75,0,0,0-1.27-.32.75.75,0,0,0-1.46.26s0,0,0,.05a.74.74,0,0,0-.25-.05.76.76,0,0,0-.76.75.75.75,0,0,0-.74.75.77.77,0,0,0,.35.64.73.73,0,0,0-.11.36.75.75,0,0,0,.76.75.73.73,0,0,0,.6-.31,2.56,2.56,0,0,0,.54.6,1.31,1.31,0,0,1,.6,1v1h.5v-.75c0-.41.36-.67.74-.95a3,3,0,0,0,.61-.56h.15a.75.75,0,0,0,.76-.75.75.75,0,0,0,0-1.5ZM11.62,21a2.11,2.11,0,0,0-.27-.25,2.57,2.57,0,0,1-.4-.44l.17,0a.72.72,0,0,0,.5-.19Zm.93,0-.43.35V20.18a.76.76,0,0,0,.5.19.78.78,0,0,0,.28-.05.87.87,0,0,0,.14.27A2.17,2.17,0,0,1,12.55,21ZM1.75,2.25H1.7A.8.8,0,0,0,1.75,2,.74.74,0,0,0,1,1.25a.82.82,0,0,0-.28.05A.73.73,0,0,0,0,.75V4A.82.82,0,0,0,.28,4a.6.6,0,0,0,.14.26A2.32,2.32,0,0,1,0,4.6v.63A2.11,2.11,0,0,1,.23,5a2.58,2.58,0,0,0,.62-.56L1,4.5a.75.75,0,0,0,.75-.75.75.75,0,0,0,0-1.5Zm29.5,12.93H31.2a.74.74,0,0,0-.7-1,.64.64,0,0,0-.28.06.74.74,0,0,0-.72-.56.8.8,0,0,0-.55.24.74.74,0,0,0-.7-.49.75.75,0,0,0-.75.75s0,0,0,.05a.8.8,0,0,0-.26-.05.75.75,0,0,0-.75.75.75.75,0,0,0-.75.75.77.77,0,0,0,.35.64.72.72,0,0,0-.1.36.75.75,0,0,0,1.36.44,2.12,2.12,0,0,0,.53.59,1.36,1.36,0,0,1,.61,1v1H29v-.75c0-.41.36-.67.73-.95a2.81,2.81,0,0,0,.62-.56h.15a.74.74,0,0,0,.75-.75.75.75,0,0,0,0-1.5ZM28.5,17.6a3.08,3.08,0,0,0-.27-.25,1.75,1.75,0,0,1-.4-.44l.17,0a.74.74,0,0,0,.5-.19Zm.93,0a4.41,4.41,0,0,0-.43.35V16.74a.74.74,0,0,0,.5.19.82.82,0,0,0,.28-.05.59.59,0,0,0,.14.27A2.17,2.17,0,0,1,29.43,17.58ZM7.25,25.71h0a.74.74,0,0,0-.7-1,.82.82,0,0,0-.28.06.74.74,0,0,0-.72-.56.77.77,0,0,0-.55.25.74.74,0,0,0-.7-.5.75.75,0,0,0-.75.75.43.43,0,0,0,0,.05.8.8,0,0,0-.26-.05.75.75,0,0,0-.75.75.75.75,0,0,0-.75.75.77.77,0,0,0,.35.64A.74.74,0,0,0,2.75,28a.74.74,0,0,0,.61-.31,2.31,2.31,0,0,0,.53.6c.31.28.61.54.61,1v1H5v-.75c0-.41.36-.67.73-.95A2.58,2.58,0,0,0,6.35,28H6.5a.74.74,0,0,0,.75-.75.75.75,0,0,0,0-1.5ZM4.5,28.13l-.27-.26a1.55,1.55,0,0,1-.4-.42H4a.74.74,0,0,0,.5-.19Zm.93,0a4.41,4.41,0,0,0-.43.35V27.27a.74.74,0,0,0,.5.19.64.64,0,0,0,.28-.05.59.59,0,0,0,.14.27A2.17,2.17,0,0,1,5.43,28.11Zm22-4.49h-.05a.74.74,0,0,0-.71-1,.6.6,0,0,0-.27.06.75.75,0,0,0-1.27-.32.75.75,0,0,0-1.46.26s0,0,0,.05a.74.74,0,0,0-.25-.05.76.76,0,0,0-.76.75.75.75,0,0,0-.74.75.77.77,0,0,0,.35.64.73.73,0,0,0-.11.36.75.75,0,0,0,.76.75.73.73,0,0,0,.6-.31,2.56,2.56,0,0,0,.54.6,1.31,1.31,0,0,1,.6,1v1h.5v-.75c0-.41.36-.67.74-.95a3,3,0,0,0,.61-.56h.15a.75.75,0,0,0,.76-.75.75.75,0,0,0,0-1.5ZM24.62,26a2.11,2.11,0,0,0-.27-.25,2.57,2.57,0,0,1-.4-.44l.17,0a.72.72,0,0,0,.5-.19Zm.93,0-.43.35V25.18a.76.76,0,0,0,.5.19.78.78,0,0,0,.28-.05.87.87,0,0,0,.14.27A2.17,2.17,0,0,1,25.55,26ZM32,4V.75a.8.8,0,0,0-.55.24.73.73,0,0,0-.7-.49.74.74,0,0,0-.75.75s0,0,0,0a1.17,1.17,0,0,0-.26,0A.74.74,0,0,0,29,2a.75.75,0,0,0-.4,1.38.76.76,0,0,0-.1.37.75.75,0,0,0,1.36.43,2.53,2.53,0,0,0,.53.61c.31.27.61.53.61,1v1h.5V6a1,1,0,0,1,.5-.77V4.6l-.07,0c-.14.11-.29.22-.43.35V3.8A.75.75,0,0,0,32,4Zm-1,.67a3.25,3.25,0,0,0-.27-.26,1.73,1.73,0,0,1-.4-.43l.17,0a.75.75,0,0,0,.5-.2ZM19.05,0h-6A.7.7,0,0,0,13,.25a.75.75,0,0,0,.35.63.76.76,0,0,0-.1.37.75.75,0,0,0,1.36.43,2.53,2.53,0,0,0,.53.61c.31.27.61.53.61,1v1h.5V3.5c0-.41.36-.68.73-1A2.58,2.58,0,0,0,17.6,2l.15,0a.75.75,0,0,0,.75-.75A.75.75,0,0,0,19.25.5.73.73,0,0,0,19.05,0Zm-3.3,2.17a3.25,3.25,0,0,0-.27-.26,1.73,1.73,0,0,1-.4-.43l.17,0a.75.75,0,0,0,.5-.2Zm.93,0c-.14.11-.29.22-.43.35V1.3a.75.75,0,0,0,.5.2A.82.82,0,0,0,17,1.45a.6.6,0,0,0,.14.26A2.17,2.17,0,0,1,16.68,2.14ZM18.5,31.75h-.05a.8.8,0,0,0,.05-.26.74.74,0,0,0-.75-.75.82.82,0,0,0-.28.05.73.73,0,0,0-.72-.55.8.8,0,0,0-.55.24.73.73,0,0,0-.7-.49.74.74,0,0,0-.75.75s0,0,0,0a1.17,1.17,0,0,0-.26,0,.74.74,0,0,0-.75.75.73.73,0,0,0-.7.5h6A.73.73,0,0,0,18.5,31.75Z"/><path id="orchard_random_dense-2" data-name="orchard_random_dense" class="cls-2" d="M9.88,38.12H9.83a.74.74,0,0,0-.71-1,.6.6,0,0,0-.27.06.75.75,0,0,0-1.27-.32.75.75,0,0,0-1.46.26s0,0,0,.05a.74.74,0,0,0-.25-.05.76.76,0,0,0-.76.75.75.75,0,0,0-.74.75.77.77,0,0,0,.35.64.73.73,0,0,0-.11.36.75.75,0,0,0,.76.75.73.73,0,0,0,.6-.31,2.56,2.56,0,0,0,.54.6,1.31,1.31,0,0,1,.6,1v1h.5v-.75c0-.41.36-.67.74-.95A3,3,0,0,0,9,40.36h.15a.75.75,0,0,0,.76-.75.75.75,0,0,0,0-1.5ZM7.12,40.54a2.11,2.11,0,0,0-.27-.25,2.57,2.57,0,0,1-.4-.44l.17,0a.72.72,0,0,0,.5-.19Zm.93,0-.43.35V39.68a.76.76,0,0,0,.5.19.78.78,0,0,0,.28,0,.87.87,0,0,0,.14.27A2.17,2.17,0,0,1,8.05,40.52Zm16.83.1h-.05a.74.74,0,0,0-.71-1,.6.6,0,0,0-.27.06.75.75,0,0,0-1.27-.32.75.75,0,0,0-1.46.26s0,0,0,.05a.74.74,0,0,0-.25-.05.76.76,0,0,0-.76.75.75.75,0,0,0-.74.75.77.77,0,0,0,.35.64.73.73,0,0,0-.11.36.75.75,0,0,0,.76.75.73.73,0,0,0,.6-.31,2.56,2.56,0,0,0,.54.6,1.31,1.31,0,0,1,.6,1v1h.5v-.75c0-.41.36-.67.74-.95a3,3,0,0,0,.61-.56h.15a.75.75,0,0,0,.76-.75.75.75,0,0,0,0-1.5ZM22.12,43a2.11,2.11,0,0,0-.27-.25,2.57,2.57,0,0,1-.4-.44l.17,0a.72.72,0,0,0,.5-.19Zm.93,0-.43.35V42.18a.76.76,0,0,0,.5.19.78.78,0,0,0,.28,0,.87.87,0,0,0,.14.27A2.17,2.17,0,0,1,23.05,43Zm-8.67,7.6h-.05a.74.74,0,0,0-.71-1,.6.6,0,0,0-.27.06.75.75,0,0,0-1.27-.32.75.75,0,0,0-1.46.26s0,0,0,.05a.74.74,0,0,0-.25-.05.76.76,0,0,0-.76.75.75.75,0,0,0-.74.75.77.77,0,0,0,.35.64.73.73,0,0,0-.11.36.75.75,0,0,0,.76.75.73.73,0,0,0,.6-.31,2.56,2.56,0,0,0,.54.6,1.31,1.31,0,0,1,.6,1v1h.5v-.75c0-.41.36-.67.74-.95a3,3,0,0,0,.61-.56h.15a.75.75,0,0,0,.76-.75.75.75,0,0,0,0-1.5ZM11.62,53a2.11,2.11,0,0,0-.27-.25,2.57,2.57,0,0,1-.4-.44l.17,0a.72.72,0,0,0,.5-.19Zm.93,0-.43.35V52.18a.76.76,0,0,0,.5.19.78.78,0,0,0,.28,0,.87.87,0,0,0,.14.27A2.17,2.17,0,0,1,12.55,53ZM1.75,34.25H1.7A.8.8,0,0,0,1.75,34,.74.74,0,0,0,1,33.25a.82.82,0,0,0-.28,0A.73.73,0,0,0,0,32.75V36a.82.82,0,0,0,.28,0,.6.6,0,0,0,.14.26A2.32,2.32,0,0,1,0,36.6v.63A2.11,2.11,0,0,1,.23,37a2.58,2.58,0,0,0,.62-.56l.15,0a.75.75,0,0,0,.75-.75.75.75,0,0,0,0-1.5Zm29.5,12.93H31.2a.74.74,0,0,0-.7-1,.64.64,0,0,0-.28.06.74.74,0,0,0-.72-.56.8.8,0,0,0-.55.24.74.74,0,0,0-.7-.49.75.75,0,0,0-.75.75s0,0,0,0a.8.8,0,0,0-.26,0,.75.75,0,0,0-.75.75.75.75,0,0,0-.75.75.77.77,0,0,0,.35.64.72.72,0,0,0-.1.36.75.75,0,0,0,1.36.44,2.12,2.12,0,0,0,.53.59,1.36,1.36,0,0,1,.61,1v1H29v-.75c0-.41.36-.67.73-1a2.81,2.81,0,0,0,.62-.56h.15a.74.74,0,0,0,.75-.75.75.75,0,1,0,0-1.5ZM28.5,49.6a3.08,3.08,0,0,0-.27-.25,1.75,1.75,0,0,1-.4-.44l.17,0a.74.74,0,0,0,.5-.19Zm.93,0a4.41,4.41,0,0,0-.43.35V48.74a.74.74,0,0,0,.5.19.82.82,0,0,0,.28,0,.59.59,0,0,0,.14.27A2.17,2.17,0,0,1,29.43,49.58ZM7.25,57.71h0a.74.74,0,0,0-.7-1,.82.82,0,0,0-.28.06.74.74,0,0,0-.72-.56.77.77,0,0,0-.55.25.74.74,0,0,0-.7-.5.75.75,0,0,0-.75.75.43.43,0,0,0,0,0,.8.8,0,0,0-.26,0,.75.75,0,0,0-.75.75.75.75,0,0,0-.75.75.77.77,0,0,0,.35.64A.74.74,0,0,0,2.75,60a.74.74,0,0,0,.61-.31,2.31,2.31,0,0,0,.53.6c.31.28.61.54.61,1v1H5v-.75c0-.41.36-.67.73-1A2.58,2.58,0,0,0,6.35,60H6.5a.74.74,0,0,0,.75-.75.75.75,0,1,0,0-1.5ZM4.5,60.13l-.27-.26a1.55,1.55,0,0,1-.4-.42H4a.74.74,0,0,0,.5-.19Zm.93,0a4.41,4.41,0,0,0-.43.35V59.27a.74.74,0,0,0,.5.19.64.64,0,0,0,.28-.05.59.59,0,0,0,.14.27A2.17,2.17,0,0,1,5.43,60.11Zm22-4.49h-.05a.74.74,0,0,0-.71-1,.6.6,0,0,0-.27.06.75.75,0,0,0-1.27-.32.75.75,0,0,0-1.46.26s0,0,0,.05a.74.74,0,0,0-.25-.05.76.76,0,0,0-.76.75.75.75,0,0,0-.74.75.77.77,0,0,0,.35.64.73.73,0,0,0-.11.36.75.75,0,0,0,.76.75.73.73,0,0,0,.6-.31,2.56,2.56,0,0,0,.54.6,1.31,1.31,0,0,1,.6,1v1h.5v-.75c0-.41.36-.67.74-.95a3,3,0,0,0,.61-.56h.15a.75.75,0,0,0,.76-.75.75.75,0,0,0,0-1.5ZM24.62,58a2.11,2.11,0,0,0-.27-.25,2.57,2.57,0,0,1-.4-.44l.17,0a.72.72,0,0,0,.5-.19Zm.93,0-.43.35V57.18a.76.76,0,0,0,.5.19.78.78,0,0,0,.28,0,.87.87,0,0,0,.14.27A2.17,2.17,0,0,1,25.55,58ZM32,36V32.75a.8.8,0,0,0-.55.24.73.73,0,0,0-.7-.49.74.74,0,0,0-.75.75v0a1.17,1.17,0,0,0-.26,0A.74.74,0,0,0,29,34a.75.75,0,0,0-.4,1.38.76.76,0,0,0-.1.37.75.75,0,0,0,1.36.43,2.53,2.53,0,0,0,.53.61c.31.27.61.53.61,1v1h.5V38a1,1,0,0,1,.5-.77V36.6l-.07,0c-.14.11-.29.22-.43.35V35.8A.75.75,0,0,0,32,36Zm-1,.67a3.25,3.25,0,0,0-.27-.26,1.73,1.73,0,0,1-.4-.43l.17,0a.75.75,0,0,0,.5-.2ZM19.05,32h-6a.7.7,0,0,0-.05.25.75.75,0,0,0,.35.63.76.76,0,0,0-.1.37.75.75,0,0,0,1.36.43,2.53,2.53,0,0,0,.53.61c.31.27.61.53.61,1v1h.5V35.5c0-.41.36-.68.73-1A2.58,2.58,0,0,0,17.6,34l.15,0a.75.75,0,0,0,.75-.75.75.75,0,0,0,.75-.75A.73.73,0,0,0,19.05,32Zm-3.3,2.17a3.25,3.25,0,0,0-.27-.26,1.73,1.73,0,0,1-.4-.43l.17,0a.75.75,0,0,0,.5-.2Zm.93,0c-.14.11-.29.22-.43.35V33.3a.75.75,0,0,0,.5.2.82.82,0,0,0,.28,0,.6.6,0,0,0,.14.26A2.17,2.17,0,0,1,16.68,34.14ZM18.5,63.75h-.05a.8.8,0,0,0,.05-.26.74.74,0,0,0-.75-.75.82.82,0,0,0-.28,0,.73.73,0,0,0-.72-.55.8.8,0,0,0-.55.24.73.73,0,0,0-.7-.49.74.74,0,0,0-.75.75v0a1.17,1.17,0,0,0-.26,0,.74.74,0,0,0-.75.75.73.73,0,0,0-.7.5h6A.73.73,0,0,0,18.5,63.75Z"/><path id="orchard_random_dense-3" data-name="orchard_random_dense" class="cls-2" d="M41.88,6.12h-.05a.74.74,0,0,0-.71-1,.6.6,0,0,0-.27.06.75.75,0,0,0-1.27-.32.75.75,0,0,0-1.46.26s0,0,0,0a.74.74,0,0,0-.25,0,.76.76,0,0,0-.76.75.75.75,0,0,0-.74.75.77.77,0,0,0,.35.64.73.73,0,0,0-.11.36.75.75,0,0,0,.76.75.73.73,0,0,0,.6-.31,2.56,2.56,0,0,0,.54.6,1.31,1.31,0,0,1,.6,1v1h.5V9.87c0-.41.36-.67.74-.95A3,3,0,0,0,41,8.36h.15a.75.75,0,0,0,.76-.75.75.75,0,0,0,0-1.5ZM39.12,8.54a2.11,2.11,0,0,0-.27-.25,2.57,2.57,0,0,1-.4-.44l.17,0a.72.72,0,0,0,.5-.19Zm.93,0-.43.35V7.68a.76.76,0,0,0,.5.19.78.78,0,0,0,.28,0,.87.87,0,0,0,.14.27A2.17,2.17,0,0,1,40.05,8.52Zm16.83.1h-.05a.74.74,0,0,0-.71-1,.6.6,0,0,0-.27.06.75.75,0,0,0-1.27-.32.75.75,0,0,0-1.46.26s0,0,0,0a.74.74,0,0,0-.25,0,.76.76,0,0,0-.76.75.75.75,0,0,0-.74.75.77.77,0,0,0,.35.64.73.73,0,0,0-.11.36.75.75,0,0,0,.76.75.73.73,0,0,0,.6-.31,2.56,2.56,0,0,0,.54.6,1.31,1.31,0,0,1,.6,1v1h.5v-.75c0-.41.36-.67.74-.95a3,3,0,0,0,.61-.56h.15a.75.75,0,0,0,.76-.75.75.75,0,0,0,0-1.5ZM54.12,11a2.11,2.11,0,0,0-.27-.25,2.57,2.57,0,0,1-.4-.44l.17,0a.72.72,0,0,0,.5-.19Zm.93,0-.43.35V10.18a.76.76,0,0,0,.5.19.78.78,0,0,0,.28,0,.87.87,0,0,0,.14.27A2.17,2.17,0,0,1,55.05,11Zm-8.67,7.6h-.05a.74.74,0,0,0-.71-1,.6.6,0,0,0-.27.06.75.75,0,0,0-1.27-.32.75.75,0,0,0-1.46.26s0,0,0,.05a.74.74,0,0,0-.25-.05.76.76,0,0,0-.76.75.75.75,0,0,0-.74.75.77.77,0,0,0,.35.64.73.73,0,0,0-.11.36.75.75,0,0,0,.76.75.73.73,0,0,0,.6-.31,2.56,2.56,0,0,0,.54.6,1.31,1.31,0,0,1,.6,1v1h.5v-.75c0-.41.36-.67.74-.95a3,3,0,0,0,.61-.56h.15a.75.75,0,0,0,.76-.75.75.75,0,0,0,0-1.5ZM43.62,21a2.11,2.11,0,0,0-.27-.25,2.57,2.57,0,0,1-.4-.44l.17,0a.72.72,0,0,0,.5-.19Zm.93,0-.43.35V20.18a.76.76,0,0,0,.5.19.78.78,0,0,0,.28-.05.87.87,0,0,0,.14.27A2.17,2.17,0,0,1,44.55,21ZM33.75,2.25h0a.8.8,0,0,0,0-.26A.74.74,0,0,0,33,1.25a.82.82,0,0,0-.28.05A.73.73,0,0,0,32,.75V4a.82.82,0,0,0,.28,0,.6.6,0,0,0,.14.26A2.32,2.32,0,0,1,32,4.6v.63A2.11,2.11,0,0,1,32.23,5a2.58,2.58,0,0,0,.62-.56l.15,0a.75.75,0,0,0,.75-.75.75.75,0,0,0,0-1.5Zm29.5,12.93h0a.74.74,0,0,0-.7-1,.64.64,0,0,0-.28.06.74.74,0,0,0-.72-.56.8.8,0,0,0-.55.24.74.74,0,0,0-.7-.49.75.75,0,0,0-.75.75s0,0,0,.05a.8.8,0,0,0-.26-.05.75.75,0,0,0-.75.75.75.75,0,0,0-.75.75.77.77,0,0,0,.35.64.72.72,0,0,0-.1.36.75.75,0,0,0,1.36.44,2.12,2.12,0,0,0,.53.59,1.36,1.36,0,0,1,.61,1v1H61v-.75c0-.41.36-.67.73-.95a2.81,2.81,0,0,0,.62-.56h.15a.74.74,0,0,0,.75-.75.75.75,0,0,0,0-1.5ZM60.5,17.6a3.08,3.08,0,0,0-.27-.25,1.75,1.75,0,0,1-.4-.44l.17,0a.74.74,0,0,0,.5-.19Zm.93,0a4.41,4.41,0,0,0-.43.35V16.74a.74.74,0,0,0,.5.19.82.82,0,0,0,.28-.05.59.59,0,0,0,.14.27A2.17,2.17,0,0,1,61.43,17.58ZM39.25,25.71h0a.74.74,0,0,0-.7-1,.82.82,0,0,0-.28.06.74.74,0,0,0-.72-.56.77.77,0,0,0-.55.25.74.74,0,0,0-.7-.5.75.75,0,0,0-.75.75.43.43,0,0,0,0,.05.8.8,0,0,0-.26-.05.75.75,0,0,0-.75.75.75.75,0,0,0-.75.75.77.77,0,0,0,.35.64A.74.74,0,0,0,34.75,28a.74.74,0,0,0,.61-.31,2.31,2.31,0,0,0,.53.6c.31.28.61.54.61,1v1H37v-.75c0-.41.36-.67.73-.95a2.58,2.58,0,0,0,.62-.56h.15a.74.74,0,0,0,.75-.75.75.75,0,0,0,0-1.5ZM36.5,28.13l-.27-.26a1.55,1.55,0,0,1-.4-.42H36a.74.74,0,0,0,.5-.19Zm.93,0a4.41,4.41,0,0,0-.43.35V27.27a.74.74,0,0,0,.5.19.64.64,0,0,0,.28-.05.59.59,0,0,0,.14.27A2.17,2.17,0,0,1,37.43,28.11Zm22-4.49h-.05a.74.74,0,0,0-.71-1,.6.6,0,0,0-.27.06.75.75,0,0,0-1.27-.32.75.75,0,0,0-1.46.26s0,0,0,.05a.74.74,0,0,0-.25-.05.76.76,0,0,0-.76.75.75.75,0,0,0-.74.75.77.77,0,0,0,.35.64.73.73,0,0,0-.11.36.75.75,0,0,0,.76.75.73.73,0,0,0,.6-.31,2.56,2.56,0,0,0,.54.6,1.31,1.31,0,0,1,.6,1v1h.5v-.75c0-.41.36-.67.74-.95a3,3,0,0,0,.61-.56h.15a.75.75,0,0,0,.76-.75.75.75,0,0,0,0-1.5ZM56.62,26a2.11,2.11,0,0,0-.27-.25,2.57,2.57,0,0,1-.4-.44l.17,0a.72.72,0,0,0,.5-.19Zm.93,0-.43.35V25.18a.76.76,0,0,0,.5.19.78.78,0,0,0,.28-.05.87.87,0,0,0,.14.27A2.17,2.17,0,0,1,57.55,26ZM64,4V.75a.8.8,0,0,0-.55.24.73.73,0,0,0-.7-.49.74.74,0,0,0-.75.75s0,0,0,0a1.17,1.17,0,0,0-.26,0A.74.74,0,0,0,61,2a.75.75,0,0,0-.4,1.38.76.76,0,0,0-.1.37.75.75,0,0,0,1.36.43,2.53,2.53,0,0,0,.53.61c.31.27.61.53.61,1v1h.5V6a1,1,0,0,1,.5-.77V4.6l-.07,0c-.14.11-.29.22-.43.35V3.8A.75.75,0,0,0,64,4Zm-1,.67a3.25,3.25,0,0,0-.27-.26,1.73,1.73,0,0,1-.4-.43l.17,0a.75.75,0,0,0,.5-.2ZM51.05,0h-6a.7.7,0,0,0,0,.25.75.75,0,0,0,.35.63.76.76,0,0,0-.1.37.75.75,0,0,0,1.36.43,2.53,2.53,0,0,0,.53.61c.31.27.61.53.61,1v1h.5V3.5c0-.41.36-.68.73-1A2.58,2.58,0,0,0,49.6,2l.15,0a.75.75,0,0,0,.75-.75A.75.75,0,0,0,51.25.5.73.73,0,0,0,51.05,0Zm-3.3,2.17a3.25,3.25,0,0,0-.27-.26,1.73,1.73,0,0,1-.4-.43l.17,0a.75.75,0,0,0,.5-.2Zm.93,0c-.14.11-.29.22-.43.35V1.3a.75.75,0,0,0,.5.2A.82.82,0,0,0,49,1.45a.6.6,0,0,0,.14.26A2.17,2.17,0,0,1,48.68,2.14ZM50.5,31.75h0a.8.8,0,0,0,0-.26.74.74,0,0,0-.75-.75.82.82,0,0,0-.28.05.73.73,0,0,0-.72-.55.8.8,0,0,0-.55.24.73.73,0,0,0-.7-.49.74.74,0,0,0-.75.75s0,0,0,0a1.17,1.17,0,0,0-.26,0,.74.74,0,0,0-.75.75.73.73,0,0,0-.7.5h6A.73.73,0,0,0,50.5,31.75Z"/><path id="orchard_random_dense-4" data-name="orchard_random_dense" class="cls-2" d="M41.88,38.12h-.05a.74.74,0,0,0-.71-1,.6.6,0,0,0-.27.06.75.75,0,0,0-1.27-.32.75.75,0,0,0-1.46.26s0,0,0,.05a.74.74,0,0,0-.25-.05.76.76,0,0,0-.76.75.75.75,0,0,0-.74.75.77.77,0,0,0,.35.64.73.73,0,0,0-.11.36.75.75,0,0,0,.76.75.73.73,0,0,0,.6-.31,2.56,2.56,0,0,0,.54.6,1.31,1.31,0,0,1,.6,1v1h.5v-.75c0-.41.36-.67.74-.95a3,3,0,0,0,.61-.56h.15a.75.75,0,0,0,.76-.75.75.75,0,0,0,0-1.5Zm-2.76,2.42a2.11,2.11,0,0,0-.27-.25,2.57,2.57,0,0,1-.4-.44l.17,0a.72.72,0,0,0,.5-.19Zm.93,0-.43.35V39.68a.76.76,0,0,0,.5.19.78.78,0,0,0,.28,0,.87.87,0,0,0,.14.27A2.17,2.17,0,0,1,40.05,40.52Zm16.83.1h-.05a.74.74,0,0,0-.71-1,.6.6,0,0,0-.27.06.75.75,0,0,0-1.27-.32.75.75,0,0,0-1.46.26s0,0,0,.05a.74.74,0,0,0-.25-.05.76.76,0,0,0-.76.75.75.75,0,0,0-.74.75.77.77,0,0,0,.35.64.73.73,0,0,0-.11.36.75.75,0,0,0,.76.75.73.73,0,0,0,.6-.31,2.56,2.56,0,0,0,.54.6,1.31,1.31,0,0,1,.6,1v1h.5v-.75c0-.41.36-.67.74-.95a3,3,0,0,0,.61-.56h.15a.75.75,0,0,0,.76-.75.75.75,0,0,0,0-1.5ZM54.12,43a2.11,2.11,0,0,0-.27-.25,2.57,2.57,0,0,1-.4-.44l.17,0a.72.72,0,0,0,.5-.19Zm.93,0-.43.35V42.18a.76.76,0,0,0,.5.19.78.78,0,0,0,.28,0,.87.87,0,0,0,.14.27A2.17,2.17,0,0,1,55.05,43Zm-8.67,7.6h-.05a.74.74,0,0,0-.71-1,.6.6,0,0,0-.27.06.75.75,0,0,0-1.27-.32.75.75,0,0,0-1.46.26s0,0,0,.05a.74.74,0,0,0-.25-.05.76.76,0,0,0-.76.75.75.75,0,0,0-.74.75.77.77,0,0,0,.35.64.73.73,0,0,0-.11.36.75.75,0,0,0,.76.75.73.73,0,0,0,.6-.31,2.56,2.56,0,0,0,.54.6,1.31,1.31,0,0,1,.6,1v1h.5v-.75c0-.41.36-.67.74-.95a3,3,0,0,0,.61-.56h.15a.75.75,0,0,0,.76-.75.75.75,0,0,0,0-1.5ZM43.62,53a2.11,2.11,0,0,0-.27-.25,2.57,2.57,0,0,1-.4-.44l.17,0a.72.72,0,0,0,.5-.19Zm.93,0-.43.35V52.18a.76.76,0,0,0,.5.19.78.78,0,0,0,.28,0,.87.87,0,0,0,.14.27A2.17,2.17,0,0,1,44.55,53ZM33.75,34.25h0a.8.8,0,0,0,0-.26.74.74,0,0,0-.75-.75.82.82,0,0,0-.28,0,.73.73,0,0,0-.72-.55V36a.82.82,0,0,0,.28,0,.6.6,0,0,0,.14.26,2.32,2.32,0,0,1-.42.39v.63a2.11,2.11,0,0,1,.23-.19,2.58,2.58,0,0,0,.62-.56l.15,0a.75.75,0,0,0,.75-.75.75.75,0,0,0,0-1.5Zm29.5,12.93h0a.74.74,0,0,0-.7-1,.64.64,0,0,0-.28.06.74.74,0,0,0-.72-.56.8.8,0,0,0-.55.24.74.74,0,0,0-.7-.49.75.75,0,0,0-.75.75s0,0,0,0a.8.8,0,0,0-.26,0,.75.75,0,0,0-.75.75.75.75,0,0,0-.75.75.77.77,0,0,0,.35.64.72.72,0,0,0-.1.36.75.75,0,0,0,1.36.44,2.12,2.12,0,0,0,.53.59,1.36,1.36,0,0,1,.61,1v1H61v-.75c0-.41.36-.67.73-1a2.81,2.81,0,0,0,.62-.56h.15a.74.74,0,0,0,.75-.75.75.75,0,0,0,0-1.5ZM60.5,49.6a3.08,3.08,0,0,0-.27-.25,1.75,1.75,0,0,1-.4-.44l.17,0a.74.74,0,0,0,.5-.19Zm.93,0a4.41,4.41,0,0,0-.43.35V48.74a.74.74,0,0,0,.5.19.82.82,0,0,0,.28,0,.59.59,0,0,0,.14.27A2.17,2.17,0,0,1,61.43,49.58ZM39.25,57.71h0a.74.74,0,0,0-.7-1,.82.82,0,0,0-.28.06.74.74,0,0,0-.72-.56.77.77,0,0,0-.55.25.74.74,0,0,0-.7-.5.75.75,0,0,0-.75.75.43.43,0,0,0,0,0,.8.8,0,0,0-.26,0,.75.75,0,0,0-.75.75.75.75,0,0,0-.75.75.77.77,0,0,0,.35.64A.74.74,0,0,0,34.75,60a.74.74,0,0,0,.61-.31,2.31,2.31,0,0,0,.53.6c.31.28.61.54.61,1v1H37v-.75c0-.41.36-.67.73-1a2.58,2.58,0,0,0,.62-.56h.15a.74.74,0,0,0,.75-.75.75.75,0,0,0,0-1.5ZM36.5,60.13l-.27-.26a1.55,1.55,0,0,1-.4-.42H36a.74.74,0,0,0,.5-.19Zm.93,0a4.41,4.41,0,0,0-.43.35V59.27a.74.74,0,0,0,.5.19.64.64,0,0,0,.28-.05.59.59,0,0,0,.14.27A2.17,2.17,0,0,1,37.43,60.11Zm22-4.49h-.05a.74.74,0,0,0-.71-1,.6.6,0,0,0-.27.06.75.75,0,0,0-1.27-.32.75.75,0,0,0-1.46.26s0,0,0,.05a.74.74,0,0,0-.25-.05.76.76,0,0,0-.76.75.75.75,0,0,0-.74.75.77.77,0,0,0,.35.64.73.73,0,0,0-.11.36.75.75,0,0,0,.76.75.73.73,0,0,0,.6-.31,2.56,2.56,0,0,0,.54.6,1.31,1.31,0,0,1,.6,1v1h.5v-.75c0-.41.36-.67.74-.95a3,3,0,0,0,.61-.56h.15a.75.75,0,0,0,.76-.75.75.75,0,0,0,0-1.5ZM56.62,58a2.11,2.11,0,0,0-.27-.25,2.57,2.57,0,0,1-.4-.44l.17,0a.72.72,0,0,0,.5-.19Zm.93,0-.43.35V57.18a.76.76,0,0,0,.5.19.78.78,0,0,0,.28,0,.87.87,0,0,0,.14.27A2.17,2.17,0,0,1,57.55,58ZM64,36V32.75a.8.8,0,0,0-.55.24.73.73,0,0,0-.7-.49.74.74,0,0,0-.75.75v0a1.17,1.17,0,0,0-.26,0A.74.74,0,0,0,61,34a.75.75,0,0,0-.4,1.38.76.76,0,0,0-.1.37.75.75,0,0,0,1.36.43,2.53,2.53,0,0,0,.53.61c.31.27.61.53.61,1v1h.5V38a1,1,0,0,1,.5-.77V36.6l-.07,0c-.14.11-.29.22-.43.35V35.8A.75.75,0,0,0,64,36Zm-1,.67a3.25,3.25,0,0,0-.27-.26,1.73,1.73,0,0,1-.4-.43l.17,0a.75.75,0,0,0,.5-.2ZM51.05,32h-6a.7.7,0,0,0,0,.25.75.75,0,0,0,.35.63.76.76,0,0,0-.1.37.75.75,0,0,0,1.36.43,2.53,2.53,0,0,0,.53.61c.31.27.61.53.61,1v1h.5V35.5c0-.41.36-.68.73-1A2.58,2.58,0,0,0,49.6,34l.15,0a.75.75,0,0,0,.75-.75.75.75,0,0,0,.75-.75A.73.73,0,0,0,51.05,32Zm-3.3,2.17a3.25,3.25,0,0,0-.27-.26,1.73,1.73,0,0,1-.4-.43l.17,0a.75.75,0,0,0,.5-.2Zm.93,0c-.14.11-.29.22-.43.35V33.3a.75.75,0,0,0,.5.2.82.82,0,0,0,.28,0,.6.6,0,0,0,.14.26A2.17,2.17,0,0,1,48.68,34.14ZM50.5,63.75h0a.8.8,0,0,0,0-.26.74.74,0,0,0-.75-.75.82.82,0,0,0-.28,0,.73.73,0,0,0-.72-.55.8.8,0,0,0-.55.24.73.73,0,0,0-.7-.49.74.74,0,0,0-.75.75v0a1.17,1.17,0,0,0-.26,0,.74.74,0,0,0-.75.75.73.73,0,0,0-.7.5h6A.73.73,0,0,0,50.5,63.75Z"/></g></svg>