<svg id="Sprites" xmlns="http://www.w3.org/2000/svg" viewBox="0 0 64 64"><defs><style>.cls-1{fill:none;}.cls-2{fill:#236035;}</style></defs><g id="orchard_poly_grid_sparse_half"><rect id="bbox_64" class="cls-1" width="64" height="64"/><path id="orchard_grid_sparse" class="cls-2" d="M7.5,4.5h0a.7.7,0,0,0,0-.25.76.76,0,0,0-.75-.75.87.87,0,0,0-.28,0A.75.75,0,0,0,5.75,3a.74.74,0,0,0-.55.24.75.75,0,0,0-1.45.26v0a.7.7,0,0,0-.25,0,.76.76,0,0,0-.75.75A.76.76,0,0,0,2,5a.74.74,0,0,0,.35.63.79.79,0,0,0-.1.37.75.75,0,0,0,1.36.43,2.16,2.16,0,0,0,.53.6,1.36,1.36,0,0,1,.61,1V9h.5V8.25c0-.41.35-.67.73-1a2.56,2.56,0,0,0,.61-.57l.16,0A.76.76,0,0,0,7.5,6a.75.75,0,0,0,0-1.5Zm-3,2.16a2.58,2.58,0,0,1-.4-.43l.18,0a.74.74,0,0,0,.5-.19v.86A3.32,3.32,0,0,0,4.47,6.66Zm1.21.24a4.26,4.26,0,0,0-.43.34V6.06a.74.74,0,0,0,.5.19A.87.87,0,0,0,6,6.2a.91.91,0,0,0,.13.26A2.36,2.36,0,0,1,5.68,6.9ZM18.17,4.5h-.05a.7.7,0,0,0,.05-.25.76.76,0,0,0-.75-.75.82.82,0,0,0-.28,0A.76.76,0,0,0,16.42,3a.74.74,0,0,0-.55.24.76.76,0,0,0-.7-.49.75.75,0,0,0-.75.75v0a.7.7,0,0,0-.25,0,.75.75,0,0,0-.75.75.75.75,0,0,0-.75.75.74.74,0,0,0,.35.63.69.69,0,0,0-.1.37.75.75,0,0,0,.75.75.76.76,0,0,0,.61-.32,2,2,0,0,0,.53.6,1.36,1.36,0,0,1,.61,1V9h.5V8.25c0-.41.35-.67.73-1a2.56,2.56,0,0,0,.61-.57l.16,0A.76.76,0,0,0,18.17,6a.75.75,0,0,0,0-1.5Zm-3,2.16a1.94,1.94,0,0,1-.4-.43l.18,0a.76.76,0,0,0,.5-.19v.86Zm1.21.24a4.26,4.26,0,0,0-.43.34V6.06a.72.72,0,0,0,.5.19.87.87,0,0,0,.28,0,.71.71,0,0,0,.13.26A2.66,2.66,0,0,1,16.35,6.9ZM28.83,4.5h0a1,1,0,0,0,0-.25.75.75,0,0,0-.75-.75.87.87,0,0,0-.28,0A.74.74,0,0,0,27.08,3a.76.76,0,0,0-.55.24.74.74,0,0,0-.7-.49.76.76,0,0,0-.75.75s0,0,0,0a.74.74,0,0,0-1,.7.76.76,0,0,0-.75.75.74.74,0,0,0,.35.63.79.79,0,0,0-.1.37.76.76,0,0,0,.75.75.73.73,0,0,0,.61-.32,2.33,2.33,0,0,0,.53.6,1.33,1.33,0,0,1,.61,1V9h.5V8.25c0-.41.36-.67.73-1a2.62,2.62,0,0,0,.62-.57l.15,0A.75.75,0,0,0,28.83,6a.75.75,0,0,0,0-1.5Zm-3,2.16a1.94,1.94,0,0,1-.4-.43l.17,0a.72.72,0,0,0,.5-.19v.86A3.25,3.25,0,0,0,25.81,6.66ZM27,6.9a4.26,4.26,0,0,0-.43.34V6.06a.76.76,0,0,0,.5.19.82.82,0,0,0,.28,0,.94.94,0,0,0,.14.26A2.45,2.45,0,0,1,27,6.9ZM7.5,20.5h0a.7.7,0,0,0,0-.25.76.76,0,0,0-.75-.75.87.87,0,0,0-.28.05A.75.75,0,0,0,5.75,19a.74.74,0,0,0-.55.24.75.75,0,0,0-1.45.26v.05a.7.7,0,0,0-.25-.05.76.76,0,0,0-.75.75A.76.76,0,0,0,2,21a.74.74,0,0,0,.35.63.79.79,0,0,0-.1.37.75.75,0,0,0,1.36.43,2.16,2.16,0,0,0,.53.6,1.36,1.36,0,0,1,.61,1v1h.5v-.75c0-.41.35-.67.73-.95a2.56,2.56,0,0,0,.61-.57l.16,0A.76.76,0,0,0,7.5,22a.75.75,0,0,0,0-1.5Zm-3,2.16a2.58,2.58,0,0,1-.4-.43l.18,0a.74.74,0,0,0,.5-.19v.86A3.32,3.32,0,0,0,4.47,22.66Zm1.21.24a4.26,4.26,0,0,0-.43.34V22.06a.74.74,0,0,0,.5.19A.87.87,0,0,0,6,22.2a.91.91,0,0,0,.13.26A2.36,2.36,0,0,1,5.68,22.9Zm12.49-2.4h-.05a.7.7,0,0,0,.05-.25.76.76,0,0,0-.75-.75.82.82,0,0,0-.28.05.76.76,0,0,0-.72-.55.74.74,0,0,0-.55.24.76.76,0,0,0-.7-.49.75.75,0,0,0-.75.75v.05a.7.7,0,0,0-.25-.05.75.75,0,0,0-.75.75.75.75,0,0,0-.75.75.74.74,0,0,0,.35.63.69.69,0,0,0-.1.37.75.75,0,0,0,.75.75.76.76,0,0,0,.61-.32,2,2,0,0,0,.53.6,1.36,1.36,0,0,1,.61,1v1h.5v-.75c0-.41.35-.67.73-.95a2.56,2.56,0,0,0,.61-.57l.16,0a.76.76,0,0,0,.75-.75.75.75,0,0,0,0-1.5Zm-3,2.16a1.94,1.94,0,0,1-.4-.43l.18,0a.76.76,0,0,0,.5-.19v.86Zm1.21.24a4.26,4.26,0,0,0-.43.34V22.06a.72.72,0,0,0,.5.19.87.87,0,0,0,.28-.05.71.71,0,0,0,.13.26A2.66,2.66,0,0,1,16.35,22.9Zm12.48-2.4h0a1,1,0,0,0,0-.25.75.75,0,0,0-.75-.75.87.87,0,0,0-.28.05.74.74,0,0,0-.72-.55.76.76,0,0,0-.55.24.74.74,0,0,0-.7-.49.76.76,0,0,0-.75.75s0,0,0,.05a.74.74,0,0,0-1,.7.76.76,0,0,0-.75.75.74.74,0,0,0,.35.63.79.79,0,0,0-.1.37.76.76,0,0,0,.75.75.73.73,0,0,0,.61-.32,2.33,2.33,0,0,0,.53.6,1.33,1.33,0,0,1,.61,1v1h.5v-.75c0-.41.36-.67.73-.95a2.62,2.62,0,0,0,.62-.57l.15,0a.75.75,0,0,0,.75-.75.75.75,0,0,0,0-1.5Zm-3,2.16a1.94,1.94,0,0,1-.4-.43l.17,0a.72.72,0,0,0,.5-.19v.86A3.25,3.25,0,0,0,25.81,22.66Zm1.2.24a4.26,4.26,0,0,0-.43.34V22.06a.76.76,0,0,0,.5.19.82.82,0,0,0,.28-.05.94.94,0,0,0,.14.26A2.45,2.45,0,0,1,27,22.9Z"/><path id="orchard_grid_sparse-2" data-name="orchard_grid_sparse" class="cls-2" d="M7.5,36.5h0a.7.7,0,0,0,0-.25.76.76,0,0,0-.75-.75.87.87,0,0,0-.28,0A.75.75,0,0,0,5.75,35a.74.74,0,0,0-.55.24.75.75,0,0,0-1.45.26v0a.7.7,0,0,0-.25,0,.76.76,0,0,0-.75.75A.76.76,0,0,0,2,37a.74.74,0,0,0,.35.63.79.79,0,0,0-.1.37.75.75,0,0,0,1.36.43,2.16,2.16,0,0,0,.53.6,1.36,1.36,0,0,1,.61,1v1h.5v-.75c0-.41.35-.67.73-1a2.56,2.56,0,0,0,.61-.57l.16,0A.76.76,0,0,0,7.5,38a.75.75,0,0,0,0-1.5Zm-3,2.16a2.58,2.58,0,0,1-.4-.43l.18,0a.74.74,0,0,0,.5-.19v.86A3.32,3.32,0,0,0,4.47,38.66Zm1.21.24a4.26,4.26,0,0,0-.43.34V38.06a.74.74,0,0,0,.5.19.87.87,0,0,0,.28,0,.91.91,0,0,0,.13.26A2.36,2.36,0,0,1,5.68,38.9Zm12.49-2.4h-.05a.7.7,0,0,0,.05-.25.76.76,0,0,0-.75-.75.82.82,0,0,0-.28,0,.76.76,0,0,0-.72-.55.74.74,0,0,0-.55.24.76.76,0,0,0-.7-.49.75.75,0,0,0-.75.75v0a.7.7,0,0,0-.25,0,.75.75,0,0,0-.75.75.75.75,0,0,0-.75.75.74.74,0,0,0,.35.63.69.69,0,0,0-.1.37.75.75,0,0,0,.75.75.76.76,0,0,0,.61-.32,2,2,0,0,0,.53.6,1.36,1.36,0,0,1,.61,1v1h.5v-.75c0-.41.35-.67.73-1a2.56,2.56,0,0,0,.61-.57l.16,0a.76.76,0,0,0,.75-.75.75.75,0,0,0,0-1.5Zm-3,2.16a1.94,1.94,0,0,1-.4-.43l.18,0a.76.76,0,0,0,.5-.19v.86Zm1.21.24a4.26,4.26,0,0,0-.43.34V38.06a.72.72,0,0,0,.5.19.87.87,0,0,0,.28,0,.71.71,0,0,0,.13.26A2.66,2.66,0,0,1,16.35,38.9Zm12.48-2.4h0a1,1,0,0,0,0-.25.75.75,0,0,0-.75-.75.87.87,0,0,0-.28,0,.74.74,0,0,0-.72-.55.76.76,0,0,0-.55.24.74.74,0,0,0-.7-.49.76.76,0,0,0-.75.75s0,0,0,0a.74.74,0,0,0-1,.7.76.76,0,0,0-.75.75.74.74,0,0,0,.35.63.79.79,0,0,0-.1.37.76.76,0,0,0,.75.75.73.73,0,0,0,.61-.32,2.33,2.33,0,0,0,.53.6,1.33,1.33,0,0,1,.61,1v1h.5v-.75c0-.41.36-.67.73-1a2.62,2.62,0,0,0,.62-.57l.15,0a.75.75,0,0,0,.75-.75.75.75,0,0,0,0-1.5Zm-3,2.16a1.94,1.94,0,0,1-.4-.43l.17,0a.72.72,0,0,0,.5-.19v.86A3.25,3.25,0,0,0,25.81,38.66Zm1.2.24a4.26,4.26,0,0,0-.43.34V38.06a.76.76,0,0,0,.5.19.82.82,0,0,0,.28,0,.94.94,0,0,0,.14.26A2.45,2.45,0,0,1,27,38.9ZM7.5,52.5h0a.7.7,0,0,0,0-.25.76.76,0,0,0-.75-.75.87.87,0,0,0-.28,0A.75.75,0,0,0,5.75,51a.74.74,0,0,0-.55.24.75.75,0,0,0-1.45.26v0a.7.7,0,0,0-.25,0,.76.76,0,0,0-.75.75A.76.76,0,0,0,2,53a.74.74,0,0,0,.35.63.79.79,0,0,0-.1.37.75.75,0,0,0,1.36.43,2.16,2.16,0,0,0,.53.6,1.36,1.36,0,0,1,.61,1v1h.5v-.75c0-.41.35-.67.73-1a2.56,2.56,0,0,0,.61-.57l.16,0A.76.76,0,0,0,7.5,54a.75.75,0,0,0,0-1.5Zm-3,2.16a2.58,2.58,0,0,1-.4-.43l.18,0a.74.74,0,0,0,.5-.19v.86A3.32,3.32,0,0,0,4.47,54.66Zm1.21.24a4.26,4.26,0,0,0-.43.34V54.06a.74.74,0,0,0,.5.19.87.87,0,0,0,.28,0,.91.91,0,0,0,.13.26A2.36,2.36,0,0,1,5.68,54.9Zm12.49-2.4h-.05a.7.7,0,0,0,.05-.25.76.76,0,0,0-.75-.75.82.82,0,0,0-.28,0,.76.76,0,0,0-.72-.55.74.74,0,0,0-.55.24.76.76,0,0,0-.7-.49.75.75,0,0,0-.75.75v0a.7.7,0,0,0-.25,0,.75.75,0,0,0-.75.75.75.75,0,0,0-.75.75.74.74,0,0,0,.35.63.69.69,0,0,0-.1.37.75.75,0,0,0,.75.75.76.76,0,0,0,.61-.32,2,2,0,0,0,.53.6,1.36,1.36,0,0,1,.61,1v1h.5v-.75c0-.41.35-.67.73-1a2.56,2.56,0,0,0,.61-.57l.16,0a.76.76,0,0,0,.75-.75.75.75,0,0,0,0-1.5Zm-3,2.16a1.94,1.94,0,0,1-.4-.43l.18,0a.76.76,0,0,0,.5-.19v.86Zm1.21.24a4.26,4.26,0,0,0-.43.34V54.06a.72.72,0,0,0,.5.19.87.87,0,0,0,.28,0,.71.71,0,0,0,.13.26A2.66,2.66,0,0,1,16.35,54.9Zm12.48-2.4h0a1,1,0,0,0,0-.25.75.75,0,0,0-.75-.75.87.87,0,0,0-.28,0,.74.74,0,0,0-.72-.55.76.76,0,0,0-.55.24.74.74,0,0,0-.7-.49.76.76,0,0,0-.75.75s0,0,0,0a.74.74,0,0,0-1,.7.76.76,0,0,0-.75.75.74.74,0,0,0,.35.63.79.79,0,0,0-.1.37.76.76,0,0,0,.75.75.73.73,0,0,0,.61-.32,2.33,2.33,0,0,0,.53.6,1.33,1.33,0,0,1,.61,1v1h.5v-.75c0-.41.36-.67.73-1a2.62,2.62,0,0,0,.62-.57l.15,0a.75.75,0,0,0,.75-.75.75.75,0,0,0,0-1.5Zm-3,2.16a1.94,1.94,0,0,1-.4-.43l.17,0a.72.72,0,0,0,.5-.19v.86A3.25,3.25,0,0,0,25.81,54.66Zm1.2.24a4.26,4.26,0,0,0-.43.34V54.06a.76.76,0,0,0,.5.19.82.82,0,0,0,.28,0,.94.94,0,0,0,.14.26A2.45,2.45,0,0,1,27,54.9Z"/><path id="orchard_grid_sparse-3" data-name="orchard_grid_sparse" class="cls-2" d="M39.5,4.5h0a.7.7,0,0,0,0-.25.76.76,0,0,0-.75-.75.87.87,0,0,0-.28,0A.75.75,0,0,0,37.75,3a.74.74,0,0,0-.55.24.75.75,0,0,0-1.45.26v0a.7.7,0,0,0-.25,0,.76.76,0,0,0-.75.75A.76.76,0,0,0,34,5a.74.74,0,0,0,.35.63.79.79,0,0,0-.1.37.75.75,0,0,0,1.36.43,2.16,2.16,0,0,0,.53.6,1.36,1.36,0,0,1,.61,1V9h.5V8.25c0-.41.35-.67.73-1a2.56,2.56,0,0,0,.61-.57l.16,0A.76.76,0,0,0,39.5,6a.75.75,0,0,0,0-1.5Zm-3,2.16a2.58,2.58,0,0,1-.4-.43l.18,0a.74.74,0,0,0,.5-.19v.86A3.32,3.32,0,0,0,36.47,6.66Zm1.21.24a4.26,4.26,0,0,0-.43.34V6.06a.74.74,0,0,0,.5.19.87.87,0,0,0,.28,0,.91.91,0,0,0,.13.26A2.36,2.36,0,0,1,37.68,6.9ZM50.17,4.5h-.05a.7.7,0,0,0,.05-.25.76.76,0,0,0-.75-.75.82.82,0,0,0-.28,0A.76.76,0,0,0,48.42,3a.74.74,0,0,0-.55.24.76.76,0,0,0-.7-.49.75.75,0,0,0-.75.75v0a.7.7,0,0,0-.25,0,.75.75,0,0,0-.75.75.75.75,0,0,0-.75.75.74.74,0,0,0,.35.63.69.69,0,0,0-.1.37.75.75,0,0,0,.75.75.76.76,0,0,0,.61-.32,2,2,0,0,0,.53.6,1.36,1.36,0,0,1,.61,1V9h.5V8.25c0-.41.35-.67.73-1a2.56,2.56,0,0,0,.61-.57l.16,0A.76.76,0,0,0,50.17,6a.75.75,0,0,0,0-1.5Zm-3,2.16a1.94,1.94,0,0,1-.4-.43l.18,0a.76.76,0,0,0,.5-.19v.86Zm1.21.24a4.26,4.26,0,0,0-.43.34V6.06a.72.72,0,0,0,.5.19.87.87,0,0,0,.28,0,.71.71,0,0,0,.13.26A2.66,2.66,0,0,1,48.35,6.9ZM60.83,4.5h0a1,1,0,0,0,0-.25.75.75,0,0,0-.75-.75.87.87,0,0,0-.28,0A.74.74,0,0,0,59.08,3a.76.76,0,0,0-.55.24.74.74,0,0,0-.7-.49.76.76,0,0,0-.75.75s0,0,0,0a.74.74,0,0,0-1,.7.76.76,0,0,0-.75.75.74.74,0,0,0,.35.63.79.79,0,0,0-.1.37.76.76,0,0,0,.75.75.73.73,0,0,0,.61-.32,2.33,2.33,0,0,0,.53.6,1.33,1.33,0,0,1,.61,1V9h.5V8.25c0-.41.36-.67.73-1a2.62,2.62,0,0,0,.62-.57l.15,0A.75.75,0,0,0,60.83,6a.75.75,0,0,0,0-1.5Zm-3,2.16a1.94,1.94,0,0,1-.4-.43l.17,0a.72.72,0,0,0,.5-.19v.86A3.25,3.25,0,0,0,57.81,6.66ZM59,6.9a4.26,4.26,0,0,0-.43.34V6.06a.76.76,0,0,0,.5.19.82.82,0,0,0,.28,0,.94.94,0,0,0,.14.26A2.45,2.45,0,0,1,59,6.9ZM39.5,20.5h0a.7.7,0,0,0,0-.25.76.76,0,0,0-.75-.75.87.87,0,0,0-.28.05.75.75,0,0,0-.72-.55.74.74,0,0,0-.55.24.75.75,0,0,0-1.45.26v.05a.7.7,0,0,0-.25-.05.76.76,0,0,0-.75.75A.76.76,0,0,0,34,21a.74.74,0,0,0,.35.63.79.79,0,0,0-.1.37.75.75,0,0,0,1.36.43,2.16,2.16,0,0,0,.53.6,1.36,1.36,0,0,1,.61,1v1h.5v-.75c0-.41.35-.67.73-.95a2.56,2.56,0,0,0,.61-.57l.16,0A.76.76,0,0,0,39.5,22a.75.75,0,0,0,0-1.5Zm-3,2.16a2.58,2.58,0,0,1-.4-.43l.18,0a.74.74,0,0,0,.5-.19v.86A3.32,3.32,0,0,0,36.47,22.66Zm1.21.24a4.26,4.26,0,0,0-.43.34V22.06a.74.74,0,0,0,.5.19A.87.87,0,0,0,38,22.2a.91.91,0,0,0,.13.26A2.36,2.36,0,0,1,37.68,22.9Zm12.49-2.4h-.05a.7.7,0,0,0,.05-.25.76.76,0,0,0-.75-.75.82.82,0,0,0-.28.05.76.76,0,0,0-.72-.55.74.74,0,0,0-.55.24.76.76,0,0,0-.7-.49.75.75,0,0,0-.75.75v.05a.7.7,0,0,0-.25-.05.75.75,0,0,0-.75.75.75.75,0,0,0-.75.75.74.74,0,0,0,.35.63.69.69,0,0,0-.1.37.75.75,0,0,0,.75.75.76.76,0,0,0,.61-.32,2,2,0,0,0,.53.6,1.36,1.36,0,0,1,.61,1v1h.5v-.75c0-.41.35-.67.73-.95a2.56,2.56,0,0,0,.61-.57l.16,0a.76.76,0,0,0,.75-.75.75.75,0,0,0,0-1.5Zm-3,2.16a1.94,1.94,0,0,1-.4-.43l.18,0a.76.76,0,0,0,.5-.19v.86Zm1.21.24a4.26,4.26,0,0,0-.43.34V22.06a.72.72,0,0,0,.5.19.87.87,0,0,0,.28-.05.71.71,0,0,0,.13.26A2.66,2.66,0,0,1,48.35,22.9Zm12.48-2.4h0a1,1,0,0,0,0-.25.75.75,0,0,0-.75-.75.87.87,0,0,0-.28.05.74.74,0,0,0-.72-.55.76.76,0,0,0-.55.24.74.74,0,0,0-.7-.49.76.76,0,0,0-.75.75s0,0,0,.05a.74.74,0,0,0-1,.7.76.76,0,0,0-.75.75.74.74,0,0,0,.35.63.79.79,0,0,0-.1.37.76.76,0,0,0,.75.75.73.73,0,0,0,.61-.32,2.33,2.33,0,0,0,.53.6,1.33,1.33,0,0,1,.61,1v1h.5v-.75c0-.41.36-.67.73-.95a2.62,2.62,0,0,0,.62-.57l.15,0a.75.75,0,0,0,.75-.75.75.75,0,0,0,0-1.5Zm-3,2.16a1.94,1.94,0,0,1-.4-.43l.17,0a.72.72,0,0,0,.5-.19v.86A3.25,3.25,0,0,0,57.81,22.66Zm1.2.24a4.26,4.26,0,0,0-.43.34V22.06a.76.76,0,0,0,.5.19.82.82,0,0,0,.28-.05.94.94,0,0,0,.14.26A2.45,2.45,0,0,1,59,22.9Z"/><path id="orchard_grid_sparse-4" data-name="orchard_grid_sparse" class="cls-2" d="M39.5,36.5h0a.7.7,0,0,0,0-.25.76.76,0,0,0-.75-.75.87.87,0,0,0-.28,0,.75.75,0,0,0-.72-.55.74.74,0,0,0-.55.24.75.75,0,0,0-1.45.26v0a.7.7,0,0,0-.25,0,.76.76,0,0,0-.75.75A.76.76,0,0,0,34,37a.74.74,0,0,0,.35.63.79.79,0,0,0-.1.37.75.75,0,0,0,1.36.43,2.16,2.16,0,0,0,.53.6,1.36,1.36,0,0,1,.61,1v1h.5v-.75c0-.41.35-.67.73-1a2.56,2.56,0,0,0,.61-.57l.16,0A.76.76,0,0,0,39.5,38a.75.75,0,0,0,0-1.5Zm-3,2.16a2.58,2.58,0,0,1-.4-.43l.18,0a.74.74,0,0,0,.5-.19v.86A3.32,3.32,0,0,0,36.47,38.66Zm1.21.24a4.26,4.26,0,0,0-.43.34V38.06a.74.74,0,0,0,.5.19.87.87,0,0,0,.28,0,.91.91,0,0,0,.13.26A2.36,2.36,0,0,1,37.68,38.9Zm12.49-2.4h-.05a.7.7,0,0,0,.05-.25.76.76,0,0,0-.75-.75.82.82,0,0,0-.28,0,.76.76,0,0,0-.72-.55.74.74,0,0,0-.55.24.76.76,0,0,0-.7-.49.75.75,0,0,0-.75.75v0a.7.7,0,0,0-.25,0,.75.75,0,0,0-.75.75.75.75,0,0,0-.75.75.74.74,0,0,0,.35.63.69.69,0,0,0-.1.37.75.75,0,0,0,.75.75.76.76,0,0,0,.61-.32,2,2,0,0,0,.53.6,1.36,1.36,0,0,1,.61,1v1h.5v-.75c0-.41.35-.67.73-1a2.56,2.56,0,0,0,.61-.57l.16,0a.76.76,0,0,0,.75-.75.75.75,0,0,0,0-1.5Zm-3,2.16a1.94,1.94,0,0,1-.4-.43l.18,0a.76.76,0,0,0,.5-.19v.86Zm1.21.24a4.26,4.26,0,0,0-.43.34V38.06a.72.72,0,0,0,.5.19.87.87,0,0,0,.28,0,.71.71,0,0,0,.13.26A2.66,2.66,0,0,1,48.35,38.9Zm12.48-2.4h0a1,1,0,0,0,0-.25.75.75,0,0,0-.75-.75.87.87,0,0,0-.28,0,.74.74,0,0,0-.72-.55.76.76,0,0,0-.55.24.74.74,0,0,0-.7-.49.76.76,0,0,0-.75.75s0,0,0,0a.74.74,0,0,0-1,.7.76.76,0,0,0-.75.75.74.74,0,0,0,.35.63.79.79,0,0,0-.1.37.76.76,0,0,0,.75.75.73.73,0,0,0,.61-.32,2.33,2.33,0,0,0,.53.6,1.33,1.33,0,0,1,.61,1v1h.5v-.75c0-.41.36-.67.73-1a2.62,2.62,0,0,0,.62-.57l.15,0a.75.75,0,0,0,.75-.75.75.75,0,0,0,0-1.5Zm-3,2.16a1.94,1.94,0,0,1-.4-.43l.17,0a.72.72,0,0,0,.5-.19v.86A3.25,3.25,0,0,0,57.81,38.66Zm1.2.24a4.26,4.26,0,0,0-.43.34V38.06a.76.76,0,0,0,.5.19.82.82,0,0,0,.28,0,.94.94,0,0,0,.14.26A2.45,2.45,0,0,1,59,38.9ZM39.5,52.5h0a.7.7,0,0,0,0-.25.76.76,0,0,0-.75-.75.87.87,0,0,0-.28,0,.75.75,0,0,0-.72-.55.74.74,0,0,0-.55.24.75.75,0,0,0-1.45.26v0a.7.7,0,0,0-.25,0,.76.76,0,0,0-.75.75A.76.76,0,0,0,34,53a.74.74,0,0,0,.35.63.79.79,0,0,0-.1.37.75.75,0,0,0,1.36.43,2.16,2.16,0,0,0,.53.6,1.36,1.36,0,0,1,.61,1v1h.5v-.75c0-.41.35-.67.73-1a2.56,2.56,0,0,0,.61-.57l.16,0A.76.76,0,0,0,39.5,54a.75.75,0,0,0,0-1.5Zm-3,2.16a2.58,2.58,0,0,1-.4-.43l.18,0a.74.74,0,0,0,.5-.19v.86A3.32,3.32,0,0,0,36.47,54.66Zm1.21.24a4.26,4.26,0,0,0-.43.34V54.06a.74.74,0,0,0,.5.19.87.87,0,0,0,.28,0,.91.91,0,0,0,.13.26A2.36,2.36,0,0,1,37.68,54.9Zm12.49-2.4h-.05a.7.7,0,0,0,.05-.25.76.76,0,0,0-.75-.75.82.82,0,0,0-.28,0,.76.76,0,0,0-.72-.55.74.74,0,0,0-.55.24.76.76,0,0,0-.7-.49.75.75,0,0,0-.75.75v0a.7.7,0,0,0-.25,0,.75.75,0,0,0-.75.75.75.75,0,0,0-.75.75.74.74,0,0,0,.35.63.69.69,0,0,0-.1.37.75.75,0,0,0,.75.75.76.76,0,0,0,.61-.32,2,2,0,0,0,.53.6,1.36,1.36,0,0,1,.61,1v1h.5v-.75c0-.41.35-.67.73-1a2.56,2.56,0,0,0,.61-.57l.16,0a.76.76,0,0,0,.75-.75.75.75,0,0,0,0-1.5Zm-3,2.16a1.94,1.94,0,0,1-.4-.43l.18,0a.76.76,0,0,0,.5-.19v.86Zm1.21.24a4.26,4.26,0,0,0-.43.34V54.06a.72.72,0,0,0,.5.19.87.87,0,0,0,.28,0,.71.71,0,0,0,.13.26A2.66,2.66,0,0,1,48.35,54.9Zm12.48-2.4h0a1,1,0,0,0,0-.25.75.75,0,0,0-.75-.75.87.87,0,0,0-.28,0,.74.74,0,0,0-.72-.55.76.76,0,0,0-.55.24.74.74,0,0,0-.7-.49.76.76,0,0,0-.75.75s0,0,0,0a.74.74,0,0,0-1,.7.76.76,0,0,0-.75.75.74.74,0,0,0,.35.63.79.79,0,0,0-.1.37.76.76,0,0,0,.75.75.73.73,0,0,0,.61-.32,2.33,2.33,0,0,0,.53.6,1.33,1.33,0,0,1,.61,1v1h.5v-.75c0-.41.36-.67.73-1a2.62,2.62,0,0,0,.62-.57l.15,0a.75.75,0,0,0,.75-.75.75.75,0,0,0,0-1.5Zm-3,2.16a1.94,1.94,0,0,1-.4-.43l.17,0a.72.72,0,0,0,.5-.19v.86A3.25,3.25,0,0,0,57.81,54.66Zm1.2.24a4.26,4.26,0,0,0-.43.34V54.06a.76.76,0,0,0,.5.19.82.82,0,0,0,.28,0,.94.94,0,0,0,.14.26A2.45,2.45,0,0,1,59,54.9Z"/></g></svg>