<svg id="Sprites" xmlns="http://www.w3.org/2000/svg" viewBox="0 0 64 64"><defs><style>.cls-1{fill:none;}.cls-2{fill:#236035;}</style></defs><g id="orchard_poly_random_dense_half"><rect id="bbox_64" class="cls-1" width="32" height="32"/><path id="orchard_random_dense" class="cls-2" d="M4.94,3.06h0a.35.35,0,0,0,0-.13.38.38,0,0,0-.38-.38.32.32,0,0,0-.14,0,.37.37,0,0,0-.36-.28.4.4,0,0,0-.27.12.38.38,0,0,0-.73.13v0l-.13,0a.38.38,0,0,0-.38.38.36.36,0,0,0-.37.37.4.4,0,0,0,.17.32.35.35,0,0,0,0,.18A.37.37,0,0,0,3,4a1.27,1.27,0,0,0,.27.3c.15.14.3.27.3.48v.5h.25V4.94c0-.21.18-.34.37-.48a1.67,1.67,0,0,0,.31-.28h.07a.38.38,0,0,0,.38-.38.38.38,0,0,0,0-.75ZM3.56,4.27l-.13-.13a.77.77,0,0,1-.2-.21h.08a.37.37,0,0,0,.25-.1Zm.47,0-.22.17V3.84a.37.37,0,0,0,.25.1.32.32,0,0,0,.14,0A.33.33,0,0,0,4.27,4,1.33,1.33,0,0,1,4,4.26Zm8.41,0h0a.35.35,0,0,0,0-.13.38.38,0,0,0-.38-.38.32.32,0,0,0-.14,0,.37.37,0,0,0-.36-.28.4.4,0,0,0-.27.12.38.38,0,0,0-.73.13v0l-.13,0a.38.38,0,0,0-.38.38.36.36,0,0,0-.37.37.4.4,0,0,0,.17.32.35.35,0,0,0,0,.18.37.37,0,0,0,.68.22,1.27,1.27,0,0,0,.27.3c.15.14.3.27.3.48v.5h.25V6.19c0-.21.18-.34.37-.48A1.67,1.67,0,0,0,12,5.43h.07a.38.38,0,0,0,.38-.38.38.38,0,0,0,0-.75ZM11.06,5.52l-.13-.13a.77.77,0,0,1-.2-.21h.08a.37.37,0,0,0,.25-.1Zm.47,0-.22.17V5.09a.37.37,0,0,0,.25.1.32.32,0,0,0,.14,0,.33.33,0,0,0,.07.13A1.33,1.33,0,0,1,11.53,5.51ZM7.19,9.31h0a.35.35,0,0,0,0-.13.38.38,0,0,0-.38-.38.32.32,0,0,0-.14,0,.37.37,0,0,0-.36-.28A.4.4,0,0,0,6,8.68a.38.38,0,0,0-.73.13v0l-.13,0a.38.38,0,0,0-.38.38.36.36,0,0,0-.37.37.4.4,0,0,0,.17.32.35.35,0,0,0-.05.18.37.37,0,0,0,.68.22,1.27,1.27,0,0,0,.27.3c.15.14.3.27.3.48v.5h.25v-.37c0-.21.18-.34.37-.48a1.67,1.67,0,0,0,.31-.28h.07a.38.38,0,0,0,.38-.38.38.38,0,0,0,0-.75ZM5.81,10.52l-.13-.13a.77.77,0,0,1-.2-.21h.08a.37.37,0,0,0,.25-.1Zm.47,0-.22.17v-.59a.37.37,0,0,0,.25.1.32.32,0,0,0,.14,0,.33.33,0,0,0,.07.13A1.33,1.33,0,0,1,6.28,10.51ZM.88,1.12h0A.31.31,0,0,0,.88,1,.38.38,0,0,0,.5.62a.32.32,0,0,0-.14,0A.38.38,0,0,0,0,.37V2A.32.32,0,0,0,.14,2a.37.37,0,0,0,.07.14A1.37,1.37,0,0,1,0,2.3v.31l.12-.09a1.15,1.15,0,0,0,.3-.28H.5a.38.38,0,0,0,.38-.38.37.37,0,0,0,.37-.37A.38.38,0,0,0,.88,1.12ZM15.62,7.59h0a.32.32,0,0,0,0-.13.37.37,0,0,0-.37-.38.32.32,0,0,0-.14,0,.38.38,0,0,0-.36-.28.36.36,0,0,0-.27.12.38.38,0,0,0-.36-.24.37.37,0,0,0-.37.37v0l-.13,0a.38.38,0,0,0-.37.38.36.36,0,0,0-.37.37.4.4,0,0,0,.17.32.35.35,0,0,0-.05.18.38.38,0,0,0,.38.38.39.39,0,0,0,.3-.16,1.1,1.1,0,0,0,.27.3c.15.14.3.27.3.48v.5h.25V9.47c0-.21.18-.34.37-.48a1.35,1.35,0,0,0,.3-.28h.08a.37.37,0,0,0,.37-.38A.37.37,0,0,0,16,8,.38.38,0,0,0,15.62,7.59ZM14.25,8.8a.86.86,0,0,0-.14-.13,1.29,1.29,0,0,1-.2-.21H14a.37.37,0,0,0,.25-.1Zm.46,0L14.5,9V8.37a.37.37,0,0,0,.25.1.32.32,0,0,0,.14,0,.27.27,0,0,0,.07.13A1.14,1.14,0,0,1,14.71,8.79ZM3.62,12.86h0a.27.27,0,0,0,0-.13.37.37,0,0,0-.37-.37l-.14,0a.38.38,0,0,0-.36-.27.33.33,0,0,0-.27.12A.39.39,0,0,0,2.12,12a.38.38,0,0,0-.37.38v0l-.13,0a.38.38,0,0,0-.37.37.37.37,0,0,0-.37.38.4.4,0,0,0,.17.32.35.35,0,0,0-.05.18.37.37,0,0,0,.38.37.37.37,0,0,0,.3-.16,1,1,0,0,0,.27.3.7.7,0,0,1,.3.49v.5H2.5v-.38c0-.2.18-.33.37-.47a1.38,1.38,0,0,0,.3-.29h.08a.36.36,0,0,0,.37-.37.38.38,0,1,0,0-.75ZM2.25,14.07a.86.86,0,0,0-.14-.13,1.9,1.9,0,0,1-.2-.22H2a.42.42,0,0,0,.25-.09Zm.46,0a2.62,2.62,0,0,0-.21.17v-.59a.42.42,0,0,0,.25.09l.14,0a.42.42,0,0,0,.07.13A1.14,1.14,0,0,1,2.71,14.06Zm11-2.25h0a.35.35,0,0,0,0-.13.38.38,0,0,0-.38-.38.32.32,0,0,0-.14,0,.37.37,0,0,0-.36-.28.4.4,0,0,0-.27.12.38.38,0,0,0-.73.13v0l-.13,0a.38.38,0,0,0-.38.38.36.36,0,0,0-.37.37.4.4,0,0,0,.17.32.35.35,0,0,0,0,.18.37.37,0,0,0,.68.22,1.27,1.27,0,0,0,.27.3c.15.14.3.27.3.48v.5h.25v-.37c0-.21.18-.34.37-.48a1.67,1.67,0,0,0,.31-.28h.07a.38.38,0,0,0,.38-.38.38.38,0,0,0,0-.75ZM12.31,13l-.13-.13a.77.77,0,0,1-.2-.21h.08a.37.37,0,0,0,.25-.1Zm.47,0-.22.17v-.59a.37.37,0,0,0,.25.1.32.32,0,0,0,.14,0,.33.33,0,0,0,.07.13A1.33,1.33,0,0,1,12.78,13ZM16,2V.37a.36.36,0,0,0-.27.12A.38.38,0,0,0,15,.62v0a.27.27,0,0,0-.12,0A.38.38,0,0,0,14.5,1a.38.38,0,0,0-.38.37.39.39,0,0,0,.18.32.37.37,0,0,0,.32.56.37.37,0,0,0,.31-.16,1.1,1.1,0,0,0,.27.3c.15.14.3.27.3.48v.5h.25V3A.52.52,0,0,1,16,2.61V2.3s0,0,0,0l-.21.18V1.9A.37.37,0,0,0,16,2Zm-.5.33a.81.81,0,0,0-.14-.12,1.9,1.9,0,0,1-.2-.22h.09a.37.37,0,0,0,.25-.1ZM9.53,0h-3a.5.5,0,0,0,0,.12.37.37,0,0,0,.18.32.39.39,0,0,0-.06.18A.38.38,0,0,0,7,1,.35.35,0,0,0,7.3.84a1.29,1.29,0,0,0,.27.3c.16.14.31.27.31.48v.5h.24V1.75c0-.21.18-.34.37-.48A1.38,1.38,0,0,0,8.8,1h.08A.38.38,0,0,0,9.25.62.36.36,0,0,0,9.62.25.37.37,0,0,0,9.53,0ZM7.88,1.08,7.74,1a1,1,0,0,1-.2-.22h.08a.4.4,0,0,0,.26-.1Zm.46,0-.22.18V.65a.4.4,0,0,0,.26.1.28.28,0,0,0,.13,0,.61.61,0,0,0,.07.14A1,1,0,0,1,8.34,1.07Zm.91,14.8h0a.59.59,0,0,0,0-.13.38.38,0,0,0-.37-.38.29.29,0,0,0-.14,0,.38.38,0,0,0-.36-.28.4.4,0,0,0-.28.12.37.37,0,0,0-.72.13v0a.31.31,0,0,0-.13,0,.37.37,0,0,0-.37.38.37.37,0,0,0-.36.25h3A.37.37,0,0,0,9.25,15.87Z"/><path id="orchard_random_dense-2" data-name="orchard_random_dense" class="cls-2" d="M4.94,19.06h0a.35.35,0,0,0,0-.13.38.38,0,0,0-.38-.38.32.32,0,0,0-.14,0,.37.37,0,0,0-.36-.28.4.4,0,0,0-.27.12.38.38,0,0,0-.73.13v0l-.13,0a.38.38,0,0,0-.38.38.36.36,0,0,0-.37.37.4.4,0,0,0,.17.32.35.35,0,0,0,0,.18A.37.37,0,0,0,3,20a1.27,1.27,0,0,0,.27.3c.15.14.3.27.3.48v.5h.25v-.37c0-.21.18-.34.37-.48a1.67,1.67,0,0,0,.31-.28h.07a.38.38,0,0,0,.38-.38.38.38,0,0,0,0-.75ZM3.56,20.27a1.59,1.59,0,0,0-.13-.13.77.77,0,0,1-.2-.21h.08a.37.37,0,0,0,.25-.1Zm.47,0-.22.17v-.59a.37.37,0,0,0,.25.1.32.32,0,0,0,.14,0,.33.33,0,0,0,.07.13A1.33,1.33,0,0,1,4,20.26Zm8.41,0h0a.35.35,0,0,0,0-.13.38.38,0,0,0-.38-.38.32.32,0,0,0-.14,0,.37.37,0,0,0-.36-.28.4.4,0,0,0-.27.12.38.38,0,0,0-.73.13v0l-.13,0a.38.38,0,0,0-.38.38.36.36,0,0,0-.37.37.4.4,0,0,0,.17.32.35.35,0,0,0,0,.18.37.37,0,0,0,.68.22,1.27,1.27,0,0,0,.27.3c.15.14.3.27.3.48v.5h.25v-.37c0-.21.18-.34.37-.48a1.67,1.67,0,0,0,.31-.28h.07a.38.38,0,0,0,.38-.38.38.38,0,0,0,0-.75Zm-1.38,1.21a1.59,1.59,0,0,0-.13-.13.77.77,0,0,1-.2-.21h.08a.37.37,0,0,0,.25-.1Zm.47,0-.22.17v-.59a.37.37,0,0,0,.25.1.32.32,0,0,0,.14,0,.33.33,0,0,0,.07.13A1.33,1.33,0,0,1,11.53,21.51Zm-4.34,3.8h0a.35.35,0,0,0,0-.13.38.38,0,0,0-.38-.38.32.32,0,0,0-.14,0,.37.37,0,0,0-.36-.28.4.4,0,0,0-.27.12.38.38,0,0,0-.73.13v0l-.13,0a.38.38,0,0,0-.38.38.36.36,0,0,0-.37.37.4.4,0,0,0,.17.32.35.35,0,0,0-.05.18.37.37,0,0,0,.68.22,1.27,1.27,0,0,0,.27.3c.15.14.3.27.3.48v.5h.25v-.37c0-.21.18-.34.37-.48a1.67,1.67,0,0,0,.31-.28h.07a.38.38,0,0,0,.38-.38.38.38,0,0,0,0-.75ZM5.81,26.52a1.59,1.59,0,0,0-.13-.13.77.77,0,0,1-.2-.21h.08a.37.37,0,0,0,.25-.1Zm.47,0-.22.17v-.59a.37.37,0,0,0,.25.1.32.32,0,0,0,.14,0,.33.33,0,0,0,.07.13A1.33,1.33,0,0,1,6.28,26.51ZM.88,17.12h0a.31.31,0,0,0,0-.13.38.38,0,0,0-.38-.38.32.32,0,0,0-.14,0A.38.38,0,0,0,0,16.37V18a.32.32,0,0,0,.14,0,.37.37,0,0,0,.07.14A1.37,1.37,0,0,1,0,18.3v.31l.12-.09a1.15,1.15,0,0,0,.3-.28H.5a.38.38,0,0,0,.38-.38.37.37,0,0,0,.37-.37A.38.38,0,0,0,.88,17.12Zm14.74,6.47h0a.32.32,0,0,0,0-.13.37.37,0,0,0-.37-.38.32.32,0,0,0-.14,0,.38.38,0,0,0-.36-.28.36.36,0,0,0-.27.12.38.38,0,0,0-.36-.24.37.37,0,0,0-.37.37v0l-.13,0a.38.38,0,0,0-.37.38.36.36,0,0,0-.37.37.4.4,0,0,0,.17.32.35.35,0,0,0-.05.18.38.38,0,0,0,.38.38.39.39,0,0,0,.3-.16,1.1,1.1,0,0,0,.27.3c.15.14.3.27.3.48v.5h.25v-.37c0-.21.18-.34.37-.48a1.35,1.35,0,0,0,.3-.28h.08a.37.37,0,0,0,.37-.38A.37.37,0,0,0,16,24,.38.38,0,0,0,15.62,23.59ZM14.25,24.8a.86.86,0,0,0-.14-.13,1.29,1.29,0,0,1-.2-.21H14a.37.37,0,0,0,.25-.1Zm.46,0L14.5,25v-.59a.37.37,0,0,0,.25.1.32.32,0,0,0,.14,0,.27.27,0,0,0,.07.13A1.14,1.14,0,0,1,14.71,24.79ZM3.62,28.86h0a.27.27,0,0,0,0-.13.37.37,0,0,0-.37-.37l-.14,0a.38.38,0,0,0-.36-.27.33.33,0,0,0-.27.12A.39.39,0,0,0,2.12,28a.38.38,0,0,0-.37.38v0l-.13,0a.38.38,0,0,0-.37.37.37.37,0,0,0-.37.38.4.4,0,0,0,.17.32.35.35,0,0,0-.05.18.37.37,0,0,0,.38.37.37.37,0,0,0,.3-.16,1,1,0,0,0,.27.3.7.7,0,0,1,.3.49v.5H2.5v-.38c0-.2.18-.33.37-.47a1.38,1.38,0,0,0,.3-.29h.08a.36.36,0,0,0,.37-.37.38.38,0,1,0,0-.75ZM2.25,30.07a.86.86,0,0,0-.14-.13,1.9,1.9,0,0,1-.2-.22H2a.42.42,0,0,0,.25-.09Zm.46,0a2.62,2.62,0,0,0-.21.17v-.59a.42.42,0,0,0,.25.09l.14,0a.42.42,0,0,0,.07.13A1.14,1.14,0,0,1,2.71,30.06Zm11-2.25h0a.35.35,0,0,0,0-.13.38.38,0,0,0-.38-.38.32.32,0,0,0-.14,0,.37.37,0,0,0-.36-.28.4.4,0,0,0-.27.12.38.38,0,0,0-.73.13v0l-.13,0a.38.38,0,0,0-.38.38.36.36,0,0,0-.37.37.4.4,0,0,0,.17.32.35.35,0,0,0,0,.18.37.37,0,0,0,.68.22,1.27,1.27,0,0,0,.27.3c.15.14.3.27.3.48v.5h.25v-.37c0-.21.18-.34.37-.48a1.67,1.67,0,0,0,.31-.28h.07a.38.38,0,0,0,.38-.38.38.38,0,0,0,0-.75ZM12.31,29a1.59,1.59,0,0,0-.13-.13.77.77,0,0,1-.2-.21h.08a.37.37,0,0,0,.25-.1Zm.47,0-.22.17v-.59a.37.37,0,0,0,.25.1.32.32,0,0,0,.14,0,.33.33,0,0,0,.07.13A1.33,1.33,0,0,1,12.78,29ZM16,18V16.37a.36.36,0,0,0-.27.12.38.38,0,0,0-.73.13v0a.27.27,0,0,0-.12,0,.38.38,0,0,0-.38.38.38.38,0,0,0-.38.37.39.39,0,0,0,.18.32.37.37,0,0,0,.32.56.37.37,0,0,0,.31-.16,1.1,1.1,0,0,0,.27.3c.15.14.3.27.3.48v.5h.25V19a.52.52,0,0,1,.25-.39V18.3l0,0c-.06.05-.14.11-.21.18v-.6A.37.37,0,0,0,16,18Zm-.5.33a.81.81,0,0,0-.14-.12,1.9,1.9,0,0,1-.2-.22h.09a.37.37,0,0,0,.25-.1ZM9.53,16h-3a.5.5,0,0,0,0,.12.37.37,0,0,0,.18.32.39.39,0,0,0-.06.18A.38.38,0,0,0,7,17a.35.35,0,0,0,.3-.16,1.29,1.29,0,0,0,.27.3c.16.14.31.27.31.48v.5h.24v-.37c0-.21.18-.34.37-.48A1.38,1.38,0,0,0,8.8,17h.08a.38.38,0,0,0,.37-.38A.38.38,0,0,0,9.53,16ZM7.88,17.08,7.74,17a1,1,0,0,1-.2-.22h.08a.4.4,0,0,0,.26-.1Zm.46,0-.22.18v-.6a.4.4,0,0,0,.26.1.28.28,0,0,0,.13,0,.61.61,0,0,0,.07.14A1,1,0,0,1,8.34,17.07Zm.91,14.8h0a.59.59,0,0,0,0-.13.38.38,0,0,0-.37-.38.29.29,0,0,0-.14,0,.38.38,0,0,0-.36-.28.4.4,0,0,0-.28.12.37.37,0,0,0-.72.13v0a.31.31,0,0,0-.13,0,.37.37,0,0,0-.37.38.37.37,0,0,0-.36.25h3A.37.37,0,0,0,9.25,31.87Z"/><path id="orchard_random_dense-3" data-name="orchard_random_dense" class="cls-2" d="M20.94,3.06h0a.35.35,0,0,0,0-.13.38.38,0,0,0-.38-.38.32.32,0,0,0-.14,0,.37.37,0,0,0-.36-.28.4.4,0,0,0-.27.12.38.38,0,0,0-.73.13v0l-.13,0a.38.38,0,0,0-.38.38.36.36,0,0,0-.37.37.4.4,0,0,0,.17.32.35.35,0,0,0-.05.18A.37.37,0,0,0,19,4a1.27,1.27,0,0,0,.27.3c.15.14.3.27.3.48v.5h.25V4.94c0-.21.18-.34.37-.48a1.67,1.67,0,0,0,.31-.28h.07a.38.38,0,0,0,.38-.38.38.38,0,0,0,0-.75ZM19.56,4.27a1.59,1.59,0,0,0-.13-.13.77.77,0,0,1-.2-.21h.08a.37.37,0,0,0,.25-.1Zm.47,0-.22.17V3.84a.37.37,0,0,0,.25.1.32.32,0,0,0,.14,0,.33.33,0,0,0,.07.13A1.33,1.33,0,0,1,20,4.26Zm8.41,0h0a.35.35,0,0,0,0-.13.38.38,0,0,0-.38-.38.32.32,0,0,0-.14,0,.37.37,0,0,0-.36-.28.4.4,0,0,0-.27.12.38.38,0,0,0-.73.13v0l-.13,0a.38.38,0,0,0-.38.38.36.36,0,0,0-.37.37.4.4,0,0,0,.17.32.35.35,0,0,0-.05.18.37.37,0,0,0,.68.22,1.27,1.27,0,0,0,.27.3c.15.14.3.27.3.48v.5h.25V6.19c0-.21.18-.34.37-.48A1.67,1.67,0,0,0,28,5.43h.07a.38.38,0,0,0,.38-.38.38.38,0,0,0,0-.75ZM27.06,5.52a1.59,1.59,0,0,0-.13-.13.77.77,0,0,1-.2-.21h.08a.37.37,0,0,0,.25-.1Zm.47,0-.22.17V5.09a.37.37,0,0,0,.25.1.32.32,0,0,0,.14,0,.33.33,0,0,0,.07.13A1.33,1.33,0,0,1,27.53,5.51Zm-4.34,3.8h0a.35.35,0,0,0,0-.13.38.38,0,0,0-.38-.38.32.32,0,0,0-.14,0,.37.37,0,0,0-.36-.28.4.4,0,0,0-.27.12.38.38,0,0,0-.73.13v0l-.13,0a.38.38,0,0,0-.38.38.36.36,0,0,0-.37.37.4.4,0,0,0,.17.32.35.35,0,0,0-.05.18.37.37,0,0,0,.68.22,1.27,1.27,0,0,0,.27.3c.15.14.3.27.3.48v.5h.25v-.37c0-.21.18-.34.37-.48a1.67,1.67,0,0,0,.31-.28h.07a.38.38,0,0,0,.38-.38.38.38,0,0,0,0-.75Zm-1.38,1.21-.13-.13a.77.77,0,0,1-.2-.21h.08a.37.37,0,0,0,.25-.1Zm.47,0-.22.17v-.59a.37.37,0,0,0,.25.1.32.32,0,0,0,.14,0,.33.33,0,0,0,.07.13A1.33,1.33,0,0,1,22.28,10.51Zm-5.4-9.39h0a.31.31,0,0,0,0-.13A.38.38,0,0,0,16.5.62a.32.32,0,0,0-.14,0A.38.38,0,0,0,16,.37V2a.32.32,0,0,0,.14,0,.37.37,0,0,0,.07.14A1.37,1.37,0,0,1,16,2.3v.31l.12-.09a1.15,1.15,0,0,0,.3-.28h.08a.38.38,0,0,0,.38-.38.37.37,0,0,0,.37-.37A.38.38,0,0,0,16.88,1.12ZM31.62,7.59h0a.32.32,0,0,0,0-.13.37.37,0,0,0-.37-.38.32.32,0,0,0-.14,0,.38.38,0,0,0-.36-.28.36.36,0,0,0-.27.12.38.38,0,0,0-.36-.24.37.37,0,0,0-.37.37v0l-.13,0a.38.38,0,0,0-.37.38.36.36,0,0,0-.37.37.4.4,0,0,0,.17.32.35.35,0,0,0-.05.18.38.38,0,0,0,.38.38.39.39,0,0,0,.3-.16,1.1,1.1,0,0,0,.27.3c.15.14.3.27.3.48v.5h.25V9.47c0-.21.18-.34.37-.48a1.35,1.35,0,0,0,.3-.28h.08a.37.37,0,0,0,.37-.38A.37.37,0,0,0,32,8,.38.38,0,0,0,31.62,7.59ZM30.25,8.8a.86.86,0,0,0-.14-.13,1.29,1.29,0,0,1-.2-.21H30a.37.37,0,0,0,.25-.1Zm.46,0L30.5,9V8.37a.37.37,0,0,0,.25.1.32.32,0,0,0,.14,0,.27.27,0,0,0,.07.13A1.14,1.14,0,0,1,30.71,8.79ZM19.62,12.86h0a.27.27,0,0,0,0-.13.37.37,0,0,0-.37-.37l-.14,0a.38.38,0,0,0-.36-.27.33.33,0,0,0-.27.12.39.39,0,0,0-.36-.25.38.38,0,0,0-.37.38v0l-.13,0a.38.38,0,0,0-.37.37.37.37,0,0,0-.37.38.4.4,0,0,0,.17.32.35.35,0,0,0-.05.18.37.37,0,0,0,.38.37.37.37,0,0,0,.3-.16,1,1,0,0,0,.27.3.7.7,0,0,1,.3.49v.5h.25v-.38c0-.2.18-.33.37-.47a1.38,1.38,0,0,0,.3-.29h.08a.36.36,0,0,0,.37-.37.38.38,0,1,0,0-.75Zm-1.37,1.21a.86.86,0,0,0-.14-.13,1.9,1.9,0,0,1-.2-.22H18a.42.42,0,0,0,.25-.09Zm.46,0a2.62,2.62,0,0,0-.21.17v-.59a.42.42,0,0,0,.25.09l.14,0a.42.42,0,0,0,.07.13A1.14,1.14,0,0,1,18.71,14.06Zm11-2.25h0a.35.35,0,0,0,0-.13.38.38,0,0,0-.38-.38.32.32,0,0,0-.14,0,.37.37,0,0,0-.36-.28.4.4,0,0,0-.27.12.38.38,0,0,0-.73.13v0l-.13,0a.38.38,0,0,0-.38.38.36.36,0,0,0-.37.37.4.4,0,0,0,.17.32.35.35,0,0,0-.05.18.37.37,0,0,0,.68.22,1.27,1.27,0,0,0,.27.3c.15.14.3.27.3.48v.5h.25v-.37c0-.21.18-.34.37-.48a1.67,1.67,0,0,0,.31-.28h.07a.38.38,0,0,0,.38-.38.38.38,0,0,0,0-.75ZM28.31,13l-.13-.13a.77.77,0,0,1-.2-.21h.08a.37.37,0,0,0,.25-.1Zm.47,0-.22.17v-.59a.37.37,0,0,0,.25.1.32.32,0,0,0,.14,0,.33.33,0,0,0,.07.13A1.33,1.33,0,0,1,28.78,13ZM32,2V.37a.36.36,0,0,0-.27.12A.38.38,0,0,0,31,.62v0a.27.27,0,0,0-.12,0A.38.38,0,0,0,30.5,1a.38.38,0,0,0-.38.37.39.39,0,0,0,.18.32.37.37,0,0,0,.32.56.37.37,0,0,0,.31-.16,1.1,1.1,0,0,0,.27.3c.15.14.3.27.3.48v.5h.25V3A.52.52,0,0,1,32,2.61V2.3s0,0,0,0l-.21.18V1.9A.37.37,0,0,0,32,2Zm-.5.33a.81.81,0,0,0-.14-.12,1.9,1.9,0,0,1-.2-.22h.09a.37.37,0,0,0,.25-.1ZM25.53,0h-3a.5.5,0,0,0,0,.12.37.37,0,0,0,.18.32.39.39,0,0,0-.06.18A.38.38,0,0,0,23,1a.35.35,0,0,0,.3-.16,1.29,1.29,0,0,0,.27.3c.16.14.31.27.31.48v.5h.24V1.75c0-.21.18-.34.37-.48A1.38,1.38,0,0,0,24.8,1h.08a.38.38,0,0,0,.37-.38.36.36,0,0,0,.37-.37A.37.37,0,0,0,25.53,0ZM23.88,1.08,23.74,1a1,1,0,0,1-.2-.22h.08a.4.4,0,0,0,.26-.1Zm.46,0-.22.18V.65a.4.4,0,0,0,.26.1.28.28,0,0,0,.13,0,.61.61,0,0,0,.07.14A1,1,0,0,1,24.34,1.07Zm.91,14.8h0a.59.59,0,0,0,0-.13.38.38,0,0,0-.37-.38.29.29,0,0,0-.14,0,.38.38,0,0,0-.36-.28.4.4,0,0,0-.28.12.37.37,0,0,0-.72.13v0a.31.31,0,0,0-.13,0,.37.37,0,0,0-.37.38.37.37,0,0,0-.36.25h3A.37.37,0,0,0,25.25,15.87Z"/><path id="orchard_random_dense-4" data-name="orchard_random_dense" class="cls-2" d="M20.94,19.06h0a.35.35,0,0,0,0-.13.38.38,0,0,0-.38-.38.32.32,0,0,0-.14,0,.37.37,0,0,0-.36-.28.4.4,0,0,0-.27.12.38.38,0,0,0-.73.13v0l-.13,0a.38.38,0,0,0-.38.38.36.36,0,0,0-.37.37.4.4,0,0,0,.17.32.35.35,0,0,0-.05.18A.37.37,0,0,0,19,20a1.27,1.27,0,0,0,.27.3c.15.14.3.27.3.48v.5h.25v-.37c0-.21.18-.34.37-.48a1.67,1.67,0,0,0,.31-.28h.07a.38.38,0,0,0,.38-.38.38.38,0,0,0,0-.75Zm-1.38,1.21a1.59,1.59,0,0,0-.13-.13.77.77,0,0,1-.2-.21h.08a.37.37,0,0,0,.25-.1Zm.47,0-.22.17v-.59a.37.37,0,0,0,.25.1.32.32,0,0,0,.14,0,.33.33,0,0,0,.07.13A1.33,1.33,0,0,1,20,20.26Zm8.41,0h0a.35.35,0,0,0,0-.13.38.38,0,0,0-.38-.38.32.32,0,0,0-.14,0,.37.37,0,0,0-.36-.28.4.4,0,0,0-.27.12.38.38,0,0,0-.73.13v0l-.13,0a.38.38,0,0,0-.38.38.36.36,0,0,0-.37.37.4.4,0,0,0,.17.32.35.35,0,0,0-.05.18.37.37,0,0,0,.68.22,1.27,1.27,0,0,0,.27.3c.15.14.3.27.3.48v.5h.25v-.37c0-.21.18-.34.37-.48a1.67,1.67,0,0,0,.31-.28h.07a.38.38,0,0,0,.38-.38.38.38,0,0,0,0-.75Zm-1.38,1.21a1.59,1.59,0,0,0-.13-.13.77.77,0,0,1-.2-.21h.08a.37.37,0,0,0,.25-.1Zm.47,0-.22.17v-.59a.37.37,0,0,0,.25.1.32.32,0,0,0,.14,0,.33.33,0,0,0,.07.13A1.33,1.33,0,0,1,27.53,21.51Zm-4.34,3.8h0a.35.35,0,0,0,0-.13.38.38,0,0,0-.38-.38.32.32,0,0,0-.14,0,.37.37,0,0,0-.36-.28.4.4,0,0,0-.27.12.38.38,0,0,0-.73.13v0l-.13,0a.38.38,0,0,0-.38.38.36.36,0,0,0-.37.37.4.4,0,0,0,.17.32.35.35,0,0,0-.05.18.37.37,0,0,0,.68.22,1.27,1.27,0,0,0,.27.3c.15.14.3.27.3.48v.5h.25v-.37c0-.21.18-.34.37-.48a1.67,1.67,0,0,0,.31-.28h.07a.38.38,0,0,0,.38-.38.38.38,0,0,0,0-.75Zm-1.38,1.21a1.59,1.59,0,0,0-.13-.13.77.77,0,0,1-.2-.21h.08a.37.37,0,0,0,.25-.1Zm.47,0-.22.17v-.59a.37.37,0,0,0,.25.1.32.32,0,0,0,.14,0,.33.33,0,0,0,.07.13A1.33,1.33,0,0,1,22.28,26.51Zm-5.4-9.39h0a.31.31,0,0,0,0-.13.38.38,0,0,0-.38-.38.32.32,0,0,0-.14,0,.38.38,0,0,0-.36-.28V18a.32.32,0,0,0,.14,0,.37.37,0,0,0,.07.14,1.37,1.37,0,0,1-.21.19v.31l.12-.09a1.15,1.15,0,0,0,.3-.28h.08a.38.38,0,0,0,.38-.38.37.37,0,0,0,.37-.37A.38.38,0,0,0,16.88,17.12Zm14.74,6.47h0a.32.32,0,0,0,0-.13.37.37,0,0,0-.37-.38.32.32,0,0,0-.14,0,.38.38,0,0,0-.36-.28.36.36,0,0,0-.27.12.38.38,0,0,0-.36-.24.37.37,0,0,0-.37.37v0l-.13,0a.38.38,0,0,0-.37.38.36.36,0,0,0-.37.37.4.4,0,0,0,.17.32.35.35,0,0,0-.05.18.38.38,0,0,0,.38.38.39.39,0,0,0,.3-.16,1.1,1.1,0,0,0,.27.3c.15.14.3.27.3.48v.5h.25v-.37c0-.21.18-.34.37-.48a1.35,1.35,0,0,0,.3-.28h.08a.37.37,0,0,0,.37-.38A.37.37,0,0,0,32,24,.38.38,0,0,0,31.62,23.59ZM30.25,24.8a.86.86,0,0,0-.14-.13,1.29,1.29,0,0,1-.2-.21H30a.37.37,0,0,0,.25-.1Zm.46,0L30.5,25v-.59a.37.37,0,0,0,.25.1.32.32,0,0,0,.14,0,.27.27,0,0,0,.07.13A1.14,1.14,0,0,1,30.71,24.79ZM19.62,28.86h0a.27.27,0,0,0,0-.13.37.37,0,0,0-.37-.37l-.14,0a.38.38,0,0,0-.36-.27.33.33,0,0,0-.27.12.39.39,0,0,0-.36-.25.38.38,0,0,0-.37.38v0l-.13,0a.38.38,0,0,0-.37.37.37.37,0,0,0-.37.38.4.4,0,0,0,.17.32.35.35,0,0,0-.05.18.37.37,0,0,0,.38.37.37.37,0,0,0,.3-.16,1,1,0,0,0,.27.3.7.7,0,0,1,.3.49v.5h.25v-.38c0-.2.18-.33.37-.47a1.38,1.38,0,0,0,.3-.29h.08a.36.36,0,0,0,.37-.37.38.38,0,1,0,0-.75Zm-1.37,1.21a.86.86,0,0,0-.14-.13,1.9,1.9,0,0,1-.2-.22H18a.42.42,0,0,0,.25-.09Zm.46,0a2.62,2.62,0,0,0-.21.17v-.59a.42.42,0,0,0,.25.09l.14,0a.42.42,0,0,0,.07.13A1.14,1.14,0,0,1,18.71,30.06Zm11-2.25h0a.35.35,0,0,0,0-.13.38.38,0,0,0-.38-.38.32.32,0,0,0-.14,0,.37.37,0,0,0-.36-.28.4.4,0,0,0-.27.12.38.38,0,0,0-.73.13v0l-.13,0a.38.38,0,0,0-.38.38.36.36,0,0,0-.37.37.4.4,0,0,0,.17.32.35.35,0,0,0-.05.18.37.37,0,0,0,.68.22,1.27,1.27,0,0,0,.27.3c.15.14.3.27.3.48v.5h.25v-.37c0-.21.18-.34.37-.48a1.67,1.67,0,0,0,.31-.28h.07a.38.38,0,0,0,.38-.38.38.38,0,0,0,0-.75ZM28.31,29a1.59,1.59,0,0,0-.13-.13.77.77,0,0,1-.2-.21h.08a.37.37,0,0,0,.25-.1Zm.47,0-.22.17v-.59a.37.37,0,0,0,.25.1.32.32,0,0,0,.14,0,.33.33,0,0,0,.07.13A1.33,1.33,0,0,1,28.78,29ZM32,18V16.37a.36.36,0,0,0-.27.12.38.38,0,0,0-.73.13v0a.27.27,0,0,0-.12,0,.38.38,0,0,0-.38.38.38.38,0,0,0-.38.37.39.39,0,0,0,.18.32.37.37,0,0,0,.32.56.37.37,0,0,0,.31-.16,1.1,1.1,0,0,0,.27.3c.15.14.3.27.3.48v.5h.25V19a.52.52,0,0,1,.25-.39V18.3l0,0c-.06.05-.14.11-.21.18v-.6A.37.37,0,0,0,32,18Zm-.5.33a.81.81,0,0,0-.14-.12,1.9,1.9,0,0,1-.2-.22h.09a.37.37,0,0,0,.25-.1Zm-6-2.33h-3a.5.5,0,0,0,0,.12.37.37,0,0,0,.18.32.39.39,0,0,0-.06.18A.38.38,0,0,0,23,17a.35.35,0,0,0,.3-.16,1.29,1.29,0,0,0,.27.3c.16.14.31.27.31.48v.5h.24v-.37c0-.21.18-.34.37-.48A1.38,1.38,0,0,0,24.8,17h.08a.38.38,0,0,0,.37-.38.38.38,0,0,0,.28-.62Zm-1.65,1.08L23.74,17a1,1,0,0,1-.2-.22h.08a.4.4,0,0,0,.26-.1Zm.46,0-.22.18v-.6a.4.4,0,0,0,.26.1.28.28,0,0,0,.13,0,.61.61,0,0,0,.07.14A1,1,0,0,1,24.34,17.07Zm.91,14.8h0a.59.59,0,0,0,0-.13.38.38,0,0,0-.37-.38.29.29,0,0,0-.14,0,.38.38,0,0,0-.36-.28.4.4,0,0,0-.28.12.37.37,0,0,0-.72.13v0a.31.31,0,0,0-.13,0,.37.37,0,0,0-.37.38.37.37,0,0,0-.36.25h3A.37.37,0,0,0,25.25,31.87Z"/></g><g id="orchard_poly_random_dense_half-2" data-name="orchard_poly_random_dense_half"><rect id="bbox_64-2" data-name="bbox_64" class="cls-1" x="32" width="32" height="32"/><path id="orchard_random_dense-5" data-name="orchard_random_dense" class="cls-2" d="M36.94,3.06h0a.35.35,0,0,0,0-.13.38.38,0,0,0-.38-.38.32.32,0,0,0-.14,0,.37.37,0,0,0-.36-.28.4.4,0,0,0-.27.12.38.38,0,0,0-.73.13v0l-.13,0a.38.38,0,0,0-.38.38.36.36,0,0,0-.37.37.4.4,0,0,0,.17.32.35.35,0,0,0,0,.18A.37.37,0,0,0,35,4a1.27,1.27,0,0,0,.27.3c.15.14.3.27.3.48v.5h.25V4.94c0-.21.18-.34.37-.48a1.67,1.67,0,0,0,.31-.28h.07a.38.38,0,0,0,.38-.38.38.38,0,0,0,0-.75ZM35.56,4.27a1.59,1.59,0,0,0-.13-.13.77.77,0,0,1-.2-.21h.08a.37.37,0,0,0,.25-.1Zm.47,0-.22.17V3.84a.37.37,0,0,0,.25.1.32.32,0,0,0,.14,0,.33.33,0,0,0,.07.13A1.33,1.33,0,0,1,36,4.26Zm8.41,0h0a.35.35,0,0,0,0-.13.38.38,0,0,0-.38-.38.32.32,0,0,0-.14,0,.37.37,0,0,0-.36-.28.4.4,0,0,0-.27.12.38.38,0,0,0-.73.13v0l-.13,0a.38.38,0,0,0-.38.38.36.36,0,0,0-.37.37.4.4,0,0,0,.17.32.35.35,0,0,0,0,.18.37.37,0,0,0,.68.22,1.27,1.27,0,0,0,.27.3c.15.14.3.27.3.48v.5h.25V6.19c0-.21.18-.34.37-.48A1.67,1.67,0,0,0,44,5.43h.07a.38.38,0,0,0,.38-.38.38.38,0,0,0,0-.75ZM43.06,5.52a1.59,1.59,0,0,0-.13-.13.77.77,0,0,1-.2-.21h.08a.37.37,0,0,0,.25-.1Zm.47,0-.22.17V5.09a.37.37,0,0,0,.25.1.32.32,0,0,0,.14,0,.33.33,0,0,0,.07.13A1.33,1.33,0,0,1,43.53,5.51Zm-4.34,3.8h0a.35.35,0,0,0,0-.13.38.38,0,0,0-.38-.38.32.32,0,0,0-.14,0,.37.37,0,0,0-.36-.28.4.4,0,0,0-.27.12.38.38,0,0,0-.73.13v0l-.13,0a.38.38,0,0,0-.38.38.36.36,0,0,0-.37.37.4.4,0,0,0,.17.32.35.35,0,0,0,0,.18.37.37,0,0,0,.68.22,1.27,1.27,0,0,0,.27.3c.15.14.3.27.3.48v.5h.25v-.37c0-.21.18-.34.37-.48a1.67,1.67,0,0,0,.31-.28h.07a.38.38,0,0,0,.38-.38.38.38,0,0,0,0-.75Zm-1.38,1.21a1.59,1.59,0,0,0-.13-.13.77.77,0,0,1-.2-.21h.08a.37.37,0,0,0,.25-.1Zm.47,0-.22.17v-.59a.37.37,0,0,0,.25.1.32.32,0,0,0,.14,0,.33.33,0,0,0,.07.13A1.33,1.33,0,0,1,38.28,10.51Zm-5.4-9.39h0a.31.31,0,0,0,0-.13A.38.38,0,0,0,32.5.62a.32.32,0,0,0-.14,0A.38.38,0,0,0,32,.37V2a.32.32,0,0,0,.14,0,.37.37,0,0,0,.07.14A1.37,1.37,0,0,1,32,2.3v.31l.12-.09a1.15,1.15,0,0,0,.3-.28h.08a.38.38,0,0,0,.38-.38.37.37,0,0,0,.37-.37A.38.38,0,0,0,32.88,1.12ZM47.62,7.59h0a.32.32,0,0,0,0-.13.37.37,0,0,0-.37-.38.32.32,0,0,0-.14,0,.38.38,0,0,0-.36-.28.36.36,0,0,0-.27.12.38.38,0,0,0-.36-.24.37.37,0,0,0-.37.37v0l-.13,0a.38.38,0,0,0-.37.38.36.36,0,0,0-.37.37.4.4,0,0,0,.17.32.35.35,0,0,0,0,.18.38.38,0,0,0,.38.38.39.39,0,0,0,.3-.16,1.1,1.1,0,0,0,.27.3c.15.14.3.27.3.48v.5h.25V9.47c0-.21.18-.34.37-.48a1.35,1.35,0,0,0,.3-.28h.08a.37.37,0,0,0,.37-.38A.37.37,0,0,0,48,8,.38.38,0,0,0,47.62,7.59ZM46.25,8.8a.86.86,0,0,0-.14-.13,1.29,1.29,0,0,1-.2-.21H46a.37.37,0,0,0,.25-.1Zm.46,0L46.5,9V8.37a.37.37,0,0,0,.25.1.32.32,0,0,0,.14,0,.27.27,0,0,0,.07.13A1.14,1.14,0,0,1,46.71,8.79ZM35.62,12.86h0a.27.27,0,0,0,0-.13.37.37,0,0,0-.37-.37l-.14,0a.38.38,0,0,0-.36-.27.33.33,0,0,0-.27.12.39.39,0,0,0-.36-.25.38.38,0,0,0-.37.38v0l-.13,0a.38.38,0,0,0-.37.37.37.37,0,0,0-.37.38.4.4,0,0,0,.17.32.35.35,0,0,0,0,.18.37.37,0,0,0,.38.37.37.37,0,0,0,.3-.16,1,1,0,0,0,.27.3.7.7,0,0,1,.3.49v.5h.25v-.38c0-.2.18-.33.37-.47a1.38,1.38,0,0,0,.3-.29h.08a.36.36,0,0,0,.37-.37.38.38,0,1,0,0-.75Zm-1.37,1.21a.86.86,0,0,0-.14-.13,1.9,1.9,0,0,1-.2-.22H34a.42.42,0,0,0,.25-.09Zm.46,0a2.62,2.62,0,0,0-.21.17v-.59a.42.42,0,0,0,.25.09l.14,0a.42.42,0,0,0,.07.13A1.14,1.14,0,0,1,34.71,14.06Zm11-2.25h0a.35.35,0,0,0,0-.13.38.38,0,0,0-.38-.38.32.32,0,0,0-.14,0,.37.37,0,0,0-.36-.28.4.4,0,0,0-.27.12.38.38,0,0,0-.73.13v0l-.13,0a.38.38,0,0,0-.38.38.36.36,0,0,0-.37.37.4.4,0,0,0,.17.32.35.35,0,0,0,0,.18.37.37,0,0,0,.68.22,1.27,1.27,0,0,0,.27.3c.15.14.3.27.3.48v.5h.25v-.37c0-.21.18-.34.37-.48a1.67,1.67,0,0,0,.31-.28h.07a.38.38,0,0,0,.38-.38.38.38,0,0,0,0-.75ZM44.31,13a1.59,1.59,0,0,0-.13-.13.77.77,0,0,1-.2-.21h.08a.37.37,0,0,0,.25-.1Zm.47,0-.22.17v-.59a.37.37,0,0,0,.25.1.32.32,0,0,0,.14,0,.33.33,0,0,0,.07.13A1.33,1.33,0,0,1,44.78,13ZM48,2V.37a.36.36,0,0,0-.27.12A.38.38,0,0,0,47,.62v0a.27.27,0,0,0-.12,0A.38.38,0,0,0,46.5,1a.38.38,0,0,0-.38.37.39.39,0,0,0,.18.32.37.37,0,0,0,.32.56.37.37,0,0,0,.31-.16,1.1,1.1,0,0,0,.27.3c.15.14.3.27.3.48v.5h.25V3A.52.52,0,0,1,48,2.61V2.3l0,0-.21.18V1.9A.37.37,0,0,0,48,2Zm-.5.33a.81.81,0,0,0-.14-.12,1.9,1.9,0,0,1-.2-.22h.09a.37.37,0,0,0,.25-.1ZM41.53,0h-3a.5.5,0,0,0,0,.12.37.37,0,0,0,.18.32.39.39,0,0,0-.06.18A.38.38,0,0,0,39,1a.35.35,0,0,0,.3-.16,1.29,1.29,0,0,0,.27.3c.16.14.31.27.31.48v.5h.24V1.75c0-.21.18-.34.37-.48A1.38,1.38,0,0,0,40.8,1h.08a.38.38,0,0,0,.37-.38.36.36,0,0,0,.37-.37A.37.37,0,0,0,41.53,0ZM39.88,1.08,39.74,1a1,1,0,0,1-.2-.22h.08a.4.4,0,0,0,.26-.1Zm.46,0-.22.18V.65a.4.4,0,0,0,.26.1.28.28,0,0,0,.13,0,.61.61,0,0,0,.07.14A1,1,0,0,1,40.34,1.07Zm.91,14.8h0a.59.59,0,0,0,0-.13.38.38,0,0,0-.37-.38.29.29,0,0,0-.14,0,.38.38,0,0,0-.36-.28.4.4,0,0,0-.28.12.37.37,0,0,0-.72.13v0a.31.31,0,0,0-.13,0,.37.37,0,0,0-.37.38.37.37,0,0,0-.36.25h3A.37.37,0,0,0,41.25,15.87Z"/><path id="orchard_random_dense-6" data-name="orchard_random_dense" class="cls-2" d="M36.94,19.06h0a.35.35,0,0,0,0-.13.38.38,0,0,0-.38-.38.32.32,0,0,0-.14,0,.37.37,0,0,0-.36-.28.4.4,0,0,0-.27.12.38.38,0,0,0-.73.13v0l-.13,0a.38.38,0,0,0-.38.38.36.36,0,0,0-.37.37.4.4,0,0,0,.17.32.35.35,0,0,0,0,.18A.37.37,0,0,0,35,20a1.27,1.27,0,0,0,.27.3c.15.14.3.27.3.48v.5h.25v-.37c0-.21.18-.34.37-.48a1.67,1.67,0,0,0,.31-.28h.07a.38.38,0,0,0,.38-.38.38.38,0,0,0,0-.75Zm-1.38,1.21a1.59,1.59,0,0,0-.13-.13.77.77,0,0,1-.2-.21h.08a.37.37,0,0,0,.25-.1Zm.47,0-.22.17v-.59a.37.37,0,0,0,.25.1.32.32,0,0,0,.14,0,.33.33,0,0,0,.07.13A1.33,1.33,0,0,1,36,20.26Zm8.41,0h0a.35.35,0,0,0,0-.13.38.38,0,0,0-.38-.38.32.32,0,0,0-.14,0,.37.37,0,0,0-.36-.28.4.4,0,0,0-.27.12.38.38,0,0,0-.73.13v0l-.13,0a.38.38,0,0,0-.38.38.36.36,0,0,0-.37.37.4.4,0,0,0,.17.32.35.35,0,0,0,0,.18.37.37,0,0,0,.68.22,1.27,1.27,0,0,0,.27.3c.15.14.3.27.3.48v.5h.25v-.37c0-.21.18-.34.37-.48a1.67,1.67,0,0,0,.31-.28h.07a.38.38,0,0,0,.38-.38.38.38,0,0,0,0-.75Zm-1.38,1.21a1.59,1.59,0,0,0-.13-.13.77.77,0,0,1-.2-.21h.08a.37.37,0,0,0,.25-.1Zm.47,0-.22.17v-.59a.37.37,0,0,0,.25.1.32.32,0,0,0,.14,0,.33.33,0,0,0,.07.13A1.33,1.33,0,0,1,43.53,21.51Zm-4.34,3.8h0a.35.35,0,0,0,0-.13.38.38,0,0,0-.38-.38.32.32,0,0,0-.14,0,.37.37,0,0,0-.36-.28.4.4,0,0,0-.27.12.38.38,0,0,0-.73.13v0l-.13,0a.38.38,0,0,0-.38.38.36.36,0,0,0-.37.37.4.4,0,0,0,.17.32.35.35,0,0,0,0,.18.37.37,0,0,0,.68.22,1.27,1.27,0,0,0,.27.3c.15.14.3.27.3.48v.5h.25v-.37c0-.21.18-.34.37-.48a1.67,1.67,0,0,0,.31-.28h.07a.38.38,0,0,0,.38-.38.38.38,0,0,0,0-.75Zm-1.38,1.21a1.59,1.59,0,0,0-.13-.13.77.77,0,0,1-.2-.21h.08a.37.37,0,0,0,.25-.1Zm.47,0-.22.17v-.59a.37.37,0,0,0,.25.1.32.32,0,0,0,.14,0,.33.33,0,0,0,.07.13A1.33,1.33,0,0,1,38.28,26.51Zm-5.4-9.39h0a.31.31,0,0,0,0-.13.38.38,0,0,0-.38-.38.32.32,0,0,0-.14,0,.38.38,0,0,0-.36-.28V18a.32.32,0,0,0,.14,0,.37.37,0,0,0,.07.14,1.37,1.37,0,0,1-.21.19v.31l.12-.09a1.15,1.15,0,0,0,.3-.28h.08a.38.38,0,0,0,.38-.38.37.37,0,0,0,.37-.37A.38.38,0,0,0,32.88,17.12Zm14.74,6.47h0a.32.32,0,0,0,0-.13.37.37,0,0,0-.37-.38.32.32,0,0,0-.14,0,.38.38,0,0,0-.36-.28.36.36,0,0,0-.27.12.38.38,0,0,0-.36-.24.37.37,0,0,0-.37.37v0l-.13,0a.38.38,0,0,0-.37.38.36.36,0,0,0-.37.37.4.4,0,0,0,.17.32.35.35,0,0,0,0,.18.38.38,0,0,0,.38.38.39.39,0,0,0,.3-.16,1.1,1.1,0,0,0,.27.3c.15.14.3.27.3.48v.5h.25v-.37c0-.21.18-.34.37-.48a1.35,1.35,0,0,0,.3-.28h.08a.37.37,0,0,0,.37-.38A.37.37,0,0,0,48,24,.38.38,0,0,0,47.62,23.59ZM46.25,24.8a.86.86,0,0,0-.14-.13,1.29,1.29,0,0,1-.2-.21H46a.37.37,0,0,0,.25-.1Zm.46,0L46.5,25v-.59a.37.37,0,0,0,.25.1.32.32,0,0,0,.14,0,.27.27,0,0,0,.07.13A1.14,1.14,0,0,1,46.71,24.79ZM35.62,28.86h0a.27.27,0,0,0,0-.13.37.37,0,0,0-.37-.37l-.14,0a.38.38,0,0,0-.36-.27.33.33,0,0,0-.27.12.39.39,0,0,0-.36-.25.38.38,0,0,0-.37.38v0l-.13,0a.38.38,0,0,0-.37.37.37.37,0,0,0-.37.38.4.4,0,0,0,.17.32.35.35,0,0,0,0,.18.37.37,0,0,0,.38.37.37.37,0,0,0,.3-.16,1,1,0,0,0,.27.3.7.7,0,0,1,.3.49v.5h.25v-.38c0-.2.18-.33.37-.47a1.38,1.38,0,0,0,.3-.29h.08a.36.36,0,0,0,.37-.37.38.38,0,1,0,0-.75Zm-1.37,1.21a.86.86,0,0,0-.14-.13,1.9,1.9,0,0,1-.2-.22H34a.42.42,0,0,0,.25-.09Zm.46,0a2.62,2.62,0,0,0-.21.17v-.59a.42.42,0,0,0,.25.09l.14,0a.42.42,0,0,0,.07.13A1.14,1.14,0,0,1,34.71,30.06Zm11-2.25h0a.35.35,0,0,0,0-.13.38.38,0,0,0-.38-.38.32.32,0,0,0-.14,0,.37.37,0,0,0-.36-.28.4.4,0,0,0-.27.12.38.38,0,0,0-.73.13v0l-.13,0a.38.38,0,0,0-.38.38.36.36,0,0,0-.37.37.4.4,0,0,0,.17.32.35.35,0,0,0,0,.18.37.37,0,0,0,.68.22,1.27,1.27,0,0,0,.27.3c.15.14.3.27.3.48v.5h.25v-.37c0-.21.18-.34.37-.48a1.67,1.67,0,0,0,.31-.28h.07a.38.38,0,0,0,.38-.38.38.38,0,0,0,0-.75ZM44.31,29a1.59,1.59,0,0,0-.13-.13.77.77,0,0,1-.2-.21h.08a.37.37,0,0,0,.25-.1Zm.47,0-.22.17v-.59a.37.37,0,0,0,.25.1.32.32,0,0,0,.14,0,.33.33,0,0,0,.07.13A1.33,1.33,0,0,1,44.78,29ZM48,18V16.37a.36.36,0,0,0-.27.12.38.38,0,0,0-.73.13v0a.27.27,0,0,0-.12,0,.38.38,0,0,0-.38.38.38.38,0,0,0-.38.37.39.39,0,0,0,.18.32.37.37,0,0,0,.32.56.37.37,0,0,0,.31-.16,1.1,1.1,0,0,0,.27.3c.15.14.3.27.3.48v.5h.25V19a.52.52,0,0,1,.25-.39V18.3l0,0c-.06.05-.14.11-.21.18v-.6A.37.37,0,0,0,48,18Zm-.5.33a.81.81,0,0,0-.14-.12,1.9,1.9,0,0,1-.2-.22h.09a.37.37,0,0,0,.25-.1Zm-6-2.33h-3a.5.5,0,0,0,0,.12.37.37,0,0,0,.18.32.39.39,0,0,0-.06.18A.38.38,0,0,0,39,17a.35.35,0,0,0,.3-.16,1.29,1.29,0,0,0,.27.3c.16.14.31.27.31.48v.5h.24v-.37c0-.21.18-.34.37-.48A1.38,1.38,0,0,0,40.8,17h.08a.38.38,0,0,0,.37-.38.38.38,0,0,0,.28-.62Zm-1.65,1.08L39.74,17a1,1,0,0,1-.2-.22h.08a.4.4,0,0,0,.26-.1Zm.46,0-.22.18v-.6a.4.4,0,0,0,.26.1.28.28,0,0,0,.13,0,.61.61,0,0,0,.07.14A1,1,0,0,1,40.34,17.07Zm.91,14.8h0a.59.59,0,0,0,0-.13.38.38,0,0,0-.37-.38.29.29,0,0,0-.14,0,.38.38,0,0,0-.36-.28.4.4,0,0,0-.28.12.37.37,0,0,0-.72.13v0a.31.31,0,0,0-.13,0,.37.37,0,0,0-.37.38.37.37,0,0,0-.36.25h3A.37.37,0,0,0,41.25,31.87Z"/><path id="orchard_random_dense-7" data-name="orchard_random_dense" class="cls-2" d="M52.94,3.06h0a.35.35,0,0,0,0-.13.38.38,0,0,0-.38-.38.32.32,0,0,0-.14,0,.37.37,0,0,0-.36-.28.4.4,0,0,0-.27.12.38.38,0,0,0-.73.13v0l-.13,0a.38.38,0,0,0-.38.38.36.36,0,0,0-.37.37.4.4,0,0,0,.17.32.35.35,0,0,0,0,.18A.37.37,0,0,0,51,4a1.27,1.27,0,0,0,.27.3c.15.14.3.27.3.48v.5h.25V4.94c0-.21.18-.34.37-.48a1.67,1.67,0,0,0,.31-.28h.07a.38.38,0,0,0,.38-.38.38.38,0,0,0,0-.75ZM51.56,4.27a1.59,1.59,0,0,0-.13-.13.77.77,0,0,1-.2-.21h.08a.37.37,0,0,0,.25-.1Zm.47,0-.22.17V3.84a.37.37,0,0,0,.25.1.32.32,0,0,0,.14,0,.33.33,0,0,0,.07.13A1.33,1.33,0,0,1,52,4.26Zm8.41,0h0a.35.35,0,0,0,0-.13.38.38,0,0,0-.38-.38.32.32,0,0,0-.14,0,.37.37,0,0,0-.36-.28.4.4,0,0,0-.27.12.38.38,0,0,0-.73.13v0l-.13,0a.38.38,0,0,0-.38.38.36.36,0,0,0-.37.37.4.4,0,0,0,.17.32.35.35,0,0,0,0,.18.37.37,0,0,0,.68.22,1.27,1.27,0,0,0,.27.3c.15.14.3.27.3.48v.5h.25V6.19c0-.21.18-.34.37-.48A1.67,1.67,0,0,0,60,5.43h.07a.38.38,0,0,0,.38-.38.38.38,0,0,0,0-.75ZM59.06,5.52a1.59,1.59,0,0,0-.13-.13.77.77,0,0,1-.2-.21h.08a.37.37,0,0,0,.25-.1Zm.47,0-.22.17V5.09a.37.37,0,0,0,.25.1.32.32,0,0,0,.14,0,.33.33,0,0,0,.07.13A1.33,1.33,0,0,1,59.53,5.51Zm-4.34,3.8h0a.35.35,0,0,0,0-.13.38.38,0,0,0-.38-.38.32.32,0,0,0-.14,0,.37.37,0,0,0-.36-.28.4.4,0,0,0-.27.12.38.38,0,0,0-.73.13v0l-.13,0a.38.38,0,0,0-.38.38.36.36,0,0,0-.37.37.4.4,0,0,0,.17.32.35.35,0,0,0,0,.18.37.37,0,0,0,.68.22,1.27,1.27,0,0,0,.27.3c.15.14.3.27.3.48v.5h.25v-.37c0-.21.18-.34.37-.48a1.67,1.67,0,0,0,.31-.28h.07a.38.38,0,0,0,.38-.38.38.38,0,0,0,0-.75Zm-1.38,1.21a1.59,1.59,0,0,0-.13-.13.77.77,0,0,1-.2-.21h.08a.37.37,0,0,0,.25-.1Zm.47,0-.22.17v-.59a.37.37,0,0,0,.25.1.32.32,0,0,0,.14,0,.33.33,0,0,0,.07.13A1.33,1.33,0,0,1,54.28,10.51Zm-5.4-9.39h0a.31.31,0,0,0,0-.13A.38.38,0,0,0,48.5.62a.32.32,0,0,0-.14,0A.38.38,0,0,0,48,.37V2a.32.32,0,0,0,.14,0,.37.37,0,0,0,.07.14A1.37,1.37,0,0,1,48,2.3v.31l.12-.09a1.15,1.15,0,0,0,.3-.28h.08a.38.38,0,0,0,.38-.38.37.37,0,0,0,.37-.37A.38.38,0,0,0,48.88,1.12ZM63.62,7.59h0a.32.32,0,0,0,0-.13.37.37,0,0,0-.37-.38.32.32,0,0,0-.14,0,.38.38,0,0,0-.36-.28.36.36,0,0,0-.27.12.38.38,0,0,0-.36-.24.37.37,0,0,0-.37.37v0l-.13,0a.38.38,0,0,0-.37.38.36.36,0,0,0-.37.37.4.4,0,0,0,.17.32.35.35,0,0,0,0,.18.38.38,0,0,0,.38.38.39.39,0,0,0,.3-.16,1.1,1.1,0,0,0,.27.3c.15.14.3.27.3.48v.5h.25V9.47c0-.21.18-.34.37-.48a1.35,1.35,0,0,0,.3-.28h.08a.37.37,0,0,0,.37-.38A.37.37,0,0,0,64,8,.38.38,0,0,0,63.62,7.59ZM62.25,8.8a.86.86,0,0,0-.14-.13,1.29,1.29,0,0,1-.2-.21H62a.37.37,0,0,0,.25-.1Zm.46,0L62.5,9V8.37a.37.37,0,0,0,.25.1.32.32,0,0,0,.14,0,.27.27,0,0,0,.07.13A1.14,1.14,0,0,1,62.71,8.79ZM51.62,12.86h0a.27.27,0,0,0,0-.13.37.37,0,0,0-.37-.37l-.14,0a.38.38,0,0,0-.36-.27.33.33,0,0,0-.27.12.39.39,0,0,0-.36-.25.38.38,0,0,0-.37.38v0l-.13,0a.38.38,0,0,0-.37.37.37.37,0,0,0-.37.38.4.4,0,0,0,.17.32.35.35,0,0,0,0,.18.37.37,0,0,0,.38.37.37.37,0,0,0,.3-.16,1,1,0,0,0,.27.3.7.7,0,0,1,.3.49v.5h.25v-.38c0-.2.18-.33.37-.47a1.38,1.38,0,0,0,.3-.29h.08a.36.36,0,0,0,.37-.37.38.38,0,1,0,0-.75Zm-1.37,1.21a.86.86,0,0,0-.14-.13,1.9,1.9,0,0,1-.2-.22H50a.42.42,0,0,0,.25-.09Zm.46,0a2.62,2.62,0,0,0-.21.17v-.59a.42.42,0,0,0,.25.09l.14,0a.42.42,0,0,0,.07.13A1.14,1.14,0,0,1,50.71,14.06Zm11-2.25h0a.35.35,0,0,0,0-.13.38.38,0,0,0-.38-.38.32.32,0,0,0-.14,0,.37.37,0,0,0-.36-.28.4.4,0,0,0-.27.12.38.38,0,0,0-.73.13v0l-.13,0a.38.38,0,0,0-.38.38.36.36,0,0,0-.37.37.4.4,0,0,0,.17.32.35.35,0,0,0,0,.18.37.37,0,0,0,.68.22,1.27,1.27,0,0,0,.27.3c.15.14.3.27.3.48v.5h.25v-.37c0-.21.18-.34.37-.48a1.67,1.67,0,0,0,.31-.28h.07a.38.38,0,0,0,.38-.38.38.38,0,0,0,0-.75ZM60.31,13a1.59,1.59,0,0,0-.13-.13.77.77,0,0,1-.2-.21h.08a.37.37,0,0,0,.25-.1Zm.47,0-.22.17v-.59a.37.37,0,0,0,.25.1.32.32,0,0,0,.14,0,.33.33,0,0,0,.07.13A1.33,1.33,0,0,1,60.78,13ZM64,2V.37a.36.36,0,0,0-.27.12A.38.38,0,0,0,63,.62v0a.27.27,0,0,0-.12,0A.38.38,0,0,0,62.5,1a.38.38,0,0,0-.38.37.39.39,0,0,0,.18.32.37.37,0,0,0,.32.56.37.37,0,0,0,.31-.16,1.1,1.1,0,0,0,.27.3c.15.14.3.27.3.48v.5h.25V3A.52.52,0,0,1,64,2.61V2.3l0,0-.21.18V1.9A.37.37,0,0,0,64,2Zm-.5.33a.81.81,0,0,0-.14-.12,1.9,1.9,0,0,1-.2-.22h.09a.37.37,0,0,0,.25-.1ZM57.53,0h-3a.5.5,0,0,0,0,.12.37.37,0,0,0,.18.32.39.39,0,0,0-.06.18A.38.38,0,0,0,55,1a.35.35,0,0,0,.3-.16,1.29,1.29,0,0,0,.27.3c.16.14.31.27.31.48v.5h.24V1.75c0-.21.18-.34.37-.48A1.38,1.38,0,0,0,56.8,1h.08a.38.38,0,0,0,.37-.38.36.36,0,0,0,.37-.37A.37.37,0,0,0,57.53,0ZM55.88,1.08,55.74,1a1,1,0,0,1-.2-.22h.08a.4.4,0,0,0,.26-.1Zm.46,0-.22.18V.65a.4.4,0,0,0,.26.1.28.28,0,0,0,.13,0,.61.61,0,0,0,.07.14A1,1,0,0,1,56.34,1.07Zm.91,14.8h0a.59.59,0,0,0,0-.13.38.38,0,0,0-.37-.38.29.29,0,0,0-.14,0,.38.38,0,0,0-.36-.28.4.4,0,0,0-.28.12.37.37,0,0,0-.72.13v0a.31.31,0,0,0-.13,0,.37.37,0,0,0-.37.38.37.37,0,0,0-.36.25h3A.37.37,0,0,0,57.25,15.87Z"/><path id="orchard_random_dense-8" data-name="orchard_random_dense" class="cls-2" d="M52.94,19.06h0a.35.35,0,0,0,0-.13.38.38,0,0,0-.38-.38.32.32,0,0,0-.14,0,.37.37,0,0,0-.36-.28.4.4,0,0,0-.27.12.38.38,0,0,0-.73.13v0l-.13,0a.38.38,0,0,0-.38.38.36.36,0,0,0-.37.37.4.4,0,0,0,.17.32.35.35,0,0,0,0,.18A.37.37,0,0,0,51,20a1.27,1.27,0,0,0,.27.3c.15.14.3.27.3.48v.5h.25v-.37c0-.21.18-.34.37-.48a1.67,1.67,0,0,0,.31-.28h.07a.38.38,0,0,0,.38-.38.38.38,0,0,0,0-.75Zm-1.38,1.21a1.59,1.59,0,0,0-.13-.13.77.77,0,0,1-.2-.21h.08a.37.37,0,0,0,.25-.1Zm.47,0-.22.17v-.59a.37.37,0,0,0,.25.1.32.32,0,0,0,.14,0,.33.33,0,0,0,.07.13A1.33,1.33,0,0,1,52,20.26Zm8.41,0h0a.35.35,0,0,0,0-.13.38.38,0,0,0-.38-.38.32.32,0,0,0-.14,0,.37.37,0,0,0-.36-.28.4.4,0,0,0-.27.12.38.38,0,0,0-.73.13v0l-.13,0a.38.38,0,0,0-.38.38.36.36,0,0,0-.37.37.4.4,0,0,0,.17.32.35.35,0,0,0,0,.18.37.37,0,0,0,.68.22,1.27,1.27,0,0,0,.27.3c.15.14.3.27.3.48v.5h.25v-.37c0-.21.18-.34.37-.48a1.67,1.67,0,0,0,.31-.28h.07a.38.38,0,0,0,.38-.38.38.38,0,0,0,0-.75Zm-1.38,1.21a1.59,1.59,0,0,0-.13-.13.77.77,0,0,1-.2-.21h.08a.37.37,0,0,0,.25-.1Zm.47,0-.22.17v-.59a.37.37,0,0,0,.25.1.32.32,0,0,0,.14,0,.33.33,0,0,0,.07.13A1.33,1.33,0,0,1,59.53,21.51Zm-4.34,3.8h0a.35.35,0,0,0,0-.13.38.38,0,0,0-.38-.38.32.32,0,0,0-.14,0,.37.37,0,0,0-.36-.28.4.4,0,0,0-.27.12.38.38,0,0,0-.73.13v0l-.13,0a.38.38,0,0,0-.38.38.36.36,0,0,0-.37.37.4.4,0,0,0,.17.32.35.35,0,0,0,0,.18.37.37,0,0,0,.68.22,1.27,1.27,0,0,0,.27.3c.15.14.3.27.3.48v.5h.25v-.37c0-.21.18-.34.37-.48a1.67,1.67,0,0,0,.31-.28h.07a.38.38,0,0,0,.38-.38.38.38,0,0,0,0-.75Zm-1.38,1.21a1.59,1.59,0,0,0-.13-.13.77.77,0,0,1-.2-.21h.08a.37.37,0,0,0,.25-.1Zm.47,0-.22.17v-.59a.37.37,0,0,0,.25.1.32.32,0,0,0,.14,0,.33.33,0,0,0,.07.13A1.33,1.33,0,0,1,54.28,26.51Zm-5.4-9.39h0a.31.31,0,0,0,0-.13.38.38,0,0,0-.38-.38.32.32,0,0,0-.14,0,.38.38,0,0,0-.36-.28V18a.32.32,0,0,0,.14,0,.37.37,0,0,0,.07.14,1.37,1.37,0,0,1-.21.19v.31l.12-.09a1.15,1.15,0,0,0,.3-.28h.08a.38.38,0,0,0,.38-.38.37.37,0,0,0,.37-.37A.38.38,0,0,0,48.88,17.12Zm14.74,6.47h0a.32.32,0,0,0,0-.13.37.37,0,0,0-.37-.38.32.32,0,0,0-.14,0,.38.38,0,0,0-.36-.28.36.36,0,0,0-.27.12.38.38,0,0,0-.36-.24.37.37,0,0,0-.37.37v0l-.13,0a.38.38,0,0,0-.37.38.36.36,0,0,0-.37.37.4.4,0,0,0,.17.32.35.35,0,0,0,0,.18.38.38,0,0,0,.38.38.39.39,0,0,0,.3-.16,1.1,1.1,0,0,0,.27.3c.15.14.3.27.3.48v.5h.25v-.37c0-.21.18-.34.37-.48a1.35,1.35,0,0,0,.3-.28h.08a.37.37,0,0,0,.37-.38A.37.37,0,0,0,64,24,.38.38,0,0,0,63.62,23.59ZM62.25,24.8a.86.86,0,0,0-.14-.13,1.29,1.29,0,0,1-.2-.21H62a.37.37,0,0,0,.25-.1Zm.46,0L62.5,25v-.59a.37.37,0,0,0,.25.1.32.32,0,0,0,.14,0,.27.27,0,0,0,.07.13A1.14,1.14,0,0,1,62.71,24.79ZM51.62,28.86h0a.27.27,0,0,0,0-.13.37.37,0,0,0-.37-.37l-.14,0a.38.38,0,0,0-.36-.27.33.33,0,0,0-.27.12.39.39,0,0,0-.36-.25.38.38,0,0,0-.37.38v0l-.13,0a.38.38,0,0,0-.37.37.37.37,0,0,0-.37.38.4.4,0,0,0,.17.32.35.35,0,0,0,0,.18.37.37,0,0,0,.38.37.37.37,0,0,0,.3-.16,1,1,0,0,0,.27.3.7.7,0,0,1,.3.49v.5h.25v-.38c0-.2.18-.33.37-.47a1.38,1.38,0,0,0,.3-.29h.08a.36.36,0,0,0,.37-.37.38.38,0,1,0,0-.75Zm-1.37,1.21a.86.86,0,0,0-.14-.13,1.9,1.9,0,0,1-.2-.22H50a.42.42,0,0,0,.25-.09Zm.46,0a2.62,2.62,0,0,0-.21.17v-.59a.42.42,0,0,0,.25.09l.14,0a.42.42,0,0,0,.07.13A1.14,1.14,0,0,1,50.71,30.06Zm11-2.25h0a.35.35,0,0,0,0-.13.38.38,0,0,0-.38-.38.32.32,0,0,0-.14,0,.37.37,0,0,0-.36-.28.4.4,0,0,0-.27.12.38.38,0,0,0-.73.13v0l-.13,0a.38.38,0,0,0-.38.38.36.36,0,0,0-.37.37.4.4,0,0,0,.17.32.35.35,0,0,0,0,.18.37.37,0,0,0,.68.22,1.27,1.27,0,0,0,.27.3c.15.14.3.27.3.48v.5h.25v-.37c0-.21.18-.34.37-.48a1.67,1.67,0,0,0,.31-.28h.07a.38.38,0,0,0,.38-.38.38.38,0,0,0,0-.75ZM60.31,29a1.59,1.59,0,0,0-.13-.13.77.77,0,0,1-.2-.21h.08a.37.37,0,0,0,.25-.1Zm.47,0-.22.17v-.59a.37.37,0,0,0,.25.1.32.32,0,0,0,.14,0,.33.33,0,0,0,.07.13A1.33,1.33,0,0,1,60.78,29ZM64,18V16.37a.36.36,0,0,0-.27.12.38.38,0,0,0-.73.13v0a.27.27,0,0,0-.12,0,.38.38,0,0,0-.38.38.38.38,0,0,0-.38.37.39.39,0,0,0,.18.32.37.37,0,0,0,.32.56.37.37,0,0,0,.31-.16,1.1,1.1,0,0,0,.27.3c.15.14.3.27.3.48v.5h.25V19a.52.52,0,0,1,.25-.39V18.3l0,0c-.06.05-.14.11-.21.18v-.6A.37.37,0,0,0,64,18Zm-.5.33a.81.81,0,0,0-.14-.12,1.9,1.9,0,0,1-.2-.22h.09a.37.37,0,0,0,.25-.1Zm-6-2.33h-3a.5.5,0,0,0,0,.12.37.37,0,0,0,.18.32.39.39,0,0,0-.06.18A.38.38,0,0,0,55,17a.35.35,0,0,0,.3-.16,1.29,1.29,0,0,0,.27.3c.16.14.31.27.31.48v.5h.24v-.37c0-.21.18-.34.37-.48A1.38,1.38,0,0,0,56.8,17h.08a.38.38,0,0,0,.37-.38.38.38,0,0,0,.28-.62Zm-1.65,1.08L55.74,17a1,1,0,0,1-.2-.22h.08a.4.4,0,0,0,.26-.1Zm.46,0-.22.18v-.6a.4.4,0,0,0,.26.1.28.28,0,0,0,.13,0,.61.61,0,0,0,.07.14A1,1,0,0,1,56.34,17.07Zm.91,14.8h0a.59.59,0,0,0,0-.13.38.38,0,0,0-.37-.38.29.29,0,0,0-.14,0,.38.38,0,0,0-.36-.28.4.4,0,0,0-.28.12.37.37,0,0,0-.72.13v0a.31.31,0,0,0-.13,0,.37.37,0,0,0-.37.38.37.37,0,0,0-.36.25h3A.37.37,0,0,0,57.25,31.87Z"/></g><g id="orchard_poly_random_dense_half-3" data-name="orchard_poly_random_dense_half"><rect id="bbox_64-3" data-name="bbox_64" class="cls-1" y="32" width="32" height="32"/><path id="orchard_random_dense-9" data-name="orchard_random_dense" class="cls-2" d="M4.94,35.06h0a.35.35,0,0,0,0-.13.38.38,0,0,0-.38-.38.32.32,0,0,0-.14,0,.37.37,0,0,0-.36-.28.4.4,0,0,0-.27.12.38.38,0,0,0-.73.13v0l-.13,0a.38.38,0,0,0-.38.38.36.36,0,0,0-.37.37.4.4,0,0,0,.17.32.35.35,0,0,0,0,.18A.37.37,0,0,0,3,36a1.27,1.27,0,0,0,.27.3c.15.14.3.27.3.48v.5h.25v-.37c0-.21.18-.34.37-.48a1.67,1.67,0,0,0,.31-.28h.07a.38.38,0,0,0,.38-.38.38.38,0,0,0,0-.75ZM3.56,36.27a1.59,1.59,0,0,0-.13-.13.77.77,0,0,1-.2-.21h.08a.37.37,0,0,0,.25-.1Zm.47,0-.22.17v-.59a.37.37,0,0,0,.25.1.32.32,0,0,0,.14,0,.33.33,0,0,0,.07.13A1.33,1.33,0,0,1,4,36.26Zm8.41.05h0a.35.35,0,0,0,0-.13.38.38,0,0,0-.38-.38.32.32,0,0,0-.14,0,.37.37,0,0,0-.36-.28.4.4,0,0,0-.27.12.38.38,0,0,0-.73.13v0l-.13,0a.38.38,0,0,0-.38.38.36.36,0,0,0-.37.37.4.4,0,0,0,.17.32.35.35,0,0,0,0,.18.37.37,0,0,0,.68.22,1.27,1.27,0,0,0,.27.3c.15.14.3.27.3.48v.5h.25v-.37c0-.21.18-.34.37-.48a1.67,1.67,0,0,0,.31-.28h.07a.38.38,0,0,0,.38-.38.38.38,0,0,0,0-.75Zm-1.38,1.21a1.59,1.59,0,0,0-.13-.13.77.77,0,0,1-.2-.21h.08a.37.37,0,0,0,.25-.1Zm.47,0-.22.17v-.59a.37.37,0,0,0,.25.1.32.32,0,0,0,.14,0,.33.33,0,0,0,.07.13A1.33,1.33,0,0,1,11.53,37.51Zm-4.34,3.8h0a.35.35,0,0,0,0-.13.38.38,0,0,0-.38-.38.32.32,0,0,0-.14,0,.37.37,0,0,0-.36-.28.4.4,0,0,0-.27.12.38.38,0,0,0-.73.13v0l-.13,0a.38.38,0,0,0-.38.38.36.36,0,0,0-.37.37.4.4,0,0,0,.17.32.35.35,0,0,0-.05.18.37.37,0,0,0,.68.22,1.27,1.27,0,0,0,.27.3c.15.14.3.27.3.48v.5h.25v-.37c0-.21.18-.34.37-.48a1.67,1.67,0,0,0,.31-.28h.07a.38.38,0,0,0,.38-.38.38.38,0,0,0,0-.75ZM5.81,42.52a1.59,1.59,0,0,0-.13-.13.77.77,0,0,1-.2-.21h.08a.37.37,0,0,0,.25-.1Zm.47,0-.22.17v-.59a.37.37,0,0,0,.25.1.32.32,0,0,0,.14,0,.33.33,0,0,0,.07.13A1.33,1.33,0,0,1,6.28,42.51ZM.88,33.12h0a.31.31,0,0,0,0-.13.38.38,0,0,0-.38-.38.32.32,0,0,0-.14,0A.38.38,0,0,0,0,32.37V34a.32.32,0,0,0,.14,0,.37.37,0,0,0,.07.14A1.37,1.37,0,0,1,0,34.3v.31l.12-.09a1.15,1.15,0,0,0,.3-.28H.5a.38.38,0,0,0,.38-.38.37.37,0,0,0,.37-.37A.38.38,0,0,0,.88,33.12Zm14.74,6.47h0a.32.32,0,0,0,0-.13.37.37,0,0,0-.37-.38.32.32,0,0,0-.14,0,.38.38,0,0,0-.36-.28.36.36,0,0,0-.27.12.38.38,0,0,0-.36-.24.37.37,0,0,0-.37.37v0l-.13,0a.38.38,0,0,0-.37.38.36.36,0,0,0-.37.37.4.4,0,0,0,.17.32.35.35,0,0,0-.05.18.38.38,0,0,0,.38.38.39.39,0,0,0,.3-.16,1.1,1.1,0,0,0,.27.3c.15.14.3.27.3.48v.5h.25v-.37c0-.21.18-.34.37-.48a1.35,1.35,0,0,0,.3-.28h.08a.37.37,0,0,0,.37-.38A.37.37,0,0,0,16,40,.38.38,0,0,0,15.62,39.59ZM14.25,40.8a.86.86,0,0,0-.14-.13,1.29,1.29,0,0,1-.2-.21H14a.37.37,0,0,0,.25-.1Zm.46,0L14.5,41v-.59a.37.37,0,0,0,.25.1.32.32,0,0,0,.14,0,.27.27,0,0,0,.07.13A1.14,1.14,0,0,1,14.71,40.79ZM3.62,44.86h0a.27.27,0,0,0,0-.13.37.37,0,0,0-.37-.37l-.14,0a.38.38,0,0,0-.36-.27.33.33,0,0,0-.27.12A.39.39,0,0,0,2.12,44a.38.38,0,0,0-.37.38v0l-.13,0a.38.38,0,0,0-.37.37.37.37,0,0,0-.37.38.4.4,0,0,0,.17.32.35.35,0,0,0-.05.18.37.37,0,0,0,.38.37.37.37,0,0,0,.3-.16,1,1,0,0,0,.27.3.7.7,0,0,1,.3.49v.5H2.5v-.38c0-.2.18-.33.37-.47a1.38,1.38,0,0,0,.3-.29h.08a.36.36,0,0,0,.37-.37.38.38,0,1,0,0-.75ZM2.25,46.07a.86.86,0,0,0-.14-.13,1.9,1.9,0,0,1-.2-.22H2a.42.42,0,0,0,.25-.09Zm.46,0a2.62,2.62,0,0,0-.21.17v-.59a.42.42,0,0,0,.25.09l.14,0a.42.42,0,0,0,.07.13A1.14,1.14,0,0,1,2.71,46.06Zm11-2.25h0a.35.35,0,0,0,0-.13.38.38,0,0,0-.38-.38.32.32,0,0,0-.14,0,.37.37,0,0,0-.36-.28.4.4,0,0,0-.27.12.38.38,0,0,0-.73.13v0l-.13,0a.38.38,0,0,0-.38.38.36.36,0,0,0-.37.37.4.4,0,0,0,.17.32.35.35,0,0,0,0,.18.37.37,0,0,0,.68.22,1.27,1.27,0,0,0,.27.3c.15.14.3.27.3.48v.5h.25v-.37c0-.21.18-.34.37-.48a1.67,1.67,0,0,0,.31-.28h.07a.38.38,0,0,0,.38-.38.38.38,0,0,0,0-.75ZM12.31,45a1.59,1.59,0,0,0-.13-.13.77.77,0,0,1-.2-.21h.08a.37.37,0,0,0,.25-.1Zm.47,0-.22.17v-.59a.37.37,0,0,0,.25.1.32.32,0,0,0,.14,0,.33.33,0,0,0,.07.13A1.33,1.33,0,0,1,12.78,45ZM16,34V32.37a.36.36,0,0,0-.27.12.38.38,0,0,0-.73.13v0l-.12,0a.38.38,0,0,0-.38.38.38.38,0,0,0-.38.37.39.39,0,0,0,.18.32.37.37,0,0,0,.32.56.37.37,0,0,0,.31-.16,1.1,1.1,0,0,0,.27.3c.15.14.3.27.3.48v.5h.25V35a.52.52,0,0,1,.25-.39V34.3l0,0-.21.18v-.6A.37.37,0,0,0,16,34Zm-.5.33a.81.81,0,0,0-.14-.12,1.9,1.9,0,0,1-.2-.22h.09a.37.37,0,0,0,.25-.1ZM9.53,32h-3a.5.5,0,0,0,0,.12.37.37,0,0,0,.18.32.39.39,0,0,0-.06.18A.38.38,0,0,0,7,33a.35.35,0,0,0,.3-.16,1.29,1.29,0,0,0,.27.3c.16.14.31.27.31.48v.5h.24v-.37c0-.21.18-.34.37-.48A1.38,1.38,0,0,0,8.8,33h.08a.38.38,0,0,0,.37-.38A.38.38,0,0,0,9.53,32ZM7.88,33.08,7.74,33a1,1,0,0,1-.2-.22h.08a.4.4,0,0,0,.26-.1Zm.46,0-.22.18v-.6a.4.4,0,0,0,.26.1.28.28,0,0,0,.13,0,.61.61,0,0,0,.07.14A1,1,0,0,1,8.34,33.07Zm.91,14.8h0a.59.59,0,0,0,0-.13.38.38,0,0,0-.37-.38.29.29,0,0,0-.14,0,.38.38,0,0,0-.36-.28.4.4,0,0,0-.28.12.37.37,0,0,0-.72.13v0a.31.31,0,0,0-.13,0,.37.37,0,0,0-.37.38.37.37,0,0,0-.36.25h3A.37.37,0,0,0,9.25,47.87Z"/><path id="orchard_random_dense-10" data-name="orchard_random_dense" class="cls-2" d="M4.94,51.06h0a.35.35,0,0,0,0-.13.38.38,0,0,0-.38-.38.32.32,0,0,0-.14,0,.37.37,0,0,0-.36-.28.4.4,0,0,0-.27.12.38.38,0,0,0-.73.13v0l-.13,0a.38.38,0,0,0-.38.38.36.36,0,0,0-.37.37.4.4,0,0,0,.17.32.35.35,0,0,0,0,.18A.37.37,0,0,0,3,52a1.27,1.27,0,0,0,.27.3c.15.14.3.27.3.48v.5h.25v-.37c0-.21.18-.34.37-.48a1.67,1.67,0,0,0,.31-.28h.07a.38.38,0,0,0,.38-.38.38.38,0,0,0,0-.75ZM3.56,52.27a1.59,1.59,0,0,0-.13-.13.77.77,0,0,1-.2-.21h.08a.37.37,0,0,0,.25-.1Zm.47,0-.22.17v-.59a.37.37,0,0,0,.25.1.32.32,0,0,0,.14,0,.33.33,0,0,0,.07.13A1.33,1.33,0,0,1,4,52.26Zm8.41.05h0a.35.35,0,0,0,0-.13.38.38,0,0,0-.38-.38.32.32,0,0,0-.14,0,.37.37,0,0,0-.36-.28.4.4,0,0,0-.27.12.38.38,0,0,0-.73.13v0l-.13,0a.38.38,0,0,0-.38.38.36.36,0,0,0-.37.37.4.4,0,0,0,.17.32.35.35,0,0,0,0,.18.37.37,0,0,0,.68.22,1.27,1.27,0,0,0,.27.3c.15.14.3.27.3.48v.5h.25v-.37c0-.21.18-.34.37-.48a1.67,1.67,0,0,0,.31-.28h.07a.38.38,0,0,0,.38-.38.38.38,0,0,0,0-.75Zm-1.38,1.21a1.59,1.59,0,0,0-.13-.13.77.77,0,0,1-.2-.21h.08a.37.37,0,0,0,.25-.1Zm.47,0-.22.17v-.59a.37.37,0,0,0,.25.1.32.32,0,0,0,.14,0,.33.33,0,0,0,.07.13A1.33,1.33,0,0,1,11.53,53.51Zm-4.34,3.8h0a.35.35,0,0,0,0-.13.38.38,0,0,0-.38-.38.32.32,0,0,0-.14,0,.37.37,0,0,0-.36-.28.4.4,0,0,0-.27.12.38.38,0,0,0-.73.13v0l-.13,0a.38.38,0,0,0-.38.38.36.36,0,0,0-.37.37.4.4,0,0,0,.17.32.35.35,0,0,0-.05.18.37.37,0,0,0,.68.22,1.27,1.27,0,0,0,.27.3c.15.14.3.27.3.48v.5h.25v-.37c0-.21.18-.34.37-.48a1.67,1.67,0,0,0,.31-.28h.07a.38.38,0,0,0,.38-.38.38.38,0,0,0,0-.75ZM5.81,58.52a1.59,1.59,0,0,0-.13-.13.77.77,0,0,1-.2-.21h.08a.37.37,0,0,0,.25-.1Zm.47,0-.22.17v-.59a.37.37,0,0,0,.25.1.32.32,0,0,0,.14,0,.33.33,0,0,0,.07.13A1.33,1.33,0,0,1,6.28,58.51ZM.88,49.12h0a.31.31,0,0,0,0-.13.38.38,0,0,0-.38-.38.32.32,0,0,0-.14,0A.38.38,0,0,0,0,48.37V50a.32.32,0,0,0,.14,0,.37.37,0,0,0,.07.14A1.37,1.37,0,0,1,0,50.3v.31l.12-.09a1.15,1.15,0,0,0,.3-.28H.5a.38.38,0,0,0,.38-.38.37.37,0,0,0,.37-.37A.38.38,0,0,0,.88,49.12Zm14.74,6.47h0a.32.32,0,0,0,0-.13.37.37,0,0,0-.37-.38.32.32,0,0,0-.14,0,.38.38,0,0,0-.36-.28.36.36,0,0,0-.27.12.38.38,0,0,0-.36-.24.37.37,0,0,0-.37.37v0l-.13,0a.38.38,0,0,0-.37.38.36.36,0,0,0-.37.37.4.4,0,0,0,.17.32.35.35,0,0,0-.05.18.38.38,0,0,0,.38.38.39.39,0,0,0,.3-.16,1.1,1.1,0,0,0,.27.3c.15.14.3.27.3.48v.5h.25v-.37c0-.21.18-.34.37-.48a1.35,1.35,0,0,0,.3-.28h.08a.37.37,0,0,0,.37-.38A.37.37,0,0,0,16,56,.38.38,0,0,0,15.62,55.59ZM14.25,56.8a.86.86,0,0,0-.14-.13,1.29,1.29,0,0,1-.2-.21H14a.37.37,0,0,0,.25-.1Zm.46,0L14.5,57v-.59a.37.37,0,0,0,.25.1.32.32,0,0,0,.14,0,.27.27,0,0,0,.07.13A1.14,1.14,0,0,1,14.71,56.79ZM3.62,60.86h0a.27.27,0,0,0,0-.13.37.37,0,0,0-.37-.37l-.14,0a.38.38,0,0,0-.36-.27.33.33,0,0,0-.27.12A.39.39,0,0,0,2.12,60a.38.38,0,0,0-.37.38v0l-.13,0a.38.38,0,0,0-.37.37.37.37,0,0,0-.37.38.4.4,0,0,0,.17.32.35.35,0,0,0-.05.18.37.37,0,0,0,.38.37.37.37,0,0,0,.3-.16,1,1,0,0,0,.27.3.7.7,0,0,1,.3.49v.5H2.5v-.38c0-.2.18-.33.37-.47a1.38,1.38,0,0,0,.3-.29h.08a.36.36,0,0,0,.37-.37.38.38,0,1,0,0-.75ZM2.25,62.07a.86.86,0,0,0-.14-.13,1.9,1.9,0,0,1-.2-.22H2a.42.42,0,0,0,.25-.09Zm.46,0a2.62,2.62,0,0,0-.21.17v-.59a.42.42,0,0,0,.25.09l.14,0a.42.42,0,0,0,.07.13A1.14,1.14,0,0,1,2.71,62.06Zm11-2.25h0a.35.35,0,0,0,0-.13.38.38,0,0,0-.38-.38.32.32,0,0,0-.14,0,.37.37,0,0,0-.36-.28.4.4,0,0,0-.27.12.38.38,0,0,0-.73.13v0l-.13,0a.38.38,0,0,0-.38.38.36.36,0,0,0-.37.37.4.4,0,0,0,.17.32.35.35,0,0,0,0,.18.37.37,0,0,0,.68.22,1.27,1.27,0,0,0,.27.3c.15.14.3.27.3.48v.5h.25v-.37c0-.21.18-.34.37-.48a1.67,1.67,0,0,0,.31-.28h.07a.38.38,0,0,0,.38-.38.38.38,0,0,0,0-.75ZM12.31,61a1.59,1.59,0,0,0-.13-.13.77.77,0,0,1-.2-.21h.08a.37.37,0,0,0,.25-.1Zm.47,0-.22.17v-.59a.37.37,0,0,0,.25.1.32.32,0,0,0,.14,0,.33.33,0,0,0,.07.13A1.33,1.33,0,0,1,12.78,61ZM16,50V48.37a.36.36,0,0,0-.27.12.38.38,0,0,0-.73.13v0l-.12,0a.38.38,0,0,0-.38.38.38.38,0,0,0-.38.37.39.39,0,0,0,.18.32.37.37,0,0,0,.32.56.37.37,0,0,0,.31-.16,1.1,1.1,0,0,0,.27.3c.15.14.3.27.3.48v.5h.25V51a.52.52,0,0,1,.25-.39V50.3l0,0-.21.18v-.6A.37.37,0,0,0,16,50Zm-.5.33a.81.81,0,0,0-.14-.12,1.9,1.9,0,0,1-.2-.22h.09a.37.37,0,0,0,.25-.1ZM9.53,48h-3a.5.5,0,0,0,0,.12.37.37,0,0,0,.18.32.39.39,0,0,0-.06.18A.38.38,0,0,0,7,49a.35.35,0,0,0,.3-.16,1.29,1.29,0,0,0,.27.3c.16.14.31.27.31.48v.5h.24v-.37c0-.21.18-.34.37-.48A1.38,1.38,0,0,0,8.8,49h.08a.38.38,0,0,0,.37-.38A.38.38,0,0,0,9.53,48ZM7.88,49.08,7.74,49a1,1,0,0,1-.2-.22h.08a.4.4,0,0,0,.26-.1Zm.46,0-.22.18v-.6a.4.4,0,0,0,.26.1.28.28,0,0,0,.13,0,.61.61,0,0,0,.07.14A1,1,0,0,1,8.34,49.07Zm.91,14.8h0a.59.59,0,0,0,0-.13.38.38,0,0,0-.37-.38.29.29,0,0,0-.14,0,.38.38,0,0,0-.36-.28.4.4,0,0,0-.28.12.37.37,0,0,0-.72.13v0a.31.31,0,0,0-.13,0,.37.37,0,0,0-.37.38.37.37,0,0,0-.36.25h3A.37.37,0,0,0,9.25,63.87Z"/><path id="orchard_random_dense-11" data-name="orchard_random_dense" class="cls-2" d="M20.94,35.06h0a.35.35,0,0,0,0-.13.38.38,0,0,0-.38-.38.32.32,0,0,0-.14,0,.37.37,0,0,0-.36-.28.4.4,0,0,0-.27.12.38.38,0,0,0-.73.13v0l-.13,0a.38.38,0,0,0-.38.38.36.36,0,0,0-.37.37.4.4,0,0,0,.17.32.35.35,0,0,0-.05.18A.37.37,0,0,0,19,36a1.27,1.27,0,0,0,.27.3c.15.14.3.27.3.48v.5h.25v-.37c0-.21.18-.34.37-.48a1.67,1.67,0,0,0,.31-.28h.07a.38.38,0,0,0,.38-.38.38.38,0,0,0,0-.75Zm-1.38,1.21a1.59,1.59,0,0,0-.13-.13.77.77,0,0,1-.2-.21h.08a.37.37,0,0,0,.25-.1Zm.47,0-.22.17v-.59a.37.37,0,0,0,.25.1.32.32,0,0,0,.14,0,.33.33,0,0,0,.07.13A1.33,1.33,0,0,1,20,36.26Zm8.41.05h0a.35.35,0,0,0,0-.13.38.38,0,0,0-.38-.38.32.32,0,0,0-.14,0,.37.37,0,0,0-.36-.28.4.4,0,0,0-.27.12.38.38,0,0,0-.73.13v0l-.13,0a.38.38,0,0,0-.38.38.36.36,0,0,0-.37.37.4.4,0,0,0,.17.32.35.35,0,0,0-.05.18.37.37,0,0,0,.68.22,1.27,1.27,0,0,0,.27.3c.15.14.3.27.3.48v.5h.25v-.37c0-.21.18-.34.37-.48a1.67,1.67,0,0,0,.31-.28h.07a.38.38,0,0,0,.38-.38.38.38,0,0,0,0-.75Zm-1.38,1.21a1.59,1.59,0,0,0-.13-.13.77.77,0,0,1-.2-.21h.08a.37.37,0,0,0,.25-.1Zm.47,0-.22.17v-.59a.37.37,0,0,0,.25.1.32.32,0,0,0,.14,0,.33.33,0,0,0,.07.13A1.33,1.33,0,0,1,27.53,37.51Zm-4.34,3.8h0a.35.35,0,0,0,0-.13.38.38,0,0,0-.38-.38.32.32,0,0,0-.14,0,.37.37,0,0,0-.36-.28.4.4,0,0,0-.27.12.38.38,0,0,0-.73.13v0l-.13,0a.38.38,0,0,0-.38.38.36.36,0,0,0-.37.37.4.4,0,0,0,.17.32.35.35,0,0,0-.05.18.37.37,0,0,0,.68.22,1.27,1.27,0,0,0,.27.3c.15.14.3.27.3.48v.5h.25v-.37c0-.21.18-.34.37-.48a1.67,1.67,0,0,0,.31-.28h.07a.38.38,0,0,0,.38-.38.38.38,0,0,0,0-.75Zm-1.38,1.21a1.59,1.59,0,0,0-.13-.13.77.77,0,0,1-.2-.21h.08a.37.37,0,0,0,.25-.1Zm.47,0-.22.17v-.59a.37.37,0,0,0,.25.1.32.32,0,0,0,.14,0,.33.33,0,0,0,.07.13A1.33,1.33,0,0,1,22.28,42.51Zm-5.4-9.39h0a.31.31,0,0,0,0-.13.38.38,0,0,0-.38-.38.32.32,0,0,0-.14,0,.38.38,0,0,0-.36-.28V34a.32.32,0,0,0,.14,0,.37.37,0,0,0,.07.14,1.37,1.37,0,0,1-.21.19v.31l.12-.09a1.15,1.15,0,0,0,.3-.28h.08a.38.38,0,0,0,.38-.38.37.37,0,0,0,.37-.37A.38.38,0,0,0,16.88,33.12Zm14.74,6.47h0a.32.32,0,0,0,0-.13.37.37,0,0,0-.37-.38.32.32,0,0,0-.14,0,.38.38,0,0,0-.36-.28.36.36,0,0,0-.27.12.38.38,0,0,0-.36-.24.37.37,0,0,0-.37.37v0l-.13,0a.38.38,0,0,0-.37.38.36.36,0,0,0-.37.37.4.4,0,0,0,.17.32.35.35,0,0,0-.05.18.38.38,0,0,0,.38.38.39.39,0,0,0,.3-.16,1.1,1.1,0,0,0,.27.3c.15.14.3.27.3.48v.5h.25v-.37c0-.21.18-.34.37-.48a1.35,1.35,0,0,0,.3-.28h.08a.37.37,0,0,0,.37-.38A.37.37,0,0,0,32,40,.38.38,0,0,0,31.62,39.59ZM30.25,40.8a.86.86,0,0,0-.14-.13,1.29,1.29,0,0,1-.2-.21H30a.37.37,0,0,0,.25-.1Zm.46,0L30.5,41v-.59a.37.37,0,0,0,.25.1.32.32,0,0,0,.14,0,.27.27,0,0,0,.07.13A1.14,1.14,0,0,1,30.71,40.79ZM19.62,44.86h0a.27.27,0,0,0,0-.13.37.37,0,0,0-.37-.37l-.14,0a.38.38,0,0,0-.36-.27.33.33,0,0,0-.27.12.39.39,0,0,0-.36-.25.38.38,0,0,0-.37.38v0l-.13,0a.38.38,0,0,0-.37.37.37.37,0,0,0-.37.38.4.4,0,0,0,.17.32.35.35,0,0,0-.05.18.37.37,0,0,0,.38.37.37.37,0,0,0,.3-.16,1,1,0,0,0,.27.3.7.7,0,0,1,.3.49v.5h.25v-.38c0-.2.18-.33.37-.47a1.38,1.38,0,0,0,.3-.29h.08a.36.36,0,0,0,.37-.37.38.38,0,1,0,0-.75Zm-1.37,1.21a.86.86,0,0,0-.14-.13,1.9,1.9,0,0,1-.2-.22H18a.42.42,0,0,0,.25-.09Zm.46,0a2.62,2.62,0,0,0-.21.17v-.59a.42.42,0,0,0,.25.09l.14,0a.42.42,0,0,0,.07.13A1.14,1.14,0,0,1,18.71,46.06Zm11-2.25h0a.35.35,0,0,0,0-.13.38.38,0,0,0-.38-.38.32.32,0,0,0-.14,0,.37.37,0,0,0-.36-.28.4.4,0,0,0-.27.12.38.38,0,0,0-.73.13v0l-.13,0a.38.38,0,0,0-.38.38.36.36,0,0,0-.37.37.4.4,0,0,0,.17.32.35.35,0,0,0-.05.18.37.37,0,0,0,.68.22,1.27,1.27,0,0,0,.27.3c.15.14.3.27.3.48v.5h.25v-.37c0-.21.18-.34.37-.48a1.67,1.67,0,0,0,.31-.28h.07a.38.38,0,0,0,.38-.38.38.38,0,0,0,0-.75ZM28.31,45a1.59,1.59,0,0,0-.13-.13.77.77,0,0,1-.2-.21h.08a.37.37,0,0,0,.25-.1Zm.47,0-.22.17v-.59a.37.37,0,0,0,.25.1.32.32,0,0,0,.14,0,.33.33,0,0,0,.07.13A1.33,1.33,0,0,1,28.78,45ZM32,34V32.37a.36.36,0,0,0-.27.12.38.38,0,0,0-.73.13v0l-.12,0a.38.38,0,0,0-.38.38.38.38,0,0,0-.38.37.39.39,0,0,0,.18.32.37.37,0,0,0,.32.56.37.37,0,0,0,.31-.16,1.1,1.1,0,0,0,.27.3c.15.14.3.27.3.48v.5h.25V35a.52.52,0,0,1,.25-.39V34.3l0,0-.21.18v-.6A.37.37,0,0,0,32,34Zm-.5.33a.81.81,0,0,0-.14-.12,1.9,1.9,0,0,1-.2-.22h.09a.37.37,0,0,0,.25-.1Zm-6-2.33h-3a.5.5,0,0,0,0,.12.37.37,0,0,0,.18.32.39.39,0,0,0-.06.18A.38.38,0,0,0,23,33a.35.35,0,0,0,.3-.16,1.29,1.29,0,0,0,.27.3c.16.14.31.27.31.48v.5h.24v-.37c0-.21.18-.34.37-.48A1.38,1.38,0,0,0,24.8,33h.08a.38.38,0,0,0,.37-.38.38.38,0,0,0,.28-.62Zm-1.65,1.08L23.74,33a1,1,0,0,1-.2-.22h.08a.4.4,0,0,0,.26-.1Zm.46,0-.22.18v-.6a.4.4,0,0,0,.26.1.28.28,0,0,0,.13,0,.61.61,0,0,0,.07.14A1,1,0,0,1,24.34,33.07Zm.91,14.8h0a.59.59,0,0,0,0-.13.38.38,0,0,0-.37-.38.29.29,0,0,0-.14,0,.38.38,0,0,0-.36-.28.4.4,0,0,0-.28.12.37.37,0,0,0-.72.13v0a.31.31,0,0,0-.13,0,.37.37,0,0,0-.37.38.37.37,0,0,0-.36.25h3A.37.37,0,0,0,25.25,47.87Z"/><path id="orchard_random_dense-12" data-name="orchard_random_dense" class="cls-2" d="M20.94,51.06h0a.35.35,0,0,0,0-.13.38.38,0,0,0-.38-.38.32.32,0,0,0-.14,0,.37.37,0,0,0-.36-.28.4.4,0,0,0-.27.12.38.38,0,0,0-.73.13v0l-.13,0a.38.38,0,0,0-.38.38.36.36,0,0,0-.37.37.4.4,0,0,0,.17.32.35.35,0,0,0-.05.18A.37.37,0,0,0,19,52a1.27,1.27,0,0,0,.27.3c.15.14.3.27.3.48v.5h.25v-.37c0-.21.18-.34.37-.48a1.67,1.67,0,0,0,.31-.28h.07a.38.38,0,0,0,.38-.38.38.38,0,0,0,0-.75Zm-1.38,1.21a1.59,1.59,0,0,0-.13-.13.77.77,0,0,1-.2-.21h.08a.37.37,0,0,0,.25-.1Zm.47,0-.22.17v-.59a.37.37,0,0,0,.25.1.32.32,0,0,0,.14,0,.33.33,0,0,0,.07.13A1.33,1.33,0,0,1,20,52.26Zm8.41.05h0a.35.35,0,0,0,0-.13.38.38,0,0,0-.38-.38.32.32,0,0,0-.14,0,.37.37,0,0,0-.36-.28.4.4,0,0,0-.27.12.38.38,0,0,0-.73.13v0l-.13,0a.38.38,0,0,0-.38.38.36.36,0,0,0-.37.37.4.4,0,0,0,.17.32.35.35,0,0,0-.05.18.37.37,0,0,0,.68.22,1.27,1.27,0,0,0,.27.3c.15.14.3.27.3.48v.5h.25v-.37c0-.21.18-.34.37-.48a1.67,1.67,0,0,0,.31-.28h.07a.38.38,0,0,0,.38-.38.38.38,0,0,0,0-.75Zm-1.38,1.21a1.59,1.59,0,0,0-.13-.13.77.77,0,0,1-.2-.21h.08a.37.37,0,0,0,.25-.1Zm.47,0-.22.17v-.59a.37.37,0,0,0,.25.1.32.32,0,0,0,.14,0,.33.33,0,0,0,.07.13A1.33,1.33,0,0,1,27.53,53.51Zm-4.34,3.8h0a.35.35,0,0,0,0-.13.38.38,0,0,0-.38-.38.32.32,0,0,0-.14,0,.37.37,0,0,0-.36-.28.4.4,0,0,0-.27.12.38.38,0,0,0-.73.13v0l-.13,0a.38.38,0,0,0-.38.38.36.36,0,0,0-.37.37.4.4,0,0,0,.17.32.35.35,0,0,0-.05.18.37.37,0,0,0,.68.22,1.27,1.27,0,0,0,.27.3c.15.14.3.27.3.48v.5h.25v-.37c0-.21.18-.34.37-.48a1.67,1.67,0,0,0,.31-.28h.07a.38.38,0,0,0,.38-.38.38.38,0,0,0,0-.75Zm-1.38,1.21a1.59,1.59,0,0,0-.13-.13.77.77,0,0,1-.2-.21h.08a.37.37,0,0,0,.25-.1Zm.47,0-.22.17v-.59a.37.37,0,0,0,.25.1.32.32,0,0,0,.14,0,.33.33,0,0,0,.07.13A1.33,1.33,0,0,1,22.28,58.51Zm-5.4-9.39h0a.31.31,0,0,0,0-.13.38.38,0,0,0-.38-.38.32.32,0,0,0-.14,0,.38.38,0,0,0-.36-.28V50a.32.32,0,0,0,.14,0,.37.37,0,0,0,.07.14,1.37,1.37,0,0,1-.21.19v.31l.12-.09a1.15,1.15,0,0,0,.3-.28h.08a.38.38,0,0,0,.38-.38.37.37,0,0,0,.37-.37A.38.38,0,0,0,16.88,49.12Zm14.74,6.47h0a.32.32,0,0,0,0-.13.37.37,0,0,0-.37-.38.32.32,0,0,0-.14,0,.38.38,0,0,0-.36-.28.36.36,0,0,0-.27.12.38.38,0,0,0-.36-.24.37.37,0,0,0-.37.37v0l-.13,0a.38.38,0,0,0-.37.38.36.36,0,0,0-.37.37.4.4,0,0,0,.17.32.35.35,0,0,0-.05.18.38.38,0,0,0,.38.38.39.39,0,0,0,.3-.16,1.1,1.1,0,0,0,.27.3c.15.14.3.27.3.48v.5h.25v-.37c0-.21.18-.34.37-.48a1.35,1.35,0,0,0,.3-.28h.08a.37.37,0,0,0,.37-.38A.37.37,0,0,0,32,56,.38.38,0,0,0,31.62,55.59ZM30.25,56.8a.86.86,0,0,0-.14-.13,1.29,1.29,0,0,1-.2-.21H30a.37.37,0,0,0,.25-.1Zm.46,0L30.5,57v-.59a.37.37,0,0,0,.25.1.32.32,0,0,0,.14,0,.27.27,0,0,0,.07.13A1.14,1.14,0,0,1,30.71,56.79ZM19.62,60.86h0a.27.27,0,0,0,0-.13.37.37,0,0,0-.37-.37l-.14,0a.38.38,0,0,0-.36-.27.33.33,0,0,0-.27.12.39.39,0,0,0-.36-.25.38.38,0,0,0-.37.38v0l-.13,0a.38.38,0,0,0-.37.37.37.37,0,0,0-.37.38.4.4,0,0,0,.17.32.35.35,0,0,0-.05.18.37.37,0,0,0,.38.37.37.37,0,0,0,.3-.16,1,1,0,0,0,.27.3.7.7,0,0,1,.3.49v.5h.25v-.38c0-.2.18-.33.37-.47a1.38,1.38,0,0,0,.3-.29h.08a.36.36,0,0,0,.37-.37.38.38,0,1,0,0-.75Zm-1.37,1.21a.86.86,0,0,0-.14-.13,1.9,1.9,0,0,1-.2-.22H18a.42.42,0,0,0,.25-.09Zm.46,0a2.62,2.62,0,0,0-.21.17v-.59a.42.42,0,0,0,.25.09l.14,0a.42.42,0,0,0,.07.13A1.14,1.14,0,0,1,18.71,62.06Zm11-2.25h0a.35.35,0,0,0,0-.13.38.38,0,0,0-.38-.38.32.32,0,0,0-.14,0,.37.37,0,0,0-.36-.28.4.4,0,0,0-.27.12.38.38,0,0,0-.73.13v0l-.13,0a.38.38,0,0,0-.38.38.36.36,0,0,0-.37.37.4.4,0,0,0,.17.32.35.35,0,0,0-.05.18.37.37,0,0,0,.68.22,1.27,1.27,0,0,0,.27.3c.15.14.3.27.3.48v.5h.25v-.37c0-.21.18-.34.37-.48a1.67,1.67,0,0,0,.31-.28h.07a.38.38,0,0,0,.38-.38.38.38,0,0,0,0-.75ZM28.31,61a1.59,1.59,0,0,0-.13-.13.77.77,0,0,1-.2-.21h.08a.37.37,0,0,0,.25-.1Zm.47,0-.22.17v-.59a.37.37,0,0,0,.25.1.32.32,0,0,0,.14,0,.33.33,0,0,0,.07.13A1.33,1.33,0,0,1,28.78,61ZM32,50V48.37a.36.36,0,0,0-.27.12.38.38,0,0,0-.73.13v0l-.12,0a.38.38,0,0,0-.38.38.38.38,0,0,0-.38.37.39.39,0,0,0,.18.32.37.37,0,0,0,.32.56.37.37,0,0,0,.31-.16,1.1,1.1,0,0,0,.27.3c.15.14.3.27.3.48v.5h.25V51a.52.52,0,0,1,.25-.39V50.3l0,0-.21.18v-.6A.37.37,0,0,0,32,50Zm-.5.33a.81.81,0,0,0-.14-.12,1.9,1.9,0,0,1-.2-.22h.09a.37.37,0,0,0,.25-.1Zm-6-2.33h-3a.5.5,0,0,0,0,.12.37.37,0,0,0,.18.32.39.39,0,0,0-.06.18A.38.38,0,0,0,23,49a.35.35,0,0,0,.3-.16,1.29,1.29,0,0,0,.27.3c.16.14.31.27.31.48v.5h.24v-.37c0-.21.18-.34.37-.48A1.38,1.38,0,0,0,24.8,49h.08a.38.38,0,0,0,.37-.38.38.38,0,0,0,.28-.62Zm-1.65,1.08L23.74,49a1,1,0,0,1-.2-.22h.08a.4.4,0,0,0,.26-.1Zm.46,0-.22.18v-.6a.4.4,0,0,0,.26.1.28.28,0,0,0,.13,0,.61.61,0,0,0,.07.14A1,1,0,0,1,24.34,49.07Zm.91,14.8h0a.59.59,0,0,0,0-.13.38.38,0,0,0-.37-.38.29.29,0,0,0-.14,0,.38.38,0,0,0-.36-.28.4.4,0,0,0-.28.12.37.37,0,0,0-.72.13v0a.31.31,0,0,0-.13,0,.37.37,0,0,0-.37.38.37.37,0,0,0-.36.25h3A.37.37,0,0,0,25.25,63.87Z"/></g><g id="orchard_poly_random_dense_half-4" data-name="orchard_poly_random_dense_half"><rect id="bbox_64-4" data-name="bbox_64" class="cls-1" x="32" y="32" width="32" height="32"/><path id="orchard_random_dense-13" data-name="orchard_random_dense" class="cls-2" d="M36.94,35.06h0a.35.35,0,0,0,0-.13.38.38,0,0,0-.38-.38.32.32,0,0,0-.14,0,.37.37,0,0,0-.36-.28.4.4,0,0,0-.27.12.38.38,0,0,0-.73.13v0l-.13,0a.38.38,0,0,0-.38.38.36.36,0,0,0-.37.37.4.4,0,0,0,.17.32.35.35,0,0,0,0,.18A.37.37,0,0,0,35,36a1.27,1.27,0,0,0,.27.3c.15.14.3.27.3.48v.5h.25v-.37c0-.21.18-.34.37-.48a1.67,1.67,0,0,0,.31-.28h.07a.38.38,0,0,0,.38-.38.38.38,0,0,0,0-.75Zm-1.38,1.21a1.59,1.59,0,0,0-.13-.13.77.77,0,0,1-.2-.21h.08a.37.37,0,0,0,.25-.1Zm.47,0-.22.17v-.59a.37.37,0,0,0,.25.1.32.32,0,0,0,.14,0,.33.33,0,0,0,.07.13A1.33,1.33,0,0,1,36,36.26Zm8.41.05h0a.35.35,0,0,0,0-.13.38.38,0,0,0-.38-.38.32.32,0,0,0-.14,0,.37.37,0,0,0-.36-.28.4.4,0,0,0-.27.12.38.38,0,0,0-.73.13v0l-.13,0a.38.38,0,0,0-.38.38.36.36,0,0,0-.37.37.4.4,0,0,0,.17.32.35.35,0,0,0,0,.18.37.37,0,0,0,.68.22,1.27,1.27,0,0,0,.27.3c.15.14.3.27.3.48v.5h.25v-.37c0-.21.18-.34.37-.48a1.67,1.67,0,0,0,.31-.28h.07a.38.38,0,0,0,.38-.38.38.38,0,0,0,0-.75Zm-1.38,1.21a1.59,1.59,0,0,0-.13-.13.77.77,0,0,1-.2-.21h.08a.37.37,0,0,0,.25-.1Zm.47,0-.22.17v-.59a.37.37,0,0,0,.25.1.32.32,0,0,0,.14,0,.33.33,0,0,0,.07.13A1.33,1.33,0,0,1,43.53,37.51Zm-4.34,3.8h0a.35.35,0,0,0,0-.13.38.38,0,0,0-.38-.38.32.32,0,0,0-.14,0,.37.37,0,0,0-.36-.28.4.4,0,0,0-.27.12.38.38,0,0,0-.73.13v0l-.13,0a.38.38,0,0,0-.38.38.36.36,0,0,0-.37.37.4.4,0,0,0,.17.32.35.35,0,0,0,0,.18.37.37,0,0,0,.68.22,1.27,1.27,0,0,0,.27.3c.15.14.3.27.3.48v.5h.25v-.37c0-.21.18-.34.37-.48a1.67,1.67,0,0,0,.31-.28h.07a.38.38,0,0,0,.38-.38.38.38,0,0,0,0-.75Zm-1.38,1.21a1.59,1.59,0,0,0-.13-.13.77.77,0,0,1-.2-.21h.08a.37.37,0,0,0,.25-.1Zm.47,0-.22.17v-.59a.37.37,0,0,0,.25.1.32.32,0,0,0,.14,0,.33.33,0,0,0,.07.13A1.33,1.33,0,0,1,38.28,42.51Zm-5.4-9.39h0a.31.31,0,0,0,0-.13.38.38,0,0,0-.38-.38.32.32,0,0,0-.14,0,.38.38,0,0,0-.36-.28V34a.32.32,0,0,0,.14,0,.37.37,0,0,0,.07.14,1.37,1.37,0,0,1-.21.19v.31l.12-.09a1.15,1.15,0,0,0,.3-.28h.08a.38.38,0,0,0,.38-.38.37.37,0,0,0,.37-.37A.38.38,0,0,0,32.88,33.12Zm14.74,6.47h0a.32.32,0,0,0,0-.13.37.37,0,0,0-.37-.38.32.32,0,0,0-.14,0,.38.38,0,0,0-.36-.28.36.36,0,0,0-.27.12.38.38,0,0,0-.36-.24.37.37,0,0,0-.37.37v0l-.13,0a.38.38,0,0,0-.37.38.36.36,0,0,0-.37.37.4.4,0,0,0,.17.32.35.35,0,0,0,0,.18.38.38,0,0,0,.38.38.39.39,0,0,0,.3-.16,1.1,1.1,0,0,0,.27.3c.15.14.3.27.3.48v.5h.25v-.37c0-.21.18-.34.37-.48a1.35,1.35,0,0,0,.3-.28h.08A19.89,19.89,0,0,1,48,40,.38.38,0,0,0,47.62,39.59ZM46.25,40.8a.86.86,0,0,0-.14-.13,1.29,1.29,0,0,1-.2-.21H46a.37.37,0,0,0,.25-.1Zm.46,0L46.5,41v-.59a.37.37,0,0,0,.25.1.32.32,0,0,0,.14,0,.27.27,0,0,0,.07.13A1.14,1.14,0,0,1,46.71,40.79ZM35.62,44.86h0a.27.27,0,0,0,0-.13.37.37,0,0,0-.37-.37l-.14,0a.38.38,0,0,0-.36-.27.33.33,0,0,0-.27.12.39.39,0,0,0-.36-.25.38.38,0,0,0-.37.38v0l-.13,0a.38.38,0,0,0-.37.37.37.37,0,0,0-.37.38.4.4,0,0,0,.17.32.35.35,0,0,0,0,.18.37.37,0,0,0,.38.37.37.37,0,0,0,.3-.16,1,1,0,0,0,.27.3.7.7,0,0,1,.3.49v.5h.25v-.38c0-.2.18-.33.37-.47a1.38,1.38,0,0,0,.3-.29h.08a.36.36,0,0,0,.37-.37.38.38,0,1,0,0-.75Zm-1.37,1.21a.86.86,0,0,0-.14-.13,1.9,1.9,0,0,1-.2-.22H34a.42.42,0,0,0,.25-.09Zm.46,0a2.62,2.62,0,0,0-.21.17v-.59a.42.42,0,0,0,.25.09l.14,0a.42.42,0,0,0,.07.13A1.14,1.14,0,0,1,34.71,46.06Zm11-2.25h0a.35.35,0,0,0,0-.13.38.38,0,0,0-.38-.38.32.32,0,0,0-.14,0,.37.37,0,0,0-.36-.28.4.4,0,0,0-.27.12.38.38,0,0,0-.73.13v0l-.13,0a.38.38,0,0,0-.38.38.36.36,0,0,0-.37.37.4.4,0,0,0,.17.32.35.35,0,0,0,0,.18.37.37,0,0,0,.68.22,1.27,1.27,0,0,0,.27.3c.15.14.3.27.3.48v.5h.25v-.37c0-.21.18-.34.37-.48a1.67,1.67,0,0,0,.31-.28h.07a.38.38,0,0,0,.38-.38.38.38,0,0,0,0-.75ZM44.31,45a1.59,1.59,0,0,0-.13-.13.77.77,0,0,1-.2-.21h.08a.37.37,0,0,0,.25-.1Zm.47,0-.22.17v-.59a.37.37,0,0,0,.25.1.32.32,0,0,0,.14,0,.33.33,0,0,0,.07.13A1.33,1.33,0,0,1,44.78,45ZM48,34V32.37a.36.36,0,0,0-.27.12.38.38,0,0,0-.73.13v0l-.12,0a.38.38,0,0,0-.38.38.38.38,0,0,0-.38.37.39.39,0,0,0,.18.32.37.37,0,0,0,.32.56.37.37,0,0,0,.31-.16,1.1,1.1,0,0,0,.27.3c.15.14.3.27.3.48v.5h.25V35a.52.52,0,0,1,.25-.39V34.3l0,0-.21.18v-.6A.37.37,0,0,0,48,34Zm-.5.33a.81.81,0,0,0-.14-.12,1.9,1.9,0,0,1-.2-.22h.09a.37.37,0,0,0,.25-.1Zm-6-2.33h-3a.5.5,0,0,0,0,.12.37.37,0,0,0,.18.32.39.39,0,0,0-.06.18A.38.38,0,0,0,39,33a.35.35,0,0,0,.3-.16,1.29,1.29,0,0,0,.27.3c.16.14.31.27.31.48v.5h.24v-.37c0-.21.18-.34.37-.48A1.38,1.38,0,0,0,40.8,33h.08a.38.38,0,0,0,.37-.38.38.38,0,0,0,.28-.62Zm-1.65,1.08L39.74,33a1,1,0,0,1-.2-.22h.08a.4.4,0,0,0,.26-.1Zm.46,0-.22.18v-.6a.4.4,0,0,0,.26.1.28.28,0,0,0,.13,0,.61.61,0,0,0,.07.14A1,1,0,0,1,40.34,33.07Zm.91,14.8h0a.59.59,0,0,0,0-.13.38.38,0,0,0-.37-.38.29.29,0,0,0-.14,0,.38.38,0,0,0-.36-.28.4.4,0,0,0-.28.12.37.37,0,0,0-.72.13v0a.31.31,0,0,0-.13,0,2.53,2.53,0,0,1-.73.63h3A.37.37,0,0,0,41.25,47.87Z"/><path id="orchard_random_dense-14" data-name="orchard_random_dense" class="cls-2" d="M36.94,51.06h0a.35.35,0,0,0,0-.13.38.38,0,0,0-.38-.38.32.32,0,0,0-.14,0,.37.37,0,0,0-.36-.28.4.4,0,0,0-.27.12.38.38,0,0,0-.73.13v0l-.13,0a.38.38,0,0,0-.38.38.36.36,0,0,0-.37.37.4.4,0,0,0,.17.32.35.35,0,0,0,0,.18A.37.37,0,0,0,35,52a1.27,1.27,0,0,0,.27.3c.15.14.3.27.3.48v.5h.25v-.37c0-.21.18-.34.37-.48a1.67,1.67,0,0,0,.31-.28h.07a.38.38,0,0,0,.38-.38.38.38,0,0,0,0-.75Zm-1.38,1.21a1.59,1.59,0,0,0-.13-.13.77.77,0,0,1-.2-.21h.08a.37.37,0,0,0,.25-.1Zm.47,0-.22.17v-.59a.37.37,0,0,0,.25.1.32.32,0,0,0,.14,0,.33.33,0,0,0,.07.13A1.33,1.33,0,0,1,36,52.26Zm8.41.05h0a.35.35,0,0,0,0-.13.38.38,0,0,0-.38-.38.32.32,0,0,0-.14,0,.37.37,0,0,0-.36-.28.4.4,0,0,0-.27.12.38.38,0,0,0-.73.13v0l-.13,0a.38.38,0,0,0-.38.38.36.36,0,0,0-.37.37.4.4,0,0,0,.17.32.35.35,0,0,0,0,.18.37.37,0,0,0,.68.22,1.27,1.27,0,0,0,.27.3c.15.14.3.27.3.48v.5h.25v-.37c0-.21.18-.34.37-.48a1.67,1.67,0,0,0,.31-.28h.07a.38.38,0,0,0,.38-.38.38.38,0,0,0,0-.75Zm-1.38,1.21a1.59,1.59,0,0,0-.13-.13.77.77,0,0,1-.2-.21h.08a.37.37,0,0,0,.25-.1Zm.47,0-.22.17v-.59a.37.37,0,0,0,.25.1.32.32,0,0,0,.14,0,.33.33,0,0,0,.07.13A1.33,1.33,0,0,1,43.53,53.51Zm-4.34,3.8h0a.35.35,0,0,0,0-.13.38.38,0,0,0-.38-.38.32.32,0,0,0-.14,0,.37.37,0,0,0-.36-.28.4.4,0,0,0-.27.12.38.38,0,0,0-.73.13v0l-.13,0a.38.38,0,0,0-.38.38.36.36,0,0,0-.37.37.4.4,0,0,0,.17.32.35.35,0,0,0,0,.18.37.37,0,0,0,.68.22,1.27,1.27,0,0,0,.27.3c.15.14.3.27.3.48v.5h.25v-.37c0-.21.18-.34.37-.48a1.67,1.67,0,0,0,.31-.28h.07a.38.38,0,0,0,.38-.38.38.38,0,0,0,0-.75Zm-1.38,1.21a1.59,1.59,0,0,0-.13-.13.77.77,0,0,1-.2-.21h.08a.37.37,0,0,0,.25-.1Zm.47,0-.22.17v-.59a.37.37,0,0,0,.25.1.32.32,0,0,0,.14,0,.33.33,0,0,0,.07.13A1.33,1.33,0,0,1,38.28,58.51Zm-5.4-9.39h0a.31.31,0,0,0,0-.13.38.38,0,0,0-.38-.38.32.32,0,0,0-.14,0,.38.38,0,0,0-.36-.28V50a.32.32,0,0,0,.14,0,.37.37,0,0,0,.07.14,1.37,1.37,0,0,1-.21.19v.31l.12-.09a1.15,1.15,0,0,0,.3-.28h.08a.38.38,0,0,0,.38-.38.37.37,0,0,0,.37-.37A.38.38,0,0,0,32.88,49.12Zm14.74,6.47h0a.32.32,0,0,0,0-.13.37.37,0,0,0-.37-.38.32.32,0,0,0-.14,0,.38.38,0,0,0-.36-.28.36.36,0,0,0-.27.12.38.38,0,0,0-.36-.24.37.37,0,0,0-.37.37v0l-.13,0a.38.38,0,0,0-.37.38.36.36,0,0,0-.37.37.4.4,0,0,0,.17.32.35.35,0,0,0,0,.18.38.38,0,0,0,.38.38.39.39,0,0,0,.3-.16,1.1,1.1,0,0,0,.27.3c.15.14.3.27.3.48v.5h.25v-.37c0-.21.18-.34.37-.48a1.35,1.35,0,0,0,.3-.28h.08A19.89,19.89,0,0,1,48,56,.38.38,0,0,0,47.62,55.59ZM46.25,56.8a.86.86,0,0,0-.14-.13,1.29,1.29,0,0,1-.2-.21H46a.37.37,0,0,0,.25-.1Zm.46,0L46.5,57v-.59a.37.37,0,0,0,.25.1.32.32,0,0,0,.14,0,.27.27,0,0,0,.07.13A1.14,1.14,0,0,1,46.71,56.79ZM35.62,60.86h0a.27.27,0,0,0,0-.13.37.37,0,0,0-.37-.37l-.14,0a.38.38,0,0,0-.36-.27.33.33,0,0,0-.27.12.39.39,0,0,0-.36-.25.38.38,0,0,0-.37.38v0l-.13,0a.38.38,0,0,0-.37.37.37.37,0,0,0-.37.38.4.4,0,0,0,.17.32.35.35,0,0,0,0,.18.37.37,0,0,0,.38.37.37.37,0,0,0,.3-.16,1,1,0,0,0,.27.3.7.7,0,0,1,.3.49v.5h.25v-.38c0-.2.18-.33.37-.47a1.38,1.38,0,0,0,.3-.29h.08a.36.36,0,0,0,.37-.37.38.38,0,1,0,0-.75Zm-1.37,1.21a.86.86,0,0,0-.14-.13,1.9,1.9,0,0,1-.2-.22H34a.42.42,0,0,0,.25-.09Zm.46,0a2.62,2.62,0,0,0-.21.17v-.59a.42.42,0,0,0,.25.09l.14,0a.42.42,0,0,0,.07.13A1.14,1.14,0,0,1,34.71,62.06Zm11-2.25h0a.35.35,0,0,0,0-.13.38.38,0,0,0-.38-.38.32.32,0,0,0-.14,0,.37.37,0,0,0-.36-.28.4.4,0,0,0-.27.12.38.38,0,0,0-.73.13v0l-.13,0a.38.38,0,0,0-.38.38.36.36,0,0,0-.37.37.4.4,0,0,0,.17.32.35.35,0,0,0,0,.18.37.37,0,0,0,.68.22,1.27,1.27,0,0,0,.27.3c.15.14.3.27.3.48v.5h.25v-.37c0-.21.18-.34.37-.48a1.67,1.67,0,0,0,.31-.28h.07a.38.38,0,0,0,.38-.38.38.38,0,0,0,0-.75ZM44.31,61a1.59,1.59,0,0,0-.13-.13.77.77,0,0,1-.2-.21h.08a.37.37,0,0,0,.25-.1Zm.47,0-.22.17v-.59a.37.37,0,0,0,.25.1.32.32,0,0,0,.14,0,.33.33,0,0,0,.07.13A1.33,1.33,0,0,1,44.78,61ZM48,50V48.37a.36.36,0,0,0-.27.12.38.38,0,0,0-.73.13v0l-.12,0a40,40,0,0,1-.76.75.39.39,0,0,0,.18.32.37.37,0,0,0,.32.56.37.37,0,0,0,.31-.16,1.1,1.1,0,0,0,.27.3c.15.14.3.27.3.48v.5h.25V51a.52.52,0,0,1,.25-.39V50.3l0,0-.21.18v-.6A.37.37,0,0,0,48,50Zm-.5.33a.81.81,0,0,0-.14-.12,1.9,1.9,0,0,1-.2-.22h.09a.37.37,0,0,0,.25-.1Zm-6-2.33h-3a.5.5,0,0,0,0,.12.37.37,0,0,0,.18.32.39.39,0,0,0-.06.18A.38.38,0,0,0,39,49a.35.35,0,0,0,.3-.16,1.29,1.29,0,0,0,.27.3c.16.14.31.27.31.48v.5h.24v-.37c0-.21.18-.34.37-.48A1.38,1.38,0,0,0,40.8,49h.08a.38.38,0,0,0,.37-.38.38.38,0,0,0,.28-.62Zm-1.65,1.08L39.74,49a1,1,0,0,1-.2-.22h.08a.4.4,0,0,0,.26-.1Zm.46,0-.22.18v-.6a.4.4,0,0,0,.26.1.28.28,0,0,0,.13,0,.61.61,0,0,0,.07.14A1,1,0,0,1,40.34,49.07Zm.91,14.8h0a.59.59,0,0,0,0-.13.38.38,0,0,0-.37-.38.29.29,0,0,0-.14,0,.38.38,0,0,0-.36-.28.4.4,0,0,0-.28.12.37.37,0,0,0-.72.13v0a.31.31,0,0,0-.13,0,2.53,2.53,0,0,1-.73.63h3A.37.37,0,0,0,41.25,63.87Z"/><path id="orchard_random_dense-15" data-name="orchard_random_dense" class="cls-2" d="M52.94,35.06h0a.35.35,0,0,0,0-.13.38.38,0,0,0-.38-.38.32.32,0,0,0-.14,0,.37.37,0,0,0-.36-.28.4.4,0,0,0-.27.12.38.38,0,0,0-.73.13v0l-.13,0a.38.38,0,0,0-.38.38.36.36,0,0,0-.37.37.4.4,0,0,0,.17.32.35.35,0,0,0,0,.18A.37.37,0,0,0,51,36a1.27,1.27,0,0,0,.27.3c.15.14.3.27.3.48v.5h.25v-.37c0-.21.18-.34.37-.48a1.67,1.67,0,0,0,.31-.28h.07a.38.38,0,0,0,.38-.38.38.38,0,0,0,0-.75Zm-1.38,1.21a1.59,1.59,0,0,0-.13-.13.77.77,0,0,1-.2-.21h.08a.37.37,0,0,0,.25-.1Zm.47,0-.22.17v-.59a.37.37,0,0,0,.25.1.32.32,0,0,0,.14,0,.33.33,0,0,0,.07.13A1.33,1.33,0,0,1,52,36.26Zm8.41.05h0a.35.35,0,0,0,0-.13.38.38,0,0,0-.38-.38.32.32,0,0,0-.14,0,.37.37,0,0,0-.36-.28.4.4,0,0,0-.27.12.38.38,0,0,0-.73.13v0l-.13,0a.38.38,0,0,0-.38.38.36.36,0,0,0-.37.37.4.4,0,0,0,.17.32.35.35,0,0,0,0,.18.37.37,0,0,0,.68.22,1.27,1.27,0,0,0,.27.3c.15.14.3.27.3.48v.5h.25v-.37c0-.21.18-.34.37-.48a1.67,1.67,0,0,0,.31-.28h.07a.38.38,0,0,0,.38-.38.38.38,0,0,0,0-.75Zm-1.38,1.21a1.59,1.59,0,0,0-.13-.13.77.77,0,0,1-.2-.21h.08a.37.37,0,0,0,.25-.1Zm.47,0-.22.17v-.59a.37.37,0,0,0,.25.1.32.32,0,0,0,.14,0,.33.33,0,0,0,.07.13A1.33,1.33,0,0,1,59.53,37.51Zm-4.34,3.8h0a.35.35,0,0,0,0-.13.38.38,0,0,0-.38-.38.32.32,0,0,0-.14,0,.37.37,0,0,0-.36-.28.4.4,0,0,0-.27.12.38.38,0,0,0-.73.13v0l-.13,0a.38.38,0,0,0-.38.38.36.36,0,0,0-.37.37.4.4,0,0,0,.17.32.35.35,0,0,0,0,.18.37.37,0,0,0,.68.22,1.27,1.27,0,0,0,.27.3c.15.14.3.27.3.48v.5h.25v-.37c0-.21.18-.34.37-.48a1.67,1.67,0,0,0,.31-.28h.07a.38.38,0,0,0,.38-.38.38.38,0,0,0,0-.75Zm-1.38,1.21a1.59,1.59,0,0,0-.13-.13.77.77,0,0,1-.2-.21h.08a.37.37,0,0,0,.25-.1Zm.47,0-.22.17v-.59a.37.37,0,0,0,.25.1.32.32,0,0,0,.14,0,.33.33,0,0,0,.07.13A1.33,1.33,0,0,1,54.28,42.51Zm-5.4-9.39h0a.31.31,0,0,0,0-.13.38.38,0,0,0-.38-.38.32.32,0,0,0-.14,0,.38.38,0,0,0-.36-.28V34a.32.32,0,0,0,.14,0,.37.37,0,0,0,.07.14,1.37,1.37,0,0,1-.21.19v.31l.12-.09a1.15,1.15,0,0,0,.3-.28h.08a.38.38,0,0,0,.38-.38.37.37,0,0,0,.37-.37A.38.38,0,0,0,48.88,33.12Zm14.74,6.47h0a.32.32,0,0,0,0-.13.37.37,0,0,0-.37-.38.32.32,0,0,0-.14,0,.38.38,0,0,0-.36-.28.36.36,0,0,0-.27.12.38.38,0,0,0-.36-.24.37.37,0,0,0-.37.37v0l-.13,0a.38.38,0,0,0-.37.38.36.36,0,0,0-.37.37.4.4,0,0,0,.17.32.35.35,0,0,0,0,.18.38.38,0,0,0,.38.38.39.39,0,0,0,.3-.16,1.1,1.1,0,0,0,.27.3c.15.14.3.27.3.48v.5h.25v-.37c0-.21.18-.34.37-.48a1.35,1.35,0,0,0,.3-.28h.08A19.89,19.89,0,0,1,64,40,.38.38,0,0,0,63.62,39.59ZM62.25,40.8a.86.86,0,0,0-.14-.13,1.29,1.29,0,0,1-.2-.21H62a.37.37,0,0,0,.25-.1Zm.46,0L62.5,41v-.59a.37.37,0,0,0,.25.1.32.32,0,0,0,.14,0,.27.27,0,0,0,.07.13A1.14,1.14,0,0,1,62.71,40.79ZM51.62,44.86h0a.27.27,0,0,0,0-.13.37.37,0,0,0-.37-.37l-.14,0a.38.38,0,0,0-.36-.27.33.33,0,0,0-.27.12.39.39,0,0,0-.36-.25.38.38,0,0,0-.37.38v0l-.13,0a.38.38,0,0,0-.37.37.37.37,0,0,0-.37.38.4.4,0,0,0,.17.32.35.35,0,0,0,0,.18.37.37,0,0,0,.38.37.37.37,0,0,0,.3-.16,1,1,0,0,0,.27.3.7.7,0,0,1,.3.49v.5h.25v-.38c0-.2.18-.33.37-.47a1.38,1.38,0,0,0,.3-.29h.08a.36.36,0,0,0,.37-.37.38.38,0,1,0,0-.75Zm-1.37,1.21a.86.86,0,0,0-.14-.13,1.9,1.9,0,0,1-.2-.22H50a.42.42,0,0,0,.25-.09Zm.46,0a2.62,2.62,0,0,0-.21.17v-.59a.42.42,0,0,0,.25.09l.14,0a.42.42,0,0,0,.07.13A1.14,1.14,0,0,1,50.71,46.06Zm11-2.25h0a.35.35,0,0,0,0-.13.38.38,0,0,0-.38-.38.32.32,0,0,0-.14,0,.37.37,0,0,0-.36-.28.4.4,0,0,0-.27.12.38.38,0,0,0-.73.13v0l-.13,0a.38.38,0,0,0-.38.38.36.36,0,0,0-.37.37.4.4,0,0,0,.17.32.35.35,0,0,0,0,.18.37.37,0,0,0,.68.22,1.27,1.27,0,0,0,.27.3c.15.14.3.27.3.48v.5h.25v-.37c0-.21.18-.34.37-.48a1.67,1.67,0,0,0,.31-.28h.07a.38.38,0,0,0,.38-.38.38.38,0,0,0,0-.75ZM60.31,45a1.59,1.59,0,0,0-.13-.13.77.77,0,0,1-.2-.21h.08a.37.37,0,0,0,.25-.1Zm.47,0-.22.17v-.59a.37.37,0,0,0,.25.1.32.32,0,0,0,.14,0,.33.33,0,0,0,.07.13A1.33,1.33,0,0,1,60.78,45ZM64,34V32.37a.36.36,0,0,0-.27.12.38.38,0,0,0-.73.13v0l-.12,0a.38.38,0,0,0-.38.38.38.38,0,0,0-.38.37.39.39,0,0,0,.18.32.37.37,0,0,0,.32.56.37.37,0,0,0,.31-.16,1.1,1.1,0,0,0,.27.3c.15.14.3.27.3.48v.5h.25V35a.52.52,0,0,1,.25-.39V34.3l0,0-.21.18v-.6A.37.37,0,0,0,64,34Zm-.5.33a.81.81,0,0,0-.14-.12,1.9,1.9,0,0,1-.2-.22h.09a.37.37,0,0,0,.25-.1Zm-6-2.33h-3a.5.5,0,0,0,0,.12.37.37,0,0,0,.18.32.39.39,0,0,0-.06.18A.38.38,0,0,0,55,33a.35.35,0,0,0,.3-.16,1.29,1.29,0,0,0,.27.3c.16.14.31.27.31.48v.5h.24v-.37c0-.21.18-.34.37-.48A1.38,1.38,0,0,0,56.8,33h.08a.38.38,0,0,0,.37-.38.38.38,0,0,0,.28-.62Zm-1.65,1.08L55.74,33a1,1,0,0,1-.2-.22h.08a.4.4,0,0,0,.26-.1Zm.46,0-.22.18v-.6a.4.4,0,0,0,.26.1.28.28,0,0,0,.13,0,.61.61,0,0,0,.07.14A1,1,0,0,1,56.34,33.07Zm.91,14.8h0a.59.59,0,0,0,0-.13.38.38,0,0,0-.37-.38.29.29,0,0,0-.14,0,.38.38,0,0,0-.36-.28.4.4,0,0,0-.28.12.37.37,0,0,0-.72.13v0a.31.31,0,0,0-.13,0,2.53,2.53,0,0,1-.73.63h3A.37.37,0,0,0,57.25,47.87Z"/><path id="orchard_random_dense-16" data-name="orchard_random_dense" class="cls-2" d="M52.94,51.06h0a.35.35,0,0,0,0-.13.38.38,0,0,0-.38-.38.32.32,0,0,0-.14,0,.37.37,0,0,0-.36-.28.4.4,0,0,0-.27.12.38.38,0,0,0-.73.13v0l-.13,0a.38.38,0,0,0-.38.38.36.36,0,0,0-.37.37.4.4,0,0,0,.17.32.35.35,0,0,0,0,.18A.37.37,0,0,0,51,52a1.27,1.27,0,0,0,.27.3c.15.14.3.27.3.48v.5h.25v-.37c0-.21.18-.34.37-.48a1.67,1.67,0,0,0,.31-.28h.07a.38.38,0,0,0,.38-.38.38.38,0,0,0,0-.75Zm-1.38,1.21a1.59,1.59,0,0,0-.13-.13.77.77,0,0,1-.2-.21h.08a.37.37,0,0,0,.25-.1Zm.47,0-.22.17v-.59a.37.37,0,0,0,.25.1.32.32,0,0,0,.14,0,.33.33,0,0,0,.07.13A1.33,1.33,0,0,1,52,52.26Zm8.41.05h0a.35.35,0,0,0,0-.13.38.38,0,0,0-.38-.38.32.32,0,0,0-.14,0,.37.37,0,0,0-.36-.28.4.4,0,0,0-.27.12.38.38,0,0,0-.73.13v0l-.13,0a.38.38,0,0,0-.38.38.36.36,0,0,0-.37.37.4.4,0,0,0,.17.32.35.35,0,0,0,0,.18.37.37,0,0,0,.68.22,1.27,1.27,0,0,0,.27.3c.15.14.3.27.3.48v.5h.25v-.37c0-.21.18-.34.37-.48a1.67,1.67,0,0,0,.31-.28h.07a.38.38,0,0,0,.38-.38.38.38,0,0,0,0-.75Zm-1.38,1.21a1.59,1.59,0,0,0-.13-.13.77.77,0,0,1-.2-.21h.08a.37.37,0,0,0,.25-.1Zm.47,0-.22.17v-.59a.37.37,0,0,0,.25.1.32.32,0,0,0,.14,0,.33.33,0,0,0,.07.13A1.33,1.33,0,0,1,59.53,53.51Zm-4.34,3.8h0a.35.35,0,0,0,0-.13.38.38,0,0,0-.38-.38.32.32,0,0,0-.14,0,.37.37,0,0,0-.36-.28.4.4,0,0,0-.27.12.38.38,0,0,0-.73.13v0l-.13,0a.38.38,0,0,0-.38.38.36.36,0,0,0-.37.37.4.4,0,0,0,.17.32.35.35,0,0,0,0,.18.37.37,0,0,0,.68.22,1.27,1.27,0,0,0,.27.3c.15.14.3.27.3.48v.5h.25v-.37c0-.21.18-.34.37-.48a1.67,1.67,0,0,0,.31-.28h.07a.38.38,0,0,0,.38-.38.38.38,0,0,0,0-.75Zm-1.38,1.21a1.59,1.59,0,0,0-.13-.13.77.77,0,0,1-.2-.21h.08a.37.37,0,0,0,.25-.1Zm.47,0-.22.17v-.59a.37.37,0,0,0,.25.1.32.32,0,0,0,.14,0,.33.33,0,0,0,.07.13A1.33,1.33,0,0,1,54.28,58.51Zm-5.4-9.39h0a.31.31,0,0,0,0-.13.38.38,0,0,0-.38-.38.32.32,0,0,0-.14,0,.38.38,0,0,0-.36-.28V50a.32.32,0,0,0,.14,0,.37.37,0,0,0,.07.14,1.37,1.37,0,0,1-.21.19v.31l.12-.09a1.15,1.15,0,0,0,.3-.28h.08a.38.38,0,0,0,.38-.38.37.37,0,0,0,.37-.37A.38.38,0,0,0,48.88,49.12Zm14.74,6.47h0a.32.32,0,0,0,0-.13.37.37,0,0,0-.37-.38.32.32,0,0,0-.14,0,.38.38,0,0,0-.36-.28.36.36,0,0,0-.27.12.38.38,0,0,0-.36-.24.37.37,0,0,0-.37.37v0l-.13,0a.38.38,0,0,0-.37.38.36.36,0,0,0-.37.37.4.4,0,0,0,.17.32.35.35,0,0,0,0,.18.38.38,0,0,0,.38.38.39.39,0,0,0,.3-.16,1.1,1.1,0,0,0,.27.3c.15.14.3.27.3.48v.5h.25v-.37c0-.21.18-.34.37-.48a1.35,1.35,0,0,0,.3-.28h.08A19.89,19.89,0,0,1,64,56,.38.38,0,0,0,63.62,55.59ZM62.25,56.8a.86.86,0,0,0-.14-.13,1.29,1.29,0,0,1-.2-.21H62a.37.37,0,0,0,.25-.1Zm.46,0L62.5,57v-.59a.37.37,0,0,0,.25.1.32.32,0,0,0,.14,0,.27.27,0,0,0,.07.13A1.14,1.14,0,0,1,62.71,56.79ZM51.62,60.86h0a.27.27,0,0,0,0-.13.37.37,0,0,0-.37-.37l-.14,0a.38.38,0,0,0-.36-.27.33.33,0,0,0-.27.12.39.39,0,0,0-.36-.25.38.38,0,0,0-.37.38v0l-.13,0a.38.38,0,0,0-.37.37.37.37,0,0,0-.37.38.4.4,0,0,0,.17.32.35.35,0,0,0,0,.18.37.37,0,0,0,.38.37.37.37,0,0,0,.3-.16,1,1,0,0,0,.27.3.7.7,0,0,1,.3.49v.5h.25v-.38c0-.2.18-.33.37-.47a1.38,1.38,0,0,0,.3-.29h.08a.36.36,0,0,0,.37-.37.38.38,0,1,0,0-.75Zm-1.37,1.21a.86.86,0,0,0-.14-.13,1.9,1.9,0,0,1-.2-.22H50a.42.42,0,0,0,.25-.09Zm.46,0a2.62,2.62,0,0,0-.21.17v-.59a.42.42,0,0,0,.25.09l.14,0a.42.42,0,0,0,.07.13A1.14,1.14,0,0,1,50.71,62.06Zm11-2.25h0a.35.35,0,0,0,0-.13.38.38,0,0,0-.38-.38.32.32,0,0,0-.14,0,.37.37,0,0,0-.36-.28.4.4,0,0,0-.27.12.38.38,0,0,0-.73.13v0l-.13,0a.38.38,0,0,0-.38.38.36.36,0,0,0-.37.37.4.4,0,0,0,.17.32.35.35,0,0,0,0,.18.37.37,0,0,0,.68.22,1.27,1.27,0,0,0,.27.3c.15.14.3.27.3.48v.5h.25v-.37c0-.21.18-.34.37-.48a1.67,1.67,0,0,0,.31-.28h.07a.38.38,0,0,0,.38-.38.38.38,0,0,0,0-.75ZM60.31,61a1.59,1.59,0,0,0-.13-.13.77.77,0,0,1-.2-.21h.08a.37.37,0,0,0,.25-.1Zm.47,0-.22.17v-.59a.37.37,0,0,0,.25.1.32.32,0,0,0,.14,0,.33.33,0,0,0,.07.13A1.33,1.33,0,0,1,60.78,61ZM64,50V48.37a.36.36,0,0,0-.27.12.38.38,0,0,0-.73.13v0l-.12,0a40,40,0,0,1-.76.75.39.39,0,0,0,.18.32.37.37,0,0,0,.32.56.37.37,0,0,0,.31-.16,1.1,1.1,0,0,0,.27.3c.15.14.3.27.3.48v.5h.25V51a.52.52,0,0,1,.25-.39V50.3l0,0-.21.18v-.6A.37.37,0,0,0,64,50Zm-.5.33a.81.81,0,0,0-.14-.12,1.9,1.9,0,0,1-.2-.22h.09a.37.37,0,0,0,.25-.1Zm-6-2.33h-3a.5.5,0,0,0,0,.12.37.37,0,0,0,.18.32.39.39,0,0,0-.06.18A.38.38,0,0,0,55,49a.35.35,0,0,0,.3-.16,1.29,1.29,0,0,0,.27.3c.16.14.31.27.31.48v.5h.24v-.37c0-.21.18-.34.37-.48A1.38,1.38,0,0,0,56.8,49h.08a.38.38,0,0,0,.37-.38.38.38,0,0,0,.28-.62Zm-1.65,1.08L55.74,49a1,1,0,0,1-.2-.22h.08a.4.4,0,0,0,.26-.1Zm.46,0-.22.18v-.6a.4.4,0,0,0,.26.1.28.28,0,0,0,.13,0,.61.61,0,0,0,.07.14A1,1,0,0,1,56.34,49.07Zm.91,14.8h0a.59.59,0,0,0,0-.13.38.38,0,0,0-.37-.38.29.29,0,0,0-.14,0,.38.38,0,0,0-.36-.28.4.4,0,0,0-.28.12.37.37,0,0,0-.72.13v0a.31.31,0,0,0-.13,0,2.53,2.53,0,0,1-.73.63h3A.37.37,0,0,0,57.25,63.87Z"/></g></svg>