<svg id="Sprites" xmlns="http://www.w3.org/2000/svg" viewBox="0 0 64 64"><defs><style>.cls-1{fill:none;}.cls-2{fill:#236035;}</style></defs><g id="orchard_poly_random_sparse_half"><rect id="bbox_64" class="cls-1" width="32" height="32"/><path id="orchard_random_sparse" class="cls-2" d="M4.94,3.06h0a.27.27,0,0,0,0-.12.38.38,0,0,0-.38-.38.35.35,0,0,0-.14,0,.37.37,0,0,0-.36-.28.38.38,0,0,0-.27.12.37.37,0,0,0-.35-.24.38.38,0,0,0-.38.37v0a.27.27,0,0,0-.12,0,.38.38,0,0,0-.38.38.38.38,0,0,0-.37.37.38.38,0,0,0,.17.32.37.37,0,0,0,0,.18.38.38,0,0,0,.38.38A.39.39,0,0,0,3,4a1.1,1.1,0,0,0,.27.3c.15.14.3.27.3.48v.5h.25V4.94c0-.21.18-.34.37-.48a1.15,1.15,0,0,0,.3-.28h.08a.38.38,0,0,0,.38-.38.38.38,0,0,0,0-.75ZM3.42,4.14a1.29,1.29,0,0,1-.2-.21h.09a.36.36,0,0,0,.25-.1v.43A.86.86,0,0,0,3.42,4.14ZM4,4.26l-.22.17V3.84a.39.39,0,0,0,.25.1.32.32,0,0,0,.14,0A.54.54,0,0,0,4.27,4,1.33,1.33,0,0,1,4,4.26Zm8.41,0h0a.27.27,0,0,0,0-.12.38.38,0,0,0-.38-.38.35.35,0,0,0-.14,0,.37.37,0,0,0-.36-.28.38.38,0,0,0-.27.12.37.37,0,0,0-.35-.24.38.38,0,0,0-.38.37v0a.27.27,0,0,0-.12,0,.38.38,0,0,0-.38.38.38.38,0,0,0-.37.37.38.38,0,0,0,.17.32.37.37,0,0,0,0,.18.38.38,0,0,0,.38.38.39.39,0,0,0,.3-.16,1.1,1.1,0,0,0,.27.3c.15.14.3.27.3.48v.5h.25V6.19c0-.21.18-.34.37-.48a1.15,1.15,0,0,0,.3-.28h.08a.38.38,0,0,0,.38-.38.38.38,0,0,0,0-.75ZM10.92,5.39a1.29,1.29,0,0,1-.2-.21h.09a.36.36,0,0,0,.25-.1v.43A.86.86,0,0,0,10.92,5.39Zm.61.12-.22.17V5.09a.39.39,0,0,0,.25.1.32.32,0,0,0,.14,0,.54.54,0,0,0,.07.13A1.33,1.33,0,0,1,11.53,5.51ZM7.19,9.31h0a.27.27,0,0,0,0-.12.38.38,0,0,0-.38-.38.35.35,0,0,0-.14,0,.37.37,0,0,0-.36-.28A.38.38,0,0,0,6,8.68a.37.37,0,0,0-.35-.24.38.38,0,0,0-.38.37v0l-.12,0a.38.38,0,0,0-.38.38.38.38,0,0,0-.37.37.38.38,0,0,0,.17.32.37.37,0,0,0-.05.18.38.38,0,0,0,.38.38.39.39,0,0,0,.3-.16,1.1,1.1,0,0,0,.27.3c.15.14.3.27.3.48v.5h.25v-.37c0-.21.18-.34.37-.48a1.15,1.15,0,0,0,.3-.28h.08a.38.38,0,0,0,.38-.38.38.38,0,0,0,0-.75ZM5.67,10.39a1.29,1.29,0,0,1-.2-.21h.09a.36.36,0,0,0,.25-.1v.43A.86.86,0,0,0,5.67,10.39Zm.61.12-.22.17v-.59a.39.39,0,0,0,.25.1.32.32,0,0,0,.14,0,.54.54,0,0,0,.07.13A1.33,1.33,0,0,1,6.28,10.51Zm7.41,1.3h0a.27.27,0,0,0,0-.12.38.38,0,0,0-.38-.38.35.35,0,0,0-.14,0,.37.37,0,0,0-.36-.28.38.38,0,0,0-.27.12.37.37,0,0,0-.35-.24.38.38,0,0,0-.38.37v0l-.12,0a.38.38,0,0,0-.38.38.38.38,0,0,0-.37.37.38.38,0,0,0,.17.32.37.37,0,0,0,0,.18.38.38,0,0,0,.38.38.39.39,0,0,0,.3-.16,1.1,1.1,0,0,0,.27.3c.15.14.3.27.3.48v.5h.25v-.37c0-.21.18-.34.37-.48a1.15,1.15,0,0,0,.3-.28h.08a.38.38,0,0,0,.38-.38.38.38,0,0,0,0-.75Zm-1.52,1.08a1.29,1.29,0,0,1-.2-.21h.09a.36.36,0,0,0,.25-.1V13A.86.86,0,0,0,12.17,12.89Zm.61.12-.22.17v-.59a.39.39,0,0,0,.25.1.32.32,0,0,0,.14,0,.54.54,0,0,0,.07.13A1.33,1.33,0,0,1,12.78,13Z"/><path id="orchard_random_sparse-2" data-name="orchard_random_sparse" class="cls-2" d="M4.94,19.06h0a.27.27,0,0,0,0-.12.38.38,0,0,0-.38-.38.35.35,0,0,0-.14,0,.37.37,0,0,0-.36-.28.38.38,0,0,0-.27.12.37.37,0,0,0-.35-.24.38.38,0,0,0-.38.37v0a.27.27,0,0,0-.12,0,.38.38,0,0,0-.38.38.38.38,0,0,0-.37.37.38.38,0,0,0,.17.32.37.37,0,0,0,0,.18.38.38,0,0,0,.38.38A.39.39,0,0,0,3,20a1.1,1.1,0,0,0,.27.3c.15.14.3.27.3.48v.5h.25v-.37c0-.21.18-.34.37-.48a1.15,1.15,0,0,0,.3-.28h.08a.38.38,0,0,0,.38-.38.38.38,0,0,0,0-.75ZM3.42,20.14a1.29,1.29,0,0,1-.2-.21h.09a.36.36,0,0,0,.25-.1v.43A.86.86,0,0,0,3.42,20.14Zm.61.12-.22.17v-.59a.39.39,0,0,0,.25.1.32.32,0,0,0,.14,0,.54.54,0,0,0,.07.13A1.33,1.33,0,0,1,4,20.26Zm8.41,0h0a.27.27,0,0,0,0-.12.38.38,0,0,0-.38-.38.35.35,0,0,0-.14,0,.37.37,0,0,0-.36-.28.38.38,0,0,0-.27.12.37.37,0,0,0-.35-.24.38.38,0,0,0-.38.37v0a.27.27,0,0,0-.12,0,.38.38,0,0,0-.38.38.38.38,0,0,0-.37.37.38.38,0,0,0,.17.32.37.37,0,0,0,0,.18.38.38,0,0,0,.38.38.39.39,0,0,0,.3-.16,1.1,1.1,0,0,0,.27.3c.15.14.3.27.3.48v.5h.25v-.37c0-.21.18-.34.37-.48a1.15,1.15,0,0,0,.3-.28h.08a.38.38,0,0,0,.38-.38.38.38,0,0,0,0-.75Zm-1.52,1.08a1.29,1.29,0,0,1-.2-.21h.09a.36.36,0,0,0,.25-.1v.43A.86.86,0,0,0,10.92,21.39Zm.61.12-.22.17v-.59a.39.39,0,0,0,.25.1.32.32,0,0,0,.14,0,.54.54,0,0,0,.07.13A1.33,1.33,0,0,1,11.53,21.51Zm-4.34,3.8h0a.27.27,0,0,0,0-.12.38.38,0,0,0-.38-.38.35.35,0,0,0-.14,0,.37.37,0,0,0-.36-.28.38.38,0,0,0-.27.12.37.37,0,0,0-.35-.24.38.38,0,0,0-.38.37v0a.27.27,0,0,0-.12,0,.38.38,0,0,0-.38.38.38.38,0,0,0-.37.37.38.38,0,0,0,.17.32.37.37,0,0,0-.05.18.38.38,0,0,0,.38.38.39.39,0,0,0,.3-.16,1.1,1.1,0,0,0,.27.3c.15.14.3.27.3.48v.5h.25v-.37c0-.21.18-.34.37-.48a1.15,1.15,0,0,0,.3-.28h.08a.38.38,0,0,0,.38-.38.38.38,0,0,0,0-.75ZM5.67,26.39a1.29,1.29,0,0,1-.2-.21h.09a.36.36,0,0,0,.25-.1v.43A.86.86,0,0,0,5.67,26.39Zm.61.12-.22.17v-.59a.39.39,0,0,0,.25.1.32.32,0,0,0,.14,0,.54.54,0,0,0,.07.13A1.33,1.33,0,0,1,6.28,26.51Zm7.41,1.3h0a.27.27,0,0,0,0-.12.38.38,0,0,0-.38-.38.35.35,0,0,0-.14,0,.37.37,0,0,0-.36-.28.38.38,0,0,0-.27.12.37.37,0,0,0-.35-.24.38.38,0,0,0-.38.37v0a.27.27,0,0,0-.12,0,.38.38,0,0,0-.38.38.38.38,0,0,0-.37.37.38.38,0,0,0,.17.32.37.37,0,0,0,0,.18.38.38,0,0,0,.38.38.39.39,0,0,0,.3-.16,1.1,1.1,0,0,0,.27.3c.15.14.3.27.3.48v.5h.25v-.37c0-.21.18-.34.37-.48a1.15,1.15,0,0,0,.3-.28h.08a.38.38,0,0,0,.38-.38.38.38,0,0,0,0-.75Zm-1.52,1.08a1.29,1.29,0,0,1-.2-.21h.09a.36.36,0,0,0,.25-.1V29A.86.86,0,0,0,12.17,28.89Zm.61.12-.22.17v-.59a.39.39,0,0,0,.25.1.32.32,0,0,0,.14,0,.54.54,0,0,0,.07.13A1.33,1.33,0,0,1,12.78,29Z"/><path id="orchard_random_sparse-3" data-name="orchard_random_sparse" class="cls-2" d="M20.94,3.06h0a.27.27,0,0,0,0-.12.38.38,0,0,0-.38-.38.35.35,0,0,0-.14,0,.37.37,0,0,0-.36-.28.38.38,0,0,0-.27.12.37.37,0,0,0-.35-.24.38.38,0,0,0-.38.37v0a.27.27,0,0,0-.12,0,.38.38,0,0,0-.38.38.38.38,0,0,0-.37.37.38.38,0,0,0,.17.32.37.37,0,0,0-.05.18.38.38,0,0,0,.38.38A.39.39,0,0,0,19,4a1.1,1.1,0,0,0,.27.3c.15.14.3.27.3.48v.5h.25V4.94c0-.21.18-.34.37-.48a1.15,1.15,0,0,0,.3-.28h.08a.38.38,0,0,0,.38-.38.38.38,0,0,0,0-.75ZM19.42,4.14a1.29,1.29,0,0,1-.2-.21h.09a.36.36,0,0,0,.25-.1v.43A.86.86,0,0,0,19.42,4.14Zm.61.12-.22.17V3.84a.39.39,0,0,0,.25.1.32.32,0,0,0,.14,0,.54.54,0,0,0,.07.13A1.33,1.33,0,0,1,20,4.26Zm8.41,0h0a.27.27,0,0,0,0-.12.38.38,0,0,0-.38-.38.35.35,0,0,0-.14,0,.37.37,0,0,0-.36-.28.38.38,0,0,0-.27.12.37.37,0,0,0-.35-.24.38.38,0,0,0-.38.37v0a.27.27,0,0,0-.12,0,.38.38,0,0,0-.38.38.38.38,0,0,0-.37.37.38.38,0,0,0,.17.32.37.37,0,0,0-.05.18.38.38,0,0,0,.38.38.39.39,0,0,0,.3-.16,1.1,1.1,0,0,0,.27.3c.15.14.3.27.3.48v.5h.25V6.19c0-.21.18-.34.37-.48a1.15,1.15,0,0,0,.3-.28h.08a.38.38,0,0,0,.38-.38.38.38,0,0,0,0-.75ZM26.92,5.39a1.29,1.29,0,0,1-.2-.21h.09a.36.36,0,0,0,.25-.1v.43A.86.86,0,0,0,26.92,5.39Zm.61.12-.22.17V5.09a.39.39,0,0,0,.25.1.32.32,0,0,0,.14,0,.54.54,0,0,0,.07.13A1.33,1.33,0,0,1,27.53,5.51Zm-4.34,3.8h0a.27.27,0,0,0,0-.12.38.38,0,0,0-.38-.38.35.35,0,0,0-.14,0,.37.37,0,0,0-.36-.28.38.38,0,0,0-.27.12.37.37,0,0,0-.35-.24.38.38,0,0,0-.38.37v0l-.12,0a.38.38,0,0,0-.38.38.38.38,0,0,0-.37.37.38.38,0,0,0,.17.32.37.37,0,0,0-.05.18.38.38,0,0,0,.38.38.39.39,0,0,0,.3-.16,1.1,1.1,0,0,0,.27.3c.15.14.3.27.3.48v.5h.25v-.37c0-.21.18-.34.37-.48a1.15,1.15,0,0,0,.3-.28h.08a.38.38,0,0,0,.38-.38.38.38,0,0,0,0-.75Zm-1.52,1.08a1.29,1.29,0,0,1-.2-.21h.09a.36.36,0,0,0,.25-.1v.43A.86.86,0,0,0,21.67,10.39Zm.61.12-.22.17v-.59a.39.39,0,0,0,.25.1.32.32,0,0,0,.14,0,.54.54,0,0,0,.07.13A1.33,1.33,0,0,1,22.28,10.51Zm7.41,1.3h0a.27.27,0,0,0,0-.12.38.38,0,0,0-.38-.38.35.35,0,0,0-.14,0,.37.37,0,0,0-.36-.28.38.38,0,0,0-.27.12.37.37,0,0,0-.35-.24.38.38,0,0,0-.38.37v0l-.12,0a.38.38,0,0,0-.38.38.38.38,0,0,0-.37.37.38.38,0,0,0,.17.32.37.37,0,0,0-.05.18.38.38,0,0,0,.38.38.39.39,0,0,0,.3-.16,1.1,1.1,0,0,0,.27.3c.15.14.3.27.3.48v.5h.25v-.37c0-.21.18-.34.37-.48a1.15,1.15,0,0,0,.3-.28h.08a.38.38,0,0,0,.38-.38.38.38,0,0,0,0-.75Zm-1.52,1.08a1.29,1.29,0,0,1-.2-.21h.09a.36.36,0,0,0,.25-.1V13A.86.86,0,0,0,28.17,12.89Zm.61.12-.22.17v-.59a.39.39,0,0,0,.25.1.32.32,0,0,0,.14,0,.54.54,0,0,0,.07.13A1.33,1.33,0,0,1,28.78,13Z"/><path id="orchard_random_sparse-4" data-name="orchard_random_sparse" class="cls-2" d="M20.94,19.06h0a.27.27,0,0,0,0-.12.38.38,0,0,0-.38-.38.35.35,0,0,0-.14,0,.37.37,0,0,0-.36-.28.38.38,0,0,0-.27.12.37.37,0,0,0-.35-.24.38.38,0,0,0-.38.37v0a.27.27,0,0,0-.12,0,.38.38,0,0,0-.38.38.38.38,0,0,0-.37.37.38.38,0,0,0,.17.32.37.37,0,0,0-.05.18.38.38,0,0,0,.38.38A.39.39,0,0,0,19,20a1.1,1.1,0,0,0,.27.3c.15.14.3.27.3.48v.5h.25v-.37c0-.21.18-.34.37-.48a1.15,1.15,0,0,0,.3-.28h.08a.38.38,0,0,0,.38-.38.38.38,0,0,0,0-.75Zm-1.52,1.08a1.29,1.29,0,0,1-.2-.21h.09a.36.36,0,0,0,.25-.1v.43A.86.86,0,0,0,19.42,20.14Zm.61.12-.22.17v-.59a.39.39,0,0,0,.25.1.32.32,0,0,0,.14,0,.54.54,0,0,0,.07.13A1.33,1.33,0,0,1,20,20.26Zm8.41,0h0a.27.27,0,0,0,0-.12.38.38,0,0,0-.38-.38.35.35,0,0,0-.14,0,.37.37,0,0,0-.36-.28.38.38,0,0,0-.27.12.37.37,0,0,0-.35-.24.38.38,0,0,0-.38.37v0a.27.27,0,0,0-.12,0,.38.38,0,0,0-.38.38.38.38,0,0,0-.37.37.38.38,0,0,0,.17.32.37.37,0,0,0-.05.18.38.38,0,0,0,.38.38.39.39,0,0,0,.3-.16,1.1,1.1,0,0,0,.27.3c.15.14.3.27.3.48v.5h.25v-.37c0-.21.18-.34.37-.48a1.15,1.15,0,0,0,.3-.28h.08a.38.38,0,0,0,.38-.38.38.38,0,0,0,0-.75Zm-1.52,1.08a1.29,1.29,0,0,1-.2-.21h.09a.36.36,0,0,0,.25-.1v.43A.86.86,0,0,0,26.92,21.39Zm.61.12-.22.17v-.59a.39.39,0,0,0,.25.1.32.32,0,0,0,.14,0,.54.54,0,0,0,.07.13A1.33,1.33,0,0,1,27.53,21.51Zm-4.34,3.8h0a.27.27,0,0,0,0-.12.38.38,0,0,0-.38-.38.35.35,0,0,0-.14,0,.37.37,0,0,0-.36-.28.38.38,0,0,0-.27.12.37.37,0,0,0-.35-.24.38.38,0,0,0-.38.37v0a.27.27,0,0,0-.12,0,.38.38,0,0,0-.38.38.38.38,0,0,0-.37.37.38.38,0,0,0,.17.32.37.37,0,0,0-.05.18.38.38,0,0,0,.38.38.39.39,0,0,0,.3-.16,1.1,1.1,0,0,0,.27.3c.15.14.3.27.3.48v.5h.25v-.37c0-.21.18-.34.37-.48a1.15,1.15,0,0,0,.3-.28h.08a.38.38,0,0,0,.38-.38.38.38,0,0,0,0-.75Zm-1.52,1.08a1.29,1.29,0,0,1-.2-.21h.09a.36.36,0,0,0,.25-.1v.43A.86.86,0,0,0,21.67,26.39Zm.61.12-.22.17v-.59a.39.39,0,0,0,.25.1.32.32,0,0,0,.14,0,.54.54,0,0,0,.07.13A1.33,1.33,0,0,1,22.28,26.51Zm7.41,1.3h0a.27.27,0,0,0,0-.12.38.38,0,0,0-.38-.38.35.35,0,0,0-.14,0,.37.37,0,0,0-.36-.28.38.38,0,0,0-.27.12.37.37,0,0,0-.35-.24.38.38,0,0,0-.38.37v0a.27.27,0,0,0-.12,0,.38.38,0,0,0-.38.38.38.38,0,0,0-.37.37.38.38,0,0,0,.17.32.37.37,0,0,0-.05.18.38.38,0,0,0,.38.38.39.39,0,0,0,.3-.16,1.1,1.1,0,0,0,.27.3c.15.14.3.27.3.48v.5h.25v-.37c0-.21.18-.34.37-.48a1.15,1.15,0,0,0,.3-.28h.08a.38.38,0,0,0,.38-.38.38.38,0,0,0,0-.75Zm-1.52,1.08a1.29,1.29,0,0,1-.2-.21h.09a.36.36,0,0,0,.25-.1V29A.86.86,0,0,0,28.17,28.89Zm.61.12-.22.17v-.59a.39.39,0,0,0,.25.1.32.32,0,0,0,.14,0,.54.54,0,0,0,.07.13A1.33,1.33,0,0,1,28.78,29Z"/></g><g id="orchard_poly_random_sparse_half-2" data-name="orchard_poly_random_sparse_half"><rect id="bbox_64-2" data-name="bbox_64" class="cls-1" x="32" width="32" height="32"/><path id="orchard_random_sparse-5" data-name="orchard_random_sparse" class="cls-2" d="M36.94,3.06h0a.27.27,0,0,0,0-.12.38.38,0,0,0-.38-.38.35.35,0,0,0-.14,0,.37.37,0,0,0-.36-.28.38.38,0,0,0-.27.12.37.37,0,0,0-.35-.24.38.38,0,0,0-.38.37v0a.27.27,0,0,0-.12,0,.38.38,0,0,0-.38.38.38.38,0,0,0-.37.37.38.38,0,0,0,.17.32.37.37,0,0,0,0,.18.38.38,0,0,0,.38.38A.39.39,0,0,0,35,4a1.1,1.1,0,0,0,.27.3c.15.14.3.27.3.48v.5h.25V4.94c0-.21.18-.34.37-.48a1.15,1.15,0,0,0,.3-.28h.08a.38.38,0,0,0,.38-.38.38.38,0,0,0,0-.75ZM35.42,4.14a1.29,1.29,0,0,1-.2-.21h.09a.36.36,0,0,0,.25-.1v.43A.86.86,0,0,0,35.42,4.14Zm.61.12-.22.17V3.84a.39.39,0,0,0,.25.1.32.32,0,0,0,.14,0,.54.54,0,0,0,.07.13A1.33,1.33,0,0,1,36,4.26Zm8.41,0h0a.27.27,0,0,0,0-.12.38.38,0,0,0-.38-.38.35.35,0,0,0-.14,0,.37.37,0,0,0-.36-.28.38.38,0,0,0-.27.12.37.37,0,0,0-.35-.24.38.38,0,0,0-.38.37v0a.27.27,0,0,0-.12,0,.38.38,0,0,0-.38.38.38.38,0,0,0-.37.37.38.38,0,0,0,.17.32.37.37,0,0,0,0,.18.38.38,0,0,0,.38.38.39.39,0,0,0,.3-.16,1.1,1.1,0,0,0,.27.3c.15.14.3.27.3.48v.5h.25V6.19c0-.21.18-.34.37-.48a1.15,1.15,0,0,0,.3-.28h.08a.38.38,0,0,0,.38-.38.38.38,0,0,0,0-.75ZM42.92,5.39a1.29,1.29,0,0,1-.2-.21h.09a.36.36,0,0,0,.25-.1v.43A.86.86,0,0,0,42.92,5.39Zm.61.12-.22.17V5.09a.39.39,0,0,0,.25.1.32.32,0,0,0,.14,0,.54.54,0,0,0,.07.13A1.33,1.33,0,0,1,43.53,5.51Zm-4.34,3.8h0a.27.27,0,0,0,0-.12.38.38,0,0,0-.38-.38.35.35,0,0,0-.14,0,.37.37,0,0,0-.36-.28.38.38,0,0,0-.27.12.37.37,0,0,0-.35-.24.38.38,0,0,0-.38.37v0l-.12,0a.38.38,0,0,0-.38.38.38.38,0,0,0-.37.37.38.38,0,0,0,.17.32.37.37,0,0,0,0,.18.38.38,0,0,0,.38.38.39.39,0,0,0,.3-.16,1.1,1.1,0,0,0,.27.3c.15.14.3.27.3.48v.5h.25v-.37c0-.21.18-.34.37-.48a1.15,1.15,0,0,0,.3-.28h.08a.38.38,0,0,0,.38-.38.38.38,0,0,0,0-.75Zm-1.52,1.08a1.29,1.29,0,0,1-.2-.21h.09a.36.36,0,0,0,.25-.1v.43A.86.86,0,0,0,37.67,10.39Zm.61.12-.22.17v-.59a.39.39,0,0,0,.25.1.32.32,0,0,0,.14,0,.54.54,0,0,0,.07.13A1.33,1.33,0,0,1,38.28,10.51Zm7.41,1.3h0a.27.27,0,0,0,0-.12.38.38,0,0,0-.38-.38.35.35,0,0,0-.14,0,.37.37,0,0,0-.36-.28.38.38,0,0,0-.27.12.37.37,0,0,0-.35-.24.38.38,0,0,0-.38.37v0l-.12,0a.38.38,0,0,0-.38.38.38.38,0,0,0-.37.37.38.38,0,0,0,.17.32.37.37,0,0,0,0,.18.38.38,0,0,0,.38.38.39.39,0,0,0,.3-.16,1.1,1.1,0,0,0,.27.3c.15.14.3.27.3.48v.5h.25v-.37c0-.21.18-.34.37-.48a1.15,1.15,0,0,0,.3-.28h.08a.38.38,0,0,0,.38-.38.38.38,0,0,0,0-.75Zm-1.52,1.08a1.29,1.29,0,0,1-.2-.21h.09a.36.36,0,0,0,.25-.1V13A.86.86,0,0,0,44.17,12.89Zm.61.12-.22.17v-.59a.39.39,0,0,0,.25.1.32.32,0,0,0,.14,0,.54.54,0,0,0,.07.13A1.33,1.33,0,0,1,44.78,13Z"/><path id="orchard_random_sparse-6" data-name="orchard_random_sparse" class="cls-2" d="M36.94,19.06h0a.27.27,0,0,0,0-.12.38.38,0,0,0-.38-.38.35.35,0,0,0-.14,0,.37.37,0,0,0-.36-.28.38.38,0,0,0-.27.12.37.37,0,0,0-.35-.24.38.38,0,0,0-.38.37v0a.27.27,0,0,0-.12,0,.38.38,0,0,0-.38.38.38.38,0,0,0-.37.37.38.38,0,0,0,.17.32.37.37,0,0,0,0,.18.38.38,0,0,0,.38.38A.39.39,0,0,0,35,20a1.1,1.1,0,0,0,.27.3c.15.14.3.27.3.48v.5h.25v-.37c0-.21.18-.34.37-.48a1.15,1.15,0,0,0,.3-.28h.08a.38.38,0,0,0,.38-.38.38.38,0,0,0,0-.75Zm-1.52,1.08a1.29,1.29,0,0,1-.2-.21h.09a.36.36,0,0,0,.25-.1v.43A.86.86,0,0,0,35.42,20.14Zm.61.12-.22.17v-.59a.39.39,0,0,0,.25.1.32.32,0,0,0,.14,0,.54.54,0,0,0,.07.13A1.33,1.33,0,0,1,36,20.26Zm8.41,0h0a.27.27,0,0,0,0-.12.38.38,0,0,0-.38-.38.35.35,0,0,0-.14,0,.37.37,0,0,0-.36-.28.38.38,0,0,0-.27.12.37.37,0,0,0-.35-.24.38.38,0,0,0-.38.37v0a.27.27,0,0,0-.12,0,.38.38,0,0,0-.38.38.38.38,0,0,0-.37.37.38.38,0,0,0,.17.32.37.37,0,0,0,0,.18.38.38,0,0,0,.38.38.39.39,0,0,0,.3-.16,1.1,1.1,0,0,0,.27.3c.15.14.3.27.3.48v.5h.25v-.37c0-.21.18-.34.37-.48a1.15,1.15,0,0,0,.3-.28h.08a.38.38,0,0,0,.38-.38.38.38,0,0,0,0-.75Zm-1.52,1.08a1.29,1.29,0,0,1-.2-.21h.09a.36.36,0,0,0,.25-.1v.43A.86.86,0,0,0,42.92,21.39Zm.61.12-.22.17v-.59a.39.39,0,0,0,.25.1.32.32,0,0,0,.14,0,.54.54,0,0,0,.07.13A1.33,1.33,0,0,1,43.53,21.51Zm-4.34,3.8h0a.27.27,0,0,0,0-.12.38.38,0,0,0-.38-.38.35.35,0,0,0-.14,0,.37.37,0,0,0-.36-.28.38.38,0,0,0-.27.12.37.37,0,0,0-.35-.24.38.38,0,0,0-.38.37v0a.27.27,0,0,0-.12,0,.38.38,0,0,0-.38.38.38.38,0,0,0-.37.37.38.38,0,0,0,.17.32.37.37,0,0,0,0,.18.38.38,0,0,0,.38.38.39.39,0,0,0,.3-.16,1.1,1.1,0,0,0,.27.3c.15.14.3.27.3.48v.5h.25v-.37c0-.21.18-.34.37-.48a1.15,1.15,0,0,0,.3-.28h.08a.38.38,0,0,0,.38-.38.38.38,0,0,0,0-.75Zm-1.52,1.08a1.29,1.29,0,0,1-.2-.21h.09a.36.36,0,0,0,.25-.1v.43A.86.86,0,0,0,37.67,26.39Zm.61.12-.22.17v-.59a.39.39,0,0,0,.25.1.32.32,0,0,0,.14,0,.54.54,0,0,0,.07.13A1.33,1.33,0,0,1,38.28,26.51Zm7.41,1.3h0a.27.27,0,0,0,0-.12.38.38,0,0,0-.38-.38.35.35,0,0,0-.14,0,.37.37,0,0,0-.36-.28.38.38,0,0,0-.27.12.37.37,0,0,0-.35-.24.38.38,0,0,0-.38.37v0a.27.27,0,0,0-.12,0,.38.38,0,0,0-.38.38.38.38,0,0,0-.37.37.38.38,0,0,0,.17.32.37.37,0,0,0,0,.18.38.38,0,0,0,.38.38.39.39,0,0,0,.3-.16,1.1,1.1,0,0,0,.27.3c.15.14.3.27.3.48v.5h.25v-.37c0-.21.18-.34.37-.48a1.15,1.15,0,0,0,.3-.28h.08a.38.38,0,0,0,.38-.38.38.38,0,0,0,0-.75Zm-1.52,1.08a1.29,1.29,0,0,1-.2-.21h.09a.36.36,0,0,0,.25-.1V29A.86.86,0,0,0,44.17,28.89Zm.61.12-.22.17v-.59a.39.39,0,0,0,.25.1.32.32,0,0,0,.14,0,.54.54,0,0,0,.07.13A1.33,1.33,0,0,1,44.78,29Z"/><path id="orchard_random_sparse-7" data-name="orchard_random_sparse" class="cls-2" d="M52.94,3.06h0a.27.27,0,0,0,0-.12.38.38,0,0,0-.38-.38.35.35,0,0,0-.14,0,.37.37,0,0,0-.36-.28.38.38,0,0,0-.27.12.37.37,0,0,0-.35-.24.38.38,0,0,0-.38.37v0a.27.27,0,0,0-.12,0,.38.38,0,0,0-.38.38.38.38,0,0,0-.37.37.38.38,0,0,0,.17.32.37.37,0,0,0,0,.18.38.38,0,0,0,.38.38A.39.39,0,0,0,51,4a1.1,1.1,0,0,0,.27.3c.15.14.3.27.3.48v.5h.25V4.94c0-.21.18-.34.37-.48a1.15,1.15,0,0,0,.3-.28h.08a.38.38,0,0,0,.38-.38.38.38,0,0,0,0-.75ZM51.42,4.14a1.29,1.29,0,0,1-.2-.21h.09a.36.36,0,0,0,.25-.1v.43A.86.86,0,0,0,51.42,4.14Zm.61.12-.22.17V3.84a.39.39,0,0,0,.25.1.32.32,0,0,0,.14,0,.54.54,0,0,0,.07.13A1.33,1.33,0,0,1,52,4.26Zm8.41,0h0a.27.27,0,0,0,0-.12.38.38,0,0,0-.38-.38.35.35,0,0,0-.14,0,.37.37,0,0,0-.36-.28.38.38,0,0,0-.27.12.37.37,0,0,0-.35-.24.38.38,0,0,0-.38.37v0a.27.27,0,0,0-.12,0,.38.38,0,0,0-.38.38.38.38,0,0,0-.37.37.38.38,0,0,0,.17.32.37.37,0,0,0,0,.18.38.38,0,0,0,.38.38.39.39,0,0,0,.3-.16,1.1,1.1,0,0,0,.27.3c.15.14.3.27.3.48v.5h.25V6.19c0-.21.18-.34.37-.48a1.15,1.15,0,0,0,.3-.28h.08a.38.38,0,0,0,.38-.38.38.38,0,0,0,0-.75ZM58.92,5.39a1.29,1.29,0,0,1-.2-.21h.09a.36.36,0,0,0,.25-.1v.43A.86.86,0,0,0,58.92,5.39Zm.61.12-.22.17V5.09a.39.39,0,0,0,.25.1.32.32,0,0,0,.14,0,.54.54,0,0,0,.07.13A1.33,1.33,0,0,1,59.53,5.51Zm-4.34,3.8h0a.27.27,0,0,0,0-.12.38.38,0,0,0-.38-.38.35.35,0,0,0-.14,0,.37.37,0,0,0-.36-.28.38.38,0,0,0-.27.12.37.37,0,0,0-.35-.24.38.38,0,0,0-.38.37v0l-.12,0a.38.38,0,0,0-.38.38.38.38,0,0,0-.37.37.38.38,0,0,0,.17.32.37.37,0,0,0,0,.18.38.38,0,0,0,.38.38.39.39,0,0,0,.3-.16,1.1,1.1,0,0,0,.27.3c.15.14.3.27.3.48v.5h.25v-.37c0-.21.18-.34.37-.48a1.15,1.15,0,0,0,.3-.28h.08a.38.38,0,0,0,.38-.38.38.38,0,0,0,0-.75Zm-1.52,1.08a1.29,1.29,0,0,1-.2-.21h.09a.36.36,0,0,0,.25-.1v.43A.86.86,0,0,0,53.67,10.39Zm.61.12-.22.17v-.59a.39.39,0,0,0,.25.1.32.32,0,0,0,.14,0,.54.54,0,0,0,.07.13A1.33,1.33,0,0,1,54.28,10.51Zm7.41,1.3h0a.27.27,0,0,0,0-.12.38.38,0,0,0-.38-.38.35.35,0,0,0-.14,0,.37.37,0,0,0-.36-.28.38.38,0,0,0-.27.12.37.37,0,0,0-.35-.24.38.38,0,0,0-.38.37v0l-.12,0a.38.38,0,0,0-.38.38.38.38,0,0,0-.37.37.38.38,0,0,0,.17.32.37.37,0,0,0,0,.18.38.38,0,0,0,.38.38.39.39,0,0,0,.3-.16,1.1,1.1,0,0,0,.27.3c.15.14.3.27.3.48v.5h.25v-.37c0-.21.18-.34.37-.48a1.15,1.15,0,0,0,.3-.28h.08a.38.38,0,0,0,.38-.38.38.38,0,0,0,0-.75Zm-1.52,1.08a1.29,1.29,0,0,1-.2-.21h.09a.36.36,0,0,0,.25-.1V13A.86.86,0,0,0,60.17,12.89Zm.61.12-.22.17v-.59a.39.39,0,0,0,.25.1.32.32,0,0,0,.14,0,.54.54,0,0,0,.07.13A1.33,1.33,0,0,1,60.78,13Z"/><path id="orchard_random_sparse-8" data-name="orchard_random_sparse" class="cls-2" d="M52.94,19.06h0a.27.27,0,0,0,0-.12.38.38,0,0,0-.38-.38.35.35,0,0,0-.14,0,.37.37,0,0,0-.36-.28.38.38,0,0,0-.27.12.37.37,0,0,0-.35-.24.38.38,0,0,0-.38.37v0a.27.27,0,0,0-.12,0,.38.38,0,0,0-.38.38.38.38,0,0,0-.37.37.38.38,0,0,0,.17.32.37.37,0,0,0,0,.18.38.38,0,0,0,.38.38A.39.39,0,0,0,51,20a1.1,1.1,0,0,0,.27.3c.15.14.3.27.3.48v.5h.25v-.37c0-.21.18-.34.37-.48a1.15,1.15,0,0,0,.3-.28h.08a.38.38,0,0,0,.38-.38.38.38,0,0,0,0-.75Zm-1.52,1.08a1.29,1.29,0,0,1-.2-.21h.09a.36.36,0,0,0,.25-.1v.43A.86.86,0,0,0,51.42,20.14Zm.61.12-.22.17v-.59a.39.39,0,0,0,.25.1.32.32,0,0,0,.14,0,.54.54,0,0,0,.07.13A1.33,1.33,0,0,1,52,20.26Zm8.41,0h0a.27.27,0,0,0,0-.12.38.38,0,0,0-.38-.38.35.35,0,0,0-.14,0,.37.37,0,0,0-.36-.28.38.38,0,0,0-.27.12.37.37,0,0,0-.35-.24.38.38,0,0,0-.38.37v0a.27.27,0,0,0-.12,0,.38.38,0,0,0-.38.38.38.38,0,0,0-.37.37.38.38,0,0,0,.17.32.37.37,0,0,0,0,.18.38.38,0,0,0,.38.38.39.39,0,0,0,.3-.16,1.1,1.1,0,0,0,.27.3c.15.14.3.27.3.48v.5h.25v-.37c0-.21.18-.34.37-.48a1.15,1.15,0,0,0,.3-.28h.08a.38.38,0,0,0,.38-.38.38.38,0,0,0,0-.75Zm-1.52,1.08a1.29,1.29,0,0,1-.2-.21h.09a.36.36,0,0,0,.25-.1v.43A.86.86,0,0,0,58.92,21.39Zm.61.12-.22.17v-.59a.39.39,0,0,0,.25.1.32.32,0,0,0,.14,0,.54.54,0,0,0,.07.13A1.33,1.33,0,0,1,59.53,21.51Zm-4.34,3.8h0a.27.27,0,0,0,0-.12.38.38,0,0,0-.38-.38.35.35,0,0,0-.14,0,.37.37,0,0,0-.36-.28.38.38,0,0,0-.27.12.37.37,0,0,0-.35-.24.38.38,0,0,0-.38.37v0a.27.27,0,0,0-.12,0,.38.38,0,0,0-.38.38.38.38,0,0,0-.37.37.38.38,0,0,0,.17.32.37.37,0,0,0,0,.18.38.38,0,0,0,.38.38.39.39,0,0,0,.3-.16,1.1,1.1,0,0,0,.27.3c.15.14.3.27.3.48v.5h.25v-.37c0-.21.18-.34.37-.48a1.15,1.15,0,0,0,.3-.28h.08a.38.38,0,0,0,.38-.38.38.38,0,0,0,0-.75Zm-1.52,1.08a1.29,1.29,0,0,1-.2-.21h.09a.36.36,0,0,0,.25-.1v.43A.86.86,0,0,0,53.67,26.39Zm.61.12-.22.17v-.59a.39.39,0,0,0,.25.1.32.32,0,0,0,.14,0,.54.54,0,0,0,.07.13A1.33,1.33,0,0,1,54.28,26.51Zm7.41,1.3h0a.27.27,0,0,0,0-.12.38.38,0,0,0-.38-.38.35.35,0,0,0-.14,0,.37.37,0,0,0-.36-.28.38.38,0,0,0-.27.12.37.37,0,0,0-.35-.24.38.38,0,0,0-.38.37v0a.27.27,0,0,0-.12,0,.38.38,0,0,0-.38.38.38.38,0,0,0-.37.37.38.38,0,0,0,.17.32.37.37,0,0,0,0,.18.38.38,0,0,0,.38.38.39.39,0,0,0,.3-.16,1.1,1.1,0,0,0,.27.3c.15.14.3.27.3.48v.5h.25v-.37c0-.21.18-.34.37-.48a1.15,1.15,0,0,0,.3-.28h.08a.38.38,0,0,0,.38-.38.38.38,0,0,0,0-.75Zm-1.52,1.08a1.29,1.29,0,0,1-.2-.21h.09a.36.36,0,0,0,.25-.1V29A.86.86,0,0,0,60.17,28.89Zm.61.12-.22.17v-.59a.39.39,0,0,0,.25.1.32.32,0,0,0,.14,0,.54.54,0,0,0,.07.13A1.33,1.33,0,0,1,60.78,29Z"/></g><g id="orchard_poly_random_sparse_half-3" data-name="orchard_poly_random_sparse_half"><rect id="bbox_64-3" data-name="bbox_64" class="cls-1" y="32" width="32" height="32"/><path id="orchard_random_sparse-9" data-name="orchard_random_sparse" class="cls-2" d="M4.94,35.06h0a.27.27,0,0,0,0-.12.38.38,0,0,0-.38-.38.35.35,0,0,0-.14,0,.37.37,0,0,0-.36-.28.38.38,0,0,0-.27.12.37.37,0,0,0-.35-.24.38.38,0,0,0-.38.37v0a.27.27,0,0,0-.12,0,.38.38,0,0,0-.38.38.38.38,0,0,0-.37.37.38.38,0,0,0,.17.32.37.37,0,0,0,0,.18.38.38,0,0,0,.38.38A.39.39,0,0,0,3,36a1.1,1.1,0,0,0,.27.3c.15.14.3.27.3.48v.5h.25v-.37c0-.21.18-.34.37-.48a1.15,1.15,0,0,0,.3-.28h.08a.38.38,0,0,0,.38-.38.38.38,0,0,0,0-.75ZM3.42,36.14a1.29,1.29,0,0,1-.2-.21h.09a.36.36,0,0,0,.25-.1v.43A.86.86,0,0,0,3.42,36.14Zm.61.12-.22.17v-.59a.39.39,0,0,0,.25.1.32.32,0,0,0,.14,0,.54.54,0,0,0,.07.13A1.33,1.33,0,0,1,4,36.26Zm8.41.05h0a.27.27,0,0,0,0-.12.38.38,0,0,0-.38-.38.35.35,0,0,0-.14,0,.37.37,0,0,0-.36-.28.38.38,0,0,0-.27.12.37.37,0,0,0-.35-.24.38.38,0,0,0-.38.37v0a.27.27,0,0,0-.12,0,.38.38,0,0,0-.38.38.38.38,0,0,0-.37.37.38.38,0,0,0,.17.32.37.37,0,0,0,0,.18.38.38,0,0,0,.38.38.39.39,0,0,0,.3-.16,1.1,1.1,0,0,0,.27.3c.15.14.3.27.3.48v.5h.25v-.37c0-.21.18-.34.37-.48a1.15,1.15,0,0,0,.3-.28h.08a.38.38,0,0,0,.38-.38.38.38,0,0,0,0-.75Zm-1.52,1.08a1.29,1.29,0,0,1-.2-.21h.09a.36.36,0,0,0,.25-.1v.43A.86.86,0,0,0,10.92,37.39Zm.61.12-.22.17v-.59a.39.39,0,0,0,.25.1.32.32,0,0,0,.14,0,.54.54,0,0,0,.07.13A1.33,1.33,0,0,1,11.53,37.51Zm-4.34,3.8h0a.27.27,0,0,0,0-.12.38.38,0,0,0-.38-.38.35.35,0,0,0-.14,0,.37.37,0,0,0-.36-.28.38.38,0,0,0-.27.12.37.37,0,0,0-.35-.24.38.38,0,0,0-.38.37v0a.27.27,0,0,0-.12,0,.38.38,0,0,0-.38.38.38.38,0,0,0-.37.37.38.38,0,0,0,.17.32.37.37,0,0,0-.05.18.38.38,0,0,0,.38.38.39.39,0,0,0,.3-.16,1.1,1.1,0,0,0,.27.3c.15.14.3.27.3.48v.5h.25v-.37c0-.21.18-.34.37-.48a1.15,1.15,0,0,0,.3-.28h.08a.38.38,0,0,0,.38-.38.38.38,0,0,0,0-.75ZM5.67,42.39a1.29,1.29,0,0,1-.2-.21h.09a.36.36,0,0,0,.25-.1v.43A.86.86,0,0,0,5.67,42.39Zm.61.12-.22.17v-.59a.39.39,0,0,0,.25.1.32.32,0,0,0,.14,0,.54.54,0,0,0,.07.13A1.33,1.33,0,0,1,6.28,42.51Zm7.41,1.3h0a.27.27,0,0,0,0-.12.38.38,0,0,0-.38-.38.35.35,0,0,0-.14,0,.37.37,0,0,0-.36-.28.38.38,0,0,0-.27.12.37.37,0,0,0-.35-.24.38.38,0,0,0-.38.37v0a.27.27,0,0,0-.12,0,.38.38,0,0,0-.38.38.38.38,0,0,0-.37.37.38.38,0,0,0,.17.32.37.37,0,0,0,0,.18.38.38,0,0,0,.38.38.39.39,0,0,0,.3-.16,1.1,1.1,0,0,0,.27.3c.15.14.3.27.3.48v.5h.25v-.37c0-.21.18-.34.37-.48a1.15,1.15,0,0,0,.3-.28h.08a.38.38,0,0,0,.38-.38.38.38,0,0,0,0-.75Zm-1.52,1.08a1.29,1.29,0,0,1-.2-.21h.09a.36.36,0,0,0,.25-.1V45A.86.86,0,0,0,12.17,44.89Zm.61.12-.22.17v-.59a.39.39,0,0,0,.25.1.32.32,0,0,0,.14,0,.54.54,0,0,0,.07.13A1.33,1.33,0,0,1,12.78,45Z"/><path id="orchard_random_sparse-10" data-name="orchard_random_sparse" class="cls-2" d="M4.94,51.06h0a.27.27,0,0,0,0-.12.38.38,0,0,0-.38-.38.35.35,0,0,0-.14,0,.37.37,0,0,0-.36-.28.38.38,0,0,0-.27.12.37.37,0,0,0-.35-.24.38.38,0,0,0-.38.37v0a.27.27,0,0,0-.12,0,.38.38,0,0,0-.38.38.38.38,0,0,0-.37.37.38.38,0,0,0,.17.32.37.37,0,0,0,0,.18.38.38,0,0,0,.38.38A.39.39,0,0,0,3,52a1.1,1.1,0,0,0,.27.3c.15.14.3.27.3.48v.5h.25v-.37c0-.21.18-.34.37-.48a1.15,1.15,0,0,0,.3-.28h.08a.38.38,0,0,0,.38-.38.38.38,0,0,0,0-.75ZM3.42,52.14a1.29,1.29,0,0,1-.2-.21h.09a.36.36,0,0,0,.25-.1v.43A.86.86,0,0,0,3.42,52.14Zm.61.12-.22.17v-.59a.39.39,0,0,0,.25.1.32.32,0,0,0,.14,0,.54.54,0,0,0,.07.13A1.33,1.33,0,0,1,4,52.26Zm8.41.05h0a.27.27,0,0,0,0-.12.38.38,0,0,0-.38-.38.35.35,0,0,0-.14,0,.37.37,0,0,0-.36-.28.38.38,0,0,0-.27.12.37.37,0,0,0-.35-.24.38.38,0,0,0-.38.37v0a.27.27,0,0,0-.12,0,.38.38,0,0,0-.38.38.38.38,0,0,0-.37.37.38.38,0,0,0,.17.32.37.37,0,0,0,0,.18.38.38,0,0,0,.38.38.39.39,0,0,0,.3-.16,1.1,1.1,0,0,0,.27.3c.15.14.3.27.3.48v.5h.25v-.37c0-.21.18-.34.37-.48a1.15,1.15,0,0,0,.3-.28h.08a.38.38,0,0,0,.38-.38.38.38,0,0,0,0-.75Zm-1.52,1.08a1.29,1.29,0,0,1-.2-.21h.09a.36.36,0,0,0,.25-.1v.43A.86.86,0,0,0,10.92,53.39Zm.61.12-.22.17v-.59a.39.39,0,0,0,.25.1.32.32,0,0,0,.14,0,.54.54,0,0,0,.07.13A1.33,1.33,0,0,1,11.53,53.51Zm-4.34,3.8h0a.27.27,0,0,0,0-.12.38.38,0,0,0-.38-.38.35.35,0,0,0-.14,0,.37.37,0,0,0-.36-.28.38.38,0,0,0-.27.12.37.37,0,0,0-.35-.24.38.38,0,0,0-.38.37v0a.27.27,0,0,0-.12,0,.38.38,0,0,0-.38.38.38.38,0,0,0-.37.37.38.38,0,0,0,.17.32.37.37,0,0,0-.05.18.38.38,0,0,0,.38.38.39.39,0,0,0,.3-.16,1.1,1.1,0,0,0,.27.3c.15.14.3.27.3.48v.5h.25v-.37c0-.21.18-.34.37-.48a1.15,1.15,0,0,0,.3-.28h.08a.38.38,0,0,0,.38-.38.38.38,0,0,0,0-.75ZM5.67,58.39a1.29,1.29,0,0,1-.2-.21h.09a.36.36,0,0,0,.25-.1v.43A.86.86,0,0,0,5.67,58.39Zm.61.12-.22.17v-.59a.39.39,0,0,0,.25.1.32.32,0,0,0,.14,0,.54.54,0,0,0,.07.13A1.33,1.33,0,0,1,6.28,58.51Zm7.41,1.3h0a.27.27,0,0,0,0-.12.38.38,0,0,0-.38-.38.35.35,0,0,0-.14,0,.37.37,0,0,0-.36-.28.38.38,0,0,0-.27.12.37.37,0,0,0-.35-.24.38.38,0,0,0-.38.37v0a.27.27,0,0,0-.12,0,.38.38,0,0,0-.38.38.38.38,0,0,0-.37.37.38.38,0,0,0,.17.32.37.37,0,0,0,0,.18.38.38,0,0,0,.38.38.39.39,0,0,0,.3-.16,1.1,1.1,0,0,0,.27.3c.15.14.3.27.3.48v.5h.25v-.37c0-.21.18-.34.37-.48a1.15,1.15,0,0,0,.3-.28h.08a.38.38,0,0,0,.38-.38.38.38,0,0,0,0-.75Zm-1.52,1.08a1.29,1.29,0,0,1-.2-.21h.09a.36.36,0,0,0,.25-.1V61A.86.86,0,0,0,12.17,60.89Zm.61.12-.22.17v-.59a.39.39,0,0,0,.25.1.32.32,0,0,0,.14,0,.54.54,0,0,0,.07.13A1.33,1.33,0,0,1,12.78,61Z"/><path id="orchard_random_sparse-11" data-name="orchard_random_sparse" class="cls-2" d="M20.94,35.06h0a.27.27,0,0,0,0-.12.38.38,0,0,0-.38-.38.35.35,0,0,0-.14,0,.37.37,0,0,0-.36-.28.38.38,0,0,0-.27.12.37.37,0,0,0-.35-.24.38.38,0,0,0-.38.37v0a.27.27,0,0,0-.12,0,.38.38,0,0,0-.38.38.38.38,0,0,0-.37.37.38.38,0,0,0,.17.32.37.37,0,0,0-.05.18.38.38,0,0,0,.38.38A.39.39,0,0,0,19,36a1.1,1.1,0,0,0,.27.3c.15.14.3.27.3.48v.5h.25v-.37c0-.21.18-.34.37-.48a1.15,1.15,0,0,0,.3-.28h.08a.38.38,0,0,0,.38-.38.38.38,0,0,0,0-.75Zm-1.52,1.08a1.29,1.29,0,0,1-.2-.21h.09a.36.36,0,0,0,.25-.1v.43A.86.86,0,0,0,19.42,36.14Zm.61.12-.22.17v-.59a.39.39,0,0,0,.25.1.32.32,0,0,0,.14,0,.54.54,0,0,0,.07.13A1.33,1.33,0,0,1,20,36.26Zm8.41.05h0a.27.27,0,0,0,0-.12.38.38,0,0,0-.38-.38.35.35,0,0,0-.14,0,.37.37,0,0,0-.36-.28.38.38,0,0,0-.27.12.37.37,0,0,0-.35-.24.38.38,0,0,0-.38.37v0a.27.27,0,0,0-.12,0,.38.38,0,0,0-.38.38.38.38,0,0,0-.37.37.38.38,0,0,0,.17.32.37.37,0,0,0-.05.18.38.38,0,0,0,.38.38.39.39,0,0,0,.3-.16,1.1,1.1,0,0,0,.27.3c.15.14.3.27.3.48v.5h.25v-.37c0-.21.18-.34.37-.48a1.15,1.15,0,0,0,.3-.28h.08a.38.38,0,0,0,.38-.38.38.38,0,0,0,0-.75Zm-1.52,1.08a1.29,1.29,0,0,1-.2-.21h.09a.36.36,0,0,0,.25-.1v.43A.86.86,0,0,0,26.92,37.39Zm.61.12-.22.17v-.59a.39.39,0,0,0,.25.1.32.32,0,0,0,.14,0,.54.54,0,0,0,.07.13A1.33,1.33,0,0,1,27.53,37.51Zm-4.34,3.8h0a.27.27,0,0,0,0-.12.38.38,0,0,0-.38-.38.35.35,0,0,0-.14,0,.37.37,0,0,0-.36-.28.38.38,0,0,0-.27.12.37.37,0,0,0-.35-.24.38.38,0,0,0-.38.37v0a.27.27,0,0,0-.12,0,.38.38,0,0,0-.38.38.38.38,0,0,0-.37.37.38.38,0,0,0,.17.32.37.37,0,0,0-.05.18.38.38,0,0,0,.38.38.39.39,0,0,0,.3-.16,1.1,1.1,0,0,0,.27.3c.15.14.3.27.3.48v.5h.25v-.37c0-.21.18-.34.37-.48a1.15,1.15,0,0,0,.3-.28h.08a.38.38,0,0,0,.38-.38.38.38,0,0,0,0-.75Zm-1.52,1.08a1.29,1.29,0,0,1-.2-.21h.09a.36.36,0,0,0,.25-.1v.43A.86.86,0,0,0,21.67,42.39Zm.61.12-.22.17v-.59a.39.39,0,0,0,.25.1.32.32,0,0,0,.14,0,.54.54,0,0,0,.07.13A1.33,1.33,0,0,1,22.28,42.51Zm7.41,1.3h0a.27.27,0,0,0,0-.12.38.38,0,0,0-.38-.38.35.35,0,0,0-.14,0,.37.37,0,0,0-.36-.28.38.38,0,0,0-.27.12.37.37,0,0,0-.35-.24.38.38,0,0,0-.38.37v0a.27.27,0,0,0-.12,0,.38.38,0,0,0-.38.38.38.38,0,0,0-.37.37.38.38,0,0,0,.17.32.37.37,0,0,0-.05.18.38.38,0,0,0,.38.38.39.39,0,0,0,.3-.16,1.1,1.1,0,0,0,.27.3c.15.14.3.27.3.48v.5h.25v-.37c0-.21.18-.34.37-.48a1.15,1.15,0,0,0,.3-.28h.08a.38.38,0,0,0,.38-.38.38.38,0,0,0,0-.75Zm-1.52,1.08a1.29,1.29,0,0,1-.2-.21h.09a.36.36,0,0,0,.25-.1V45A.86.86,0,0,0,28.17,44.89Zm.61.12-.22.17v-.59a.39.39,0,0,0,.25.1.32.32,0,0,0,.14,0,.54.54,0,0,0,.07.13A1.33,1.33,0,0,1,28.78,45Z"/><path id="orchard_random_sparse-12" data-name="orchard_random_sparse" class="cls-2" d="M20.94,51.06h0a.27.27,0,0,0,0-.12.38.38,0,0,0-.38-.38.35.35,0,0,0-.14,0,.37.37,0,0,0-.36-.28.38.38,0,0,0-.27.12.37.37,0,0,0-.35-.24.38.38,0,0,0-.38.37v0a.27.27,0,0,0-.12,0,.38.38,0,0,0-.38.38.38.38,0,0,0-.37.37.38.38,0,0,0,.17.32.37.37,0,0,0-.05.18.38.38,0,0,0,.38.38A.39.39,0,0,0,19,52a1.1,1.1,0,0,0,.27.3c.15.14.3.27.3.48v.5h.25v-.37c0-.21.18-.34.37-.48a1.15,1.15,0,0,0,.3-.28h.08a.38.38,0,0,0,.38-.38.38.38,0,0,0,0-.75Zm-1.52,1.08a1.29,1.29,0,0,1-.2-.21h.09a.36.36,0,0,0,.25-.1v.43A.86.86,0,0,0,19.42,52.14Zm.61.12-.22.17v-.59a.39.39,0,0,0,.25.1.32.32,0,0,0,.14,0,.54.54,0,0,0,.07.13A1.33,1.33,0,0,1,20,52.26Zm8.41.05h0a.27.27,0,0,0,0-.12.38.38,0,0,0-.38-.38.35.35,0,0,0-.14,0,.37.37,0,0,0-.36-.28.38.38,0,0,0-.27.12.37.37,0,0,0-.35-.24.38.38,0,0,0-.38.37v0a.27.27,0,0,0-.12,0,.38.38,0,0,0-.38.38.38.38,0,0,0-.37.37.38.38,0,0,0,.17.32.37.37,0,0,0-.05.18.38.38,0,0,0,.38.38.39.39,0,0,0,.3-.16,1.1,1.1,0,0,0,.27.3c.15.14.3.27.3.48v.5h.25v-.37c0-.21.18-.34.37-.48a1.15,1.15,0,0,0,.3-.28h.08a.38.38,0,0,0,.38-.38.38.38,0,0,0,0-.75Zm-1.52,1.08a1.29,1.29,0,0,1-.2-.21h.09a.36.36,0,0,0,.25-.1v.43A.86.86,0,0,0,26.92,53.39Zm.61.12-.22.17v-.59a.39.39,0,0,0,.25.1.32.32,0,0,0,.14,0,.54.54,0,0,0,.07.13A1.33,1.33,0,0,1,27.53,53.51Zm-4.34,3.8h0a.27.27,0,0,0,0-.12.38.38,0,0,0-.38-.38.35.35,0,0,0-.14,0,.37.37,0,0,0-.36-.28.38.38,0,0,0-.27.12.37.37,0,0,0-.35-.24.38.38,0,0,0-.38.37v0a.27.27,0,0,0-.12,0,.38.38,0,0,0-.38.38.38.38,0,0,0-.37.37.38.38,0,0,0,.17.32.37.37,0,0,0-.05.18.38.38,0,0,0,.38.38.39.39,0,0,0,.3-.16,1.1,1.1,0,0,0,.27.3c.15.14.3.27.3.48v.5h.25v-.37c0-.21.18-.34.37-.48a1.15,1.15,0,0,0,.3-.28h.08a.38.38,0,0,0,.38-.38.38.38,0,0,0,0-.75Zm-1.52,1.08a1.29,1.29,0,0,1-.2-.21h.09a.36.36,0,0,0,.25-.1v.43A.86.86,0,0,0,21.67,58.39Zm.61.12-.22.17v-.59a.39.39,0,0,0,.25.1.32.32,0,0,0,.14,0,.54.54,0,0,0,.07.13A1.33,1.33,0,0,1,22.28,58.51Zm7.41,1.3h0a.27.27,0,0,0,0-.12.38.38,0,0,0-.38-.38.35.35,0,0,0-.14,0,.37.37,0,0,0-.36-.28.38.38,0,0,0-.27.12.37.37,0,0,0-.35-.24.38.38,0,0,0-.38.37v0a.27.27,0,0,0-.12,0,.38.38,0,0,0-.38.38.38.38,0,0,0-.37.37.38.38,0,0,0,.17.32.37.37,0,0,0-.05.18.38.38,0,0,0,.38.38.39.39,0,0,0,.3-.16,1.1,1.1,0,0,0,.27.3c.15.14.3.27.3.48v.5h.25v-.37c0-.21.18-.34.37-.48a1.15,1.15,0,0,0,.3-.28h.08a.38.38,0,0,0,.38-.38.38.38,0,0,0,0-.75Zm-1.52,1.08a1.29,1.29,0,0,1-.2-.21h.09a.36.36,0,0,0,.25-.1V61A.86.86,0,0,0,28.17,60.89Zm.61.12-.22.17v-.59a.39.39,0,0,0,.25.1.32.32,0,0,0,.14,0,.54.54,0,0,0,.07.13A1.33,1.33,0,0,1,28.78,61Z"/></g><g id="orchard_poly_random_sparse_half-4" data-name="orchard_poly_random_sparse_half"><rect id="bbox_64-4" data-name="bbox_64" class="cls-1" x="32" y="32" width="32" height="32"/><path id="orchard_random_sparse-13" data-name="orchard_random_sparse" class="cls-2" d="M36.94,35.06h0a.27.27,0,0,0,0-.12.38.38,0,0,0-.38-.38.35.35,0,0,0-.14,0,.37.37,0,0,0-.36-.28.38.38,0,0,0-.27.12.37.37,0,0,0-.35-.24.38.38,0,0,0-.38.37v0a.27.27,0,0,0-.12,0,.38.38,0,0,0-.38.38.38.38,0,0,0-.37.37.38.38,0,0,0,.17.32.37.37,0,0,0,0,.18.38.38,0,0,0,.38.38A.39.39,0,0,0,35,36a1.1,1.1,0,0,0,.27.3c.15.14.3.27.3.48v.5h.25v-.37c0-.21.18-.34.37-.48a1.15,1.15,0,0,0,.3-.28h.08a.38.38,0,0,0,.38-.38.38.38,0,0,0,0-.75Zm-1.52,1.08a1.29,1.29,0,0,1-.2-.21h.09a.36.36,0,0,0,.25-.1v.43A.86.86,0,0,0,35.42,36.14Zm.61.12-.22.17v-.59a.39.39,0,0,0,.25.1.32.32,0,0,0,.14,0,.54.54,0,0,0,.07.13A1.33,1.33,0,0,1,36,36.26Zm8.41.05h0a.27.27,0,0,0,0-.12.38.38,0,0,0-.38-.38.35.35,0,0,0-.14,0,.37.37,0,0,0-.36-.28.38.38,0,0,0-.27.12.37.37,0,0,0-.35-.24.38.38,0,0,0-.38.37v0a.27.27,0,0,0-.12,0,.38.38,0,0,0-.38.38.38.38,0,0,0-.37.37.38.38,0,0,0,.17.32.37.37,0,0,0,0,.18.38.38,0,0,0,.38.38.39.39,0,0,0,.3-.16,1.1,1.1,0,0,0,.27.3c.15.14.3.27.3.48v.5h.25v-.37c0-.21.18-.34.37-.48a1.15,1.15,0,0,0,.3-.28h.08a.38.38,0,0,0,.38-.38.38.38,0,0,0,0-.75Zm-1.52,1.08a1.29,1.29,0,0,1-.2-.21h.09a.36.36,0,0,0,.25-.1v.43A.86.86,0,0,0,42.92,37.39Zm.61.12-.22.17v-.59a.39.39,0,0,0,.25.1.32.32,0,0,0,.14,0,.54.54,0,0,0,.07.13A1.33,1.33,0,0,1,43.53,37.51Zm-4.34,3.8h0a.27.27,0,0,0,0-.12.38.38,0,0,0-.38-.38.35.35,0,0,0-.14,0,.37.37,0,0,0-.36-.28.38.38,0,0,0-.27.12.37.37,0,0,0-.35-.24.38.38,0,0,0-.38.37v0a.27.27,0,0,0-.12,0,.38.38,0,0,0-.38.38.38.38,0,0,0-.37.37.38.38,0,0,0,.17.32.37.37,0,0,0,0,.18.38.38,0,0,0,.38.38.39.39,0,0,0,.3-.16,1.1,1.1,0,0,0,.27.3c.15.14.3.27.3.48v.5h.25v-.37c0-.21.18-.34.37-.48a1.15,1.15,0,0,0,.3-.28h.08a.38.38,0,0,0,.38-.38.38.38,0,0,0,0-.75Zm-1.52,1.08a1.29,1.29,0,0,1-.2-.21h.09a.36.36,0,0,0,.25-.1v.43A.86.86,0,0,0,37.67,42.39Zm.61.12-.22.17v-.59a.39.39,0,0,0,.25.1.32.32,0,0,0,.14,0,.54.54,0,0,0,.07.13A1.33,1.33,0,0,1,38.28,42.51Zm7.41,1.3h0a.27.27,0,0,0,0-.12.38.38,0,0,0-.38-.38.35.35,0,0,0-.14,0,.37.37,0,0,0-.36-.28.38.38,0,0,0-.27.12.37.37,0,0,0-.35-.24.38.38,0,0,0-.38.37v0a.27.27,0,0,0-.12,0,.38.38,0,0,0-.38.38.38.38,0,0,0-.37.37.38.38,0,0,0,.17.32.37.37,0,0,0,0,.18.38.38,0,0,0,.38.38.39.39,0,0,0,.3-.16,1.1,1.1,0,0,0,.27.3c.15.14.3.27.3.48v.5h.25v-.37c0-.21.18-.34.37-.48a1.15,1.15,0,0,0,.3-.28h.08a.38.38,0,0,0,.38-.38.38.38,0,0,0,0-.75Zm-1.52,1.08a1.29,1.29,0,0,1-.2-.21h.09a.36.36,0,0,0,.25-.1V45A.86.86,0,0,0,44.17,44.89Zm.61.12-.22.17v-.59a.39.39,0,0,0,.25.1.32.32,0,0,0,.14,0,.54.54,0,0,0,.07.13A1.33,1.33,0,0,1,44.78,45Z"/><path id="orchard_random_sparse-14" data-name="orchard_random_sparse" class="cls-2" d="M36.94,51.06h0a.27.27,0,0,0,0-.12.38.38,0,0,0-.38-.38.35.35,0,0,0-.14,0,.37.37,0,0,0-.36-.28.38.38,0,0,0-.27.12.37.37,0,0,0-.35-.24.38.38,0,0,0-.38.37v0a.27.27,0,0,0-.12,0,.38.38,0,0,0-.38.38.38.38,0,0,0-.37.37.38.38,0,0,0,.17.32.37.37,0,0,0,0,.18.38.38,0,0,0,.38.38A.39.39,0,0,0,35,52a1.1,1.1,0,0,0,.27.3c.15.14.3.27.3.48v.5h.25v-.37c0-.21.18-.34.37-.48a1.15,1.15,0,0,0,.3-.28h.08a.38.38,0,0,0,.38-.38.38.38,0,0,0,0-.75Zm-1.52,1.08a1.29,1.29,0,0,1-.2-.21h.09a.36.36,0,0,0,.25-.1v.43A.86.86,0,0,0,35.42,52.14Zm.61.12-.22.17v-.59a.39.39,0,0,0,.25.1.32.32,0,0,0,.14,0,.54.54,0,0,0,.07.13A1.33,1.33,0,0,1,36,52.26Zm8.41.05h0a.27.27,0,0,0,0-.12.38.38,0,0,0-.38-.38.35.35,0,0,0-.14,0,.37.37,0,0,0-.36-.28.38.38,0,0,0-.27.12.37.37,0,0,0-.35-.24.38.38,0,0,0-.38.37v0a.27.27,0,0,0-.12,0,.38.38,0,0,0-.38.38.38.38,0,0,0-.37.37.38.38,0,0,0,.17.32.37.37,0,0,0,0,.18.38.38,0,0,0,.38.38.39.39,0,0,0,.3-.16,1.1,1.1,0,0,0,.27.3c.15.14.3.27.3.48v.5h.25v-.37c0-.21.18-.34.37-.48a1.15,1.15,0,0,0,.3-.28h.08a.38.38,0,0,0,.38-.38.38.38,0,0,0,0-.75Zm-1.52,1.08a1.29,1.29,0,0,1-.2-.21h.09a.36.36,0,0,0,.25-.1v.43A.86.86,0,0,0,42.92,53.39Zm.61.12-.22.17v-.59a.39.39,0,0,0,.25.1.32.32,0,0,0,.14,0,.54.54,0,0,0,.07.13A1.33,1.33,0,0,1,43.53,53.51Zm-4.34,3.8h0a.27.27,0,0,0,0-.12.38.38,0,0,0-.38-.38.35.35,0,0,0-.14,0,.37.37,0,0,0-.36-.28.38.38,0,0,0-.27.12.37.37,0,0,0-.35-.24.38.38,0,0,0-.38.37v0a.27.27,0,0,0-.12,0,.38.38,0,0,0-.38.38.38.38,0,0,0-.37.37.38.38,0,0,0,.17.32.37.37,0,0,0,0,.18.38.38,0,0,0,.38.38.39.39,0,0,0,.3-.16,1.1,1.1,0,0,0,.27.3c.15.14.3.27.3.48v.5h.25v-.37c0-.21.18-.34.37-.48a1.15,1.15,0,0,0,.3-.28h.08a.38.38,0,0,0,.38-.38.38.38,0,0,0,0-.75Zm-1.52,1.08a1.29,1.29,0,0,1-.2-.21h.09a.36.36,0,0,0,.25-.1v.43A.86.86,0,0,0,37.67,58.39Zm.61.12-.22.17v-.59a.39.39,0,0,0,.25.1.32.32,0,0,0,.14,0,.54.54,0,0,0,.07.13A1.33,1.33,0,0,1,38.28,58.51Zm7.41,1.3h0a.27.27,0,0,0,0-.12.38.38,0,0,0-.38-.38.35.35,0,0,0-.14,0,.37.37,0,0,0-.36-.28.38.38,0,0,0-.27.12.37.37,0,0,0-.35-.24.38.38,0,0,0-.38.37v0a.27.27,0,0,0-.12,0,.38.38,0,0,0-.38.38.38.38,0,0,0-.37.37.38.38,0,0,0,.17.32.37.37,0,0,0,0,.18.38.38,0,0,0,.38.38.39.39,0,0,0,.3-.16,1.1,1.1,0,0,0,.27.3c.15.14.3.27.3.48v.5h.25v-.37c0-.21.18-.34.37-.48a1.15,1.15,0,0,0,.3-.28h.08a.38.38,0,0,0,.38-.38.38.38,0,0,0,0-.75Zm-1.52,1.08a1.29,1.29,0,0,1-.2-.21h.09a.36.36,0,0,0,.25-.1V61A.86.86,0,0,0,44.17,60.89Zm.61.12-.22.17v-.59a.39.39,0,0,0,.25.1.32.32,0,0,0,.14,0,.54.54,0,0,0,.07.13A1.33,1.33,0,0,1,44.78,61Z"/><path id="orchard_random_sparse-15" data-name="orchard_random_sparse" class="cls-2" d="M52.94,35.06h0a.27.27,0,0,0,0-.12.38.38,0,0,0-.38-.38.35.35,0,0,0-.14,0,.37.37,0,0,0-.36-.28.38.38,0,0,0-.27.12.37.37,0,0,0-.35-.24.38.38,0,0,0-.38.37v0a.27.27,0,0,0-.12,0,.38.38,0,0,0-.38.38.38.38,0,0,0-.37.37.38.38,0,0,0,.17.32.37.37,0,0,0,0,.18.38.38,0,0,0,.38.38A.39.39,0,0,0,51,36a1.1,1.1,0,0,0,.27.3c.15.14.3.27.3.48v.5h.25v-.37c0-.21.18-.34.37-.48a1.15,1.15,0,0,0,.3-.28h.08a.38.38,0,0,0,.38-.38.38.38,0,0,0,0-.75Zm-1.52,1.08a1.29,1.29,0,0,1-.2-.21h.09a.36.36,0,0,0,.25-.1v.43A.86.86,0,0,0,51.42,36.14Zm.61.12-.22.17v-.59a.39.39,0,0,0,.25.1.32.32,0,0,0,.14,0,.54.54,0,0,0,.07.13A1.33,1.33,0,0,1,52,36.26Zm8.41.05h0a.27.27,0,0,0,0-.12.38.38,0,0,0-.38-.38.35.35,0,0,0-.14,0,.37.37,0,0,0-.36-.28.38.38,0,0,0-.27.12.37.37,0,0,0-.35-.24.38.38,0,0,0-.38.37v0a.27.27,0,0,0-.12,0,.38.38,0,0,0-.38.38.38.38,0,0,0-.37.37.38.38,0,0,0,.17.32.37.37,0,0,0,0,.18.38.38,0,0,0,.38.38.39.39,0,0,0,.3-.16,1.1,1.1,0,0,0,.27.3c.15.14.3.27.3.48v.5h.25v-.37c0-.21.18-.34.37-.48a1.15,1.15,0,0,0,.3-.28h.08a.38.38,0,0,0,.38-.38.38.38,0,0,0,0-.75Zm-1.52,1.08a1.29,1.29,0,0,1-.2-.21h.09a.36.36,0,0,0,.25-.1v.43A.86.86,0,0,0,58.92,37.39Zm.61.12-.22.17v-.59a.39.39,0,0,0,.25.1.32.32,0,0,0,.14,0,.54.54,0,0,0,.07.13A1.33,1.33,0,0,1,59.53,37.51Zm-4.34,3.8h0a.27.27,0,0,0,0-.12.38.38,0,0,0-.38-.38.35.35,0,0,0-.14,0,.37.37,0,0,0-.36-.28.38.38,0,0,0-.27.12.37.37,0,0,0-.35-.24.38.38,0,0,0-.38.37v0a.27.27,0,0,0-.12,0,.38.38,0,0,0-.38.38.38.38,0,0,0-.37.37.38.38,0,0,0,.17.32.37.37,0,0,0,0,.18.38.38,0,0,0,.38.38.39.39,0,0,0,.3-.16,1.1,1.1,0,0,0,.27.3c.15.14.3.27.3.48v.5h.25v-.37c0-.21.18-.34.37-.48a1.15,1.15,0,0,0,.3-.28h.08a.38.38,0,0,0,.38-.38.38.38,0,0,0,0-.75Zm-1.52,1.08a1.29,1.29,0,0,1-.2-.21h.09a.36.36,0,0,0,.25-.1v.43A.86.86,0,0,0,53.67,42.39Zm.61.12-.22.17v-.59a.39.39,0,0,0,.25.1.32.32,0,0,0,.14,0,.54.54,0,0,0,.07.13A1.33,1.33,0,0,1,54.28,42.51Zm7.41,1.3h0a.27.27,0,0,0,0-.12.38.38,0,0,0-.38-.38.35.35,0,0,0-.14,0,.37.37,0,0,0-.36-.28.38.38,0,0,0-.27.12.37.37,0,0,0-.35-.24.38.38,0,0,0-.38.37v0a.27.27,0,0,0-.12,0,.38.38,0,0,0-.38.38.38.38,0,0,0-.37.37.38.38,0,0,0,.17.32.37.37,0,0,0,0,.18.38.38,0,0,0,.38.38.39.39,0,0,0,.3-.16,1.1,1.1,0,0,0,.27.3c.15.14.3.27.3.48v.5h.25v-.37c0-.21.18-.34.37-.48a1.15,1.15,0,0,0,.3-.28h.08a.38.38,0,0,0,.38-.38.38.38,0,0,0,0-.75Zm-1.52,1.08a1.29,1.29,0,0,1-.2-.21h.09a.36.36,0,0,0,.25-.1V45A.86.86,0,0,0,60.17,44.89Zm.61.12-.22.17v-.59a.39.39,0,0,0,.25.1.32.32,0,0,0,.14,0,.54.54,0,0,0,.07.13A1.33,1.33,0,0,1,60.78,45Z"/><path id="orchard_random_sparse-16" data-name="orchard_random_sparse" class="cls-2" d="M52.94,51.06h0a.27.27,0,0,0,0-.12.38.38,0,0,0-.38-.38.35.35,0,0,0-.14,0,.37.37,0,0,0-.36-.28.38.38,0,0,0-.27.12.37.37,0,0,0-.35-.24.38.38,0,0,0-.38.37v0a.27.27,0,0,0-.12,0,.38.38,0,0,0-.38.38.38.38,0,0,0-.37.37.38.38,0,0,0,.17.32.37.37,0,0,0,0,.18.38.38,0,0,0,.38.38A.39.39,0,0,0,51,52a1.1,1.1,0,0,0,.27.3c.15.14.3.27.3.48v.5h.25v-.37c0-.21.18-.34.37-.48a1.15,1.15,0,0,0,.3-.28h.08a.38.38,0,0,0,.38-.38.38.38,0,0,0,0-.75Zm-1.52,1.08a1.29,1.29,0,0,1-.2-.21h.09a.36.36,0,0,0,.25-.1v.43A.86.86,0,0,0,51.42,52.14Zm.61.12-.22.17v-.59a.39.39,0,0,0,.25.1.32.32,0,0,0,.14,0,.54.54,0,0,0,.07.13A1.33,1.33,0,0,1,52,52.26Zm8.41.05h0a.27.27,0,0,0,0-.12.38.38,0,0,0-.38-.38.35.35,0,0,0-.14,0,.37.37,0,0,0-.36-.28.38.38,0,0,0-.27.12.37.37,0,0,0-.35-.24.38.38,0,0,0-.38.37v0a.27.27,0,0,0-.12,0,.38.38,0,0,0-.38.38.38.38,0,0,0-.37.37.38.38,0,0,0,.17.32.37.37,0,0,0,0,.18.38.38,0,0,0,.38.38.39.39,0,0,0,.3-.16,1.1,1.1,0,0,0,.27.3c.15.14.3.27.3.48v.5h.25v-.37c0-.21.18-.34.37-.48a1.15,1.15,0,0,0,.3-.28h.08a.38.38,0,0,0,.38-.38.38.38,0,0,0,0-.75Zm-1.52,1.08a1.29,1.29,0,0,1-.2-.21h.09a.36.36,0,0,0,.25-.1v.43A.86.86,0,0,0,58.92,53.39Zm.61.12-.22.17v-.59a.39.39,0,0,0,.25.1.32.32,0,0,0,.14,0,.54.54,0,0,0,.07.13A1.33,1.33,0,0,1,59.53,53.51Zm-4.34,3.8h0a.27.27,0,0,0,0-.12.38.38,0,0,0-.38-.38.35.35,0,0,0-.14,0,.37.37,0,0,0-.36-.28.38.38,0,0,0-.27.12.37.37,0,0,0-.35-.24.38.38,0,0,0-.38.37v0a.27.27,0,0,0-.12,0,.38.38,0,0,0-.38.38.38.38,0,0,0-.37.37.38.38,0,0,0,.17.32.37.37,0,0,0,0,.18.38.38,0,0,0,.38.38.39.39,0,0,0,.3-.16,1.1,1.1,0,0,0,.27.3c.15.14.3.27.3.48v.5h.25v-.37c0-.21.18-.34.37-.48a1.15,1.15,0,0,0,.3-.28h.08a.38.38,0,0,0,.38-.38.38.38,0,0,0,0-.75Zm-1.52,1.08a1.29,1.29,0,0,1-.2-.21h.09a.36.36,0,0,0,.25-.1v.43A.86.86,0,0,0,53.67,58.39Zm.61.12-.22.17v-.59a.39.39,0,0,0,.25.1.32.32,0,0,0,.14,0,.54.54,0,0,0,.07.13A1.33,1.33,0,0,1,54.28,58.51Zm7.41,1.3h0a.27.27,0,0,0,0-.12.38.38,0,0,0-.38-.38.35.35,0,0,0-.14,0,.37.37,0,0,0-.36-.28.38.38,0,0,0-.27.12.37.37,0,0,0-.35-.24.38.38,0,0,0-.38.37v0a.27.27,0,0,0-.12,0,.38.38,0,0,0-.38.38.38.38,0,0,0-.37.37.38.38,0,0,0,.17.32.37.37,0,0,0,0,.18.38.38,0,0,0,.38.38.39.39,0,0,0,.3-.16,1.1,1.1,0,0,0,.27.3c.15.14.3.27.3.48v.5h.25v-.37c0-.21.18-.34.37-.48a1.15,1.15,0,0,0,.3-.28h.08a.38.38,0,0,0,.38-.38.38.38,0,0,0,0-.75Zm-1.52,1.08a1.29,1.29,0,0,1-.2-.21h.09a.36.36,0,0,0,.25-.1V61A.86.86,0,0,0,60.17,60.89Zm.61.12-.22.17v-.59a.39.39,0,0,0,.25.1.32.32,0,0,0,.14,0,.54.54,0,0,0,.07.13A1.33,1.33,0,0,1,60.78,61Z"/></g></svg>