<svg id="Sprites" xmlns="http://www.w3.org/2000/svg" viewBox="0 0 64 64"><defs><style>.cls-1{fill:none;}.cls-2{fill:#236035;}</style></defs><g id="orchard_poly_green_grid_sparse"><rect id="bbox_64" class="cls-1" width="64" height="64"/><path id="orchard_grid_sparse" class="cls-2" d="M15,9h-.09A1.71,1.71,0,0,0,15,8.5,1.5,1.5,0,0,0,13.5,7a1.47,1.47,0,0,0-.56.11A1.49,1.49,0,0,0,11.5,6a1.53,1.53,0,0,0-1.1.48A1.5,1.5,0,0,0,7.5,7s0,.06,0,.09A1.71,1.71,0,0,0,7,7,1.5,1.5,0,0,0,5.5,8.5,1.5,1.5,0,0,0,4,10a1.48,1.48,0,0,0,.7,1.26,1.54,1.54,0,0,0-.2.74,1.5,1.5,0,0,0,2.72.87,4.79,4.79,0,0,0,1.06,1.2A2.64,2.64,0,0,1,9.5,16v2h1V16.5c0-.82.71-1.35,1.46-1.91a5.32,5.32,0,0,0,1.23-1.12,1.55,1.55,0,0,0,.31,0A1.5,1.5,0,0,0,15,12a1.5,1.5,0,0,0,0-3ZM9,13.32a3.93,3.93,0,0,1-.8-.87,1.34,1.34,0,0,0,.35.05,1.49,1.49,0,0,0,1-.39v1.73C9.32,13.65,9.13,13.48,9,13.32Zm2.41.47a10.57,10.57,0,0,0-.86.7V12.11a1.49,1.49,0,0,0,1,.39,1.47,1.47,0,0,0,.56-.11,1.38,1.38,0,0,0,.27.54A4.48,4.48,0,0,1,11.36,13.79ZM36.33,9h-.09a1.44,1.44,0,0,0,.09-.51A1.5,1.5,0,0,0,34.83,7a1.46,1.46,0,0,0-.55.11,1.49,1.49,0,0,0-2.54-.63A1.5,1.5,0,0,0,28.83,7s0,.06,0,.09A1.71,1.71,0,0,0,28.33,7a1.5,1.5,0,0,0-1.5,1.5,1.5,1.5,0,0,0-1.5,1.5,1.48,1.48,0,0,0,.7,1.26,1.54,1.54,0,0,0-.2.74,1.5,1.5,0,0,0,2.72.87,4.84,4.84,0,0,0,1.07,1.2A2.65,2.65,0,0,1,30.83,16v2h1V16.5c0-.82.71-1.35,1.46-1.91a5.32,5.32,0,0,0,1.23-1.12,1.63,1.63,0,0,0,.31,0,1.5,1.5,0,0,0,1.5-1.5,1.5,1.5,0,0,0,0-3Zm-6,4.32a3.93,3.93,0,0,1-.8-.87,1.34,1.34,0,0,0,.35.05,1.47,1.47,0,0,0,1-.39v1.73C30.65,13.65,30.46,13.48,30.28,13.32Zm2.42.47a10.67,10.67,0,0,0-.87.7V12.11a1.51,1.51,0,0,0,1,.39,1.47,1.47,0,0,0,.56-.11,1.52,1.52,0,0,0,.27.54A4.4,4.4,0,0,1,32.7,13.79ZM57.67,9h-.1a1.45,1.45,0,0,0,.1-.51A1.5,1.5,0,0,0,56.17,7a1.47,1.47,0,0,0-.56.11,1.49,1.49,0,0,0-2.54-.63,1.5,1.5,0,0,0-2.9.52.28.28,0,0,0,0,.09A1.71,1.71,0,0,0,49.67,7a1.5,1.5,0,0,0-1.5,1.5,1.5,1.5,0,0,0-1.5,1.5,1.48,1.48,0,0,0,.7,1.26,1.44,1.44,0,0,0-.2.74,1.5,1.5,0,0,0,1.5,1.5,1.51,1.51,0,0,0,1.22-.63A4.6,4.6,0,0,0,51,14.07c.62.55,1.22,1.08,1.22,1.93v2h1V16.5c0-.82.71-1.35,1.46-1.91a5.27,5.27,0,0,0,1.22-1.12,1.66,1.66,0,0,0,.32,0,1.5,1.5,0,0,0,1.5-1.5,1.5,1.5,0,0,0,0-3Zm-6.06,4.32a4.19,4.19,0,0,1-.8-.87,1.42,1.42,0,0,0,.36.05,1.51,1.51,0,0,0,1-.39v1.73C52,13.65,51.79,13.48,51.61,13.32Zm2.42.47a10.57,10.57,0,0,0-.86.7V12.11a1.46,1.46,0,0,0,1.55.28,1.55,1.55,0,0,0,.28.54A4.74,4.74,0,0,1,54,13.79ZM15,41h-.09A1.71,1.71,0,0,0,15,40.5,1.5,1.5,0,0,0,13.5,39a1.47,1.47,0,0,0-.56.11A1.49,1.49,0,0,0,11.5,38a1.53,1.53,0,0,0-1.1.48A1.5,1.5,0,0,0,7.5,39s0,.06,0,.09A1.71,1.71,0,0,0,7,39a1.5,1.5,0,0,0-1.5,1.5A1.5,1.5,0,0,0,4,42a1.48,1.48,0,0,0,.7,1.26,1.54,1.54,0,0,0-.2.74,1.5,1.5,0,0,0,2.72.87,4.79,4.79,0,0,0,1.06,1.2A2.64,2.64,0,0,1,9.5,48v2h1V48.5c0-.82.71-1.35,1.46-1.91a5.32,5.32,0,0,0,1.23-1.12,1.55,1.55,0,0,0,.31,0A1.5,1.5,0,0,0,15,44a1.5,1.5,0,0,0,0-3ZM9,45.32a3.93,3.93,0,0,1-.8-.87,1.34,1.34,0,0,0,.35,0,1.49,1.49,0,0,0,1-.39v1.73C9.32,45.65,9.13,45.48,9,45.32Zm2.41.47a10.57,10.57,0,0,0-.86.7V44.11a1.49,1.49,0,0,0,1,.39,1.47,1.47,0,0,0,.56-.11,1.38,1.38,0,0,0,.27.54A4.48,4.48,0,0,1,11.36,45.79Zm25-4.79h-.09a1.44,1.44,0,0,0,.09-.51,1.5,1.5,0,0,0-1.5-1.5,1.46,1.46,0,0,0-.55.11,1.49,1.49,0,0,0-2.54-.63,1.5,1.5,0,0,0-2.91.52s0,.06,0,.09a1.71,1.71,0,0,0-.51-.09,1.5,1.5,0,0,0-1.5,1.5,1.5,1.5,0,0,0-1.5,1.5,1.48,1.48,0,0,0,.7,1.26,1.54,1.54,0,0,0-.2.74,1.5,1.5,0,0,0,2.72.87,4.84,4.84,0,0,0,1.07,1.2A2.65,2.65,0,0,1,30.83,48v2h1V48.5c0-.82.71-1.35,1.46-1.91a5.32,5.32,0,0,0,1.23-1.12,1.63,1.63,0,0,0,.31,0,1.5,1.5,0,0,0,1.5-1.5,1.5,1.5,0,0,0,0-3Zm-6,4.32a3.93,3.93,0,0,1-.8-.87,1.34,1.34,0,0,0,.35,0,1.47,1.47,0,0,0,1-.39v1.73C30.65,45.65,30.46,45.48,30.28,45.32Zm2.42.47a10.67,10.67,0,0,0-.87.7V44.11a1.51,1.51,0,0,0,1,.39,1.47,1.47,0,0,0,.56-.11,1.52,1.52,0,0,0,.27.54A4.4,4.4,0,0,1,32.7,45.79Zm25-4.79h-.1a1.45,1.45,0,0,0,.1-.51,1.5,1.5,0,0,0-1.5-1.5,1.47,1.47,0,0,0-.56.11,1.49,1.49,0,0,0-2.54-.63,1.5,1.5,0,0,0-2.9.52.28.28,0,0,0,0,.09,1.71,1.71,0,0,0-.51-.09,1.5,1.5,0,0,0-1.5,1.5,1.5,1.5,0,0,0-1.5,1.5,1.48,1.48,0,0,0,.7,1.26,1.44,1.44,0,0,0-.2.74,1.5,1.5,0,0,0,1.5,1.5,1.51,1.51,0,0,0,1.22-.63A4.6,4.6,0,0,0,51,46.07c.62.55,1.22,1.08,1.22,1.93v2h1V48.5c0-.82.71-1.35,1.46-1.91a5.27,5.27,0,0,0,1.22-1.12,1.66,1.66,0,0,0,.32,0,1.5,1.5,0,0,0,1.5-1.5,1.5,1.5,0,0,0,0-3Zm-6.06,4.32a4.19,4.19,0,0,1-.8-.87,1.42,1.42,0,0,0,.36,0,1.51,1.51,0,0,0,1-.39v1.73C52,45.65,51.79,45.48,51.61,45.32Zm2.42.47a10.57,10.57,0,0,0-.86.7V44.11a1.46,1.46,0,0,0,1.55.28,1.55,1.55,0,0,0,.28.54A4.74,4.74,0,0,1,54,45.79Z"/></g></svg>