<svg id="Sprites" xmlns="http://www.w3.org/2000/svg" viewBox="0 0 64 64"><defs><style>.cls-1{fill:#236035;}</style></defs><path id="orchard_poly_grid_dense" class="cls-1" d="M13,8.33h-.09A1.71,1.71,0,0,0,13,7.83a1.5,1.5,0,0,0-1.5-1.5,1.47,1.47,0,0,0-.56.11A1.49,1.49,0,0,0,8.4,5.82a1.49,1.49,0,0,0-2.9.51s0,.07,0,.1A1.45,1.45,0,0,0,5,6.33a1.5,1.5,0,0,0-1.5,1.5,1.5,1.5,0,0,0-.8,2.77,1.49,1.49,0,0,0,2.52,1.6,4.63,4.63,0,0,0,1.06,1.2c.63.56,1.22,1.09,1.22,1.93v2h1v-1.5c0-.82.71-1.34,1.46-1.9a5.59,5.59,0,0,0,1.23-1.13,1.55,1.55,0,0,0,.31,0,1.5,1.5,0,0,0,1.5-1.5,1.5,1.5,0,0,0,0-3ZM7,12.65a3.91,3.91,0,0,1-.8-.86,2,2,0,0,0,.35,0,1.49,1.49,0,0,0,1-.39v1.73C7.32,13,7.13,12.81,7,12.65Zm2.41.47a10.57,10.57,0,0,0-.86.7V11.44a1.49,1.49,0,0,0,1,.39,1.47,1.47,0,0,0,.56-.11,1.38,1.38,0,0,0,.27.54A4.48,4.48,0,0,1,9.36,13.12ZM29,8.33h-.09A1.71,1.71,0,0,0,29,7.83a1.5,1.5,0,0,0-1.5-1.5,1.47,1.47,0,0,0-.56.11,1.49,1.49,0,0,0-2.54-.62,1.49,1.49,0,0,0-2.9.51s0,.07,0,.1a1.45,1.45,0,0,0-.51-.1,1.5,1.5,0,0,0-1.5,1.5,1.5,1.5,0,0,0-.8,2.77,1.49,1.49,0,0,0,2.52,1.6,4.63,4.63,0,0,0,1.06,1.2c.63.56,1.22,1.09,1.22,1.93v2h1v-1.5c0-.82.71-1.34,1.46-1.9a5.59,5.59,0,0,0,1.23-1.13,1.55,1.55,0,0,0,.31,0,1.5,1.5,0,0,0,1.5-1.5,1.5,1.5,0,0,0,0-3ZM23,12.65a3.91,3.91,0,0,1-.8-.86,2,2,0,0,0,.35,0,1.49,1.49,0,0,0,1-.39v1.73C23.32,13,23.13,12.81,23,12.65Zm2.41.47a10.57,10.57,0,0,0-.86.7V11.44a1.49,1.49,0,0,0,1,.39,1.47,1.47,0,0,0,.56-.11,1.38,1.38,0,0,0,.27.54A4.48,4.48,0,0,1,25.36,13.12ZM45,8.33h-.09A1.71,1.71,0,0,0,45,7.83a1.5,1.5,0,0,0-1.5-1.5,1.47,1.47,0,0,0-.56.11,1.49,1.49,0,0,0-2.54-.62,1.49,1.49,0,0,0-2.9.51s0,.07,0,.1a1.45,1.45,0,0,0-.51-.1,1.5,1.5,0,0,0-1.5,1.5,1.5,1.5,0,0,0-.8,2.77,1.49,1.49,0,0,0,2.52,1.6,4.63,4.63,0,0,0,1.06,1.2c.63.56,1.22,1.09,1.22,1.93v2h1v-1.5c0-.82.71-1.34,1.46-1.9a5.59,5.59,0,0,0,1.23-1.13,1.55,1.55,0,0,0,.31,0,1.5,1.5,0,0,0,1.5-1.5,1.5,1.5,0,0,0,0-3Zm-6,4.32a3.91,3.91,0,0,1-.8-.86,2,2,0,0,0,.35,0,1.49,1.49,0,0,0,1-.39v1.73C39.32,13,39.13,12.81,39,12.65Zm2.41.47a10.57,10.57,0,0,0-.86.7V11.44a1.49,1.49,0,0,0,1,.39,1.47,1.47,0,0,0,.56-.11,1.38,1.38,0,0,0,.27.54A4.48,4.48,0,0,1,41.36,13.12ZM61,8.33h-.09A1.71,1.71,0,0,0,61,7.83a1.5,1.5,0,0,0-1.5-1.5,1.47,1.47,0,0,0-.56.11,1.49,1.49,0,0,0-2.54-.62,1.49,1.49,0,0,0-2.9.51s0,.07,0,.1a1.45,1.45,0,0,0-.51-.1,1.5,1.5,0,0,0-1.5,1.5,1.5,1.5,0,0,0-.8,2.77,1.49,1.49,0,0,0,2.52,1.6,4.63,4.63,0,0,0,1.06,1.2c.63.56,1.22,1.09,1.22,1.93v2h1v-1.5c0-.82.71-1.34,1.46-1.9a5.59,5.59,0,0,0,1.23-1.13,1.55,1.55,0,0,0,.31,0,1.5,1.5,0,0,0,1.5-1.5,1.5,1.5,0,0,0,0-3Zm-6,4.32a3.91,3.91,0,0,1-.8-.86,2,2,0,0,0,.35,0,1.49,1.49,0,0,0,1-.39v1.73C55.32,13,55.13,12.81,55,12.65Zm2.41.47a10.57,10.57,0,0,0-.86.7V11.44a1.49,1.49,0,0,0,1,.39,1.47,1.47,0,0,0,.56-.11,1.38,1.38,0,0,0,.27.54A4.48,4.48,0,0,1,57.36,13.12ZM13,29.67h-.09a1.71,1.71,0,0,0,.09-.51,1.5,1.5,0,0,0-1.5-1.5,1.47,1.47,0,0,0-.56.11,1.49,1.49,0,0,0-2.54-.63,1.5,1.5,0,0,0-2.9.52s0,.06,0,.09A1.44,1.44,0,0,0,5,27.67a1.5,1.5,0,0,0-1.5,1.5A1.5,1.5,0,0,0,2,30.67a1.48,1.48,0,0,0,.7,1.26,1.54,1.54,0,0,0-.2.74,1.49,1.49,0,0,0,2.72.86,4.47,4.47,0,0,0,1.06,1.2c.63.56,1.22,1.09,1.22,1.94v2h1v-1.5c0-.82.71-1.35,1.46-1.91a5.14,5.14,0,0,0,1.23-1.13,1.55,1.55,0,0,0,.31,0,1.5,1.5,0,0,0,1.5-1.5,1.5,1.5,0,0,0,0-3ZM7,34a4.17,4.17,0,0,1-.8-.87,1.34,1.34,0,0,0,.35.05,1.49,1.49,0,0,0,1-.39V34.5C7.32,34.32,7.13,34.15,7,34Zm2.41.47a10.57,10.57,0,0,0-.86.7V32.78a1.49,1.49,0,0,0,1,.39,1.47,1.47,0,0,0,.56-.11,1.27,1.27,0,0,0,.27.53A4.5,4.5,0,0,1,9.36,34.46ZM29,29.67h-.09a1.71,1.71,0,0,0,.09-.51,1.5,1.5,0,0,0-1.5-1.5,1.47,1.47,0,0,0-.56.11,1.49,1.49,0,0,0-2.54-.63,1.5,1.5,0,0,0-2.9.52s0,.06,0,.09a1.44,1.44,0,0,0-.51-.09,1.5,1.5,0,0,0-1.5,1.5,1.5,1.5,0,0,0-1.5,1.5,1.48,1.48,0,0,0,.7,1.26,1.54,1.54,0,0,0-.2.74,1.49,1.49,0,0,0,2.72.86,4.47,4.47,0,0,0,1.06,1.2c.63.56,1.22,1.09,1.22,1.94v2h1v-1.5c0-.82.71-1.35,1.46-1.91a5.14,5.14,0,0,0,1.23-1.13,1.55,1.55,0,0,0,.31,0,1.5,1.5,0,0,0,1.5-1.5,1.5,1.5,0,0,0,0-3ZM23,34a4.17,4.17,0,0,1-.8-.87,1.34,1.34,0,0,0,.35.05,1.49,1.49,0,0,0,1-.39V34.5C23.32,34.32,23.13,34.15,23,34Zm2.41.47a10.57,10.57,0,0,0-.86.7V32.78a1.49,1.49,0,0,0,1,.39,1.47,1.47,0,0,0,.56-.11,1.27,1.27,0,0,0,.27.53A4.5,4.5,0,0,1,25.36,34.46ZM45,29.67h-.09a1.71,1.71,0,0,0,.09-.51,1.5,1.5,0,0,0-1.5-1.5,1.47,1.47,0,0,0-.56.11,1.49,1.49,0,0,0-2.54-.63,1.5,1.5,0,0,0-2.9.52s0,.06,0,.09a1.44,1.44,0,0,0-.51-.09,1.5,1.5,0,0,0-1.5,1.5,1.5,1.5,0,0,0-1.5,1.5,1.48,1.48,0,0,0,.7,1.26,1.54,1.54,0,0,0-.2.74,1.49,1.49,0,0,0,2.72.86,4.47,4.47,0,0,0,1.06,1.2c.63.56,1.22,1.09,1.22,1.94v2h1v-1.5c0-.82.71-1.35,1.46-1.91a5.14,5.14,0,0,0,1.23-1.13,1.55,1.55,0,0,0,.31,0,1.5,1.5,0,0,0,1.5-1.5,1.5,1.5,0,0,0,0-3ZM39,34a4.17,4.17,0,0,1-.8-.87,1.34,1.34,0,0,0,.35.05,1.49,1.49,0,0,0,1-.39V34.5C39.32,34.32,39.13,34.15,39,34Zm2.41.47a10.57,10.57,0,0,0-.86.7V32.78a1.49,1.49,0,0,0,1,.39,1.47,1.47,0,0,0,.56-.11,1.27,1.27,0,0,0,.27.53A4.5,4.5,0,0,1,41.36,34.46ZM61,29.67h-.09a1.71,1.71,0,0,0,.09-.51,1.5,1.5,0,0,0-1.5-1.5,1.47,1.47,0,0,0-.56.11,1.49,1.49,0,0,0-2.54-.63,1.5,1.5,0,0,0-2.9.52s0,.06,0,.09a1.44,1.44,0,0,0-.51-.09,1.5,1.5,0,0,0-1.5,1.5,1.5,1.5,0,0,0-1.5,1.5,1.48,1.48,0,0,0,.7,1.26,1.54,1.54,0,0,0-.2.74,1.49,1.49,0,0,0,2.72.86,4.47,4.47,0,0,0,1.06,1.2c.63.56,1.22,1.09,1.22,1.94v2h1v-1.5c0-.82.71-1.35,1.46-1.91a5.14,5.14,0,0,0,1.23-1.13,1.55,1.55,0,0,0,.31,0,1.5,1.5,0,0,0,1.5-1.5,1.5,1.5,0,0,0,0-3ZM55,34a4.17,4.17,0,0,1-.8-.87,1.34,1.34,0,0,0,.35.05,1.49,1.49,0,0,0,1-.39V34.5C55.32,34.32,55.13,34.15,55,34Zm2.41.47a10.57,10.57,0,0,0-.86.7V32.78a1.49,1.49,0,0,0,1,.39,1.47,1.47,0,0,0,.56-.11,1.27,1.27,0,0,0,.27.53A4.5,4.5,0,0,1,57.36,34.46ZM13,51h-.09A1.71,1.71,0,0,0,13,50.5,1.5,1.5,0,0,0,11.5,49a1.47,1.47,0,0,0-.56.11A1.49,1.49,0,0,0,9.5,48a1.53,1.53,0,0,0-1.1.48A1.5,1.5,0,0,0,5.5,49s0,.06,0,.09A1.71,1.71,0,0,0,5,49a1.5,1.5,0,0,0-1.5,1.5A1.5,1.5,0,0,0,2,52a1.48,1.48,0,0,0,.7,1.26,1.54,1.54,0,0,0-.2.74,1.5,1.5,0,0,0,2.72.87,4.79,4.79,0,0,0,1.06,1.2A2.64,2.64,0,0,1,7.5,58v2h1V58.5c0-.82.71-1.35,1.46-1.91a5.32,5.32,0,0,0,1.23-1.12,1.55,1.55,0,0,0,.31,0A1.5,1.5,0,0,0,13,54a1.5,1.5,0,0,0,0-3ZM7,55.32a3.93,3.93,0,0,1-.8-.87,1.34,1.34,0,0,0,.35,0,1.49,1.49,0,0,0,1-.39v1.73C7.32,55.65,7.13,55.48,7,55.32Zm2.41.47a10.57,10.57,0,0,0-.86.7V54.11a1.49,1.49,0,0,0,1,.39,1.47,1.47,0,0,0,.56-.11,1.38,1.38,0,0,0,.27.54A4.48,4.48,0,0,1,9.36,55.79ZM29,51h-.09A1.71,1.71,0,0,0,29,50.5,1.5,1.5,0,0,0,27.5,49a1.47,1.47,0,0,0-.56.11A1.49,1.49,0,0,0,25.5,48a1.53,1.53,0,0,0-1.1.48,1.5,1.5,0,0,0-2.9.52s0,.06,0,.09A1.71,1.71,0,0,0,21,49a1.5,1.5,0,0,0-1.5,1.5A1.5,1.5,0,0,0,18,52a1.48,1.48,0,0,0,.7,1.26,1.54,1.54,0,0,0-.2.74,1.5,1.5,0,0,0,2.72.87,4.79,4.79,0,0,0,1.06,1.2A2.64,2.64,0,0,1,23.5,58v2h1V58.5c0-.82.71-1.35,1.46-1.91a5.32,5.32,0,0,0,1.23-1.12,1.55,1.55,0,0,0,.31,0A1.5,1.5,0,0,0,29,54a1.5,1.5,0,0,0,0-3ZM23,55.32a3.93,3.93,0,0,1-.8-.87,1.34,1.34,0,0,0,.35,0,1.49,1.49,0,0,0,1-.39v1.73C23.32,55.65,23.13,55.48,23,55.32Zm2.41.47a10.57,10.57,0,0,0-.86.7V54.11a1.49,1.49,0,0,0,1,.39,1.47,1.47,0,0,0,.56-.11,1.38,1.38,0,0,0,.27.54A4.48,4.48,0,0,1,25.36,55.79ZM45,51h-.09A1.71,1.71,0,0,0,45,50.5,1.5,1.5,0,0,0,43.5,49a1.47,1.47,0,0,0-.56.11A1.49,1.49,0,0,0,41.5,48a1.53,1.53,0,0,0-1.1.48,1.5,1.5,0,0,0-2.9.52s0,.06,0,.09A1.71,1.71,0,0,0,37,49a1.5,1.5,0,0,0-1.5,1.5A1.5,1.5,0,0,0,34,52a1.48,1.48,0,0,0,.7,1.26,1.54,1.54,0,0,0-.2.74,1.5,1.5,0,0,0,2.72.87,4.79,4.79,0,0,0,1.06,1.2A2.64,2.64,0,0,1,39.5,58v2h1V58.5c0-.82.71-1.35,1.46-1.91a5.32,5.32,0,0,0,1.23-1.12,1.55,1.55,0,0,0,.31,0A1.5,1.5,0,0,0,45,54a1.5,1.5,0,0,0,0-3Zm-6,4.32a3.93,3.93,0,0,1-.8-.87,1.34,1.34,0,0,0,.35,0,1.49,1.49,0,0,0,1-.39v1.73C39.32,55.65,39.13,55.48,39,55.32Zm2.41.47a10.57,10.57,0,0,0-.86.7V54.11a1.49,1.49,0,0,0,1,.39,1.47,1.47,0,0,0,.56-.11,1.38,1.38,0,0,0,.27.54A4.48,4.48,0,0,1,41.36,55.79ZM61,51h-.09A1.71,1.71,0,0,0,61,50.5,1.5,1.5,0,0,0,59.5,49a1.47,1.47,0,0,0-.56.11A1.49,1.49,0,0,0,57.5,48a1.53,1.53,0,0,0-1.1.48,1.5,1.5,0,0,0-2.9.52s0,.06,0,.09A1.71,1.71,0,0,0,53,49a1.5,1.5,0,0,0-1.5,1.5A1.5,1.5,0,0,0,50,52a1.48,1.48,0,0,0,.7,1.26,1.54,1.54,0,0,0-.2.74,1.5,1.5,0,0,0,2.72.87,4.79,4.79,0,0,0,1.06,1.2A2.64,2.64,0,0,1,55.5,58v2h1V58.5c0-.82.71-1.35,1.46-1.91a5.32,5.32,0,0,0,1.23-1.12,1.55,1.55,0,0,0,.31,0A1.5,1.5,0,0,0,61,54a1.5,1.5,0,0,0,0-3Zm-6,4.32a3.93,3.93,0,0,1-.8-.87,1.34,1.34,0,0,0,.35,0,1.49,1.49,0,0,0,1-.39v1.73C55.32,55.65,55.13,55.48,55,55.32Zm2.41.47a10.57,10.57,0,0,0-.86.7V54.11a1.49,1.49,0,0,0,1,.39,1.47,1.47,0,0,0,.56-.11,1.38,1.38,0,0,0,.27.54A4.48,4.48,0,0,1,57.36,55.79Z"/></svg>