<svg id="Sprites" xmlns="http://www.w3.org/2000/svg" viewBox="0 0 64 64"><defs><style>.cls-1{fill:none;}.cls-2{fill:#236035;}</style></defs><g id="orchard_poly_green_random_sparse"><rect id="bbox_64" class="cls-1" width="64" height="64"/><path id="orchard_random_sparse" class="cls-2" d="M19.75,12.25h-.09a1.71,1.71,0,0,0,.09-.51,1.5,1.5,0,0,0-1.5-1.5,1.47,1.47,0,0,0-.56.11,1.49,1.49,0,0,0-1.44-1.11,1.53,1.53,0,0,0-1.1.48,1.5,1.5,0,0,0-2.9.52s0,.06,0,.09a1.71,1.71,0,0,0-.51-.09,1.5,1.5,0,0,0-1.5,1.5,1.5,1.5,0,0,0-1.5,1.5,1.48,1.48,0,0,0,.7,1.26,1.54,1.54,0,0,0-.2.74,1.5,1.5,0,0,0,2.72.87A4.79,4.79,0,0,0,13,17.32a2.64,2.64,0,0,1,1.22,1.93v2h1v-1.5c0-.82.71-1.35,1.46-1.91a5.32,5.32,0,0,0,1.23-1.12,1.55,1.55,0,0,0,.31,0,1.5,1.5,0,0,0,1.5-1.5,1.5,1.5,0,0,0,0-3ZM13.7,16.57a3.93,3.93,0,0,1-.8-.87,1.34,1.34,0,0,0,.35.05,1.49,1.49,0,0,0,1-.39v1.73C14.07,16.9,13.88,16.73,13.7,16.57Zm2.41.47a10.57,10.57,0,0,0-.86.7V15.36a1.49,1.49,0,0,0,1,.39,1.47,1.47,0,0,0,.56-.11,1.38,1.38,0,0,0,.27.54A4.48,4.48,0,0,1,16.11,17Zm33.64.21h-.09a1.71,1.71,0,0,0,.09-.51,1.5,1.5,0,0,0-1.5-1.5,1.47,1.47,0,0,0-.56.11,1.49,1.49,0,0,0-1.44-1.11,1.53,1.53,0,0,0-1.1.48,1.5,1.5,0,0,0-2.9.52s0,.06,0,.09a1.71,1.71,0,0,0-.51-.09,1.5,1.5,0,0,0-1.5,1.5,1.5,1.5,0,0,0-1.5,1.5,1.48,1.48,0,0,0,.7,1.26,1.54,1.54,0,0,0-.2.74,1.5,1.5,0,0,0,2.72.87A4.79,4.79,0,0,0,43,22.32a2.64,2.64,0,0,1,1.22,1.93v2h1v-1.5c0-.82.71-1.35,1.46-1.91a5.32,5.32,0,0,0,1.23-1.12,1.55,1.55,0,0,0,.31,0,1.5,1.5,0,0,0,1.5-1.5,1.5,1.5,0,0,0,0-3Zm-6,4.32a3.93,3.93,0,0,1-.8-.87,1.34,1.34,0,0,0,.35.05,1.49,1.49,0,0,0,1-.39v1.73C44.07,21.9,43.88,21.73,43.7,21.57Zm2.41.47a10.57,10.57,0,0,0-.86.7V20.36a1.49,1.49,0,0,0,1,.39,1.47,1.47,0,0,0,.56-.11,1.38,1.38,0,0,0,.27.54A4.48,4.48,0,0,1,46.11,22ZM28.75,37.25h-.09a1.71,1.71,0,0,0,.09-.51,1.5,1.5,0,0,0-1.5-1.5,1.47,1.47,0,0,0-.56.11,1.49,1.49,0,0,0-1.44-1.11,1.53,1.53,0,0,0-1.1.48,1.5,1.5,0,0,0-2.9.52s0,.06,0,.09a1.71,1.71,0,0,0-.51-.09,1.5,1.5,0,0,0-1.5,1.5,1.5,1.5,0,0,0-1.5,1.5,1.48,1.48,0,0,0,.7,1.26,1.54,1.54,0,0,0-.2.74,1.5,1.5,0,0,0,2.72.87A4.79,4.79,0,0,0,22,42.32a2.64,2.64,0,0,1,1.22,1.93v2h1v-1.5c0-.82.71-1.35,1.46-1.91a5.32,5.32,0,0,0,1.23-1.12,1.55,1.55,0,0,0,.31,0,1.5,1.5,0,0,0,1.5-1.5,1.5,1.5,0,0,0,0-3ZM22.7,41.57a3.93,3.93,0,0,1-.8-.87,1.34,1.34,0,0,0,.35,0,1.49,1.49,0,0,0,1-.39v1.73C23.07,41.9,22.88,41.73,22.7,41.57Zm2.41.47a10.57,10.57,0,0,0-.86.7V40.36a1.49,1.49,0,0,0,1,.39,1.47,1.47,0,0,0,.56-.11,1.38,1.38,0,0,0,.27.54A4.48,4.48,0,0,1,25.11,42Zm29.64,5.21h-.09a1.71,1.71,0,0,0,.09-.51,1.5,1.5,0,0,0-1.5-1.5,1.47,1.47,0,0,0-.56.11,1.49,1.49,0,0,0-1.44-1.11,1.53,1.53,0,0,0-1.1.48,1.5,1.5,0,0,0-2.9.52s0,.06,0,.09a1.71,1.71,0,0,0-.51-.09,1.5,1.5,0,0,0-1.5,1.5,1.5,1.5,0,0,0-1.5,1.5,1.48,1.48,0,0,0,.7,1.26,1.54,1.54,0,0,0-.2.74,1.5,1.5,0,0,0,2.72.87A4.79,4.79,0,0,0,48,52.32a2.64,2.64,0,0,1,1.22,1.93v2h1v-1.5c0-.82.71-1.35,1.46-1.91a5.32,5.32,0,0,0,1.23-1.12,1.55,1.55,0,0,0,.31,0,1.5,1.5,0,0,0,1.5-1.5,1.5,1.5,0,0,0,0-3Zm-6,4.32a3.93,3.93,0,0,1-.8-.87,1.34,1.34,0,0,0,.35,0,1.49,1.49,0,0,0,1-.39v1.73C49.07,51.9,48.88,51.73,48.7,51.57Zm2.41.47a10.57,10.57,0,0,0-.86.7V50.36a1.49,1.49,0,0,0,1,.39,1.47,1.47,0,0,0,.56-.11,1.38,1.38,0,0,0,.27.54A4.48,4.48,0,0,1,51.11,52Z"/></g></svg>