<svg id="Sprites" xmlns="http://www.w3.org/2000/svg" viewBox="0 0 64 64"><defs><style>.cls-1{fill:none;}.cls-2{fill:#236035;}</style></defs><g id="orchard_poly_random_sparse_half"><rect id="bbox_64" class="cls-1" width="64" height="64"/><path id="orchard_random_sparse" class="cls-2" d="M9.88,6.12H9.83a.74.74,0,0,0-.71-1,.82.82,0,0,0-.27.06.76.76,0,0,0-.73-.56.73.73,0,0,0-.54.25.75.75,0,0,0-1.46.25.43.43,0,0,0,0,0,.74.74,0,0,0-.25,0,.76.76,0,0,0-.76.75.75.75,0,0,0-.74.75.77.77,0,0,0,.35.64.66.66,0,0,0-.11.36A.76.76,0,0,0,6,8.06a2.14,2.14,0,0,0,.53.6c.31.28.6.54.6,1v1h.5V9.87c0-.41.36-.67.73-.95A2.4,2.4,0,0,0,9,8.36h.15a.75.75,0,0,0,.76-.75.75.75,0,0,0,0-1.5Zm-3,2.16a1.75,1.75,0,0,1-.4-.43.5.5,0,0,0,.17,0,.72.72,0,0,0,.5-.19v.86Zm1.21.24a4.49,4.49,0,0,0-.44.35V7.68a.76.76,0,0,0,.5.19.82.82,0,0,0,.28,0,.87.87,0,0,0,.14.27A2.33,2.33,0,0,1,8.06,8.52Zm16.82.1h-.05a.74.74,0,0,0-.71-1,.82.82,0,0,0-.27.06.76.76,0,0,0-.73-.56.73.73,0,0,0-.54.25.75.75,0,0,0-1.46.25.43.43,0,0,0,0,0,.74.74,0,0,0-.25,0,.76.76,0,0,0-.76.75.75.75,0,0,0-.74.75.77.77,0,0,0,.35.64.66.66,0,0,0-.11.36.76.76,0,0,0,1.37.44,2.14,2.14,0,0,0,.53.6c.31.28.6.54.6,1v1h.5v-.75c0-.41.36-.67.73-.95a2.4,2.4,0,0,0,.62-.56h.15a.75.75,0,0,0,.76-.75.75.75,0,0,0,0-1.5Zm-3,2.16a1.75,1.75,0,0,1-.4-.43.5.5,0,0,0,.17,0,.72.72,0,0,0,.5-.19V11Zm1.21.24a4.49,4.49,0,0,0-.44.35V10.18a.76.76,0,0,0,.5.19.82.82,0,0,0,.28,0,.87.87,0,0,0,.14.27A2.33,2.33,0,0,1,23.06,11Zm-8.68,7.6h-.05a.74.74,0,0,0-.71-1,.82.82,0,0,0-.27.06.76.76,0,0,0-.73-.56.73.73,0,0,0-.54.25.75.75,0,0,0-1.46.25.43.43,0,0,0,0,.05.74.74,0,0,0-.25-.05.76.76,0,0,0-.76.75.75.75,0,0,0-.74.75.77.77,0,0,0,.35.64.66.66,0,0,0-.11.36.76.76,0,0,0,1.37.44,2.14,2.14,0,0,0,.53.6c.31.28.6.54.6,1v1h.5v-.75c0-.41.36-.67.73-.95a2.4,2.4,0,0,0,.62-.56h.15a.75.75,0,0,0,.76-.75.75.75,0,0,0,0-1.5Zm-3,2.16a1.75,1.75,0,0,1-.4-.43.5.5,0,0,0,.17,0,.72.72,0,0,0,.5-.19V21Zm1.21.24a4.49,4.49,0,0,0-.44.35V20.18a.76.76,0,0,0,.5.19.82.82,0,0,0,.28-.05.87.87,0,0,0,.14.27A2.33,2.33,0,0,1,12.56,21Zm14.82,2.6h-.05a.74.74,0,0,0-.71-1,.82.82,0,0,0-.27.06.76.76,0,0,0-.73-.56.73.73,0,0,0-.54.25.75.75,0,0,0-1.46.25.43.43,0,0,0,0,.05.74.74,0,0,0-.25-.05.76.76,0,0,0-.76.75.75.75,0,0,0-.74.75.77.77,0,0,0,.35.64.66.66,0,0,0-.11.36.76.76,0,0,0,1.37.44,2.14,2.14,0,0,0,.53.6c.31.28.6.54.6,1v1h.5v-.75c0-.41.36-.67.73-.95a2.4,2.4,0,0,0,.62-.56h.15a.75.75,0,0,0,.76-.75.75.75,0,0,0,0-1.5Zm-3,2.16a1.75,1.75,0,0,1-.4-.43.5.5,0,0,0,.17,0,.72.72,0,0,0,.5-.19V26Zm1.21.24a4.49,4.49,0,0,0-.44.35V25.18a.76.76,0,0,0,.5.19.82.82,0,0,0,.28-.05.87.87,0,0,0,.14.27A2.33,2.33,0,0,1,25.56,26Z"/><path id="orchard_random_sparse-2" data-name="orchard_random_sparse" class="cls-2" d="M9.88,38.12H9.83a.74.74,0,0,0-.71-1,.82.82,0,0,0-.27.06.76.76,0,0,0-.73-.56.73.73,0,0,0-.54.25.75.75,0,0,0-1.46.25.43.43,0,0,0,0,.05.74.74,0,0,0-.25-.05.76.76,0,0,0-.76.75.75.75,0,0,0-.74.75.77.77,0,0,0,.35.64.66.66,0,0,0-.11.36A.76.76,0,0,0,6,40.06a2.14,2.14,0,0,0,.53.6c.31.28.6.54.6,1v1h.5v-.75c0-.41.36-.67.73-.95A2.4,2.4,0,0,0,9,40.36h.15a.75.75,0,0,0,.76-.75.75.75,0,0,0,0-1.5Zm-3,2.16a1.75,1.75,0,0,1-.4-.43.5.5,0,0,0,.17,0,.72.72,0,0,0,.5-.19v.86Zm1.21.24a4.49,4.49,0,0,0-.44.35V39.68a.76.76,0,0,0,.5.19.82.82,0,0,0,.28,0,.87.87,0,0,0,.14.27A2.33,2.33,0,0,1,8.06,40.52Zm16.82.1h-.05a.74.74,0,0,0-.71-1,.82.82,0,0,0-.27.06.76.76,0,0,0-.73-.56.73.73,0,0,0-.54.25.75.75,0,0,0-1.46.25.43.43,0,0,0,0,.05.74.74,0,0,0-.25-.05.76.76,0,0,0-.76.75.75.75,0,0,0-.74.75.77.77,0,0,0,.35.64.66.66,0,0,0-.11.36.76.76,0,0,0,1.37.44,2.14,2.14,0,0,0,.53.6c.31.28.6.54.6,1v1h.5v-.75c0-.41.36-.67.73-.95a2.4,2.4,0,0,0,.62-.56h.15a.75.75,0,0,0,.76-.75.75.75,0,0,0,0-1.5Zm-3,2.16a1.75,1.75,0,0,1-.4-.43.5.5,0,0,0,.17,0,.72.72,0,0,0,.5-.19V43Zm1.21.24a4.49,4.49,0,0,0-.44.35V42.18a.76.76,0,0,0,.5.19.82.82,0,0,0,.28,0,.87.87,0,0,0,.14.27A2.33,2.33,0,0,1,23.06,43Zm-8.68,7.6h-.05a.74.74,0,0,0-.71-1,.82.82,0,0,0-.27.06.76.76,0,0,0-.73-.56.73.73,0,0,0-.54.25.75.75,0,0,0-1.46.25.43.43,0,0,0,0,.05.74.74,0,0,0-.25-.05.76.76,0,0,0-.76.75.75.75,0,0,0-.74.75.77.77,0,0,0,.35.64.66.66,0,0,0-.11.36.76.76,0,0,0,1.37.44,2.14,2.14,0,0,0,.53.6c.31.28.6.54.6,1v1h.5v-.75c0-.41.36-.67.73-.95a2.4,2.4,0,0,0,.62-.56h.15a.75.75,0,0,0,.76-.75.75.75,0,0,0,0-1.5Zm-3,2.16a1.75,1.75,0,0,1-.4-.43.5.5,0,0,0,.17,0,.72.72,0,0,0,.5-.19V53Zm1.21.24a4.49,4.49,0,0,0-.44.35V52.18a.76.76,0,0,0,.5.19.82.82,0,0,0,.28,0,.87.87,0,0,0,.14.27A2.33,2.33,0,0,1,12.56,53Zm14.82,2.6h-.05a.74.74,0,0,0-.71-1,.82.82,0,0,0-.27.06.76.76,0,0,0-.73-.56.73.73,0,0,0-.54.25.75.75,0,0,0-1.46.25.43.43,0,0,0,0,.05.74.74,0,0,0-.25-.05.76.76,0,0,0-.76.75.75.75,0,0,0-.74.75.77.77,0,0,0,.35.64.66.66,0,0,0-.11.36.76.76,0,0,0,1.37.44,2.14,2.14,0,0,0,.53.6c.31.28.6.54.6,1v1h.5v-.75c0-.41.36-.67.73-.95a2.4,2.4,0,0,0,.62-.56h.15a.75.75,0,0,0,.76-.75.75.75,0,0,0,0-1.5Zm-3,2.16a1.75,1.75,0,0,1-.4-.43.5.5,0,0,0,.17,0,.72.72,0,0,0,.5-.19V58Zm1.21.24a4.49,4.49,0,0,0-.44.35V57.18a.76.76,0,0,0,.5.19.82.82,0,0,0,.28,0,.87.87,0,0,0,.14.27A2.33,2.33,0,0,1,25.56,58Z"/><path id="orchard_random_sparse-3" data-name="orchard_random_sparse" class="cls-2" d="M41.88,6.12h-.05a.74.74,0,0,0-.71-1,.82.82,0,0,0-.27.06.76.76,0,0,0-.73-.56.73.73,0,0,0-.54.25.75.75,0,0,0-1.46.25.43.43,0,0,0,0,0,.74.74,0,0,0-.25,0,.76.76,0,0,0-.76.75.75.75,0,0,0-.74.75.77.77,0,0,0,.35.64.66.66,0,0,0-.11.36A.76.76,0,0,0,38,8.06a2.14,2.14,0,0,0,.53.6c.31.28.6.54.6,1v1h.5V9.87c0-.41.36-.67.73-.95A2.4,2.4,0,0,0,41,8.36h.15a.75.75,0,0,0,.76-.75.75.75,0,0,0,0-1.5Zm-3,2.16a1.75,1.75,0,0,1-.4-.43.5.5,0,0,0,.17,0,.72.72,0,0,0,.5-.19v.86Zm1.21.24a4.49,4.49,0,0,0-.44.35V7.68a.76.76,0,0,0,.5.19.82.82,0,0,0,.28,0,.87.87,0,0,0,.14.27A2.33,2.33,0,0,1,40.06,8.52Zm16.82.1h-.05a.74.74,0,0,0-.71-1,.82.82,0,0,0-.27.06.76.76,0,0,0-.73-.56.73.73,0,0,0-.54.25.75.75,0,0,0-1.46.25.43.43,0,0,0,0,0,.74.74,0,0,0-.25,0,.76.76,0,0,0-.76.75.75.75,0,0,0-.74.75.77.77,0,0,0,.35.64.66.66,0,0,0-.11.36.76.76,0,0,0,1.37.44,2.14,2.14,0,0,0,.53.6c.31.28.6.54.6,1v1h.5v-.75c0-.41.36-.67.73-.95a2.4,2.4,0,0,0,.62-.56h.15a.75.75,0,0,0,.76-.75.75.75,0,0,0,0-1.5Zm-3,2.16a1.75,1.75,0,0,1-.4-.43.5.5,0,0,0,.17,0,.72.72,0,0,0,.5-.19V11Zm1.21.24a4.49,4.49,0,0,0-.44.35V10.18a.76.76,0,0,0,.5.19.82.82,0,0,0,.28,0,.87.87,0,0,0,.14.27A2.33,2.33,0,0,1,55.06,11Zm-8.68,7.6h-.05a.74.74,0,0,0-.71-1,.82.82,0,0,0-.27.06.76.76,0,0,0-.73-.56.73.73,0,0,0-.54.25.75.75,0,0,0-1.46.25.43.43,0,0,0,0,.05.74.74,0,0,0-.25-.05.76.76,0,0,0-.76.75.75.75,0,0,0-.74.75.77.77,0,0,0,.35.64.66.66,0,0,0-.11.36.76.76,0,0,0,1.37.44,2.14,2.14,0,0,0,.53.6c.31.28.6.54.6,1v1h.5v-.75c0-.41.36-.67.73-.95a2.4,2.4,0,0,0,.62-.56h.15a.75.75,0,0,0,.76-.75.75.75,0,0,0,0-1.5Zm-3,2.16a1.75,1.75,0,0,1-.4-.43.5.5,0,0,0,.17,0,.72.72,0,0,0,.5-.19V21Zm1.21.24a4.49,4.49,0,0,0-.44.35V20.18a.76.76,0,0,0,.5.19.82.82,0,0,0,.28-.05.87.87,0,0,0,.14.27A2.33,2.33,0,0,1,44.56,21Zm14.82,2.6h-.05a.74.74,0,0,0-.71-1,.82.82,0,0,0-.27.06.76.76,0,0,0-.73-.56.73.73,0,0,0-.54.25.75.75,0,0,0-1.46.25.43.43,0,0,0,0,.05.74.74,0,0,0-.25-.05.76.76,0,0,0-.76.75.75.75,0,0,0-.74.75.77.77,0,0,0,.35.64.66.66,0,0,0-.11.36.76.76,0,0,0,1.37.44,2.14,2.14,0,0,0,.53.6c.31.28.6.54.6,1v1h.5v-.75c0-.41.36-.67.73-.95a2.4,2.4,0,0,0,.62-.56h.15a.75.75,0,0,0,.76-.75.75.75,0,0,0,0-1.5Zm-3,2.16a1.75,1.75,0,0,1-.4-.43.5.5,0,0,0,.17,0,.72.72,0,0,0,.5-.19V26Zm1.21.24a4.49,4.49,0,0,0-.44.35V25.18a.76.76,0,0,0,.5.19.82.82,0,0,0,.28-.05.87.87,0,0,0,.14.27A2.33,2.33,0,0,1,57.56,26Z"/><path id="orchard_random_sparse-4" data-name="orchard_random_sparse" class="cls-2" d="M41.88,38.12h-.05a.74.74,0,0,0-.71-1,.82.82,0,0,0-.27.06.76.76,0,0,0-.73-.56.73.73,0,0,0-.54.25.75.75,0,0,0-1.46.25.43.43,0,0,0,0,.05.74.74,0,0,0-.25-.05.76.76,0,0,0-.76.75.75.75,0,0,0-.74.75.77.77,0,0,0,.35.64.66.66,0,0,0-.11.36.76.76,0,0,0,1.37.44,2.14,2.14,0,0,0,.53.6c.31.28.6.54.6,1v1h.5v-.75c0-.41.36-.67.73-.95a2.4,2.4,0,0,0,.62-.56h.15a.75.75,0,0,0,.76-.75.75.75,0,0,0,0-1.5Zm-3,2.16a1.75,1.75,0,0,1-.4-.43.5.5,0,0,0,.17,0,.72.72,0,0,0,.5-.19v.86Zm1.21.24a4.49,4.49,0,0,0-.44.35V39.68a.76.76,0,0,0,.5.19.82.82,0,0,0,.28,0,.87.87,0,0,0,.14.27A2.33,2.33,0,0,1,40.06,40.52Zm16.82.1h-.05a.74.74,0,0,0-.71-1,.82.82,0,0,0-.27.06.76.76,0,0,0-.73-.56.73.73,0,0,0-.54.25.75.75,0,0,0-1.46.25.43.43,0,0,0,0,.05.74.74,0,0,0-.25-.05.76.76,0,0,0-.76.75.75.75,0,0,0-.74.75.77.77,0,0,0,.35.64.66.66,0,0,0-.11.36.76.76,0,0,0,1.37.44,2.14,2.14,0,0,0,.53.6c.31.28.6.54.6,1v1h.5v-.75c0-.41.36-.67.73-.95a2.4,2.4,0,0,0,.62-.56h.15a.75.75,0,0,0,.76-.75.75.75,0,0,0,0-1.5Zm-3,2.16a1.75,1.75,0,0,1-.4-.43.5.5,0,0,0,.17,0,.72.72,0,0,0,.5-.19V43Zm1.21.24a4.49,4.49,0,0,0-.44.35V42.18a.76.76,0,0,0,.5.19.82.82,0,0,0,.28,0,.87.87,0,0,0,.14.27A2.33,2.33,0,0,1,55.06,43Zm-8.68,7.6h-.05a.74.74,0,0,0-.71-1,.82.82,0,0,0-.27.06.76.76,0,0,0-.73-.56.73.73,0,0,0-.54.25.75.75,0,0,0-1.46.25.43.43,0,0,0,0,.05.74.74,0,0,0-.25-.05.76.76,0,0,0-.76.75.75.75,0,0,0-.74.75.77.77,0,0,0,.35.64.66.66,0,0,0-.11.36.76.76,0,0,0,1.37.44,2.14,2.14,0,0,0,.53.6c.31.28.6.54.6,1v1h.5v-.75c0-.41.36-.67.73-.95a2.4,2.4,0,0,0,.62-.56h.15a.75.75,0,0,0,.76-.75.75.75,0,0,0,0-1.5Zm-3,2.16a1.75,1.75,0,0,1-.4-.43.5.5,0,0,0,.17,0,.72.72,0,0,0,.5-.19V53Zm1.21.24a4.49,4.49,0,0,0-.44.35V52.18a.76.76,0,0,0,.5.19.82.82,0,0,0,.28,0,.87.87,0,0,0,.14.27A2.33,2.33,0,0,1,44.56,53Zm14.82,2.6h-.05a.74.74,0,0,0-.71-1,.82.82,0,0,0-.27.06.76.76,0,0,0-.73-.56.73.73,0,0,0-.54.25.75.75,0,0,0-1.46.25.43.43,0,0,0,0,.05.74.74,0,0,0-.25-.05.76.76,0,0,0-.76.75.75.75,0,0,0-.74.75.77.77,0,0,0,.35.64.66.66,0,0,0-.11.36.76.76,0,0,0,1.37.44,2.14,2.14,0,0,0,.53.6c.31.28.6.54.6,1v1h.5v-.75c0-.41.36-.67.73-.95a2.4,2.4,0,0,0,.62-.56h.15a.75.75,0,0,0,.76-.75.75.75,0,0,0,0-1.5Zm-3,2.16a1.75,1.75,0,0,1-.4-.43.5.5,0,0,0,.17,0,.72.72,0,0,0,.5-.19V58Zm1.21.24a4.49,4.49,0,0,0-.44.35V57.18a.76.76,0,0,0,.5.19.82.82,0,0,0,.28,0,.87.87,0,0,0,.14.27A2.33,2.33,0,0,1,57.56,58Z"/></g></svg>