<svg id="Sprites" xmlns="http://www.w3.org/2000/svg" viewBox="0 0 64 64"><defs><style>.cls-1{fill:none;}.cls-2{fill:#236035;}</style></defs><g id="orchard_poly_green_random_dense"><rect id="bbox_64" class="cls-1" width="64" height="64"/><path id="orchard_random_dense" class="cls-2" d="M19.75,12.25h-.09a1.71,1.71,0,0,0,.09-.51,1.5,1.5,0,0,0-1.5-1.5,1.47,1.47,0,0,0-.56.11,1.49,1.49,0,0,0-1.44-1.11,1.53,1.53,0,0,0-1.1.48,1.5,1.5,0,0,0-2.9.52s0,.06,0,.09a1.71,1.71,0,0,0-.51-.09,1.5,1.5,0,0,0-1.5,1.5,1.5,1.5,0,0,0-1.5,1.5,1.48,1.48,0,0,0,.7,1.26,1.54,1.54,0,0,0-.2.74,1.5,1.5,0,0,0,2.72.87A4.79,4.79,0,0,0,13,17.32a2.64,2.64,0,0,1,1.22,1.93v2h1v-1.5c0-.82.71-1.35,1.46-1.91a5.32,5.32,0,0,0,1.23-1.12,1.55,1.55,0,0,0,.31,0,1.5,1.5,0,0,0,1.5-1.5,1.5,1.5,0,0,0,0-3Zm-5.5,4.84c-.18-.19-.37-.36-.55-.52a3.93,3.93,0,0,1-.8-.87,1.34,1.34,0,0,0,.35.05,1.49,1.49,0,0,0,1-.39ZM16.11,17a10.57,10.57,0,0,0-.86.7V15.36a1.49,1.49,0,0,0,1,.39,1.47,1.47,0,0,0,.56-.11,1.38,1.38,0,0,0,.27.54A4.48,4.48,0,0,1,16.11,17Zm33.64.21h-.09a1.71,1.71,0,0,0,.09-.51,1.5,1.5,0,0,0-1.5-1.5,1.47,1.47,0,0,0-.56.11,1.49,1.49,0,0,0-1.44-1.11,1.53,1.53,0,0,0-1.1.48,1.5,1.5,0,0,0-2.9.52s0,.06,0,.09a1.71,1.71,0,0,0-.51-.09,1.5,1.5,0,0,0-1.5,1.5,1.5,1.5,0,0,0-1.5,1.5,1.48,1.48,0,0,0,.7,1.26,1.54,1.54,0,0,0-.2.74,1.5,1.5,0,0,0,2.72.87A4.79,4.79,0,0,0,43,22.32a2.64,2.64,0,0,1,1.22,1.93v2h1v-1.5c0-.82.71-1.35,1.46-1.91a5.32,5.32,0,0,0,1.23-1.12,1.55,1.55,0,0,0,.31,0,1.5,1.5,0,0,0,1.5-1.5,1.5,1.5,0,0,0,0-3Zm-5.5,4.84c-.18-.19-.37-.36-.55-.52a3.93,3.93,0,0,1-.8-.87,1.34,1.34,0,0,0,.35.05,1.49,1.49,0,0,0,1-.39ZM46.11,22a10.57,10.57,0,0,0-.86.7V20.36a1.49,1.49,0,0,0,1,.39,1.47,1.47,0,0,0,.56-.11,1.38,1.38,0,0,0,.27.54A4.48,4.48,0,0,1,46.11,22ZM28.75,37.25h-.09a1.71,1.71,0,0,0,.09-.51,1.5,1.5,0,0,0-1.5-1.5,1.47,1.47,0,0,0-.56.11,1.49,1.49,0,0,0-1.44-1.11,1.53,1.53,0,0,0-1.1.48,1.5,1.5,0,0,0-2.9.52s0,.06,0,.09a1.71,1.71,0,0,0-.51-.09,1.5,1.5,0,0,0-1.5,1.5,1.5,1.5,0,0,0-1.5,1.5,1.48,1.48,0,0,0,.7,1.26,1.54,1.54,0,0,0-.2.74,1.5,1.5,0,0,0,2.72.87A4.79,4.79,0,0,0,22,42.32a2.64,2.64,0,0,1,1.22,1.93v2h1v-1.5c0-.82.71-1.35,1.46-1.91a5.32,5.32,0,0,0,1.23-1.12,1.55,1.55,0,0,0,.31,0,1.5,1.5,0,0,0,1.5-1.5,1.5,1.5,0,0,0,0-3Zm-5.5,4.84c-.18-.19-.37-.36-.55-.52a3.93,3.93,0,0,1-.8-.87,1.34,1.34,0,0,0,.35,0,1.49,1.49,0,0,0,1-.39ZM25.11,42a10.57,10.57,0,0,0-.86.7V40.36a1.49,1.49,0,0,0,1,.39,1.47,1.47,0,0,0,.56-.11,1.38,1.38,0,0,0,.27.54A4.48,4.48,0,0,1,25.11,42ZM3.5,4.5H3.41A1.71,1.71,0,0,0,3.5,4,1.5,1.5,0,0,0,2,2.5a1.47,1.47,0,0,0-.56.11A1.49,1.49,0,0,0,0,1.5V8a1.47,1.47,0,0,0,.56-.11,1.38,1.38,0,0,0,.27.54A4.2,4.2,0,0,1,0,9.19v1.26c.14-.12.3-.24.46-.36A5.32,5.32,0,0,0,1.69,9,1.55,1.55,0,0,0,2,9,1.5,1.5,0,0,0,3.5,7.5a1.5,1.5,0,0,0,0-3Zm59,25.87h-.09a1.71,1.71,0,0,0,.09-.51,1.5,1.5,0,0,0-1.5-1.5,1.47,1.47,0,0,0-.56.11A1.49,1.49,0,0,0,59,27.37a1.53,1.53,0,0,0-1.1.48,1.5,1.5,0,0,0-2.9.52s0,.06,0,.09a1.71,1.71,0,0,0-.51-.09,1.5,1.5,0,0,0-1.5,1.5,1.5,1.5,0,0,0-1.5,1.5,1.48,1.48,0,0,0,.7,1.26,1.54,1.54,0,0,0-.2.74,1.5,1.5,0,0,0,2.72.87,4.59,4.59,0,0,0,1.06,1.19C56.41,36,57,36.52,57,37.37v2h1v-1.5c0-.82.71-1.35,1.46-1.91a5.32,5.32,0,0,0,1.23-1.12,1.55,1.55,0,0,0,.31,0,1.5,1.5,0,0,0,1.5-1.5,1.5,1.5,0,0,0,0-3ZM57,35.2c-.18-.18-.37-.35-.55-.51a3.93,3.93,0,0,1-.8-.87,1.34,1.34,0,0,0,.35,0,1.49,1.49,0,0,0,1-.39Zm1.86,0a10.57,10.57,0,0,0-.86.7V33.48a1.49,1.49,0,0,0,1,.39,1.47,1.47,0,0,0,.56-.11,1.38,1.38,0,0,0,.27.54A4.48,4.48,0,0,1,58.86,35.16ZM14.5,51.43h-.09a1.71,1.71,0,0,0,.09-.51,1.5,1.5,0,0,0-1.5-1.5,1.69,1.69,0,0,0-.56.11,1.49,1.49,0,0,0-2.54-.62,1.49,1.49,0,0,0-2.9.51s0,.07,0,.1a1.45,1.45,0,0,0-.51-.1A1.5,1.5,0,0,0,5,50.93a1.5,1.5,0,0,0-.8,2.77,1.54,1.54,0,0,0-.2.73,1.5,1.5,0,0,0,2.72.87,4.47,4.47,0,0,0,1.06,1.2C8.41,57.06,9,57.59,9,58.43v2h1v-1.5c0-.82.71-1.34,1.46-1.9a5.36,5.36,0,0,0,1.23-1.13,1.55,1.55,0,0,0,.31,0,1.5,1.5,0,0,0,1.5-1.5,1.5,1.5,0,1,0,0-3ZM9,56.27c-.18-.19-.37-.36-.55-.52a3.91,3.91,0,0,1-.8-.86,1.34,1.34,0,0,0,.35,0,1.53,1.53,0,0,0,1-.38Zm1.86,0a8.66,8.66,0,0,0-.86.69V54.55a1.53,1.53,0,0,0,1,.38,1.69,1.69,0,0,0,.56-.1,1.4,1.4,0,0,0,.27.53A4.77,4.77,0,0,1,10.86,56.23Zm43.89-9h-.09a1.71,1.71,0,0,0,.09-.51,1.5,1.5,0,0,0-1.5-1.5,1.47,1.47,0,0,0-.56.11,1.49,1.49,0,0,0-1.44-1.11,1.53,1.53,0,0,0-1.1.48,1.5,1.5,0,0,0-2.9.52s0,.06,0,.09a1.71,1.71,0,0,0-.51-.09,1.5,1.5,0,0,0-1.5,1.5,1.5,1.5,0,0,0-1.5,1.5,1.48,1.48,0,0,0,.7,1.26,1.54,1.54,0,0,0-.2.74,1.5,1.5,0,0,0,2.72.87A4.79,4.79,0,0,0,48,52.32a2.64,2.64,0,0,1,1.22,1.93v2h1v-1.5c0-.82.71-1.35,1.46-1.91a5.32,5.32,0,0,0,1.23-1.12,1.55,1.55,0,0,0,.31,0,1.5,1.5,0,0,0,1.5-1.5,1.5,1.5,0,0,0,0-3Zm-5.5,4.84c-.18-.19-.37-.36-.55-.52a3.93,3.93,0,0,1-.8-.87,1.34,1.34,0,0,0,.35,0,1.49,1.49,0,0,0,1-.39ZM51.11,52a10.57,10.57,0,0,0-.86.7V50.36a1.49,1.49,0,0,0,1,.39,1.47,1.47,0,0,0,.56-.11,1.38,1.38,0,0,0,.27.54A4.48,4.48,0,0,1,51.11,52ZM64,8V1.5A1.53,1.53,0,0,0,62.9,2,1.5,1.5,0,0,0,60,2.5s0,.06,0,.09a1.71,1.71,0,0,0-.51-.09A1.5,1.5,0,0,0,58,4a1.5,1.5,0,0,0-1.5,1.5,1.48,1.48,0,0,0,.7,1.26,1.54,1.54,0,0,0-.2.74,1.5,1.5,0,0,0,2.72.87,4.79,4.79,0,0,0,1.06,1.2A2.64,2.64,0,0,1,62,11.5v2h1V12a2,2,0,0,1,1-1.55V9.19l-.14.1A10.57,10.57,0,0,0,63,10V7.61A1.49,1.49,0,0,0,64,8ZM62,9.34c-.18-.19-.37-.36-.55-.52a3.93,3.93,0,0,1-.8-.87A1.34,1.34,0,0,0,61,8a1.49,1.49,0,0,0,1-.39ZM38.11,0h-12A1.39,1.39,0,0,0,26,.5a1.48,1.48,0,0,0,.7,1.26,1.54,1.54,0,0,0-.2.74,1.5,1.5,0,0,0,2.72.87,4.79,4.79,0,0,0,1.06,1.2A2.64,2.64,0,0,1,31.5,6.5v2h1V7c0-.82.71-1.35,1.46-1.91A5.32,5.32,0,0,0,35.19,4a1.55,1.55,0,0,0,.31,0A1.5,1.5,0,0,0,37,2.5,1.5,1.5,0,0,0,38.5,1,1.47,1.47,0,0,0,38.11,0ZM31.5,4.34c-.18-.19-.37-.36-.55-.52a3.93,3.93,0,0,1-.8-.87,1.34,1.34,0,0,0,.35,0,1.49,1.49,0,0,0,1-.39Zm1.86,0a10.57,10.57,0,0,0-.86.7V2.61a1.49,1.49,0,0,0,1,.39,1.47,1.47,0,0,0,.56-.11,1.38,1.38,0,0,0,.27.54A4.48,4.48,0,0,1,33.36,4.29ZM37,63.5h-.09A1.71,1.71,0,0,0,37,63a1.5,1.5,0,0,0-1.5-1.5,1.47,1.47,0,0,0-.56.11A1.49,1.49,0,0,0,33.5,60.5a1.53,1.53,0,0,0-1.1.48,1.5,1.5,0,0,0-2.9.52s0,.06,0,.09A1.71,1.71,0,0,0,29,61.5,1.5,1.5,0,0,0,27.5,63a1.5,1.5,0,0,0-1.41,1h12A1.47,1.47,0,0,0,37,63.5Z"/></g></svg>