<svg id="Sprites" xmlns="http://www.w3.org/2000/svg" viewBox="0 0 16 16"><defs><style>.cls-1{fill:none;}.cls-2{fill:#fff;}</style></defs><g id="racetrack_dog_pnt_black_fill"><rect id="bbox_16" class="cls-1" width="16" height="16"/><circle id="circle_fill" class="cls-2" cx="8" cy="8" r="7"/><path id="racetrack_dog" d="M8,15a7,7,0,1,1,7-7A7,7,0,0,1,8,15ZM8,2a6,6,0,1,0,6,6A6,6,0,0,0,8,2Zm3.13,3.59-.29-.22a.24.24,0,0,0-.34.07.27.27,0,0,0,0,.19,4,4,0,0,1-2.85,1.2A7.76,7.76,0,0,0,5.67,7a3.5,3.5,0,0,0-.89.64c-.4.36-.67.58-1,.5a.25.25,0,0,0-.29.19.25.25,0,0,0,.19.3l.25,0C4.4,8.69,5.15,8,5.17,8a1.15,1.15,0,0,1-.43.69,5,5,0,0,1-.6.22A.24.24,0,0,0,4,9.07a2.72,2.72,0,0,1-.17.43c-.17.36-.33.7-.17,1a.27.27,0,0,0,.22.13.28.28,0,0,0,.13,0,.23.23,0,0,0,.08-.33,2,2,0,0,1,.19-.52c.06-.12.11-.25.16-.36a4.47,4.47,0,0,0,.74-.28,3.82,3.82,0,0,0,.6-.23,3.35,3.35,0,0,0-.67.73.23.23,0,0,0,0,.24l.1.22c.19.43.37.83.71.89h0a.25.25,0,0,0,.25-.21.26.26,0,0,0-.2-.29c-.09,0-.25-.38-.34-.59l-.05-.1a5.1,5.1,0,0,1,.61-.62c.36-.31.72-.63.69-1,.25-.11.52-.06,1,.3a2.29,2.29,0,0,0,.87.42,2.8,2.8,0,0,0,.17.73L9,9.89a1.67,1.67,0,0,1-.06.29,1.54,1.54,0,0,0-.06.52.26.26,0,0,0,.25.22h0a.26.26,0,0,0,.22-.28,1.12,1.12,0,0,1,.05-.34,2.13,2.13,0,0,0,.07-.44s0,0,0-.07a4.18,4.18,0,0,0-.15-.43,2,2,0,0,1-.13-.51,1.39,1.39,0,0,0,.36-.12,2.56,2.56,0,0,0,.58.48l.29.21A4,4,0,0,1,11,10l.07.17a.24.24,0,0,0,.23.16h.09a.26.26,0,0,0,.15-.32l-.08-.21,0-.06A5.13,5.13,0,0,0,10.78,9l-.32-.22A1.88,1.88,0,0,1,10,8.41a1.24,1.24,0,0,0,.27-.68c0-.33-.06-.55.48-.94s.42-.49.86-.31.68-.29.68-.29C11.76,6,11.47,5.69,11.13,5.59Z"/></g></svg>