<svg id="Sprites" xmlns="http://www.w3.org/2000/svg" viewBox="0 0 16 16"><defs><style>.cls-1{fill:none;}.cls-2{fill:#fff;}</style></defs><g id="racetrack_cycle_pnt_black_fill"><rect id="bbox_16" class="cls-1" width="16" height="16"/><circle id="circle_fill" class="cls-2" cx="8" cy="8" r="7"/><path id="racetrack_cycle" d="M8,1a7,7,0,1,0,7,7A7,7,0,0,0,8,1ZM8,14a6,6,0,1,1,6-6A6,6,0,0,1,8,14Zm2.5-6a1.73,1.73,0,0,0-.32,0l0,0a.61.61,0,0,0,.46-.6.64.64,0,0,0-.27-.52.39.39,0,0,0-.21-.21L9,6.21l-.43-.88a.39.39,0,0,0-.48-.18l-1.25.5A.39.39,0,0,0,6.62,6V7a.29.29,0,0,0,0,.1L6,8.11A1.37,1.37,0,0,0,5.5,8,1.5,1.5,0,1,0,7,9.75h.61A.48.48,0,0,0,8,10a.5.5,0,0,0,.5-.5.39.39,0,0,0,0-.18L9.59,7.91l.13.31A1.5,1.5,0,1,0,10.5,8Zm-5,2.5a1,1,0,0,1,0-2,.76.76,0,0,1,.27.06l-.48.81a.25.25,0,0,0,0,.25.26.26,0,0,0,.22.13h1A1,1,0,0,1,5.5,10.5Zm.44-1.25.27-.45a1,1,0,0,1,.24.45Zm4.18-1.87c0,.06,0,.11-.15.12l0,0L10,7.37l.1,0ZM8.07,6l.34.69s.06,0,.09.08H7.38v-.5ZM7,9.25a1.43,1.43,0,0,0-.5-.88L7,7.51l.64.65v1l0,.05Zm1.41-.62V8a.39.39,0,0,0-.11-.27l-.49-.48H9.33l.05.12ZM10.5,10.5a1,1,0,0,1-1-1,1,1,0,0,1,.42-.79l.35.88a.25.25,0,0,0,.23.16l.09,0a.24.24,0,0,0,.14-.32l-.35-.89.12,0a1,1,0,0,1,0,2ZM8.75,4.75a.75.75,0,1,1,.75.75A.76.76,0,0,1,8.75,4.75Z"/></g></svg>