<svg id="Sprites" xmlns="http://www.w3.org/2000/svg" viewBox="0 0 16 16"><defs><style>.cls-1{fill:none;}.cls-2{fill:#fff;}</style></defs><g id="racetrack_vehicle_pnt_black_fill"><rect id="bbox_16" class="cls-1" width="16" height="16"/><circle id="circle_fill" class="cls-2" cx="8" cy="8" r="7"/><path id="racetrack_vehicle" d="M8,15a7,7,0,1,1,7-7A7,7,0,0,1,8,15ZM8,2a6,6,0,1,0,6,6A6,6,0,0,0,8,2Zm4.5,6.5c0,.38-.29.47-.65.49a.88.88,0,0,0,0-.24,1.13,1.13,0,0,0-2.26,0,1,1,0,0,0,0,.25H6.85a1,1,0,0,0,0-.25,1.13,1.13,0,0,0-2.26,0,1,1,0,0,0,0,.25H4.5A.49.49,0,0,1,4,8.5v-1h.65L4.4,7.25H4v-.5h.5a.29.29,0,0,1,.18.07l.51.51A3.82,3.82,0,0,1,7.5,6.5a3.83,3.83,0,0,1,2.5,1h1C11.45,7.5,12.5,8,12.5,8.5ZM5.75,8.12a.64.64,0,0,0-.63.63A.54.54,0,0,0,5.18,9,.62.62,0,0,0,6.32,9a.54.54,0,0,0,.06-.25A.64.64,0,0,0,5.75,8.12Zm5,0a.64.64,0,0,0-.63.63.54.54,0,0,0,.06.25.62.62,0,0,0,1.14,0,.54.54,0,0,0,.06-.25A.64.64,0,0,0,10.75,8.12Z"/></g></svg>