<svg id="Sprites" xmlns="http://www.w3.org/2000/svg" viewBox="0 0 16 16"><defs><style>.cls-1{fill:none;}.cls-2{fill:#fff;}</style></defs><g id="racetrack_horse_pnt_black_fill"><rect id="bbox_16" class="cls-1" width="16" height="16"/><circle id="circle_fill" class="cls-2" cx="8" cy="8" r="7"/><path id="racetrack_horse" d="M8,1a7,7,0,1,0,7,7A7,7,0,0,0,8,1ZM8,14a6,6,0,1,1,6-6A6,6,0,0,1,8,14Zm3.75-7.6V6a.25.25,0,0,0-.15-.23.26.26,0,0,0-.28.05l-1,1a.37.37,0,0,0-.18-.17L9,6.21l-.44-.88a.37.37,0,0,0-.47-.18l-1.25.5A.39.39,0,0,0,6.62,6V7a.39.39,0,0,0,.11.27h0A5.79,5.79,0,0,0,3.82,8.82a.27.27,0,0,0,0,.36.27.27,0,0,0,.36,0,6.53,6.53,0,0,1,1.32-1,1.67,1.67,0,0,0-.25.8v1a12.85,12.85,0,0,1-1.36.81.23.23,0,0,0-.11.33.24.24,0,0,0,.22.14l.14,0c.39-.2.76-.42,1.11-.64v.93a.25.25,0,0,0,.5,0V10.25c.34-.22.63-.41.85-.53h0l.16-.05H7a3.51,3.51,0,0,1,.44.08,1.45,1.45,0,0,0,.3,0A.41.41,0,0,0,8,9.88a.38.38,0,0,0,.27-.12l.81,0,.42,0h.27l.13,0h0a2.3,2.3,0,0,1,.62.69l-.5.29-.13.07a.23.23,0,0,0-.11.33.24.24,0,0,0,.33.11l.35-.18h0l.34-.2c.16.25.33.52.47.78a.26.26,0,0,0,.22.13l.12,0a.25.25,0,0,0,.1-.34c-.1-.17-.28-.48-.49-.81a1.92,1.92,0,0,0,.48-.44.26.26,0,0,0,0-.31c-.58-.57-.93-.92-.93-1.32a1,1,0,0,1,.33-.73,8.41,8.41,0,0,1,1.26.92.25.25,0,0,0,.26,0,.25.25,0,0,0,.15-.23A4,4,0,0,0,11.75,6.4ZM7.38,6.25,8.07,6l.35.69a.41.41,0,0,0,.19.18l.94.37a4.45,4.45,0,0,1-1.69.11l-.48-.49ZM7,9.16V7.75l.24,0,.38.39v1.1H7.51A3,3,0,0,0,7,9.16Zm2.5.05h0l-.44,0-.67,0V8a.5.5,0,0,0,0-.13h.21a4.29,4.29,0,0,0,.94-.1Zm1.65.79a1.73,1.73,0,0,1-.2.15,7.37,7.37,0,0,0-.47-.58.55.55,0,0,0,.13-.17A6.77,6.77,0,0,0,11.15,10ZM8.75,4.75a.75.75,0,1,1,.75.75A.76.76,0,0,1,8.75,4.75Z"/></g></svg>