<svg id="Sprites" xmlns="http://www.w3.org/2000/svg" viewBox="0 0 16 16"><defs><style>.cls-1{fill:none;}.cls-2{fill:#fff;}</style></defs><g id="rail_station_train_pnt_black_fill"><rect id="bbox_16" class="cls-1" width="16" height="16"/><circle id="circle_fill" class="cls-2" cx="8" cy="8" r="7"/><path id="rail_station_train" d="M9,4.5H8.93l.25-.75H10a.25.25,0,0,0,0-.5H6a.25.25,0,0,0,0,.5h.82l.25.75H7A1.5,1.5,0,0,0,5.5,6V9.75a.74.74,0,0,0,.75.75h.28l-.1.25-.2.5-.2.5-.2.5-.06.16a.24.24,0,0,0,.14.32l.09,0a.25.25,0,0,0,.23-.16l.14-.34H9.63l.14.34a.25.25,0,0,0,.23.16l.09,0a.24.24,0,0,0,.14-.32l-.06-.16-.2-.5-.2-.5-.2-.5-.1-.25h.28a.74.74,0,0,0,.75-.75V6A1.5,1.5,0,0,0,9,4.5ZM7.35,3.75h1.3L8.4,4.5H7.6ZM6.5,6A.5.5,0,0,1,7,5.5H9a.5.5,0,0,1,.5.5V7a.5.5,0,0,1-.5.5H7A.5.5,0,0,1,6.5,7ZM6,9a.5.5,0,1,1,.5.5A.5.5,0,0,1,6,9Zm3.43,2.75H6.57l.2-.5H9.23Zm-.4-1H7l.1-.25H8.93ZM9.5,9.5A.5.5,0,1,1,10,9,.5.5,0,0,1,9.5,9.5ZM8,15a7,7,0,1,1,7-7A7,7,0,0,1,8,15ZM8,2a6,6,0,1,0,6,6A6,6,0,0,0,8,2Z"/></g></svg>