<svg id="Sprites" xmlns="http://www.w3.org/2000/svg" viewBox="0 0 16 16"><defs><style>.cls-1{fill:none;}</style></defs><g id="redoubt_pnt_black"><rect id="bbox_16" class="cls-1" width="16" height="16"/><path id="redoubt" d="M14.5,2a.41.41,0,0,0,0-.19.51.51,0,0,0-.27-.27.41.41,0,0,0-.19,0H2a.41.41,0,0,0-.19,0,.51.51,0,0,0-.27.27A.41.41,0,0,0,1.5,2V14a.41.41,0,0,0,0,.19.51.51,0,0,0,.27.27.41.41,0,0,0,.19,0H14a.41.41,0,0,0,.19,0,.51.51,0,0,0,.27-.27.41.41,0,0,0,0-.19ZM7.29,8,2.5,12.79V3.21ZM3.21,2.5h9.58L8,7.29ZM8,8.71l4.79,4.79H3.21ZM8.71,8,13.5,3.21v9.58Z"/></g></svg>