<svg id="Sprites" xmlns="http://www.w3.org/2000/svg" viewBox="0 0 16 16"><defs><style>.cls-1{fill:none;}.cls-2{fill:#fff;}</style></defs><g id="rifle_range_pnt_black_fill"><rect id="bbox_16" class="cls-1" width="16" height="16"/><circle id="circle_fill" class="cls-2" cx="8" cy="8" r="7"/><path id="rifle_range" d="M8,15a7,7,0,1,1,7-7A7,7,0,0,1,8,15ZM8,2a6,6,0,1,0,6,6A6,6,0,0,0,8,2Zm5,5.5h-.55A4.47,4.47,0,0,0,8.5,3.55V3a.5.5,0,0,0-1,0v.55a4.47,4.47,0,0,0-3.95,4H3a.5.5,0,0,0,0,1h.55a4.47,4.47,0,0,0,4,3.95V13a.5.5,0,0,0,1,0v-.55A4.47,4.47,0,0,0,12.45,8.5H13a.5.5,0,0,0,0-1Zm-1.55,0h-1A2.5,2.5,0,0,0,8.5,5.55v-1A3.48,3.48,0,0,1,11.45,7.5ZM9,8.5h.41a1.52,1.52,0,0,1-.91.91V9a.5.5,0,0,0-1,0v.41a1.52,1.52,0,0,1-.91-.91H7a.5.5,0,0,0,0-1H6.59a1.52,1.52,0,0,1,.91-.91V7a.5.5,0,0,0,1,0V6.59a1.52,1.52,0,0,1,.91.91H9a.5.5,0,0,0,0,1ZM7.5,4.55v1a2.5,2.5,0,0,0-1.95,2h-1A3.48,3.48,0,0,1,7.5,4.55Zm-2.95,4h1a2.5,2.5,0,0,0,2,1.95v1A3.48,3.48,0,0,1,4.55,8.5Zm4,2.95v-1A2.5,2.5,0,0,0,10.45,8.5h1A3.48,3.48,0,0,1,8.5,11.45Z"/></g></svg>