<svg id="Sprites" xmlns="http://www.w3.org/2000/svg" viewBox="0 0 16 16"><defs><style>.cls-1{fill:none;}.cls-2{fill:#fff;}</style></defs><g id="rifle_range_pnt_black_fill"><rect id="bbox_16" class="cls-1" width="16" height="16"/><circle id="circle_fill" class="cls-2" cx="8" cy="8" r="7"/><path d="M8,1a7,7,0,1,0,7,7A7,7,0,0,0,8,1ZM8,14a6,6,0,1,1,6-6A6,6,0,0,1,8,14Zm4.5-6.5H11.45A3.48,3.48,0,0,0,8.5,4.55v-1a.5.5,0,0,0-1,0v1a3.48,3.48,0,0,0-2.95,3h-1a.5.5,0,0,0,0,1h1a3.48,3.48,0,0,0,3,2.95V12.5a.5.5,0,0,0,1,0V11.45A3.48,3.48,0,0,0,11.45,8.5H12.5a.5.5,0,0,0,0-1Zm-4,2.95V9.5a.5.5,0,0,0-1,0v.95A2.5,2.5,0,0,1,5.55,8.5h1a.5.5,0,0,0,0-1h-1a2.5,2.5,0,0,1,2-1.95v1a.5.5,0,0,0,1,0v-1a2.5,2.5,0,0,1,1.95,2H9.5a.5.5,0,0,0,0,1h.95A2.5,2.5,0,0,1,8.5,10.45Z"/></g></svg>