<svg id="Sprites" xmlns="http://www.w3.org/2000/svg" viewBox="0 0 32 16"><polygon id="rock_poly_single2" points="0 8.97 0 6.65 0.34 6.55 1.4 10.21 2.58 10.51 3.23 6.02 4.22 6.16 3.82 8.97 4.85 8.75 4.37 7.31 5.32 7 6.29 9.92 6.63 9.76 6.96 9.09 5.87 5.81 6.82 5.5 7.9 8.75 9.84 9.53 9.44 6.19 10.44 6.07 11.04 11.13 12.49 11.13 12.97 9.63 11.87 6.31 12.82 6 13.81 8.97 14.69 8.63 15.67 5.5 16.63 5.8 16.37 6.61 17.4 10.21 18.58 10.51 19.23 6.02 20.22 6.16 19.82 8.97 20.85 8.75 20.37 7.31 21.32 7 22.29 9.92 22.63 9.76 22.96 9.09 21.87 5.81 22.82 5.5 23.9 8.75 25.84 9.53 25.44 6.19 26.44 6.07 27.04 11.13 28.49 11.13 28.97 9.63 27.87 6.31 28.82 6 29.81 8.97 30.69 8.63 31.67 5.5 32 5.6 32 7.81 31.51 9.38 29.9 10.01 29.21 12.13 26.16 12.13 25.98 10.66 23.74 9.77 23.37 10.5 21.71 11.34 21.17 9.71 19.67 10.02 19.42 11.75 16.6 11.05 15.83 8.35 15.5 9.38 13.9 10.01 13.21 12.13 10.16 12.13 9.98 10.66 7.74 9.77 7.37 10.5 5.71 11.34 5.17 9.71 3.67 10.02 3.42 11.75 0.6 11.05 0 8.97"/></svg>