<svg id="Sprites" xmlns="http://www.w3.org/2000/svg" viewBox="0 0 16 16"><defs><style>.cls-1{fill:none;}.cls-2{fill:#0984ba;}</style></defs><g id="rock_pnt_dual"><rect id="bbox_16" class="cls-1" width="16" height="16"/><path id="water_wave" class="cls-2" d="M14.45,12a.5.5,0,0,1-.44.49.91.91,0,0,0-.55.32l-.08.08a1.84,1.84,0,0,1-.85.52l-.09,0a1.68,1.68,0,0,1-1.55-.38l-.42-.41a.68.68,0,0,0-.37-.16H9.92a.69.69,0,0,0-.41.22c-.14.12-.25.26-.39.37a1.7,1.7,0,0,1-2,.15A2,2,0,0,1,6.84,13l-.37-.35A.7.7,0,0,0,6,12.47a.73.73,0,0,0-.5.19c-.17.15-.33.33-.51.46a1.63,1.63,0,0,1-1.78.19,1.47,1.47,0,0,1-.38-.25l-.33-.25a.69.69,0,0,0-.18-.16.82.82,0,0,0-.42-.15.51.51,0,0,1-.44-.43.5.5,0,0,1,.44-.56H2a.94.94,0,0,1,.57.13l.06,0a5.83,5.83,0,0,1,.74.57l.09.09a.76.76,0,0,0,.65.16,1,1,0,0,0,.28-.16c.14-.12.27-.26.41-.39A1.72,1.72,0,0,1,6,11.5a1.65,1.65,0,0,1,1,.4l.06,0,.44.41a.67.67,0,0,0,.93,0c.15-.13.29-.28.43-.41a1.54,1.54,0,0,1,.59-.34,1.59,1.59,0,0,1,1,0,1.47,1.47,0,0,1,.68.37c.14.13.27.27.41.39a.65.65,0,0,0,.76.11.45.45,0,0,0,.17-.11l.43-.41a1.11,1.11,0,0,1,.32-.21,1.46,1.46,0,0,1,.79-.2.49.49,0,0,1,.43.43S14.45,12,14.45,12Z"/><path id="rock_rock" d="M13.22,11.71a1.11,1.11,0,0,0-.32.21l-.43.41a.45.45,0,0,1-.17.11l-.75-5.52L9.83,6.58l.62,5a1.59,1.59,0,0,0-1,0L8.56,4.5H6.91l-.41,2L7,11.9a1.65,1.65,0,0,0-1-.4l-.4-4.37-1.12.28-1,4.92-.09-.09a5.83,5.83,0,0,0-.74-.57l-.06,0L3.51,6.9a.51.51,0,0,1,.37-.39l1.69-.42L6,3.9a.5.5,0,0,1,.49-.4H9a.51.51,0,0,1,.5.44l.2,1.59L12.1,6a.5.5,0,0,1,.4.42Z"/></g></svg>