<svg id="Sprites" xmlns="http://www.w3.org/2000/svg" viewBox="0 0 32 16"><defs><style>.cls-1{fill:none;}</style></defs><g id="rock_narrow_poly_black_thick"><rect id="bbox_32" class="cls-1" width="32" height="16"/><path id="rock_narrow_thick" d="M31.46,14.5l-.05-.71-.05-.63L31,8.46a.5.5,0,1,0-1,.08l.32,4.21-1.89-.63-.94-4.23a.5.5,0,0,0-1,.22l1,4.33-.28.56h-.3l0-.16-.2-.81L26,9.38a.5.5,0,1,0-1,.24l.63,2.52-1.28.21L25,8.58A.49.49,0,0,0,24.58,8a.48.48,0,0,0-.57.41l-.69,4.12h0l-.14.83-.08.5-1.2-.3L20.68,9.52,21,8.11a.5.5,0,1,0-1-.22l-.14.63-.23,1-.57,2.57-.7.23-.88-4a.5.5,0,0,0-1,.22l1,4.37h0l-.37,1.51H15.46l-.05-.71-.05-.63L15,8.46a.5.5,0,1,0-1,.08l.32,4.21-1.89-.63-.94-4.23a.5.5,0,0,0-1,.22l1,4.33-.28.56h-.3l0-.16-.2-.81L10,9.38a.5.5,0,0,0-1,.24l.63,2.52-1.28.21L9,8.58a.5.5,0,0,0-1-.16l-.69,4.12h0l-.14.83-.08.5-1.2-.3L4.68,9.52,5,8.11a.5.5,0,0,0-1-.22l-.14.63-.23,1-.57,2.57-.7.23-.88-4a.5.5,0,1,0-1,.22l1,4.38h0l-.37,1.5H0v1H1.5A.51.51,0,0,0,2,15.12l.43-1.74h0L3.66,13A.48.48,0,0,0,4,12.61l.24-1.09L5,14.14a.53.53,0,0,0,.36.35l2,.5H7.5a.5.5,0,0,0,.27-.08A.49.49,0,0,0,8,14.58l.2-1.19,1.69-.28.13.51a.51.51,0,0,0,.49.38h1a.51.51,0,0,0,.45-.28l.31-.61,2.15.72L14.5,15a.5.5,0,0,0,.5.46h2.5a.51.51,0,0,0,.49-.38l.43-1.74L19.66,13a.48.48,0,0,0,.33-.36l.24-1.09L21,14.14a.53.53,0,0,0,.36.35l2,.5h.12a.5.5,0,0,0,.27-.08.49.49,0,0,0,.22-.34l.2-1.19,1.69-.28.13.51a.51.51,0,0,0,.49.38h1a.51.51,0,0,0,.45-.28l.31-.61,2.15.72L30.5,15a.5.5,0,0,0,.5.46h1v-1Z"/></g></svg>