<svg id="Sprites" xmlns="http://www.w3.org/2000/svg" viewBox="0 0 32 16"><path id="rock_poly_1" d="M31.23,14.75l-.08-1.06,0-.41-.37-4.8a.23.23,0,0,0-.27-.23.25.25,0,0,0-.23.27l.35,4.58-2.39-.79L27.24,8A.24.24,0,0,0,27,7.76a.24.24,0,0,0-.19.29l1,4.42-.39.78H26.7l-.13-.51-.12-.49-.71-2.81a.24.24,0,0,0-.3-.18.24.24,0,0,0-.18.3L26,12.33l-1.88.32.68-4.11a.25.25,0,0,0-.5-.08l-.71,4.28-.08.5-.16.95-1.6-.4L20.41,9.51l.33-1.46a.24.24,0,0,0-.19-.29.24.24,0,0,0-.29.19l-.18.81-.18.79-.61,2.76-1.11.36-.94-4.22A.24.24,0,0,0,17,8.26a.24.24,0,0,0-.19.29l1,4.44-.45,1.76H15.23l-.08-1.06,0-.41-.37-4.8a.24.24,0,0,0-.27-.23.25.25,0,0,0-.23.27l.35,4.58-2.39-.79L11.24,8A.24.24,0,0,0,11,7.76a.24.24,0,0,0-.19.29l1,4.42-.39.78H10.7l-.13-.51-.12-.49L9.74,9.44a.24.24,0,0,0-.3-.18.24.24,0,0,0-.18.3L10,12.33l-1.88.32.68-4.11a.25.25,0,1,0-.5-.08l-.71,4.28-.08.5-.16.95-1.6-.4L4.41,9.51l.33-1.46a.24.24,0,0,0-.19-.29A.24.24,0,0,0,4.26,8l-.18.81-.18.79-.61,2.76-1.11.36L1.24,8.45A.24.24,0,0,0,1,8.26a.24.24,0,0,0-.19.29l1,4.44L1.3,14.75H0v.5H1.5a.26.26,0,0,0,.24-.19L2.2,13.2h0l1.37-.46a.26.26,0,0,0,.16-.19l.45-2,1.07,3.56a.24.24,0,0,0,.18.17l2,.5H7.5a.23.23,0,0,0,.14,0,.25.25,0,0,0,.11-.17L8,13.18l2.1-.35.18.73a.26.26,0,0,0,.24.19h1a.24.24,0,0,0,.22-.14l.4-.8,2.52.84L14.75,15a.25.25,0,0,0,.25.23h2.5a.26.26,0,0,0,.24-.19l.47-1.86,1.37-.46a.26.26,0,0,0,.16-.19l.45-2,1.07,3.56a.24.24,0,0,0,.18.17l2,.5h.06a.23.23,0,0,0,.14,0,.25.25,0,0,0,.11-.17L24,13.18l2.1-.35.18.73a.26.26,0,0,0,.24.19h1a.24.24,0,0,0,.22-.14l.4-.8,2.52.84L30.75,15a.25.25,0,0,0,.25.23h1v-.5Z"/></svg>