<svg id="Sprites" xmlns="http://www.w3.org/2000/svg" viewBox="0 0 16 16"><defs><style>.cls-1{fill:none;}.cls-2{fill:#fff;}</style></defs><g id="rocket_site_pnt"><rect id="bbox_16" class="cls-1" width="16" height="16"/><circle class="cls-2" cx="8" cy="8" r="7"/><path d="M8,2A6,6,0,1,1,2,8,6,6,0,0,1,8,2M8,1a7,7,0,1,0,7,7A7,7,0,0,0,8,1Z"/><path d="M8.5,8.62l-.5.5V7l.5-1V4a.5.5,0,0,1,1,0V6L10,7V9.12l-.5-.5v.5h-1Zm-.22.77-.5,1a.23.23,0,0,0,.11.33.2.2,0,0,0,.11,0,.24.24,0,0,0,.22-.14l.5-1a.23.23,0,0,0-.11-.33A.24.24,0,0,0,8.28,9.39Zm1.94,1-.5-1a.24.24,0,0,0-.33-.11.23.23,0,0,0-.11.33l.5,1a.24.24,0,0,0,.22.14.2.2,0,0,0,.11,0A.23.23,0,0,0,10.22,10.39ZM9,9.25a.25.25,0,0,0-.25.25V11a.25.25,0,0,0,.5,0V9.5A.25.25,0,0,0,9,9.25Z"/><path d="M11,11.5H7.06L6.42,4.43l.24,0a.25.25,0,0,0,0-.5L6.12,4,5.13,4a.25.25,0,0,0-.23.27l.65,7.19H5a.5.5,0,0,0,0,1h6a.5.5,0,0,0,0-1ZM6.45,10.3l.07.79-.43-.36Zm-.52-.16-.07-.79.43.36Zm.41-1-.43-.36.36-.43Zm-.59-.95-.07-.79.43.36Zm.41-1-.43-.36.36-.43ZM5.42,4.52l.5,0L6,5.11l-.55-.45Zm.08.85.43.35-.36.44Zm.54,6,.19.16H6.05Z"/></g></svg>