<svg id="Sprites" xmlns="http://www.w3.org/2000/svg" viewBox="0 0 32 16"><defs><style>.cls-1{fill:none;}</style></defs><g id="rock_narrow_poly_black_medium"><rect id="bbox_32" class="cls-1" width="32" height="16"/><path id="rock_narrow_medium" d="M31.35,14.62l-.07-.87,0-.54-.37-4.74a.35.35,0,0,0-.4-.34.36.36,0,0,0-.34.4l.34,4.39-2.15-.71-.95-4.29a.38.38,0,1,0-.74.16l1,4.38-.33.66h-.48l-.08-.32-.17-.66-.68-2.73a.37.37,0,0,0-.72.18l.66,2.65-1.59.26.66-3.94a.37.37,0,0,0-.31-.43.38.38,0,0,0-.43.31l-.7,4.19-.11.7L23.2,14l-1.4-.35L20.55,9.52l.32-1.44a.38.38,0,0,0-.74-.16l-.16.7-.2.92-.59,2.67-.9.3-.91-4.09a.38.38,0,1,0-.74.16l1,4.42h0l-.4,1.61H15.35l-.07-.87,0-.54-.37-4.74a.35.35,0,0,0-.4-.34.36.36,0,0,0-.34.4l.34,4.39-2.15-.71-1-4.29a.38.38,0,1,0-.74.16l1,4.38-.33.66h-.48l-.08-.32-.17-.66L9.86,9.41a.37.37,0,1,0-.72.18l.66,2.65-1.59.26.66-3.94a.37.37,0,0,0-.31-.43.38.38,0,0,0-.43.31l-.7,4.19-.11.7L7.2,14l-1.4-.35L4.55,9.52l.32-1.44a.38.38,0,0,0-.74-.16L4,8.62l-.2.92-.59,2.67-.9.3L1.37,8.42a.39.39,0,0,0-.45-.29.39.39,0,0,0-.29.45l1,4.43h0l-.4,1.6H0v.76H1.5a.37.37,0,0,0,.36-.29l.45-1.79,1.31-.44a.41.41,0,0,0,.25-.28L4.22,11l.92,3.08a.38.38,0,0,0,.27.25l2,.5.09,0a.44.44,0,0,0,.21-.07.37.37,0,0,0,.16-.25l.21-1.28L10,13l.16.62a.37.37,0,0,0,.36.29h1a.38.38,0,0,0,.33-.21l.35-.71,2.35.78.1,1.29a.37.37,0,0,0,.37.35h2.5a.37.37,0,0,0,.36-.29l.45-1.79,1.31-.44a.41.41,0,0,0,.25-.28L20.22,11l.92,3.08a.38.38,0,0,0,.27.25l2,.5.09,0a.44.44,0,0,0,.21-.07.37.37,0,0,0,.16-.25l.21-1.28L26,13l.16.62a.37.37,0,0,0,.36.29h1a.38.38,0,0,0,.33-.21l.35-.71,2.35.78.1,1.29a.37.37,0,0,0,.37.35h1v-.76Z"/></g></svg>