<svg id="Sprites" xmlns="http://www.w3.org/2000/svg" viewBox="0 0 32 16"><path id="rock_poly_double" d="M0,12V9.71l.34-.1L1.4,13.27l1.18.3.65-4.49,1,.14L3.82,12l1-.22-.48-1.44,1-.31,1,2.92.34-.16L7,12.15,5.87,8.87l1-.31L7.9,11.81l1.94.78-.4-3.34,1-.12.6,5.06h1.45l.48-1.5-1.1-3.32,1-.31,1,3,.88-.34,1-3.13,1,.3-.26.81,1,3.6,1.18.3.65-4.49,1,.14L19.82,12l1-.22-.48-1.44.95-.31,1,2.92.34-.16.33-.67L21.87,8.87l.95-.31,1.08,3.25,1.94.78-.4-3.34,1-.12.6,5.06h1.45l.48-1.5-1.1-3.32.95-.31,1,3,.88-.34,1-3.13.33.1v2.2l-.5,1.58-1.6.63-.69,2.12H26.16L26,13.72l-2.24-.89-.37.73-1.66.84-.54-1.63-1.5.31-.25,1.73-2.82-.7-.77-2.7-.33,1-1.6.63-.69,2.12H10.16L10,13.72l-2.24-.89-.37.73-1.66.84-.54-1.63-1.5.31-.25,1.73L.6,14.11ZM6.09,3.29l-1-.19-.7,3.48,1,.19Zm2.5,0-1-.19-.7,3.48,1,.19Zm3-.52-1-.16-.67,4,1,.16Zm4,3.28-.75-3-1,.24.75,3Zm2.5.5-.75-3-1,.24.75,3ZM13.63,4.37l-1-.32L11.87,6.5l1,.32Zm8.46-1.08-1-.19-.7,3.48,1,.19Zm-1.9,2.57-2-3.36L17.31,3l2,3.36Zm4.4-2.57-1-.19-.7,3.48,1,.19Zm3-.52-1-.16-.67,4,1,.16Zm4,3.28-.75-3-1,.24.75,3Zm-2-1.68-.95-.32L27.87,6.5l.95.32ZM4.19,5.86l-2-3.36L1.31,3l2,3.36Zm-2.08.69-.75-3-1,.24.75,3Z"/></svg>