<svg id="Sprites" xmlns="http://www.w3.org/2000/svg" viewBox="0 0 32 16"><defs><style>.cls-1{fill:#fff;opacity:0;}</style></defs><path id="rock_poly_1_stretch" d="M31.45,14.72l-.26-1.47-.1-.54L30.25,8a.25.25,0,1,0-.5.08l.81,4.56-4.12-.82L25,7.42a.25.25,0,1,0-.48.16L26,12l-.59.79H24.17L24,12.26h0l-.18-.49L22.73,8.91a.24.24,0,0,0-.32-.14.24.24,0,0,0-.14.32l1,2.73-3.08.35,1-4.11a.24.24,0,0,0-.18-.3.24.24,0,0,0-.3.18l-1.08,4.29-.13.52-.24,1-2.64-.44L15,9.47l.29-1.93A.26.26,0,0,0,15,7.25a.25.25,0,0,0-.29.21l-.17,1.16-.14.91L14,12.2l-2.12-.42L10,7.89a.24.24,0,0,0-.33-.11.23.23,0,0,0-.11.33l2,3.91-.44,2.2L8,13.78l-.3-1-.15-.51L6.24,7.93a.25.25,0,1,0-.48.14L7,12.18l-3.1-.28-.53-.05-.89-.08L1,7.42a.26.26,0,0,0-.32-.16.26.26,0,0,0-.16.32L2,12.08a.26.26,0,0,0,.22.17l.9.08-.81,1.94L0,14.63v.51l2.54-.39a.26.26,0,0,0,.19-.15l.93-2.22,3.45.31.4,1.38a.28.28,0,0,0,.2.18l3.5.5h0a.26.26,0,0,0,.25-.2L12,12.3l2.25.45h.05a.33.33,0,0,0,.14,0,.27.27,0,0,0,.11-.17l.32-2.15,1.45,3.21a.29.29,0,0,0,.19.15l3,.5h0a.26.26,0,0,0,.24-.19l.34-1.37,3.4-.38.29.78a.24.24,0,0,0,.23.16h1.5a.26.26,0,0,0,.2-.1l.65-.87,4.31.86L31,15a.26.26,0,0,0,.25.21h0l.71-.11v-.5Z"/><rect class="cls-1" width="32" height="16"/></svg>