<svg id="Sprites" xmlns="http://www.w3.org/2000/svg" viewBox="0 0 32 16"><defs><style>.cls-1{fill:none;}</style></defs><g id="rock_wide_poly_black_thick"><rect id="bbox_32" class="cls-1" width="32" height="16"/><path id="rock_wide_thick" d="M31.66,14.43l-.18-1-.17-.93-.82-4.59a.5.5,0,1,0-1,.18l.75,4.2-3.63-.72L25.22,7.34a.5.5,0,0,0-.94.32l1.42,4.25-.45.59h-.9l0-.12L24,11.5,23,8.82a.5.5,0,1,0-.94.36l.91,2.43-2.39.27.94-3.76a.5.5,0,1,0-1-.24l-1,4.11-.23.94-.13.5-2.28-.38L15.21,9.41l.28-1.84a.49.49,0,1,0-1-.14l-.09.6-.24,1.55-.35,2.33-1.74-.35L10.2,7.78a.5.5,0,1,0-.9.44l1.93,3.85-.38,1.87-2.71-.39L8,12.94,7.69,12h0L6.48,7.86a.51.51,0,0,0-.62-.34.5.5,0,0,0-.34.62l1.09,3.75-2.39-.21-1-.1-.56-.05L1.22,7.34A.49.49,0,0,0,.59,7a.49.49,0,0,0-.31.63l1.5,4.5a.5.5,0,0,0,.43.34l.56.05-.62,1.5L0,14.38v1L2.58,15a.49.49,0,0,0,.38-.3l.85-2,3.11.28.35,1.21a.52.52,0,0,0,.41.36l3.5.5h.07a.5.5,0,0,0,.49-.4l.4-2,2,.4h.1a.52.52,0,0,0,.29-.09.5.5,0,0,0,.2-.34l.2-1.31L16,13.71a.48.48,0,0,0,.38.28l3,.5h.08a.5.5,0,0,0,.49-.38l.3-1.2,3-.34.22.6a.51.51,0,0,0,.47.32h1.5a.48.48,0,0,0,.4-.2l.56-.75,4,.8.31,1.74a.49.49,0,0,0,.49.41h.08l.67-.1v-1Z"/></g></svg>