<svg id="Sprites" xmlns="http://www.w3.org/2000/svg" viewBox="0 0 16 16"><path id="rock_pnt_black" d="M14,11.51a1.55,1.55,0,0,0-.57.09l-.95-5.19A.49.49,0,0,0,12.1,6L9.7,5.53,9.5,3.94A.51.51,0,0,0,9,3.5H6.5A.5.5,0,0,0,6,3.9L5.57,6.09l-1.69.42a.51.51,0,0,0-.37.39l-.95,4.74A1.11,1.11,0,0,0,2,11.51H1.94a.5.5,0,0,0-.44.56.51.51,0,0,0,.44.43.84.84,0,0,1,.6.31l.33.25A1.66,1.66,0,0,0,5,13.12c.18-.13.34-.31.51-.46a.67.67,0,0,1,.93,0l.37.35a1.69,1.69,0,0,0,2.28.07c.14-.11.25-.25.39-.37a.69.69,0,0,1,.43-.22h.13a.65.65,0,0,1,.4.16l.42.41a1.69,1.69,0,0,0,1.64.36,1.9,1.9,0,0,0,.93-.6A.91.91,0,0,1,14,12.5a.5.5,0,0,0,.43-.56A.49.49,0,0,0,14,11.51Zm-9.22.43c-.14.13-.27.27-.41.39a1,1,0,0,1-.28.16.72.72,0,0,1-.69-.21.49.49,0,0,0,.08-.18l.94-4.69,1.12-.28L6,11.51A1.66,1.66,0,0,0,4.79,11.94Zm4.06,0c-.14.13-.28.28-.43.41a.67.67,0,0,1-.93,0l-.44-.41-.06,0L6.5,6.53l.41-2H8.56l.89,7.1A1.64,1.64,0,0,0,8.85,11.94Zm3.62.39a.67.67,0,0,1-.93,0c-.14-.12-.27-.26-.41-.39a1.66,1.66,0,0,0-.68-.36l-.62-5,1.74.34.94,5.17a.88.88,0,0,0,.05.15Z"/></svg>