<svg id="Sprites" xmlns="http://www.w3.org/2000/svg" viewBox="0 0 32 16"><path d="M32,3.66V6l-.34.1L30.6,2.42l-1.18-.3-.65,4.49-1-.14.4-2.81-1,.22.48,1.44-.95.31-1-2.92-.34.16L25,3.54l1.09,3.28-.95.31L24.1,3.88,22.16,3.1l.4,3.34-1,.12L21,1.5H19.51L19,3l1.1,3.32-.95.31-1-3L17.31,4l-1,3.13-1-.3L15.63,6l-1-3.6-1.18-.3-.65,4.49-1-.14.4-2.81-1,.22.48,1.44-1,.31-1-2.92-.34.16L9,3.54l1.09,3.28-1,.31L8.1,3.88,6.16,3.1l.4,3.34-1,.12L5,1.5H3.51L3,3l1.1,3.32-.95.31-1-3L1.31,4l-1,3.13L0,7V4.83L.5,3.25l1.6-.63L2.79.5H5.84L6,2l2.24.89.37-.73,1.66-.84.54,1.63,1.5-.31L12.58.88l2.82.7.77,2.7.33-1,1.6-.63L18.79.5h3.05L22,2l2.24.89.37-.73,1.66-.84.54,1.63,1.5-.31L28.58.88l2.82.7Zm-6.09,8.73,1,.2.7-3.48-1-.2Zm-2.5,0,1,.2.7-3.48-1-.2Zm-3,.52,1,.17.67-4-1-.17Zm-4-3.27.75,3,1-.25-.75-3Zm-2.5-.5.75,3,1-.25-.75-3Zm4.48,2.18.95.31.81-2.45-.95-.31ZM9.91,12.39l1,.2.7-3.48-1-.2Zm1.9-2.56,2,3.36.86-.52-2-3.36Zm-4.4,2.56,1,.2.7-3.48-1-.2Zm-3,.52,1,.17.67-4-1-.17Zm-4-3.27.75,3,1-.25-.75-3Zm2,1.68.95.31.81-2.45-.95-.31ZM27.81,9.83l2,3.36.86-.52-2-3.36Zm2.08-.69.75,3,1-.25-.75-3Z"/></svg>