<svg id="Sprites" xmlns="http://www.w3.org/2000/svg" viewBox="0 0 32 16"><defs><style>.cls-1{fill:#fff;opacity:0;}</style></defs><path id="rock_poly_2_stretch" d="M31.55,14.57l-.21-1.2-.14-.76-.83-4.68a.38.38,0,0,0-.74.14l.78,4.38-3.87-.78L25.11,7.38a.38.38,0,0,0-.72.24l1.44,4.32-.52.68h-1l-.11-.28-.26-.7-1-2.77a.37.37,0,0,0-.7.26l1,2.59L20.38,12l1-3.94a.37.37,0,0,0-.72-.18l-1.06,4.21-.18.74-.18.71-2.46-.41L15.09,9.45l.28-1.89a.37.37,0,0,0-.74-.12l-.12.8-.2,1.31-.37,2.5L12,11.67,10.08,7.83a.37.37,0,1,0-.66.34L11.36,12l-.41,2L8,13.66l-.23-.79-.22-.76L6.36,7.89a.38.38,0,0,0-.47-.25.38.38,0,0,0-.25.47L6.79,12,4,11.79l-.79-.07-.72-.07L1.11,7.38a.38.38,0,0,0-.48-.24.38.38,0,0,0-.24.48l1.5,4.5a.38.38,0,0,0,.33.25l.73.07-.72,1.72L0,14.5v.76l2.56-.39a.38.38,0,0,0,.29-.23l.89-2.13,3.27.3.38,1.3a.37.37,0,0,0,.31.26l3.5.5h.05a.38.38,0,0,0,.37-.31l.43-2.13,2.13.43h.07a.44.44,0,0,0,.22-.07.37.37,0,0,0,.15-.25l.26-1.75,1.28,2.84a.35.35,0,0,0,.28.22l3,.5h.06a.37.37,0,0,0,.36-.29l.32-1.29,3.21-.36.26.69a.37.37,0,0,0,.35.25h1.5a.37.37,0,0,0,.3-.16l.6-.81,4.15.83.33,1.83a.38.38,0,0,0,.37.31h.06l.69-.11V14.5Z"/><rect class="cls-1" width="32" height="16"/></svg>