<svg id="Sprites" xmlns="http://www.w3.org/2000/svg" viewBox="0 0 32 16"><polygon id="rock_poly_single" points="0 11.97 0 9.65 0.34 9.55 1.4 13.21 2.58 13.51 3.23 9.02 4.22 9.16 3.82 11.97 4.85 11.75 4.37 10.31 5.32 10 6.29 12.92 6.63 12.76 6.96 12.09 5.87 8.81 6.82 8.5 7.9 11.75 9.84 12.53 9.44 9.19 10.44 9.07 11.04 14.13 12.49 14.13 12.97 12.63 11.87 9.31 12.82 9 13.81 11.97 14.69 11.63 15.67 8.5 16.63 8.8 16.37 9.61 17.4 13.21 18.58 13.51 19.23 9.02 20.22 9.16 19.82 11.97 20.85 11.75 20.37 10.31 21.32 10 22.29 12.92 22.63 12.76 22.96 12.09 21.87 8.81 22.82 8.5 23.9 11.75 25.84 12.53 25.44 9.19 26.44 9.07 27.04 14.13 28.49 14.13 28.97 12.63 27.87 9.31 28.82 9 29.81 11.97 30.69 11.63 31.67 8.5 32 8.6 32 10.81 31.51 12.38 29.9 13.01 29.21 15.13 26.16 15.13 25.98 13.66 23.74 12.77 23.37 13.5 21.71 14.34 21.17 12.71 19.67 13.02 19.42 14.75 16.6 14.05 15.83 11.35 15.5 12.38 13.9 13.01 13.21 15.13 10.16 15.13 9.98 13.66 7.74 12.77 7.37 13.5 5.71 14.34 5.17 12.71 3.67 13.02 3.42 14.75 0.6 14.05 0 11.97"/></svg>