<svg id="Sprites" xmlns="http://www.w3.org/2000/svg" viewBox="0 0 16 16"><defs><style>.cls-1{fill:none;}</style></defs><g id="rock_outcrop_boulder_right_pnt_black"><rect id="bbox_16" class="cls-1" width="16" height="16"/><path id="rock_outcrop_boulder_right" d="M2.28,8.45l3.28,1.64,0,0L13.28,14a.54.54,0,0,0,.22.05.5.5,0,0,0,.22-.95l-2.9-1.45L9.49,5.4A.5.5,0,0,0,9.1,5l-2.5-.5a.49.49,0,0,0-.39.08A.51.51,0,0,0,6,4.93l-.57,4L2.72,7.55a.5.5,0,1,0-.44.9ZM9.67,11,6.38,9.38l.54-3.79,1.66.34Z"/></g></svg>