<svg id="Sprites" xmlns="http://www.w3.org/2000/svg" viewBox="0 0 32 16"><polygon points="32 3.66 32 5.98 31.66 6.08 30.6 2.42 29.42 2.12 28.77 6.61 27.78 6.47 28.18 3.66 27.15 3.88 27.63 5.32 26.68 5.63 25.71 2.71 25.37 2.87 25.04 3.54 26.13 6.82 25.18 7.13 24.1 3.88 22.16 3.1 22.56 6.44 21.56 6.56 20.96 1.5 19.51 1.5 19.03 3 20.13 6.32 19.18 6.63 18.19 3.66 17.31 4 16.33 7.13 15.37 6.83 15.63 6.02 14.6 2.42 13.42 2.12 12.77 6.61 11.78 6.47 12.18 3.66 11.15 3.88 11.63 5.32 10.68 5.63 9.71 2.71 9.37 2.87 9.04 3.54 10.13 6.82 9.18 7.13 8.1 3.88 6.16 3.1 6.56 6.44 5.56 6.56 4.96 1.5 3.51 1.5 3.03 3 4.13 6.32 3.18 6.63 2.19 3.66 1.31 4 0.33 7.13 0 7.03 0 4.82 0.49 3.25 2.1 2.62 2.79 0.5 5.84 0.5 6.02 1.97 8.26 2.86 8.63 2.13 10.29 1.29 10.83 2.92 12.33 2.61 12.58 0.88 15.4 1.58 16.17 4.28 16.5 3.25 18.1 2.62 18.79 0.5 21.84 0.5 22.02 1.97 24.26 2.86 24.63 2.13 26.29 1.29 26.83 2.92 28.33 2.61 28.58 0.88 31.4 1.58 32 3.66"/></svg>