<svg id="Sprites" xmlns="http://www.w3.org/2000/svg" viewBox="0 0 64 64"><defs><style>.cls-1{fill:none;}.cls-2{fill:#0984ba;}</style></defs><g id="sand_water_poly_half"><rect id="bbox_64" class="cls-1" width="32" height="32"/><path id="sand_water" class="cls-2" d="M2.25,3.12a.38.38,0,1,1-.37-.37A.38.38,0,0,1,2.25,3.12ZM4.62,6.5A.38.38,0,1,0,5,6.88.38.38,0,0,0,4.62,6.5Zm8.88,5a.38.38,0,1,0,.38.38A.38.38,0,0,0,13.5,11.5Zm-.88-5.12a.37.37,0,1,0,.38.37A.37.37,0,0,0,12.62,6.38ZM9.88,2.75a.38.38,0,1,0,.37.37A.38.38,0,0,0,9.88,2.75ZM5.5,12.25a.38.38,0,1,0,.38.37A.38.38,0,0,0,5.5,12.25Zm4.25.13a.37.37,0,1,0,.37.37A.36.36,0,0,0,9.75,12.38ZM8.12,6.62A.38.38,0,1,0,8.5,7,.38.38,0,0,0,8.12,6.62Zm2.5,2.5A.38.38,0,1,0,11,9.5.38.38,0,0,0,10.62,9.12ZM5.75,1.88a.37.37,0,1,0,.37.37A.36.36,0,0,0,5.75,1.88ZM2,9.88a.37.37,0,1,0,.38.37A.37.37,0,0,0,2,9.88Zm-1.62,4a.38.38,0,1,0,0,.75.38.38,0,0,0,0-.75Zm4,1.35a.38.38,0,0,0,0,.75.38.38,0,1,0,0-.75Zm6.42.5a.37.37,0,0,0-.35.25h.7A.37.37,0,0,0,10.75,15.75Zm2.87-15a.38.38,0,0,0,0,.75.38.38,0,1,0,0-.75Zm-9,5.75A.38.38,0,1,0,5,6.88.38.38,0,0,0,4.62,6.5Zm8.88,5a.38.38,0,1,0,.38.38A.38.38,0,0,0,13.5,11.5Zm-.88-5.12a.37.37,0,1,0,.38.37A.37.37,0,0,0,12.62,6.38ZM9.88,2.75a.38.38,0,1,0,.37.37A.38.38,0,0,0,9.88,2.75ZM5.5,12.25a.38.38,0,1,0,.38.37A.38.38,0,0,0,5.5,12.25Zm4.25.13a.37.37,0,1,0,.37.37A.36.36,0,0,0,9.75,12.38ZM8.12,6.62A.38.38,0,1,0,8.5,7,.38.38,0,0,0,8.12,6.62Zm2.5,2.5A.38.38,0,1,0,11,9.5.38.38,0,0,0,10.62,9.12ZM7.38,10.38a.25.25,0,0,0-.26.24.26.26,0,0,0,.26.26.25.25,0,0,0,.24-.26A.24.24,0,0,0,7.38,10.38ZM5.12,8.75a.25.25,0,0,0,0,.5.25.25,0,1,0,0-.5Zm3.26-.13a.26.26,0,0,0-.26.26.25.25,0,0,0,.26.24.24.24,0,0,0,.24-.24A.25.25,0,0,0,8.38,8.62ZM4,10.75a.25.25,0,1,0,.25.25A.25.25,0,0,0,4,10.75Zm-3.25.63a.25.25,0,0,0-.25.24.26.26,0,0,0,.25.26A.26.26,0,0,0,1,11.62.25.25,0,0,0,.75,11.38ZM2.38,13.5a.25.25,0,1,0,0,.5.25.25,0,0,0,0-.5Zm3,.75a.25.25,0,1,0,0,.5.25.25,0,0,0,0-.5Zm2.62-1a.25.25,0,1,0,.25.25A.25.25,0,0,0,8,13.25Zm1.5,1.37a.26.26,0,0,0-.25.26.25.25,0,0,0,.5,0A.26.26,0,0,0,9.5,14.62Zm3.62-.24a.24.24,0,0,0-.24.24.25.25,0,0,0,.24.26.26.26,0,0,0,.26-.26A.25.25,0,0,0,13.12,14.38ZM12,12.25a.25.25,0,1,0,.25.25A.25.25,0,0,0,12,12.25Zm0-1.75a.25.25,0,1,0,.25.25A.25.25,0,0,0,12,10.5Zm2.75-.62a.25.25,0,0,0-.25.24.25.25,0,1,0,.5,0A.25.25,0,0,0,14.75,9.88Zm-1.63-1.5a.24.24,0,0,0-.24.24.25.25,0,0,0,.24.26.26.26,0,0,0,.26-.26A.25.25,0,0,0,13.12,8.38Zm2.13-1.76a.26.26,0,0,0-.25.26.25.25,0,0,0,.5,0A.26.26,0,0,0,15.25,6.62ZM10.62,6.5a.25.25,0,0,0,0,.5.25.25,0,1,0,0-.5Zm-1.37-2a.25.25,0,1,0,.25.25A.25.25,0,0,0,9.25,4.5ZM12,3.5a.25.25,0,1,0,.25.25A.25.25,0,0,0,12,3.5Zm1.75,1a.25.25,0,1,0,.25.25A.25.25,0,0,0,13.75,4.5Zm1.37-2.25a.25.25,0,0,0,0,.5.25.25,0,1,0,0-.5Zm-6-1a.25.25,0,0,0,0,.5.25.25,0,1,0,0-.5ZM7.12.12a.25.25,0,0,0-.24.26.24.24,0,0,0,.24.24A.25.25,0,0,0,7.38.38.26.26,0,0,0,7.12.12Zm.5,3.13a.25.25,0,0,0,0,.5.25.25,0,1,0,0-.5ZM6.75,5.12a.26.26,0,0,0-.25.26.25.25,0,0,0,.5,0A.26.26,0,0,0,6.75,5.12ZM4.12,4.38a.24.24,0,0,0-.24.24.25.25,0,0,0,.24.26.26.26,0,0,0,.26-.26A.25.25,0,0,0,4.12,4.38ZM3.88,2.25a.25.25,0,1,0,0,.5.25.25,0,0,0,0-.5ZM2.12,1.12a.25.25,0,0,0-.24.26.24.24,0,0,0,.24.24.25.25,0,0,0,.26-.24A.26.26,0,0,0,2.12,1.12ZM2.5,5.88a.25.25,0,0,0-.25.24.25.25,0,1,0,.5,0A.25.25,0,0,0,2.5,5.88ZM2.88,8a.25.25,0,1,0,0,.5.25.25,0,0,0,0-.5Zm13-7.25A.24.24,0,0,0,16,1V.54A.24.24,0,0,0,15.88.75Zm-.13,7.5A.25.25,0,0,0,16,8.5V8A.25.25,0,0,0,15.75,8.25ZM9.62,10.88a.24.24,0,0,0-.24.24.25.25,0,0,0,.24.26.26.26,0,0,0,.26-.26A.25.25,0,0,0,9.62,10.88Zm5.38,5a.24.24,0,0,0-.21.12h.42A.24.24,0,0,0,15,15.88Zm.12-3a.24.24,0,0,0-.24.24.25.25,0,0,0,.24.26.26.26,0,0,0,.26-.26A.25.25,0,0,0,15.12,12.88ZM1.75,15.75A.25.25,0,0,0,1.5,16H2A.25.25,0,0,0,1.75,15.75Zm4-13.87a.37.37,0,1,0,.37.37A.36.36,0,0,0,5.75,1.88ZM2,9.88a.37.37,0,1,0,.38.37A.37.37,0,0,0,2,9.88Zm-1.62,4a.38.38,0,1,0,0,.75.38.38,0,0,0,0-.75Zm4,1.35a.38.38,0,0,0,0,.75.38.38,0,1,0,0-.75Zm6.42.5a.37.37,0,0,0-.35.25h.7A.37.37,0,0,0,10.75,15.75Zm5-10.63a.37.37,0,0,0,.25.36V4.77A.37.37,0,0,0,15.75,5.12ZM13.62.75a.38.38,0,0,0,0,.75.38.38,0,1,0,0-.75Zm-13.5,4L0,4.77v.71l.12,0A.38.38,0,0,0,.5,5.12.38.38,0,0,0,.12,4.75ZM.12.5A.19.19,0,0,0,0,.54V1A.19.19,0,0,0,.12,1,.26.26,0,0,0,.38.75.26.26,0,0,0,.12.5ZM0,8v.5A.25.25,0,0,0,0,8ZM11.1,0h-.7a.25.25,0,0,0,0,.12.37.37,0,1,0,.74,0A.25.25,0,0,0,11.1,0ZM1.5,0A.25.25,0,0,0,2,0ZM15.21,0h-.42a.19.19,0,0,0,0,.12.25.25,0,1,0,.5,0A.19.19,0,0,0,15.21,0Z"/><path id="sand_water-2" data-name="sand_water" class="cls-2" d="M2.25,19.12a.38.38,0,1,1-.37-.37A.38.38,0,0,1,2.25,19.12ZM4.62,22.5a.38.38,0,1,0,.38.38A.38.38,0,0,0,4.62,22.5Zm8.88,5a.38.38,0,1,0,.38.38A.38.38,0,0,0,13.5,27.5Zm-.88-5.12a.37.37,0,1,0,.38.37A.37.37,0,0,0,12.62,22.38ZM9.88,18.75a.38.38,0,1,0,.37.37A.38.38,0,0,0,9.88,18.75ZM5.5,28.25a.38.38,0,1,0,.38.37A.38.38,0,0,0,5.5,28.25Zm4.25.13a.37.37,0,1,0,.37.37A.36.36,0,0,0,9.75,28.38ZM8.12,22.62A.38.38,0,1,0,8.5,23,.38.38,0,0,0,8.12,22.62Zm2.5,2.5a.38.38,0,1,0,.38.38A.38.38,0,0,0,10.62,25.12ZM5.75,17.88a.37.37,0,1,0,.37.37A.36.36,0,0,0,5.75,17.88ZM2,25.88a.37.37,0,1,0,.38.37A.37.37,0,0,0,2,25.88Zm-1.62,4a.38.38,0,1,0,0,.75.38.38,0,0,0,0-.75Zm4,1.35a.38.38,0,0,0,0,.75.38.38,0,1,0,0-.75Zm6.42.5a.37.37,0,0,0-.35.25h.7A.37.37,0,0,0,10.75,31.75Zm2.87-15a.38.38,0,0,0,0,.75.38.38,0,1,0,0-.75Zm-9,5.75a.38.38,0,1,0,.38.38A.38.38,0,0,0,4.62,22.5Zm8.88,5a.38.38,0,1,0,.38.38A.38.38,0,0,0,13.5,27.5Zm-.88-5.12a.37.37,0,1,0,.38.37A.37.37,0,0,0,12.62,22.38ZM9.88,18.75a.38.38,0,1,0,.37.37A.38.38,0,0,0,9.88,18.75ZM5.5,28.25a.38.38,0,1,0,.38.37A.38.38,0,0,0,5.5,28.25Zm4.25.13a.37.37,0,1,0,.37.37A.36.36,0,0,0,9.75,28.38ZM8.12,22.62A.38.38,0,1,0,8.5,23,.38.38,0,0,0,8.12,22.62Zm2.5,2.5a.38.38,0,1,0,.38.38A.38.38,0,0,0,10.62,25.12ZM7.38,26.38a.25.25,0,0,0-.26.24.26.26,0,0,0,.26.26.25.25,0,0,0,.24-.26A.24.24,0,0,0,7.38,26.38ZM5.12,24.75a.25.25,0,0,0,0,.5.25.25,0,1,0,0-.5Zm3.26-.13a.26.26,0,0,0-.26.26.25.25,0,0,0,.26.24.24.24,0,0,0,.24-.24A.25.25,0,0,0,8.38,24.62ZM4,26.75a.25.25,0,1,0,.25.25A.25.25,0,0,0,4,26.75Zm-3.25.63a.25.25,0,0,0-.25.24.26.26,0,0,0,.25.26A.26.26,0,0,0,1,27.62.25.25,0,0,0,.75,27.38ZM2.38,29.5a.25.25,0,1,0,0,.5.25.25,0,0,0,0-.5Zm3,.75a.25.25,0,1,0,0,.5.25.25,0,0,0,0-.5Zm2.62-1a.25.25,0,1,0,.25.25A.25.25,0,0,0,8,29.25Zm1.5,1.37a.26.26,0,0,0-.25.26.25.25,0,0,0,.5,0A.26.26,0,0,0,9.5,30.62Zm3.62-.24a.24.24,0,0,0-.24.24.25.25,0,0,0,.24.26.26.26,0,0,0,.26-.26A.25.25,0,0,0,13.12,30.38ZM12,28.25a.25.25,0,1,0,.25.25A.25.25,0,0,0,12,28.25Zm0-1.75a.25.25,0,1,0,.25.25A.25.25,0,0,0,12,26.5Zm2.75-.62a.25.25,0,0,0-.25.24.25.25,0,1,0,.5,0A.25.25,0,0,0,14.75,25.88Zm-1.63-1.5a.24.24,0,0,0-.24.24.25.25,0,0,0,.24.26.26.26,0,0,0,.26-.26A.25.25,0,0,0,13.12,24.38Zm2.13-1.76a.26.26,0,0,0-.25.26.25.25,0,0,0,.5,0A.26.26,0,0,0,15.25,22.62Zm-4.63-.12a.25.25,0,0,0,0,.5.25.25,0,1,0,0-.5Zm-1.37-2a.25.25,0,1,0,.25.25A.25.25,0,0,0,9.25,20.5Zm2.75-1a.25.25,0,1,0,.25.25A.25.25,0,0,0,12,19.5Zm1.75,1a.25.25,0,1,0,.25.25A.25.25,0,0,0,13.75,20.5Zm1.37-2.25a.25.25,0,0,0,0,.5.25.25,0,1,0,0-.5Zm-6-1a.25.25,0,0,0,0,.5.25.25,0,1,0,0-.5Zm-2-1.13a.25.25,0,0,0-.24.26.24.24,0,0,0,.24.24.25.25,0,0,0,.26-.24A.26.26,0,0,0,7.12,16.12Zm.5,3.13a.25.25,0,0,0,0,.5.25.25,0,1,0,0-.5Zm-.87,1.87a.26.26,0,0,0-.25.26.25.25,0,0,0,.5,0A.26.26,0,0,0,6.75,21.12Zm-2.63-.74a.24.24,0,0,0-.24.24.25.25,0,0,0,.24.26.26.26,0,0,0,.26-.26A.25.25,0,0,0,4.12,20.38Zm-.24-2.13a.25.25,0,1,0,0,.5.25.25,0,0,0,0-.5ZM2.12,17.12a.25.25,0,0,0-.24.26.24.24,0,0,0,.24.24.25.25,0,0,0,.26-.24A.26.26,0,0,0,2.12,17.12Zm.38,4.76a.25.25,0,0,0-.25.24.25.25,0,1,0,.5,0A.25.25,0,0,0,2.5,21.88ZM2.88,24a.25.25,0,1,0,0,.5.25.25,0,0,0,0-.5Zm13-7.25A.24.24,0,0,0,16,17v-.42A.24.24,0,0,0,15.88,16.75Zm-.13,7.5a.25.25,0,0,0,.25.25V24A.25.25,0,0,0,15.75,24.25ZM9.62,26.88a.24.24,0,0,0-.24.24.25.25,0,0,0,.24.26.26.26,0,0,0,.26-.26A.25.25,0,0,0,9.62,26.88Zm5.38,5a.24.24,0,0,0-.21.12h.42A.24.24,0,0,0,15,31.88Zm.12-3a.24.24,0,0,0-.24.24.25.25,0,0,0,.24.26.26.26,0,0,0,.26-.26A.25.25,0,0,0,15.12,28.88ZM1.75,31.75A.25.25,0,0,0,1.5,32H2A.25.25,0,0,0,1.75,31.75Zm4-13.87a.37.37,0,1,0,.37.37A.36.36,0,0,0,5.75,17.88ZM2,25.88a.37.37,0,1,0,.38.37A.37.37,0,0,0,2,25.88Zm-1.62,4a.38.38,0,1,0,0,.75.38.38,0,0,0,0-.75Zm4,1.35a.38.38,0,0,0,0,.75.38.38,0,1,0,0-.75Zm6.42.5a.37.37,0,0,0-.35.25h.7A.37.37,0,0,0,10.75,31.75Zm5-10.63a.37.37,0,0,0,.25.36v-.71A.37.37,0,0,0,15.75,21.12Zm-2.13-4.37a.38.38,0,0,0,0,.75.38.38,0,1,0,0-.75Zm-13.5,4-.12,0v.71l.12,0a.38.38,0,0,0,.38-.38A.38.38,0,0,0,.12,20.75Zm0-4.25a.19.19,0,0,0-.12,0V17a.19.19,0,0,0,.12,0,.25.25,0,1,0,0-.5ZM0,24v.5A.25.25,0,0,0,0,24Zm11.1-8h-.7a.25.25,0,0,0,0,.12.37.37,0,1,0,.74,0A.25.25,0,0,0,11.1,16ZM1.5,16A.25.25,0,0,0,2,16Zm13.71,0h-.42a.19.19,0,0,0,0,.12.25.25,0,1,0,.5,0A.19.19,0,0,0,15.21,16Z"/><path id="sand_water-3" data-name="sand_water" class="cls-2" d="M18.25,3.12a.38.38,0,1,1-.37-.37A.38.38,0,0,1,18.25,3.12ZM20.62,6.5a.38.38,0,1,0,.38.38A.38.38,0,0,0,20.62,6.5Zm8.88,5a.38.38,0,1,0,.38.38A.38.38,0,0,0,29.5,11.5Zm-.88-5.12a.37.37,0,1,0,.38.37A.37.37,0,0,0,28.62,6.38ZM25.88,2.75a.38.38,0,1,0,.37.37A.38.38,0,0,0,25.88,2.75Zm-4.38,9.5a.38.38,0,1,0,.38.37A.38.38,0,0,0,21.5,12.25Zm4.25.13a.37.37,0,1,0,.37.37A.36.36,0,0,0,25.75,12.38ZM24.12,6.62A.38.38,0,1,0,24.5,7,.38.38,0,0,0,24.12,6.62Zm2.5,2.5A.38.38,0,1,0,27,9.5.38.38,0,0,0,26.62,9.12ZM21.75,1.88a.37.37,0,1,0,.37.37A.36.36,0,0,0,21.75,1.88ZM18,9.88a.37.37,0,1,0,.38.37A.37.37,0,0,0,18,9.88Zm-1.62,4a.38.38,0,1,0,.37.37A.38.38,0,0,0,16.38,13.9Zm3.95,1.35a.38.38,0,0,0,0,.75.38.38,0,1,0,0-.75Zm6.42.5a.37.37,0,0,0-.35.25h.7A.37.37,0,0,0,26.75,15.75Zm2.87-15a.38.38,0,0,0,0,.75.38.38,0,1,0,0-.75Zm-9,5.75a.38.38,0,1,0,.38.38A.38.38,0,0,0,20.62,6.5Zm8.88,5a.38.38,0,1,0,.38.38A.38.38,0,0,0,29.5,11.5Zm-.88-5.12a.37.37,0,1,0,.38.37A.37.37,0,0,0,28.62,6.38ZM25.88,2.75a.38.38,0,1,0,.37.37A.38.38,0,0,0,25.88,2.75Zm-4.38,9.5a.38.38,0,1,0,.38.37A.38.38,0,0,0,21.5,12.25Zm4.25.13a.37.37,0,1,0,.37.37A.36.36,0,0,0,25.75,12.38ZM24.12,6.62A.38.38,0,1,0,24.5,7,.38.38,0,0,0,24.12,6.62Zm2.5,2.5A.38.38,0,1,0,27,9.5.38.38,0,0,0,26.62,9.12Zm-3.24,1.26a.25.25,0,0,0-.26.24.26.26,0,0,0,.26.26.25.25,0,0,0,.24-.26A.24.24,0,0,0,23.38,10.38ZM21.12,8.75a.25.25,0,0,0,0,.5.25.25,0,1,0,0-.5Zm3.26-.13a.26.26,0,0,0-.26.26.25.25,0,0,0,.26.24.24.24,0,0,0,.24-.24A.25.25,0,0,0,24.38,8.62ZM20,10.75a.25.25,0,1,0,.25.25A.25.25,0,0,0,20,10.75Zm-3.25.63a.25.25,0,0,0-.25.24.25.25,0,1,0,.5,0A.25.25,0,0,0,16.75,11.38Zm1.63,2.12a.25.25,0,1,0,0,.5.25.25,0,0,0,0-.5Zm3,.75a.25.25,0,1,0,0,.5.25.25,0,0,0,0-.5Zm2.62-1a.25.25,0,1,0,.25.25A.25.25,0,0,0,24,13.25Zm1.5,1.37a.26.26,0,0,0-.25.26.25.25,0,0,0,.5,0A.26.26,0,0,0,25.5,14.62Zm3.62-.24a.24.24,0,0,0-.24.24.25.25,0,0,0,.24.26.26.26,0,0,0,.26-.26A.25.25,0,0,0,29.12,14.38ZM28,12.25a.25.25,0,1,0,.25.25A.25.25,0,0,0,28,12.25Zm0-1.75a.25.25,0,1,0,.25.25A.25.25,0,0,0,28,10.5Zm2.75-.62a.25.25,0,0,0-.25.24.25.25,0,1,0,.5,0A.25.25,0,0,0,30.75,9.88Zm-1.63-1.5a.24.24,0,0,0-.24.24.25.25,0,0,0,.24.26.26.26,0,0,0,.26-.26A.25.25,0,0,0,29.12,8.38Zm2.13-1.76a.26.26,0,0,0-.25.26.25.25,0,0,0,.5,0A.26.26,0,0,0,31.25,6.62ZM26.62,6.5a.25.25,0,0,0,0,.5.25.25,0,1,0,0-.5Zm-1.37-2a.25.25,0,1,0,.25.25A.25.25,0,0,0,25.25,4.5ZM28,3.5a.25.25,0,1,0,.25.25A.25.25,0,0,0,28,3.5Zm1.75,1a.25.25,0,1,0,.25.25A.25.25,0,0,0,29.75,4.5Zm1.37-2.25a.25.25,0,0,0,0,.5.25.25,0,1,0,0-.5Zm-6-1a.25.25,0,0,0,0,.5.25.25,0,1,0,0-.5Zm-2-1.13a.25.25,0,0,0-.24.26.24.24,0,0,0,.24.24.25.25,0,0,0,.26-.24A.26.26,0,0,0,23.12.12Zm.5,3.13a.25.25,0,0,0,0,.5.25.25,0,1,0,0-.5Zm-.87,1.87a.26.26,0,0,0-.25.26.25.25,0,0,0,.5,0A.26.26,0,0,0,22.75,5.12Zm-2.63-.74a.24.24,0,0,0-.24.24.25.25,0,0,0,.24.26.26.26,0,0,0,.26-.26A.25.25,0,0,0,20.12,4.38Zm-.24-2.13a.25.25,0,1,0,0,.5.25.25,0,0,0,0-.5ZM18.12,1.12a.25.25,0,0,0-.24.26.24.24,0,0,0,.24.24.25.25,0,0,0,.26-.24A.26.26,0,0,0,18.12,1.12Zm.38,4.76a.25.25,0,0,0-.25.24.25.25,0,1,0,.5,0A.25.25,0,0,0,18.5,5.88ZM18.88,8a.25.25,0,1,0,0,.5.25.25,0,0,0,0-.5Zm13-7.25A.24.24,0,0,0,32,1V.54A.24.24,0,0,0,31.88.75Zm-.13,7.5A.25.25,0,0,0,32,8.5V8A.25.25,0,0,0,31.75,8.25Zm-6.13,2.63a.24.24,0,0,0-.24.24.25.25,0,0,0,.24.26.26.26,0,0,0,.26-.26A.25.25,0,0,0,25.62,10.88Zm5.38,5a.24.24,0,0,0-.21.12h.42A.24.24,0,0,0,31,15.88Zm.12-3a.24.24,0,0,0-.24.24.25.25,0,0,0,.24.26.26.26,0,0,0,.26-.26A.25.25,0,0,0,31.12,12.88ZM17.75,15.75a.25.25,0,0,0-.25.25H18A.25.25,0,0,0,17.75,15.75Zm4-13.87a.37.37,0,1,0,.37.37A.36.36,0,0,0,21.75,1.88ZM18,9.88a.37.37,0,1,0,.38.37A.37.37,0,0,0,18,9.88Zm-1.62,4a.38.38,0,1,0,.37.37A.38.38,0,0,0,16.38,13.9Zm3.95,1.35a.38.38,0,0,0,0,.75.38.38,0,1,0,0-.75Zm6.42.5a.37.37,0,0,0-.35.25h.7A.37.37,0,0,0,26.75,15.75Zm5-10.63a.37.37,0,0,0,.25.36V4.77A.37.37,0,0,0,31.75,5.12ZM29.62.75a.38.38,0,0,0,0,.75.38.38,0,1,0,0-.75Zm-13.5,4-.12,0v.71l.12,0a.38.38,0,1,0,0-.75Zm0-4.25a.19.19,0,0,0-.12,0V1a.19.19,0,0,0,.12,0,.26.26,0,0,0,.26-.25A.26.26,0,0,0,16.12.5ZM16,8v.5A.25.25,0,0,0,16,8ZM27.1,0h-.7a.25.25,0,0,0,0,.12.37.37,0,1,0,.74,0A.25.25,0,0,0,27.1,0ZM17.5,0A.25.25,0,0,0,18,0ZM31.21,0h-.42a.19.19,0,0,0,0,.12.25.25,0,1,0,.5,0A.19.19,0,0,0,31.21,0Z"/><path id="sand_water-4" data-name="sand_water" class="cls-2" d="M18.25,19.12a.38.38,0,1,1-.37-.37A.38.38,0,0,1,18.25,19.12Zm2.37,3.38a.38.38,0,1,0,.38.38A.38.38,0,0,0,20.62,22.5Zm8.88,5a.38.38,0,1,0,.38.38A.38.38,0,0,0,29.5,27.5Zm-.88-5.12a.37.37,0,1,0,.38.37A.37.37,0,0,0,28.62,22.38Zm-2.74-3.63a.38.38,0,1,0,.37.37A.38.38,0,0,0,25.88,18.75Zm-4.38,9.5a.38.38,0,1,0,.38.37A.38.38,0,0,0,21.5,28.25Zm4.25.13a.37.37,0,1,0,.37.37A.36.36,0,0,0,25.75,28.38Zm-1.63-5.76a.38.38,0,1,0,.38.38A.38.38,0,0,0,24.12,22.62Zm2.5,2.5a.38.38,0,1,0,.38.38A.38.38,0,0,0,26.62,25.12Zm-4.87-7.24a.37.37,0,1,0,.37.37A.36.36,0,0,0,21.75,17.88Zm-3.75,8a.37.37,0,1,0,.38.37A.37.37,0,0,0,18,25.88Zm-1.62,4a.38.38,0,1,0,.37.37A.38.38,0,0,0,16.38,29.9Zm3.95,1.35a.38.38,0,0,0,0,.75.38.38,0,1,0,0-.75Zm6.42.5a.37.37,0,0,0-.35.25h.7A.37.37,0,0,0,26.75,31.75Zm2.87-15a.38.38,0,0,0,0,.75.38.38,0,1,0,0-.75Zm-9,5.75a.38.38,0,1,0,.38.38A.38.38,0,0,0,20.62,22.5Zm8.88,5a.38.38,0,1,0,.38.38A.38.38,0,0,0,29.5,27.5Zm-.88-5.12a.37.37,0,1,0,.38.37A.37.37,0,0,0,28.62,22.38Zm-2.74-3.63a.38.38,0,1,0,.37.37A.38.38,0,0,0,25.88,18.75Zm-4.38,9.5a.38.38,0,1,0,.38.37A.38.38,0,0,0,21.5,28.25Zm4.25.13a.37.37,0,1,0,.37.37A.36.36,0,0,0,25.75,28.38Zm-1.63-5.76a.38.38,0,1,0,.38.38A.38.38,0,0,0,24.12,22.62Zm2.5,2.5a.38.38,0,1,0,.38.38A.38.38,0,0,0,26.62,25.12Zm-3.24,1.26a.25.25,0,0,0-.26.24.26.26,0,0,0,.26.26.25.25,0,0,0,.24-.26A.24.24,0,0,0,23.38,26.38Zm-2.26-1.63a.25.25,0,0,0,0,.5.25.25,0,1,0,0-.5Zm3.26-.13a.26.26,0,0,0-.26.26.25.25,0,0,0,.26.24.24.24,0,0,0,.24-.24A.25.25,0,0,0,24.38,24.62ZM20,26.75a.25.25,0,1,0,.25.25A.25.25,0,0,0,20,26.75Zm-3.25.63a.25.25,0,0,0-.25.24.25.25,0,1,0,.5,0A.25.25,0,0,0,16.75,27.38Zm1.63,2.12a.25.25,0,1,0,0,.5.25.25,0,0,0,0-.5Zm3,.75a.25.25,0,1,0,0,.5.25.25,0,0,0,0-.5Zm2.62-1a.25.25,0,1,0,.25.25A.25.25,0,0,0,24,29.25Zm1.5,1.37a.26.26,0,0,0-.25.26.25.25,0,0,0,.5,0A.26.26,0,0,0,25.5,30.62Zm3.62-.24a.24.24,0,0,0-.24.24.25.25,0,0,0,.24.26.26.26,0,0,0,.26-.26A.25.25,0,0,0,29.12,30.38ZM28,28.25a.25.25,0,1,0,.25.25A.25.25,0,0,0,28,28.25Zm0-1.75a.25.25,0,1,0,.25.25A.25.25,0,0,0,28,26.5Zm2.75-.62a.25.25,0,0,0-.25.24.25.25,0,1,0,.5,0A.25.25,0,0,0,30.75,25.88Zm-1.63-1.5a.24.24,0,0,0-.24.24.25.25,0,0,0,.24.26.26.26,0,0,0,.26-.26A.25.25,0,0,0,29.12,24.38Zm2.13-1.76a.26.26,0,0,0-.25.26.25.25,0,0,0,.5,0A.26.26,0,0,0,31.25,22.62Zm-4.63-.12a.25.25,0,0,0,0,.5.25.25,0,1,0,0-.5Zm-1.37-2a.25.25,0,1,0,.25.25A.25.25,0,0,0,25.25,20.5Zm2.75-1a.25.25,0,1,0,.25.25A.25.25,0,0,0,28,19.5Zm1.75,1a.25.25,0,1,0,.25.25A.25.25,0,0,0,29.75,20.5Zm1.37-2.25a.25.25,0,0,0,0,.5.25.25,0,1,0,0-.5Zm-6-1a.25.25,0,0,0,0,.5.25.25,0,1,0,0-.5Zm-2-1.13a.25.25,0,0,0-.24.26.24.24,0,0,0,.24.24.25.25,0,0,0,.26-.24A.26.26,0,0,0,23.12,16.12Zm.5,3.13a.25.25,0,0,0,0,.5.25.25,0,1,0,0-.5Zm-.87,1.87a.26.26,0,0,0-.25.26.25.25,0,0,0,.5,0A.26.26,0,0,0,22.75,21.12Zm-2.63-.74a.24.24,0,0,0-.24.24.25.25,0,0,0,.24.26.26.26,0,0,0,.26-.26A.25.25,0,0,0,20.12,20.38Zm-.24-2.13a.25.25,0,1,0,0,.5.25.25,0,0,0,0-.5Zm-1.76-1.13a.25.25,0,0,0-.24.26.24.24,0,0,0,.24.24.25.25,0,0,0,.26-.24A.26.26,0,0,0,18.12,17.12Zm.38,4.76a.25.25,0,0,0-.25.24.25.25,0,1,0,.5,0A.25.25,0,0,0,18.5,21.88ZM18.88,24a.25.25,0,1,0,0,.5.25.25,0,0,0,0-.5Zm13-7.25A.24.24,0,0,0,32,17v-.42A.24.24,0,0,0,31.88,16.75Zm-.13,7.5a.25.25,0,0,0,.25.25V24A.25.25,0,0,0,31.75,24.25Zm-6.13,2.63a.24.24,0,0,0-.24.24.25.25,0,0,0,.24.26.26.26,0,0,0,.26-.26A.25.25,0,0,0,25.62,26.88Zm5.38,5a.24.24,0,0,0-.21.12h.42A.24.24,0,0,0,31,31.88Zm.12-3a.24.24,0,0,0-.24.24.25.25,0,0,0,.24.26.26.26,0,0,0,.26-.26A.25.25,0,0,0,31.12,28.88ZM17.75,31.75a.25.25,0,0,0-.25.25H18A.25.25,0,0,0,17.75,31.75Zm4-13.87a.37.37,0,1,0,.37.37A.36.36,0,0,0,21.75,17.88Zm-3.75,8a.37.37,0,1,0,.38.37A.37.37,0,0,0,18,25.88Zm-1.62,4a.38.38,0,1,0,.37.37A.38.38,0,0,0,16.38,29.9Zm3.95,1.35a.38.38,0,0,0,0,.75.38.38,0,1,0,0-.75Zm6.42.5a.37.37,0,0,0-.35.25h.7A.37.37,0,0,0,26.75,31.75Zm5-10.63a.37.37,0,0,0,.25.36v-.71A.37.37,0,0,0,31.75,21.12Zm-2.13-4.37a.38.38,0,0,0,0,.75.38.38,0,1,0,0-.75Zm-13.5,4-.12,0v.71l.12,0a.38.38,0,1,0,0-.75Zm0-4.25a.19.19,0,0,0-.12,0V17a.19.19,0,0,0,.12,0,.25.25,0,1,0,0-.5ZM16,24v.5a.25.25,0,0,0,0-.5Zm11.1-8h-.7a.25.25,0,0,0,0,.12.37.37,0,1,0,.74,0A.25.25,0,0,0,27.1,16Zm-9.6,0a.25.25,0,0,0,.5,0Zm13.71,0h-.42a.19.19,0,0,0,0,.12.25.25,0,1,0,.5,0A.19.19,0,0,0,31.21,16Z"/></g><g id="sand_water_poly_half-2" data-name="sand_water_poly_half"><rect id="bbox_64-2" data-name="bbox_64" class="cls-1" x="32" width="32" height="32"/><path id="sand_water-5" data-name="sand_water" class="cls-2" d="M34.25,3.12a.38.38,0,1,1-.37-.37A.38.38,0,0,1,34.25,3.12ZM36.62,6.5a.38.38,0,1,0,.38.38A.38.38,0,0,0,36.62,6.5Zm8.88,5a.38.38,0,1,0,.38.38A.38.38,0,0,0,45.5,11.5Zm-.88-5.12a.37.37,0,1,0,.38.37A.37.37,0,0,0,44.62,6.38ZM41.88,2.75a.38.38,0,1,0,.37.37A.38.38,0,0,0,41.88,2.75Zm-4.38,9.5a.38.38,0,1,0,.38.37A.38.38,0,0,0,37.5,12.25Zm4.25.13a.37.37,0,1,0,.37.37A.36.36,0,0,0,41.75,12.38ZM40.12,6.62A.38.38,0,1,0,40.5,7,.38.38,0,0,0,40.12,6.62Zm2.5,2.5A.38.38,0,1,0,43,9.5.38.38,0,0,0,42.62,9.12ZM37.75,1.88a.37.37,0,1,0,.37.37A.36.36,0,0,0,37.75,1.88ZM34,9.88a.37.37,0,1,0,.38.37A.37.37,0,0,0,34,9.88Zm-1.62,4a.38.38,0,1,0,.37.37A.38.38,0,0,0,32.38,13.9Zm3.95,1.35a.38.38,0,0,0,0,.75.38.38,0,1,0,0-.75Zm6.42.5a.37.37,0,0,0-.35.25h.7A.37.37,0,0,0,42.75,15.75Zm2.87-15a.38.38,0,0,0,0,.75.38.38,0,1,0,0-.75Zm-9,5.75a.38.38,0,1,0,.38.38A.38.38,0,0,0,36.62,6.5Zm8.88,5a.38.38,0,1,0,.38.38A.38.38,0,0,0,45.5,11.5Zm-.88-5.12a.37.37,0,1,0,.38.37A.37.37,0,0,0,44.62,6.38ZM41.88,2.75a.38.38,0,1,0,.37.37A.38.38,0,0,0,41.88,2.75Zm-4.38,9.5a.38.38,0,1,0,.38.37A.38.38,0,0,0,37.5,12.25Zm4.25.13a.37.37,0,1,0,.37.37A.36.36,0,0,0,41.75,12.38ZM40.12,6.62A.38.38,0,1,0,40.5,7,.38.38,0,0,0,40.12,6.62Zm2.5,2.5A.38.38,0,1,0,43,9.5.38.38,0,0,0,42.62,9.12Zm-3.24,1.26a.25.25,0,0,0-.26.24.26.26,0,0,0,.26.26.25.25,0,0,0,.24-.26A.24.24,0,0,0,39.38,10.38ZM37.12,8.75a.25.25,0,0,0,0,.5.25.25,0,1,0,0-.5Zm3.26-.13a.26.26,0,0,0-.26.26.25.25,0,0,0,.26.24.24.24,0,0,0,.24-.24A.25.25,0,0,0,40.38,8.62ZM36,10.75a.25.25,0,1,0,.25.25A.25.25,0,0,0,36,10.75Zm-3.25.63a.25.25,0,0,0-.25.24.25.25,0,1,0,.5,0A.25.25,0,0,0,32.75,11.38Zm1.63,2.12a.25.25,0,1,0,0,.5.25.25,0,0,0,0-.5Zm3,.75a.25.25,0,1,0,0,.5.25.25,0,0,0,0-.5Zm2.62-1a.25.25,0,1,0,.25.25A.25.25,0,0,0,40,13.25Zm1.5,1.37a.26.26,0,0,0-.25.26.25.25,0,0,0,.5,0A.26.26,0,0,0,41.5,14.62Zm3.62-.24a.24.24,0,0,0-.24.24.25.25,0,0,0,.24.26.26.26,0,0,0,.26-.26A.25.25,0,0,0,45.12,14.38ZM44,12.25a.25.25,0,1,0,.25.25A.25.25,0,0,0,44,12.25Zm0-1.75a.25.25,0,1,0,.25.25A.25.25,0,0,0,44,10.5Zm2.75-.62a.25.25,0,0,0-.25.24.25.25,0,1,0,.5,0A.25.25,0,0,0,46.75,9.88Zm-1.63-1.5a.24.24,0,0,0-.24.24.25.25,0,0,0,.24.26.26.26,0,0,0,.26-.26A.25.25,0,0,0,45.12,8.38Zm2.13-1.76a.26.26,0,0,0-.25.26.25.25,0,0,0,.5,0A.26.26,0,0,0,47.25,6.62ZM42.62,6.5a.25.25,0,0,0,0,.5.25.25,0,1,0,0-.5Zm-1.37-2a.25.25,0,1,0,.25.25A.25.25,0,0,0,41.25,4.5ZM44,3.5a.25.25,0,1,0,.25.25A.25.25,0,0,0,44,3.5Zm1.75,1a.25.25,0,1,0,.25.25A.25.25,0,0,0,45.75,4.5Zm1.37-2.25a.25.25,0,0,0,0,.5.25.25,0,1,0,0-.5Zm-6-1a.25.25,0,0,0,0,.5.25.25,0,1,0,0-.5Zm-2-1.13a.25.25,0,0,0-.24.26.24.24,0,0,0,.24.24.25.25,0,0,0,.26-.24A.26.26,0,0,0,39.12.12Zm.5,3.13a.25.25,0,0,0,0,.5.25.25,0,1,0,0-.5Zm-.87,1.87a.26.26,0,0,0-.25.26.25.25,0,0,0,.5,0A.26.26,0,0,0,38.75,5.12Zm-2.63-.74a.24.24,0,0,0-.24.24.25.25,0,0,0,.24.26.26.26,0,0,0,.26-.26A.25.25,0,0,0,36.12,4.38Zm-.24-2.13a.25.25,0,1,0,0,.5.25.25,0,0,0,0-.5ZM34.12,1.12a.25.25,0,0,0-.24.26.24.24,0,0,0,.24.24.25.25,0,0,0,.26-.24A.26.26,0,0,0,34.12,1.12Zm.38,4.76a.25.25,0,0,0-.25.24.25.25,0,1,0,.5,0A.25.25,0,0,0,34.5,5.88ZM34.88,8a.25.25,0,1,0,0,.5.25.25,0,0,0,0-.5Zm13-7.25A.24.24,0,0,0,48,1V.54A.24.24,0,0,0,47.88.75Zm-.13,7.5A.25.25,0,0,0,48,8.5V8A.25.25,0,0,0,47.75,8.25Zm-6.13,2.63a.24.24,0,0,0-.24.24.25.25,0,0,0,.24.26.26.26,0,0,0,.26-.26A.25.25,0,0,0,41.62,10.88Zm5.38,5a.24.24,0,0,0-.21.12h.42A.24.24,0,0,0,47,15.88Zm.12-3a.24.24,0,0,0-.24.24.25.25,0,0,0,.24.26.26.26,0,0,0,.26-.26A.25.25,0,0,0,47.12,12.88ZM33.75,15.75a.25.25,0,0,0-.25.25H34A.25.25,0,0,0,33.75,15.75Zm4-13.87a.37.37,0,1,0,.37.37A.36.36,0,0,0,37.75,1.88ZM34,9.88a.37.37,0,1,0,.38.37A.37.37,0,0,0,34,9.88Zm-1.62,4a.38.38,0,1,0,.37.37A.38.38,0,0,0,32.38,13.9Zm3.95,1.35a.38.38,0,0,0,0,.75.38.38,0,1,0,0-.75Zm6.42.5a.37.37,0,0,0-.35.25h.7A.37.37,0,0,0,42.75,15.75Zm5-10.63a.37.37,0,0,0,.25.36V4.77A.37.37,0,0,0,47.75,5.12ZM45.62.75a.38.38,0,0,0,0,.75.38.38,0,1,0,0-.75Zm-13.5,4-.12,0v.71l.12,0a.38.38,0,1,0,0-.75Zm0-4.25a.19.19,0,0,0-.12,0V1a.19.19,0,0,0,.12,0,.26.26,0,0,0,.26-.25A.26.26,0,0,0,32.12.5ZM32,8v.5A.25.25,0,0,0,32,8ZM43.1,0h-.7a.25.25,0,0,0,0,.12.37.37,0,1,0,.74,0A.25.25,0,0,0,43.1,0ZM33.5,0A.25.25,0,0,0,34,0ZM47.21,0h-.42a.19.19,0,0,0,0,.12.25.25,0,1,0,.5,0A.19.19,0,0,0,47.21,0Z"/><path id="sand_water-6" data-name="sand_water" class="cls-2" d="M34.25,19.12a.38.38,0,1,1-.37-.37A.38.38,0,0,1,34.25,19.12Zm2.37,3.38a.38.38,0,1,0,.38.38A.38.38,0,0,0,36.62,22.5Zm8.88,5a.38.38,0,1,0,.38.38A.38.38,0,0,0,45.5,27.5Zm-.88-5.12a.37.37,0,1,0,.38.37A.37.37,0,0,0,44.62,22.38Zm-2.74-3.63a.38.38,0,1,0,.37.37A.38.38,0,0,0,41.88,18.75Zm-4.38,9.5a.38.38,0,1,0,.38.37A.38.38,0,0,0,37.5,28.25Zm4.25.13a.37.37,0,1,0,.37.37A.36.36,0,0,0,41.75,28.38Zm-1.63-5.76a.38.38,0,1,0,.38.38A.38.38,0,0,0,40.12,22.62Zm2.5,2.5a.38.38,0,1,0,.38.38A.38.38,0,0,0,42.62,25.12Zm-4.87-7.24a.37.37,0,1,0,.37.37A.36.36,0,0,0,37.75,17.88Zm-3.75,8a.37.37,0,1,0,.38.37A.37.37,0,0,0,34,25.88Zm-1.62,4a.38.38,0,1,0,.37.37A.38.38,0,0,0,32.38,29.9Zm3.95,1.35a.38.38,0,0,0,0,.75.38.38,0,1,0,0-.75Zm6.42.5a.37.37,0,0,0-.35.25h.7A.37.37,0,0,0,42.75,31.75Zm2.87-15a.38.38,0,0,0,0,.75.38.38,0,1,0,0-.75Zm-9,5.75a.38.38,0,1,0,.38.38A.38.38,0,0,0,36.62,22.5Zm8.88,5a.38.38,0,1,0,.38.38A.38.38,0,0,0,45.5,27.5Zm-.88-5.12a.37.37,0,1,0,.38.37A.37.37,0,0,0,44.62,22.38Zm-2.74-3.63a.38.38,0,1,0,.37.37A.38.38,0,0,0,41.88,18.75Zm-4.38,9.5a.38.38,0,1,0,.38.37A.38.38,0,0,0,37.5,28.25Zm4.25.13a.37.37,0,1,0,.37.37A.36.36,0,0,0,41.75,28.38Zm-1.63-5.76a.38.38,0,1,0,.38.38A.38.38,0,0,0,40.12,22.62Zm2.5,2.5a.38.38,0,1,0,.38.38A.38.38,0,0,0,42.62,25.12Zm-3.24,1.26a.25.25,0,0,0-.26.24.26.26,0,0,0,.26.26.25.25,0,0,0,.24-.26A.24.24,0,0,0,39.38,26.38Zm-2.26-1.63a.25.25,0,0,0,0,.5.25.25,0,1,0,0-.5Zm3.26-.13a.26.26,0,0,0-.26.26.25.25,0,0,0,.26.24.24.24,0,0,0,.24-.24A.25.25,0,0,0,40.38,24.62ZM36,26.75a.25.25,0,1,0,.25.25A.25.25,0,0,0,36,26.75Zm-3.25.63a.25.25,0,0,0-.25.24.25.25,0,1,0,.5,0A.25.25,0,0,0,32.75,27.38Zm1.63,2.12a.25.25,0,1,0,0,.5.25.25,0,0,0,0-.5Zm3,.75a.25.25,0,1,0,0,.5.25.25,0,0,0,0-.5Zm2.62-1a.25.25,0,1,0,.25.25A.25.25,0,0,0,40,29.25Zm1.5,1.37a.26.26,0,0,0-.25.26.25.25,0,0,0,.5,0A.26.26,0,0,0,41.5,30.62Zm3.62-.24a.24.24,0,0,0-.24.24.25.25,0,0,0,.24.26.26.26,0,0,0,.26-.26A.25.25,0,0,0,45.12,30.38ZM44,28.25a.25.25,0,1,0,.25.25A.25.25,0,0,0,44,28.25Zm0-1.75a.25.25,0,1,0,.25.25A.25.25,0,0,0,44,26.5Zm2.75-.62a.25.25,0,0,0-.25.24.25.25,0,1,0,.5,0A.25.25,0,0,0,46.75,25.88Zm-1.63-1.5a.24.24,0,0,0-.24.24.25.25,0,0,0,.24.26.26.26,0,0,0,.26-.26A.25.25,0,0,0,45.12,24.38Zm2.13-1.76a.26.26,0,0,0-.25.26.25.25,0,0,0,.5,0A.26.26,0,0,0,47.25,22.62Zm-4.63-.12a.25.25,0,0,0,0,.5.25.25,0,1,0,0-.5Zm-1.37-2a.25.25,0,1,0,.25.25A.25.25,0,0,0,41.25,20.5Zm2.75-1a.25.25,0,1,0,.25.25A.25.25,0,0,0,44,19.5Zm1.75,1a.25.25,0,1,0,.25.25A.25.25,0,0,0,45.75,20.5Zm1.37-2.25a.25.25,0,0,0,0,.5.25.25,0,1,0,0-.5Zm-6-1a.25.25,0,0,0,0,.5.25.25,0,1,0,0-.5Zm-2-1.13a.25.25,0,0,0-.24.26.24.24,0,0,0,.24.24.25.25,0,0,0,.26-.24A.26.26,0,0,0,39.12,16.12Zm.5,3.13a.25.25,0,0,0,0,.5.25.25,0,1,0,0-.5Zm-.87,1.87a.26.26,0,0,0-.25.26.25.25,0,0,0,.5,0A.26.26,0,0,0,38.75,21.12Zm-2.63-.74a.24.24,0,0,0-.24.24.25.25,0,0,0,.24.26.26.26,0,0,0,.26-.26A.25.25,0,0,0,36.12,20.38Zm-.24-2.13a.25.25,0,1,0,0,.5.25.25,0,0,0,0-.5Zm-1.76-1.13a.25.25,0,0,0-.24.26.24.24,0,0,0,.24.24.25.25,0,0,0,.26-.24A.26.26,0,0,0,34.12,17.12Zm.38,4.76a.25.25,0,0,0-.25.24.25.25,0,1,0,.5,0A.25.25,0,0,0,34.5,21.88ZM34.88,24a.25.25,0,1,0,0,.5.25.25,0,0,0,0-.5Zm13-7.25A.24.24,0,0,0,48,17v-.42A.24.24,0,0,0,47.88,16.75Zm-.13,7.5a.25.25,0,0,0,.25.25V24A.25.25,0,0,0,47.75,24.25Zm-6.13,2.63a.24.24,0,0,0-.24.24.25.25,0,0,0,.24.26.26.26,0,0,0,.26-.26A.25.25,0,0,0,41.62,26.88Zm5.38,5a.24.24,0,0,0-.21.12h.42A.24.24,0,0,0,47,31.88Zm.12-3a.24.24,0,0,0-.24.24.25.25,0,0,0,.24.26.26.26,0,0,0,.26-.26A.25.25,0,0,0,47.12,28.88ZM33.75,31.75a.25.25,0,0,0-.25.25H34A.25.25,0,0,0,33.75,31.75Zm4-13.87a.37.37,0,1,0,.37.37A.36.36,0,0,0,37.75,17.88Zm-3.75,8a.37.37,0,1,0,.38.37A.37.37,0,0,0,34,25.88Zm-1.62,4a.38.38,0,1,0,.37.37A.38.38,0,0,0,32.38,29.9Zm3.95,1.35a.38.38,0,0,0,0,.75.38.38,0,1,0,0-.75Zm6.42.5a.37.37,0,0,0-.35.25h.7A.37.37,0,0,0,42.75,31.75Zm5-10.63a.37.37,0,0,0,.25.36v-.71A.37.37,0,0,0,47.75,21.12Zm-2.13-4.37a.38.38,0,0,0,0,.75.38.38,0,1,0,0-.75Zm-13.5,4-.12,0v.71l.12,0a.38.38,0,1,0,0-.75Zm0-4.25a.19.19,0,0,0-.12,0V17a.19.19,0,0,0,.12,0,.25.25,0,1,0,0-.5ZM32,24v.5a.25.25,0,0,0,0-.5Zm11.1-8h-.7a.25.25,0,0,0,0,.12.37.37,0,1,0,.74,0A.25.25,0,0,0,43.1,16Zm-9.6,0a.25.25,0,0,0,.5,0Zm13.71,0h-.42a.19.19,0,0,0,0,.12.25.25,0,1,0,.5,0A.19.19,0,0,0,47.21,16Z"/><path id="sand_water-7" data-name="sand_water" class="cls-2" d="M50.25,3.12a.38.38,0,1,1-.37-.37A.38.38,0,0,1,50.25,3.12ZM52.62,6.5a.38.38,0,1,0,.38.38A.38.38,0,0,0,52.62,6.5Zm8.88,5a.38.38,0,1,0,.38.38A.38.38,0,0,0,61.5,11.5Zm-.88-5.12a.37.37,0,1,0,.38.37A.37.37,0,0,0,60.62,6.38ZM57.88,2.75a.38.38,0,1,0,.37.37A.38.38,0,0,0,57.88,2.75Zm-4.38,9.5a.38.38,0,1,0,.38.37A.38.38,0,0,0,53.5,12.25Zm4.25.13a.37.37,0,1,0,.37.37A.36.36,0,0,0,57.75,12.38ZM56.12,6.62A.38.38,0,1,0,56.5,7,.38.38,0,0,0,56.12,6.62Zm2.5,2.5A.38.38,0,1,0,59,9.5.38.38,0,0,0,58.62,9.12ZM53.75,1.88a.37.37,0,1,0,.37.37A.36.36,0,0,0,53.75,1.88ZM50,9.88a.37.37,0,1,0,.38.37A.37.37,0,0,0,50,9.88Zm-1.62,4a.38.38,0,1,0,.37.37A.38.38,0,0,0,48.38,13.9Zm3.95,1.35a.38.38,0,0,0,0,.75.38.38,0,1,0,0-.75Zm6.42.5a.37.37,0,0,0-.35.25h.7A.37.37,0,0,0,58.75,15.75Zm2.87-15a.38.38,0,0,0,0,.75.38.38,0,1,0,0-.75Zm-9,5.75a.38.38,0,1,0,.38.38A.38.38,0,0,0,52.62,6.5Zm8.88,5a.38.38,0,1,0,.38.38A.38.38,0,0,0,61.5,11.5Zm-.88-5.12a.37.37,0,1,0,.38.37A.37.37,0,0,0,60.62,6.38ZM57.88,2.75a.38.38,0,1,0,.37.37A.38.38,0,0,0,57.88,2.75Zm-4.38,9.5a.38.38,0,1,0,.38.37A.38.38,0,0,0,53.5,12.25Zm4.25.13a.37.37,0,1,0,.37.37A.36.36,0,0,0,57.75,12.38ZM56.12,6.62A.38.38,0,1,0,56.5,7,.38.38,0,0,0,56.12,6.62Zm2.5,2.5A.38.38,0,1,0,59,9.5.38.38,0,0,0,58.62,9.12Zm-3.24,1.26a.25.25,0,0,0-.26.24.26.26,0,0,0,.26.26.25.25,0,0,0,.24-.26A.24.24,0,0,0,55.38,10.38ZM53.12,8.75a.25.25,0,0,0,0,.5.25.25,0,1,0,0-.5Zm3.26-.13a.26.26,0,0,0-.26.26.25.25,0,0,0,.26.24.24.24,0,0,0,.24-.24A.25.25,0,0,0,56.38,8.62ZM52,10.75a.25.25,0,1,0,.25.25A.25.25,0,0,0,52,10.75Zm-3.25.63a.25.25,0,0,0-.25.24.25.25,0,1,0,.5,0A.25.25,0,0,0,48.75,11.38Zm1.63,2.12a.25.25,0,1,0,0,.5.25.25,0,0,0,0-.5Zm3,.75a.25.25,0,1,0,0,.5.25.25,0,0,0,0-.5Zm2.62-1a.25.25,0,1,0,.25.25A.25.25,0,0,0,56,13.25Zm1.5,1.37a.26.26,0,0,0-.25.26.25.25,0,0,0,.5,0A.26.26,0,0,0,57.5,14.62Zm3.62-.24a.24.24,0,0,0-.24.24.25.25,0,0,0,.24.26.26.26,0,0,0,.26-.26A.25.25,0,0,0,61.12,14.38ZM60,12.25a.25.25,0,1,0,.25.25A.25.25,0,0,0,60,12.25Zm0-1.75a.25.25,0,1,0,.25.25A.25.25,0,0,0,60,10.5Zm2.75-.62a.25.25,0,0,0-.25.24.25.25,0,1,0,.5,0A.25.25,0,0,0,62.75,9.88Zm-1.63-1.5a.24.24,0,0,0-.24.24.25.25,0,0,0,.24.26.26.26,0,0,0,.26-.26A.25.25,0,0,0,61.12,8.38Zm2.13-1.76a.26.26,0,0,0-.25.26.25.25,0,0,0,.5,0A.26.26,0,0,0,63.25,6.62ZM58.62,6.5a.25.25,0,0,0,0,.5.25.25,0,1,0,0-.5Zm-1.37-2a.25.25,0,1,0,.25.25A.25.25,0,0,0,57.25,4.5ZM60,3.5a.25.25,0,1,0,.25.25A.25.25,0,0,0,60,3.5Zm1.75,1a.25.25,0,1,0,.25.25A.25.25,0,0,0,61.75,4.5Zm1.37-2.25a.25.25,0,0,0,0,.5.25.25,0,1,0,0-.5Zm-6-1a.25.25,0,0,0,0,.5.25.25,0,1,0,0-.5Zm-2-1.13a.25.25,0,0,0-.24.26.24.24,0,0,0,.24.24.25.25,0,0,0,.26-.24A.26.26,0,0,0,55.12.12Zm.5,3.13a.25.25,0,0,0,0,.5.25.25,0,1,0,0-.5Zm-.87,1.87a.26.26,0,0,0-.25.26.25.25,0,0,0,.5,0A.26.26,0,0,0,54.75,5.12Zm-2.63-.74a.24.24,0,0,0-.24.24.25.25,0,0,0,.24.26.26.26,0,0,0,.26-.26A.25.25,0,0,0,52.12,4.38Zm-.24-2.13a.25.25,0,1,0,0,.5.25.25,0,0,0,0-.5ZM50.12,1.12a.25.25,0,0,0-.24.26.24.24,0,0,0,.24.24.25.25,0,0,0,.26-.24A.26.26,0,0,0,50.12,1.12Zm.38,4.76a.25.25,0,0,0-.25.24.25.25,0,1,0,.5,0A.25.25,0,0,0,50.5,5.88ZM50.88,8a.25.25,0,1,0,0,.5.25.25,0,0,0,0-.5Zm13-7.25A.24.24,0,0,0,64,1V.54A.24.24,0,0,0,63.88.75Zm-.13,7.5A.25.25,0,0,0,64,8.5V8A.25.25,0,0,0,63.75,8.25Zm-6.13,2.63a.24.24,0,0,0-.24.24.25.25,0,0,0,.24.26.26.26,0,0,0,.26-.26A.25.25,0,0,0,57.62,10.88Zm5.38,5a.24.24,0,0,0-.21.12h.42A.24.24,0,0,0,63,15.88Zm.12-3a.24.24,0,0,0-.24.24.25.25,0,0,0,.24.26.26.26,0,0,0,.26-.26A.25.25,0,0,0,63.12,12.88ZM49.75,15.75a.25.25,0,0,0-.25.25H50A.25.25,0,0,0,49.75,15.75Zm4-13.87a.37.37,0,1,0,.37.37A.36.36,0,0,0,53.75,1.88ZM50,9.88a.37.37,0,1,0,.38.37A.37.37,0,0,0,50,9.88Zm-1.62,4a.38.38,0,1,0,.37.37A.38.38,0,0,0,48.38,13.9Zm3.95,1.35a.38.38,0,0,0,0,.75.38.38,0,1,0,0-.75Zm6.42.5a.37.37,0,0,0-.35.25h.7A.37.37,0,0,0,58.75,15.75Zm5-10.63a.37.37,0,0,0,.25.36V4.77A.37.37,0,0,0,63.75,5.12ZM61.62.75a.38.38,0,0,0,0,.75.38.38,0,1,0,0-.75Zm-13.5,4-.12,0v.71l.12,0a.38.38,0,1,0,0-.75Zm0-4.25a.19.19,0,0,0-.12,0V1a.19.19,0,0,0,.12,0,.26.26,0,0,0,.26-.25A.26.26,0,0,0,48.12.5ZM48,8v.5A.25.25,0,0,0,48,8ZM59.1,0h-.7a.25.25,0,0,0,0,.12.37.37,0,1,0,.74,0A.25.25,0,0,0,59.1,0ZM49.5,0A.25.25,0,0,0,50,0ZM63.21,0h-.42a.19.19,0,0,0,0,.12.25.25,0,1,0,.5,0A.19.19,0,0,0,63.21,0Z"/><path id="sand_water-8" data-name="sand_water" class="cls-2" d="M50.25,19.12a.38.38,0,1,1-.37-.37A.38.38,0,0,1,50.25,19.12Zm2.37,3.38a.38.38,0,1,0,.38.38A.38.38,0,0,0,52.62,22.5Zm8.88,5a.38.38,0,1,0,.38.38A.38.38,0,0,0,61.5,27.5Zm-.88-5.12a.37.37,0,1,0,.38.37A.37.37,0,0,0,60.62,22.38Zm-2.74-3.63a.38.38,0,1,0,.37.37A.38.38,0,0,0,57.88,18.75Zm-4.38,9.5a.38.38,0,1,0,.38.37A.38.38,0,0,0,53.5,28.25Zm4.25.13a.37.37,0,1,0,.37.37A.36.36,0,0,0,57.75,28.38Zm-1.63-5.76a.38.38,0,1,0,.38.38A.38.38,0,0,0,56.12,22.62Zm2.5,2.5a.38.38,0,1,0,.38.38A.38.38,0,0,0,58.62,25.12Zm-4.87-7.24a.37.37,0,1,0,.37.37A.36.36,0,0,0,53.75,17.88Zm-3.75,8a.37.37,0,1,0,.38.37A.37.37,0,0,0,50,25.88Zm-1.62,4a.38.38,0,1,0,.37.37A.38.38,0,0,0,48.38,29.9Zm3.95,1.35a.38.38,0,0,0,0,.75.38.38,0,1,0,0-.75Zm6.42.5a.37.37,0,0,0-.35.25h.7A.37.37,0,0,0,58.75,31.75Zm2.87-15a.38.38,0,0,0,0,.75.38.38,0,1,0,0-.75Zm-9,5.75a.38.38,0,1,0,.38.38A.38.38,0,0,0,52.62,22.5Zm8.88,5a.38.38,0,1,0,.38.38A.38.38,0,0,0,61.5,27.5Zm-.88-5.12a.37.37,0,1,0,.38.37A.37.37,0,0,0,60.62,22.38Zm-2.74-3.63a.38.38,0,1,0,.37.37A.38.38,0,0,0,57.88,18.75Zm-4.38,9.5a.38.38,0,1,0,.38.37A.38.38,0,0,0,53.5,28.25Zm4.25.13a.37.37,0,1,0,.37.37A.36.36,0,0,0,57.75,28.38Zm-1.63-5.76a.38.38,0,1,0,.38.38A.38.38,0,0,0,56.12,22.62Zm2.5,2.5a.38.38,0,1,0,.38.38A.38.38,0,0,0,58.62,25.12Zm-3.24,1.26a.25.25,0,0,0-.26.24.26.26,0,0,0,.26.26.25.25,0,0,0,.24-.26A.24.24,0,0,0,55.38,26.38Zm-2.26-1.63a.25.25,0,0,0,0,.5.25.25,0,1,0,0-.5Zm3.26-.13a.26.26,0,0,0-.26.26.25.25,0,0,0,.26.24.24.24,0,0,0,.24-.24A.25.25,0,0,0,56.38,24.62ZM52,26.75a.25.25,0,1,0,.25.25A.25.25,0,0,0,52,26.75Zm-3.25.63a.25.25,0,0,0-.25.24.25.25,0,1,0,.5,0A.25.25,0,0,0,48.75,27.38Zm1.63,2.12a.25.25,0,1,0,0,.5.25.25,0,0,0,0-.5Zm3,.75a.25.25,0,1,0,0,.5.25.25,0,0,0,0-.5Zm2.62-1a.25.25,0,1,0,.25.25A.25.25,0,0,0,56,29.25Zm1.5,1.37a.26.26,0,0,0-.25.26.25.25,0,0,0,.5,0A.26.26,0,0,0,57.5,30.62Zm3.62-.24a.24.24,0,0,0-.24.24.25.25,0,0,0,.24.26.26.26,0,0,0,.26-.26A.25.25,0,0,0,61.12,30.38ZM60,28.25a.25.25,0,1,0,.25.25A.25.25,0,0,0,60,28.25Zm0-1.75a.25.25,0,1,0,.25.25A.25.25,0,0,0,60,26.5Zm2.75-.62a.25.25,0,0,0-.25.24.25.25,0,1,0,.5,0A.25.25,0,0,0,62.75,25.88Zm-1.63-1.5a.24.24,0,0,0-.24.24.25.25,0,0,0,.24.26.26.26,0,0,0,.26-.26A.25.25,0,0,0,61.12,24.38Zm2.13-1.76a.26.26,0,0,0-.25.26.25.25,0,0,0,.5,0A.26.26,0,0,0,63.25,22.62Zm-4.63-.12a.25.25,0,0,0,0,.5.25.25,0,1,0,0-.5Zm-1.37-2a.25.25,0,1,0,.25.25A.25.25,0,0,0,57.25,20.5Zm2.75-1a.25.25,0,1,0,.25.25A.25.25,0,0,0,60,19.5Zm1.75,1a.25.25,0,1,0,.25.25A.25.25,0,0,0,61.75,20.5Zm1.37-2.25a.25.25,0,0,0,0,.5.25.25,0,1,0,0-.5Zm-6-1a.25.25,0,0,0,0,.5.25.25,0,1,0,0-.5Zm-2-1.13a.25.25,0,0,0-.24.26.24.24,0,0,0,.24.24.25.25,0,0,0,.26-.24A.26.26,0,0,0,55.12,16.12Zm.5,3.13a.25.25,0,0,0,0,.5.25.25,0,1,0,0-.5Zm-.87,1.87a.26.26,0,0,0-.25.26.25.25,0,0,0,.5,0A.26.26,0,0,0,54.75,21.12Zm-2.63-.74a.24.24,0,0,0-.24.24.25.25,0,0,0,.24.26.26.26,0,0,0,.26-.26A.25.25,0,0,0,52.12,20.38Zm-.24-2.13a.25.25,0,1,0,0,.5.25.25,0,0,0,0-.5Zm-1.76-1.13a.25.25,0,0,0-.24.26.24.24,0,0,0,.24.24.25.25,0,0,0,.26-.24A.26.26,0,0,0,50.12,17.12Zm.38,4.76a.25.25,0,0,0-.25.24.25.25,0,1,0,.5,0A.25.25,0,0,0,50.5,21.88ZM50.88,24a.25.25,0,1,0,0,.5.25.25,0,0,0,0-.5Zm13-7.25A.24.24,0,0,0,64,17v-.42A.24.24,0,0,0,63.88,16.75Zm-.13,7.5a.25.25,0,0,0,.25.25V24A.25.25,0,0,0,63.75,24.25Zm-6.13,2.63a.24.24,0,0,0-.24.24.25.25,0,0,0,.24.26.26.26,0,0,0,.26-.26A.25.25,0,0,0,57.62,26.88Zm5.38,5a.24.24,0,0,0-.21.12h.42A.24.24,0,0,0,63,31.88Zm.12-3a.24.24,0,0,0-.24.24.25.25,0,0,0,.24.26.26.26,0,0,0,.26-.26A.25.25,0,0,0,63.12,28.88ZM49.75,31.75a.25.25,0,0,0-.25.25H50A.25.25,0,0,0,49.75,31.75Zm4-13.87a.37.37,0,1,0,.37.37A.36.36,0,0,0,53.75,17.88Zm-3.75,8a.37.37,0,1,0,.38.37A.37.37,0,0,0,50,25.88Zm-1.62,4a.38.38,0,1,0,.37.37A.38.38,0,0,0,48.38,29.9Zm3.95,1.35a.38.38,0,0,0,0,.75.38.38,0,1,0,0-.75Zm6.42.5a.37.37,0,0,0-.35.25h.7A.37.37,0,0,0,58.75,31.75Zm5-10.63a.37.37,0,0,0,.25.36v-.71A.37.37,0,0,0,63.75,21.12Zm-2.13-4.37a.38.38,0,0,0,0,.75.38.38,0,1,0,0-.75Zm-13.5,4-.12,0v.71l.12,0a.38.38,0,1,0,0-.75Zm0-4.25a.19.19,0,0,0-.12,0V17a.19.19,0,0,0,.12,0,.25.25,0,1,0,0-.5ZM48,24v.5a.25.25,0,0,0,0-.5Zm11.1-8h-.7a.25.25,0,0,0,0,.12.37.37,0,1,0,.74,0A.25.25,0,0,0,59.1,16Zm-9.6,0a.25.25,0,0,0,.5,0Zm13.71,0h-.42a.19.19,0,0,0,0,.12.25.25,0,1,0,.5,0A.19.19,0,0,0,63.21,16Z"/></g><g id="sand_water_poly_half-3" data-name="sand_water_poly_half"><rect id="bbox_64-3" data-name="bbox_64" class="cls-1" y="32" width="32" height="32"/><path id="sand_water-9" data-name="sand_water" class="cls-2" d="M2.25,35.12a.38.38,0,1,1-.37-.37A.38.38,0,0,1,2.25,35.12ZM4.62,38.5a.38.38,0,1,0,.38.38A.38.38,0,0,0,4.62,38.5Zm8.88,5a.38.38,0,1,0,.38.38A.38.38,0,0,0,13.5,43.5Zm-.88-5.12a.37.37,0,1,0,.38.37A.37.37,0,0,0,12.62,38.38ZM9.88,34.75a.38.38,0,1,0,.37.37A.38.38,0,0,0,9.88,34.75ZM5.5,44.25a.38.38,0,1,0,.38.37A.38.38,0,0,0,5.5,44.25Zm4.25.13a.37.37,0,1,0,.37.37A.36.36,0,0,0,9.75,44.38ZM8.12,38.62A.38.38,0,1,0,8.5,39,.38.38,0,0,0,8.12,38.62Zm2.5,2.5a.38.38,0,1,0,.38.38A.38.38,0,0,0,10.62,41.12ZM5.75,33.88a.37.37,0,1,0,.37.37A.36.36,0,0,0,5.75,33.88ZM2,41.88a.37.37,0,1,0,.38.37A.37.37,0,0,0,2,41.88Zm-1.62,4a.38.38,0,1,0,0,.75.38.38,0,0,0,0-.75Zm4,1.35a.38.38,0,0,0,0,.75.38.38,0,1,0,0-.75Zm6.42.5a.37.37,0,0,0-.35.25h.7A.37.37,0,0,0,10.75,47.75Zm2.87-15a.38.38,0,0,0,0,.75.38.38,0,1,0,0-.75Zm-9,5.75a.38.38,0,1,0,.38.38A.38.38,0,0,0,4.62,38.5Zm8.88,5a.38.38,0,1,0,.38.38A.38.38,0,0,0,13.5,43.5Zm-.88-5.12a.37.37,0,1,0,.38.37A.37.37,0,0,0,12.62,38.38ZM9.88,34.75a.38.38,0,1,0,.37.37A.38.38,0,0,0,9.88,34.75ZM5.5,44.25a.38.38,0,1,0,.38.37A.38.38,0,0,0,5.5,44.25Zm4.25.13a.37.37,0,1,0,.37.37A.36.36,0,0,0,9.75,44.38ZM8.12,38.62A.38.38,0,1,0,8.5,39,.38.38,0,0,0,8.12,38.62Zm2.5,2.5a.38.38,0,1,0,.38.38A.38.38,0,0,0,10.62,41.12ZM7.38,42.38a.25.25,0,0,0-.26.24.26.26,0,0,0,.26.26.25.25,0,0,0,.24-.26A.24.24,0,0,0,7.38,42.38ZM5.12,40.75a.25.25,0,0,0,0,.5.25.25,0,1,0,0-.5Zm3.26-.13a.26.26,0,0,0-.26.26.25.25,0,0,0,.26.24.24.24,0,0,0,.24-.24A.25.25,0,0,0,8.38,40.62ZM4,42.75a.25.25,0,1,0,.25.25A.25.25,0,0,0,4,42.75Zm-3.25.63a.25.25,0,0,0-.25.24.26.26,0,0,0,.25.26A.26.26,0,0,0,1,43.62.25.25,0,0,0,.75,43.38ZM2.38,45.5a.25.25,0,1,0,0,.5.25.25,0,0,0,0-.5Zm3,.75a.25.25,0,1,0,0,.5.25.25,0,0,0,0-.5Zm2.62-1a.25.25,0,1,0,.25.25A.25.25,0,0,0,8,45.25Zm1.5,1.37a.26.26,0,0,0-.25.26.25.25,0,0,0,.5,0A.26.26,0,0,0,9.5,46.62Zm3.62-.24a.24.24,0,0,0-.24.24.25.25,0,0,0,.24.26.26.26,0,0,0,.26-.26A.25.25,0,0,0,13.12,46.38ZM12,44.25a.25.25,0,1,0,.25.25A.25.25,0,0,0,12,44.25Zm0-1.75a.25.25,0,1,0,.25.25A.25.25,0,0,0,12,42.5Zm2.75-.62a.25.25,0,0,0-.25.24.25.25,0,1,0,.5,0A.25.25,0,0,0,14.75,41.88Zm-1.63-1.5a.24.24,0,0,0-.24.24.25.25,0,0,0,.24.26.26.26,0,0,0,.26-.26A.25.25,0,0,0,13.12,40.38Zm2.13-1.76a.26.26,0,0,0-.25.26.25.25,0,0,0,.5,0A.26.26,0,0,0,15.25,38.62Zm-4.63-.12a.25.25,0,0,0,0,.5.25.25,0,1,0,0-.5Zm-1.37-2a.25.25,0,1,0,.25.25A.25.25,0,0,0,9.25,36.5Zm2.75-1a.25.25,0,1,0,.25.25A.25.25,0,0,0,12,35.5Zm1.75,1a.25.25,0,1,0,.25.25A.25.25,0,0,0,13.75,36.5Zm1.37-2.25a.25.25,0,0,0,0,.5.25.25,0,1,0,0-.5Zm-6-1a.25.25,0,0,0,0,.5.25.25,0,1,0,0-.5Zm-2-1.13a.25.25,0,0,0-.24.26.24.24,0,0,0,.24.24.25.25,0,0,0,.26-.24A.26.26,0,0,0,7.12,32.12Zm.5,3.13a.25.25,0,0,0,0,.5.25.25,0,1,0,0-.5Zm-.87,1.87a.26.26,0,0,0-.25.26.25.25,0,0,0,.5,0A.26.26,0,0,0,6.75,37.12Zm-2.63-.74a.24.24,0,0,0-.24.24.25.25,0,0,0,.24.26.26.26,0,0,0,.26-.26A.25.25,0,0,0,4.12,36.38Zm-.24-2.13a.25.25,0,1,0,0,.5.25.25,0,0,0,0-.5ZM2.12,33.12a.25.25,0,0,0-.24.26.24.24,0,0,0,.24.24.25.25,0,0,0,.26-.24A.26.26,0,0,0,2.12,33.12Zm.38,4.76a.25.25,0,0,0-.25.24.25.25,0,1,0,.5,0A.25.25,0,0,0,2.5,37.88ZM2.88,40a.25.25,0,1,0,0,.5.25.25,0,0,0,0-.5Zm13-7.25A.24.24,0,0,0,16,33v-.42A.24.24,0,0,0,15.88,32.75Zm-.13,7.5a.25.25,0,0,0,.25.25V40A.25.25,0,0,0,15.75,40.25ZM9.62,42.88a.24.24,0,0,0-.24.24.25.25,0,0,0,.24.26.26.26,0,0,0,.26-.26A.25.25,0,0,0,9.62,42.88Zm5.38,5a.24.24,0,0,0-.21.12h.42A.24.24,0,0,0,15,47.88Zm.12-3a.24.24,0,0,0-.24.24.25.25,0,0,0,.24.26.26.26,0,0,0,.26-.26A.25.25,0,0,0,15.12,44.88ZM1.75,47.75A.25.25,0,0,0,1.5,48H2A.25.25,0,0,0,1.75,47.75Zm4-13.87a.37.37,0,1,0,.37.37A.36.36,0,0,0,5.75,33.88ZM2,41.88a.37.37,0,1,0,.38.37A.37.37,0,0,0,2,41.88Zm-1.62,4a.38.38,0,1,0,0,.75.38.38,0,0,0,0-.75Zm4,1.35a.38.38,0,0,0,0,.75.38.38,0,1,0,0-.75Zm6.42.5a.37.37,0,0,0-.35.25h.7A.37.37,0,0,0,10.75,47.75Zm5-10.63a.37.37,0,0,0,.25.36v-.71A.37.37,0,0,0,15.75,37.12Zm-2.13-4.37a.38.38,0,0,0,0,.75.38.38,0,1,0,0-.75Zm-13.5,4-.12,0v.71l.12,0a.38.38,0,0,0,.38-.38A.38.38,0,0,0,.12,36.75Zm0-4.25a.19.19,0,0,0-.12,0V33a.19.19,0,0,0,.12,0,.25.25,0,1,0,0-.5ZM0,40v.5A.25.25,0,0,0,0,40Zm11.1-8h-.7a.25.25,0,0,0,0,.12.37.37,0,1,0,.74,0A.25.25,0,0,0,11.1,32ZM1.5,32A.25.25,0,0,0,2,32Zm13.71,0h-.42a.19.19,0,0,0,0,.12.25.25,0,1,0,.5,0A.19.19,0,0,0,15.21,32Z"/><path id="sand_water-10" data-name="sand_water" class="cls-2" d="M2.25,51.12a.38.38,0,1,1-.37-.37A.38.38,0,0,1,2.25,51.12ZM4.62,54.5a.38.38,0,1,0,.38.38A.38.38,0,0,0,4.62,54.5Zm8.88,5a.38.38,0,1,0,.38.38A.38.38,0,0,0,13.5,59.5Zm-.88-5.12a.37.37,0,1,0,.38.37A.37.37,0,0,0,12.62,54.38ZM9.88,50.75a.38.38,0,1,0,.37.37A.38.38,0,0,0,9.88,50.75ZM5.5,60.25a.38.38,0,1,0,.38.37A.38.38,0,0,0,5.5,60.25Zm4.25.13a.37.37,0,1,0,.37.37A.36.36,0,0,0,9.75,60.38ZM8.12,54.62A.38.38,0,1,0,8.5,55,.38.38,0,0,0,8.12,54.62Zm2.5,2.5a.38.38,0,1,0,.38.38A.38.38,0,0,0,10.62,57.12ZM5.75,49.88a.37.37,0,1,0,.37.37A.36.36,0,0,0,5.75,49.88ZM2,57.88a.37.37,0,1,0,.38.37A.37.37,0,0,0,2,57.88Zm-1.62,4a.38.38,0,1,0,0,.75.38.38,0,0,0,0-.75Zm4,1.35a.38.38,0,0,0,0,.75.38.38,0,1,0,0-.75Zm6.42.5a.37.37,0,0,0-.35.25h.7A.37.37,0,0,0,10.75,63.75Zm2.87-15a.38.38,0,0,0,0,.75.38.38,0,1,0,0-.75Zm-9,5.75a.38.38,0,1,0,.38.38A.38.38,0,0,0,4.62,54.5Zm8.88,5a.38.38,0,1,0,.38.38A.38.38,0,0,0,13.5,59.5Zm-.88-5.12a.37.37,0,1,0,.38.37A.37.37,0,0,0,12.62,54.38ZM9.88,50.75a.38.38,0,1,0,.37.37A.38.38,0,0,0,9.88,50.75ZM5.5,60.25a.38.38,0,1,0,.38.37A.38.38,0,0,0,5.5,60.25Zm4.25.13a.37.37,0,1,0,.37.37A.36.36,0,0,0,9.75,60.38ZM8.12,54.62A.38.38,0,1,0,8.5,55,.38.38,0,0,0,8.12,54.62Zm2.5,2.5a.38.38,0,1,0,.38.38A.38.38,0,0,0,10.62,57.12ZM7.38,58.38a.25.25,0,0,0-.26.24.26.26,0,0,0,.26.26.25.25,0,0,0,.24-.26A.24.24,0,0,0,7.38,58.38ZM5.12,56.75a.25.25,0,0,0,0,.5.25.25,0,1,0,0-.5Zm3.26-.13a.26.26,0,0,0-.26.26.25.25,0,0,0,.26.24.24.24,0,0,0,.24-.24A.25.25,0,0,0,8.38,56.62ZM4,58.75a.25.25,0,1,0,.25.25A.25.25,0,0,0,4,58.75Zm-3.25.63a.25.25,0,0,0-.25.24.26.26,0,0,0,.25.26A.26.26,0,0,0,1,59.62.25.25,0,0,0,.75,59.38ZM2.38,61.5a.25.25,0,1,0,0,.5.25.25,0,0,0,0-.5Zm3,.75a.25.25,0,1,0,0,.5.25.25,0,0,0,0-.5Zm2.62-1a.25.25,0,1,0,.25.25A.25.25,0,0,0,8,61.25Zm1.5,1.37a.26.26,0,0,0-.25.26.25.25,0,0,0,.5,0A.26.26,0,0,0,9.5,62.62Zm3.62-.24a.24.24,0,0,0-.24.24.25.25,0,0,0,.24.26.26.26,0,0,0,.26-.26A.25.25,0,0,0,13.12,62.38ZM12,60.25a.25.25,0,1,0,.25.25A.25.25,0,0,0,12,60.25Zm0-1.75a.25.25,0,1,0,.25.25A.25.25,0,0,0,12,58.5Zm2.75-.62a.25.25,0,0,0-.25.24.25.25,0,1,0,.5,0A.25.25,0,0,0,14.75,57.88Zm-1.63-1.5a.24.24,0,0,0-.24.24.25.25,0,0,0,.24.26.26.26,0,0,0,.26-.26A.25.25,0,0,0,13.12,56.38Zm2.13-1.76a.26.26,0,0,0-.25.26.25.25,0,0,0,.5,0A.26.26,0,0,0,15.25,54.62Zm-4.63-.12a.25.25,0,0,0,0,.5.25.25,0,1,0,0-.5Zm-1.37-2a.25.25,0,1,0,.25.25A.25.25,0,0,0,9.25,52.5Zm2.75-1a.25.25,0,1,0,.25.25A.25.25,0,0,0,12,51.5Zm1.75,1a.25.25,0,1,0,.25.25A.25.25,0,0,0,13.75,52.5Zm1.37-2.25a.25.25,0,0,0,0,.5.25.25,0,1,0,0-.5Zm-6-1a.25.25,0,0,0,0,.5.25.25,0,1,0,0-.5Zm-2-1.13a.25.25,0,0,0-.24.26.24.24,0,0,0,.24.24.25.25,0,0,0,.26-.24A.26.26,0,0,0,7.12,48.12Zm.5,3.13a.25.25,0,0,0,0,.5.25.25,0,1,0,0-.5Zm-.87,1.87a.26.26,0,0,0-.25.26.25.25,0,0,0,.5,0A.26.26,0,0,0,6.75,53.12Zm-2.63-.74a.24.24,0,0,0-.24.24.25.25,0,0,0,.24.26.26.26,0,0,0,.26-.26A.25.25,0,0,0,4.12,52.38Zm-.24-2.13a.25.25,0,1,0,0,.5.25.25,0,0,0,0-.5ZM2.12,49.12a.25.25,0,0,0-.24.26.24.24,0,0,0,.24.24.25.25,0,0,0,.26-.24A.26.26,0,0,0,2.12,49.12Zm.38,4.76a.25.25,0,0,0-.25.24.25.25,0,1,0,.5,0A.25.25,0,0,0,2.5,53.88ZM2.88,56a.25.25,0,1,0,0,.5.25.25,0,0,0,0-.5Zm13-7.25A.24.24,0,0,0,16,49v-.42A.24.24,0,0,0,15.88,48.75Zm-.13,7.5a.25.25,0,0,0,.25.25V56A.25.25,0,0,0,15.75,56.25ZM9.62,58.88a.24.24,0,0,0-.24.24.25.25,0,0,0,.24.26.26.26,0,0,0,.26-.26A.25.25,0,0,0,9.62,58.88Zm5.38,5a.24.24,0,0,0-.21.12h.42A.24.24,0,0,0,15,63.88Zm.12-3a.24.24,0,0,0-.24.24.25.25,0,0,0,.24.26.26.26,0,0,0,.26-.26A.25.25,0,0,0,15.12,60.88ZM1.75,63.75A.25.25,0,0,0,1.5,64H2A.25.25,0,0,0,1.75,63.75Zm4-13.87a.37.37,0,1,0,.37.37A.36.36,0,0,0,5.75,49.88ZM2,57.88a.37.37,0,1,0,.38.37A.37.37,0,0,0,2,57.88Zm-1.62,4a.38.38,0,1,0,0,.75.38.38,0,0,0,0-.75Zm4,1.35a.38.38,0,0,0,0,.75.38.38,0,1,0,0-.75Zm6.42.5a.37.37,0,0,0-.35.25h.7A.37.37,0,0,0,10.75,63.75Zm5-10.63a.37.37,0,0,0,.25.36v-.71A.37.37,0,0,0,15.75,53.12Zm-2.13-4.37a.38.38,0,0,0,0,.75.38.38,0,1,0,0-.75Zm-13.5,4-.12,0v.71l.12,0a.38.38,0,0,0,.38-.38A.38.38,0,0,0,.12,52.75Zm0-4.25a.19.19,0,0,0-.12,0V49a.19.19,0,0,0,.12,0,.25.25,0,1,0,0-.5ZM0,56v.5A.25.25,0,0,0,0,56Zm11.1-8h-.7a.25.25,0,0,0,0,.12.37.37,0,1,0,.74,0A.25.25,0,0,0,11.1,48ZM1.5,48A.25.25,0,0,0,2,48Zm13.71,0h-.42a.19.19,0,0,0,0,.12.25.25,0,1,0,.5,0A.19.19,0,0,0,15.21,48Z"/><path id="sand_water-11" data-name="sand_water" class="cls-2" d="M18.25,35.12a.38.38,0,1,1-.37-.37A.38.38,0,0,1,18.25,35.12Zm2.37,3.38a.38.38,0,1,0,.38.38A.38.38,0,0,0,20.62,38.5Zm8.88,5a.38.38,0,1,0,.38.38A.38.38,0,0,0,29.5,43.5Zm-.88-5.12a.37.37,0,1,0,.38.37A.37.37,0,0,0,28.62,38.38Zm-2.74-3.63a.38.38,0,1,0,.37.37A.38.38,0,0,0,25.88,34.75Zm-4.38,9.5a.38.38,0,1,0,.38.37A.38.38,0,0,0,21.5,44.25Zm4.25.13a.37.37,0,1,0,.37.37A.36.36,0,0,0,25.75,44.38Zm-1.63-5.76a.38.38,0,1,0,.38.38A.38.38,0,0,0,24.12,38.62Zm2.5,2.5a.38.38,0,1,0,.38.38A.38.38,0,0,0,26.62,41.12Zm-4.87-7.24a.37.37,0,1,0,.37.37A.36.36,0,0,0,21.75,33.88Zm-3.75,8a.37.37,0,1,0,.38.37A.37.37,0,0,0,18,41.88Zm-1.62,4a.38.38,0,1,0,.37.37A.38.38,0,0,0,16.38,45.9Zm3.95,1.35a.38.38,0,0,0,0,.75.38.38,0,1,0,0-.75Zm6.42.5a.37.37,0,0,0-.35.25h.7A.37.37,0,0,0,26.75,47.75Zm2.87-15a.38.38,0,0,0,0,.75.38.38,0,1,0,0-.75Zm-9,5.75a.38.38,0,1,0,.38.38A.38.38,0,0,0,20.62,38.5Zm8.88,5a.38.38,0,1,0,.38.38A.38.38,0,0,0,29.5,43.5Zm-.88-5.12a.37.37,0,1,0,.38.37A.37.37,0,0,0,28.62,38.38Zm-2.74-3.63a.38.38,0,1,0,.37.37A.38.38,0,0,0,25.88,34.75Zm-4.38,9.5a.38.38,0,1,0,.38.37A.38.38,0,0,0,21.5,44.25Zm4.25.13a.37.37,0,1,0,.37.37A.36.36,0,0,0,25.75,44.38Zm-1.63-5.76a.38.38,0,1,0,.38.38A.38.38,0,0,0,24.12,38.62Zm2.5,2.5a.38.38,0,1,0,.38.38A.38.38,0,0,0,26.62,41.12Zm-3.24,1.26a.25.25,0,0,0-.26.24.26.26,0,0,0,.26.26.25.25,0,0,0,.24-.26A.24.24,0,0,0,23.38,42.38Zm-2.26-1.63a.25.25,0,0,0,0,.5.25.25,0,1,0,0-.5Zm3.26-.13a.26.26,0,0,0-.26.26.25.25,0,0,0,.26.24.24.24,0,0,0,.24-.24A.25.25,0,0,0,24.38,40.62ZM20,42.75a.25.25,0,1,0,.25.25A.25.25,0,0,0,20,42.75Zm-3.25.63a.25.25,0,0,0-.25.24.25.25,0,1,0,.5,0A.25.25,0,0,0,16.75,43.38Zm1.63,2.12a.25.25,0,1,0,0,.5.25.25,0,0,0,0-.5Zm3,.75a.25.25,0,1,0,0,.5.25.25,0,0,0,0-.5Zm2.62-1a.25.25,0,1,0,.25.25A.25.25,0,0,0,24,45.25Zm1.5,1.37a.26.26,0,0,0-.25.26.25.25,0,0,0,.5,0A.26.26,0,0,0,25.5,46.62Zm3.62-.24a.24.24,0,0,0-.24.24.25.25,0,0,0,.24.26.26.26,0,0,0,.26-.26A.25.25,0,0,0,29.12,46.38ZM28,44.25a.25.25,0,1,0,.25.25A.25.25,0,0,0,28,44.25Zm0-1.75a.25.25,0,1,0,.25.25A.25.25,0,0,0,28,42.5Zm2.75-.62a.25.25,0,0,0-.25.24.25.25,0,1,0,.5,0A.25.25,0,0,0,30.75,41.88Zm-1.63-1.5a.24.24,0,0,0-.24.24.25.25,0,0,0,.24.26.26.26,0,0,0,.26-.26A.25.25,0,0,0,29.12,40.38Zm2.13-1.76a.26.26,0,0,0-.25.26.25.25,0,0,0,.5,0A.26.26,0,0,0,31.25,38.62Zm-4.63-.12a.25.25,0,0,0,0,.5.25.25,0,1,0,0-.5Zm-1.37-2a.25.25,0,1,0,.25.25A.25.25,0,0,0,25.25,36.5Zm2.75-1a.25.25,0,1,0,.25.25A.25.25,0,0,0,28,35.5Zm1.75,1a.25.25,0,1,0,.25.25A.25.25,0,0,0,29.75,36.5Zm1.37-2.25a.25.25,0,0,0,0,.5.25.25,0,1,0,0-.5Zm-6-1a.25.25,0,0,0,0,.5.25.25,0,1,0,0-.5Zm-2-1.13a.25.25,0,0,0-.24.26.24.24,0,0,0,.24.24.25.25,0,0,0,.26-.24A.26.26,0,0,0,23.12,32.12Zm.5,3.13a.25.25,0,0,0,0,.5.25.25,0,1,0,0-.5Zm-.87,1.87a.26.26,0,0,0-.25.26.25.25,0,0,0,.5,0A.26.26,0,0,0,22.75,37.12Zm-2.63-.74a.24.24,0,0,0-.24.24.25.25,0,0,0,.24.26.26.26,0,0,0,.26-.26A.25.25,0,0,0,20.12,36.38Zm-.24-2.13a.25.25,0,1,0,0,.5.25.25,0,0,0,0-.5Zm-1.76-1.13a.25.25,0,0,0-.24.26.24.24,0,0,0,.24.24.25.25,0,0,0,.26-.24A.26.26,0,0,0,18.12,33.12Zm.38,4.76a.25.25,0,0,0-.25.24.25.25,0,1,0,.5,0A.25.25,0,0,0,18.5,37.88ZM18.88,40a.25.25,0,1,0,0,.5.25.25,0,0,0,0-.5Zm13-7.25A.24.24,0,0,0,32,33v-.42A.24.24,0,0,0,31.88,32.75Zm-.13,7.5a.25.25,0,0,0,.25.25V40A.25.25,0,0,0,31.75,40.25Zm-6.13,2.63a.24.24,0,0,0-.24.24.25.25,0,0,0,.24.26.26.26,0,0,0,.26-.26A.25.25,0,0,0,25.62,42.88Zm5.38,5a.24.24,0,0,0-.21.12h.42A.24.24,0,0,0,31,47.88Zm.12-3a.24.24,0,0,0-.24.24.25.25,0,0,0,.24.26.26.26,0,0,0,.26-.26A.25.25,0,0,0,31.12,44.88ZM17.75,47.75a.25.25,0,0,0-.25.25H18A.25.25,0,0,0,17.75,47.75Zm4-13.87a.37.37,0,1,0,.37.37A.36.36,0,0,0,21.75,33.88Zm-3.75,8a.37.37,0,1,0,.38.37A.37.37,0,0,0,18,41.88Zm-1.62,4a.38.38,0,1,0,.37.37A.38.38,0,0,0,16.38,45.9Zm3.95,1.35a.38.38,0,0,0,0,.75.38.38,0,1,0,0-.75Zm6.42.5a.37.37,0,0,0-.35.25h.7A.37.37,0,0,0,26.75,47.75Zm5-10.63a.37.37,0,0,0,.25.36v-.71A.37.37,0,0,0,31.75,37.12Zm-2.13-4.37a.38.38,0,0,0,0,.75.38.38,0,1,0,0-.75Zm-13.5,4-.12,0v.71l.12,0a.38.38,0,1,0,0-.75Zm0-4.25a.19.19,0,0,0-.12,0V33a.19.19,0,0,0,.12,0,.25.25,0,1,0,0-.5ZM16,40v.5a.25.25,0,0,0,0-.5Zm11.1-8h-.7a.25.25,0,0,0,0,.12.37.37,0,1,0,.74,0A.25.25,0,0,0,27.1,32Zm-9.6,0a.25.25,0,0,0,.5,0Zm13.71,0h-.42a.19.19,0,0,0,0,.12.25.25,0,1,0,.5,0A.19.19,0,0,0,31.21,32Z"/><path id="sand_water-12" data-name="sand_water" class="cls-2" d="M18.25,51.12a.38.38,0,1,1-.37-.37A.38.38,0,0,1,18.25,51.12Zm2.37,3.38a.38.38,0,1,0,.38.38A.38.38,0,0,0,20.62,54.5Zm8.88,5a.38.38,0,1,0,.38.38A.38.38,0,0,0,29.5,59.5Zm-.88-5.12a.37.37,0,1,0,.38.37A.37.37,0,0,0,28.62,54.38Zm-2.74-3.63a.38.38,0,1,0,.37.37A.38.38,0,0,0,25.88,50.75Zm-4.38,9.5a.38.38,0,1,0,.38.37A.38.38,0,0,0,21.5,60.25Zm4.25.13a.37.37,0,1,0,.37.37A.36.36,0,0,0,25.75,60.38Zm-1.63-5.76a.38.38,0,1,0,.38.38A.38.38,0,0,0,24.12,54.62Zm2.5,2.5a.38.38,0,1,0,.38.38A.38.38,0,0,0,26.62,57.12Zm-4.87-7.24a.37.37,0,1,0,.37.37A.36.36,0,0,0,21.75,49.88Zm-3.75,8a.37.37,0,1,0,.38.37A.37.37,0,0,0,18,57.88Zm-1.62,4a.38.38,0,1,0,.37.37A.38.38,0,0,0,16.38,61.9Zm3.95,1.35a.38.38,0,0,0,0,.75.38.38,0,1,0,0-.75Zm6.42.5a.37.37,0,0,0-.35.25h.7A.37.37,0,0,0,26.75,63.75Zm2.87-15a.38.38,0,0,0,0,.75.38.38,0,1,0,0-.75Zm-9,5.75a.38.38,0,1,0,.38.38A.38.38,0,0,0,20.62,54.5Zm8.88,5a.38.38,0,1,0,.38.38A.38.38,0,0,0,29.5,59.5Zm-.88-5.12a.37.37,0,1,0,.38.37A.37.37,0,0,0,28.62,54.38Zm-2.74-3.63a.38.38,0,1,0,.37.37A.38.38,0,0,0,25.88,50.75Zm-4.38,9.5a.38.38,0,1,0,.38.37A.38.38,0,0,0,21.5,60.25Zm4.25.13a.37.37,0,1,0,.37.37A.36.36,0,0,0,25.75,60.38Zm-1.63-5.76a.38.38,0,1,0,.38.38A.38.38,0,0,0,24.12,54.62Zm2.5,2.5a.38.38,0,1,0,.38.38A.38.38,0,0,0,26.62,57.12Zm-3.24,1.26a.25.25,0,0,0-.26.24.26.26,0,0,0,.26.26.25.25,0,0,0,.24-.26A.24.24,0,0,0,23.38,58.38Zm-2.26-1.63a.25.25,0,0,0,0,.5.25.25,0,1,0,0-.5Zm3.26-.13a.26.26,0,0,0-.26.26.25.25,0,0,0,.26.24.24.24,0,0,0,.24-.24A.25.25,0,0,0,24.38,56.62ZM20,58.75a.25.25,0,1,0,.25.25A.25.25,0,0,0,20,58.75Zm-3.25.63a.25.25,0,0,0-.25.24.25.25,0,1,0,.5,0A.25.25,0,0,0,16.75,59.38Zm1.63,2.12a.25.25,0,1,0,0,.5.25.25,0,0,0,0-.5Zm3,.75a.25.25,0,1,0,0,.5.25.25,0,0,0,0-.5Zm2.62-1a.25.25,0,1,0,.25.25A.25.25,0,0,0,24,61.25Zm1.5,1.37a.26.26,0,0,0-.25.26.25.25,0,0,0,.5,0A.26.26,0,0,0,25.5,62.62Zm3.62-.24a.24.24,0,0,0-.24.24.25.25,0,0,0,.24.26.26.26,0,0,0,.26-.26A.25.25,0,0,0,29.12,62.38ZM28,60.25a.25.25,0,1,0,.25.25A.25.25,0,0,0,28,60.25Zm0-1.75a.25.25,0,1,0,.25.25A.25.25,0,0,0,28,58.5Zm2.75-.62a.25.25,0,0,0-.25.24.25.25,0,1,0,.5,0A.25.25,0,0,0,30.75,57.88Zm-1.63-1.5a.24.24,0,0,0-.24.24.25.25,0,0,0,.24.26.26.26,0,0,0,.26-.26A.25.25,0,0,0,29.12,56.38Zm2.13-1.76a.26.26,0,0,0-.25.26.25.25,0,0,0,.5,0A.26.26,0,0,0,31.25,54.62Zm-4.63-.12a.25.25,0,0,0,0,.5.25.25,0,1,0,0-.5Zm-1.37-2a.25.25,0,1,0,.25.25A.25.25,0,0,0,25.25,52.5Zm2.75-1a.25.25,0,1,0,.25.25A.25.25,0,0,0,28,51.5Zm1.75,1a.25.25,0,1,0,.25.25A.25.25,0,0,0,29.75,52.5Zm1.37-2.25a.25.25,0,0,0,0,.5.25.25,0,1,0,0-.5Zm-6-1a.25.25,0,0,0,0,.5.25.25,0,1,0,0-.5Zm-2-1.13a.25.25,0,0,0-.24.26.24.24,0,0,0,.24.24.25.25,0,0,0,.26-.24A.26.26,0,0,0,23.12,48.12Zm.5,3.13a.25.25,0,0,0,0,.5.25.25,0,1,0,0-.5Zm-.87,1.87a.26.26,0,0,0-.25.26.25.25,0,0,0,.5,0A.26.26,0,0,0,22.75,53.12Zm-2.63-.74a.24.24,0,0,0-.24.24.25.25,0,0,0,.24.26.26.26,0,0,0,.26-.26A.25.25,0,0,0,20.12,52.38Zm-.24-2.13a.25.25,0,1,0,0,.5.25.25,0,0,0,0-.5Zm-1.76-1.13a.25.25,0,0,0-.24.26.24.24,0,0,0,.24.24.25.25,0,0,0,.26-.24A.26.26,0,0,0,18.12,49.12Zm.38,4.76a.25.25,0,0,0-.25.24.25.25,0,1,0,.5,0A.25.25,0,0,0,18.5,53.88ZM18.88,56a.25.25,0,1,0,0,.5.25.25,0,0,0,0-.5Zm13-7.25A.24.24,0,0,0,32,49v-.42A.24.24,0,0,0,31.88,48.75Zm-.13,7.5a.25.25,0,0,0,.25.25V56A.25.25,0,0,0,31.75,56.25Zm-6.13,2.63a.24.24,0,0,0-.24.24.25.25,0,0,0,.24.26.26.26,0,0,0,.26-.26A.25.25,0,0,0,25.62,58.88Zm5.38,5a.24.24,0,0,0-.21.12h.42A.24.24,0,0,0,31,63.88Zm.12-3a.24.24,0,0,0-.24.24.25.25,0,0,0,.24.26.26.26,0,0,0,.26-.26A.25.25,0,0,0,31.12,60.88ZM17.75,63.75a.25.25,0,0,0-.25.25H18A.25.25,0,0,0,17.75,63.75Zm4-13.87a.37.37,0,1,0,.37.37A.36.36,0,0,0,21.75,49.88Zm-3.75,8a.37.37,0,1,0,.38.37A.37.37,0,0,0,18,57.88Zm-1.62,4a.38.38,0,1,0,.37.37A.38.38,0,0,0,16.38,61.9Zm3.95,1.35a.38.38,0,0,0,0,.75.38.38,0,1,0,0-.75Zm6.42.5a.37.37,0,0,0-.35.25h.7A.37.37,0,0,0,26.75,63.75Zm5-10.63a.37.37,0,0,0,.25.36v-.71A.37.37,0,0,0,31.75,53.12Zm-2.13-4.37a.38.38,0,0,0,0,.75.38.38,0,1,0,0-.75Zm-13.5,4-.12,0v.71l.12,0a.38.38,0,1,0,0-.75Zm0-4.25a.19.19,0,0,0-.12,0V49a.19.19,0,0,0,.12,0,.25.25,0,1,0,0-.5ZM16,56v.5a.25.25,0,0,0,0-.5Zm11.1-8h-.7a.25.25,0,0,0,0,.12.37.37,0,1,0,.74,0A.25.25,0,0,0,27.1,48Zm-9.6,0a.25.25,0,0,0,.5,0Zm13.71,0h-.42a.19.19,0,0,0,0,.12.25.25,0,1,0,.5,0A.19.19,0,0,0,31.21,48Z"/></g><g id="sand_water_poly_half-4" data-name="sand_water_poly_half"><rect id="bbox_64-4" data-name="bbox_64" class="cls-1" x="32" y="32" width="32" height="32"/><path id="sand_water-13" data-name="sand_water" class="cls-2" d="M34.25,35.12a.38.38,0,1,1-.37-.37A.38.38,0,0,1,34.25,35.12Zm2.37,3.38a.38.38,0,1,0,.38.38A.38.38,0,0,0,36.62,38.5Zm8.88,5a.38.38,0,1,0,.38.38A.38.38,0,0,0,45.5,43.5Zm-.88-5.12a.37.37,0,1,0,.38.37A.37.37,0,0,0,44.62,38.38Zm-2.74-3.63a.38.38,0,1,0,.37.37A.38.38,0,0,0,41.88,34.75Zm-4.38,9.5a.38.38,0,1,0,.38.37A.38.38,0,0,0,37.5,44.25Zm4.25.13a.37.37,0,1,0,.37.37A.36.36,0,0,0,41.75,44.38Zm-1.63-5.76a.38.38,0,1,0,.38.38A.38.38,0,0,0,40.12,38.62Zm2.5,2.5a.38.38,0,1,0,.38.38A.38.38,0,0,0,42.62,41.12Zm-4.87-7.24a.37.37,0,1,0,.37.37A.36.36,0,0,0,37.75,33.88Zm-3.75,8a.37.37,0,1,0,.38.37A.37.37,0,0,0,34,41.88Zm-1.62,4a.38.38,0,1,0,.37.37A.38.38,0,0,0,32.38,45.9Zm3.95,1.35a.38.38,0,0,0,0,.75.38.38,0,1,0,0-.75Zm6.42.5a.37.37,0,0,0-.35.25h.7A.37.37,0,0,0,42.75,47.75Zm2.87-15a.38.38,0,0,0,0,.75.38.38,0,1,0,0-.75Zm-9,5.75a.38.38,0,1,0,.38.38A.38.38,0,0,0,36.62,38.5Zm8.88,5a.38.38,0,1,0,.38.38A.38.38,0,0,0,45.5,43.5Zm-.88-5.12a.37.37,0,1,0,.38.37A.37.37,0,0,0,44.62,38.38Zm-2.74-3.63a.38.38,0,1,0,.37.37A.38.38,0,0,0,41.88,34.75Zm-4.38,9.5a.38.38,0,1,0,.38.37A.38.38,0,0,0,37.5,44.25Zm4.25.13a.37.37,0,1,0,.37.37A.36.36,0,0,0,41.75,44.38Zm-1.63-5.76a.38.38,0,1,0,.38.38A.38.38,0,0,0,40.12,38.62Zm2.5,2.5a.38.38,0,1,0,.38.38A.38.38,0,0,0,42.62,41.12Zm-3.24,1.26a.25.25,0,0,0-.26.24.26.26,0,0,0,.26.26.25.25,0,0,0,.24-.26A.24.24,0,0,0,39.38,42.38Zm-2.26-1.63a.25.25,0,0,0,0,.5.25.25,0,1,0,0-.5Zm3.26-.13a.26.26,0,0,0-.26.26.25.25,0,0,0,.26.24.24.24,0,0,0,.24-.24A.25.25,0,0,0,40.38,40.62ZM36,42.75a.25.25,0,1,0,.25.25A.25.25,0,0,0,36,42.75Zm-3.25.63a.25.25,0,0,0-.25.24.25.25,0,1,0,.5,0A.25.25,0,0,0,32.75,43.38Zm1.63,2.12a.25.25,0,1,0,0,.5.25.25,0,0,0,0-.5Zm3,.75a.25.25,0,1,0,0,.5.25.25,0,0,0,0-.5Zm2.62-1a.25.25,0,1,0,.25.25A.25.25,0,0,0,40,45.25Zm1.5,1.37a.26.26,0,0,0-.25.26.25.25,0,0,0,.5,0A.26.26,0,0,0,41.5,46.62Zm3.62-.24a.24.24,0,0,0-.24.24.25.25,0,0,0,.24.26.26.26,0,0,0,.26-.26A.25.25,0,0,0,45.12,46.38ZM44,44.25a.25.25,0,1,0,.25.25A.25.25,0,0,0,44,44.25Zm0-1.75a.25.25,0,1,0,.25.25A.25.25,0,0,0,44,42.5Zm2.75-.62a.25.25,0,0,0-.25.24.25.25,0,1,0,.5,0A.25.25,0,0,0,46.75,41.88Zm-1.63-1.5a.24.24,0,0,0-.24.24.25.25,0,0,0,.24.26.26.26,0,0,0,.26-.26A.25.25,0,0,0,45.12,40.38Zm2.13-1.76a.26.26,0,0,0-.25.26.25.25,0,0,0,.5,0A.26.26,0,0,0,47.25,38.62Zm-4.63-.12a.25.25,0,0,0,0,.5.25.25,0,1,0,0-.5Zm-1.37-2a.25.25,0,1,0,.25.25A.25.25,0,0,0,41.25,36.5Zm2.75-1a.25.25,0,1,0,.25.25A.25.25,0,0,0,44,35.5Zm1.75,1a.25.25,0,1,0,.25.25A.25.25,0,0,0,45.75,36.5Zm1.37-2.25a.25.25,0,0,0,0,.5.25.25,0,1,0,0-.5Zm-6-1a.25.25,0,0,0,0,.5.25.25,0,1,0,0-.5Zm-2-1.13a.25.25,0,0,0-.24.26.24.24,0,0,0,.24.24.25.25,0,0,0,.26-.24A.26.26,0,0,0,39.12,32.12Zm.5,3.13a.25.25,0,0,0,0,.5.25.25,0,1,0,0-.5Zm-.87,1.87a.26.26,0,0,0-.25.26.25.25,0,0,0,.5,0A.26.26,0,0,0,38.75,37.12Zm-2.63-.74a.24.24,0,0,0-.24.24.25.25,0,0,0,.24.26.26.26,0,0,0,.26-.26A.25.25,0,0,0,36.12,36.38Zm-.24-2.13a.25.25,0,1,0,0,.5.25.25,0,0,0,0-.5Zm-1.76-1.13a.25.25,0,0,0-.24.26.24.24,0,0,0,.24.24.25.25,0,0,0,.26-.24A.26.26,0,0,0,34.12,33.12Zm.38,4.76a.25.25,0,0,0-.25.24.25.25,0,1,0,.5,0A.25.25,0,0,0,34.5,37.88ZM34.88,40a.25.25,0,1,0,0,.5.25.25,0,0,0,0-.5Zm13-7.25A.24.24,0,0,0,48,33v-.42A.24.24,0,0,0,47.88,32.75Zm-.13,7.5a.25.25,0,0,0,.25.25V40A.25.25,0,0,0,47.75,40.25Zm-6.13,2.63a.24.24,0,0,0-.24.24.25.25,0,0,0,.24.26.26.26,0,0,0,.26-.26A.25.25,0,0,0,41.62,42.88Zm5.38,5a.24.24,0,0,0-.21.12h.42A.24.24,0,0,0,47,47.88Zm.12-3a.24.24,0,0,0-.24.24.25.25,0,0,0,.24.26.26.26,0,0,0,.26-.26A.25.25,0,0,0,47.12,44.88ZM33.75,47.75a.25.25,0,0,0-.25.25H34A.25.25,0,0,0,33.75,47.75Zm4-13.87a.37.37,0,1,0,.37.37A.36.36,0,0,0,37.75,33.88Zm-3.75,8a.37.37,0,1,0,.38.37A.37.37,0,0,0,34,41.88Zm-1.62,4a.38.38,0,1,0,.37.37A.38.38,0,0,0,32.38,45.9Zm3.95,1.35a.38.38,0,0,0,0,.75.38.38,0,1,0,0-.75Zm6.42.5a.37.37,0,0,0-.35.25h.7A.37.37,0,0,0,42.75,47.75Zm5-10.63a.37.37,0,0,0,.25.36v-.71A.37.37,0,0,0,47.75,37.12Zm-2.13-4.37a.38.38,0,0,0,0,.75.38.38,0,1,0,0-.75Zm-13.5,4-.12,0v.71l.12,0a.38.38,0,1,0,0-.75Zm0-4.25a.19.19,0,0,0-.12,0V33a.19.19,0,0,0,.12,0,.25.25,0,1,0,0-.5ZM32,40v.5a.25.25,0,0,0,0-.5Zm11.1-8h-.7a.25.25,0,0,0,0,.12.37.37,0,1,0,.74,0A.25.25,0,0,0,43.1,32Zm-9.6,0a.25.25,0,0,0,.5,0Zm13.71,0h-.42a.19.19,0,0,0,0,.12.25.25,0,1,0,.5,0A.19.19,0,0,0,47.21,32Z"/><path id="sand_water-14" data-name="sand_water" class="cls-2" d="M34.25,51.12a.38.38,0,1,1-.37-.37A.38.38,0,0,1,34.25,51.12Zm2.37,3.38a.38.38,0,1,0,.38.38A.38.38,0,0,0,36.62,54.5Zm8.88,5a.38.38,0,1,0,.38.38A.38.38,0,0,0,45.5,59.5Zm-.88-5.12a.37.37,0,1,0,.38.37A.37.37,0,0,0,44.62,54.38Zm-2.74-3.63a.38.38,0,1,0,.37.37A.38.38,0,0,0,41.88,50.75Zm-4.38,9.5a.38.38,0,1,0,.38.37A.38.38,0,0,0,37.5,60.25Zm4.25.13a.37.37,0,1,0,.37.37A.36.36,0,0,0,41.75,60.38Zm-1.63-5.76a.38.38,0,1,0,.38.38A.38.38,0,0,0,40.12,54.62Zm2.5,2.5a.38.38,0,1,0,.38.38A.38.38,0,0,0,42.62,57.12Zm-4.87-7.24a.37.37,0,1,0,.37.37A.36.36,0,0,0,37.75,49.88Zm-3.75,8a.37.37,0,1,0,.38.37A.37.37,0,0,0,34,57.88Zm-1.62,4a.38.38,0,1,0,.37.37A.38.38,0,0,0,32.38,61.9Zm3.95,1.35a.38.38,0,0,0,0,.75.38.38,0,1,0,0-.75Zm6.42.5a.37.37,0,0,0-.35.25h.7A.37.37,0,0,0,42.75,63.75Zm2.87-15a.38.38,0,0,0,0,.75.38.38,0,1,0,0-.75Zm-9,5.75a.38.38,0,1,0,.38.38A.38.38,0,0,0,36.62,54.5Zm8.88,5a.38.38,0,1,0,.38.38A.38.38,0,0,0,45.5,59.5Zm-.88-5.12a.37.37,0,1,0,.38.37A.37.37,0,0,0,44.62,54.38Zm-2.74-3.63a.38.38,0,1,0,.37.37A.38.38,0,0,0,41.88,50.75Zm-4.38,9.5a.38.38,0,1,0,.38.37A.38.38,0,0,0,37.5,60.25Zm4.25.13a.37.37,0,1,0,.37.37A.36.36,0,0,0,41.75,60.38Zm-1.63-5.76a.38.38,0,1,0,.38.38A.38.38,0,0,0,40.12,54.62Zm2.5,2.5a.38.38,0,1,0,.38.38A.38.38,0,0,0,42.62,57.12Zm-3.24,1.26a.25.25,0,0,0-.26.24.26.26,0,0,0,.26.26.25.25,0,0,0,.24-.26A.24.24,0,0,0,39.38,58.38Zm-2.26-1.63a.25.25,0,0,0,0,.5.25.25,0,1,0,0-.5Zm3.26-.13a.26.26,0,0,0-.26.26.25.25,0,0,0,.26.24.24.24,0,0,0,.24-.24A.25.25,0,0,0,40.38,56.62ZM36,58.75a.25.25,0,1,0,.25.25A.25.25,0,0,0,36,58.75Zm-3.25.63a.25.25,0,0,0-.25.24.25.25,0,1,0,.5,0A.25.25,0,0,0,32.75,59.38Zm1.63,2.12a.25.25,0,1,0,0,.5.25.25,0,0,0,0-.5Zm3,.75a.25.25,0,1,0,0,.5.25.25,0,0,0,0-.5Zm2.62-1a.25.25,0,1,0,.25.25A.25.25,0,0,0,40,61.25Zm1.5,1.37a.26.26,0,0,0-.25.26.25.25,0,0,0,.5,0A.26.26,0,0,0,41.5,62.62Zm3.62-.24a.24.24,0,0,0-.24.24.25.25,0,0,0,.24.26.26.26,0,0,0,.26-.26A.25.25,0,0,0,45.12,62.38ZM44,60.25a.25.25,0,1,0,.25.25A.25.25,0,0,0,44,60.25Zm0-1.75a.25.25,0,1,0,.25.25A.25.25,0,0,0,44,58.5Zm2.75-.62a.25.25,0,0,0-.25.24.25.25,0,1,0,.5,0A.25.25,0,0,0,46.75,57.88Zm-1.63-1.5a.24.24,0,0,0-.24.24.25.25,0,0,0,.24.26.26.26,0,0,0,.26-.26A.25.25,0,0,0,45.12,56.38Zm2.13-1.76a.26.26,0,0,0-.25.26.25.25,0,0,0,.5,0A.26.26,0,0,0,47.25,54.62Zm-4.63-.12a.25.25,0,0,0,0,.5.25.25,0,1,0,0-.5Zm-1.37-2a.25.25,0,1,0,.25.25A.25.25,0,0,0,41.25,52.5Zm2.75-1a.25.25,0,1,0,.25.25A.25.25,0,0,0,44,51.5Zm1.75,1a.25.25,0,1,0,.25.25A.25.25,0,0,0,45.75,52.5Zm1.37-2.25a.25.25,0,0,0,0,.5.25.25,0,1,0,0-.5Zm-6-1a.25.25,0,0,0,0,.5.25.25,0,1,0,0-.5Zm-2-1.13a.25.25,0,0,0-.24.26.24.24,0,0,0,.24.24.25.25,0,0,0,.26-.24A.26.26,0,0,0,39.12,48.12Zm.5,3.13a.25.25,0,0,0,0,.5.25.25,0,1,0,0-.5Zm-.87,1.87a.26.26,0,0,0-.25.26.25.25,0,0,0,.5,0A.26.26,0,0,0,38.75,53.12Zm-2.63-.74a.24.24,0,0,0-.24.24.25.25,0,0,0,.24.26.26.26,0,0,0,.26-.26A.25.25,0,0,0,36.12,52.38Zm-.24-2.13a.25.25,0,1,0,0,.5.25.25,0,0,0,0-.5Zm-1.76-1.13a.25.25,0,0,0-.24.26.24.24,0,0,0,.24.24.25.25,0,0,0,.26-.24A.26.26,0,0,0,34.12,49.12Zm.38,4.76a.25.25,0,0,0-.25.24.25.25,0,1,0,.5,0A.25.25,0,0,0,34.5,53.88ZM34.88,56a.25.25,0,1,0,0,.5.25.25,0,0,0,0-.5Zm13-7.25A.24.24,0,0,0,48,49v-.42A.24.24,0,0,0,47.88,48.75Zm-.13,7.5a.25.25,0,0,0,.25.25V56A.25.25,0,0,0,47.75,56.25Zm-6.13,2.63a.24.24,0,0,0-.24.24.25.25,0,0,0,.24.26.26.26,0,0,0,.26-.26A.25.25,0,0,0,41.62,58.88Zm5.38,5a.24.24,0,0,0-.21.12h.42A.24.24,0,0,0,47,63.88Zm.12-3a.24.24,0,0,0-.24.24.25.25,0,0,0,.24.26.26.26,0,0,0,.26-.26A.25.25,0,0,0,47.12,60.88ZM33.75,63.75a.25.25,0,0,0-.25.25H34A.25.25,0,0,0,33.75,63.75Zm4-13.87a.37.37,0,1,0,.37.37A.36.36,0,0,0,37.75,49.88Zm-3.75,8a.37.37,0,1,0,.38.37A.37.37,0,0,0,34,57.88Zm-1.62,4a.38.38,0,1,0,.37.37A.38.38,0,0,0,32.38,61.9Zm3.95,1.35a.38.38,0,0,0,0,.75.38.38,0,1,0,0-.75Zm6.42.5a.37.37,0,0,0-.35.25h.7A.37.37,0,0,0,42.75,63.75Zm5-10.63a.37.37,0,0,0,.25.36v-.71A.37.37,0,0,0,47.75,53.12Zm-2.13-4.37a.38.38,0,0,0,0,.75.38.38,0,1,0,0-.75Zm-13.5,4-.12,0v.71l.12,0a.38.38,0,1,0,0-.75Zm0-4.25a.19.19,0,0,0-.12,0V49a.19.19,0,0,0,.12,0,.25.25,0,1,0,0-.5ZM32,56v.5a.25.25,0,0,0,0-.5Zm11.1-8h-.7a.25.25,0,0,0,0,.12.37.37,0,1,0,.74,0A.25.25,0,0,0,43.1,48Zm-9.6,0a.25.25,0,0,0,.5,0Zm13.71,0h-.42a.19.19,0,0,0,0,.12.25.25,0,1,0,.5,0A.19.19,0,0,0,47.21,48Z"/><path id="sand_water-15" data-name="sand_water" class="cls-2" d="M50.25,35.12a.38.38,0,1,1-.37-.37A.38.38,0,0,1,50.25,35.12Zm2.37,3.38a.38.38,0,1,0,.38.38A.38.38,0,0,0,52.62,38.5Zm8.88,5a.38.38,0,1,0,.38.38A.38.38,0,0,0,61.5,43.5Zm-.88-5.12a.37.37,0,1,0,.38.37A.37.37,0,0,0,60.62,38.38Zm-2.74-3.63a.38.38,0,1,0,.37.37A.38.38,0,0,0,57.88,34.75Zm-4.38,9.5a.38.38,0,1,0,.38.37A.38.38,0,0,0,53.5,44.25Zm4.25.13a.37.37,0,1,0,.37.37A.36.36,0,0,0,57.75,44.38Zm-1.63-5.76a.38.38,0,1,0,.38.38A.38.38,0,0,0,56.12,38.62Zm2.5,2.5a.38.38,0,1,0,.38.38A.38.38,0,0,0,58.62,41.12Zm-4.87-7.24a.37.37,0,1,0,.37.37A.36.36,0,0,0,53.75,33.88Zm-3.75,8a.37.37,0,1,0,.38.37A.37.37,0,0,0,50,41.88Zm-1.62,4a.38.38,0,1,0,.37.37A.38.38,0,0,0,48.38,45.9Zm3.95,1.35a.38.38,0,0,0,0,.75.38.38,0,1,0,0-.75Zm6.42.5a.37.37,0,0,0-.35.25h.7A.37.37,0,0,0,58.75,47.75Zm2.87-15a.38.38,0,0,0,0,.75.38.38,0,1,0,0-.75Zm-9,5.75a.38.38,0,1,0,.38.38A.38.38,0,0,0,52.62,38.5Zm8.88,5a.38.38,0,1,0,.38.38A.38.38,0,0,0,61.5,43.5Zm-.88-5.12a.37.37,0,1,0,.38.37A.37.37,0,0,0,60.62,38.38Zm-2.74-3.63a.38.38,0,1,0,.37.37A.38.38,0,0,0,57.88,34.75Zm-4.38,9.5a.38.38,0,1,0,.38.37A.38.38,0,0,0,53.5,44.25Zm4.25.13a.37.37,0,1,0,.37.37A.36.36,0,0,0,57.75,44.38Zm-1.63-5.76a.38.38,0,1,0,.38.38A.38.38,0,0,0,56.12,38.62Zm2.5,2.5a.38.38,0,1,0,.38.38A.38.38,0,0,0,58.62,41.12Zm-3.24,1.26a.25.25,0,0,0-.26.24.26.26,0,0,0,.26.26.25.25,0,0,0,.24-.26A.24.24,0,0,0,55.38,42.38Zm-2.26-1.63a.25.25,0,0,0,0,.5.25.25,0,1,0,0-.5Zm3.26-.13a.26.26,0,0,0-.26.26.25.25,0,0,0,.26.24.24.24,0,0,0,.24-.24A.25.25,0,0,0,56.38,40.62ZM52,42.75a.25.25,0,1,0,.25.25A.25.25,0,0,0,52,42.75Zm-3.25.63a.25.25,0,0,0-.25.24.25.25,0,1,0,.5,0A.25.25,0,0,0,48.75,43.38Zm1.63,2.12a.25.25,0,1,0,0,.5.25.25,0,0,0,0-.5Zm3,.75a.25.25,0,1,0,0,.5.25.25,0,0,0,0-.5Zm2.62-1a.25.25,0,1,0,.25.25A.25.25,0,0,0,56,45.25Zm1.5,1.37a.26.26,0,0,0-.25.26.25.25,0,0,0,.5,0A.26.26,0,0,0,57.5,46.62Zm3.62-.24a.24.24,0,0,0-.24.24.25.25,0,0,0,.24.26.26.26,0,0,0,.26-.26A.25.25,0,0,0,61.12,46.38ZM60,44.25a.25.25,0,1,0,.25.25A.25.25,0,0,0,60,44.25Zm0-1.75a.25.25,0,1,0,.25.25A.25.25,0,0,0,60,42.5Zm2.75-.62a.25.25,0,0,0-.25.24.25.25,0,1,0,.5,0A.25.25,0,0,0,62.75,41.88Zm-1.63-1.5a.24.24,0,0,0-.24.24.25.25,0,0,0,.24.26.26.26,0,0,0,.26-.26A.25.25,0,0,0,61.12,40.38Zm2.13-1.76a.26.26,0,0,0-.25.26.25.25,0,0,0,.5,0A.26.26,0,0,0,63.25,38.62Zm-4.63-.12a.25.25,0,0,0,0,.5.25.25,0,1,0,0-.5Zm-1.37-2a.25.25,0,1,0,.25.25A.25.25,0,0,0,57.25,36.5Zm2.75-1a.25.25,0,1,0,.25.25A.25.25,0,0,0,60,35.5Zm1.75,1a.25.25,0,1,0,.25.25A.25.25,0,0,0,61.75,36.5Zm1.37-2.25a.25.25,0,0,0,0,.5.25.25,0,1,0,0-.5Zm-6-1a.25.25,0,0,0,0,.5.25.25,0,1,0,0-.5Zm-2-1.13a.25.25,0,0,0-.24.26.24.24,0,0,0,.24.24.25.25,0,0,0,.26-.24A.26.26,0,0,0,55.12,32.12Zm.5,3.13a.25.25,0,0,0,0,.5.25.25,0,1,0,0-.5Zm-.87,1.87a.26.26,0,0,0-.25.26.25.25,0,0,0,.5,0A.26.26,0,0,0,54.75,37.12Zm-2.63-.74a.24.24,0,0,0-.24.24.25.25,0,0,0,.24.26.26.26,0,0,0,.26-.26A.25.25,0,0,0,52.12,36.38Zm-.24-2.13a.25.25,0,1,0,0,.5.25.25,0,0,0,0-.5Zm-1.76-1.13a.25.25,0,0,0-.24.26.24.24,0,0,0,.24.24.25.25,0,0,0,.26-.24A.26.26,0,0,0,50.12,33.12Zm.38,4.76a.25.25,0,0,0-.25.24.25.25,0,1,0,.5,0A.25.25,0,0,0,50.5,37.88ZM50.88,40a.25.25,0,1,0,0,.5.25.25,0,0,0,0-.5Zm13-7.25A.24.24,0,0,0,64,33v-.42A.24.24,0,0,0,63.88,32.75Zm-.13,7.5a.25.25,0,0,0,.25.25V40A.25.25,0,0,0,63.75,40.25Zm-6.13,2.63a.24.24,0,0,0-.24.24.25.25,0,0,0,.24.26.26.26,0,0,0,.26-.26A.25.25,0,0,0,57.62,42.88Zm5.38,5a.24.24,0,0,0-.21.12h.42A.24.24,0,0,0,63,47.88Zm.12-3a.24.24,0,0,0-.24.24.25.25,0,0,0,.24.26.26.26,0,0,0,.26-.26A.25.25,0,0,0,63.12,44.88ZM49.75,47.75a.25.25,0,0,0-.25.25H50A.25.25,0,0,0,49.75,47.75Zm4-13.87a.37.37,0,1,0,.37.37A.36.36,0,0,0,53.75,33.88Zm-3.75,8a.37.37,0,1,0,.38.37A.37.37,0,0,0,50,41.88Zm-1.62,4a.38.38,0,1,0,.37.37A.38.38,0,0,0,48.38,45.9Zm3.95,1.35a.38.38,0,0,0,0,.75.38.38,0,1,0,0-.75Zm6.42.5a.37.37,0,0,0-.35.25h.7A.37.37,0,0,0,58.75,47.75Zm5-10.63a.37.37,0,0,0,.25.36v-.71A.37.37,0,0,0,63.75,37.12Zm-2.13-4.37a.38.38,0,0,0,0,.75.38.38,0,1,0,0-.75Zm-13.5,4-.12,0v.71l.12,0a.38.38,0,1,0,0-.75Zm0-4.25a.19.19,0,0,0-.12,0V33a.19.19,0,0,0,.12,0,.25.25,0,1,0,0-.5ZM48,40v.5a.25.25,0,0,0,0-.5Zm11.1-8h-.7a.25.25,0,0,0,0,.12.37.37,0,1,0,.74,0A.25.25,0,0,0,59.1,32Zm-9.6,0a.25.25,0,0,0,.5,0Zm13.71,0h-.42a.19.19,0,0,0,0,.12.25.25,0,1,0,.5,0A.19.19,0,0,0,63.21,32Z"/><path id="sand_water-16" data-name="sand_water" class="cls-2" d="M50.25,51.12a.38.38,0,1,1-.37-.37A.38.38,0,0,1,50.25,51.12Zm2.37,3.38a.38.38,0,1,0,.38.38A.38.38,0,0,0,52.62,54.5Zm8.88,5a.38.38,0,1,0,.38.38A.38.38,0,0,0,61.5,59.5Zm-.88-5.12a.37.37,0,1,0,.38.37A.37.37,0,0,0,60.62,54.38Zm-2.74-3.63a.38.38,0,1,0,.37.37A.38.38,0,0,0,57.88,50.75Zm-4.38,9.5a.38.38,0,1,0,.38.37A.38.38,0,0,0,53.5,60.25Zm4.25.13a.37.37,0,1,0,.37.37A.36.36,0,0,0,57.75,60.38Zm-1.63-5.76a.38.38,0,1,0,.38.38A.38.38,0,0,0,56.12,54.62Zm2.5,2.5a.38.38,0,1,0,.38.38A.38.38,0,0,0,58.62,57.12Zm-4.87-7.24a.37.37,0,1,0,.37.37A.36.36,0,0,0,53.75,49.88Zm-3.75,8a.37.37,0,1,0,.38.37A.37.37,0,0,0,50,57.88Zm-1.62,4a.38.38,0,1,0,.37.37A.38.38,0,0,0,48.38,61.9Zm3.95,1.35a.38.38,0,0,0,0,.75.38.38,0,1,0,0-.75Zm6.42.5a.37.37,0,0,0-.35.25h.7A.37.37,0,0,0,58.75,63.75Zm2.87-15a.38.38,0,0,0,0,.75.38.38,0,1,0,0-.75Zm-9,5.75a.38.38,0,1,0,.38.38A.38.38,0,0,0,52.62,54.5Zm8.88,5a.38.38,0,1,0,.38.38A.38.38,0,0,0,61.5,59.5Zm-.88-5.12a.37.37,0,1,0,.38.37A.37.37,0,0,0,60.62,54.38Zm-2.74-3.63a.38.38,0,1,0,.37.37A.38.38,0,0,0,57.88,50.75Zm-4.38,9.5a.38.38,0,1,0,.38.37A.38.38,0,0,0,53.5,60.25Zm4.25.13a.37.37,0,1,0,.37.37A.36.36,0,0,0,57.75,60.38Zm-1.63-5.76a.38.38,0,1,0,.38.38A.38.38,0,0,0,56.12,54.62Zm2.5,2.5a.38.38,0,1,0,.38.38A.38.38,0,0,0,58.62,57.12Zm-3.24,1.26a.25.25,0,0,0-.26.24.26.26,0,0,0,.26.26.25.25,0,0,0,.24-.26A.24.24,0,0,0,55.38,58.38Zm-2.26-1.63a.25.25,0,0,0,0,.5.25.25,0,1,0,0-.5Zm3.26-.13a.26.26,0,0,0-.26.26.25.25,0,0,0,.26.24.24.24,0,0,0,.24-.24A.25.25,0,0,0,56.38,56.62ZM52,58.75a.25.25,0,1,0,.25.25A.25.25,0,0,0,52,58.75Zm-3.25.63a.25.25,0,0,0-.25.24.25.25,0,1,0,.5,0A.25.25,0,0,0,48.75,59.38Zm1.63,2.12a.25.25,0,1,0,0,.5.25.25,0,0,0,0-.5Zm3,.75a.25.25,0,1,0,0,.5.25.25,0,0,0,0-.5Zm2.62-1a.25.25,0,1,0,.25.25A.25.25,0,0,0,56,61.25Zm1.5,1.37a.26.26,0,0,0-.25.26.25.25,0,0,0,.5,0A.26.26,0,0,0,57.5,62.62Zm3.62-.24a.24.24,0,0,0-.24.24.25.25,0,0,0,.24.26.26.26,0,0,0,.26-.26A.25.25,0,0,0,61.12,62.38ZM60,60.25a.25.25,0,1,0,.25.25A.25.25,0,0,0,60,60.25Zm0-1.75a.25.25,0,1,0,.25.25A.25.25,0,0,0,60,58.5Zm2.75-.62a.25.25,0,0,0-.25.24.25.25,0,1,0,.5,0A.25.25,0,0,0,62.75,57.88Zm-1.63-1.5a.24.24,0,0,0-.24.24.25.25,0,0,0,.24.26.26.26,0,0,0,.26-.26A.25.25,0,0,0,61.12,56.38Zm2.13-1.76a.26.26,0,0,0-.25.26.25.25,0,0,0,.5,0A.26.26,0,0,0,63.25,54.62Zm-4.63-.12a.25.25,0,0,0,0,.5.25.25,0,1,0,0-.5Zm-1.37-2a.25.25,0,1,0,.25.25A.25.25,0,0,0,57.25,52.5Zm2.75-1a.25.25,0,1,0,.25.25A.25.25,0,0,0,60,51.5Zm1.75,1a.25.25,0,1,0,.25.25A.25.25,0,0,0,61.75,52.5Zm1.37-2.25a.25.25,0,0,0,0,.5.25.25,0,1,0,0-.5Zm-6-1a.25.25,0,0,0,0,.5.25.25,0,1,0,0-.5Zm-2-1.13a.25.25,0,0,0-.24.26.24.24,0,0,0,.24.24.25.25,0,0,0,.26-.24A.26.26,0,0,0,55.12,48.12Zm.5,3.13a.25.25,0,0,0,0,.5.25.25,0,1,0,0-.5Zm-.87,1.87a.26.26,0,0,0-.25.26.25.25,0,0,0,.5,0A.26.26,0,0,0,54.75,53.12Zm-2.63-.74a.24.24,0,0,0-.24.24.25.25,0,0,0,.24.26.26.26,0,0,0,.26-.26A.25.25,0,0,0,52.12,52.38Zm-.24-2.13a.25.25,0,1,0,0,.5.25.25,0,0,0,0-.5Zm-1.76-1.13a.25.25,0,0,0-.24.26.24.24,0,0,0,.24.24.25.25,0,0,0,.26-.24A.26.26,0,0,0,50.12,49.12Zm.38,4.76a.25.25,0,0,0-.25.24.25.25,0,1,0,.5,0A.25.25,0,0,0,50.5,53.88ZM50.88,56a.25.25,0,1,0,0,.5.25.25,0,0,0,0-.5Zm13-7.25A.24.24,0,0,0,64,49v-.42A.24.24,0,0,0,63.88,48.75Zm-.13,7.5a.25.25,0,0,0,.25.25V56A.25.25,0,0,0,63.75,56.25Zm-6.13,2.63a.24.24,0,0,0-.24.24.25.25,0,0,0,.24.26.26.26,0,0,0,.26-.26A.25.25,0,0,0,57.62,58.88Zm5.38,5a.24.24,0,0,0-.21.12h.42A.24.24,0,0,0,63,63.88Zm.12-3a.24.24,0,0,0-.24.24.25.25,0,0,0,.24.26.26.26,0,0,0,.26-.26A.25.25,0,0,0,63.12,60.88ZM49.75,63.75a.25.25,0,0,0-.25.25H50A.25.25,0,0,0,49.75,63.75Zm4-13.87a.37.37,0,1,0,.37.37A.36.36,0,0,0,53.75,49.88Zm-3.75,8a.37.37,0,1,0,.38.37A.37.37,0,0,0,50,57.88Zm-1.62,4a.38.38,0,1,0,.37.37A.38.38,0,0,0,48.38,61.9Zm3.95,1.35a.38.38,0,0,0,0,.75.38.38,0,1,0,0-.75Zm6.42.5a.37.37,0,0,0-.35.25h.7A.37.37,0,0,0,58.75,63.75Zm5-10.63a.37.37,0,0,0,.25.36v-.71A.37.37,0,0,0,63.75,53.12Zm-2.13-4.37a.38.38,0,0,0,0,.75.38.38,0,1,0,0-.75Zm-13.5,4-.12,0v.71l.12,0a.38.38,0,1,0,0-.75Zm0-4.25a.19.19,0,0,0-.12,0V49a.19.19,0,0,0,.12,0,.25.25,0,1,0,0-.5ZM48,56v.5a.25.25,0,0,0,0-.5Zm11.1-8h-.7a.25.25,0,0,0,0,.12.37.37,0,1,0,.74,0A.25.25,0,0,0,59.1,48Zm-9.6,0a.25.25,0,0,0,.5,0Zm13.71,0h-.42a.19.19,0,0,0,0,.12.25.25,0,1,0,.5,0A.19.19,0,0,0,63.21,48Z"/></g></svg>