<svg id="Sprites" xmlns="http://www.w3.org/2000/svg" viewBox="0 0 64 64"><defs><style>.cls-1{fill:none;}.cls-2{fill:#0984ba;}</style></defs><g id="sand_water_poly_blue"><rect id="bbox_64" class="cls-1" width="64" height="64"/><path id="sand_water" class="cls-2" d="M9,12.5A1.5,1.5,0,1,1,7.5,11,1.5,1.5,0,0,1,9,12.5ZM18.5,26A1.5,1.5,0,1,0,20,27.5,1.5,1.5,0,0,0,18.5,26ZM54,46a1.5,1.5,0,1,0,1.5,1.5A1.5,1.5,0,0,0,54,46ZM50.5,25.5A1.5,1.5,0,1,0,52,27,1.5,1.5,0,0,0,50.5,25.5ZM39.5,11A1.5,1.5,0,1,0,41,12.5,1.5,1.5,0,0,0,39.5,11ZM22,49a1.5,1.5,0,1,0,1.5,1.5A1.5,1.5,0,0,0,22,49Zm17,.5A1.5,1.5,0,1,0,40.5,51,1.5,1.5,0,0,0,39,49.5Zm-6.5-23A1.5,1.5,0,1,0,34,28,1.5,1.5,0,0,0,32.5,26.5Zm10,10A1.5,1.5,0,1,0,44,38,1.5,1.5,0,0,0,42.5,36.5ZM23,7.5A1.5,1.5,0,1,0,24.5,9,1.5,1.5,0,0,0,23,7.5ZM8,39.5A1.5,1.5,0,1,0,9.5,41,1.5,1.5,0,0,0,8,39.5ZM1.5,55.6A1.5,1.5,0,1,0,3,57.1,1.5,1.5,0,0,0,1.5,55.6ZM17.33,61a1.5,1.5,0,1,0,1.5,1.5A1.5,1.5,0,0,0,17.33,61ZM43,63a1.5,1.5,0,0,0-1.41,1h2.82A1.5,1.5,0,0,0,43,63ZM54.5,3A1.5,1.5,0,1,0,56,4.5,1.5,1.5,0,0,0,54.5,3Zm-36,23A1.5,1.5,0,1,0,20,27.5,1.5,1.5,0,0,0,18.5,26ZM54,46a1.5,1.5,0,1,0,1.5,1.5A1.5,1.5,0,0,0,54,46ZM50.5,25.5A1.5,1.5,0,1,0,52,27,1.5,1.5,0,0,0,50.5,25.5ZM39.5,11A1.5,1.5,0,1,0,41,12.5,1.5,1.5,0,0,0,39.5,11ZM22,49a1.5,1.5,0,1,0,1.5,1.5A1.5,1.5,0,0,0,22,49Zm17,.5A1.5,1.5,0,1,0,40.5,51,1.5,1.5,0,0,0,39,49.5Zm-6.5-23A1.5,1.5,0,1,0,34,28,1.5,1.5,0,0,0,32.5,26.5Zm10,10A1.5,1.5,0,1,0,44,38,1.5,1.5,0,0,0,42.5,36.5Zm-13,5a1,1,0,1,0,1,1A1,1,0,0,0,29.5,41.5Zm-9-6.5a1,1,0,1,0,1,1A1,1,0,0,0,20.5,35Zm13-.5a1,1,0,1,0,1,1A1,1,0,0,0,33.5,34.5ZM16,43a1,1,0,1,0,1,1A1,1,0,0,0,16,43ZM3,45.5a1,1,0,1,0,1,1A1,1,0,0,0,3,45.5ZM9.5,54a1,1,0,1,0,1,1A1,1,0,0,0,9.5,54Zm12,3a1,1,0,1,0,1,1A1,1,0,0,0,21.5,57ZM32,53a1,1,0,1,0,1,1A1,1,0,0,0,32,53Zm6,5.5a1,1,0,1,0,1,1A1,1,0,0,0,38,58.5Zm14.5-1a1,1,0,1,0,1,1A1,1,0,0,0,52.5,57.5ZM48,49a1,1,0,1,0,1,1A1,1,0,0,0,48,49Zm0-7a1,1,0,1,0,1,1A1,1,0,0,0,48,42Zm11-2.5a1,1,0,1,0,1,1A1,1,0,0,0,59,39.5Zm-6.5-6a1,1,0,1,0,1,1A1,1,0,0,0,52.5,33.5Zm8.5-7a1,1,0,1,0,1,1A1,1,0,0,0,61,26.5ZM42.5,26a1,1,0,1,0,1,1A1,1,0,0,0,42.5,26ZM37,18a1,1,0,1,0,1,1A1,1,0,0,0,37,18Zm11-4a1,1,0,1,0,1,1A1,1,0,0,0,48,14Zm7,4a1,1,0,1,0,1,1A1,1,0,0,0,55,18Zm5.5-9a1,1,0,1,0,1,1A1,1,0,0,0,60.5,9Zm-24-4a1,1,0,1,0,1,1A1,1,0,0,0,36.5,5ZM28.5.5a1,1,0,1,0,1,1A1,1,0,0,0,28.5.5Zm2,12.5a1,1,0,1,0,1,1A1,1,0,0,0,30.5,13ZM27,20.5a1,1,0,1,0,1,1A1,1,0,0,0,27,20.5Zm-10.5-3a1,1,0,1,0,1,1A1,1,0,0,0,16.5,17.5ZM15.5,9a1,1,0,1,0,1,1A1,1,0,0,0,15.5,9Zm-7-4.5a1,1,0,1,0,1,1A1,1,0,0,0,8.5,4.5Zm1.5,19a1,1,0,1,0,1,1A1,1,0,0,0,10,23.5ZM11.5,32a1,1,0,1,0,1,1A1,1,0,0,0,11.5,32Zm52-29a1,1,0,0,0,.5.86V2.14A1,1,0,0,0,63.5,3ZM63,33a1,1,0,0,0,1,1V32A1,1,0,0,0,63,33ZM38.5,43.5a1,1,0,1,0,1,1A1,1,0,0,0,38.5,43.5ZM60,63.5a1,1,0,0,0-.86.5h1.72A1,1,0,0,0,60,63.5Zm.5-12a1,1,0,1,0,1,1A1,1,0,0,0,60.5,51.5ZM7,63a1,1,0,0,0-1,1H8A1,1,0,0,0,7,63ZM23,7.5A1.5,1.5,0,1,0,24.5,9,1.5,1.5,0,0,0,23,7.5ZM8,39.5A1.5,1.5,0,1,0,9.5,41,1.5,1.5,0,0,0,8,39.5ZM1.5,55.6A1.5,1.5,0,1,0,3,57.1,1.5,1.5,0,0,0,1.5,55.6ZM17.33,61a1.5,1.5,0,1,0,1.5,1.5A1.5,1.5,0,0,0,17.33,61ZM43,63a1.5,1.5,0,0,0-1.41,1h2.82A1.5,1.5,0,0,0,43,63ZM63,20.5a1.5,1.5,0,0,0,1,1.41V19.09A1.5,1.5,0,0,0,63,20.5ZM54.5,3A1.5,1.5,0,1,0,56,4.5,1.5,1.5,0,0,0,54.5,3ZM.5,19a1.39,1.39,0,0,0-.5.09v2.82A1.39,1.39,0,0,0,.5,22a1.5,1.5,0,0,0,0-3ZM.5,2a1,1,0,0,0-.5.14V3.86A1,1,0,0,0,.5,4a1,1,0,0,0,0-2ZM0,32v2a1,1,0,0,0,1-1A1,1,0,0,0,0,32ZM44.41,0H41.59a1.39,1.39,0,0,0-.09.5,1.5,1.5,0,0,0,3,0A1.39,1.39,0,0,0,44.41,0ZM6,0A1,1,0,0,0,7,1,1,1,0,0,0,8,0ZM60.86,0H59.14A1,1,0,0,0,59,.5a1,1,0,0,0,2,0A1,1,0,0,0,60.86,0Z"/></g></svg>