<svg id="Sprites" xmlns="http://www.w3.org/2000/svg" viewBox="0 0 16 16"><defs><style>.cls-1{fill:none;}.cls-2{fill:#fff;}</style></defs><g id="satellite_station_pnt"><rect id="bbox_16" class="cls-1" width="16" height="16"/><circle class="cls-2" cx="8" cy="8" r="7"/><path d="M8,1a7,7,0,1,0,7,7A7,7,0,0,0,8,1ZM8,14a6,6,0,1,1,6-6A6,6,0,0,1,8,14Zm4.18-4.28A4.34,4.34,0,0,1,10.6,10a4.5,4.5,0,0,1-1.11-.14l.82,1.64H11a.5.5,0,0,1,0,1H5a.5.5,0,0,1,0-1h.69l1.51-3A4.53,4.53,0,0,1,6,5.4a4.34,4.34,0,0,1,.28-1.58.5.5,0,0,1,.64-.29.5.5,0,0,1,.29.65A3.43,3.43,0,0,0,7,5.4a3.56,3.56,0,0,0,.75,2.19,1.07,1.07,0,0,0,.14.16l.21-.21.72-.72a.25.25,0,0,1,.36.36l-.69.69-.24.24a3.8,3.8,0,0,0,.57.42A3.55,3.55,0,0,0,10.6,9a3.43,3.43,0,0,0,1.22-.21.5.5,0,1,1,.36.93ZM8.75,6A.25.25,0,0,1,9,5.75,1.25,1.25,0,0,1,10.25,7a.25.25,0,0,1-.5,0A.76.76,0,0,0,9,6.25.25.25,0,0,1,8.75,6Zm0-1A.25.25,0,0,1,9,4.75,2.25,2.25,0,0,1,11.25,7a.25.25,0,0,1-.5,0A1.76,1.76,0,0,0,9,5.25.25.25,0,0,1,8.75,5Zm0-1A.25.25,0,0,1,9,3.75,3.26,3.26,0,0,1,12.25,7a.25.25,0,0,1-.5,0A2.75,2.75,0,0,0,9,4.25.25.25,0,0,1,8.75,4Z"/></g></svg>