<?xml version="1.0" encoding="UTF-8" standalone="no"?>
<svg
   xmlns:dc="http://purl.org/dc/elements/1.1/"
   xmlns:cc="http://creativecommons.org/ns#"
   xmlns:rdf="http://www.w3.org/1999/02/22-rdf-syntax-ns#"
   xmlns:svg="http://www.w3.org/2000/svg"
   xmlns="http://www.w3.org/2000/svg"
   xmlns:sodipodi="http://sodipodi.sourceforge.net/DTD/sodipodi-0.dtd"
   xmlns:inkscape="http://www.inkscape.org/namespaces/inkscape"
   width="50mm"
   height="50.170856mm"
   viewBox="0 0 50 50.170856"
   version="1.1"
   id="svg8"
   sodipodi:docname="shield_svg_test7.svg"
   inkscape:version="1.0.1 (3bc2e813f5, 2020-09-07)">
  <defs
     id="defs2">
    <inkscape:path-effect
       effect="fillet_chamfer"
       id="path-effect840"
       is_visible="true"
       lpeversion="1"
       satellites_param="F,0,0,1,0,44.868367,0,1 @ F,0,0,1,0,2.6810493,0,1 @ F,0,0,1,0,45.909373,0,1 @ F,0,0,1,0,0,0,1 @ F,0,0,1,0,75.712349,0,1 @ F,0,0,1,0,0,0,1"
       unit="px"
       method="auto"
       mode="F"
       radius="0"
       chamfer_steps="1"
       flexible="false"
       use_knot_distance="true"
       apply_no_radius="true"
       apply_with_radius="true"
       only_selected="false"
       hide_knots="false" />
  </defs>
  <sodipodi:namedview
     id="base"
     pagecolor="#ffffff"
     bordercolor="#666666"
     borderopacity="1.0"
     inkscape:pageopacity="0.0"
     inkscape:pageshadow="2"
     inkscape:zoom="0.98994949"
     inkscape:cx="126.09368"
     inkscape:cy="86.897702"
     inkscape:document-units="mm"
     inkscape:current-layer="layer1"
     inkscape:document-rotation="0"
     showgrid="false"
     fit-margin-top="0"
     fit-margin-left="0"
     fit-margin-right="0"
     fit-margin-bottom="0"
     inkscape:window-width="1920"
     inkscape:window-height="1017"
     inkscape:window-x="-8"
     inkscape:window-y="-8"
     inkscape:window-maximized="1" />
  <metadata
     id="metadata5">
    <rdf:RDF>
      <cc:Work
         rdf:about="">
        <dc:format>image/svg+xml</dc:format>
        <dc:type
           rdf:resource="http://purl.org/dc/dcmitype/StillImage" />
        <dc:title></dc:title>
      </cc:Work>
    </rdf:RDF>
  </metadata>
  <g
     inkscape:label="Layer 1"
     inkscape:groupmode="layer"
     id="layer1"
     transform="translate(-105.52221,-92.954358)">
    <g
       id="g879"
       transform="matrix(0.3706068,0,0,0.3706068,92.817161,79.366629)">
      <g
         id="g883"
         transform="matrix(0.49504792,0,0,0.49504792,-17.53635,-8.93282)">
        <path
           style="fill:#ffffff;fill-opacity:1;stroke:#ffffff;stroke-width:2.69828;stroke-linecap:butt;stroke-linejoin:miter;stroke-miterlimit:4;stroke-dasharray:none;stroke-opacity:1"
           d="m 134.37053,93.454613 213.12996,0.189947 3.14042,5.161642 2.83975,4.961188 3.5651,6.60166 3.96875,8.55171 3.92149,9.82738 2.92931,8.7407 2.83483,10.11086 2.3151,10.58333 1.18118,7.60677 0.99219,9.30767 0.42524,4.58296 0.23622,16.81994 -0.42522,7.08705 -0.70871,7.46503 -2.03163,13.74889 -2.22059,10.01637 -2.88208,9.96912 -3.21279,9.26041 -4.8192,11.29203 -3.30729,6.94531 -4.63021,8.36274 -5.81138,9.21316 -6.85083,9.6384 -7.32327,8.97695 -7.65403,8.17372 -8.50447,8.12649 -8.59896,6.99256 -9.3549,6.85081 -10.11087,6.47284 -5.10267,2.88208 -6.18937,3.21279 -9.73289,4.44121 -12.14248,4.67747 -9.78013,2.9293 -2.69308,0.80323 -0.8032,0.14173 -3.11831,-0.8977 -11.62276,-3.44903 -12.6622,-5.00819 -12.66221,-6.14212 -6.47284,-3.82699 -6.42559,-3.77978 -8.26823,-5.57514 -10.58334,-8.22098 -10.2526,-9.6384 -10.63058,-11.67 -10.06362,-12.70945 -7.27604,-11.3393 -4.44122,-8.31548 -4.15774,-8.22097 -4.01599,-9.35491 -3.82701,-10.72507 -2.78758,-9.78014 -2.83482,-12.85119 -1.41741,-9.07143 -1.03943,-8.88244 -0.37798,-12.33147 0.18899,-12.89844 1.27567,-12.94568 1.6064,-9.44941 3.9215,-16.6782 3.77976,-11.48102 5.90588,-14.03237 5.81138,-11.57552 z"
           id="path860" />
        <path
           style="fill:#c83737;fill-opacity:1;stroke:#000000;stroke-width:0;stroke-linecap:butt;stroke-linejoin:miter;stroke-miterlimit:4;stroke-dasharray:none;stroke-opacity:1"
           d="m 146.07313,106.47316 190.69618,0.16997 2.80985,4.61831 2.54085,4.43898 3.18984,5.90678 3.55101,7.65157 3.50872,8.79296 2.62096,7.82067 2.53643,9.0466 2.07144,9.46933 1.05682,6.80611 0.88777,8.32794 0.38048,4.10058 0.21134,15.04947 -0.38044,6.34109 -0.63411,6.67927 -1.81779,12.3017 -1.98685,8.96204 -2.57873,8.91979 -2.87461,8.28567 -4.31193,10.10345 -2.95918,6.21425 -4.14282,7.48248 -5.1997,8.24341 -6.12972,8.62387 -6.55243,8.03205 -6.84838,7.31335 -7.60929,7.27111 -7.69384,6.25654 -8.37021,6.12971 -9.04662,5.79151 -4.56556,2.5787 -5.53789,2.87462 -8.70843,3.97374 -10.86436,4.18511 -8.75069,2.62097 -2.40961,0.71867 -0.71866,0.12682 -2.79008,-0.80323 -10.39937,-3.08599 -11.32938,-4.48103 -11.3294,-5.4956 -5.79152,-3.42418 -5.74925,-3.38191 -7.39792,-4.98832 -9.46935,-7.35564 -9.17342,-8.62389 -9.51163,-10.4416 -9.00432,-11.37169 -6.51018,-10.14574 -3.97375,-7.44019 -3.72009,-7.35565 -3.59327,-8.37021 -3.42419,-9.59617 -2.49417,-8.7507 -2.53642,-11.49849 -1.26821,-8.11658 -0.93002,-7.94749 -0.3382,-11.03346 0.16909,-11.54076 1.14139,-11.58304 1.43732,-8.45477 3.50874,-14.92268 3.38189,-10.27254 5.28425,-12.55534 5.19968,-10.35711 z"
           id="path860-5" />
      </g>
    </g>
  </g>
</svg>
