<svg id="Sprites" xmlns="http://www.w3.org/2000/svg" viewBox="0 0 16 16"><defs><style>.cls-1{fill:none;}.cls-2{fill:#fff;}</style></defs><g id="showground_pnt_black_fill"><rect id="bbox_16" class="cls-1" width="16" height="16"/><circle id="circle_fill" class="cls-2" cx="8" cy="8" r="7"/><path d="M8,2A6,6,0,1,1,2,8,6,6,0,0,1,8,2M8,1a7,7,0,1,0,7,7A7,7,0,0,0,8,1Zm4.14,7.79C10.42,7.66,8.45,5.92,8.26,4.68l1.32-.44a.25.25,0,0,0,0-.48l-1.5-.5a.27.27,0,0,0-.23,0,.25.25,0,0,0-.1.2v1c0,1.25-2.09,3.1-3.89,4.29a.26.26,0,0,0-.1.28A.25.25,0,0,0,4,9.25h.25V11a.25.25,0,0,0,.5,0V10c0-.24.6-.5,1.5-.5a3.24,3.24,0,0,1,1.11.17c.12,0,.39.17.39.33v1a.25.25,0,0,0,.5,0V10c0-.24.6-.5,1.5-.5a3.24,3.24,0,0,1,1.11.17c.12,0,.39.17.39.33v1a.25.25,0,0,0,.5,0V9.25H12a.25.25,0,0,0,.24-.18A.26.26,0,0,0,12.14,8.79Z"/></g></svg>