<svg id="Sprites" xmlns="http://www.w3.org/2000/svg" viewBox="0 0 16 16"><defs><style>.cls-1{fill:none;}.cls-2{fill:#fff;}</style></defs><g id="showground_pnt_black_fill"><rect id="bbox_16" class="cls-1" width="16" height="16"/><circle id="circle_fill" class="cls-2" cx="8" cy="8" r="7"/><path id="showground" d="M8,15a7,7,0,1,1,7-7A7,7,0,0,1,8,15ZM8,2a6,6,0,1,0,6,6A6,6,0,0,0,8,2Zm4.4,6.27L12,8a3.48,3.48,0,0,1-1.71-2.59L11.5,5l-1.25-.42V4.5a.25.25,0,0,0-.5,0V5C9.75,6,9,6.5,8,6.5A1.57,1.57,0,0,1,6.3,5.4L7.5,5,6.25,4.58V4.5a.25.25,0,0,0-.5,0V5A3.41,3.41,0,0,1,4,8l-.41.27-.35.23V10a.25.25,0,0,0,.5,0V9.5c0-.37.43-.75,1.25-.75s1.25.38,1.25.75V10a.25.25,0,0,0,.5,0V9.5c0-.37.43-.75,1.25-.75s1.25.38,1.25.75V10a.25.25,0,0,0,.5,0V9.5c0-.37.43-.75,1.25-.75s1.25.38,1.25.75V10a.25.25,0,0,0,.5,0V8.5Z"/></g></svg>