<svg id="Sprites" xmlns="http://www.w3.org/2000/svg" viewBox="0 0 16 16"><defs><style>.cls-1{fill:none;}</style></defs><g id="star_pnt_black_fill"><rect id="bbox_16" class="cls-1" width="16" height="16"/><path id="star_fill" d="M15,6.35A.5.5,0,0,0,14.5,6H9.91L8.47,1.62a.51.51,0,0,0-.94,0L6.09,6H1.5A.5.5,0,0,0,1,6.35a.49.49,0,0,0,.19.55l3.7,2.71L3.51,14a.49.49,0,0,0,.18.56.53.53,0,0,0,.59,0L8,11.86l3.72,2.69a.55.55,0,0,0,.3.09.52.52,0,0,0,.29-.09.49.49,0,0,0,.18-.56l-1.4-4.38,3.7-2.71A.49.49,0,0,0,15,6.35Z"/></g></svg>