<svg id="Sprites" xmlns="http://www.w3.org/2000/svg" viewBox="0 0 64 64"><defs><style>.cls-1{fill:none;}.cls-2{fill:#0984ba;}</style></defs><g id="swamp_poly_dense_half"><rect id="bbox_64" class="cls-1" width="64" height="64"/><path id="swamp_dense" class="cls-2" d="M10.48,6.51a.26.26,0,0,0-.34-.11A4.44,4.44,0,0,0,8.52,8.54a.24.24,0,0,0,.15.32l.08,0A.23.23,0,0,0,9,8.7a4,4,0,0,1,1.38-1.85A.26.26,0,0,0,10.48,6.51ZM9.17,5.19a.24.24,0,0,0-.35,0A5.88,5.88,0,0,0,7.75,8.62a.25.25,0,1,0,.5,0,5.43,5.43,0,0,1,.93-3.08A.24.24,0,0,0,9.17,5.19ZM6.48,5a.26.26,0,0,0-.34-.11A.25.25,0,0,0,6,5.23a7,7,0,0,1,.73,3.39.25.25,0,1,0,.5,0A7.62,7.62,0,0,0,6.48,5Zm0,3.56A3.89,3.89,0,0,0,5.42,6.45a.23.23,0,0,0-.34,0,.24.24,0,0,0,0,.35A3.6,3.6,0,0,1,6,8.68a.25.25,0,0,0,.24.2h.06A.25.25,0,0,0,6.49,8.57Zm4,.55a.85.85,0,0,0-.67.33c-.13.12-.19.17-.33.17s-.2,0-.33-.17a.85.85,0,0,0-1.34,0c-.13.12-.19.17-.33.17s-.2,0-.33-.17a.85.85,0,0,0-1.34,0c-.13.12-.19.17-.33.17s-.2,0-.33-.17a.85.85,0,0,0-.67-.33.25.25,0,0,0-.25.26.25.25,0,0,0,.25.24c.14,0,.2.06.33.18a.86.86,0,0,0,1.34,0c.13-.12.19-.18.33-.18s.2.06.33.18a.86.86,0,0,0,1.34,0c.13-.12.19-.18.33-.18s.2.06.33.18a.86.86,0,0,0,1.34,0c.13-.12.19-.18.33-.18a.25.25,0,0,0,.25-.24A.25.25,0,0,0,10.5,9.12Zm15-.11a.26.26,0,0,0-.34-.11A4.44,4.44,0,0,0,23.52,11a.24.24,0,0,0,.15.32l.08,0A.23.23,0,0,0,24,11.2a4,4,0,0,1,1.38-1.85A.26.26,0,0,0,25.48,9ZM24.17,7.69a.24.24,0,0,0-.35,0,5.88,5.88,0,0,0-1.07,3.41.25.25,0,1,0,.5,0A5.43,5.43,0,0,1,24.18,8,.24.24,0,0,0,24.17,7.69Zm-2.69-.18a.26.26,0,0,0-.34-.11.25.25,0,0,0-.12.33,7,7,0,0,1,.73,3.39.25.25,0,1,0,.5,0A7.62,7.62,0,0,0,21.48,7.51Zm0,3.56A3.89,3.89,0,0,0,20.42,9a.23.23,0,0,0-.34,0,.24.24,0,0,0,0,.35A3.6,3.6,0,0,1,21,11.18a.25.25,0,0,0,.24.2h.06A.25.25,0,0,0,21.49,11.07Zm4,.55a.85.85,0,0,0-.67.33c-.13.12-.19.17-.33.17s-.2,0-.33-.17a.85.85,0,0,0-1.34,0c-.13.12-.19.17-.33.17s-.2,0-.33-.17a.85.85,0,0,0-1.34,0c-.13.12-.19.17-.33.17s-.2,0-.33-.17a.85.85,0,0,0-.67-.33.25.25,0,0,0-.25.26.25.25,0,0,0,.25.24c.14,0,.2.06.33.18a.86.86,0,0,0,1.34,0c.13-.12.19-.18.33-.18s.2.06.33.18a.86.86,0,0,0,1.34,0c.13-.12.19-.18.33-.18s.2.06.33.18a.86.86,0,0,0,1.34,0c.13-.12.19-.18.33-.18a.25.25,0,0,0,.25-.24A.25.25,0,0,0,25.5,11.62ZM15,19a.26.26,0,0,0-.34-.11A4.44,4.44,0,0,0,13,21a.24.24,0,0,0,.15.32l.08,0a.23.23,0,0,0,.23-.18,4,4,0,0,1,1.38-1.85A.26.26,0,0,0,15,19Zm-1.31-1.32a.24.24,0,0,0-.35,0,5.88,5.88,0,0,0-1.07,3.41.25.25,0,1,0,.5,0A5.43,5.43,0,0,1,13.68,18,.24.24,0,0,0,13.67,17.69ZM11,17.51a.26.26,0,0,0-.34-.11.25.25,0,0,0-.12.33,7,7,0,0,1,.73,3.39.25.25,0,1,0,.5,0A7.62,7.62,0,0,0,11,17.51Zm0,3.56A3.89,3.89,0,0,0,9.92,19a.23.23,0,0,0-.34,0,.24.24,0,0,0,0,.35,3.6,3.6,0,0,1,.93,1.88.25.25,0,0,0,.24.2h.06A.25.25,0,0,0,11,21.07Zm4,.55a.85.85,0,0,0-.67.33c-.13.12-.19.17-.33.17s-.2-.05-.33-.17a.85.85,0,0,0-1.34,0c-.13.12-.19.17-.33.17s-.2-.05-.33-.17a.85.85,0,0,0-1.34,0c-.13.12-.19.17-.33.17s-.2-.05-.33-.17A.85.85,0,0,0,9,21.62a.25.25,0,0,0-.25.26.25.25,0,0,0,.25.24c.14,0,.2.06.33.18a.86.86,0,0,0,1.34,0c.13-.12.19-.18.33-.18s.2.06.33.18a.86.86,0,0,0,1.34,0c.13-.12.19-.18.33-.18s.2.06.33.18a.86.86,0,0,0,1.34,0c.13-.12.19-.18.33-.18a.25.25,0,0,0,.25-.24A.25.25,0,0,0,15,21.62ZM28,24a.26.26,0,0,0-.34-.11A4.44,4.44,0,0,0,26,26a.24.24,0,0,0,.15.32l.08,0a.23.23,0,0,0,.23-.18,4,4,0,0,1,1.38-1.85A.26.26,0,0,0,28,24Zm-1.31-1.32a.24.24,0,0,0-.35,0,5.88,5.88,0,0,0-1.07,3.41.25.25,0,1,0,.5,0A5.43,5.43,0,0,1,26.68,23,.24.24,0,0,0,26.67,22.69ZM24,22.51a.26.26,0,0,0-.34-.11.25.25,0,0,0-.12.33,7,7,0,0,1,.73,3.39.25.25,0,1,0,.5,0A7.62,7.62,0,0,0,24,22.51Zm0,3.56A3.89,3.89,0,0,0,22.92,24a.23.23,0,0,0-.34,0,.24.24,0,0,0,0,.35,3.6,3.6,0,0,1,.93,1.88.25.25,0,0,0,.24.2h.06A.25.25,0,0,0,24,26.07Zm4,.55a.85.85,0,0,0-.67.33c-.13.12-.19.17-.33.17s-.2-.05-.33-.17a.85.85,0,0,0-1.34,0c-.13.12-.19.17-.33.17s-.2-.05-.33-.17a.85.85,0,0,0-1.34,0c-.13.12-.19.17-.33.17s-.2-.05-.33-.17a.85.85,0,0,0-.67-.33.25.25,0,0,0-.25.26.25.25,0,0,0,.25.24c.14,0,.2.06.33.18a.86.86,0,0,0,1.34,0c.13-.12.19-.18.33-.18s.2.06.33.18a.86.86,0,0,0,1.34,0c.13-.12.19-.18.33-.18s.2.06.33.18a.86.86,0,0,0,1.34,0c.13-.12.19-.18.33-.18a.25.25,0,0,0,.25-.24A.25.25,0,0,0,28,26.62ZM10.48,6.51a.26.26,0,0,0-.34-.11A4.44,4.44,0,0,0,8.52,8.54a.24.24,0,0,0,.15.32l.08,0A.23.23,0,0,0,9,8.7a4,4,0,0,1,1.38-1.85A.26.26,0,0,0,10.48,6.51ZM9.17,5.19a.24.24,0,0,0-.35,0A5.88,5.88,0,0,0,7.75,8.62a.25.25,0,1,0,.5,0,5.43,5.43,0,0,1,.93-3.08A.24.24,0,0,0,9.17,5.19ZM6.48,5a.26.26,0,0,0-.34-.11A.25.25,0,0,0,6,5.23a7,7,0,0,1,.73,3.39.25.25,0,1,0,.5,0A7.62,7.62,0,0,0,6.48,5Zm0,3.56A3.89,3.89,0,0,0,5.42,6.45a.23.23,0,0,0-.34,0,.24.24,0,0,0,0,.35A3.6,3.6,0,0,1,6,8.68a.25.25,0,0,0,.24.2h.06A.25.25,0,0,0,6.49,8.57Zm4,.55a.85.85,0,0,0-.67.33c-.13.12-.19.17-.33.17s-.2,0-.33-.17a.85.85,0,0,0-1.34,0c-.13.12-.19.17-.33.17s-.2,0-.33-.17a.85.85,0,0,0-1.34,0c-.13.12-.19.17-.33.17s-.2,0-.33-.17a.85.85,0,0,0-.67-.33.25.25,0,0,0-.25.26.25.25,0,0,0,.25.24c.14,0,.2.06.33.18a.86.86,0,0,0,1.34,0c.13-.12.19-.18.33-.18s.2.06.33.18a.86.86,0,0,0,1.34,0c.13-.12.19-.18.33-.18s.2.06.33.18a.86.86,0,0,0,1.34,0c.13-.12.19-.18.33-.18a.25.25,0,0,0,.25-.24A.25.25,0,0,0,10.5,9.12Zm15-.11a.26.26,0,0,0-.34-.11A4.44,4.44,0,0,0,23.52,11a.24.24,0,0,0,.15.32l.08,0A.23.23,0,0,0,24,11.2a4,4,0,0,1,1.38-1.85A.26.26,0,0,0,25.48,9ZM24.17,7.69a.24.24,0,0,0-.35,0,5.88,5.88,0,0,0-1.07,3.41.25.25,0,1,0,.5,0A5.43,5.43,0,0,1,24.18,8,.24.24,0,0,0,24.17,7.69Zm-2.69-.18a.26.26,0,0,0-.34-.11.25.25,0,0,0-.12.33,7,7,0,0,1,.73,3.39.25.25,0,1,0,.5,0A7.62,7.62,0,0,0,21.48,7.51Zm0,3.56A3.89,3.89,0,0,0,20.42,9a.23.23,0,0,0-.34,0,.24.24,0,0,0,0,.35A3.6,3.6,0,0,1,21,11.18a.25.25,0,0,0,.24.2h.06A.25.25,0,0,0,21.49,11.07Zm4,.55a.85.85,0,0,0-.67.33c-.13.12-.19.17-.33.17s-.2,0-.33-.17a.85.85,0,0,0-1.34,0c-.13.12-.19.17-.33.17s-.2,0-.33-.17a.85.85,0,0,0-1.34,0c-.13.12-.19.17-.33.17s-.2,0-.33-.17a.85.85,0,0,0-.67-.33.25.25,0,0,0-.25.26.25.25,0,0,0,.25.24c.14,0,.2.06.33.18a.86.86,0,0,0,1.34,0c.13-.12.19-.18.33-.18s.2.06.33.18a.86.86,0,0,0,1.34,0c.13-.12.19-.18.33-.18s.2.06.33.18a.86.86,0,0,0,1.34,0c.13-.12.19-.18.33-.18a.25.25,0,0,0,.25-.24A.25.25,0,0,0,25.5,11.62ZM15,19a.26.26,0,0,0-.34-.11A4.44,4.44,0,0,0,13,21a.24.24,0,0,0,.15.32l.08,0a.23.23,0,0,0,.23-.18,4,4,0,0,1,1.38-1.85A.26.26,0,0,0,15,19Zm-1.31-1.32a.24.24,0,0,0-.35,0,5.88,5.88,0,0,0-1.07,3.41.25.25,0,1,0,.5,0A5.43,5.43,0,0,1,13.68,18,.24.24,0,0,0,13.67,17.69ZM11,17.51a.26.26,0,0,0-.34-.11.25.25,0,0,0-.12.33,7,7,0,0,1,.73,3.39.25.25,0,1,0,.5,0A7.62,7.62,0,0,0,11,17.51Zm0,3.56A3.89,3.89,0,0,0,9.92,19a.23.23,0,0,0-.34,0,.24.24,0,0,0,0,.35,3.6,3.6,0,0,1,.93,1.88.25.25,0,0,0,.24.2h.06A.25.25,0,0,0,11,21.07Zm4,.55a.85.85,0,0,0-.67.33c-.13.12-.19.17-.33.17s-.2-.05-.33-.17a.85.85,0,0,0-1.34,0c-.13.12-.19.17-.33.17s-.2-.05-.33-.17a.85.85,0,0,0-1.34,0c-.13.12-.19.17-.33.17s-.2-.05-.33-.17A.85.85,0,0,0,9,21.62a.25.25,0,0,0-.25.26.25.25,0,0,0,.25.24c.14,0,.2.06.33.18a.86.86,0,0,0,1.34,0c.13-.12.19-.18.33-.18s.2.06.33.18a.86.86,0,0,0,1.34,0c.13-.12.19-.18.33-.18s.2.06.33.18a.86.86,0,0,0,1.34,0c.13-.12.19-.18.33-.18a.25.25,0,0,0,.25-.24A.25.25,0,0,0,15,21.62ZM28,24a.26.26,0,0,0-.34-.11A4.44,4.44,0,0,0,26,26a.24.24,0,0,0,.15.32l.08,0a.23.23,0,0,0,.23-.18,4,4,0,0,1,1.38-1.85A.26.26,0,0,0,28,24Zm-1.31-1.32a.24.24,0,0,0-.35,0,5.88,5.88,0,0,0-1.07,3.41.25.25,0,1,0,.5,0A5.43,5.43,0,0,1,26.68,23,.24.24,0,0,0,26.67,22.69ZM24,22.51a.26.26,0,0,0-.34-.11.25.25,0,0,0-.12.33,7,7,0,0,1,.73,3.39.25.25,0,1,0,.5,0A7.62,7.62,0,0,0,24,22.51Zm0,3.56A3.89,3.89,0,0,0,22.92,24a.23.23,0,0,0-.34,0,.24.24,0,0,0,0,.35,3.6,3.6,0,0,1,.93,1.88.25.25,0,0,0,.24.2h.06A.25.25,0,0,0,24,26.07Zm4,.55a.85.85,0,0,0-.67.33c-.13.12-.19.17-.33.17s-.2-.05-.33-.17a.85.85,0,0,0-1.34,0c-.13.12-.19.17-.33.17s-.2-.05-.33-.17a.85.85,0,0,0-1.34,0c-.13.12-.19.17-.33.17s-.2-.05-.33-.17a.85.85,0,0,0-.67-.33.25.25,0,0,0-.25.26.25.25,0,0,0,.25.24c.14,0,.2.06.33.18a.86.86,0,0,0,1.34,0c.13-.12.19-.18.33-.18s.2.06.33.18a.86.86,0,0,0,1.34,0c.13-.12.19-.18.33-.18s.2.06.33.18a.86.86,0,0,0,1.34,0c.13-.12.19-.18.33-.18a.25.25,0,0,0,.25-.24A.25.25,0,0,0,28,26.62ZM15,13.25H9a.25.25,0,0,1,0-.5h6a.25.25,0,0,1,0,.5Zm12,7H21a.25.25,0,0,1,0-.5h6a.25.25,0,0,1,0,.5ZM32,3.38v.5H29.38a.26.26,0,0,1-.26-.26.24.24,0,0,1,.26-.24ZM28,15.25H24a.25.25,0,0,1,0-.5h4a.25.25,0,0,1,0,.5ZM5.5,18h-4a.25.25,0,0,1,0-.5h4a.25.25,0,0,1,0,.5Zm7,9.75h-6a.25.25,0,0,1,0-.5h6a.25.25,0,0,1,0,.5ZM18.12,1.38h-4a.25.25,0,0,1-.24-.26.24.24,0,0,1,.24-.24h4a.25.25,0,0,1,.26.24A.26.26,0,0,1,18.12,1.38ZM1.62,3.62a.25.25,0,0,1-.24.26H0v-.5H1.38A.23.23,0,0,1,1.62,3.62Zm8.86,2.89a.26.26,0,0,0-.34-.11A4.44,4.44,0,0,0,8.52,8.54a.24.24,0,0,0,.15.32l.08,0A.23.23,0,0,0,9,8.7a4,4,0,0,1,1.38-1.85A.26.26,0,0,0,10.48,6.51ZM9.17,5.19a.24.24,0,0,0-.35,0A5.88,5.88,0,0,0,7.75,8.62a.25.25,0,1,0,.5,0,5.43,5.43,0,0,1,.93-3.08A.24.24,0,0,0,9.17,5.19ZM6.48,5a.26.26,0,0,0-.34-.11A.25.25,0,0,0,6,5.23a7,7,0,0,1,.73,3.39.25.25,0,1,0,.5,0A7.62,7.62,0,0,0,6.48,5Zm0,3.56A3.89,3.89,0,0,0,5.42,6.45a.23.23,0,0,0-.34,0,.24.24,0,0,0,0,.35A3.6,3.6,0,0,1,6,8.68a.25.25,0,0,0,.24.2h.06A.25.25,0,0,0,6.49,8.57Zm4,.55a.85.85,0,0,0-.67.33c-.13.12-.19.17-.33.17s-.2,0-.33-.17a.85.85,0,0,0-1.34,0c-.13.12-.19.17-.33.17s-.2,0-.33-.17a.85.85,0,0,0-1.34,0c-.13.12-.19.17-.33.17s-.2,0-.33-.17a.85.85,0,0,0-.67-.33.25.25,0,0,0-.25.26.25.25,0,0,0,.25.24c.14,0,.2.06.33.18a.86.86,0,0,0,1.34,0c.13-.12.19-.18.33-.18s.2.06.33.18a.86.86,0,0,0,1.34,0c.13-.12.19-.18.33-.18s.2.06.33.18a.86.86,0,0,0,1.34,0c.13-.12.19-.18.33-.18a.25.25,0,0,0,.25-.24A.25.25,0,0,0,10.5,9.12Zm15-.11a.26.26,0,0,0-.34-.11A4.44,4.44,0,0,0,23.52,11a.24.24,0,0,0,.15.32l.08,0A.23.23,0,0,0,24,11.2a4,4,0,0,1,1.38-1.85A.26.26,0,0,0,25.48,9ZM24.17,7.69a.24.24,0,0,0-.35,0,5.88,5.88,0,0,0-1.07,3.41.25.25,0,1,0,.5,0A5.43,5.43,0,0,1,24.18,8,.24.24,0,0,0,24.17,7.69Zm-2.69-.18a.26.26,0,0,0-.34-.11.25.25,0,0,0-.12.33,7,7,0,0,1,.73,3.39.25.25,0,1,0,.5,0A7.62,7.62,0,0,0,21.48,7.51Zm0,3.56A3.89,3.89,0,0,0,20.42,9a.23.23,0,0,0-.34,0,.24.24,0,0,0,0,.35A3.6,3.6,0,0,1,21,11.18a.25.25,0,0,0,.24.2h.06A.25.25,0,0,0,21.49,11.07Zm4,.55a.85.85,0,0,0-.67.33c-.13.12-.19.17-.33.17s-.2,0-.33-.17a.85.85,0,0,0-1.34,0c-.13.12-.19.17-.33.17s-.2,0-.33-.17a.85.85,0,0,0-1.34,0c-.13.12-.19.17-.33.17s-.2,0-.33-.17a.85.85,0,0,0-.67-.33.25.25,0,0,0-.25.26.25.25,0,0,0,.25.24c.14,0,.2.06.33.18a.86.86,0,0,0,1.34,0c.13-.12.19-.18.33-.18s.2.06.33.18a.86.86,0,0,0,1.34,0c.13-.12.19-.18.33-.18s.2.06.33.18a.86.86,0,0,0,1.34,0c.13-.12.19-.18.33-.18a.25.25,0,0,0,.25-.24A.25.25,0,0,0,25.5,11.62ZM15,19a.26.26,0,0,0-.34-.11A4.44,4.44,0,0,0,13,21a.24.24,0,0,0,.15.32l.08,0a.23.23,0,0,0,.23-.18,4,4,0,0,1,1.38-1.85A.26.26,0,0,0,15,19Zm-1.31-1.32a.24.24,0,0,0-.35,0,5.88,5.88,0,0,0-1.07,3.41.25.25,0,1,0,.5,0A5.43,5.43,0,0,1,13.68,18,.24.24,0,0,0,13.67,17.69ZM11,17.51a.26.26,0,0,0-.34-.11.25.25,0,0,0-.12.33,7,7,0,0,1,.73,3.39.25.25,0,1,0,.5,0A7.62,7.62,0,0,0,11,17.51Zm0,3.56A3.89,3.89,0,0,0,9.92,19a.23.23,0,0,0-.34,0,.24.24,0,0,0,0,.35,3.6,3.6,0,0,1,.93,1.88.25.25,0,0,0,.24.2h.06A.25.25,0,0,0,11,21.07Zm4,.55a.85.85,0,0,0-.67.33c-.13.12-.19.17-.33.17s-.2-.05-.33-.17a.85.85,0,0,0-1.34,0c-.13.12-.19.17-.33.17s-.2-.05-.33-.17a.85.85,0,0,0-1.34,0c-.13.12-.19.17-.33.17s-.2-.05-.33-.17A.85.85,0,0,0,9,21.62a.25.25,0,0,0-.25.26.25.25,0,0,0,.25.24c.14,0,.2.06.33.18a.86.86,0,0,0,1.34,0c.13-.12.19-.18.33-.18s.2.06.33.18a.86.86,0,0,0,1.34,0c.13-.12.19-.18.33-.18s.2.06.33.18a.86.86,0,0,0,1.34,0c.13-.12.19-.18.33-.18a.25.25,0,0,0,.25-.24A.25.25,0,0,0,15,21.62ZM28,24a.26.26,0,0,0-.34-.11A4.44,4.44,0,0,0,26,26a.24.24,0,0,0,.15.32l.08,0a.23.23,0,0,0,.23-.18,4,4,0,0,1,1.38-1.85A.26.26,0,0,0,28,24Zm-1.31-1.32a.24.24,0,0,0-.35,0,5.88,5.88,0,0,0-1.07,3.41.25.25,0,1,0,.5,0A5.43,5.43,0,0,1,26.68,23,.24.24,0,0,0,26.67,22.69ZM24,22.51a.26.26,0,0,0-.34-.11.25.25,0,0,0-.12.33,7,7,0,0,1,.73,3.39.25.25,0,1,0,.5,0A7.62,7.62,0,0,0,24,22.51Zm0,3.56A3.89,3.89,0,0,0,22.92,24a.23.23,0,0,0-.34,0,.24.24,0,0,0,0,.35,3.6,3.6,0,0,1,.93,1.88.25.25,0,0,0,.24.2h.06A.25.25,0,0,0,24,26.07Zm4,.55a.85.85,0,0,0-.67.33c-.13.12-.19.17-.33.17s-.2-.05-.33-.17a.85.85,0,0,0-1.34,0c-.13.12-.19.17-.33.17s-.2-.05-.33-.17a.85.85,0,0,0-1.34,0c-.13.12-.19.17-.33.17s-.2-.05-.33-.17a.85.85,0,0,0-.67-.33.25.25,0,0,0-.25.26.25.25,0,0,0,.25.24c.14,0,.2.06.33.18a.86.86,0,0,0,1.34,0c.13-.12.19-.18.33-.18s.2.06.33.18a.86.86,0,0,0,1.34,0c.13-.12.19-.18.33-.18s.2.06.33.18a.86.86,0,0,0,1.34,0c.13-.12.19-.18.33-.18a.25.25,0,0,0,.25-.24A.25.25,0,0,0,28,26.62ZM10.48,6.51a.26.26,0,0,0-.34-.11A4.44,4.44,0,0,0,8.52,8.54a.24.24,0,0,0,.15.32l.08,0A.23.23,0,0,0,9,8.7a4,4,0,0,1,1.38-1.85A.26.26,0,0,0,10.48,6.51ZM9.17,5.19a.24.24,0,0,0-.35,0A5.88,5.88,0,0,0,7.75,8.62a.25.25,0,1,0,.5,0,5.43,5.43,0,0,1,.93-3.08A.24.24,0,0,0,9.17,5.19ZM6.48,5a.26.26,0,0,0-.34-.11A.25.25,0,0,0,6,5.23a7,7,0,0,1,.73,3.39.25.25,0,1,0,.5,0A7.62,7.62,0,0,0,6.48,5Zm0,3.56A3.89,3.89,0,0,0,5.42,6.45a.23.23,0,0,0-.34,0,.24.24,0,0,0,0,.35A3.6,3.6,0,0,1,6,8.68a.25.25,0,0,0,.24.2h.06A.25.25,0,0,0,6.49,8.57Zm4,.55a.85.85,0,0,0-.67.33c-.13.12-.19.17-.33.17s-.2,0-.33-.17a.85.85,0,0,0-1.34,0c-.13.12-.19.17-.33.17s-.2,0-.33-.17a.85.85,0,0,0-1.34,0c-.13.12-.19.17-.33.17s-.2,0-.33-.17a.85.85,0,0,0-.67-.33.25.25,0,0,0-.25.26.25.25,0,0,0,.25.24c.14,0,.2.06.33.18a.86.86,0,0,0,1.34,0c.13-.12.19-.18.33-.18s.2.06.33.18a.86.86,0,0,0,1.34,0c.13-.12.19-.18.33-.18s.2.06.33.18a.86.86,0,0,0,1.34,0c.13-.12.19-.18.33-.18a.25.25,0,0,0,.25-.24A.25.25,0,0,0,10.5,9.12Zm15-.11a.26.26,0,0,0-.34-.11A4.44,4.44,0,0,0,23.52,11a.24.24,0,0,0,.15.32l.08,0A.23.23,0,0,0,24,11.2a4,4,0,0,1,1.38-1.85A.26.26,0,0,0,25.48,9ZM24.17,7.69a.24.24,0,0,0-.35,0,5.88,5.88,0,0,0-1.07,3.41.25.25,0,1,0,.5,0A5.43,5.43,0,0,1,24.18,8,.24.24,0,0,0,24.17,7.69Zm-2.69-.18a.26.26,0,0,0-.34-.11.25.25,0,0,0-.12.33,7,7,0,0,1,.73,3.39.25.25,0,1,0,.5,0A7.62,7.62,0,0,0,21.48,7.51Zm0,3.56A3.89,3.89,0,0,0,20.42,9a.23.23,0,0,0-.34,0,.24.24,0,0,0,0,.35A3.6,3.6,0,0,1,21,11.18a.25.25,0,0,0,.24.2h.06A.25.25,0,0,0,21.49,11.07Zm4,.55a.85.85,0,0,0-.67.33c-.13.12-.19.17-.33.17s-.2,0-.33-.17a.85.85,0,0,0-1.34,0c-.13.12-.19.17-.33.17s-.2,0-.33-.17a.85.85,0,0,0-1.34,0c-.13.12-.19.17-.33.17s-.2,0-.33-.17a.85.85,0,0,0-.67-.33.25.25,0,0,0-.25.26.25.25,0,0,0,.25.24c.14,0,.2.06.33.18a.86.86,0,0,0,1.34,0c.13-.12.19-.18.33-.18s.2.06.33.18a.86.86,0,0,0,1.34,0c.13-.12.19-.18.33-.18s.2.06.33.18a.86.86,0,0,0,1.34,0c.13-.12.19-.18.33-.18a.25.25,0,0,0,.25-.24A.25.25,0,0,0,25.5,11.62ZM15,19a.26.26,0,0,0-.34-.11A4.44,4.44,0,0,0,13,21a.24.24,0,0,0,.15.32l.08,0a.23.23,0,0,0,.23-.18,4,4,0,0,1,1.38-1.85A.26.26,0,0,0,15,19Zm-1.31-1.32a.24.24,0,0,0-.35,0,5.88,5.88,0,0,0-1.07,3.41.25.25,0,1,0,.5,0A5.43,5.43,0,0,1,13.68,18,.24.24,0,0,0,13.67,17.69ZM11,17.51a.26.26,0,0,0-.34-.11.25.25,0,0,0-.12.33,7,7,0,0,1,.73,3.39.25.25,0,1,0,.5,0A7.62,7.62,0,0,0,11,17.51Zm0,3.56A3.89,3.89,0,0,0,9.92,19a.23.23,0,0,0-.34,0,.24.24,0,0,0,0,.35,3.6,3.6,0,0,1,.93,1.88.25.25,0,0,0,.24.2h.06A.25.25,0,0,0,11,21.07Zm4,.55a.85.85,0,0,0-.67.33c-.13.12-.19.17-.33.17s-.2-.05-.33-.17a.85.85,0,0,0-1.34,0c-.13.12-.19.17-.33.17s-.2-.05-.33-.17a.85.85,0,0,0-1.34,0c-.13.12-.19.17-.33.17s-.2-.05-.33-.17A.85.85,0,0,0,9,21.62a.25.25,0,0,0-.25.26.25.25,0,0,0,.25.24c.14,0,.2.06.33.18a.86.86,0,0,0,1.34,0c.13-.12.19-.18.33-.18s.2.06.33.18a.86.86,0,0,0,1.34,0c.13-.12.19-.18.33-.18s.2.06.33.18a.86.86,0,0,0,1.34,0c.13-.12.19-.18.33-.18a.25.25,0,0,0,.25-.24A.25.25,0,0,0,15,21.62ZM28,24a.26.26,0,0,0-.34-.11A4.44,4.44,0,0,0,26,26a.24.24,0,0,0,.15.32l.08,0a.23.23,0,0,0,.23-.18,4,4,0,0,1,1.38-1.85A.26.26,0,0,0,28,24Zm-1.31-1.32a.24.24,0,0,0-.35,0,5.88,5.88,0,0,0-1.07,3.41.25.25,0,1,0,.5,0A5.43,5.43,0,0,1,26.68,23,.24.24,0,0,0,26.67,22.69ZM24,22.51a.26.26,0,0,0-.34-.11.25.25,0,0,0-.12.33,7,7,0,0,1,.73,3.39.25.25,0,1,0,.5,0A7.62,7.62,0,0,0,24,22.51Zm0,3.56A3.89,3.89,0,0,0,22.92,24a.23.23,0,0,0-.34,0,.24.24,0,0,0,0,.35,3.6,3.6,0,0,1,.93,1.88.25.25,0,0,0,.24.2h.06A.25.25,0,0,0,24,26.07Zm4,.55a.85.85,0,0,0-.67.33c-.13.12-.19.17-.33.17s-.2-.05-.33-.17a.85.85,0,0,0-1.34,0c-.13.12-.19.17-.33.17s-.2-.05-.33-.17a.85.85,0,0,0-1.34,0c-.13.12-.19.17-.33.17s-.2-.05-.33-.17a.85.85,0,0,0-.67-.33.25.25,0,0,0-.25.26.25.25,0,0,0,.25.24c.14,0,.2.06.33.18a.86.86,0,0,0,1.34,0c.13-.12.19-.18.33-.18s.2.06.33.18a.86.86,0,0,0,1.34,0c.13-.12.19-.18.33-.18s.2.06.33.18a.86.86,0,0,0,1.34,0c.13-.12.19-.18.33-.18a.25.25,0,0,0,.25-.24A.25.25,0,0,0,28,26.62ZM15,13.25H9a.25.25,0,0,1,0-.5h6a.25.25,0,0,1,0,.5Zm12,7H21a.25.25,0,0,1,0-.5h6a.25.25,0,0,1,0,.5ZM32,3.38v.5H29.38a.26.26,0,0,1-.26-.26.24.24,0,0,1,.26-.24ZM28,15.25H24a.25.25,0,0,1,0-.5h4a.25.25,0,0,1,0,.5ZM5.5,18h-4a.25.25,0,0,1,0-.5h4a.25.25,0,0,1,0,.5Zm7,9.75h-6a.25.25,0,0,1,0-.5h6a.25.25,0,0,1,0,.5ZM18.12,1.38h-4a.25.25,0,0,1-.24-.26.24.24,0,0,1,.24-.24h4a.25.25,0,0,1,.26.24A.26.26,0,0,1,18.12,1.38ZM1.62,3.62a.25.25,0,0,1-.24.26H0v-.5H1.38A.23.23,0,0,1,1.62,3.62Z"/><path id="swamp_dense-2" data-name="swamp_dense" class="cls-2" d="M10.48,38.51a.26.26,0,0,0-.34-.11,4.44,4.44,0,0,0-1.62,2.14.24.24,0,0,0,.15.32l.08,0A.23.23,0,0,0,9,40.7a4,4,0,0,1,1.38-1.85A.26.26,0,0,0,10.48,38.51ZM9.17,37.19a.24.24,0,0,0-.35,0,5.88,5.88,0,0,0-1.07,3.41.25.25,0,1,0,.5,0,5.43,5.43,0,0,1,.93-3.08A.24.24,0,0,0,9.17,37.19ZM6.48,37a.26.26,0,0,0-.34-.11.25.25,0,0,0-.12.33,7,7,0,0,1,.73,3.39.25.25,0,1,0,.5,0A7.62,7.62,0,0,0,6.48,37Zm0,3.56a3.89,3.89,0,0,0-1.07-2.12.23.23,0,0,0-.34,0,.24.24,0,0,0,0,.35A3.6,3.6,0,0,1,6,40.68a.25.25,0,0,0,.24.2h.06A.25.25,0,0,0,6.49,40.57Zm4,.55a.85.85,0,0,0-.67.33c-.13.12-.19.17-.33.17s-.2,0-.33-.17a.85.85,0,0,0-1.34,0c-.13.12-.19.17-.33.17s-.2,0-.33-.17a.85.85,0,0,0-1.34,0c-.13.12-.19.17-.33.17s-.2,0-.33-.17a.85.85,0,0,0-.67-.33.25.25,0,0,0-.25.26.25.25,0,0,0,.25.24c.14,0,.2.06.33.18a.86.86,0,0,0,1.34,0c.13-.12.19-.18.33-.18s.2.06.33.18a.86.86,0,0,0,1.34,0c.13-.12.19-.18.33-.18s.2.06.33.18a.86.86,0,0,0,1.34,0c.13-.12.19-.18.33-.18a.25.25,0,0,0,.25-.24A.25.25,0,0,0,10.5,41.12Zm15-.11a.26.26,0,0,0-.34-.11A4.44,4.44,0,0,0,23.52,43a.24.24,0,0,0,.15.32l.08,0A.23.23,0,0,0,24,43.2a4,4,0,0,1,1.38-1.85A.26.26,0,0,0,25.48,41Zm-1.31-1.32a.24.24,0,0,0-.35,0,5.88,5.88,0,0,0-1.07,3.41.25.25,0,1,0,.5,0A5.43,5.43,0,0,1,24.18,40,.24.24,0,0,0,24.17,39.69Zm-2.69-.18a.26.26,0,0,0-.34-.11.25.25,0,0,0-.12.33,7,7,0,0,1,.73,3.39.25.25,0,1,0,.5,0A7.62,7.62,0,0,0,21.48,39.51Zm0,3.56A3.89,3.89,0,0,0,20.42,41a.23.23,0,0,0-.34,0,.24.24,0,0,0,0,.35A3.6,3.6,0,0,1,21,43.18a.25.25,0,0,0,.24.2h.06A.25.25,0,0,0,21.49,43.07Zm4,.55a.85.85,0,0,0-.67.33c-.13.12-.19.17-.33.17s-.2,0-.33-.17a.85.85,0,0,0-1.34,0c-.13.12-.19.17-.33.17s-.2,0-.33-.17a.85.85,0,0,0-1.34,0c-.13.12-.19.17-.33.17s-.2,0-.33-.17a.85.85,0,0,0-.67-.33.25.25,0,0,0-.25.26.25.25,0,0,0,.25.24c.14,0,.2.06.33.18a.86.86,0,0,0,1.34,0c.13-.12.19-.18.33-.18s.2.06.33.18a.86.86,0,0,0,1.34,0c.13-.12.19-.18.33-.18s.2.06.33.18a.86.86,0,0,0,1.34,0c.13-.12.19-.18.33-.18a.25.25,0,0,0,.25-.24A.25.25,0,0,0,25.5,43.62ZM15,51a.26.26,0,0,0-.34-.11A4.44,4.44,0,0,0,13,53a.24.24,0,0,0,.15.32l.08,0a.23.23,0,0,0,.23-.18,4,4,0,0,1,1.38-1.85A.26.26,0,0,0,15,51Zm-1.31-1.32a.24.24,0,0,0-.35,0,5.88,5.88,0,0,0-1.07,3.41.25.25,0,1,0,.5,0A5.43,5.43,0,0,1,13.68,50,.24.24,0,0,0,13.67,49.69ZM11,49.51a.26.26,0,0,0-.34-.11.25.25,0,0,0-.12.33,7,7,0,0,1,.73,3.39.25.25,0,1,0,.5,0A7.62,7.62,0,0,0,11,49.51Zm0,3.56A3.89,3.89,0,0,0,9.92,51a.23.23,0,0,0-.34,0,.24.24,0,0,0,0,.35,3.6,3.6,0,0,1,.93,1.88.25.25,0,0,0,.24.2h.06A.25.25,0,0,0,11,53.07Zm4,.55a.85.85,0,0,0-.67.33c-.13.12-.19.17-.33.17s-.2,0-.33-.17a.85.85,0,0,0-1.34,0c-.13.12-.19.17-.33.17s-.2,0-.33-.17a.85.85,0,0,0-1.34,0c-.13.12-.19.17-.33.17s-.2,0-.33-.17A.85.85,0,0,0,9,53.62a.25.25,0,0,0-.25.26.25.25,0,0,0,.25.24c.14,0,.2.06.33.18a.86.86,0,0,0,1.34,0c.13-.12.19-.18.33-.18s.2.06.33.18a.86.86,0,0,0,1.34,0c.13-.12.19-.18.33-.18s.2.06.33.18a.86.86,0,0,0,1.34,0c.13-.12.19-.18.33-.18a.25.25,0,0,0,.25-.24A.25.25,0,0,0,15,53.62ZM28,56a.26.26,0,0,0-.34-.11A4.44,4.44,0,0,0,26,58a.24.24,0,0,0,.15.32l.08,0a.23.23,0,0,0,.23-.18,4,4,0,0,1,1.38-1.85A.26.26,0,0,0,28,56Zm-1.31-1.32a.24.24,0,0,0-.35,0,5.88,5.88,0,0,0-1.07,3.41.25.25,0,1,0,.5,0A5.43,5.43,0,0,1,26.68,55,.24.24,0,0,0,26.67,54.69ZM24,54.51a.26.26,0,0,0-.34-.11.25.25,0,0,0-.12.33,7,7,0,0,1,.73,3.39.25.25,0,1,0,.5,0A7.62,7.62,0,0,0,24,54.51Zm0,3.56A3.89,3.89,0,0,0,22.92,56a.23.23,0,0,0-.34,0,.24.24,0,0,0,0,.35,3.6,3.6,0,0,1,.93,1.88.25.25,0,0,0,.24.2h.06A.25.25,0,0,0,24,58.07Zm4,.55a.85.85,0,0,0-.67.33c-.13.12-.19.17-.33.17s-.2,0-.33-.17a.85.85,0,0,0-1.34,0c-.13.12-.19.17-.33.17s-.2,0-.33-.17a.85.85,0,0,0-1.34,0c-.13.12-.19.17-.33.17s-.2,0-.33-.17a.85.85,0,0,0-.67-.33.25.25,0,0,0-.25.26.25.25,0,0,0,.25.24c.14,0,.2.06.33.18a.86.86,0,0,0,1.34,0c.13-.12.19-.18.33-.18s.2.06.33.18a.86.86,0,0,0,1.34,0c.13-.12.19-.18.33-.18s.2.06.33.18a.86.86,0,0,0,1.34,0c.13-.12.19-.18.33-.18a.25.25,0,0,0,.25-.24A.25.25,0,0,0,28,58.62ZM10.48,38.51a.26.26,0,0,0-.34-.11,4.44,4.44,0,0,0-1.62,2.14.24.24,0,0,0,.15.32l.08,0A.23.23,0,0,0,9,40.7a4,4,0,0,1,1.38-1.85A.26.26,0,0,0,10.48,38.51ZM9.17,37.19a.24.24,0,0,0-.35,0,5.88,5.88,0,0,0-1.07,3.41.25.25,0,1,0,.5,0,5.43,5.43,0,0,1,.93-3.08A.24.24,0,0,0,9.17,37.19ZM6.48,37a.26.26,0,0,0-.34-.11.25.25,0,0,0-.12.33,7,7,0,0,1,.73,3.39.25.25,0,1,0,.5,0A7.62,7.62,0,0,0,6.48,37Zm0,3.56a3.89,3.89,0,0,0-1.07-2.12.23.23,0,0,0-.34,0,.24.24,0,0,0,0,.35A3.6,3.6,0,0,1,6,40.68a.25.25,0,0,0,.24.2h.06A.25.25,0,0,0,6.49,40.57Zm4,.55a.85.85,0,0,0-.67.33c-.13.12-.19.17-.33.17s-.2,0-.33-.17a.85.85,0,0,0-1.34,0c-.13.12-.19.17-.33.17s-.2,0-.33-.17a.85.85,0,0,0-1.34,0c-.13.12-.19.17-.33.17s-.2,0-.33-.17a.85.85,0,0,0-.67-.33.25.25,0,0,0-.25.26.25.25,0,0,0,.25.24c.14,0,.2.06.33.18a.86.86,0,0,0,1.34,0c.13-.12.19-.18.33-.18s.2.06.33.18a.86.86,0,0,0,1.34,0c.13-.12.19-.18.33-.18s.2.06.33.18a.86.86,0,0,0,1.34,0c.13-.12.19-.18.33-.18a.25.25,0,0,0,.25-.24A.25.25,0,0,0,10.5,41.12Zm15-.11a.26.26,0,0,0-.34-.11A4.44,4.44,0,0,0,23.52,43a.24.24,0,0,0,.15.32l.08,0A.23.23,0,0,0,24,43.2a4,4,0,0,1,1.38-1.85A.26.26,0,0,0,25.48,41Zm-1.31-1.32a.24.24,0,0,0-.35,0,5.88,5.88,0,0,0-1.07,3.41.25.25,0,1,0,.5,0A5.43,5.43,0,0,1,24.18,40,.24.24,0,0,0,24.17,39.69Zm-2.69-.18a.26.26,0,0,0-.34-.11.25.25,0,0,0-.12.33,7,7,0,0,1,.73,3.39.25.25,0,1,0,.5,0A7.62,7.62,0,0,0,21.48,39.51Zm0,3.56A3.89,3.89,0,0,0,20.42,41a.23.23,0,0,0-.34,0,.24.24,0,0,0,0,.35A3.6,3.6,0,0,1,21,43.18a.25.25,0,0,0,.24.2h.06A.25.25,0,0,0,21.49,43.07Zm4,.55a.85.85,0,0,0-.67.33c-.13.12-.19.17-.33.17s-.2,0-.33-.17a.85.85,0,0,0-1.34,0c-.13.12-.19.17-.33.17s-.2,0-.33-.17a.85.85,0,0,0-1.34,0c-.13.12-.19.17-.33.17s-.2,0-.33-.17a.85.85,0,0,0-.67-.33.25.25,0,0,0-.25.26.25.25,0,0,0,.25.24c.14,0,.2.06.33.18a.86.86,0,0,0,1.34,0c.13-.12.19-.18.33-.18s.2.06.33.18a.86.86,0,0,0,1.34,0c.13-.12.19-.18.33-.18s.2.06.33.18a.86.86,0,0,0,1.34,0c.13-.12.19-.18.33-.18a.25.25,0,0,0,.25-.24A.25.25,0,0,0,25.5,43.62ZM15,51a.26.26,0,0,0-.34-.11A4.44,4.44,0,0,0,13,53a.24.24,0,0,0,.15.32l.08,0a.23.23,0,0,0,.23-.18,4,4,0,0,1,1.38-1.85A.26.26,0,0,0,15,51Zm-1.31-1.32a.24.24,0,0,0-.35,0,5.88,5.88,0,0,0-1.07,3.41.25.25,0,1,0,.5,0A5.43,5.43,0,0,1,13.68,50,.24.24,0,0,0,13.67,49.69ZM11,49.51a.26.26,0,0,0-.34-.11.25.25,0,0,0-.12.33,7,7,0,0,1,.73,3.39.25.25,0,1,0,.5,0A7.62,7.62,0,0,0,11,49.51Zm0,3.56A3.89,3.89,0,0,0,9.92,51a.23.23,0,0,0-.34,0,.24.24,0,0,0,0,.35,3.6,3.6,0,0,1,.93,1.88.25.25,0,0,0,.24.2h.06A.25.25,0,0,0,11,53.07Zm4,.55a.85.85,0,0,0-.67.33c-.13.12-.19.17-.33.17s-.2,0-.33-.17a.85.85,0,0,0-1.34,0c-.13.12-.19.17-.33.17s-.2,0-.33-.17a.85.85,0,0,0-1.34,0c-.13.12-.19.17-.33.17s-.2,0-.33-.17A.85.85,0,0,0,9,53.62a.25.25,0,0,0-.25.26.25.25,0,0,0,.25.24c.14,0,.2.06.33.18a.86.86,0,0,0,1.34,0c.13-.12.19-.18.33-.18s.2.06.33.18a.86.86,0,0,0,1.34,0c.13-.12.19-.18.33-.18s.2.06.33.18a.86.86,0,0,0,1.34,0c.13-.12.19-.18.33-.18a.25.25,0,0,0,.25-.24A.25.25,0,0,0,15,53.62ZM28,56a.26.26,0,0,0-.34-.11A4.44,4.44,0,0,0,26,58a.24.24,0,0,0,.15.32l.08,0a.23.23,0,0,0,.23-.18,4,4,0,0,1,1.38-1.85A.26.26,0,0,0,28,56Zm-1.31-1.32a.24.24,0,0,0-.35,0,5.88,5.88,0,0,0-1.07,3.41.25.25,0,1,0,.5,0A5.43,5.43,0,0,1,26.68,55,.24.24,0,0,0,26.67,54.69ZM24,54.51a.26.26,0,0,0-.34-.11.25.25,0,0,0-.12.33,7,7,0,0,1,.73,3.39.25.25,0,1,0,.5,0A7.62,7.62,0,0,0,24,54.51Zm0,3.56A3.89,3.89,0,0,0,22.92,56a.23.23,0,0,0-.34,0,.24.24,0,0,0,0,.35,3.6,3.6,0,0,1,.93,1.88.25.25,0,0,0,.24.2h.06A.25.25,0,0,0,24,58.07Zm4,.55a.85.85,0,0,0-.67.33c-.13.12-.19.17-.33.17s-.2,0-.33-.17a.85.85,0,0,0-1.34,0c-.13.12-.19.17-.33.17s-.2,0-.33-.17a.85.85,0,0,0-1.34,0c-.13.12-.19.17-.33.17s-.2,0-.33-.17a.85.85,0,0,0-.67-.33.25.25,0,0,0-.25.26.25.25,0,0,0,.25.24c.14,0,.2.06.33.18a.86.86,0,0,0,1.34,0c.13-.12.19-.18.33-.18s.2.06.33.18a.86.86,0,0,0,1.34,0c.13-.12.19-.18.33-.18s.2.06.33.18a.86.86,0,0,0,1.34,0c.13-.12.19-.18.33-.18a.25.25,0,0,0,.25-.24A.25.25,0,0,0,28,58.62ZM15,45.25H9a.25.25,0,0,1,0-.5h6a.25.25,0,0,1,0,.5Zm12,7H21a.25.25,0,0,1,0-.5h6a.25.25,0,0,1,0,.5Zm5-16.87v.5H29.38a.26.26,0,0,1-.26-.26.24.24,0,0,1,.26-.24ZM28,47.25H24a.25.25,0,0,1,0-.5h4a.25.25,0,0,1,0,.5ZM5.5,50h-4a.25.25,0,0,1,0-.5h4a.25.25,0,0,1,0,.5Zm7,9.75h-6a.25.25,0,0,1,0-.5h6a.25.25,0,0,1,0,.5Zm5.62-26.37h-4a.25.25,0,0,1-.24-.26.24.24,0,0,1,.24-.24h4a.25.25,0,0,1,.26.24A.26.26,0,0,1,18.12,33.38ZM1.62,35.62a.25.25,0,0,1-.24.26H0v-.5H1.38A.23.23,0,0,1,1.62,35.62Zm8.86,2.89a.26.26,0,0,0-.34-.11,4.44,4.44,0,0,0-1.62,2.14.24.24,0,0,0,.15.32l.08,0A.23.23,0,0,0,9,40.7a4,4,0,0,1,1.38-1.85A.26.26,0,0,0,10.48,38.51ZM9.17,37.19a.24.24,0,0,0-.35,0,5.88,5.88,0,0,0-1.07,3.41.25.25,0,1,0,.5,0,5.43,5.43,0,0,1,.93-3.08A.24.24,0,0,0,9.17,37.19ZM6.48,37a.26.26,0,0,0-.34-.11.25.25,0,0,0-.12.33,7,7,0,0,1,.73,3.39.25.25,0,1,0,.5,0A7.62,7.62,0,0,0,6.48,37Zm0,3.56a3.89,3.89,0,0,0-1.07-2.12.23.23,0,0,0-.34,0,.24.24,0,0,0,0,.35A3.6,3.6,0,0,1,6,40.68a.25.25,0,0,0,.24.2h.06A.25.25,0,0,0,6.49,40.57Zm4,.55a.85.85,0,0,0-.67.33c-.13.12-.19.17-.33.17s-.2,0-.33-.17a.85.85,0,0,0-1.34,0c-.13.12-.19.17-.33.17s-.2,0-.33-.17a.85.85,0,0,0-1.34,0c-.13.12-.19.17-.33.17s-.2,0-.33-.17a.85.85,0,0,0-.67-.33.25.25,0,0,0-.25.26.25.25,0,0,0,.25.24c.14,0,.2.06.33.18a.86.86,0,0,0,1.34,0c.13-.12.19-.18.33-.18s.2.06.33.18a.86.86,0,0,0,1.34,0c.13-.12.19-.18.33-.18s.2.06.33.18a.86.86,0,0,0,1.34,0c.13-.12.19-.18.33-.18a.25.25,0,0,0,.25-.24A.25.25,0,0,0,10.5,41.12Zm15-.11a.26.26,0,0,0-.34-.11A4.44,4.44,0,0,0,23.52,43a.24.24,0,0,0,.15.32l.08,0A.23.23,0,0,0,24,43.2a4,4,0,0,1,1.38-1.85A.26.26,0,0,0,25.48,41Zm-1.31-1.32a.24.24,0,0,0-.35,0,5.88,5.88,0,0,0-1.07,3.41.25.25,0,1,0,.5,0A5.43,5.43,0,0,1,24.18,40,.24.24,0,0,0,24.17,39.69Zm-2.69-.18a.26.26,0,0,0-.34-.11.25.25,0,0,0-.12.33,7,7,0,0,1,.73,3.39.25.25,0,1,0,.5,0A7.62,7.62,0,0,0,21.48,39.51Zm0,3.56A3.89,3.89,0,0,0,20.42,41a.23.23,0,0,0-.34,0,.24.24,0,0,0,0,.35A3.6,3.6,0,0,1,21,43.18a.25.25,0,0,0,.24.2h.06A.25.25,0,0,0,21.49,43.07Zm4,.55a.85.85,0,0,0-.67.33c-.13.12-.19.17-.33.17s-.2,0-.33-.17a.85.85,0,0,0-1.34,0c-.13.12-.19.17-.33.17s-.2,0-.33-.17a.85.85,0,0,0-1.34,0c-.13.12-.19.17-.33.17s-.2,0-.33-.17a.85.85,0,0,0-.67-.33.25.25,0,0,0-.25.26.25.25,0,0,0,.25.24c.14,0,.2.06.33.18a.86.86,0,0,0,1.34,0c.13-.12.19-.18.33-.18s.2.06.33.18a.86.86,0,0,0,1.34,0c.13-.12.19-.18.33-.18s.2.06.33.18a.86.86,0,0,0,1.34,0c.13-.12.19-.18.33-.18a.25.25,0,0,0,.25-.24A.25.25,0,0,0,25.5,43.62ZM15,51a.26.26,0,0,0-.34-.11A4.44,4.44,0,0,0,13,53a.24.24,0,0,0,.15.32l.08,0a.23.23,0,0,0,.23-.18,4,4,0,0,1,1.38-1.85A.26.26,0,0,0,15,51Zm-1.31-1.32a.24.24,0,0,0-.35,0,5.88,5.88,0,0,0-1.07,3.41.25.25,0,1,0,.5,0A5.43,5.43,0,0,1,13.68,50,.24.24,0,0,0,13.67,49.69ZM11,49.51a.26.26,0,0,0-.34-.11.25.25,0,0,0-.12.33,7,7,0,0,1,.73,3.39.25.25,0,1,0,.5,0A7.62,7.62,0,0,0,11,49.51Zm0,3.56A3.89,3.89,0,0,0,9.92,51a.23.23,0,0,0-.34,0,.24.24,0,0,0,0,.35,3.6,3.6,0,0,1,.93,1.88.25.25,0,0,0,.24.2h.06A.25.25,0,0,0,11,53.07Zm4,.55a.85.85,0,0,0-.67.33c-.13.12-.19.17-.33.17s-.2,0-.33-.17a.85.85,0,0,0-1.34,0c-.13.12-.19.17-.33.17s-.2,0-.33-.17a.85.85,0,0,0-1.34,0c-.13.12-.19.17-.33.17s-.2,0-.33-.17A.85.85,0,0,0,9,53.62a.25.25,0,0,0-.25.26.25.25,0,0,0,.25.24c.14,0,.2.06.33.18a.86.86,0,0,0,1.34,0c.13-.12.19-.18.33-.18s.2.06.33.18a.86.86,0,0,0,1.34,0c.13-.12.19-.18.33-.18s.2.06.33.18a.86.86,0,0,0,1.34,0c.13-.12.19-.18.33-.18a.25.25,0,0,0,.25-.24A.25.25,0,0,0,15,53.62ZM28,56a.26.26,0,0,0-.34-.11A4.44,4.44,0,0,0,26,58a.24.24,0,0,0,.15.32l.08,0a.23.23,0,0,0,.23-.18,4,4,0,0,1,1.38-1.85A.26.26,0,0,0,28,56Zm-1.31-1.32a.24.24,0,0,0-.35,0,5.88,5.88,0,0,0-1.07,3.41.25.25,0,1,0,.5,0A5.43,5.43,0,0,1,26.68,55,.24.24,0,0,0,26.67,54.69ZM24,54.51a.26.26,0,0,0-.34-.11.25.25,0,0,0-.12.33,7,7,0,0,1,.73,3.39.25.25,0,1,0,.5,0A7.62,7.62,0,0,0,24,54.51Zm0,3.56A3.89,3.89,0,0,0,22.92,56a.23.23,0,0,0-.34,0,.24.24,0,0,0,0,.35,3.6,3.6,0,0,1,.93,1.88.25.25,0,0,0,.24.2h.06A.25.25,0,0,0,24,58.07Zm4,.55a.85.85,0,0,0-.67.33c-.13.12-.19.17-.33.17s-.2,0-.33-.17a.85.85,0,0,0-1.34,0c-.13.12-.19.17-.33.17s-.2,0-.33-.17a.85.85,0,0,0-1.34,0c-.13.12-.19.17-.33.17s-.2,0-.33-.17a.85.85,0,0,0-.67-.33.25.25,0,0,0-.25.26.25.25,0,0,0,.25.24c.14,0,.2.06.33.18a.86.86,0,0,0,1.34,0c.13-.12.19-.18.33-.18s.2.06.33.18a.86.86,0,0,0,1.34,0c.13-.12.19-.18.33-.18s.2.06.33.18a.86.86,0,0,0,1.34,0c.13-.12.19-.18.33-.18a.25.25,0,0,0,.25-.24A.25.25,0,0,0,28,58.62ZM10.48,38.51a.26.26,0,0,0-.34-.11,4.44,4.44,0,0,0-1.62,2.14.24.24,0,0,0,.15.32l.08,0A.23.23,0,0,0,9,40.7a4,4,0,0,1,1.38-1.85A.26.26,0,0,0,10.48,38.51ZM9.17,37.19a.24.24,0,0,0-.35,0,5.88,5.88,0,0,0-1.07,3.41.25.25,0,1,0,.5,0,5.43,5.43,0,0,1,.93-3.08A.24.24,0,0,0,9.17,37.19ZM6.48,37a.26.26,0,0,0-.34-.11.25.25,0,0,0-.12.33,7,7,0,0,1,.73,3.39.25.25,0,1,0,.5,0A7.62,7.62,0,0,0,6.48,37Zm0,3.56a3.89,3.89,0,0,0-1.07-2.12.23.23,0,0,0-.34,0,.24.24,0,0,0,0,.35A3.6,3.6,0,0,1,6,40.68a.25.25,0,0,0,.24.2h.06A.25.25,0,0,0,6.49,40.57Zm4,.55a.85.85,0,0,0-.67.33c-.13.12-.19.17-.33.17s-.2,0-.33-.17a.85.85,0,0,0-1.34,0c-.13.12-.19.17-.33.17s-.2,0-.33-.17a.85.85,0,0,0-1.34,0c-.13.12-.19.17-.33.17s-.2,0-.33-.17a.85.85,0,0,0-.67-.33.25.25,0,0,0-.25.26.25.25,0,0,0,.25.24c.14,0,.2.06.33.18a.86.86,0,0,0,1.34,0c.13-.12.19-.18.33-.18s.2.06.33.18a.86.86,0,0,0,1.34,0c.13-.12.19-.18.33-.18s.2.06.33.18a.86.86,0,0,0,1.34,0c.13-.12.19-.18.33-.18a.25.25,0,0,0,.25-.24A.25.25,0,0,0,10.5,41.12Zm15-.11a.26.26,0,0,0-.34-.11A4.44,4.44,0,0,0,23.52,43a.24.24,0,0,0,.15.32l.08,0A.23.23,0,0,0,24,43.2a4,4,0,0,1,1.38-1.85A.26.26,0,0,0,25.48,41Zm-1.31-1.32a.24.24,0,0,0-.35,0,5.88,5.88,0,0,0-1.07,3.41.25.25,0,1,0,.5,0A5.43,5.43,0,0,1,24.18,40,.24.24,0,0,0,24.17,39.69Zm-2.69-.18a.26.26,0,0,0-.34-.11.25.25,0,0,0-.12.33,7,7,0,0,1,.73,3.39.25.25,0,1,0,.5,0A7.62,7.62,0,0,0,21.48,39.51Zm0,3.56A3.89,3.89,0,0,0,20.42,41a.23.23,0,0,0-.34,0,.24.24,0,0,0,0,.35A3.6,3.6,0,0,1,21,43.18a.25.25,0,0,0,.24.2h.06A.25.25,0,0,0,21.49,43.07Zm4,.55a.85.85,0,0,0-.67.33c-.13.12-.19.17-.33.17s-.2,0-.33-.17a.85.85,0,0,0-1.34,0c-.13.12-.19.17-.33.17s-.2,0-.33-.17a.85.85,0,0,0-1.34,0c-.13.12-.19.17-.33.17s-.2,0-.33-.17a.85.85,0,0,0-.67-.33.25.25,0,0,0-.25.26.25.25,0,0,0,.25.24c.14,0,.2.06.33.18a.86.86,0,0,0,1.34,0c.13-.12.19-.18.33-.18s.2.06.33.18a.86.86,0,0,0,1.34,0c.13-.12.19-.18.33-.18s.2.06.33.18a.86.86,0,0,0,1.34,0c.13-.12.19-.18.33-.18a.25.25,0,0,0,.25-.24A.25.25,0,0,0,25.5,43.62ZM15,51a.26.26,0,0,0-.34-.11A4.44,4.44,0,0,0,13,53a.24.24,0,0,0,.15.32l.08,0a.23.23,0,0,0,.23-.18,4,4,0,0,1,1.38-1.85A.26.26,0,0,0,15,51Zm-1.31-1.32a.24.24,0,0,0-.35,0,5.88,5.88,0,0,0-1.07,3.41.25.25,0,1,0,.5,0A5.43,5.43,0,0,1,13.68,50,.24.24,0,0,0,13.67,49.69ZM11,49.51a.26.26,0,0,0-.34-.11.25.25,0,0,0-.12.33,7,7,0,0,1,.73,3.39.25.25,0,1,0,.5,0A7.62,7.62,0,0,0,11,49.51Zm0,3.56A3.89,3.89,0,0,0,9.92,51a.23.23,0,0,0-.34,0,.24.24,0,0,0,0,.35,3.6,3.6,0,0,1,.93,1.88.25.25,0,0,0,.24.2h.06A.25.25,0,0,0,11,53.07Zm4,.55a.85.85,0,0,0-.67.33c-.13.12-.19.17-.33.17s-.2,0-.33-.17a.85.85,0,0,0-1.34,0c-.13.12-.19.17-.33.17s-.2,0-.33-.17a.85.85,0,0,0-1.34,0c-.13.12-.19.17-.33.17s-.2,0-.33-.17A.85.85,0,0,0,9,53.62a.25.25,0,0,0-.25.26.25.25,0,0,0,.25.24c.14,0,.2.06.33.18a.86.86,0,0,0,1.34,0c.13-.12.19-.18.33-.18s.2.06.33.18a.86.86,0,0,0,1.34,0c.13-.12.19-.18.33-.18s.2.06.33.18a.86.86,0,0,0,1.34,0c.13-.12.19-.18.33-.18a.25.25,0,0,0,.25-.24A.25.25,0,0,0,15,53.62ZM28,56a.26.26,0,0,0-.34-.11A4.44,4.44,0,0,0,26,58a.24.24,0,0,0,.15.32l.08,0a.23.23,0,0,0,.23-.18,4,4,0,0,1,1.38-1.85A.26.26,0,0,0,28,56Zm-1.31-1.32a.24.24,0,0,0-.35,0,5.88,5.88,0,0,0-1.07,3.41.25.25,0,1,0,.5,0A5.43,5.43,0,0,1,26.68,55,.24.24,0,0,0,26.67,54.69ZM24,54.51a.26.26,0,0,0-.34-.11.25.25,0,0,0-.12.33,7,7,0,0,1,.73,3.39.25.25,0,1,0,.5,0A7.62,7.62,0,0,0,24,54.51Zm0,3.56A3.89,3.89,0,0,0,22.92,56a.23.23,0,0,0-.34,0,.24.24,0,0,0,0,.35,3.6,3.6,0,0,1,.93,1.88.25.25,0,0,0,.24.2h.06A.25.25,0,0,0,24,58.07Zm4,.55a.85.85,0,0,0-.67.33c-.13.12-.19.17-.33.17s-.2,0-.33-.17a.85.85,0,0,0-1.34,0c-.13.12-.19.17-.33.17s-.2,0-.33-.17a.85.85,0,0,0-1.34,0c-.13.12-.19.17-.33.17s-.2,0-.33-.17a.85.85,0,0,0-.67-.33.25.25,0,0,0-.25.26.25.25,0,0,0,.25.24c.14,0,.2.06.33.18a.86.86,0,0,0,1.34,0c.13-.12.19-.18.33-.18s.2.06.33.18a.86.86,0,0,0,1.34,0c.13-.12.19-.18.33-.18s.2.06.33.18a.86.86,0,0,0,1.34,0c.13-.12.19-.18.33-.18a.25.25,0,0,0,.25-.24A.25.25,0,0,0,28,58.62ZM15,45.25H9a.25.25,0,0,1,0-.5h6a.25.25,0,0,1,0,.5Zm12,7H21a.25.25,0,0,1,0-.5h6a.25.25,0,0,1,0,.5Zm5-16.87v.5H29.38a.26.26,0,0,1-.26-.26.24.24,0,0,1,.26-.24ZM28,47.25H24a.25.25,0,0,1,0-.5h4a.25.25,0,0,1,0,.5ZM5.5,50h-4a.25.25,0,0,1,0-.5h4a.25.25,0,0,1,0,.5Zm7,9.75h-6a.25.25,0,0,1,0-.5h6a.25.25,0,0,1,0,.5Zm5.62-26.37h-4a.25.25,0,0,1-.24-.26.24.24,0,0,1,.24-.24h4a.25.25,0,0,1,.26.24A.26.26,0,0,1,18.12,33.38ZM1.62,35.62a.25.25,0,0,1-.24.26H0v-.5H1.38A.23.23,0,0,1,1.62,35.62Z"/><path id="swamp_dense-3" data-name="swamp_dense" class="cls-2" d="M42.48,6.51a.26.26,0,0,0-.34-.11,4.44,4.44,0,0,0-1.62,2.14.24.24,0,0,0,.15.32l.08,0A.23.23,0,0,0,41,8.7a4,4,0,0,1,1.38-1.85A.26.26,0,0,0,42.48,6.51ZM41.17,5.19a.24.24,0,0,0-.35,0,5.88,5.88,0,0,0-1.07,3.41.25.25,0,1,0,.5,0,5.43,5.43,0,0,1,.93-3.08A.24.24,0,0,0,41.17,5.19ZM38.48,5a.26.26,0,0,0-.34-.11.25.25,0,0,0-.12.33,7,7,0,0,1,.73,3.39.25.25,0,1,0,.5,0A7.62,7.62,0,0,0,38.48,5Zm0,3.56a3.89,3.89,0,0,0-1.07-2.12.23.23,0,0,0-.34,0,.24.24,0,0,0,0,.35A3.6,3.6,0,0,1,38,8.68a.25.25,0,0,0,.24.2h.06A.25.25,0,0,0,38.49,8.57Zm4,.55a.85.85,0,0,0-.67.33c-.13.12-.19.17-.33.17s-.2,0-.33-.17a.85.85,0,0,0-1.34,0c-.13.12-.19.17-.33.17s-.2,0-.33-.17a.85.85,0,0,0-1.34,0c-.13.12-.19.17-.33.17s-.2,0-.33-.17a.85.85,0,0,0-.67-.33.25.25,0,0,0-.25.26.25.25,0,0,0,.25.24c.14,0,.2.06.33.18a.86.86,0,0,0,1.34,0c.13-.12.19-.18.33-.18s.2.06.33.18a.86.86,0,0,0,1.34,0c.13-.12.19-.18.33-.18s.2.06.33.18a.86.86,0,0,0,1.34,0c.13-.12.19-.18.33-.18a.25.25,0,0,0,.25-.24A.25.25,0,0,0,42.5,9.12Zm15-.11a.26.26,0,0,0-.34-.11A4.44,4.44,0,0,0,55.52,11a.24.24,0,0,0,.15.32l.08,0A.23.23,0,0,0,56,11.2a4,4,0,0,1,1.38-1.85A.26.26,0,0,0,57.48,9ZM56.17,7.69a.24.24,0,0,0-.35,0,5.88,5.88,0,0,0-1.07,3.41.25.25,0,1,0,.5,0A5.43,5.43,0,0,1,56.18,8,.24.24,0,0,0,56.17,7.69Zm-2.69-.18a.26.26,0,0,0-.34-.11.25.25,0,0,0-.12.33,7,7,0,0,1,.73,3.39.25.25,0,1,0,.5,0A7.62,7.62,0,0,0,53.48,7.51Zm0,3.56A3.89,3.89,0,0,0,52.42,9a.23.23,0,0,0-.34,0,.24.24,0,0,0,0,.35A3.6,3.6,0,0,1,53,11.18a.25.25,0,0,0,.24.2h.06A.25.25,0,0,0,53.49,11.07Zm4,.55a.85.85,0,0,0-.67.33c-.13.12-.19.17-.33.17s-.2,0-.33-.17a.85.85,0,0,0-1.34,0c-.13.12-.19.17-.33.17s-.2,0-.33-.17a.85.85,0,0,0-1.34,0c-.13.12-.19.17-.33.17s-.2,0-.33-.17a.85.85,0,0,0-.67-.33.25.25,0,0,0-.25.26.25.25,0,0,0,.25.24c.14,0,.2.06.33.18a.86.86,0,0,0,1.34,0c.13-.12.19-.18.33-.18s.2.06.33.18a.86.86,0,0,0,1.34,0c.13-.12.19-.18.33-.18s.2.06.33.18a.86.86,0,0,0,1.34,0c.13-.12.19-.18.33-.18a.25.25,0,0,0,.25-.24A.25.25,0,0,0,57.5,11.62ZM47,19a.26.26,0,0,0-.34-.11A4.44,4.44,0,0,0,45,21a.24.24,0,0,0,.15.32l.08,0a.23.23,0,0,0,.23-.18,4,4,0,0,1,1.38-1.85A.26.26,0,0,0,47,19Zm-1.31-1.32a.24.24,0,0,0-.35,0,5.88,5.88,0,0,0-1.07,3.41.25.25,0,1,0,.5,0A5.43,5.43,0,0,1,45.68,18,.24.24,0,0,0,45.67,17.69ZM43,17.51a.26.26,0,0,0-.34-.11.25.25,0,0,0-.12.33,7,7,0,0,1,.73,3.39.25.25,0,1,0,.5,0A7.62,7.62,0,0,0,43,17.51Zm0,3.56A3.89,3.89,0,0,0,41.92,19a.23.23,0,0,0-.34,0,.24.24,0,0,0,0,.35,3.6,3.6,0,0,1,.93,1.88.25.25,0,0,0,.24.2h.06A.25.25,0,0,0,43,21.07Zm4,.55a.85.85,0,0,0-.67.33c-.13.12-.19.17-.33.17s-.2-.05-.33-.17a.85.85,0,0,0-1.34,0c-.13.12-.19.17-.33.17s-.2-.05-.33-.17a.85.85,0,0,0-1.34,0c-.13.12-.19.17-.33.17s-.2-.05-.33-.17a.85.85,0,0,0-.67-.33.25.25,0,0,0-.25.26.25.25,0,0,0,.25.24c.14,0,.2.06.33.18a.86.86,0,0,0,1.34,0c.13-.12.19-.18.33-.18s.2.06.33.18a.86.86,0,0,0,1.34,0c.13-.12.19-.18.33-.18s.2.06.33.18a.86.86,0,0,0,1.34,0c.13-.12.19-.18.33-.18a.25.25,0,0,0,.25-.24A.25.25,0,0,0,47,21.62ZM60,24a.26.26,0,0,0-.34-.11A4.44,4.44,0,0,0,58,26a.24.24,0,0,0,.15.32l.08,0a.23.23,0,0,0,.23-.18,4,4,0,0,1,1.38-1.85A.26.26,0,0,0,60,24Zm-1.31-1.32a.24.24,0,0,0-.35,0,5.88,5.88,0,0,0-1.07,3.41.25.25,0,1,0,.5,0A5.43,5.43,0,0,1,58.68,23,.24.24,0,0,0,58.67,22.69ZM56,22.51a.26.26,0,0,0-.34-.11.25.25,0,0,0-.12.33,7,7,0,0,1,.73,3.39.25.25,0,1,0,.5,0A7.62,7.62,0,0,0,56,22.51Zm0,3.56A3.89,3.89,0,0,0,54.92,24a.23.23,0,0,0-.34,0,.24.24,0,0,0,0,.35,3.6,3.6,0,0,1,.93,1.88.25.25,0,0,0,.24.2h.06A.25.25,0,0,0,56,26.07Zm4,.55a.85.85,0,0,0-.67.33c-.13.12-.19.17-.33.17s-.2-.05-.33-.17a.85.85,0,0,0-1.34,0c-.13.12-.19.17-.33.17s-.2-.05-.33-.17a.85.85,0,0,0-1.34,0c-.13.12-.19.17-.33.17s-.2-.05-.33-.17a.85.85,0,0,0-.67-.33.25.25,0,0,0-.25.26.25.25,0,0,0,.25.24c.14,0,.2.06.33.18a.86.86,0,0,0,1.34,0c.13-.12.19-.18.33-.18s.2.06.33.18a.86.86,0,0,0,1.34,0c.13-.12.19-.18.33-.18s.2.06.33.18a.86.86,0,0,0,1.34,0c.13-.12.19-.18.33-.18a.25.25,0,0,0,.25-.24A.25.25,0,0,0,60,26.62ZM42.48,6.51a.26.26,0,0,0-.34-.11,4.44,4.44,0,0,0-1.62,2.14.24.24,0,0,0,.15.32l.08,0A.23.23,0,0,0,41,8.7a4,4,0,0,1,1.38-1.85A.26.26,0,0,0,42.48,6.51ZM41.17,5.19a.24.24,0,0,0-.35,0,5.88,5.88,0,0,0-1.07,3.41.25.25,0,1,0,.5,0,5.43,5.43,0,0,1,.93-3.08A.24.24,0,0,0,41.17,5.19ZM38.48,5a.26.26,0,0,0-.34-.11.25.25,0,0,0-.12.33,7,7,0,0,1,.73,3.39.25.25,0,1,0,.5,0A7.62,7.62,0,0,0,38.48,5Zm0,3.56a3.89,3.89,0,0,0-1.07-2.12.23.23,0,0,0-.34,0,.24.24,0,0,0,0,.35A3.6,3.6,0,0,1,38,8.68a.25.25,0,0,0,.24.2h.06A.25.25,0,0,0,38.49,8.57Zm4,.55a.85.85,0,0,0-.67.33c-.13.12-.19.17-.33.17s-.2,0-.33-.17a.85.85,0,0,0-1.34,0c-.13.12-.19.17-.33.17s-.2,0-.33-.17a.85.85,0,0,0-1.34,0c-.13.12-.19.17-.33.17s-.2,0-.33-.17a.85.85,0,0,0-.67-.33.25.25,0,0,0-.25.26.25.25,0,0,0,.25.24c.14,0,.2.06.33.18a.86.86,0,0,0,1.34,0c.13-.12.19-.18.33-.18s.2.06.33.18a.86.86,0,0,0,1.34,0c.13-.12.19-.18.33-.18s.2.06.33.18a.86.86,0,0,0,1.34,0c.13-.12.19-.18.33-.18a.25.25,0,0,0,.25-.24A.25.25,0,0,0,42.5,9.12Zm15-.11a.26.26,0,0,0-.34-.11A4.44,4.44,0,0,0,55.52,11a.24.24,0,0,0,.15.32l.08,0A.23.23,0,0,0,56,11.2a4,4,0,0,1,1.38-1.85A.26.26,0,0,0,57.48,9ZM56.17,7.69a.24.24,0,0,0-.35,0,5.88,5.88,0,0,0-1.07,3.41.25.25,0,1,0,.5,0A5.43,5.43,0,0,1,56.18,8,.24.24,0,0,0,56.17,7.69Zm-2.69-.18a.26.26,0,0,0-.34-.11.25.25,0,0,0-.12.33,7,7,0,0,1,.73,3.39.25.25,0,1,0,.5,0A7.62,7.62,0,0,0,53.48,7.51Zm0,3.56A3.89,3.89,0,0,0,52.42,9a.23.23,0,0,0-.34,0,.24.24,0,0,0,0,.35A3.6,3.6,0,0,1,53,11.18a.25.25,0,0,0,.24.2h.06A.25.25,0,0,0,53.49,11.07Zm4,.55a.85.85,0,0,0-.67.33c-.13.12-.19.17-.33.17s-.2,0-.33-.17a.85.85,0,0,0-1.34,0c-.13.12-.19.17-.33.17s-.2,0-.33-.17a.85.85,0,0,0-1.34,0c-.13.12-.19.17-.33.17s-.2,0-.33-.17a.85.85,0,0,0-.67-.33.25.25,0,0,0-.25.26.25.25,0,0,0,.25.24c.14,0,.2.06.33.18a.86.86,0,0,0,1.34,0c.13-.12.19-.18.33-.18s.2.06.33.18a.86.86,0,0,0,1.34,0c.13-.12.19-.18.33-.18s.2.06.33.18a.86.86,0,0,0,1.34,0c.13-.12.19-.18.33-.18a.25.25,0,0,0,.25-.24A.25.25,0,0,0,57.5,11.62ZM47,19a.26.26,0,0,0-.34-.11A4.44,4.44,0,0,0,45,21a.24.24,0,0,0,.15.32l.08,0a.23.23,0,0,0,.23-.18,4,4,0,0,1,1.38-1.85A.26.26,0,0,0,47,19Zm-1.31-1.32a.24.24,0,0,0-.35,0,5.88,5.88,0,0,0-1.07,3.41.25.25,0,1,0,.5,0A5.43,5.43,0,0,1,45.68,18,.24.24,0,0,0,45.67,17.69ZM43,17.51a.26.26,0,0,0-.34-.11.25.25,0,0,0-.12.33,7,7,0,0,1,.73,3.39.25.25,0,1,0,.5,0A7.62,7.62,0,0,0,43,17.51Zm0,3.56A3.89,3.89,0,0,0,41.92,19a.23.23,0,0,0-.34,0,.24.24,0,0,0,0,.35,3.6,3.6,0,0,1,.93,1.88.25.25,0,0,0,.24.2h.06A.25.25,0,0,0,43,21.07Zm4,.55a.85.85,0,0,0-.67.33c-.13.12-.19.17-.33.17s-.2-.05-.33-.17a.85.85,0,0,0-1.34,0c-.13.12-.19.17-.33.17s-.2-.05-.33-.17a.85.85,0,0,0-1.34,0c-.13.12-.19.17-.33.17s-.2-.05-.33-.17a.85.85,0,0,0-.67-.33.25.25,0,0,0-.25.26.25.25,0,0,0,.25.24c.14,0,.2.06.33.18a.86.86,0,0,0,1.34,0c.13-.12.19-.18.33-.18s.2.06.33.18a.86.86,0,0,0,1.34,0c.13-.12.19-.18.33-.18s.2.06.33.18a.86.86,0,0,0,1.34,0c.13-.12.19-.18.33-.18a.25.25,0,0,0,.25-.24A.25.25,0,0,0,47,21.62ZM60,24a.26.26,0,0,0-.34-.11A4.44,4.44,0,0,0,58,26a.24.24,0,0,0,.15.32l.08,0a.23.23,0,0,0,.23-.18,4,4,0,0,1,1.38-1.85A.26.26,0,0,0,60,24Zm-1.31-1.32a.24.24,0,0,0-.35,0,5.88,5.88,0,0,0-1.07,3.41.25.25,0,1,0,.5,0A5.43,5.43,0,0,1,58.68,23,.24.24,0,0,0,58.67,22.69ZM56,22.51a.26.26,0,0,0-.34-.11.25.25,0,0,0-.12.33,7,7,0,0,1,.73,3.39.25.25,0,1,0,.5,0A7.62,7.62,0,0,0,56,22.51Zm0,3.56A3.89,3.89,0,0,0,54.92,24a.23.23,0,0,0-.34,0,.24.24,0,0,0,0,.35,3.6,3.6,0,0,1,.93,1.88.25.25,0,0,0,.24.2h.06A.25.25,0,0,0,56,26.07Zm4,.55a.85.85,0,0,0-.67.33c-.13.12-.19.17-.33.17s-.2-.05-.33-.17a.85.85,0,0,0-1.34,0c-.13.12-.19.17-.33.17s-.2-.05-.33-.17a.85.85,0,0,0-1.34,0c-.13.12-.19.17-.33.17s-.2-.05-.33-.17a.85.85,0,0,0-.67-.33.25.25,0,0,0-.25.26.25.25,0,0,0,.25.24c.14,0,.2.06.33.18a.86.86,0,0,0,1.34,0c.13-.12.19-.18.33-.18s.2.06.33.18a.86.86,0,0,0,1.34,0c.13-.12.19-.18.33-.18s.2.06.33.18a.86.86,0,0,0,1.34,0c.13-.12.19-.18.33-.18a.25.25,0,0,0,.25-.24A.25.25,0,0,0,60,26.62ZM47,13.25H41a.25.25,0,0,1,0-.5h6a.25.25,0,0,1,0,.5Zm12,7H53a.25.25,0,0,1,0-.5h6a.25.25,0,0,1,0,.5ZM64,3.38v.5H61.38a.26.26,0,0,1-.26-.26.24.24,0,0,1,.26-.24ZM60,15.25H56a.25.25,0,0,1,0-.5h4a.25.25,0,0,1,0,.5ZM37.5,18h-4a.25.25,0,0,1,0-.5h4a.25.25,0,0,1,0,.5Zm7,9.75h-6a.25.25,0,0,1,0-.5h6a.25.25,0,0,1,0,.5ZM50.12,1.38h-4a.25.25,0,0,1-.24-.26.24.24,0,0,1,.24-.24h4a.25.25,0,0,1,.26.24A.26.26,0,0,1,50.12,1.38ZM33.62,3.62a.25.25,0,0,1-.24.26H32v-.5h1.38A.23.23,0,0,1,33.62,3.62Zm8.86,2.89a.26.26,0,0,0-.34-.11,4.44,4.44,0,0,0-1.62,2.14.24.24,0,0,0,.15.32l.08,0A.23.23,0,0,0,41,8.7a4,4,0,0,1,1.38-1.85A.26.26,0,0,0,42.48,6.51ZM41.17,5.19a.24.24,0,0,0-.35,0,5.88,5.88,0,0,0-1.07,3.41.25.25,0,1,0,.5,0,5.43,5.43,0,0,1,.93-3.08A.24.24,0,0,0,41.17,5.19ZM38.48,5a.26.26,0,0,0-.34-.11.25.25,0,0,0-.12.33,7,7,0,0,1,.73,3.39.25.25,0,1,0,.5,0A7.62,7.62,0,0,0,38.48,5Zm0,3.56a3.89,3.89,0,0,0-1.07-2.12.23.23,0,0,0-.34,0,.24.24,0,0,0,0,.35A3.6,3.6,0,0,1,38,8.68a.25.25,0,0,0,.24.2h.06A.25.25,0,0,0,38.49,8.57Zm4,.55a.85.85,0,0,0-.67.33c-.13.12-.19.17-.33.17s-.2,0-.33-.17a.85.85,0,0,0-1.34,0c-.13.12-.19.17-.33.17s-.2,0-.33-.17a.85.85,0,0,0-1.34,0c-.13.12-.19.17-.33.17s-.2,0-.33-.17a.85.85,0,0,0-.67-.33.25.25,0,0,0-.25.26.25.25,0,0,0,.25.24c.14,0,.2.06.33.18a.86.86,0,0,0,1.34,0c.13-.12.19-.18.33-.18s.2.06.33.18a.86.86,0,0,0,1.34,0c.13-.12.19-.18.33-.18s.2.06.33.18a.86.86,0,0,0,1.34,0c.13-.12.19-.18.33-.18a.25.25,0,0,0,.25-.24A.25.25,0,0,0,42.5,9.12Zm15-.11a.26.26,0,0,0-.34-.11A4.44,4.44,0,0,0,55.52,11a.24.24,0,0,0,.15.32l.08,0A.23.23,0,0,0,56,11.2a4,4,0,0,1,1.38-1.85A.26.26,0,0,0,57.48,9ZM56.17,7.69a.24.24,0,0,0-.35,0,5.88,5.88,0,0,0-1.07,3.41.25.25,0,1,0,.5,0A5.43,5.43,0,0,1,56.18,8,.24.24,0,0,0,56.17,7.69Zm-2.69-.18a.26.26,0,0,0-.34-.11.25.25,0,0,0-.12.33,7,7,0,0,1,.73,3.39.25.25,0,1,0,.5,0A7.62,7.62,0,0,0,53.48,7.51Zm0,3.56A3.89,3.89,0,0,0,52.42,9a.23.23,0,0,0-.34,0,.24.24,0,0,0,0,.35A3.6,3.6,0,0,1,53,11.18a.25.25,0,0,0,.24.2h.06A.25.25,0,0,0,53.49,11.07Zm4,.55a.85.85,0,0,0-.67.33c-.13.12-.19.17-.33.17s-.2,0-.33-.17a.85.85,0,0,0-1.34,0c-.13.12-.19.17-.33.17s-.2,0-.33-.17a.85.85,0,0,0-1.34,0c-.13.12-.19.17-.33.17s-.2,0-.33-.17a.85.85,0,0,0-.67-.33.25.25,0,0,0-.25.26.25.25,0,0,0,.25.24c.14,0,.2.06.33.18a.86.86,0,0,0,1.34,0c.13-.12.19-.18.33-.18s.2.06.33.18a.86.86,0,0,0,1.34,0c.13-.12.19-.18.33-.18s.2.06.33.18a.86.86,0,0,0,1.34,0c.13-.12.19-.18.33-.18a.25.25,0,0,0,.25-.24A.25.25,0,0,0,57.5,11.62ZM47,19a.26.26,0,0,0-.34-.11A4.44,4.44,0,0,0,45,21a.24.24,0,0,0,.15.32l.08,0a.23.23,0,0,0,.23-.18,4,4,0,0,1,1.38-1.85A.26.26,0,0,0,47,19Zm-1.31-1.32a.24.24,0,0,0-.35,0,5.88,5.88,0,0,0-1.07,3.41.25.25,0,1,0,.5,0A5.43,5.43,0,0,1,45.68,18,.24.24,0,0,0,45.67,17.69ZM43,17.51a.26.26,0,0,0-.34-.11.25.25,0,0,0-.12.33,7,7,0,0,1,.73,3.39.25.25,0,1,0,.5,0A7.62,7.62,0,0,0,43,17.51Zm0,3.56A3.89,3.89,0,0,0,41.92,19a.23.23,0,0,0-.34,0,.24.24,0,0,0,0,.35,3.6,3.6,0,0,1,.93,1.88.25.25,0,0,0,.24.2h.06A.25.25,0,0,0,43,21.07Zm4,.55a.85.85,0,0,0-.67.33c-.13.12-.19.17-.33.17s-.2-.05-.33-.17a.85.85,0,0,0-1.34,0c-.13.12-.19.17-.33.17s-.2-.05-.33-.17a.85.85,0,0,0-1.34,0c-.13.12-.19.17-.33.17s-.2-.05-.33-.17a.85.85,0,0,0-.67-.33.25.25,0,0,0-.25.26.25.25,0,0,0,.25.24c.14,0,.2.06.33.18a.86.86,0,0,0,1.34,0c.13-.12.19-.18.33-.18s.2.06.33.18a.86.86,0,0,0,1.34,0c.13-.12.19-.18.33-.18s.2.06.33.18a.86.86,0,0,0,1.34,0c.13-.12.19-.18.33-.18a.25.25,0,0,0,.25-.24A.25.25,0,0,0,47,21.62ZM60,24a.26.26,0,0,0-.34-.11A4.44,4.44,0,0,0,58,26a.24.24,0,0,0,.15.32l.08,0a.23.23,0,0,0,.23-.18,4,4,0,0,1,1.38-1.85A.26.26,0,0,0,60,24Zm-1.31-1.32a.24.24,0,0,0-.35,0,5.88,5.88,0,0,0-1.07,3.41.25.25,0,1,0,.5,0A5.43,5.43,0,0,1,58.68,23,.24.24,0,0,0,58.67,22.69ZM56,22.51a.26.26,0,0,0-.34-.11.25.25,0,0,0-.12.33,7,7,0,0,1,.73,3.39.25.25,0,1,0,.5,0A7.62,7.62,0,0,0,56,22.51Zm0,3.56A3.89,3.89,0,0,0,54.92,24a.23.23,0,0,0-.34,0,.24.24,0,0,0,0,.35,3.6,3.6,0,0,1,.93,1.88.25.25,0,0,0,.24.2h.06A.25.25,0,0,0,56,26.07Zm4,.55a.85.85,0,0,0-.67.33c-.13.12-.19.17-.33.17s-.2-.05-.33-.17a.85.85,0,0,0-1.34,0c-.13.12-.19.17-.33.17s-.2-.05-.33-.17a.85.85,0,0,0-1.34,0c-.13.12-.19.17-.33.17s-.2-.05-.33-.17a.85.85,0,0,0-.67-.33.25.25,0,0,0-.25.26.25.25,0,0,0,.25.24c.14,0,.2.06.33.18a.86.86,0,0,0,1.34,0c.13-.12.19-.18.33-.18s.2.06.33.18a.86.86,0,0,0,1.34,0c.13-.12.19-.18.33-.18s.2.06.33.18a.86.86,0,0,0,1.34,0c.13-.12.19-.18.33-.18a.25.25,0,0,0,.25-.24A.25.25,0,0,0,60,26.62ZM42.48,6.51a.26.26,0,0,0-.34-.11,4.44,4.44,0,0,0-1.62,2.14.24.24,0,0,0,.15.32l.08,0A.23.23,0,0,0,41,8.7a4,4,0,0,1,1.38-1.85A.26.26,0,0,0,42.48,6.51ZM41.17,5.19a.24.24,0,0,0-.35,0,5.88,5.88,0,0,0-1.07,3.41.25.25,0,1,0,.5,0,5.43,5.43,0,0,1,.93-3.08A.24.24,0,0,0,41.17,5.19ZM38.48,5a.26.26,0,0,0-.34-.11.25.25,0,0,0-.12.33,7,7,0,0,1,.73,3.39.25.25,0,1,0,.5,0A7.62,7.62,0,0,0,38.48,5Zm0,3.56a3.89,3.89,0,0,0-1.07-2.12.23.23,0,0,0-.34,0,.24.24,0,0,0,0,.35A3.6,3.6,0,0,1,38,8.68a.25.25,0,0,0,.24.2h.06A.25.25,0,0,0,38.49,8.57Zm4,.55a.85.85,0,0,0-.67.33c-.13.12-.19.17-.33.17s-.2,0-.33-.17a.85.85,0,0,0-1.34,0c-.13.12-.19.17-.33.17s-.2,0-.33-.17a.85.85,0,0,0-1.34,0c-.13.12-.19.17-.33.17s-.2,0-.33-.17a.85.85,0,0,0-.67-.33.25.25,0,0,0-.25.26.25.25,0,0,0,.25.24c.14,0,.2.06.33.18a.86.86,0,0,0,1.34,0c.13-.12.19-.18.33-.18s.2.06.33.18a.86.86,0,0,0,1.34,0c.13-.12.19-.18.33-.18s.2.06.33.18a.86.86,0,0,0,1.34,0c.13-.12.19-.18.33-.18a.25.25,0,0,0,.25-.24A.25.25,0,0,0,42.5,9.12Zm15-.11a.26.26,0,0,0-.34-.11A4.44,4.44,0,0,0,55.52,11a.24.24,0,0,0,.15.32l.08,0A.23.23,0,0,0,56,11.2a4,4,0,0,1,1.38-1.85A.26.26,0,0,0,57.48,9ZM56.17,7.69a.24.24,0,0,0-.35,0,5.88,5.88,0,0,0-1.07,3.41.25.25,0,1,0,.5,0A5.43,5.43,0,0,1,56.18,8,.24.24,0,0,0,56.17,7.69Zm-2.69-.18a.26.26,0,0,0-.34-.11.25.25,0,0,0-.12.33,7,7,0,0,1,.73,3.39.25.25,0,1,0,.5,0A7.62,7.62,0,0,0,53.48,7.51Zm0,3.56A3.89,3.89,0,0,0,52.42,9a.23.23,0,0,0-.34,0,.24.24,0,0,0,0,.35A3.6,3.6,0,0,1,53,11.18a.25.25,0,0,0,.24.2h.06A.25.25,0,0,0,53.49,11.07Zm4,.55a.85.85,0,0,0-.67.33c-.13.12-.19.17-.33.17s-.2,0-.33-.17a.85.85,0,0,0-1.34,0c-.13.12-.19.17-.33.17s-.2,0-.33-.17a.85.85,0,0,0-1.34,0c-.13.12-.19.17-.33.17s-.2,0-.33-.17a.85.85,0,0,0-.67-.33.25.25,0,0,0-.25.26.25.25,0,0,0,.25.24c.14,0,.2.06.33.18a.86.86,0,0,0,1.34,0c.13-.12.19-.18.33-.18s.2.06.33.18a.86.86,0,0,0,1.34,0c.13-.12.19-.18.33-.18s.2.06.33.18a.86.86,0,0,0,1.34,0c.13-.12.19-.18.33-.18a.25.25,0,0,0,.25-.24A.25.25,0,0,0,57.5,11.62ZM47,19a.26.26,0,0,0-.34-.11A4.44,4.44,0,0,0,45,21a.24.24,0,0,0,.15.32l.08,0a.23.23,0,0,0,.23-.18,4,4,0,0,1,1.38-1.85A.26.26,0,0,0,47,19Zm-1.31-1.32a.24.24,0,0,0-.35,0,5.88,5.88,0,0,0-1.07,3.41.25.25,0,1,0,.5,0A5.43,5.43,0,0,1,45.68,18,.24.24,0,0,0,45.67,17.69ZM43,17.51a.26.26,0,0,0-.34-.11.25.25,0,0,0-.12.33,7,7,0,0,1,.73,3.39.25.25,0,1,0,.5,0A7.62,7.62,0,0,0,43,17.51Zm0,3.56A3.89,3.89,0,0,0,41.92,19a.23.23,0,0,0-.34,0,.24.24,0,0,0,0,.35,3.6,3.6,0,0,1,.93,1.88.25.25,0,0,0,.24.2h.06A.25.25,0,0,0,43,21.07Zm4,.55a.85.85,0,0,0-.67.33c-.13.12-.19.17-.33.17s-.2-.05-.33-.17a.85.85,0,0,0-1.34,0c-.13.12-.19.17-.33.17s-.2-.05-.33-.17a.85.85,0,0,0-1.34,0c-.13.12-.19.17-.33.17s-.2-.05-.33-.17a.85.85,0,0,0-.67-.33.25.25,0,0,0-.25.26.25.25,0,0,0,.25.24c.14,0,.2.06.33.18a.86.86,0,0,0,1.34,0c.13-.12.19-.18.33-.18s.2.06.33.18a.86.86,0,0,0,1.34,0c.13-.12.19-.18.33-.18s.2.06.33.18a.86.86,0,0,0,1.34,0c.13-.12.19-.18.33-.18a.25.25,0,0,0,.25-.24A.25.25,0,0,0,47,21.62ZM60,24a.26.26,0,0,0-.34-.11A4.44,4.44,0,0,0,58,26a.24.24,0,0,0,.15.32l.08,0a.23.23,0,0,0,.23-.18,4,4,0,0,1,1.38-1.85A.26.26,0,0,0,60,24Zm-1.31-1.32a.24.24,0,0,0-.35,0,5.88,5.88,0,0,0-1.07,3.41.25.25,0,1,0,.5,0A5.43,5.43,0,0,1,58.68,23,.24.24,0,0,0,58.67,22.69ZM56,22.51a.26.26,0,0,0-.34-.11.25.25,0,0,0-.12.33,7,7,0,0,1,.73,3.39.25.25,0,1,0,.5,0A7.62,7.62,0,0,0,56,22.51Zm0,3.56A3.89,3.89,0,0,0,54.92,24a.23.23,0,0,0-.34,0,.24.24,0,0,0,0,.35,3.6,3.6,0,0,1,.93,1.88.25.25,0,0,0,.24.2h.06A.25.25,0,0,0,56,26.07Zm4,.55a.85.85,0,0,0-.67.33c-.13.12-.19.17-.33.17s-.2-.05-.33-.17a.85.85,0,0,0-1.34,0c-.13.12-.19.17-.33.17s-.2-.05-.33-.17a.85.85,0,0,0-1.34,0c-.13.12-.19.17-.33.17s-.2-.05-.33-.17a.85.85,0,0,0-.67-.33.25.25,0,0,0-.25.26.25.25,0,0,0,.25.24c.14,0,.2.06.33.18a.86.86,0,0,0,1.34,0c.13-.12.19-.18.33-.18s.2.06.33.18a.86.86,0,0,0,1.34,0c.13-.12.19-.18.33-.18s.2.06.33.18a.86.86,0,0,0,1.34,0c.13-.12.19-.18.33-.18a.25.25,0,0,0,.25-.24A.25.25,0,0,0,60,26.62ZM47,13.25H41a.25.25,0,0,1,0-.5h6a.25.25,0,0,1,0,.5Zm12,7H53a.25.25,0,0,1,0-.5h6a.25.25,0,0,1,0,.5ZM64,3.38v.5H61.38a.26.26,0,0,1-.26-.26.24.24,0,0,1,.26-.24ZM60,15.25H56a.25.25,0,0,1,0-.5h4a.25.25,0,0,1,0,.5ZM37.5,18h-4a.25.25,0,0,1,0-.5h4a.25.25,0,0,1,0,.5Zm7,9.75h-6a.25.25,0,0,1,0-.5h6a.25.25,0,0,1,0,.5ZM50.12,1.38h-4a.25.25,0,0,1-.24-.26.24.24,0,0,1,.24-.24h4a.25.25,0,0,1,.26.24A.26.26,0,0,1,50.12,1.38ZM33.62,3.62a.25.25,0,0,1-.24.26H32v-.5h1.38A.23.23,0,0,1,33.62,3.62Z"/><path id="swamp_dense-4" data-name="swamp_dense" class="cls-2" d="M42.48,38.51a.26.26,0,0,0-.34-.11,4.44,4.44,0,0,0-1.62,2.14.24.24,0,0,0,.15.32l.08,0A.23.23,0,0,0,41,40.7a4,4,0,0,1,1.38-1.85A.26.26,0,0,0,42.48,38.51Zm-1.31-1.32a.24.24,0,0,0-.35,0,5.88,5.88,0,0,0-1.07,3.41.25.25,0,1,0,.5,0,5.43,5.43,0,0,1,.93-3.08A.24.24,0,0,0,41.17,37.19ZM38.48,37a.26.26,0,0,0-.34-.11.25.25,0,0,0-.12.33,7,7,0,0,1,.73,3.39.25.25,0,1,0,.5,0A7.62,7.62,0,0,0,38.48,37Zm0,3.56a3.89,3.89,0,0,0-1.07-2.12.23.23,0,0,0-.34,0,.24.24,0,0,0,0,.35A3.6,3.6,0,0,1,38,40.68a.25.25,0,0,0,.24.2h.06A.25.25,0,0,0,38.49,40.57Zm4,.55a.85.85,0,0,0-.67.33c-.13.12-.19.17-.33.17s-.2,0-.33-.17a.85.85,0,0,0-1.34,0c-.13.12-.19.17-.33.17s-.2,0-.33-.17a.85.85,0,0,0-1.34,0c-.13.12-.19.17-.33.17s-.2,0-.33-.17a.85.85,0,0,0-.67-.33.25.25,0,0,0-.25.26.25.25,0,0,0,.25.24c.14,0,.2.06.33.18a.86.86,0,0,0,1.34,0c.13-.12.19-.18.33-.18s.2.06.33.18a.86.86,0,0,0,1.34,0c.13-.12.19-.18.33-.18s.2.06.33.18a.86.86,0,0,0,1.34,0c.13-.12.19-.18.33-.18a.25.25,0,0,0,.25-.24A.25.25,0,0,0,42.5,41.12Zm15-.11a.26.26,0,0,0-.34-.11A4.44,4.44,0,0,0,55.52,43a.24.24,0,0,0,.15.32l.08,0A.23.23,0,0,0,56,43.2a4,4,0,0,1,1.38-1.85A.26.26,0,0,0,57.48,41Zm-1.31-1.32a.24.24,0,0,0-.35,0,5.88,5.88,0,0,0-1.07,3.41.25.25,0,1,0,.5,0A5.43,5.43,0,0,1,56.18,40,.24.24,0,0,0,56.17,39.69Zm-2.69-.18a.26.26,0,0,0-.34-.11.25.25,0,0,0-.12.33,7,7,0,0,1,.73,3.39.25.25,0,1,0,.5,0A7.62,7.62,0,0,0,53.48,39.51Zm0,3.56A3.89,3.89,0,0,0,52.42,41a.23.23,0,0,0-.34,0,.24.24,0,0,0,0,.35A3.6,3.6,0,0,1,53,43.18a.25.25,0,0,0,.24.2h.06A.25.25,0,0,0,53.49,43.07Zm4,.55a.85.85,0,0,0-.67.33c-.13.12-.19.17-.33.17s-.2,0-.33-.17a.85.85,0,0,0-1.34,0c-.13.12-.19.17-.33.17s-.2,0-.33-.17a.85.85,0,0,0-1.34,0c-.13.12-.19.17-.33.17s-.2,0-.33-.17a.85.85,0,0,0-.67-.33.25.25,0,0,0-.25.26.25.25,0,0,0,.25.24c.14,0,.2.06.33.18a.86.86,0,0,0,1.34,0c.13-.12.19-.18.33-.18s.2.06.33.18a.86.86,0,0,0,1.34,0c.13-.12.19-.18.33-.18s.2.06.33.18a.86.86,0,0,0,1.34,0c.13-.12.19-.18.33-.18a.25.25,0,0,0,.25-.24A.25.25,0,0,0,57.5,43.62ZM47,51a.26.26,0,0,0-.34-.11A4.44,4.44,0,0,0,45,53a.24.24,0,0,0,.15.32l.08,0a.23.23,0,0,0,.23-.18,4,4,0,0,1,1.38-1.85A.26.26,0,0,0,47,51Zm-1.31-1.32a.24.24,0,0,0-.35,0,5.88,5.88,0,0,0-1.07,3.41.25.25,0,1,0,.5,0A5.43,5.43,0,0,1,45.68,50,.24.24,0,0,0,45.67,49.69ZM43,49.51a.26.26,0,0,0-.34-.11.25.25,0,0,0-.12.33,7,7,0,0,1,.73,3.39.25.25,0,1,0,.5,0A7.62,7.62,0,0,0,43,49.51Zm0,3.56A3.89,3.89,0,0,0,41.92,51a.23.23,0,0,0-.34,0,.24.24,0,0,0,0,.35,3.6,3.6,0,0,1,.93,1.88.25.25,0,0,0,.24.2h.06A.25.25,0,0,0,43,53.07Zm4,.55a.85.85,0,0,0-.67.33c-.13.12-.19.17-.33.17s-.2,0-.33-.17a.85.85,0,0,0-1.34,0c-.13.12-.19.17-.33.17s-.2,0-.33-.17a.85.85,0,0,0-1.34,0c-.13.12-.19.17-.33.17s-.2,0-.33-.17a.85.85,0,0,0-.67-.33.25.25,0,0,0-.25.26.25.25,0,0,0,.25.24c.14,0,.2.06.33.18a.86.86,0,0,0,1.34,0c.13-.12.19-.18.33-.18s.2.06.33.18a.86.86,0,0,0,1.34,0c.13-.12.19-.18.33-.18s.2.06.33.18a.86.86,0,0,0,1.34,0c.13-.12.19-.18.33-.18a.25.25,0,0,0,.25-.24A.25.25,0,0,0,47,53.62ZM60,56a.26.26,0,0,0-.34-.11A4.44,4.44,0,0,0,58,58a.24.24,0,0,0,.15.32l.08,0a.23.23,0,0,0,.23-.18,4,4,0,0,1,1.38-1.85A.26.26,0,0,0,60,56Zm-1.31-1.32a.24.24,0,0,0-.35,0,5.88,5.88,0,0,0-1.07,3.41.25.25,0,1,0,.5,0A5.43,5.43,0,0,1,58.68,55,.24.24,0,0,0,58.67,54.69ZM56,54.51a.26.26,0,0,0-.34-.11.25.25,0,0,0-.12.33,7,7,0,0,1,.73,3.39.25.25,0,1,0,.5,0A7.62,7.62,0,0,0,56,54.51Zm0,3.56A3.89,3.89,0,0,0,54.92,56a.23.23,0,0,0-.34,0,.24.24,0,0,0,0,.35,3.6,3.6,0,0,1,.93,1.88.25.25,0,0,0,.24.2h.06A.25.25,0,0,0,56,58.07Zm4,.55a.85.85,0,0,0-.67.33c-.13.12-.19.17-.33.17s-.2,0-.33-.17a.85.85,0,0,0-1.34,0c-.13.12-.19.17-.33.17s-.2,0-.33-.17a.85.85,0,0,0-1.34,0c-.13.12-.19.17-.33.17s-.2,0-.33-.17a.85.85,0,0,0-.67-.33.25.25,0,0,0-.25.26.25.25,0,0,0,.25.24c.14,0,.2.06.33.18a.86.86,0,0,0,1.34,0c.13-.12.19-.18.33-.18s.2.06.33.18a.86.86,0,0,0,1.34,0c.13-.12.19-.18.33-.18s.2.06.33.18a.86.86,0,0,0,1.34,0c.13-.12.19-.18.33-.18a.25.25,0,0,0,.25-.24A.25.25,0,0,0,60,58.62ZM42.48,38.51a.26.26,0,0,0-.34-.11,4.44,4.44,0,0,0-1.62,2.14.24.24,0,0,0,.15.32l.08,0A.23.23,0,0,0,41,40.7a4,4,0,0,1,1.38-1.85A.26.26,0,0,0,42.48,38.51Zm-1.31-1.32a.24.24,0,0,0-.35,0,5.88,5.88,0,0,0-1.07,3.41.25.25,0,1,0,.5,0,5.43,5.43,0,0,1,.93-3.08A.24.24,0,0,0,41.17,37.19ZM38.48,37a.26.26,0,0,0-.34-.11.25.25,0,0,0-.12.33,7,7,0,0,1,.73,3.39.25.25,0,1,0,.5,0A7.62,7.62,0,0,0,38.48,37Zm0,3.56a3.89,3.89,0,0,0-1.07-2.12.23.23,0,0,0-.34,0,.24.24,0,0,0,0,.35A3.6,3.6,0,0,1,38,40.68a.25.25,0,0,0,.24.2h.06A.25.25,0,0,0,38.49,40.57Zm4,.55a.85.85,0,0,0-.67.33c-.13.12-.19.17-.33.17s-.2,0-.33-.17a.85.85,0,0,0-1.34,0c-.13.12-.19.17-.33.17s-.2,0-.33-.17a.85.85,0,0,0-1.34,0c-.13.12-.19.17-.33.17s-.2,0-.33-.17a.85.85,0,0,0-.67-.33.25.25,0,0,0-.25.26.25.25,0,0,0,.25.24c.14,0,.2.06.33.18a.86.86,0,0,0,1.34,0c.13-.12.19-.18.33-.18s.2.06.33.18a.86.86,0,0,0,1.34,0c.13-.12.19-.18.33-.18s.2.06.33.18a.86.86,0,0,0,1.34,0c.13-.12.19-.18.33-.18a.25.25,0,0,0,.25-.24A.25.25,0,0,0,42.5,41.12Zm15-.11a.26.26,0,0,0-.34-.11A4.44,4.44,0,0,0,55.52,43a.24.24,0,0,0,.15.32l.08,0A.23.23,0,0,0,56,43.2a4,4,0,0,1,1.38-1.85A.26.26,0,0,0,57.48,41Zm-1.31-1.32a.24.24,0,0,0-.35,0,5.88,5.88,0,0,0-1.07,3.41.25.25,0,1,0,.5,0A5.43,5.43,0,0,1,56.18,40,.24.24,0,0,0,56.17,39.69Zm-2.69-.18a.26.26,0,0,0-.34-.11.25.25,0,0,0-.12.33,7,7,0,0,1,.73,3.39.25.25,0,1,0,.5,0A7.62,7.62,0,0,0,53.48,39.51Zm0,3.56A3.89,3.89,0,0,0,52.42,41a.23.23,0,0,0-.34,0,.24.24,0,0,0,0,.35A3.6,3.6,0,0,1,53,43.18a.25.25,0,0,0,.24.2h.06A.25.25,0,0,0,53.49,43.07Zm4,.55a.85.85,0,0,0-.67.33c-.13.12-.19.17-.33.17s-.2,0-.33-.17a.85.85,0,0,0-1.34,0c-.13.12-.19.17-.33.17s-.2,0-.33-.17a.85.85,0,0,0-1.34,0c-.13.12-.19.17-.33.17s-.2,0-.33-.17a.85.85,0,0,0-.67-.33.25.25,0,0,0-.25.26.25.25,0,0,0,.25.24c.14,0,.2.06.33.18a.86.86,0,0,0,1.34,0c.13-.12.19-.18.33-.18s.2.06.33.18a.86.86,0,0,0,1.34,0c.13-.12.19-.18.33-.18s.2.06.33.18a.86.86,0,0,0,1.34,0c.13-.12.19-.18.33-.18a.25.25,0,0,0,.25-.24A.25.25,0,0,0,57.5,43.62ZM47,51a.26.26,0,0,0-.34-.11A4.44,4.44,0,0,0,45,53a.24.24,0,0,0,.15.32l.08,0a.23.23,0,0,0,.23-.18,4,4,0,0,1,1.38-1.85A.26.26,0,0,0,47,51Zm-1.31-1.32a.24.24,0,0,0-.35,0,5.88,5.88,0,0,0-1.07,3.41.25.25,0,1,0,.5,0A5.43,5.43,0,0,1,45.68,50,.24.24,0,0,0,45.67,49.69ZM43,49.51a.26.26,0,0,0-.34-.11.25.25,0,0,0-.12.33,7,7,0,0,1,.73,3.39.25.25,0,1,0,.5,0A7.62,7.62,0,0,0,43,49.51Zm0,3.56A3.89,3.89,0,0,0,41.92,51a.23.23,0,0,0-.34,0,.24.24,0,0,0,0,.35,3.6,3.6,0,0,1,.93,1.88.25.25,0,0,0,.24.2h.06A.25.25,0,0,0,43,53.07Zm4,.55a.85.85,0,0,0-.67.33c-.13.12-.19.17-.33.17s-.2,0-.33-.17a.85.85,0,0,0-1.34,0c-.13.12-.19.17-.33.17s-.2,0-.33-.17a.85.85,0,0,0-1.34,0c-.13.12-.19.17-.33.17s-.2,0-.33-.17a.85.85,0,0,0-.67-.33.25.25,0,0,0-.25.26.25.25,0,0,0,.25.24c.14,0,.2.06.33.18a.86.86,0,0,0,1.34,0c.13-.12.19-.18.33-.18s.2.06.33.18a.86.86,0,0,0,1.34,0c.13-.12.19-.18.33-.18s.2.06.33.18a.86.86,0,0,0,1.34,0c.13-.12.19-.18.33-.18a.25.25,0,0,0,.25-.24A.25.25,0,0,0,47,53.62ZM60,56a.26.26,0,0,0-.34-.11A4.44,4.44,0,0,0,58,58a.24.24,0,0,0,.15.32l.08,0a.23.23,0,0,0,.23-.18,4,4,0,0,1,1.38-1.85A.26.26,0,0,0,60,56Zm-1.31-1.32a.24.24,0,0,0-.35,0,5.88,5.88,0,0,0-1.07,3.41.25.25,0,1,0,.5,0A5.43,5.43,0,0,1,58.68,55,.24.24,0,0,0,58.67,54.69ZM56,54.51a.26.26,0,0,0-.34-.11.25.25,0,0,0-.12.33,7,7,0,0,1,.73,3.39.25.25,0,1,0,.5,0A7.62,7.62,0,0,0,56,54.51Zm0,3.56A3.89,3.89,0,0,0,54.92,56a.23.23,0,0,0-.34,0,.24.24,0,0,0,0,.35,3.6,3.6,0,0,1,.93,1.88.25.25,0,0,0,.24.2h.06A.25.25,0,0,0,56,58.07Zm4,.55a.85.85,0,0,0-.67.33c-.13.12-.19.17-.33.17s-.2,0-.33-.17a.85.85,0,0,0-1.34,0c-.13.12-.19.17-.33.17s-.2,0-.33-.17a.85.85,0,0,0-1.34,0c-.13.12-.19.17-.33.17s-.2,0-.33-.17a.85.85,0,0,0-.67-.33.25.25,0,0,0-.25.26.25.25,0,0,0,.25.24c.14,0,.2.06.33.18a.86.86,0,0,0,1.34,0c.13-.12.19-.18.33-.18s.2.06.33.18a.86.86,0,0,0,1.34,0c.13-.12.19-.18.33-.18s.2.06.33.18a.86.86,0,0,0,1.34,0c.13-.12.19-.18.33-.18a.25.25,0,0,0,.25-.24A.25.25,0,0,0,60,58.62ZM47,45.25H41a.25.25,0,0,1,0-.5h6a.25.25,0,0,1,0,.5Zm12,7H53a.25.25,0,0,1,0-.5h6a.25.25,0,0,1,0,.5Zm5-16.87v.5H61.38a.26.26,0,0,1-.26-.26.24.24,0,0,1,.26-.24ZM60,47.25H56a.25.25,0,0,1,0-.5h4a.25.25,0,0,1,0,.5ZM37.5,50h-4a.25.25,0,0,1,0-.5h4a.25.25,0,0,1,0,.5Zm7,9.75h-6a.25.25,0,0,1,0-.5h6a.25.25,0,0,1,0,.5Zm5.62-26.37h-4a.25.25,0,0,1-.24-.26.24.24,0,0,1,.24-.24h4a.25.25,0,0,1,.26.24A.26.26,0,0,1,50.12,33.38Zm-16.5,2.24a.25.25,0,0,1-.24.26H32v-.5h1.38A.23.23,0,0,1,33.62,35.62Zm8.86,2.89a.26.26,0,0,0-.34-.11,4.44,4.44,0,0,0-1.62,2.14.24.24,0,0,0,.15.32l.08,0A.23.23,0,0,0,41,40.7a4,4,0,0,1,1.38-1.85A.26.26,0,0,0,42.48,38.51Zm-1.31-1.32a.24.24,0,0,0-.35,0,5.88,5.88,0,0,0-1.07,3.41.25.25,0,1,0,.5,0,5.43,5.43,0,0,1,.93-3.08A.24.24,0,0,0,41.17,37.19ZM38.48,37a.26.26,0,0,0-.34-.11.25.25,0,0,0-.12.33,7,7,0,0,1,.73,3.39.25.25,0,1,0,.5,0A7.62,7.62,0,0,0,38.48,37Zm0,3.56a3.89,3.89,0,0,0-1.07-2.12.23.23,0,0,0-.34,0,.24.24,0,0,0,0,.35A3.6,3.6,0,0,1,38,40.68a.25.25,0,0,0,.24.2h.06A.25.25,0,0,0,38.49,40.57Zm4,.55a.85.85,0,0,0-.67.33c-.13.12-.19.17-.33.17s-.2,0-.33-.17a.85.85,0,0,0-1.34,0c-.13.12-.19.17-.33.17s-.2,0-.33-.17a.85.85,0,0,0-1.34,0c-.13.12-.19.17-.33.17s-.2,0-.33-.17a.85.85,0,0,0-.67-.33.25.25,0,0,0-.25.26.25.25,0,0,0,.25.24c.14,0,.2.06.33.18a.86.86,0,0,0,1.34,0c.13-.12.19-.18.33-.18s.2.06.33.18a.86.86,0,0,0,1.34,0c.13-.12.19-.18.33-.18s.2.06.33.18a.86.86,0,0,0,1.34,0c.13-.12.19-.18.33-.18a.25.25,0,0,0,.25-.24A.25.25,0,0,0,42.5,41.12Zm15-.11a.26.26,0,0,0-.34-.11A4.44,4.44,0,0,0,55.52,43a.24.24,0,0,0,.15.32l.08,0A.23.23,0,0,0,56,43.2a4,4,0,0,1,1.38-1.85A.26.26,0,0,0,57.48,41Zm-1.31-1.32a.24.24,0,0,0-.35,0,5.88,5.88,0,0,0-1.07,3.41.25.25,0,1,0,.5,0A5.43,5.43,0,0,1,56.18,40,.24.24,0,0,0,56.17,39.69Zm-2.69-.18a.26.26,0,0,0-.34-.11.25.25,0,0,0-.12.33,7,7,0,0,1,.73,3.39.25.25,0,1,0,.5,0A7.62,7.62,0,0,0,53.48,39.51Zm0,3.56A3.89,3.89,0,0,0,52.42,41a.23.23,0,0,0-.34,0,.24.24,0,0,0,0,.35A3.6,3.6,0,0,1,53,43.18a.25.25,0,0,0,.24.2h.06A.25.25,0,0,0,53.49,43.07Zm4,.55a.85.85,0,0,0-.67.33c-.13.12-.19.17-.33.17s-.2,0-.33-.17a.85.85,0,0,0-1.34,0c-.13.12-.19.17-.33.17s-.2,0-.33-.17a.85.85,0,0,0-1.34,0c-.13.12-.19.17-.33.17s-.2,0-.33-.17a.85.85,0,0,0-.67-.33.25.25,0,0,0-.25.26.25.25,0,0,0,.25.24c.14,0,.2.06.33.18a.86.86,0,0,0,1.34,0c.13-.12.19-.18.33-.18s.2.06.33.18a.86.86,0,0,0,1.34,0c.13-.12.19-.18.33-.18s.2.06.33.18a.86.86,0,0,0,1.34,0c.13-.12.19-.18.33-.18a.25.25,0,0,0,.25-.24A.25.25,0,0,0,57.5,43.62ZM47,51a.26.26,0,0,0-.34-.11A4.44,4.44,0,0,0,45,53a.24.24,0,0,0,.15.32l.08,0a.23.23,0,0,0,.23-.18,4,4,0,0,1,1.38-1.85A.26.26,0,0,0,47,51Zm-1.31-1.32a.24.24,0,0,0-.35,0,5.88,5.88,0,0,0-1.07,3.41.25.25,0,1,0,.5,0A5.43,5.43,0,0,1,45.68,50,.24.24,0,0,0,45.67,49.69ZM43,49.51a.26.26,0,0,0-.34-.11.25.25,0,0,0-.12.33,7,7,0,0,1,.73,3.39.25.25,0,1,0,.5,0A7.62,7.62,0,0,0,43,49.51Zm0,3.56A3.89,3.89,0,0,0,41.92,51a.23.23,0,0,0-.34,0,.24.24,0,0,0,0,.35,3.6,3.6,0,0,1,.93,1.88.25.25,0,0,0,.24.2h.06A.25.25,0,0,0,43,53.07Zm4,.55a.85.85,0,0,0-.67.33c-.13.12-.19.17-.33.17s-.2,0-.33-.17a.85.85,0,0,0-1.34,0c-.13.12-.19.17-.33.17s-.2,0-.33-.17a.85.85,0,0,0-1.34,0c-.13.12-.19.17-.33.17s-.2,0-.33-.17a.85.85,0,0,0-.67-.33.25.25,0,0,0-.25.26.25.25,0,0,0,.25.24c.14,0,.2.06.33.18a.86.86,0,0,0,1.34,0c.13-.12.19-.18.33-.18s.2.06.33.18a.86.86,0,0,0,1.34,0c.13-.12.19-.18.33-.18s.2.06.33.18a.86.86,0,0,0,1.34,0c.13-.12.19-.18.33-.18a.25.25,0,0,0,.25-.24A.25.25,0,0,0,47,53.62ZM60,56a.26.26,0,0,0-.34-.11A4.44,4.44,0,0,0,58,58a.24.24,0,0,0,.15.32l.08,0a.23.23,0,0,0,.23-.18,4,4,0,0,1,1.38-1.85A.26.26,0,0,0,60,56Zm-1.31-1.32a.24.24,0,0,0-.35,0,5.88,5.88,0,0,0-1.07,3.41.25.25,0,1,0,.5,0A5.43,5.43,0,0,1,58.68,55,.24.24,0,0,0,58.67,54.69ZM56,54.51a.26.26,0,0,0-.34-.11.25.25,0,0,0-.12.33,7,7,0,0,1,.73,3.39.25.25,0,1,0,.5,0A7.62,7.62,0,0,0,56,54.51Zm0,3.56A3.89,3.89,0,0,0,54.92,56a.23.23,0,0,0-.34,0,.24.24,0,0,0,0,.35,3.6,3.6,0,0,1,.93,1.88.25.25,0,0,0,.24.2h.06A.25.25,0,0,0,56,58.07Zm4,.55a.85.85,0,0,0-.67.33c-.13.12-.19.17-.33.17s-.2,0-.33-.17a.85.85,0,0,0-1.34,0c-.13.12-.19.17-.33.17s-.2,0-.33-.17a.85.85,0,0,0-1.34,0c-.13.12-.19.17-.33.17s-.2,0-.33-.17a.85.85,0,0,0-.67-.33.25.25,0,0,0-.25.26.25.25,0,0,0,.25.24c.14,0,.2.06.33.18a.86.86,0,0,0,1.34,0c.13-.12.19-.18.33-.18s.2.06.33.18a.86.86,0,0,0,1.34,0c.13-.12.19-.18.33-.18s.2.06.33.18a.86.86,0,0,0,1.34,0c.13-.12.19-.18.33-.18a.25.25,0,0,0,.25-.24A.25.25,0,0,0,60,58.62ZM42.48,38.51a.26.26,0,0,0-.34-.11,4.44,4.44,0,0,0-1.62,2.14.24.24,0,0,0,.15.32l.08,0A.23.23,0,0,0,41,40.7a4,4,0,0,1,1.38-1.85A.26.26,0,0,0,42.48,38.51Zm-1.31-1.32a.24.24,0,0,0-.35,0,5.88,5.88,0,0,0-1.07,3.41.25.25,0,1,0,.5,0,5.43,5.43,0,0,1,.93-3.08A.24.24,0,0,0,41.17,37.19ZM38.48,37a.26.26,0,0,0-.34-.11.25.25,0,0,0-.12.33,7,7,0,0,1,.73,3.39.25.25,0,1,0,.5,0A7.62,7.62,0,0,0,38.48,37Zm0,3.56a3.89,3.89,0,0,0-1.07-2.12.23.23,0,0,0-.34,0,.24.24,0,0,0,0,.35A3.6,3.6,0,0,1,38,40.68a.25.25,0,0,0,.24.2h.06A.25.25,0,0,0,38.49,40.57Zm4,.55a.85.85,0,0,0-.67.33c-.13.12-.19.17-.33.17s-.2,0-.33-.17a.85.85,0,0,0-1.34,0c-.13.12-.19.17-.33.17s-.2,0-.33-.17a.85.85,0,0,0-1.34,0c-.13.12-.19.17-.33.17s-.2,0-.33-.17a.85.85,0,0,0-.67-.33.25.25,0,0,0-.25.26.25.25,0,0,0,.25.24c.14,0,.2.06.33.18a.86.86,0,0,0,1.34,0c.13-.12.19-.18.33-.18s.2.06.33.18a.86.86,0,0,0,1.34,0c.13-.12.19-.18.33-.18s.2.06.33.18a.86.86,0,0,0,1.34,0c.13-.12.19-.18.33-.18a.25.25,0,0,0,.25-.24A.25.25,0,0,0,42.5,41.12Zm15-.11a.26.26,0,0,0-.34-.11A4.44,4.44,0,0,0,55.52,43a.24.24,0,0,0,.15.32l.08,0A.23.23,0,0,0,56,43.2a4,4,0,0,1,1.38-1.85A.26.26,0,0,0,57.48,41Zm-1.31-1.32a.24.24,0,0,0-.35,0,5.88,5.88,0,0,0-1.07,3.41.25.25,0,1,0,.5,0A5.43,5.43,0,0,1,56.18,40,.24.24,0,0,0,56.17,39.69Zm-2.69-.18a.26.26,0,0,0-.34-.11.25.25,0,0,0-.12.33,7,7,0,0,1,.73,3.39.25.25,0,1,0,.5,0A7.62,7.62,0,0,0,53.48,39.51Zm0,3.56A3.89,3.89,0,0,0,52.42,41a.23.23,0,0,0-.34,0,.24.24,0,0,0,0,.35A3.6,3.6,0,0,1,53,43.18a.25.25,0,0,0,.24.2h.06A.25.25,0,0,0,53.49,43.07Zm4,.55a.85.85,0,0,0-.67.33c-.13.12-.19.17-.33.17s-.2,0-.33-.17a.85.85,0,0,0-1.34,0c-.13.12-.19.17-.33.17s-.2,0-.33-.17a.85.85,0,0,0-1.34,0c-.13.12-.19.17-.33.17s-.2,0-.33-.17a.85.85,0,0,0-.67-.33.25.25,0,0,0-.25.26.25.25,0,0,0,.25.24c.14,0,.2.06.33.18a.86.86,0,0,0,1.34,0c.13-.12.19-.18.33-.18s.2.06.33.18a.86.86,0,0,0,1.34,0c.13-.12.19-.18.33-.18s.2.06.33.18a.86.86,0,0,0,1.34,0c.13-.12.19-.18.33-.18a.25.25,0,0,0,.25-.24A.25.25,0,0,0,57.5,43.62ZM47,51a.26.26,0,0,0-.34-.11A4.44,4.44,0,0,0,45,53a.24.24,0,0,0,.15.32l.08,0a.23.23,0,0,0,.23-.18,4,4,0,0,1,1.38-1.85A.26.26,0,0,0,47,51Zm-1.31-1.32a.24.24,0,0,0-.35,0,5.88,5.88,0,0,0-1.07,3.41.25.25,0,1,0,.5,0A5.43,5.43,0,0,1,45.68,50,.24.24,0,0,0,45.67,49.69ZM43,49.51a.26.26,0,0,0-.34-.11.25.25,0,0,0-.12.33,7,7,0,0,1,.73,3.39.25.25,0,1,0,.5,0A7.62,7.62,0,0,0,43,49.51Zm0,3.56A3.89,3.89,0,0,0,41.92,51a.23.23,0,0,0-.34,0,.24.24,0,0,0,0,.35,3.6,3.6,0,0,1,.93,1.88.25.25,0,0,0,.24.2h.06A.25.25,0,0,0,43,53.07Zm4,.55a.85.85,0,0,0-.67.33c-.13.12-.19.17-.33.17s-.2,0-.33-.17a.85.85,0,0,0-1.34,0c-.13.12-.19.17-.33.17s-.2,0-.33-.17a.85.85,0,0,0-1.34,0c-.13.12-.19.17-.33.17s-.2,0-.33-.17a.85.85,0,0,0-.67-.33.25.25,0,0,0-.25.26.25.25,0,0,0,.25.24c.14,0,.2.06.33.18a.86.86,0,0,0,1.34,0c.13-.12.19-.18.33-.18s.2.06.33.18a.86.86,0,0,0,1.34,0c.13-.12.19-.18.33-.18s.2.06.33.18a.86.86,0,0,0,1.34,0c.13-.12.19-.18.33-.18a.25.25,0,0,0,.25-.24A.25.25,0,0,0,47,53.62ZM60,56a.26.26,0,0,0-.34-.11A4.44,4.44,0,0,0,58,58a.24.24,0,0,0,.15.32l.08,0a.23.23,0,0,0,.23-.18,4,4,0,0,1,1.38-1.85A.26.26,0,0,0,60,56Zm-1.31-1.32a.24.24,0,0,0-.35,0,5.88,5.88,0,0,0-1.07,3.41.25.25,0,1,0,.5,0A5.43,5.43,0,0,1,58.68,55,.24.24,0,0,0,58.67,54.69ZM56,54.51a.26.26,0,0,0-.34-.11.25.25,0,0,0-.12.33,7,7,0,0,1,.73,3.39.25.25,0,1,0,.5,0A7.62,7.62,0,0,0,56,54.51Zm0,3.56A3.89,3.89,0,0,0,54.92,56a.23.23,0,0,0-.34,0,.24.24,0,0,0,0,.35,3.6,3.6,0,0,1,.93,1.88.25.25,0,0,0,.24.2h.06A.25.25,0,0,0,56,58.07Zm4,.55a.85.85,0,0,0-.67.33c-.13.12-.19.17-.33.17s-.2,0-.33-.17a.85.85,0,0,0-1.34,0c-.13.12-.19.17-.33.17s-.2,0-.33-.17a.85.85,0,0,0-1.34,0c-.13.12-.19.17-.33.17s-.2,0-.33-.17a.85.85,0,0,0-.67-.33.25.25,0,0,0-.25.26.25.25,0,0,0,.25.24c.14,0,.2.06.33.18a.86.86,0,0,0,1.34,0c.13-.12.19-.18.33-.18s.2.06.33.18a.86.86,0,0,0,1.34,0c.13-.12.19-.18.33-.18s.2.06.33.18a.86.86,0,0,0,1.34,0c.13-.12.19-.18.33-.18a.25.25,0,0,0,.25-.24A.25.25,0,0,0,60,58.62ZM47,45.25H41a.25.25,0,0,1,0-.5h6a.25.25,0,0,1,0,.5Zm12,7H53a.25.25,0,0,1,0-.5h6a.25.25,0,0,1,0,.5Zm5-16.87v.5H61.38a.26.26,0,0,1-.26-.26.24.24,0,0,1,.26-.24ZM60,47.25H56a.25.25,0,0,1,0-.5h4a.25.25,0,0,1,0,.5ZM37.5,50h-4a.25.25,0,0,1,0-.5h4a.25.25,0,0,1,0,.5Zm7,9.75h-6a.25.25,0,0,1,0-.5h6a.25.25,0,0,1,0,.5Zm5.62-26.37h-4a.25.25,0,0,1-.24-.26.24.24,0,0,1,.24-.24h4a.25.25,0,0,1,.26.24A.26.26,0,0,1,50.12,33.38Zm-16.5,2.24a.25.25,0,0,1-.24.26H32v-.5h1.38A.23.23,0,0,1,33.62,35.62Z"/></g></svg>