<svg id="Sprites" xmlns="http://www.w3.org/2000/svg" viewBox="0 0 64 64"><defs><style>.cls-1{fill:none;}.cls-2{fill:#0984ba;}</style></defs><g id="swamp_poly_sparse_half"><rect id="bbox_64" class="cls-1" width="64" height="64"/><path id="swamp_sparse" class="cls-2" d="M8.75,8.88l-.08,0a.25.25,0,0,1-.16-.31A4.45,4.45,0,0,1,10.14,6.4a.25.25,0,0,1,.33.11.24.24,0,0,1-.11.34A4,4,0,0,0,9,8.7.26.26,0,0,1,8.75,8.88Zm-.5-.25a5.36,5.36,0,0,1,.94-3.09.25.25,0,0,0,0-.35.26.26,0,0,0-.36,0A6,6,0,0,0,7.75,8.63a.25.25,0,1,0,.5,0Zm-1,0A7.43,7.43,0,0,0,6.47,5a.25.25,0,0,0-.33-.11A.24.24,0,0,0,6,5.24a7.07,7.07,0,0,1,.72,3.39.25.25,0,0,0,.5,0Zm-.94.24a.25.25,0,0,0,.18-.31A4,4,0,0,0,5.43,6.45a.25.25,0,0,0-.36,0,.26.26,0,0,0,0,.35A3.53,3.53,0,0,1,6,8.69a.26.26,0,0,0,.24.19Zm3.87.93c.12-.12.18-.17.32-.17a.25.25,0,0,0,.25-.25.25.25,0,0,0-.25-.25.9.9,0,0,0-.68.32c-.12.12-.18.18-.32.18s-.2-.06-.32-.18a.88.88,0,0,0-1.36,0c-.12.12-.18.18-.32.18s-.2-.06-.32-.18a.88.88,0,0,0-1.36,0c-.12.12-.18.18-.32.18s-.2-.06-.32-.18a.9.9,0,0,0-.68-.32.25.25,0,0,0-.25.25.25.25,0,0,0,.25.25c.14,0,.2,0,.32.17a.87.87,0,0,0,1.36,0c.12-.12.18-.17.32-.17s.2,0,.32.17a.87.87,0,0,0,1.36,0c.12-.12.18-.17.32-.17s.2,0,.32.17a.87.87,0,0,0,1.36,0Zm13.57,1.58-.08,0a.25.25,0,0,1-.16-.31A4.45,4.45,0,0,1,25.14,8.9a.25.25,0,0,1,.33.11.24.24,0,0,1-.11.34A4,4,0,0,0,24,11.2.26.26,0,0,1,23.75,11.38Zm-.5-.25A5.36,5.36,0,0,1,24.19,8a.25.25,0,0,0,0-.35.26.26,0,0,0-.36,0,6,6,0,0,0-1.06,3.42.25.25,0,1,0,.5,0Zm-1,0a7.43,7.43,0,0,0-.78-3.62.25.25,0,0,0-.33-.11.24.24,0,0,0-.11.34,7.07,7.07,0,0,1,.72,3.39.25.25,0,1,0,.5,0Zm-.94.24a.25.25,0,0,0,.18-.31A4,4,0,0,0,20.43,9a.25.25,0,0,0-.36,0,.26.26,0,0,0,0,.35A3.53,3.53,0,0,1,21,11.19a.26.26,0,0,0,.24.19Zm3.87.93c.12-.12.18-.17.32-.17a.25.25,0,0,0,.25-.25.25.25,0,0,0-.25-.25.9.9,0,0,0-.68.32c-.12.12-.18.18-.32.18s-.2-.06-.32-.18a.88.88,0,0,0-1.36,0c-.12.12-.18.18-.32.18s-.2-.06-.32-.18a.88.88,0,0,0-1.36,0c-.12.12-.18.18-.32.18s-.2-.06-.32-.18a.9.9,0,0,0-.68-.32.25.25,0,0,0-.25.25.25.25,0,0,0,.25.25c.14,0,.2,0,.32.17a.87.87,0,0,0,1.36,0c.12-.12.18-.17.32-.17s.2,0,.32.17a.87.87,0,0,0,1.36,0c.12-.12.18-.17.32-.17s.2,0,.32.17a.87.87,0,0,0,1.36,0ZM13.25,21.38l-.08,0a.25.25,0,0,1-.16-.31,4.45,4.45,0,0,1,1.63-2.15A.25.25,0,0,1,15,19a.24.24,0,0,1-.11.34,4,4,0,0,0-1.37,1.85A.26.26,0,0,1,13.25,21.38Zm-.5-.25A5.36,5.36,0,0,1,13.69,18a.25.25,0,0,0,0-.35.26.26,0,0,0-.36,0,6,6,0,0,0-1.06,3.42.25.25,0,0,0,.5,0Zm-1,0A7.43,7.43,0,0,0,11,17.51a.25.25,0,0,0-.33-.11.24.24,0,0,0-.11.34,7.07,7.07,0,0,1,.72,3.39.25.25,0,0,0,.5,0Zm-.94.24a.25.25,0,0,0,.18-.31A4,4,0,0,0,9.93,19a.25.25,0,0,0-.36,0,.26.26,0,0,0,0,.35,3.53,3.53,0,0,1,.94,1.89.26.26,0,0,0,.24.19Zm3.87.93c.12-.12.18-.17.32-.17a.25.25,0,0,0,.25-.25.25.25,0,0,0-.25-.25.9.9,0,0,0-.68.32c-.12.12-.18.18-.32.18s-.2-.06-.32-.18a.88.88,0,0,0-1.36,0c-.12.12-.18.18-.32.18s-.2-.06-.32-.18a.88.88,0,0,0-1.36,0c-.12.12-.18.18-.32.18s-.2-.06-.32-.18A.9.9,0,0,0,9,21.63a.25.25,0,0,0-.25.25.25.25,0,0,0,.25.25c.14,0,.2.05.32.17a.87.87,0,0,0,1.36,0c.12-.12.18-.17.32-.17s.2.05.32.17a.87.87,0,0,0,1.36,0c.12-.12.18-.17.32-.17s.2.05.32.17a.87.87,0,0,0,1.36,0Zm11.57,4.08-.08,0a.25.25,0,0,1-.16-.31,4.45,4.45,0,0,1,1.63-2.15A.25.25,0,0,1,28,24a.24.24,0,0,1-.11.34,4,4,0,0,0-1.37,1.85A.26.26,0,0,1,26.25,26.38Zm-.5-.25A5.36,5.36,0,0,1,26.69,23a.25.25,0,0,0,0-.35.26.26,0,0,0-.36,0,6,6,0,0,0-1.06,3.42.25.25,0,0,0,.5,0Zm-1,0A7.43,7.43,0,0,0,24,22.51a.25.25,0,0,0-.33-.11.24.24,0,0,0-.11.34,7.07,7.07,0,0,1,.72,3.39.25.25,0,0,0,.5,0Zm-.94.24a.25.25,0,0,0,.18-.31A4,4,0,0,0,22.93,24a.25.25,0,0,0-.36,0,.26.26,0,0,0,0,.35,3.53,3.53,0,0,1,.94,1.89.26.26,0,0,0,.24.19Zm3.87.93c.12-.12.18-.17.32-.17a.25.25,0,0,0,.25-.25.25.25,0,0,0-.25-.25.9.9,0,0,0-.68.32c-.12.12-.18.18-.32.18s-.2-.06-.32-.18a.88.88,0,0,0-1.36,0c-.12.12-.18.18-.32.18s-.2-.06-.32-.18a.88.88,0,0,0-1.36,0c-.12.12-.18.18-.32.18s-.2-.06-.32-.18a.9.9,0,0,0-.68-.32.25.25,0,0,0-.25.25.25.25,0,0,0,.25.25c.14,0,.2.05.32.17a.87.87,0,0,0,1.36,0c.12-.12.18-.17.32-.17s.2.05.32.17a.87.87,0,0,0,1.36,0c.12-.12.18-.17.32-.17s.2.05.32.17a.87.87,0,0,0,1.36,0Z"/><path id="swamp_sparse-2" data-name="swamp_sparse" class="cls-2" d="M8.75,40.88l-.08,0a.25.25,0,0,1-.16-.31,4.45,4.45,0,0,1,1.63-2.15.25.25,0,0,1,.33.11.24.24,0,0,1-.11.34A4,4,0,0,0,9,40.7.26.26,0,0,1,8.75,40.88Zm-.5-.25a5.36,5.36,0,0,1,.94-3.09.25.25,0,0,0,0-.35.26.26,0,0,0-.36,0,6,6,0,0,0-1.06,3.42.25.25,0,0,0,.5,0Zm-1,0A7.43,7.43,0,0,0,6.47,37a.25.25,0,0,0-.33-.11.24.24,0,0,0-.11.34,7.07,7.07,0,0,1,.72,3.39.25.25,0,0,0,.5,0Zm-.94.24a.25.25,0,0,0,.18-.31,4,4,0,0,0-1.06-2.11.25.25,0,0,0-.36,0,.26.26,0,0,0,0,.35A3.53,3.53,0,0,1,6,40.69a.26.26,0,0,0,.24.19Zm3.87.93c.12-.12.18-.17.32-.17a.25.25,0,0,0,.25-.25.25.25,0,0,0-.25-.25.9.9,0,0,0-.68.32c-.12.12-.18.18-.32.18s-.2-.06-.32-.18a.88.88,0,0,0-1.36,0c-.12.12-.18.18-.32.18s-.2-.06-.32-.18a.88.88,0,0,0-1.36,0c-.12.12-.18.18-.32.18s-.2-.06-.32-.18a.9.9,0,0,0-.68-.32.25.25,0,0,0-.25.25.25.25,0,0,0,.25.25c.14,0,.2,0,.32.17a.87.87,0,0,0,1.36,0c.12-.12.18-.17.32-.17s.2,0,.32.17a.87.87,0,0,0,1.36,0c.12-.12.18-.17.32-.17s.2,0,.32.17a.87.87,0,0,0,1.36,0Zm13.57,1.58-.08,0a.25.25,0,0,1-.16-.31,4.45,4.45,0,0,1,1.63-2.15.25.25,0,0,1,.33.11.24.24,0,0,1-.11.34A4,4,0,0,0,24,43.2.26.26,0,0,1,23.75,43.38Zm-.5-.25A5.36,5.36,0,0,1,24.19,40a.25.25,0,0,0,0-.35.26.26,0,0,0-.36,0,6,6,0,0,0-1.06,3.42.25.25,0,0,0,.5,0Zm-1,0a7.43,7.43,0,0,0-.78-3.62.25.25,0,0,0-.33-.11.24.24,0,0,0-.11.34,7.07,7.07,0,0,1,.72,3.39.25.25,0,0,0,.5,0Zm-.94.24a.25.25,0,0,0,.18-.31A4,4,0,0,0,20.43,41a.25.25,0,0,0-.36,0,.26.26,0,0,0,0,.35A3.53,3.53,0,0,1,21,43.19a.26.26,0,0,0,.24.19Zm3.87.93c.12-.12.18-.17.32-.17a.25.25,0,0,0,.25-.25.25.25,0,0,0-.25-.25.9.9,0,0,0-.68.32c-.12.12-.18.18-.32.18s-.2-.06-.32-.18a.88.88,0,0,0-1.36,0c-.12.12-.18.18-.32.18s-.2-.06-.32-.18a.88.88,0,0,0-1.36,0c-.12.12-.18.18-.32.18s-.2-.06-.32-.18a.9.9,0,0,0-.68-.32.25.25,0,0,0-.25.25.25.25,0,0,0,.25.25c.14,0,.2,0,.32.17a.87.87,0,0,0,1.36,0c.12-.12.18-.17.32-.17s.2,0,.32.17a.87.87,0,0,0,1.36,0c.12-.12.18-.17.32-.17s.2,0,.32.17a.87.87,0,0,0,1.36,0ZM13.25,53.38l-.08,0a.25.25,0,0,1-.16-.31,4.45,4.45,0,0,1,1.63-2.15A.25.25,0,0,1,15,51a.24.24,0,0,1-.11.34,4,4,0,0,0-1.37,1.85A.26.26,0,0,1,13.25,53.38Zm-.5-.25A5.36,5.36,0,0,1,13.69,50a.25.25,0,0,0,0-.35.26.26,0,0,0-.36,0,6,6,0,0,0-1.06,3.42.25.25,0,0,0,.5,0Zm-1,0A7.43,7.43,0,0,0,11,49.51a.25.25,0,0,0-.33-.11.24.24,0,0,0-.11.34,7.07,7.07,0,0,1,.72,3.39.25.25,0,0,0,.5,0Zm-.94.24a.25.25,0,0,0,.18-.31A4,4,0,0,0,9.93,51a.25.25,0,0,0-.36,0,.26.26,0,0,0,0,.35,3.53,3.53,0,0,1,.94,1.89.26.26,0,0,0,.24.19Zm3.87.93c.12-.12.18-.17.32-.17a.25.25,0,0,0,.25-.25.25.25,0,0,0-.25-.25.9.9,0,0,0-.68.32c-.12.12-.18.18-.32.18s-.2-.06-.32-.18a.88.88,0,0,0-1.36,0c-.12.12-.18.18-.32.18s-.2-.06-.32-.18a.88.88,0,0,0-1.36,0c-.12.12-.18.18-.32.18s-.2-.06-.32-.18A.9.9,0,0,0,9,53.63a.25.25,0,0,0-.25.25.25.25,0,0,0,.25.25c.14,0,.2,0,.32.17a.87.87,0,0,0,1.36,0c.12-.12.18-.17.32-.17s.2,0,.32.17a.87.87,0,0,0,1.36,0c.12-.12.18-.17.32-.17s.2,0,.32.17a.87.87,0,0,0,1.36,0Zm11.57,4.08-.08,0a.25.25,0,0,1-.16-.31,4.45,4.45,0,0,1,1.63-2.15A.25.25,0,0,1,28,56a.24.24,0,0,1-.11.34,4,4,0,0,0-1.37,1.85A.26.26,0,0,1,26.25,58.38Zm-.5-.25A5.36,5.36,0,0,1,26.69,55a.25.25,0,0,0,0-.35.26.26,0,0,0-.36,0,6,6,0,0,0-1.06,3.42.25.25,0,0,0,.5,0Zm-1,0A7.43,7.43,0,0,0,24,54.51a.25.25,0,0,0-.33-.11.24.24,0,0,0-.11.34,7.07,7.07,0,0,1,.72,3.39.25.25,0,0,0,.5,0Zm-.94.24a.25.25,0,0,0,.18-.31A4,4,0,0,0,22.93,56a.25.25,0,0,0-.36,0,.26.26,0,0,0,0,.35,3.53,3.53,0,0,1,.94,1.89.26.26,0,0,0,.24.19Zm3.87.93c.12-.12.18-.17.32-.17a.25.25,0,0,0,.25-.25.25.25,0,0,0-.25-.25.9.9,0,0,0-.68.32c-.12.12-.18.18-.32.18s-.2-.06-.32-.18a.88.88,0,0,0-1.36,0c-.12.12-.18.18-.32.18s-.2-.06-.32-.18a.88.88,0,0,0-1.36,0c-.12.12-.18.18-.32.18s-.2-.06-.32-.18a.9.9,0,0,0-.68-.32.25.25,0,0,0-.25.25.25.25,0,0,0,.25.25c.14,0,.2,0,.32.17a.87.87,0,0,0,1.36,0c.12-.12.18-.17.32-.17s.2,0,.32.17a.87.87,0,0,0,1.36,0c.12-.12.18-.17.32-.17s.2,0,.32.17a.87.87,0,0,0,1.36,0Z"/><path id="swamp_sparse-3" data-name="swamp_sparse" class="cls-2" d="M40.75,8.88l-.08,0a.25.25,0,0,1-.16-.31A4.45,4.45,0,0,1,42.14,6.4a.25.25,0,0,1,.33.11.24.24,0,0,1-.11.34A4,4,0,0,0,41,8.7.26.26,0,0,1,40.75,8.88Zm-.5-.25a5.36,5.36,0,0,1,.94-3.09.25.25,0,0,0,0-.35.26.26,0,0,0-.36,0,6,6,0,0,0-1.06,3.42.25.25,0,1,0,.5,0Zm-1,0A7.43,7.43,0,0,0,38.47,5a.25.25,0,0,0-.33-.11.24.24,0,0,0-.11.34,7.07,7.07,0,0,1,.72,3.39.25.25,0,1,0,.5,0Zm-.94.24a.25.25,0,0,0,.18-.31,4,4,0,0,0-1.06-2.11.25.25,0,0,0-.36,0,.26.26,0,0,0,0,.35A3.53,3.53,0,0,1,38,8.69a.26.26,0,0,0,.24.19Zm3.87.93c.12-.12.18-.17.32-.17a.25.25,0,0,0,.25-.25.25.25,0,0,0-.25-.25.9.9,0,0,0-.68.32c-.12.12-.18.18-.32.18s-.2-.06-.32-.18a.88.88,0,0,0-1.36,0c-.12.12-.18.18-.32.18s-.2-.06-.32-.18a.88.88,0,0,0-1.36,0c-.12.12-.18.18-.32.18s-.2-.06-.32-.18a.9.9,0,0,0-.68-.32.25.25,0,0,0-.25.25.25.25,0,0,0,.25.25c.14,0,.2,0,.32.17a.87.87,0,0,0,1.36,0c.12-.12.18-.17.32-.17s.2,0,.32.17a.87.87,0,0,0,1.36,0c.12-.12.18-.17.32-.17s.2,0,.32.17a.87.87,0,0,0,1.36,0Zm13.57,1.58-.08,0a.25.25,0,0,1-.16-.31A4.45,4.45,0,0,1,57.14,8.9a.25.25,0,0,1,.33.11.24.24,0,0,1-.11.34A4,4,0,0,0,56,11.2.26.26,0,0,1,55.75,11.38Zm-.5-.25A5.36,5.36,0,0,1,56.19,8a.25.25,0,0,0,0-.35.26.26,0,0,0-.36,0,6,6,0,0,0-1.06,3.42.25.25,0,0,0,.5,0Zm-1,0a7.43,7.43,0,0,0-.78-3.62.25.25,0,0,0-.33-.11.24.24,0,0,0-.11.34,7.07,7.07,0,0,1,.72,3.39.25.25,0,0,0,.5,0Zm-.94.24a.25.25,0,0,0,.18-.31A4,4,0,0,0,52.43,9a.25.25,0,0,0-.36,0,.26.26,0,0,0,0,.35A3.53,3.53,0,0,1,53,11.19a.26.26,0,0,0,.24.19Zm3.87.93c.12-.12.18-.17.32-.17a.25.25,0,0,0,.25-.25.25.25,0,0,0-.25-.25.9.9,0,0,0-.68.32c-.12.12-.18.18-.32.18s-.2-.06-.32-.18a.88.88,0,0,0-1.36,0c-.12.12-.18.18-.32.18s-.2-.06-.32-.18a.88.88,0,0,0-1.36,0c-.12.12-.18.18-.32.18s-.2-.06-.32-.18a.9.9,0,0,0-.68-.32.25.25,0,0,0-.25.25.25.25,0,0,0,.25.25c.14,0,.2,0,.32.17a.87.87,0,0,0,1.36,0c.12-.12.18-.17.32-.17s.2,0,.32.17a.87.87,0,0,0,1.36,0c.12-.12.18-.17.32-.17s.2,0,.32.17a.87.87,0,0,0,1.36,0ZM45.25,21.38l-.08,0a.25.25,0,0,1-.16-.31,4.45,4.45,0,0,1,1.63-2.15A.25.25,0,0,1,47,19a.24.24,0,0,1-.11.34,4,4,0,0,0-1.37,1.85A.26.26,0,0,1,45.25,21.38Zm-.5-.25A5.36,5.36,0,0,1,45.69,18a.25.25,0,0,0,0-.35.26.26,0,0,0-.36,0,6,6,0,0,0-1.06,3.42.25.25,0,0,0,.5,0Zm-1,0A7.43,7.43,0,0,0,43,17.51a.25.25,0,0,0-.33-.11.24.24,0,0,0-.11.34,7.07,7.07,0,0,1,.72,3.39.25.25,0,0,0,.5,0Zm-.94.24a.25.25,0,0,0,.18-.31A4,4,0,0,0,41.93,19a.25.25,0,0,0-.36,0,.26.26,0,0,0,0,.35,3.53,3.53,0,0,1,.94,1.89.26.26,0,0,0,.24.19Zm3.87.93c.12-.12.18-.17.32-.17a.25.25,0,0,0,.25-.25.25.25,0,0,0-.25-.25.9.9,0,0,0-.68.32c-.12.12-.18.18-.32.18s-.2-.06-.32-.18a.88.88,0,0,0-1.36,0c-.12.12-.18.18-.32.18s-.2-.06-.32-.18a.88.88,0,0,0-1.36,0c-.12.12-.18.18-.32.18s-.2-.06-.32-.18a.9.9,0,0,0-.68-.32.25.25,0,0,0-.25.25.25.25,0,0,0,.25.25c.14,0,.2.05.32.17a.87.87,0,0,0,1.36,0c.12-.12.18-.17.32-.17s.2.05.32.17a.87.87,0,0,0,1.36,0c.12-.12.18-.17.32-.17s.2.05.32.17a.87.87,0,0,0,1.36,0Zm11.57,4.08-.08,0a.25.25,0,0,1-.16-.31,4.45,4.45,0,0,1,1.63-2.15A.25.25,0,0,1,60,24a.24.24,0,0,1-.11.34,4,4,0,0,0-1.37,1.85A.26.26,0,0,1,58.25,26.38Zm-.5-.25A5.36,5.36,0,0,1,58.69,23a.25.25,0,0,0,0-.35.26.26,0,0,0-.36,0,6,6,0,0,0-1.06,3.42.25.25,0,0,0,.5,0Zm-1,0A7.43,7.43,0,0,0,56,22.51a.25.25,0,0,0-.33-.11.24.24,0,0,0-.11.34,7.07,7.07,0,0,1,.72,3.39.25.25,0,0,0,.5,0Zm-.94.24a.25.25,0,0,0,.18-.31A4,4,0,0,0,54.93,24a.25.25,0,0,0-.36,0,.26.26,0,0,0,0,.35,3.53,3.53,0,0,1,.94,1.89.26.26,0,0,0,.24.19Zm3.87.93c.12-.12.18-.17.32-.17a.25.25,0,0,0,.25-.25.25.25,0,0,0-.25-.25.9.9,0,0,0-.68.32c-.12.12-.18.18-.32.18s-.2-.06-.32-.18a.88.88,0,0,0-1.36,0c-.12.12-.18.18-.32.18s-.2-.06-.32-.18a.88.88,0,0,0-1.36,0c-.12.12-.18.18-.32.18s-.2-.06-.32-.18a.9.9,0,0,0-.68-.32.25.25,0,0,0-.25.25.25.25,0,0,0,.25.25c.14,0,.2.05.32.17a.87.87,0,0,0,1.36,0c.12-.12.18-.17.32-.17s.2.05.32.17a.87.87,0,0,0,1.36,0c.12-.12.18-.17.32-.17s.2.05.32.17a.87.87,0,0,0,1.36,0Z"/><path id="swamp_sparse-4" data-name="swamp_sparse" class="cls-2" d="M40.75,40.88l-.08,0a.25.25,0,0,1-.16-.31,4.45,4.45,0,0,1,1.63-2.15.25.25,0,0,1,.33.11.24.24,0,0,1-.11.34A4,4,0,0,0,41,40.7.26.26,0,0,1,40.75,40.88Zm-.5-.25a5.36,5.36,0,0,1,.94-3.09.25.25,0,0,0,0-.35.26.26,0,0,0-.36,0,6,6,0,0,0-1.06,3.42.25.25,0,0,0,.5,0Zm-1,0A7.43,7.43,0,0,0,38.47,37a.25.25,0,0,0-.33-.11.24.24,0,0,0-.11.34,7.07,7.07,0,0,1,.72,3.39.25.25,0,0,0,.5,0Zm-.94.24a.25.25,0,0,0,.18-.31,4,4,0,0,0-1.06-2.11.25.25,0,0,0-.36,0,.26.26,0,0,0,0,.35A3.53,3.53,0,0,1,38,40.69a.26.26,0,0,0,.24.19Zm3.87.93c.12-.12.18-.17.32-.17a.25.25,0,0,0,.25-.25.25.25,0,0,0-.25-.25.9.9,0,0,0-.68.32c-.12.12-.18.18-.32.18s-.2-.06-.32-.18a.88.88,0,0,0-1.36,0c-.12.12-.18.18-.32.18s-.2-.06-.32-.18a.88.88,0,0,0-1.36,0c-.12.12-.18.18-.32.18s-.2-.06-.32-.18a.9.9,0,0,0-.68-.32.25.25,0,0,0-.25.25.25.25,0,0,0,.25.25c.14,0,.2,0,.32.17a.87.87,0,0,0,1.36,0c.12-.12.18-.17.32-.17s.2,0,.32.17a.87.87,0,0,0,1.36,0c.12-.12.18-.17.32-.17s.2,0,.32.17a.87.87,0,0,0,1.36,0Zm13.57,1.58-.08,0a.25.25,0,0,1-.16-.31,4.45,4.45,0,0,1,1.63-2.15.25.25,0,0,1,.33.11.24.24,0,0,1-.11.34A4,4,0,0,0,56,43.2.26.26,0,0,1,55.75,43.38Zm-.5-.25A5.36,5.36,0,0,1,56.19,40a.25.25,0,0,0,0-.35.26.26,0,0,0-.36,0,6,6,0,0,0-1.06,3.42.25.25,0,0,0,.5,0Zm-1,0a7.43,7.43,0,0,0-.78-3.62.25.25,0,0,0-.33-.11.24.24,0,0,0-.11.34,7.07,7.07,0,0,1,.72,3.39.25.25,0,0,0,.5,0Zm-.94.24a.25.25,0,0,0,.18-.31A4,4,0,0,0,52.43,41a.25.25,0,0,0-.36,0,.26.26,0,0,0,0,.35A3.53,3.53,0,0,1,53,43.19a.26.26,0,0,0,.24.19Zm3.87.93c.12-.12.18-.17.32-.17a.25.25,0,0,0,.25-.25.25.25,0,0,0-.25-.25.9.9,0,0,0-.68.32c-.12.12-.18.18-.32.18s-.2-.06-.32-.18a.88.88,0,0,0-1.36,0c-.12.12-.18.18-.32.18s-.2-.06-.32-.18a.88.88,0,0,0-1.36,0c-.12.12-.18.18-.32.18s-.2-.06-.32-.18a.9.9,0,0,0-.68-.32.25.25,0,0,0-.25.25.25.25,0,0,0,.25.25c.14,0,.2,0,.32.17a.87.87,0,0,0,1.36,0c.12-.12.18-.17.32-.17s.2,0,.32.17a.87.87,0,0,0,1.36,0c.12-.12.18-.17.32-.17s.2,0,.32.17a.87.87,0,0,0,1.36,0ZM45.25,53.38l-.08,0a.25.25,0,0,1-.16-.31,4.45,4.45,0,0,1,1.63-2.15A.25.25,0,0,1,47,51a.24.24,0,0,1-.11.34,4,4,0,0,0-1.37,1.85A.26.26,0,0,1,45.25,53.38Zm-.5-.25A5.36,5.36,0,0,1,45.69,50a.25.25,0,0,0,0-.35.26.26,0,0,0-.36,0,6,6,0,0,0-1.06,3.42.25.25,0,0,0,.5,0Zm-1,0A7.43,7.43,0,0,0,43,49.51a.25.25,0,0,0-.33-.11.24.24,0,0,0-.11.34,7.07,7.07,0,0,1,.72,3.39.25.25,0,0,0,.5,0Zm-.94.24a.25.25,0,0,0,.18-.31A4,4,0,0,0,41.93,51a.25.25,0,0,0-.36,0,.26.26,0,0,0,0,.35,3.53,3.53,0,0,1,.94,1.89.26.26,0,0,0,.24.19Zm3.87.93c.12-.12.18-.17.32-.17a.25.25,0,0,0,.25-.25.25.25,0,0,0-.25-.25.9.9,0,0,0-.68.32c-.12.12-.18.18-.32.18s-.2-.06-.32-.18a.88.88,0,0,0-1.36,0c-.12.12-.18.18-.32.18s-.2-.06-.32-.18a.88.88,0,0,0-1.36,0c-.12.12-.18.18-.32.18s-.2-.06-.32-.18a.9.9,0,0,0-.68-.32.25.25,0,0,0-.25.25.25.25,0,0,0,.25.25c.14,0,.2,0,.32.17a.87.87,0,0,0,1.36,0c.12-.12.18-.17.32-.17s.2,0,.32.17a.87.87,0,0,0,1.36,0c.12-.12.18-.17.32-.17s.2,0,.32.17a.87.87,0,0,0,1.36,0Zm11.57,4.08-.08,0a.25.25,0,0,1-.16-.31,4.45,4.45,0,0,1,1.63-2.15A.25.25,0,0,1,60,56a.24.24,0,0,1-.11.34,4,4,0,0,0-1.37,1.85A.26.26,0,0,1,58.25,58.38Zm-.5-.25A5.36,5.36,0,0,1,58.69,55a.25.25,0,0,0,0-.35.26.26,0,0,0-.36,0,6,6,0,0,0-1.06,3.42.25.25,0,0,0,.5,0Zm-1,0A7.43,7.43,0,0,0,56,54.51a.25.25,0,0,0-.33-.11.24.24,0,0,0-.11.34,7.07,7.07,0,0,1,.72,3.39.25.25,0,0,0,.5,0Zm-.94.24a.25.25,0,0,0,.18-.31A4,4,0,0,0,54.93,56a.25.25,0,0,0-.36,0,.26.26,0,0,0,0,.35,3.53,3.53,0,0,1,.94,1.89.26.26,0,0,0,.24.19Zm3.87.93c.12-.12.18-.17.32-.17a.25.25,0,0,0,.25-.25.25.25,0,0,0-.25-.25.9.9,0,0,0-.68.32c-.12.12-.18.18-.32.18s-.2-.06-.32-.18a.88.88,0,0,0-1.36,0c-.12.12-.18.18-.32.18s-.2-.06-.32-.18a.88.88,0,0,0-1.36,0c-.12.12-.18.18-.32.18s-.2-.06-.32-.18a.9.9,0,0,0-.68-.32.25.25,0,0,0-.25.25.25.25,0,0,0,.25.25c.14,0,.2,0,.32.17a.87.87,0,0,0,1.36,0c.12-.12.18-.17.32-.17s.2,0,.32.17a.87.87,0,0,0,1.36,0c.12-.12.18-.17.32-.17s.2,0,.32.17a.87.87,0,0,0,1.36,0Z"/></g></svg>