<svg id="Sprites" xmlns="http://www.w3.org/2000/svg" viewBox="0 0 64 64"><defs><style>.cls-1{fill:none;}.cls-2{fill:#0984ba;}</style></defs><g id="swamp_poly_blue_sparse"><rect id="bbox_64" class="cls-1" width="64" height="64"/><path id="swamp_sparse" class="cls-2" d="M17.5,17.75a.45.45,0,0,1-.16,0,.49.49,0,0,1-.31-.63,8.77,8.77,0,0,1,3.25-4.29.5.5,0,1,1,.44.9A8.06,8.06,0,0,0,18,17.41.49.49,0,0,1,17.5,17.75Zm-1-.5a10.86,10.86,0,0,1,1.87-6.16.5.5,0,0,0,0-.71.48.48,0,0,0-.7,0c-1.17,1.3-2.13,4.37-2.13,6.83a.5.5,0,0,0,1,0Zm-2,0A15,15,0,0,0,13,10a.5.5,0,1,0-.9.44,14.07,14.07,0,0,1,1.45,6.78.5.5,0,0,0,1,0Zm-1.88.49a.5.5,0,0,0,.36-.61,7.93,7.93,0,0,0-2.13-4.23.49.49,0,0,0-.7.7A7.1,7.1,0,0,1,12,17.37a.49.49,0,0,0,.48.38Zm7.73,1.86c.25-.24.37-.35.65-.35a.5.5,0,0,0,0-1,1.74,1.74,0,0,0-1.35.65c-.25.24-.37.35-.65.35s-.4-.11-.65-.35a1.73,1.73,0,0,0-2.7,0c-.25.24-.37.35-.65.35s-.4-.11-.65-.35a1.73,1.73,0,0,0-2.7,0c-.25.24-.37.35-.65.35s-.4-.11-.65-.35A1.74,1.74,0,0,0,9,18.25a.5.5,0,0,0,0,1c.28,0,.4.11.65.35a1.73,1.73,0,0,0,2.7,0c.25-.24.37-.35.65-.35s.4.11.65.35a1.73,1.73,0,0,0,2.7,0c.25-.24.37-.35.65-.35s.4.11.65.35a1.73,1.73,0,0,0,2.7,0ZM47.5,22.75a.45.45,0,0,1-.16,0,.49.49,0,0,1-.31-.63,8.77,8.77,0,0,1,3.25-4.29.5.5,0,0,1,.44.9A8.06,8.06,0,0,0,48,22.41.49.49,0,0,1,47.5,22.75Zm-1-.5a10.86,10.86,0,0,1,1.87-6.16.5.5,0,0,0,0-.71.48.48,0,0,0-.7,0c-1.17,1.3-2.13,4.37-2.13,6.83a.5.5,0,0,0,1,0Zm-2,0A15,15,0,0,0,43,15a.5.5,0,1,0-.9.44,14.07,14.07,0,0,1,1.45,6.78.5.5,0,0,0,1,0Zm-1.88.49a.5.5,0,0,0,.36-.61,7.93,7.93,0,0,0-2.13-4.23.49.49,0,0,0-.7.7A7.1,7.1,0,0,1,42,22.37a.49.49,0,0,0,.48.38Zm7.73,1.86c.25-.24.37-.35.65-.35a.5.5,0,0,0,0-1,1.74,1.74,0,0,0-1.35.65c-.25.24-.37.35-.65.35s-.4-.11-.65-.35a1.73,1.73,0,0,0-2.7,0c-.25.24-.37.35-.65.35s-.4-.11-.65-.35a1.73,1.73,0,0,0-2.7,0c-.25.24-.37.35-.65.35s-.4-.11-.65-.35A1.74,1.74,0,0,0,39,23.25a.5.5,0,0,0,0,1c.28,0,.4.11.65.35a1.73,1.73,0,0,0,2.7,0c.25-.24.37-.35.65-.35s.4.11.65.35a1.73,1.73,0,0,0,2.7,0c.25-.24.37-.35.65-.35s.4.11.65.35a1.73,1.73,0,0,0,2.7,0ZM26.5,42.75a.45.45,0,0,1-.16,0,.49.49,0,0,1-.31-.63,8.77,8.77,0,0,1,3.25-4.29.5.5,0,0,1,.44.9A8.06,8.06,0,0,0,27,42.41.49.49,0,0,1,26.5,42.75Zm-1-.5a10.86,10.86,0,0,1,1.87-6.16.5.5,0,0,0,0-.71.48.48,0,0,0-.7,0c-1.17,1.3-2.13,4.37-2.13,6.83a.5.5,0,0,0,1,0Zm-2,0A15,15,0,0,0,22,35a.5.5,0,1,0-.9.44,14.07,14.07,0,0,1,1.45,6.78.5.5,0,0,0,1,0Zm-1.88.49a.5.5,0,0,0,.36-.61,7.93,7.93,0,0,0-2.13-4.23.49.49,0,0,0-.7.7A7.1,7.1,0,0,1,21,42.37a.49.49,0,0,0,.48.38Zm7.73,1.86c.25-.24.37-.35.65-.35a.5.5,0,0,0,0-1,1.74,1.74,0,0,0-1.35.65c-.25.24-.37.35-.65.35s-.4-.11-.65-.35a1.73,1.73,0,0,0-2.7,0c-.25.24-.37.35-.65.35s-.4-.11-.65-.35a1.73,1.73,0,0,0-2.7,0c-.25.24-.37.35-.65.35s-.4-.11-.65-.35A1.74,1.74,0,0,0,18,43.25a.5.5,0,0,0,0,1c.28,0,.4.11.65.35a1.73,1.73,0,0,0,2.7,0c.25-.24.37-.35.65-.35s.4.11.65.35a1.73,1.73,0,0,0,2.7,0c.25-.24.37-.35.65-.35s.4.11.65.35a1.73,1.73,0,0,0,2.7,0ZM52.5,52.75a.45.45,0,0,1-.16,0,.49.49,0,0,1-.31-.63,8.77,8.77,0,0,1,3.25-4.29.5.5,0,1,1,.44.9A8.06,8.06,0,0,0,53,52.41.49.49,0,0,1,52.5,52.75Zm-1-.5a10.86,10.86,0,0,1,1.87-6.16.5.5,0,0,0,0-.71.48.48,0,0,0-.7,0c-1.17,1.3-2.13,4.37-2.13,6.83a.5.5,0,0,0,1,0Zm-2,0A15,15,0,0,0,48,45a.5.5,0,0,0-.9.44,14.07,14.07,0,0,1,1.45,6.78.5.5,0,0,0,1,0Zm-1.88.49a.5.5,0,0,0,.36-.61,7.93,7.93,0,0,0-2.13-4.23.49.49,0,0,0-.7.7A7.1,7.1,0,0,1,47,52.37a.49.49,0,0,0,.48.38Zm7.73,1.86c.25-.24.37-.35.65-.35a.5.5,0,0,0,0-1,1.74,1.74,0,0,0-1.35.65c-.25.24-.37.35-.65.35s-.4-.11-.65-.35a1.73,1.73,0,0,0-2.7,0c-.25.24-.37.35-.65.35s-.4-.11-.65-.35a1.73,1.73,0,0,0-2.7,0c-.25.24-.37.35-.65.35s-.4-.11-.65-.35A1.74,1.74,0,0,0,44,53.25a.5.5,0,0,0,0,1c.28,0,.4.11.65.35a1.73,1.73,0,0,0,2.7,0c.25-.24.37-.35.65-.35s.4.11.65.35a1.73,1.73,0,0,0,2.7,0c.25-.24.37-.35.65-.35s.4.11.65.35a1.73,1.73,0,0,0,2.7,0Z"/></g></svg>