<svg id="Sprites" xmlns="http://www.w3.org/2000/svg" viewBox="0 0 64 64"><defs><style>.cls-1{fill:none;}.cls-2{fill:#0984ba;}</style></defs><g id="swamp_poly_sparse_half"><rect id="bbox_64" class="cls-1" width="32" height="32"/><path id="swamp_sparse" class="cls-2" d="M4.38,4.44h0a.12.12,0,0,1-.08-.16A2.17,2.17,0,0,1,5.07,3.2a.12.12,0,0,1,.17.06.12.12,0,0,1-.06.16,2.07,2.07,0,0,0-.69.93A.12.12,0,0,1,4.38,4.44Zm-.26-.13a2.75,2.75,0,0,1,.47-1.54.12.12,0,0,0,0-.18.12.12,0,0,0-.17,0,3,3,0,0,0-.53,1.71.12.12,0,1,0,.24,0Zm-.5,0a3.79,3.79,0,0,0-.38-1.8A.13.13,0,1,0,3,2.62a3.46,3.46,0,0,1,.37,1.69.12.12,0,1,0,.24,0Zm-.46.12a.13.13,0,0,0,.09-.15,2,2,0,0,0-.54-1.06.14.14,0,0,0-.17,0,.13.13,0,0,0,0,.18A1.76,1.76,0,0,1,3,4.34a.14.14,0,0,0,.12.1Zm1.93.47c.06-.06.09-.09.16-.09a.12.12,0,0,0,.13-.12.13.13,0,0,0-.13-.13.48.48,0,0,0-.34.16c-.06.07-.09.09-.16.09s-.1,0-.16-.09a.44.44,0,0,0-.68,0c-.06.07-.09.09-.16.09s-.1,0-.16-.09a.44.44,0,0,0-.68,0c-.06.07-.09.09-.16.09s-.1,0-.16-.09a.48.48,0,0,0-.34-.16.13.13,0,0,0-.13.13.12.12,0,0,0,.13.12c.07,0,.1,0,.16.09a.44.44,0,0,0,.68,0c.06-.06.09-.09.16-.09s.1,0,.16.09a.44.44,0,0,0,.68,0c.06-.06.09-.09.16-.09s.1,0,.16.09a.44.44,0,0,0,.68,0Zm6.79.79h0a.12.12,0,0,1-.08-.16,2.17,2.17,0,0,1,.81-1.07.12.12,0,0,1,.17.06.12.12,0,0,1-.06.16A2.07,2.07,0,0,0,12,5.6.12.12,0,0,1,11.88,5.69Zm-.26-.13A2.75,2.75,0,0,1,12.09,4a.12.12,0,0,0,0-.18.12.12,0,0,0-.17,0,3,3,0,0,0-.53,1.71.12.12,0,1,0,.24,0Zm-.5,0a3.79,3.79,0,0,0-.38-1.8.13.13,0,0,0-.23.11,3.46,3.46,0,0,1,.37,1.69.12.12,0,1,0,.24,0Zm-.46.12a.13.13,0,0,0,.09-.15,2,2,0,0,0-.54-1.06.14.14,0,0,0-.17,0,.13.13,0,0,0,0,.18,1.76,1.76,0,0,1,.46.94.14.14,0,0,0,.12.1Zm1.93.47c.06-.06.09-.09.16-.09a.12.12,0,0,0,.13-.12.13.13,0,0,0-.13-.13.48.48,0,0,0-.34.16c-.06.07-.09.09-.16.09s-.1,0-.16-.09a.44.44,0,0,0-.68,0c-.06.07-.09.09-.16.09s-.1,0-.16-.09a.44.44,0,0,0-.68,0c-.06.07-.09.09-.16.09s-.1,0-.16-.09a.48.48,0,0,0-.34-.16.13.13,0,0,0-.13.13.12.12,0,0,0,.13.12c.07,0,.1,0,.16.09a.44.44,0,0,0,.68,0c.06-.06.09-.09.16-.09s.1,0,.16.09a.44.44,0,0,0,.68,0c.06-.06.09-.09.16-.09s.1,0,.16.09a.44.44,0,0,0,.68,0Zm-6,4.54h0a.12.12,0,0,1-.08-.16,2.17,2.17,0,0,1,.81-1.07.12.12,0,0,1,.17.06.12.12,0,0,1-.06.16,2.07,2.07,0,0,0-.69.93A.12.12,0,0,1,6.62,10.69Zm-.24-.13A2.76,2.76,0,0,1,6.84,9a.12.12,0,0,0,0-.18.12.12,0,0,0-.17,0,3,3,0,0,0-.54,1.71.13.13,0,1,0,.26,0Zm-.5,0a3.79,3.79,0,0,0-.39-1.8.13.13,0,0,0-.23.11,3.46,3.46,0,0,1,.36,1.69.13.13,0,0,0,.26,0Zm-.47.12a.13.13,0,0,0,.09-.15A2,2,0,0,0,5,9.47a.14.14,0,0,0-.17,0,.13.13,0,0,0,0,.18,1.76,1.76,0,0,1,.46.94.14.14,0,0,0,.12.1Zm1.93.47c.06-.06.09-.09.16-.09a.12.12,0,0,0,.12-.12.12.12,0,0,0-.12-.13.48.48,0,0,0-.34.16c-.06.07-.09.09-.16.09s-.1,0-.16-.09a.44.44,0,0,0-.68,0c-.06.07-.09.09-.16.09s-.1,0-.16-.09a.44.44,0,0,0-.68,0c-.06.07-.09.09-.16.09s-.1,0-.16-.09a.48.48,0,0,0-.34-.16.12.12,0,0,0-.12.13.12.12,0,0,0,.12.12c.07,0,.1,0,.16.09a.44.44,0,0,0,.68,0c.06-.06.09-.09.16-.09s.1,0,.16.09a.44.44,0,0,0,.68,0c.06-.06.09-.09.16-.09s.1,0,.16.09a.44.44,0,0,0,.68,0Zm5.78,2h0A.12.12,0,0,1,13,13,2.17,2.17,0,0,1,13.82,12,.12.12,0,0,1,14,12a.12.12,0,0,1-.06.16,2.07,2.07,0,0,0-.69.93A.12.12,0,0,1,13.12,13.19Zm-.24-.13a2.76,2.76,0,0,1,.46-1.54.12.12,0,0,0,0-.18.12.12,0,0,0-.17,0,3,3,0,0,0-.54,1.71.13.13,0,0,0,.26,0Zm-.5,0a3.79,3.79,0,0,0-.39-1.8.13.13,0,0,0-.23.11,3.46,3.46,0,0,1,.36,1.69.13.13,0,0,0,.26,0Zm-.47.12A.13.13,0,0,0,12,13,2,2,0,0,0,11.46,12a.14.14,0,0,0-.17,0,.13.13,0,0,0,0,.18,1.76,1.76,0,0,1,.46.94.14.14,0,0,0,.12.1Zm1.93.47c.06-.06.09-.09.16-.09a.12.12,0,0,0,.12-.12.12.12,0,0,0-.12-.13.48.48,0,0,0-.34.16c-.06.07-.09.09-.16.09s-.1,0-.16-.09a.44.44,0,0,0-.68,0c-.06.07-.09.09-.16.09s-.1,0-.16-.09a.44.44,0,0,0-.68,0c-.06.07-.09.09-.16.09s-.1,0-.16-.09a.48.48,0,0,0-.34-.16.12.12,0,0,0-.12.13.12.12,0,0,0,.12.12c.07,0,.1,0,.16.09a.44.44,0,0,0,.68,0c.06-.06.09-.09.16-.09s.1,0,.16.09a.44.44,0,0,0,.68,0c.06-.06.09-.09.16-.09s.1,0,.16.09a.44.44,0,0,0,.68,0Z"/><path id="swamp_sparse-2" data-name="swamp_sparse" class="cls-2" d="M4.38,20.44h0a.12.12,0,0,1-.08-.16,2.17,2.17,0,0,1,.81-1.07.12.12,0,0,1,.17.06.12.12,0,0,1-.06.16,2.07,2.07,0,0,0-.69.93A.12.12,0,0,1,4.38,20.44Zm-.26-.13a2.75,2.75,0,0,1,.47-1.54.12.12,0,0,0,0-.18.12.12,0,0,0-.17,0,3,3,0,0,0-.53,1.71.12.12,0,1,0,.24,0Zm-.5,0a3.79,3.79,0,0,0-.38-1.8.13.13,0,1,0-.23.11,3.46,3.46,0,0,1,.37,1.69.12.12,0,1,0,.24,0Zm-.46.12a.13.13,0,0,0,.09-.15,2,2,0,0,0-.54-1.06.14.14,0,0,0-.17,0,.13.13,0,0,0,0,.18,1.76,1.76,0,0,1,.46.94.14.14,0,0,0,.12.1Zm1.93.47c.06-.06.09-.09.16-.09a.12.12,0,0,0,.13-.12.13.13,0,0,0-.13-.13.48.48,0,0,0-.34.16c-.06.07-.09.09-.16.09s-.1,0-.16-.09a.44.44,0,0,0-.68,0c-.06.07-.09.09-.16.09s-.1,0-.16-.09a.44.44,0,0,0-.68,0c-.06.07-.09.09-.16.09s-.1,0-.16-.09a.48.48,0,0,0-.34-.16.13.13,0,0,0-.13.13.12.12,0,0,0,.13.12c.07,0,.1,0,.16.09a.44.44,0,0,0,.68,0c.06-.06.09-.09.16-.09s.1,0,.16.09a.44.44,0,0,0,.68,0c.06-.06.09-.09.16-.09s.1,0,.16.09a.44.44,0,0,0,.68,0Zm6.79.79h0a.12.12,0,0,1-.08-.16,2.17,2.17,0,0,1,.81-1.07.12.12,0,0,1,.17.06.12.12,0,0,1-.06.16,2.07,2.07,0,0,0-.69.93A.12.12,0,0,1,11.88,21.69Zm-.26-.13A2.75,2.75,0,0,1,12.09,20a.12.12,0,0,0,0-.18.12.12,0,0,0-.17,0,3,3,0,0,0-.53,1.71.12.12,0,1,0,.24,0Zm-.5,0a3.79,3.79,0,0,0-.38-1.8.13.13,0,1,0-.23.11,3.46,3.46,0,0,1,.37,1.69.12.12,0,1,0,.24,0Zm-.46.12a.13.13,0,0,0,.09-.15,2,2,0,0,0-.54-1.06.14.14,0,0,0-.17,0,.13.13,0,0,0,0,.18,1.76,1.76,0,0,1,.46.94.14.14,0,0,0,.12.1Zm1.93.47c.06-.06.09-.09.16-.09a.12.12,0,0,0,.13-.12.13.13,0,0,0-.13-.13.48.48,0,0,0-.34.16c-.06.07-.09.09-.16.09s-.1,0-.16-.09a.44.44,0,0,0-.68,0c-.06.07-.09.09-.16.09s-.1,0-.16-.09a.44.44,0,0,0-.68,0c-.06.07-.09.09-.16.09s-.1,0-.16-.09a.48.48,0,0,0-.34-.16.13.13,0,0,0-.13.13.12.12,0,0,0,.13.12c.07,0,.1,0,.16.09a.44.44,0,0,0,.68,0c.06-.06.09-.09.16-.09s.1,0,.16.09a.44.44,0,0,0,.68,0c.06-.06.09-.09.16-.09s.1,0,.16.09a.44.44,0,0,0,.68,0Zm-6,4.54h0a.12.12,0,0,1-.08-.16,2.17,2.17,0,0,1,.81-1.07.12.12,0,0,1,.17.06.12.12,0,0,1-.06.16,2.07,2.07,0,0,0-.69.93A.12.12,0,0,1,6.62,26.69Zm-.24-.13A2.76,2.76,0,0,1,6.84,25a.12.12,0,0,0,0-.18.12.12,0,0,0-.17,0,3,3,0,0,0-.54,1.71.13.13,0,1,0,.26,0Zm-.5,0a3.79,3.79,0,0,0-.39-1.8.13.13,0,1,0-.23.11,3.46,3.46,0,0,1,.36,1.69.13.13,0,0,0,.26,0Zm-.47.12a.13.13,0,0,0,.09-.15A2,2,0,0,0,5,25.47a.14.14,0,0,0-.17,0,.13.13,0,0,0,0,.18,1.76,1.76,0,0,1,.46.94.14.14,0,0,0,.12.1Zm1.93.47c.06-.06.09-.09.16-.09a.12.12,0,0,0,.12-.12.12.12,0,0,0-.12-.13.48.48,0,0,0-.34.16c-.06.07-.09.09-.16.09s-.1,0-.16-.09a.44.44,0,0,0-.68,0c-.06.07-.09.09-.16.09s-.1,0-.16-.09a.44.44,0,0,0-.68,0c-.06.07-.09.09-.16.09s-.1,0-.16-.09a.48.48,0,0,0-.34-.16.12.12,0,0,0-.12.13.12.12,0,0,0,.12.12c.07,0,.1,0,.16.09a.44.44,0,0,0,.68,0c.06-.06.09-.09.16-.09s.1,0,.16.09a.44.44,0,0,0,.68,0c.06-.06.09-.09.16-.09s.1,0,.16.09a.44.44,0,0,0,.68,0Zm5.78,2h0A.12.12,0,0,1,13,29,2.17,2.17,0,0,1,13.82,28,.12.12,0,0,1,14,28a.12.12,0,0,1-.06.16,2.07,2.07,0,0,0-.69.93A.12.12,0,0,1,13.12,29.19Zm-.24-.13a2.76,2.76,0,0,1,.46-1.54.12.12,0,0,0,0-.18.12.12,0,0,0-.17,0,3,3,0,0,0-.54,1.71.13.13,0,0,0,.26,0Zm-.5,0a3.79,3.79,0,0,0-.39-1.8.13.13,0,0,0-.23.11,3.46,3.46,0,0,1,.36,1.69.13.13,0,0,0,.26,0Zm-.47.12A.13.13,0,0,0,12,29,2,2,0,0,0,11.46,28a.14.14,0,0,0-.17,0,.13.13,0,0,0,0,.18,1.76,1.76,0,0,1,.46.94.14.14,0,0,0,.12.1Zm1.93.47c.06-.06.09-.09.16-.09a.12.12,0,0,0,.12-.12.12.12,0,0,0-.12-.13.48.48,0,0,0-.34.16c-.06.07-.09.09-.16.09s-.1,0-.16-.09a.44.44,0,0,0-.68,0c-.06.07-.09.09-.16.09s-.1,0-.16-.09a.44.44,0,0,0-.68,0c-.06.07-.09.09-.16.09s-.1,0-.16-.09a.48.48,0,0,0-.34-.16.12.12,0,0,0-.12.13.12.12,0,0,0,.12.12c.07,0,.1,0,.16.09a.44.44,0,0,0,.68,0c.06-.06.09-.09.16-.09s.1,0,.16.09a.44.44,0,0,0,.68,0c.06-.06.09-.09.16-.09s.1,0,.16.09a.44.44,0,0,0,.68,0Z"/><path id="swamp_sparse-3" data-name="swamp_sparse" class="cls-2" d="M20.38,4.44h0a.12.12,0,0,1-.08-.16,2.17,2.17,0,0,1,.81-1.07.12.12,0,0,1,.17.06.12.12,0,0,1-.06.16,2.07,2.07,0,0,0-.69.93A.12.12,0,0,1,20.38,4.44Zm-.26-.13a2.75,2.75,0,0,1,.47-1.54.12.12,0,0,0,0-.18.12.12,0,0,0-.17,0,3,3,0,0,0-.53,1.71.12.12,0,1,0,.24,0Zm-.5,0a3.79,3.79,0,0,0-.38-1.8.13.13,0,1,0-.23.11,3.46,3.46,0,0,1,.37,1.69.12.12,0,1,0,.24,0Zm-.46.12a.13.13,0,0,0,.09-.15,2,2,0,0,0-.54-1.06.14.14,0,0,0-.17,0,.13.13,0,0,0,0,.18,1.76,1.76,0,0,1,.46.94.14.14,0,0,0,.12.1Zm1.93.47c.06-.06.09-.09.16-.09a.12.12,0,0,0,.13-.12.13.13,0,0,0-.13-.13.48.48,0,0,0-.34.16c-.06.07-.09.09-.16.09s-.1,0-.16-.09a.44.44,0,0,0-.68,0c-.06.07-.09.09-.16.09s-.1,0-.16-.09a.44.44,0,0,0-.68,0c-.06.07-.09.09-.16.09s-.1,0-.16-.09a.48.48,0,0,0-.34-.16.13.13,0,0,0-.13.13.12.12,0,0,0,.13.12c.07,0,.1,0,.16.09a.44.44,0,0,0,.68,0c.06-.06.09-.09.16-.09s.1,0,.16.09a.44.44,0,0,0,.68,0c.06-.06.09-.09.16-.09s.1,0,.16.09a.44.44,0,0,0,.68,0Zm6.79.79h0a.12.12,0,0,1-.08-.16,2.17,2.17,0,0,1,.81-1.07.12.12,0,0,1,.17.06.12.12,0,0,1-.06.16A2.07,2.07,0,0,0,28,5.6.12.12,0,0,1,27.88,5.69Zm-.26-.13A2.75,2.75,0,0,1,28.09,4a.12.12,0,0,0,0-.18.12.12,0,0,0-.17,0,3,3,0,0,0-.53,1.71.12.12,0,1,0,.24,0Zm-.5,0a3.79,3.79,0,0,0-.38-1.8.13.13,0,0,0-.23.11,3.46,3.46,0,0,1,.37,1.69.12.12,0,1,0,.24,0Zm-.46.12a.13.13,0,0,0,.09-.15,2,2,0,0,0-.54-1.06.14.14,0,0,0-.17,0,.13.13,0,0,0,0,.18,1.76,1.76,0,0,1,.46.94.14.14,0,0,0,.12.1Zm1.93.47c.06-.06.09-.09.16-.09a.12.12,0,0,0,.13-.12.13.13,0,0,0-.13-.13.48.48,0,0,0-.34.16c-.06.07-.09.09-.16.09s-.1,0-.16-.09a.44.44,0,0,0-.68,0c-.06.07-.09.09-.16.09s-.1,0-.16-.09a.44.44,0,0,0-.68,0c-.06.07-.09.09-.16.09s-.1,0-.16-.09a.48.48,0,0,0-.34-.16.13.13,0,0,0-.13.13.12.12,0,0,0,.13.12c.07,0,.1,0,.16.09a.44.44,0,0,0,.68,0c.06-.06.09-.09.16-.09s.1,0,.16.09a.44.44,0,0,0,.68,0c.06-.06.09-.09.16-.09s.1,0,.16.09a.44.44,0,0,0,.68,0Zm-6,4.54h0a.12.12,0,0,1-.08-.16,2.17,2.17,0,0,1,.81-1.07.12.12,0,0,1,.17.06.12.12,0,0,1-.06.16,2.07,2.07,0,0,0-.69.93A.12.12,0,0,1,22.62,10.69Zm-.24-.13A2.76,2.76,0,0,1,22.84,9a.12.12,0,0,0,0-.18.12.12,0,0,0-.17,0,3,3,0,0,0-.54,1.71.13.13,0,1,0,.26,0Zm-.5,0a3.79,3.79,0,0,0-.39-1.8.13.13,0,1,0-.23.11,3.46,3.46,0,0,1,.36,1.69.13.13,0,1,0,.26,0Zm-.47.12a.13.13,0,0,0,.09-.15A2,2,0,0,0,21,9.47a.14.14,0,0,0-.17,0,.13.13,0,0,0,0,.18,1.76,1.76,0,0,1,.46.94.14.14,0,0,0,.12.1Zm1.93.47c.06-.06.09-.09.16-.09a.12.12,0,0,0,.12-.12.12.12,0,0,0-.12-.13.48.48,0,0,0-.34.16c-.06.07-.09.09-.16.09s-.1,0-.16-.09a.44.44,0,0,0-.68,0c-.06.07-.09.09-.16.09s-.1,0-.16-.09a.44.44,0,0,0-.68,0c-.06.07-.09.09-.16.09s-.1,0-.16-.09a.48.48,0,0,0-.34-.16.12.12,0,0,0-.12.13.12.12,0,0,0,.12.12c.07,0,.1,0,.16.09a.44.44,0,0,0,.68,0c.06-.06.09-.09.16-.09s.1,0,.16.09a.44.44,0,0,0,.68,0c.06-.06.09-.09.16-.09s.1,0,.16.09a.44.44,0,0,0,.68,0Zm5.78,2h0A.12.12,0,0,1,29,13,2.17,2.17,0,0,1,29.82,12,.12.12,0,0,1,30,12a.12.12,0,0,1-.06.16,2.07,2.07,0,0,0-.69.93A.12.12,0,0,1,29.12,13.19Zm-.24-.13a2.76,2.76,0,0,1,.46-1.54.12.12,0,0,0,0-.18.12.12,0,0,0-.17,0,3,3,0,0,0-.54,1.71.13.13,0,1,0,.26,0Zm-.5,0a3.79,3.79,0,0,0-.39-1.8.13.13,0,1,0-.23.11,3.46,3.46,0,0,1,.36,1.69.13.13,0,1,0,.26,0Zm-.47.12A.13.13,0,0,0,28,13,2,2,0,0,0,27.46,12a.14.14,0,0,0-.17,0,.13.13,0,0,0,0,.18,1.76,1.76,0,0,1,.46.94.14.14,0,0,0,.12.1Zm1.93.47c.06-.06.09-.09.16-.09a.12.12,0,0,0,.12-.12.12.12,0,0,0-.12-.13.48.48,0,0,0-.34.16c-.06.07-.09.09-.16.09s-.1,0-.16-.09a.44.44,0,0,0-.68,0c-.06.07-.09.09-.16.09s-.1,0-.16-.09a.44.44,0,0,0-.68,0c-.06.07-.09.09-.16.09s-.1,0-.16-.09a.48.48,0,0,0-.34-.16.12.12,0,0,0-.12.13.12.12,0,0,0,.12.12c.07,0,.1,0,.16.09a.44.44,0,0,0,.68,0c.06-.06.09-.09.16-.09s.1,0,.16.09a.44.44,0,0,0,.68,0c.06-.06.09-.09.16-.09s.1,0,.16.09a.44.44,0,0,0,.68,0Z"/><path id="swamp_sparse-4" data-name="swamp_sparse" class="cls-2" d="M20.38,20.44h0a.12.12,0,0,1-.08-.16,2.17,2.17,0,0,1,.81-1.07.12.12,0,0,1,.17.06.12.12,0,0,1-.06.16,2.07,2.07,0,0,0-.69.93A.12.12,0,0,1,20.38,20.44Zm-.26-.13a2.75,2.75,0,0,1,.47-1.54.12.12,0,0,0,0-.18.12.12,0,0,0-.17,0,3,3,0,0,0-.53,1.71.12.12,0,1,0,.24,0Zm-.5,0a3.79,3.79,0,0,0-.38-1.8.13.13,0,1,0-.23.11,3.46,3.46,0,0,1,.37,1.69.12.12,0,1,0,.24,0Zm-.46.12a.13.13,0,0,0,.09-.15,2,2,0,0,0-.54-1.06.14.14,0,0,0-.17,0,.13.13,0,0,0,0,.18,1.76,1.76,0,0,1,.46.94.14.14,0,0,0,.12.1Zm1.93.47c.06-.06.09-.09.16-.09a.12.12,0,0,0,.13-.12.13.13,0,0,0-.13-.13.48.48,0,0,0-.34.16c-.06.07-.09.09-.16.09s-.1,0-.16-.09a.44.44,0,0,0-.68,0c-.06.07-.09.09-.16.09s-.1,0-.16-.09a.44.44,0,0,0-.68,0c-.06.07-.09.09-.16.09s-.1,0-.16-.09a.48.48,0,0,0-.34-.16.13.13,0,0,0-.13.13.12.12,0,0,0,.13.12c.07,0,.1,0,.16.09a.44.44,0,0,0,.68,0c.06-.06.09-.09.16-.09s.1,0,.16.09a.44.44,0,0,0,.68,0c.06-.06.09-.09.16-.09s.1,0,.16.09a.44.44,0,0,0,.68,0Zm6.79.79h0a.12.12,0,0,1-.08-.16,2.17,2.17,0,0,1,.81-1.07.12.12,0,0,1,.17.06.12.12,0,0,1-.06.16,2.07,2.07,0,0,0-.69.93A.12.12,0,0,1,27.88,21.69Zm-.26-.13A2.75,2.75,0,0,1,28.09,20a.12.12,0,0,0,0-.18.12.12,0,0,0-.17,0,3,3,0,0,0-.53,1.71.12.12,0,1,0,.24,0Zm-.5,0a3.79,3.79,0,0,0-.38-1.8.13.13,0,1,0-.23.11,3.46,3.46,0,0,1,.37,1.69.12.12,0,1,0,.24,0Zm-.46.12a.13.13,0,0,0,.09-.15,2,2,0,0,0-.54-1.06.14.14,0,0,0-.17,0,.13.13,0,0,0,0,.18,1.76,1.76,0,0,1,.46.94.14.14,0,0,0,.12.1Zm1.93.47c.06-.06.09-.09.16-.09a.12.12,0,0,0,.13-.12.13.13,0,0,0-.13-.13.48.48,0,0,0-.34.16c-.06.07-.09.09-.16.09s-.1,0-.16-.09a.44.44,0,0,0-.68,0c-.06.07-.09.09-.16.09s-.1,0-.16-.09a.44.44,0,0,0-.68,0c-.06.07-.09.09-.16.09s-.1,0-.16-.09a.48.48,0,0,0-.34-.16.13.13,0,0,0-.13.13.12.12,0,0,0,.13.12c.07,0,.1,0,.16.09a.44.44,0,0,0,.68,0c.06-.06.09-.09.16-.09s.1,0,.16.09a.44.44,0,0,0,.68,0c.06-.06.09-.09.16-.09s.1,0,.16.09a.44.44,0,0,0,.68,0Zm-6,4.54h0a.12.12,0,0,1-.08-.16,2.17,2.17,0,0,1,.81-1.07.12.12,0,0,1,.17.06.12.12,0,0,1-.06.16,2.07,2.07,0,0,0-.69.93A.12.12,0,0,1,22.62,26.69Zm-.24-.13A2.76,2.76,0,0,1,22.84,25a.12.12,0,0,0,0-.18.12.12,0,0,0-.17,0,3,3,0,0,0-.54,1.71.13.13,0,1,0,.26,0Zm-.5,0a3.79,3.79,0,0,0-.39-1.8.13.13,0,1,0-.23.11,3.46,3.46,0,0,1,.36,1.69.13.13,0,1,0,.26,0Zm-.47.12a.13.13,0,0,0,.09-.15A2,2,0,0,0,21,25.47a.14.14,0,0,0-.17,0,.13.13,0,0,0,0,.18,1.76,1.76,0,0,1,.46.94.14.14,0,0,0,.12.1Zm1.93.47c.06-.06.09-.09.16-.09a.12.12,0,0,0,.12-.12.12.12,0,0,0-.12-.13.48.48,0,0,0-.34.16c-.06.07-.09.09-.16.09s-.1,0-.16-.09a.44.44,0,0,0-.68,0c-.06.07-.09.09-.16.09s-.1,0-.16-.09a.44.44,0,0,0-.68,0c-.06.07-.09.09-.16.09s-.1,0-.16-.09a.48.48,0,0,0-.34-.16.12.12,0,0,0-.12.13.12.12,0,0,0,.12.12c.07,0,.1,0,.16.09a.44.44,0,0,0,.68,0c.06-.06.09-.09.16-.09s.1,0,.16.09a.44.44,0,0,0,.68,0c.06-.06.09-.09.16-.09s.1,0,.16.09a.44.44,0,0,0,.68,0Zm5.78,2h0A.12.12,0,0,1,29,29,2.17,2.17,0,0,1,29.82,28,.12.12,0,0,1,30,28a.12.12,0,0,1-.06.16,2.07,2.07,0,0,0-.69.93A.12.12,0,0,1,29.12,29.19Zm-.24-.13a2.76,2.76,0,0,1,.46-1.54.12.12,0,0,0,0-.18.12.12,0,0,0-.17,0,3,3,0,0,0-.54,1.71.13.13,0,1,0,.26,0Zm-.5,0a3.79,3.79,0,0,0-.39-1.8.13.13,0,1,0-.23.11,3.46,3.46,0,0,1,.36,1.69.13.13,0,1,0,.26,0Zm-.47.12A.13.13,0,0,0,28,29,2,2,0,0,0,27.46,28a.14.14,0,0,0-.17,0,.13.13,0,0,0,0,.18,1.76,1.76,0,0,1,.46.94.14.14,0,0,0,.12.1Zm1.93.47c.06-.06.09-.09.16-.09a.12.12,0,0,0,.12-.12.12.12,0,0,0-.12-.13.48.48,0,0,0-.34.16c-.06.07-.09.09-.16.09s-.1,0-.16-.09a.44.44,0,0,0-.68,0c-.06.07-.09.09-.16.09s-.1,0-.16-.09a.44.44,0,0,0-.68,0c-.06.07-.09.09-.16.09s-.1,0-.16-.09a.48.48,0,0,0-.34-.16.12.12,0,0,0-.12.13.12.12,0,0,0,.12.12c.07,0,.1,0,.16.09a.44.44,0,0,0,.68,0c.06-.06.09-.09.16-.09s.1,0,.16.09a.44.44,0,0,0,.68,0c.06-.06.09-.09.16-.09s.1,0,.16.09a.44.44,0,0,0,.68,0Z"/></g><g id="swamp_poly_sparse_half-2" data-name="swamp_poly_sparse_half"><rect id="bbox_64-2" data-name="bbox_64" class="cls-1" x="32" width="32" height="32"/><path id="swamp_sparse-5" data-name="swamp_sparse" class="cls-2" d="M36.38,4.44h0a.12.12,0,0,1-.08-.16,2.17,2.17,0,0,1,.81-1.07.12.12,0,0,1,.17.06.12.12,0,0,1-.06.16,2.07,2.07,0,0,0-.69.93A.12.12,0,0,1,36.38,4.44Zm-.26-.13a2.75,2.75,0,0,1,.47-1.54.12.12,0,0,0,0-.18.12.12,0,0,0-.17,0,3,3,0,0,0-.53,1.71.12.12,0,1,0,.24,0Zm-.5,0a3.79,3.79,0,0,0-.38-1.8.13.13,0,1,0-.23.11,3.46,3.46,0,0,1,.37,1.69.12.12,0,1,0,.24,0Zm-.46.12a.13.13,0,0,0,.09-.15,2,2,0,0,0-.54-1.06.14.14,0,0,0-.17,0,.13.13,0,0,0,0,.18,1.76,1.76,0,0,1,.46.94.14.14,0,0,0,.12.1Zm1.93.47c.06-.06.09-.09.16-.09a.12.12,0,0,0,.13-.12.13.13,0,0,0-.13-.13.48.48,0,0,0-.34.16c-.06.07-.09.09-.16.09s-.1,0-.16-.09a.44.44,0,0,0-.68,0c-.06.07-.09.09-.16.09s-.1,0-.16-.09a.44.44,0,0,0-.68,0c-.06.07-.09.09-.16.09s-.1,0-.16-.09a.48.48,0,0,0-.34-.16.13.13,0,0,0-.13.13.12.12,0,0,0,.13.12c.07,0,.1,0,.16.09a.44.44,0,0,0,.68,0c.06-.06.09-.09.16-.09s.1,0,.16.09a.44.44,0,0,0,.68,0c.06-.06.09-.09.16-.09s.1,0,.16.09a.44.44,0,0,0,.68,0Zm6.79.79h0a.12.12,0,0,1-.08-.16,2.17,2.17,0,0,1,.81-1.07.12.12,0,0,1,.17.06.12.12,0,0,1-.06.16A2.07,2.07,0,0,0,44,5.6.12.12,0,0,1,43.88,5.69Zm-.26-.13A2.75,2.75,0,0,1,44.09,4a.12.12,0,0,0,0-.18.12.12,0,0,0-.17,0,3,3,0,0,0-.53,1.71.12.12,0,1,0,.24,0Zm-.5,0a3.79,3.79,0,0,0-.38-1.8.13.13,0,1,0-.23.11,3.46,3.46,0,0,1,.37,1.69.12.12,0,1,0,.24,0Zm-.46.12a.13.13,0,0,0,.09-.15,2,2,0,0,0-.54-1.06.14.14,0,0,0-.17,0,.13.13,0,0,0,0,.18,1.76,1.76,0,0,1,.46.94.14.14,0,0,0,.12.1Zm1.93.47c.06-.06.09-.09.16-.09a.12.12,0,0,0,.13-.12.13.13,0,0,0-.13-.13.48.48,0,0,0-.34.16c-.06.07-.09.09-.16.09s-.1,0-.16-.09a.44.44,0,0,0-.68,0c-.06.07-.09.09-.16.09s-.1,0-.16-.09a.44.44,0,0,0-.68,0c-.06.07-.09.09-.16.09s-.1,0-.16-.09a.48.48,0,0,0-.34-.16.13.13,0,0,0-.13.13.12.12,0,0,0,.13.12c.07,0,.1,0,.16.09a.44.44,0,0,0,.68,0c.06-.06.09-.09.16-.09s.1,0,.16.09a.44.44,0,0,0,.68,0c.06-.06.09-.09.16-.09s.1,0,.16.09a.44.44,0,0,0,.68,0Zm-6,4.54h0a.12.12,0,0,1-.08-.16,2.17,2.17,0,0,1,.81-1.07.12.12,0,0,1,.17.06.12.12,0,0,1-.06.16,2.07,2.07,0,0,0-.69.93A.12.12,0,0,1,38.62,10.69Zm-.24-.13A2.76,2.76,0,0,1,38.84,9a.12.12,0,0,0,0-.18.12.12,0,0,0-.17,0,3,3,0,0,0-.54,1.71.13.13,0,0,0,.26,0Zm-.5,0a3.79,3.79,0,0,0-.39-1.8.13.13,0,1,0-.23.11,3.46,3.46,0,0,1,.36,1.69.13.13,0,0,0,.26,0Zm-.47.12a.13.13,0,0,0,.09-.15A2,2,0,0,0,37,9.47a.14.14,0,0,0-.17,0,.13.13,0,0,0,0,.18,1.76,1.76,0,0,1,.46.94.14.14,0,0,0,.12.1Zm1.93.47c.06-.06.09-.09.16-.09a.12.12,0,0,0,.12-.12.12.12,0,0,0-.12-.13.48.48,0,0,0-.34.16c-.06.07-.09.09-.16.09s-.1,0-.16-.09a.44.44,0,0,0-.68,0c-.06.07-.09.09-.16.09s-.1,0-.16-.09a.44.44,0,0,0-.68,0c-.06.07-.09.09-.16.09s-.1,0-.16-.09a.48.48,0,0,0-.34-.16.12.12,0,0,0-.12.13.12.12,0,0,0,.12.12c.07,0,.1,0,.16.09a.44.44,0,0,0,.68,0c.06-.06.09-.09.16-.09s.1,0,.16.09a.44.44,0,0,0,.68,0c.06-.06.09-.09.16-.09s.1,0,.16.09a.44.44,0,0,0,.68,0Zm5.78,2h0A.12.12,0,0,1,45,13,2.17,2.17,0,0,1,45.82,12,.12.12,0,0,1,46,12a.12.12,0,0,1-.06.16,2.07,2.07,0,0,0-.69.93A.12.12,0,0,1,45.12,13.19Zm-.24-.13a2.76,2.76,0,0,1,.46-1.54.12.12,0,0,0,0-.18.12.12,0,0,0-.17,0,3,3,0,0,0-.54,1.71.13.13,0,0,0,.26,0Zm-.5,0a3.79,3.79,0,0,0-.39-1.8.13.13,0,1,0-.23.11,3.46,3.46,0,0,1,.36,1.69.13.13,0,0,0,.26,0Zm-.47.12A.13.13,0,0,0,44,13,2,2,0,0,0,43.46,12a.14.14,0,0,0-.17,0,.13.13,0,0,0,0,.18,1.76,1.76,0,0,1,.46.94.14.14,0,0,0,.12.1Zm1.93.47c.06-.06.09-.09.16-.09a.12.12,0,0,0,.12-.12.12.12,0,0,0-.12-.13.48.48,0,0,0-.34.16c-.06.07-.09.09-.16.09s-.1,0-.16-.09a.44.44,0,0,0-.68,0c-.06.07-.09.09-.16.09s-.1,0-.16-.09a.44.44,0,0,0-.68,0c-.06.07-.09.09-.16.09s-.1,0-.16-.09a.48.48,0,0,0-.34-.16.12.12,0,0,0-.12.13.12.12,0,0,0,.12.12c.07,0,.1,0,.16.09a.44.44,0,0,0,.68,0c.06-.06.09-.09.16-.09s.1,0,.16.09a.44.44,0,0,0,.68,0c.06-.06.09-.09.16-.09s.1,0,.16.09a.44.44,0,0,0,.68,0Z"/><path id="swamp_sparse-6" data-name="swamp_sparse" class="cls-2" d="M36.38,20.44h0a.12.12,0,0,1-.08-.16,2.17,2.17,0,0,1,.81-1.07.12.12,0,0,1,.17.06.12.12,0,0,1-.06.16,2.07,2.07,0,0,0-.69.93A.12.12,0,0,1,36.38,20.44Zm-.26-.13a2.75,2.75,0,0,1,.47-1.54.12.12,0,0,0,0-.18.12.12,0,0,0-.17,0,3,3,0,0,0-.53,1.71.12.12,0,1,0,.24,0Zm-.5,0a3.79,3.79,0,0,0-.38-1.8.13.13,0,1,0-.23.11,3.46,3.46,0,0,1,.37,1.69.12.12,0,1,0,.24,0Zm-.46.12a.13.13,0,0,0,.09-.15,2,2,0,0,0-.54-1.06.14.14,0,0,0-.17,0,.13.13,0,0,0,0,.18,1.76,1.76,0,0,1,.46.94.14.14,0,0,0,.12.1Zm1.93.47c.06-.06.09-.09.16-.09a.12.12,0,0,0,.13-.12.13.13,0,0,0-.13-.13.48.48,0,0,0-.34.16c-.06.07-.09.09-.16.09s-.1,0-.16-.09a.44.44,0,0,0-.68,0c-.06.07-.09.09-.16.09s-.1,0-.16-.09a.44.44,0,0,0-.68,0c-.06.07-.09.09-.16.09s-.1,0-.16-.09a.48.48,0,0,0-.34-.16.13.13,0,0,0-.13.13.12.12,0,0,0,.13.12c.07,0,.1,0,.16.09a.44.44,0,0,0,.68,0c.06-.06.09-.09.16-.09s.1,0,.16.09a.44.44,0,0,0,.68,0c.06-.06.09-.09.16-.09s.1,0,.16.09a.44.44,0,0,0,.68,0Zm6.79.79h0a.12.12,0,0,1-.08-.16,2.17,2.17,0,0,1,.81-1.07.12.12,0,0,1,.17.06.12.12,0,0,1-.06.16,2.07,2.07,0,0,0-.69.93A.12.12,0,0,1,43.88,21.69Zm-.26-.13A2.75,2.75,0,0,1,44.09,20a.12.12,0,0,0,0-.18.12.12,0,0,0-.17,0,3,3,0,0,0-.53,1.71.12.12,0,1,0,.24,0Zm-.5,0a3.79,3.79,0,0,0-.38-1.8.13.13,0,1,0-.23.11,3.46,3.46,0,0,1,.37,1.69.12.12,0,1,0,.24,0Zm-.46.12a.13.13,0,0,0,.09-.15,2,2,0,0,0-.54-1.06.14.14,0,0,0-.17,0,.13.13,0,0,0,0,.18,1.76,1.76,0,0,1,.46.94.14.14,0,0,0,.12.1Zm1.93.47c.06-.06.09-.09.16-.09a.12.12,0,0,0,.13-.12.13.13,0,0,0-.13-.13.48.48,0,0,0-.34.16c-.06.07-.09.09-.16.09s-.1,0-.16-.09a.44.44,0,0,0-.68,0c-.06.07-.09.09-.16.09s-.1,0-.16-.09a.44.44,0,0,0-.68,0c-.06.07-.09.09-.16.09s-.1,0-.16-.09a.48.48,0,0,0-.34-.16.13.13,0,0,0-.13.13.12.12,0,0,0,.13.12c.07,0,.1,0,.16.09a.44.44,0,0,0,.68,0c.06-.06.09-.09.16-.09s.1,0,.16.09a.44.44,0,0,0,.68,0c.06-.06.09-.09.16-.09s.1,0,.16.09a.44.44,0,0,0,.68,0Zm-6,4.54h0a.12.12,0,0,1-.08-.16,2.17,2.17,0,0,1,.81-1.07.12.12,0,0,1,.17.06.12.12,0,0,1-.06.16,2.07,2.07,0,0,0-.69.93A.12.12,0,0,1,38.62,26.69Zm-.24-.13A2.76,2.76,0,0,1,38.84,25a.12.12,0,0,0,0-.18.12.12,0,0,0-.17,0,3,3,0,0,0-.54,1.71.13.13,0,1,0,.26,0Zm-.5,0a3.79,3.79,0,0,0-.39-1.8.13.13,0,1,0-.23.11,3.46,3.46,0,0,1,.36,1.69.13.13,0,1,0,.26,0Zm-.47.12a.13.13,0,0,0,.09-.15A2,2,0,0,0,37,25.47a.14.14,0,0,0-.17,0,.13.13,0,0,0,0,.18,1.76,1.76,0,0,1,.46.94.14.14,0,0,0,.12.1Zm1.93.47c.06-.06.09-.09.16-.09a.12.12,0,0,0,.12-.12.12.12,0,0,0-.12-.13.48.48,0,0,0-.34.16c-.06.07-.09.09-.16.09s-.1,0-.16-.09a.44.44,0,0,0-.68,0c-.06.07-.09.09-.16.09s-.1,0-.16-.09a.44.44,0,0,0-.68,0c-.06.07-.09.09-.16.09s-.1,0-.16-.09a.48.48,0,0,0-.34-.16.12.12,0,0,0-.12.13.12.12,0,0,0,.12.12c.07,0,.1,0,.16.09a.44.44,0,0,0,.68,0c.06-.06.09-.09.16-.09s.1,0,.16.09a.44.44,0,0,0,.68,0c.06-.06.09-.09.16-.09s.1,0,.16.09a.44.44,0,0,0,.68,0Zm5.78,2h0A.12.12,0,0,1,45,29,2.17,2.17,0,0,1,45.82,28,.12.12,0,0,1,46,28a.12.12,0,0,1-.06.16,2.07,2.07,0,0,0-.69.93A.12.12,0,0,1,45.12,29.19Zm-.24-.13a2.76,2.76,0,0,1,.46-1.54.12.12,0,0,0,0-.18.12.12,0,0,0-.17,0,3,3,0,0,0-.54,1.71.13.13,0,1,0,.26,0Zm-.5,0a3.79,3.79,0,0,0-.39-1.8.13.13,0,1,0-.23.11,3.46,3.46,0,0,1,.36,1.69.13.13,0,1,0,.26,0Zm-.47.12A.13.13,0,0,0,44,29,2,2,0,0,0,43.46,28a.14.14,0,0,0-.17,0,.13.13,0,0,0,0,.18,1.76,1.76,0,0,1,.46.94.14.14,0,0,0,.12.1Zm1.93.47c.06-.06.09-.09.16-.09a.12.12,0,0,0,.12-.12.12.12,0,0,0-.12-.13.48.48,0,0,0-.34.16c-.06.07-.09.09-.16.09s-.1,0-.16-.09a.44.44,0,0,0-.68,0c-.06.07-.09.09-.16.09s-.1,0-.16-.09a.44.44,0,0,0-.68,0c-.06.07-.09.09-.16.09s-.1,0-.16-.09a.48.48,0,0,0-.34-.16.12.12,0,0,0-.12.13.12.12,0,0,0,.12.12c.07,0,.1,0,.16.09a.44.44,0,0,0,.68,0c.06-.06.09-.09.16-.09s.1,0,.16.09a.44.44,0,0,0,.68,0c.06-.06.09-.09.16-.09s.1,0,.16.09a.44.44,0,0,0,.68,0Z"/><path id="swamp_sparse-7" data-name="swamp_sparse" class="cls-2" d="M52.38,4.44h0a.12.12,0,0,1-.08-.16,2.17,2.17,0,0,1,.81-1.07.12.12,0,0,1,.17.06.12.12,0,0,1-.06.16,2.07,2.07,0,0,0-.69.93A.12.12,0,0,1,52.38,4.44Zm-.26-.13a2.75,2.75,0,0,1,.47-1.54.12.12,0,0,0,0-.18.12.12,0,0,0-.17,0,3,3,0,0,0-.53,1.71.12.12,0,1,0,.24,0Zm-.5,0a3.79,3.79,0,0,0-.38-1.8.13.13,0,0,0-.23.11,3.46,3.46,0,0,1,.37,1.69.12.12,0,1,0,.24,0Zm-.46.12a.13.13,0,0,0,.09-.15,2,2,0,0,0-.54-1.06.14.14,0,0,0-.17,0,.13.13,0,0,0,0,.18,1.76,1.76,0,0,1,.46.94.14.14,0,0,0,.12.1Zm1.93.47c.06-.06.09-.09.16-.09a.12.12,0,0,0,.13-.12.13.13,0,0,0-.13-.13.48.48,0,0,0-.34.16c-.06.07-.09.09-.16.09s-.1,0-.16-.09a.44.44,0,0,0-.68,0c-.06.07-.09.09-.16.09s-.1,0-.16-.09a.44.44,0,0,0-.68,0c-.06.07-.09.09-.16.09s-.1,0-.16-.09a.48.48,0,0,0-.34-.16.13.13,0,0,0-.13.13.12.12,0,0,0,.13.12c.07,0,.1,0,.16.09a.44.44,0,0,0,.68,0c.06-.06.09-.09.16-.09s.1,0,.16.09a.44.44,0,0,0,.68,0c.06-.06.09-.09.16-.09s.1,0,.16.09a.44.44,0,0,0,.68,0Zm6.79.79h0a.12.12,0,0,1-.08-.16,2.17,2.17,0,0,1,.81-1.07.12.12,0,0,1,.17.06.12.12,0,0,1-.06.16A2.07,2.07,0,0,0,60,5.6.12.12,0,0,1,59.88,5.69Zm-.26-.13A2.75,2.75,0,0,1,60.09,4a.12.12,0,0,0,0-.18.12.12,0,0,0-.17,0,3,3,0,0,0-.53,1.71.12.12,0,1,0,.24,0Zm-.5,0a3.79,3.79,0,0,0-.38-1.8.13.13,0,0,0-.23.11,3.46,3.46,0,0,1,.37,1.69.12.12,0,1,0,.24,0Zm-.46.12a.13.13,0,0,0,.09-.15,2,2,0,0,0-.54-1.06.14.14,0,0,0-.17,0,.13.13,0,0,0,0,.18,1.76,1.76,0,0,1,.46.94.14.14,0,0,0,.12.1Zm1.93.47c.06-.06.09-.09.16-.09a.12.12,0,0,0,.13-.12.13.13,0,0,0-.13-.13.48.48,0,0,0-.34.16c-.06.07-.09.09-.16.09s-.1,0-.16-.09a.44.44,0,0,0-.68,0c-.06.07-.09.09-.16.09s-.1,0-.16-.09a.44.44,0,0,0-.68,0c-.06.07-.09.09-.16.09s-.1,0-.16-.09a.48.48,0,0,0-.34-.16.13.13,0,0,0-.13.13.12.12,0,0,0,.13.12c.07,0,.1,0,.16.09a.44.44,0,0,0,.68,0c.06-.06.09-.09.16-.09s.1,0,.16.09a.44.44,0,0,0,.68,0c.06-.06.09-.09.16-.09s.1,0,.16.09a.44.44,0,0,0,.68,0Zm-6,4.54h0a.12.12,0,0,1-.08-.16,2.17,2.17,0,0,1,.81-1.07.12.12,0,0,1,.17.06.12.12,0,0,1-.06.16,2.07,2.07,0,0,0-.69.93A.12.12,0,0,1,54.62,10.69Zm-.24-.13A2.76,2.76,0,0,1,54.84,9a.12.12,0,0,0,0-.18.12.12,0,0,0-.17,0,3,3,0,0,0-.54,1.71.13.13,0,0,0,.26,0Zm-.5,0a3.79,3.79,0,0,0-.39-1.8.13.13,0,1,0-.23.11,3.46,3.46,0,0,1,.36,1.69.13.13,0,0,0,.26,0Zm-.47.12a.13.13,0,0,0,.09-.15A2,2,0,0,0,53,9.47a.14.14,0,0,0-.17,0,.13.13,0,0,0,0,.18,1.76,1.76,0,0,1,.46.94.14.14,0,0,0,.12.1Zm1.93.47c.06-.06.09-.09.16-.09a.12.12,0,0,0,.12-.12.12.12,0,0,0-.12-.13.48.48,0,0,0-.34.16c-.06.07-.09.09-.16.09s-.1,0-.16-.09a.44.44,0,0,0-.68,0c-.06.07-.09.09-.16.09s-.1,0-.16-.09a.44.44,0,0,0-.68,0c-.06.07-.09.09-.16.09s-.1,0-.16-.09a.48.48,0,0,0-.34-.16.12.12,0,0,0-.12.13.12.12,0,0,0,.12.12c.07,0,.1,0,.16.09a.44.44,0,0,0,.68,0c.06-.06.09-.09.16-.09s.1,0,.16.09a.44.44,0,0,0,.68,0c.06-.06.09-.09.16-.09s.1,0,.16.09a.44.44,0,0,0,.68,0Zm5.78,2h0A.12.12,0,0,1,61,13,2.17,2.17,0,0,1,61.82,12,.12.12,0,0,1,62,12a.12.12,0,0,1-.06.16,2.07,2.07,0,0,0-.69.93A.12.12,0,0,1,61.12,13.19Zm-.24-.13a2.76,2.76,0,0,1,.46-1.54.12.12,0,0,0,0-.18.12.12,0,0,0-.17,0,3,3,0,0,0-.54,1.71.13.13,0,0,0,.26,0Zm-.5,0a3.79,3.79,0,0,0-.39-1.8.13.13,0,1,0-.23.11,3.46,3.46,0,0,1,.36,1.69.13.13,0,1,0,.26,0Zm-.47.12A.13.13,0,0,0,60,13,2,2,0,0,0,59.46,12a.14.14,0,0,0-.17,0,.13.13,0,0,0,0,.18,1.76,1.76,0,0,1,.46.94.14.14,0,0,0,.12.1Zm1.93.47c.06-.06.09-.09.16-.09a.12.12,0,0,0,.12-.12.12.12,0,0,0-.12-.13.48.48,0,0,0-.34.16c-.06.07-.09.09-.16.09s-.1,0-.16-.09a.44.44,0,0,0-.68,0c-.06.07-.09.09-.16.09s-.1,0-.16-.09a.44.44,0,0,0-.68,0c-.06.07-.09.09-.16.09s-.1,0-.16-.09a.48.48,0,0,0-.34-.16.12.12,0,0,0-.12.13.12.12,0,0,0,.12.12c.07,0,.1,0,.16.09a.44.44,0,0,0,.68,0c.06-.06.09-.09.16-.09s.1,0,.16.09a.44.44,0,0,0,.68,0c.06-.06.09-.09.16-.09s.1,0,.16.09a.44.44,0,0,0,.68,0Z"/><path id="swamp_sparse-8" data-name="swamp_sparse" class="cls-2" d="M52.38,20.44h0a.12.12,0,0,1-.08-.16,2.17,2.17,0,0,1,.81-1.07.12.12,0,0,1,.17.06.12.12,0,0,1-.06.16,2.07,2.07,0,0,0-.69.93A.12.12,0,0,1,52.38,20.44Zm-.26-.13a2.75,2.75,0,0,1,.47-1.54.12.12,0,0,0,0-.18.12.12,0,0,0-.17,0,3,3,0,0,0-.53,1.71.12.12,0,1,0,.24,0Zm-.5,0a3.79,3.79,0,0,0-.38-1.8.13.13,0,1,0-.23.11,3.46,3.46,0,0,1,.37,1.69.12.12,0,1,0,.24,0Zm-.46.12a.13.13,0,0,0,.09-.15,2,2,0,0,0-.54-1.06.14.14,0,0,0-.17,0,.13.13,0,0,0,0,.18,1.76,1.76,0,0,1,.46.94.14.14,0,0,0,.12.1Zm1.93.47c.06-.06.09-.09.16-.09a.12.12,0,0,0,.13-.12.13.13,0,0,0-.13-.13.48.48,0,0,0-.34.16c-.06.07-.09.09-.16.09s-.1,0-.16-.09a.44.44,0,0,0-.68,0c-.06.07-.09.09-.16.09s-.1,0-.16-.09a.44.44,0,0,0-.68,0c-.06.07-.09.09-.16.09s-.1,0-.16-.09a.48.48,0,0,0-.34-.16.13.13,0,0,0-.13.13.12.12,0,0,0,.13.12c.07,0,.1,0,.16.09a.44.44,0,0,0,.68,0c.06-.06.09-.09.16-.09s.1,0,.16.09a.44.44,0,0,0,.68,0c.06-.06.09-.09.16-.09s.1,0,.16.09a.44.44,0,0,0,.68,0Zm6.79.79h0a.12.12,0,0,1-.08-.16,2.17,2.17,0,0,1,.81-1.07.12.12,0,0,1,.17.06.12.12,0,0,1-.06.16,2.07,2.07,0,0,0-.69.93A.12.12,0,0,1,59.88,21.69Zm-.26-.13A2.75,2.75,0,0,1,60.09,20a.12.12,0,0,0,0-.18.12.12,0,0,0-.17,0,3,3,0,0,0-.53,1.71.12.12,0,1,0,.24,0Zm-.5,0a3.79,3.79,0,0,0-.38-1.8.13.13,0,1,0-.23.11,3.46,3.46,0,0,1,.37,1.69.12.12,0,1,0,.24,0Zm-.46.12a.13.13,0,0,0,.09-.15,2,2,0,0,0-.54-1.06.14.14,0,0,0-.17,0,.13.13,0,0,0,0,.18,1.76,1.76,0,0,1,.46.94.14.14,0,0,0,.12.1Zm1.93.47c.06-.06.09-.09.16-.09a.12.12,0,0,0,.13-.12.13.13,0,0,0-.13-.13.48.48,0,0,0-.34.16c-.06.07-.09.09-.16.09s-.1,0-.16-.09a.44.44,0,0,0-.68,0c-.06.07-.09.09-.16.09s-.1,0-.16-.09a.44.44,0,0,0-.68,0c-.06.07-.09.09-.16.09s-.1,0-.16-.09a.48.48,0,0,0-.34-.16.13.13,0,0,0-.13.13.12.12,0,0,0,.13.12c.07,0,.1,0,.16.09a.44.44,0,0,0,.68,0c.06-.06.09-.09.16-.09s.1,0,.16.09a.44.44,0,0,0,.68,0c.06-.06.09-.09.16-.09s.1,0,.16.09a.44.44,0,0,0,.68,0Zm-6,4.54h0a.12.12,0,0,1-.08-.16,2.17,2.17,0,0,1,.81-1.07.12.12,0,0,1,.17.06.12.12,0,0,1-.06.16,2.07,2.07,0,0,0-.69.93A.12.12,0,0,1,54.62,26.69Zm-.24-.13A2.76,2.76,0,0,1,54.84,25a.12.12,0,0,0,0-.18.12.12,0,0,0-.17,0,3,3,0,0,0-.54,1.71.13.13,0,1,0,.26,0Zm-.5,0a3.79,3.79,0,0,0-.39-1.8.13.13,0,1,0-.23.11,3.46,3.46,0,0,1,.36,1.69.13.13,0,1,0,.26,0Zm-.47.12a.13.13,0,0,0,.09-.15A2,2,0,0,0,53,25.47a.14.14,0,0,0-.17,0,.13.13,0,0,0,0,.18,1.76,1.76,0,0,1,.46.94.14.14,0,0,0,.12.1Zm1.93.47c.06-.06.09-.09.16-.09a.12.12,0,0,0,.12-.12.12.12,0,0,0-.12-.13.48.48,0,0,0-.34.16c-.06.07-.09.09-.16.09s-.1,0-.16-.09a.44.44,0,0,0-.68,0c-.06.07-.09.09-.16.09s-.1,0-.16-.09a.44.44,0,0,0-.68,0c-.06.07-.09.09-.16.09s-.1,0-.16-.09a.48.48,0,0,0-.34-.16.12.12,0,0,0-.12.13.12.12,0,0,0,.12.12c.07,0,.1,0,.16.09a.44.44,0,0,0,.68,0c.06-.06.09-.09.16-.09s.1,0,.16.09a.44.44,0,0,0,.68,0c.06-.06.09-.09.16-.09s.1,0,.16.09a.44.44,0,0,0,.68,0Zm5.78,2h0A.12.12,0,0,1,61,29,2.17,2.17,0,0,1,61.82,28,.12.12,0,0,1,62,28a.12.12,0,0,1-.06.16,2.07,2.07,0,0,0-.69.93A.12.12,0,0,1,61.12,29.19Zm-.24-.13a2.76,2.76,0,0,1,.46-1.54.12.12,0,0,0,0-.18.12.12,0,0,0-.17,0,3,3,0,0,0-.54,1.71.13.13,0,1,0,.26,0Zm-.5,0a3.79,3.79,0,0,0-.39-1.8.13.13,0,1,0-.23.11,3.46,3.46,0,0,1,.36,1.69.13.13,0,1,0,.26,0Zm-.47.12A.13.13,0,0,0,60,29,2,2,0,0,0,59.46,28a.14.14,0,0,0-.17,0,.13.13,0,0,0,0,.18,1.76,1.76,0,0,1,.46.94.14.14,0,0,0,.12.1Zm1.93.47c.06-.06.09-.09.16-.09a.12.12,0,0,0,.12-.12.12.12,0,0,0-.12-.13.48.48,0,0,0-.34.16c-.06.07-.09.09-.16.09s-.1,0-.16-.09a.44.44,0,0,0-.68,0c-.06.07-.09.09-.16.09s-.1,0-.16-.09a.44.44,0,0,0-.68,0c-.06.07-.09.09-.16.09s-.1,0-.16-.09a.48.48,0,0,0-.34-.16.12.12,0,0,0-.12.13.12.12,0,0,0,.12.12c.07,0,.1,0,.16.09a.44.44,0,0,0,.68,0c.06-.06.09-.09.16-.09s.1,0,.16.09a.44.44,0,0,0,.68,0c.06-.06.09-.09.16-.09s.1,0,.16.09a.44.44,0,0,0,.68,0Z"/></g><g id="swamp_poly_sparse_half-3" data-name="swamp_poly_sparse_half"><rect id="bbox_64-3" data-name="bbox_64" class="cls-1" y="32" width="32" height="32"/><path id="swamp_sparse-9" data-name="swamp_sparse" class="cls-2" d="M4.38,36.44h0a.12.12,0,0,1-.08-.16,2.17,2.17,0,0,1,.81-1.07.12.12,0,0,1,.17.06.12.12,0,0,1-.06.16,2.07,2.07,0,0,0-.69.93A.12.12,0,0,1,4.38,36.44Zm-.26-.13a2.75,2.75,0,0,1,.47-1.54.12.12,0,0,0,0-.18.12.12,0,0,0-.17,0,3,3,0,0,0-.53,1.71.12.12,0,1,0,.24,0Zm-.5,0a3.79,3.79,0,0,0-.38-1.8.13.13,0,0,0-.23.11,3.46,3.46,0,0,1,.37,1.69.12.12,0,1,0,.24,0Zm-.46.12a.13.13,0,0,0,.09-.15,2,2,0,0,0-.54-1.06.14.14,0,0,0-.17,0,.13.13,0,0,0,0,.18,1.76,1.76,0,0,1,.46.94.14.14,0,0,0,.12.1Zm1.93.47c.06-.06.09-.09.16-.09a.12.12,0,0,0,.13-.12.13.13,0,0,0-.13-.13.48.48,0,0,0-.34.16c-.06.07-.09.09-.16.09s-.1,0-.16-.09a.44.44,0,0,0-.68,0c-.06.07-.09.09-.16.09s-.1,0-.16-.09a.44.44,0,0,0-.68,0c-.06.07-.09.09-.16.09s-.1,0-.16-.09a.48.48,0,0,0-.34-.16.13.13,0,0,0-.13.13.12.12,0,0,0,.13.12c.07,0,.1,0,.16.09a.44.44,0,0,0,.68,0c.06-.06.09-.09.16-.09s.1,0,.16.09a.44.44,0,0,0,.68,0c.06-.06.09-.09.16-.09s.1,0,.16.09a.44.44,0,0,0,.68,0Zm6.79.79h0a.12.12,0,0,1-.08-.16,2.17,2.17,0,0,1,.81-1.07.12.12,0,0,1,.17.06.12.12,0,0,1-.06.16,2.07,2.07,0,0,0-.69.93A.12.12,0,0,1,11.88,37.69Zm-.26-.13A2.75,2.75,0,0,1,12.09,36a.12.12,0,0,0,0-.18.12.12,0,0,0-.17,0,3,3,0,0,0-.53,1.71.12.12,0,1,0,.24,0Zm-.5,0a3.79,3.79,0,0,0-.38-1.8.13.13,0,1,0-.23.11,3.46,3.46,0,0,1,.37,1.69.12.12,0,1,0,.24,0Zm-.46.12a.13.13,0,0,0,.09-.15,2,2,0,0,0-.54-1.06.14.14,0,0,0-.17,0,.13.13,0,0,0,0,.18,1.76,1.76,0,0,1,.46.94.14.14,0,0,0,.12.1Zm1.93.47c.06-.06.09-.09.16-.09a.12.12,0,0,0,.13-.12.13.13,0,0,0-.13-.13.48.48,0,0,0-.34.16c-.06.07-.09.09-.16.09s-.1,0-.16-.09a.44.44,0,0,0-.68,0c-.06.07-.09.09-.16.09s-.1,0-.16-.09a.44.44,0,0,0-.68,0c-.06.07-.09.09-.16.09s-.1,0-.16-.09a.48.48,0,0,0-.34-.16.13.13,0,0,0-.13.13.12.12,0,0,0,.13.12c.07,0,.1,0,.16.09a.44.44,0,0,0,.68,0c.06-.06.09-.09.16-.09s.1,0,.16.09a.44.44,0,0,0,.68,0c.06-.06.09-.09.16-.09s.1,0,.16.09a.44.44,0,0,0,.68,0Zm-6,4.54h0a.12.12,0,0,1-.08-.16,2.17,2.17,0,0,1,.81-1.07.12.12,0,0,1,.17.06.12.12,0,0,1-.06.16,2.07,2.07,0,0,0-.69.93A.12.12,0,0,1,6.62,42.69Zm-.24-.13A2.76,2.76,0,0,1,6.84,41a.12.12,0,0,0,0-.18.12.12,0,0,0-.17,0,3,3,0,0,0-.54,1.71.13.13,0,0,0,.26,0Zm-.5,0a3.79,3.79,0,0,0-.39-1.8.13.13,0,1,0-.23.11,3.46,3.46,0,0,1,.36,1.69.13.13,0,0,0,.26,0Zm-.47.12a.13.13,0,0,0,.09-.15A2,2,0,0,0,5,41.47a.14.14,0,0,0-.17,0,.13.13,0,0,0,0,.18,1.76,1.76,0,0,1,.46.94.14.14,0,0,0,.12.1Zm1.93.47c.06-.06.09-.09.16-.09a.12.12,0,0,0,.12-.12.12.12,0,0,0-.12-.13.48.48,0,0,0-.34.16c-.06.07-.09.09-.16.09s-.1,0-.16-.09a.44.44,0,0,0-.68,0c-.06.07-.09.09-.16.09s-.1,0-.16-.09a.44.44,0,0,0-.68,0c-.06.07-.09.09-.16.09s-.1,0-.16-.09a.48.48,0,0,0-.34-.16.12.12,0,0,0-.12.13.12.12,0,0,0,.12.12c.07,0,.1,0,.16.09a.44.44,0,0,0,.68,0c.06-.06.09-.09.16-.09s.1,0,.16.09a.44.44,0,0,0,.68,0c.06-.06.09-.09.16-.09s.1,0,.16.09a.44.44,0,0,0,.68,0Zm5.78,2h0A.12.12,0,0,1,13,45,2.17,2.17,0,0,1,13.82,44,.12.12,0,0,1,14,44a.12.12,0,0,1-.06.16,2.07,2.07,0,0,0-.69.93A.12.12,0,0,1,13.12,45.19Zm-.24-.13a2.76,2.76,0,0,1,.46-1.54.12.12,0,0,0,0-.18.12.12,0,0,0-.17,0,3,3,0,0,0-.54,1.71.13.13,0,0,0,.26,0Zm-.5,0a3.79,3.79,0,0,0-.39-1.8.13.13,0,0,0-.23.11,3.46,3.46,0,0,1,.36,1.69.13.13,0,0,0,.26,0Zm-.47.12A.13.13,0,0,0,12,45,2,2,0,0,0,11.46,44a.14.14,0,0,0-.17,0,.13.13,0,0,0,0,.18,1.76,1.76,0,0,1,.46.94.14.14,0,0,0,.12.1Zm1.93.47c.06-.06.09-.09.16-.09a.12.12,0,0,0,.12-.12.12.12,0,0,0-.12-.13.48.48,0,0,0-.34.16c-.06.07-.09.09-.16.09s-.1,0-.16-.09a.44.44,0,0,0-.68,0c-.06.07-.09.09-.16.09s-.1,0-.16-.09a.44.44,0,0,0-.68,0c-.06.07-.09.09-.16.09s-.1,0-.16-.09a.48.48,0,0,0-.34-.16.12.12,0,0,0-.12.13.12.12,0,0,0,.12.12c.07,0,.1,0,.16.09a.44.44,0,0,0,.68,0c.06-.06.09-.09.16-.09s.1,0,.16.09a.44.44,0,0,0,.68,0c.06-.06.09-.09.16-.09s.1,0,.16.09a.44.44,0,0,0,.68,0Z"/><path id="swamp_sparse-10" data-name="swamp_sparse" class="cls-2" d="M4.38,52.44h0a.12.12,0,0,1-.08-.16,2.17,2.17,0,0,1,.81-1.07.12.12,0,0,1,.17.06.12.12,0,0,1-.06.16,2.07,2.07,0,0,0-.69.93A.12.12,0,0,1,4.38,52.44Zm-.26-.13a2.75,2.75,0,0,1,.47-1.54.12.12,0,0,0,0-.18.12.12,0,0,0-.17,0,3,3,0,0,0-.53,1.71.12.12,0,1,0,.24,0Zm-.5,0a3.79,3.79,0,0,0-.38-1.8.13.13,0,1,0-.23.11,3.46,3.46,0,0,1,.37,1.69.12.12,0,1,0,.24,0Zm-.46.12a.13.13,0,0,0,.09-.15,2,2,0,0,0-.54-1.06.14.14,0,0,0-.17,0,.13.13,0,0,0,0,.18,1.76,1.76,0,0,1,.46.94.14.14,0,0,0,.12.1Zm1.93.47c.06-.06.09-.09.16-.09a.12.12,0,0,0,.13-.12.13.13,0,0,0-.13-.13.48.48,0,0,0-.34.16c-.06.07-.09.09-.16.09s-.1,0-.16-.09a.44.44,0,0,0-.68,0c-.06.07-.09.09-.16.09s-.1,0-.16-.09a.44.44,0,0,0-.68,0c-.06.07-.09.09-.16.09s-.1,0-.16-.09a.48.48,0,0,0-.34-.16.13.13,0,0,0-.13.13.12.12,0,0,0,.13.12c.07,0,.1,0,.16.09a.44.44,0,0,0,.68,0c.06-.06.09-.09.16-.09s.1,0,.16.09a.44.44,0,0,0,.68,0c.06-.06.09-.09.16-.09s.1,0,.16.09a.44.44,0,0,0,.68,0Zm6.79.79h0a.12.12,0,0,1-.08-.16,2.17,2.17,0,0,1,.81-1.07.12.12,0,0,1,.17.06.12.12,0,0,1-.06.16,2.07,2.07,0,0,0-.69.93A.12.12,0,0,1,11.88,53.69Zm-.26-.13A2.75,2.75,0,0,1,12.09,52a.12.12,0,0,0,0-.18.12.12,0,0,0-.17,0,3,3,0,0,0-.53,1.71.12.12,0,1,0,.24,0Zm-.5,0a3.79,3.79,0,0,0-.38-1.8.13.13,0,0,0-.23.11,3.46,3.46,0,0,1,.37,1.69.12.12,0,1,0,.24,0Zm-.46.12a.13.13,0,0,0,.09-.15,2,2,0,0,0-.54-1.06.14.14,0,0,0-.17,0,.13.13,0,0,0,0,.18,1.76,1.76,0,0,1,.46.94.14.14,0,0,0,.12.1Zm1.93.47c.06-.06.09-.09.16-.09a.12.12,0,0,0,.13-.12.13.13,0,0,0-.13-.13.48.48,0,0,0-.34.16c-.06.07-.09.09-.16.09s-.1,0-.16-.09a.44.44,0,0,0-.68,0c-.06.07-.09.09-.16.09s-.1,0-.16-.09a.44.44,0,0,0-.68,0c-.06.07-.09.09-.16.09s-.1,0-.16-.09a.48.48,0,0,0-.34-.16.13.13,0,0,0-.13.13.12.12,0,0,0,.13.12c.07,0,.1,0,.16.09a.44.44,0,0,0,.68,0c.06-.06.09-.09.16-.09s.1,0,.16.09a.44.44,0,0,0,.68,0c.06-.06.09-.09.16-.09s.1,0,.16.09a.44.44,0,0,0,.68,0Zm-6,4.54h0a.12.12,0,0,1-.08-.16,2.17,2.17,0,0,1,.81-1.07.12.12,0,0,1,.17.06.12.12,0,0,1-.06.16,2.07,2.07,0,0,0-.69.93A.12.12,0,0,1,6.62,58.69Zm-.24-.13A2.76,2.76,0,0,1,6.84,57a.12.12,0,0,0,0-.18.12.12,0,0,0-.17,0,3,3,0,0,0-.54,1.71.13.13,0,0,0,.26,0Zm-.5,0a3.79,3.79,0,0,0-.39-1.8.13.13,0,0,0-.23.11,3.46,3.46,0,0,1,.36,1.69.13.13,0,0,0,.26,0Zm-.47.12a.13.13,0,0,0,.09-.15A2,2,0,0,0,5,57.47a.14.14,0,0,0-.17,0,.13.13,0,0,0,0,.18,1.76,1.76,0,0,1,.46.94.14.14,0,0,0,.12.1Zm1.93.47c.06-.06.09-.09.16-.09a.12.12,0,0,0,.12-.12.12.12,0,0,0-.12-.13.48.48,0,0,0-.34.16c-.06.07-.09.09-.16.09s-.1,0-.16-.09a.44.44,0,0,0-.68,0c-.06.07-.09.09-.16.09s-.1,0-.16-.09a.44.44,0,0,0-.68,0c-.06.07-.09.09-.16.09s-.1,0-.16-.09a.48.48,0,0,0-.34-.16.12.12,0,0,0-.12.13.12.12,0,0,0,.12.12c.07,0,.1,0,.16.09a.44.44,0,0,0,.68,0c.06-.06.09-.09.16-.09s.1,0,.16.09a.44.44,0,0,0,.68,0c.06-.06.09-.09.16-.09s.1,0,.16.09a.44.44,0,0,0,.68,0Zm5.78,2h0A.12.12,0,0,1,13,61,2.17,2.17,0,0,1,13.82,60,.12.12,0,0,1,14,60a.12.12,0,0,1-.06.16,2.07,2.07,0,0,0-.69.93A.12.12,0,0,1,13.12,61.19Zm-.24-.13a2.76,2.76,0,0,1,.46-1.54.12.12,0,0,0,0-.18.12.12,0,0,0-.17,0,3,3,0,0,0-.54,1.71.13.13,0,0,0,.26,0Zm-.5,0a3.79,3.79,0,0,0-.39-1.8.13.13,0,0,0-.23.11,3.46,3.46,0,0,1,.36,1.69.13.13,0,0,0,.26,0Zm-.47.12A.13.13,0,0,0,12,61,2,2,0,0,0,11.46,60a.14.14,0,0,0-.17,0,.13.13,0,0,0,0,.18,1.76,1.76,0,0,1,.46.94.14.14,0,0,0,.12.1Zm1.93.47c.06-.06.09-.09.16-.09a.12.12,0,0,0,.12-.12.12.12,0,0,0-.12-.13.48.48,0,0,0-.34.16c-.06.07-.09.09-.16.09s-.1,0-.16-.09a.44.44,0,0,0-.68,0c-.06.07-.09.09-.16.09s-.1,0-.16-.09a.44.44,0,0,0-.68,0c-.06.07-.09.09-.16.09s-.1,0-.16-.09a.48.48,0,0,0-.34-.16.12.12,0,0,0-.12.13.12.12,0,0,0,.12.12c.07,0,.1,0,.16.09a.44.44,0,0,0,.68,0c.06-.06.09-.09.16-.09s.1,0,.16.09a.44.44,0,0,0,.68,0c.06-.06.09-.09.16-.09s.1,0,.16.09a.44.44,0,0,0,.68,0Z"/><path id="swamp_sparse-11" data-name="swamp_sparse" class="cls-2" d="M20.38,36.44h0a.12.12,0,0,1-.08-.16,2.17,2.17,0,0,1,.81-1.07.12.12,0,0,1,.17.06.12.12,0,0,1-.06.16,2.07,2.07,0,0,0-.69.93A.12.12,0,0,1,20.38,36.44Zm-.26-.13a2.75,2.75,0,0,1,.47-1.54.12.12,0,0,0,0-.18.12.12,0,0,0-.17,0,3,3,0,0,0-.53,1.71.12.12,0,1,0,.24,0Zm-.5,0a3.79,3.79,0,0,0-.38-1.8.13.13,0,1,0-.23.11,3.46,3.46,0,0,1,.37,1.69.12.12,0,1,0,.24,0Zm-.46.12a.13.13,0,0,0,.09-.15,2,2,0,0,0-.54-1.06.14.14,0,0,0-.17,0,.13.13,0,0,0,0,.18,1.76,1.76,0,0,1,.46.94.14.14,0,0,0,.12.1Zm1.93.47c.06-.06.09-.09.16-.09a.12.12,0,0,0,.13-.12.13.13,0,0,0-.13-.13.48.48,0,0,0-.34.16c-.06.07-.09.09-.16.09s-.1,0-.16-.09a.44.44,0,0,0-.68,0c-.06.07-.09.09-.16.09s-.1,0-.16-.09a.44.44,0,0,0-.68,0c-.06.07-.09.09-.16.09s-.1,0-.16-.09a.48.48,0,0,0-.34-.16.13.13,0,0,0-.13.13.12.12,0,0,0,.13.12c.07,0,.1,0,.16.09a.44.44,0,0,0,.68,0c.06-.06.09-.09.16-.09s.1,0,.16.09a.44.44,0,0,0,.68,0c.06-.06.09-.09.16-.09s.1,0,.16.09a.44.44,0,0,0,.68,0Zm6.79.79h0a.12.12,0,0,1-.08-.16,2.17,2.17,0,0,1,.81-1.07.12.12,0,0,1,.17.06.12.12,0,0,1-.06.16,2.07,2.07,0,0,0-.69.93A.12.12,0,0,1,27.88,37.69Zm-.26-.13A2.75,2.75,0,0,1,28.09,36a.12.12,0,0,0,0-.18.12.12,0,0,0-.17,0,3,3,0,0,0-.53,1.71.12.12,0,1,0,.24,0Zm-.5,0a3.79,3.79,0,0,0-.38-1.8.13.13,0,0,0-.23.11,3.46,3.46,0,0,1,.37,1.69.12.12,0,1,0,.24,0Zm-.46.12a.13.13,0,0,0,.09-.15,2,2,0,0,0-.54-1.06.14.14,0,0,0-.17,0,.13.13,0,0,0,0,.18,1.76,1.76,0,0,1,.46.94.14.14,0,0,0,.12.1Zm1.93.47c.06-.06.09-.09.16-.09a.12.12,0,0,0,.13-.12.13.13,0,0,0-.13-.13.48.48,0,0,0-.34.16c-.06.07-.09.09-.16.09s-.1,0-.16-.09a.44.44,0,0,0-.68,0c-.06.07-.09.09-.16.09s-.1,0-.16-.09a.44.44,0,0,0-.68,0c-.06.07-.09.09-.16.09s-.1,0-.16-.09a.48.48,0,0,0-.34-.16.13.13,0,0,0-.13.13.12.12,0,0,0,.13.12c.07,0,.1,0,.16.09a.44.44,0,0,0,.68,0c.06-.06.09-.09.16-.09s.1,0,.16.09a.44.44,0,0,0,.68,0c.06-.06.09-.09.16-.09s.1,0,.16.09a.44.44,0,0,0,.68,0Zm-6,4.54h0a.12.12,0,0,1-.08-.16,2.17,2.17,0,0,1,.81-1.07.12.12,0,0,1,.17.06.12.12,0,0,1-.06.16,2.07,2.07,0,0,0-.69.93A.12.12,0,0,1,22.62,42.69Zm-.24-.13A2.76,2.76,0,0,1,22.84,41a.12.12,0,0,0,0-.18.12.12,0,0,0-.17,0,3,3,0,0,0-.54,1.71.13.13,0,0,0,.26,0Zm-.5,0a3.79,3.79,0,0,0-.39-1.8.13.13,0,0,0-.23.11,3.46,3.46,0,0,1,.36,1.69.13.13,0,0,0,.26,0Zm-.47.12a.13.13,0,0,0,.09-.15A2,2,0,0,0,21,41.47a.14.14,0,0,0-.17,0,.13.13,0,0,0,0,.18,1.76,1.76,0,0,1,.46.94.14.14,0,0,0,.12.1Zm1.93.47c.06-.06.09-.09.16-.09a.12.12,0,0,0,.12-.12.12.12,0,0,0-.12-.13.48.48,0,0,0-.34.16c-.06.07-.09.09-.16.09s-.1,0-.16-.09a.44.44,0,0,0-.68,0c-.06.07-.09.09-.16.09s-.1,0-.16-.09a.44.44,0,0,0-.68,0c-.06.07-.09.09-.16.09s-.1,0-.16-.09a.48.48,0,0,0-.34-.16.12.12,0,0,0-.12.13.12.12,0,0,0,.12.12c.07,0,.1,0,.16.09a.44.44,0,0,0,.68,0c.06-.06.09-.09.16-.09s.1,0,.16.09a.44.44,0,0,0,.68,0c.06-.06.09-.09.16-.09s.1,0,.16.09a.44.44,0,0,0,.68,0Zm5.78,2h0A.12.12,0,0,1,29,45,2.17,2.17,0,0,1,29.82,44,.12.12,0,0,1,30,44a.12.12,0,0,1-.06.16,2.07,2.07,0,0,0-.69.93A.12.12,0,0,1,29.12,45.19Zm-.24-.13a2.76,2.76,0,0,1,.46-1.54.12.12,0,0,0,0-.18.12.12,0,0,0-.17,0,3,3,0,0,0-.54,1.71.13.13,0,0,0,.26,0Zm-.5,0a3.79,3.79,0,0,0-.39-1.8.13.13,0,0,0-.23.11,3.46,3.46,0,0,1,.36,1.69.13.13,0,0,0,.26,0Zm-.47.12A.13.13,0,0,0,28,45,2,2,0,0,0,27.46,44a.14.14,0,0,0-.17,0,.13.13,0,0,0,0,.18,1.76,1.76,0,0,1,.46.94.14.14,0,0,0,.12.1Zm1.93.47c.06-.06.09-.09.16-.09a.12.12,0,0,0,.12-.12.12.12,0,0,0-.12-.13.48.48,0,0,0-.34.16c-.06.07-.09.09-.16.09s-.1,0-.16-.09a.44.44,0,0,0-.68,0c-.06.07-.09.09-.16.09s-.1,0-.16-.09a.44.44,0,0,0-.68,0c-.06.07-.09.09-.16.09s-.1,0-.16-.09a.48.48,0,0,0-.34-.16.12.12,0,0,0-.12.13.12.12,0,0,0,.12.12c.07,0,.1,0,.16.09a.44.44,0,0,0,.68,0c.06-.06.09-.09.16-.09s.1,0,.16.09a.44.44,0,0,0,.68,0c.06-.06.09-.09.16-.09s.1,0,.16.09a.44.44,0,0,0,.68,0Z"/><path id="swamp_sparse-12" data-name="swamp_sparse" class="cls-2" d="M20.38,52.44h0a.12.12,0,0,1-.08-.16,2.17,2.17,0,0,1,.81-1.07.12.12,0,0,1,.17.06.12.12,0,0,1-.06.16,2.07,2.07,0,0,0-.69.93A.12.12,0,0,1,20.38,52.44Zm-.26-.13a2.75,2.75,0,0,1,.47-1.54.12.12,0,0,0,0-.18.12.12,0,0,0-.17,0,3,3,0,0,0-.53,1.71.12.12,0,1,0,.24,0Zm-.5,0a3.79,3.79,0,0,0-.38-1.8.13.13,0,0,0-.23.11,3.46,3.46,0,0,1,.37,1.69.12.12,0,1,0,.24,0Zm-.46.12a.13.13,0,0,0,.09-.15,2,2,0,0,0-.54-1.06.14.14,0,0,0-.17,0,.13.13,0,0,0,0,.18,1.76,1.76,0,0,1,.46.94.14.14,0,0,0,.12.1Zm1.93.47c.06-.06.09-.09.16-.09a.12.12,0,0,0,.13-.12.13.13,0,0,0-.13-.13.48.48,0,0,0-.34.16c-.06.07-.09.09-.16.09s-.1,0-.16-.09a.44.44,0,0,0-.68,0c-.06.07-.09.09-.16.09s-.1,0-.16-.09a.44.44,0,0,0-.68,0c-.06.07-.09.09-.16.09s-.1,0-.16-.09a.48.48,0,0,0-.34-.16.13.13,0,0,0-.13.13.12.12,0,0,0,.13.12c.07,0,.1,0,.16.09a.44.44,0,0,0,.68,0c.06-.06.09-.09.16-.09s.1,0,.16.09a.44.44,0,0,0,.68,0c.06-.06.09-.09.16-.09s.1,0,.16.09a.44.44,0,0,0,.68,0Zm6.79.79h0a.12.12,0,0,1-.08-.16,2.17,2.17,0,0,1,.81-1.07.12.12,0,0,1,.17.06.12.12,0,0,1-.06.16,2.07,2.07,0,0,0-.69.93A.12.12,0,0,1,27.88,53.69Zm-.26-.13A2.75,2.75,0,0,1,28.09,52a.12.12,0,0,0,0-.18.12.12,0,0,0-.17,0,3,3,0,0,0-.53,1.71.12.12,0,1,0,.24,0Zm-.5,0a3.79,3.79,0,0,0-.38-1.8.13.13,0,0,0-.23.11,3.46,3.46,0,0,1,.37,1.69.12.12,0,1,0,.24,0Zm-.46.12a.13.13,0,0,0,.09-.15,2,2,0,0,0-.54-1.06.14.14,0,0,0-.17,0,.13.13,0,0,0,0,.18,1.76,1.76,0,0,1,.46.94.14.14,0,0,0,.12.1Zm1.93.47c.06-.06.09-.09.16-.09a.12.12,0,0,0,.13-.12.13.13,0,0,0-.13-.13.48.48,0,0,0-.34.16c-.06.07-.09.09-.16.09s-.1,0-.16-.09a.44.44,0,0,0-.68,0c-.06.07-.09.09-.16.09s-.1,0-.16-.09a.44.44,0,0,0-.68,0c-.06.07-.09.09-.16.09s-.1,0-.16-.09a.48.48,0,0,0-.34-.16.13.13,0,0,0-.13.13.12.12,0,0,0,.13.12c.07,0,.1,0,.16.09a.44.44,0,0,0,.68,0c.06-.06.09-.09.16-.09s.1,0,.16.09a.44.44,0,0,0,.68,0c.06-.06.09-.09.16-.09s.1,0,.16.09a.44.44,0,0,0,.68,0Zm-6,4.54h0a.12.12,0,0,1-.08-.16,2.17,2.17,0,0,1,.81-1.07.12.12,0,0,1,.17.06.12.12,0,0,1-.06.16,2.07,2.07,0,0,0-.69.93A.12.12,0,0,1,22.62,58.69Zm-.24-.13A2.76,2.76,0,0,1,22.84,57a.12.12,0,0,0,0-.18.12.12,0,0,0-.17,0,3,3,0,0,0-.54,1.71.13.13,0,0,0,.26,0Zm-.5,0a3.79,3.79,0,0,0-.39-1.8.13.13,0,0,0-.23.11,3.46,3.46,0,0,1,.36,1.69.13.13,0,0,0,.26,0Zm-.47.12a.13.13,0,0,0,.09-.15A2,2,0,0,0,21,57.47a.14.14,0,0,0-.17,0,.13.13,0,0,0,0,.18,1.76,1.76,0,0,1,.46.94.14.14,0,0,0,.12.1Zm1.93.47c.06-.06.09-.09.16-.09a.12.12,0,0,0,.12-.12.12.12,0,0,0-.12-.13.48.48,0,0,0-.34.16c-.06.07-.09.09-.16.09s-.1,0-.16-.09a.44.44,0,0,0-.68,0c-.06.07-.09.09-.16.09s-.1,0-.16-.09a.44.44,0,0,0-.68,0c-.06.07-.09.09-.16.09s-.1,0-.16-.09a.48.48,0,0,0-.34-.16.12.12,0,0,0-.12.13.12.12,0,0,0,.12.12c.07,0,.1,0,.16.09a.44.44,0,0,0,.68,0c.06-.06.09-.09.16-.09s.1,0,.16.09a.44.44,0,0,0,.68,0c.06-.06.09-.09.16-.09s.1,0,.16.09a.44.44,0,0,0,.68,0Zm5.78,2h0A.12.12,0,0,1,29,61,2.17,2.17,0,0,1,29.82,60,.12.12,0,0,1,30,60a.12.12,0,0,1-.06.16,2.07,2.07,0,0,0-.69.93A.12.12,0,0,1,29.12,61.19Zm-.24-.13a2.76,2.76,0,0,1,.46-1.54.12.12,0,0,0,0-.18.12.12,0,0,0-.17,0,3,3,0,0,0-.54,1.71.13.13,0,0,0,.26,0Zm-.5,0a3.79,3.79,0,0,0-.39-1.8.13.13,0,1,0-.23.11,3.46,3.46,0,0,1,.36,1.69.13.13,0,0,0,.26,0Zm-.47.12A.13.13,0,0,0,28,61,2,2,0,0,0,27.46,60a.14.14,0,0,0-.17,0,.13.13,0,0,0,0,.18,1.76,1.76,0,0,1,.46.94.14.14,0,0,0,.12.1Zm1.93.47c.06-.06.09-.09.16-.09a.12.12,0,0,0,.12-.12.12.12,0,0,0-.12-.13.48.48,0,0,0-.34.16c-.06.07-.09.09-.16.09s-.1,0-.16-.09a.44.44,0,0,0-.68,0c-.06.07-.09.09-.16.09s-.1,0-.16-.09a.44.44,0,0,0-.68,0c-.06.07-.09.09-.16.09s-.1,0-.16-.09a.48.48,0,0,0-.34-.16.12.12,0,0,0-.12.13.12.12,0,0,0,.12.12c.07,0,.1,0,.16.09a.44.44,0,0,0,.68,0c.06-.06.09-.09.16-.09s.1,0,.16.09a.44.44,0,0,0,.68,0c.06-.06.09-.09.16-.09s.1,0,.16.09a.44.44,0,0,0,.68,0Z"/></g><g id="swamp_poly_sparse_half-4" data-name="swamp_poly_sparse_half"><rect id="bbox_64-4" data-name="bbox_64" class="cls-1" x="32" y="32" width="32" height="32"/><path id="swamp_sparse-13" data-name="swamp_sparse" class="cls-2" d="M36.38,36.44h0a.12.12,0,0,1-.08-.16,2.17,2.17,0,0,1,.81-1.07.12.12,0,0,1,.17.06.12.12,0,0,1-.06.16,2.07,2.07,0,0,0-.69.93A.12.12,0,0,1,36.38,36.44Zm-.26-.13a2.75,2.75,0,0,1,.47-1.54.12.12,0,0,0,0-.18.12.12,0,0,0-.17,0,3,3,0,0,0-.53,1.71.12.12,0,1,0,.24,0Zm-.5,0a3.79,3.79,0,0,0-.38-1.8.13.13,0,1,0-.23.11,3.46,3.46,0,0,1,.37,1.69.12.12,0,1,0,.24,0Zm-.46.12a.13.13,0,0,0,.09-.15,2,2,0,0,0-.54-1.06.14.14,0,0,0-.17,0,.13.13,0,0,0,0,.18,1.76,1.76,0,0,1,.46.94.14.14,0,0,0,.12.1Zm1.93.47c.06-.06.09-.09.16-.09a.12.12,0,0,0,.13-.12.13.13,0,0,0-.13-.13.48.48,0,0,0-.34.16c-.06.07-.09.09-.16.09s-.1,0-.16-.09a.44.44,0,0,0-.68,0c-.06.07-.09.09-.16.09s-.1,0-.16-.09a.44.44,0,0,0-.68,0c-.06.07-.09.09-.16.09s-.1,0-.16-.09a.48.48,0,0,0-.34-.16.13.13,0,0,0-.13.13.12.12,0,0,0,.13.12c.07,0,.1,0,.16.09a.44.44,0,0,0,.68,0c.06-.06.09-.09.16-.09s.1,0,.16.09a.44.44,0,0,0,.68,0c.06-.06.09-.09.16-.09s.1,0,.16.09a.44.44,0,0,0,.68,0Zm6.79.79h0a.12.12,0,0,1-.08-.16,2.17,2.17,0,0,1,.81-1.07.12.12,0,0,1,.17.06.12.12,0,0,1-.06.16,2.07,2.07,0,0,0-.69.93A.12.12,0,0,1,43.88,37.69Zm-.26-.13A2.75,2.75,0,0,1,44.09,36a.12.12,0,0,0,0-.18.12.12,0,0,0-.17,0,3,3,0,0,0-.53,1.71.12.12,0,1,0,.24,0Zm-.5,0a3.79,3.79,0,0,0-.38-1.8.13.13,0,1,0-.23.11,3.46,3.46,0,0,1,.37,1.69.12.12,0,1,0,.24,0Zm-.46.12a.13.13,0,0,0,.09-.15,2,2,0,0,0-.54-1.06.14.14,0,0,0-.17,0,.13.13,0,0,0,0,.18,1.76,1.76,0,0,1,.46.94.14.14,0,0,0,.12.1Zm1.93.47c.06-.06.09-.09.16-.09a.12.12,0,0,0,.13-.12.13.13,0,0,0-.13-.13.48.48,0,0,0-.34.16c-.06.07-.09.09-.16.09s-.1,0-.16-.09a.44.44,0,0,0-.68,0c-.06.07-.09.09-.16.09s-.1,0-.16-.09a.44.44,0,0,0-.68,0c-.06.07-.09.09-.16.09s-.1,0-.16-.09a.48.48,0,0,0-.34-.16.13.13,0,0,0-.13.13.12.12,0,0,0,.13.12c.07,0,.1,0,.16.09a.44.44,0,0,0,.68,0c.06-.06.09-.09.16-.09s.1,0,.16.09a.44.44,0,0,0,.68,0c.06-.06.09-.09.16-.09s.1,0,.16.09a.44.44,0,0,0,.68,0Zm-6,4.54h0a.12.12,0,0,1-.08-.16,2.17,2.17,0,0,1,.81-1.07.12.12,0,0,1,.17.06.12.12,0,0,1-.06.16,2.07,2.07,0,0,0-.69.93A.12.12,0,0,1,38.62,42.69Zm-.24-.13A2.76,2.76,0,0,1,38.84,41a.12.12,0,0,0,0-.18.12.12,0,0,0-.17,0,3,3,0,0,0-.54,1.71.13.13,0,0,0,.26,0Zm-.5,0a3.79,3.79,0,0,0-.39-1.8.13.13,0,1,0-.23.11,3.46,3.46,0,0,1,.36,1.69.13.13,0,0,0,.26,0Zm-.47.12a.13.13,0,0,0,.09-.15A2,2,0,0,0,37,41.47a.14.14,0,0,0-.17,0,.13.13,0,0,0,0,.18,1.76,1.76,0,0,1,.46.94.14.14,0,0,0,.12.1Zm1.93.47c.06-.06.09-.09.16-.09a.12.12,0,0,0,.12-.12.12.12,0,0,0-.12-.13.48.48,0,0,0-.34.16c-.06.07-.09.09-.16.09s-.1,0-.16-.09a.44.44,0,0,0-.68,0c-.06.07-.09.09-.16.09s-.1,0-.16-.09a.44.44,0,0,0-.68,0c-.06.07-.09.09-.16.09s-.1,0-.16-.09a.48.48,0,0,0-.34-.16.12.12,0,0,0-.12.13.12.12,0,0,0,.12.12c.07,0,.1,0,.16.09a.44.44,0,0,0,.68,0c.06-.06.09-.09.16-.09s.1,0,.16.09a.44.44,0,0,0,.68,0c.06-.06.09-.09.16-.09s.1,0,.16.09a.44.44,0,0,0,.68,0Zm5.78,2h0A.12.12,0,0,1,45,45,2.17,2.17,0,0,1,45.82,44,.12.12,0,0,1,46,44a.12.12,0,0,1-.06.16,2.07,2.07,0,0,0-.69.93A.12.12,0,0,1,45.12,45.19Zm-.24-.13a2.76,2.76,0,0,1,.46-1.54.12.12,0,0,0,0-.18.12.12,0,0,0-.17,0,3,3,0,0,0-.54,1.71.13.13,0,0,0,.26,0Zm-.5,0a3.79,3.79,0,0,0-.39-1.8.13.13,0,1,0-.23.11,3.46,3.46,0,0,1,.36,1.69.13.13,0,0,0,.26,0Zm-.47.12A.13.13,0,0,0,44,45,2,2,0,0,0,43.46,44a.14.14,0,0,0-.17,0,.13.13,0,0,0,0,.18,1.76,1.76,0,0,1,.46.94.14.14,0,0,0,.12.1Zm1.93.47c.06-.06.09-.09.16-.09a.12.12,0,0,0,.12-.12.12.12,0,0,0-.12-.13.48.48,0,0,0-.34.16c-.06.07-.09.09-.16.09s-.1,0-.16-.09a.44.44,0,0,0-.68,0c-.06.07-.09.09-.16.09s-.1,0-.16-.09a.44.44,0,0,0-.68,0c-.06.07-.09.09-.16.09s-.1,0-.16-.09a.48.48,0,0,0-.34-.16.12.12,0,0,0-.12.13.12.12,0,0,0,.12.12c.07,0,.1,0,.16.09a.44.44,0,0,0,.68,0c.06-.06.09-.09.16-.09s.1,0,.16.09a.44.44,0,0,0,.68,0c.06-.06.09-.09.16-.09s.1,0,.16.09a.44.44,0,0,0,.68,0Z"/><path id="swamp_sparse-14" data-name="swamp_sparse" class="cls-2" d="M36.38,52.44h0a.12.12,0,0,1-.08-.16,2.17,2.17,0,0,1,.81-1.07.12.12,0,0,1,.17.06.12.12,0,0,1-.06.16,2.07,2.07,0,0,0-.69.93A.12.12,0,0,1,36.38,52.44Zm-.26-.13a2.75,2.75,0,0,1,.47-1.54.12.12,0,0,0,0-.18.12.12,0,0,0-.17,0,3,3,0,0,0-.53,1.71.12.12,0,1,0,.24,0Zm-.5,0a3.79,3.79,0,0,0-.38-1.8.13.13,0,1,0-.23.11,3.46,3.46,0,0,1,.37,1.69.12.12,0,1,0,.24,0Zm-.46.12a.13.13,0,0,0,.09-.15,2,2,0,0,0-.54-1.06.14.14,0,0,0-.17,0,.13.13,0,0,0,0,.18,1.76,1.76,0,0,1,.46.94.14.14,0,0,0,.12.1Zm1.93.47c.06-.06.09-.09.16-.09a.12.12,0,0,0,.13-.12.13.13,0,0,0-.13-.13.48.48,0,0,0-.34.16c-.06.07-.09.09-.16.09s-.1,0-.16-.09a.44.44,0,0,0-.68,0c-.06.07-.09.09-.16.09s-.1,0-.16-.09a.44.44,0,0,0-.68,0c-.06.07-.09.09-.16.09s-.1,0-.16-.09a.48.48,0,0,0-.34-.16.13.13,0,0,0-.13.13.12.12,0,0,0,.13.12c.07,0,.1,0,.16.09a.44.44,0,0,0,.68,0c.06-.06.09-.09.16-.09s.1,0,.16.09a.44.44,0,0,0,.68,0c.06-.06.09-.09.16-.09s.1,0,.16.09a.44.44,0,0,0,.68,0Zm6.79.79h0a.12.12,0,0,1-.08-.16,2.17,2.17,0,0,1,.81-1.07.12.12,0,0,1,.17.06.12.12,0,0,1-.06.16,2.07,2.07,0,0,0-.69.93A.12.12,0,0,1,43.88,53.69Zm-.26-.13A2.75,2.75,0,0,1,44.09,52a.12.12,0,0,0,0-.18.12.12,0,0,0-.17,0,3,3,0,0,0-.53,1.71.12.12,0,1,0,.24,0Zm-.5,0a3.79,3.79,0,0,0-.38-1.8.13.13,0,1,0-.23.11,3.46,3.46,0,0,1,.37,1.69.12.12,0,1,0,.24,0Zm-.46.12a.13.13,0,0,0,.09-.15,2,2,0,0,0-.54-1.06.14.14,0,0,0-.17,0,.13.13,0,0,0,0,.18,1.76,1.76,0,0,1,.46.94.14.14,0,0,0,.12.1Zm1.93.47c.06-.06.09-.09.16-.09a.12.12,0,0,0,.13-.12.13.13,0,0,0-.13-.13.48.48,0,0,0-.34.16c-.06.07-.09.09-.16.09s-.1,0-.16-.09a.44.44,0,0,0-.68,0c-.06.07-.09.09-.16.09s-.1,0-.16-.09a.44.44,0,0,0-.68,0c-.06.07-.09.09-.16.09s-.1,0-.16-.09a.48.48,0,0,0-.34-.16.13.13,0,0,0-.13.13.12.12,0,0,0,.13.12c.07,0,.1,0,.16.09a.44.44,0,0,0,.68,0c.06-.06.09-.09.16-.09s.1,0,.16.09a.44.44,0,0,0,.68,0c.06-.06.09-.09.16-.09s.1,0,.16.09a.44.44,0,0,0,.68,0Zm-6,4.54h0a.12.12,0,0,1-.08-.16,2.17,2.17,0,0,1,.81-1.07.12.12,0,0,1,.17.06.12.12,0,0,1-.06.16,2.07,2.07,0,0,0-.69.93A.12.12,0,0,1,38.62,58.69Zm-.24-.13A2.76,2.76,0,0,1,38.84,57a.12.12,0,0,0,0-.18.12.12,0,0,0-.17,0,3,3,0,0,0-.54,1.71.13.13,0,0,0,.26,0Zm-.5,0a3.79,3.79,0,0,0-.39-1.8.13.13,0,1,0-.23.11,3.46,3.46,0,0,1,.36,1.69.13.13,0,0,0,.26,0Zm-.47.12a.13.13,0,0,0,.09-.15A2,2,0,0,0,37,57.47a.14.14,0,0,0-.17,0,.13.13,0,0,0,0,.18,1.76,1.76,0,0,1,.46.94.14.14,0,0,0,.12.1Zm1.93.47c.06-.06.09-.09.16-.09a.12.12,0,0,0,.12-.12.12.12,0,0,0-.12-.13.48.48,0,0,0-.34.16c-.06.07-.09.09-.16.09s-.1,0-.16-.09a.44.44,0,0,0-.68,0c-.06.07-.09.09-.16.09s-.1,0-.16-.09a.44.44,0,0,0-.68,0c-.06.07-.09.09-.16.09s-.1,0-.16-.09a.48.48,0,0,0-.34-.16.12.12,0,0,0-.12.13.12.12,0,0,0,.12.12c.07,0,.1,0,.16.09a.44.44,0,0,0,.68,0c.06-.06.09-.09.16-.09s.1,0,.16.09a.44.44,0,0,0,.68,0c.06-.06.09-.09.16-.09s.1,0,.16.09a.44.44,0,0,0,.68,0Zm5.78,2h0A.12.12,0,0,1,45,61,2.17,2.17,0,0,1,45.82,60,.12.12,0,0,1,46,60a.12.12,0,0,1-.06.16,2.07,2.07,0,0,0-.69.93A.12.12,0,0,1,45.12,61.19Zm-.24-.13a2.76,2.76,0,0,1,.46-1.54.12.12,0,0,0,0-.18.12.12,0,0,0-.17,0,3,3,0,0,0-.54,1.71.13.13,0,0,0,.26,0Zm-.5,0a3.79,3.79,0,0,0-.39-1.8.13.13,0,1,0-.23.11,3.46,3.46,0,0,1,.36,1.69.13.13,0,0,0,.26,0Zm-.47.12A.13.13,0,0,0,44,61,2,2,0,0,0,43.46,60a.14.14,0,0,0-.17,0,.13.13,0,0,0,0,.18,1.76,1.76,0,0,1,.46.94.14.14,0,0,0,.12.1Zm1.93.47c.06-.06.09-.09.16-.09a.12.12,0,0,0,.12-.12.12.12,0,0,0-.12-.13.48.48,0,0,0-.34.16c-.06.07-.09.09-.16.09s-.1,0-.16-.09a.44.44,0,0,0-.68,0c-.06.07-.09.09-.16.09s-.1,0-.16-.09a.44.44,0,0,0-.68,0c-.06.07-.09.09-.16.09s-.1,0-.16-.09a.48.48,0,0,0-.34-.16.12.12,0,0,0-.12.13.12.12,0,0,0,.12.12c.07,0,.1,0,.16.09a.44.44,0,0,0,.68,0c.06-.06.09-.09.16-.09s.1,0,.16.09a.44.44,0,0,0,.68,0c.06-.06.09-.09.16-.09s.1,0,.16.09a.44.44,0,0,0,.68,0Z"/><path id="swamp_sparse-15" data-name="swamp_sparse" class="cls-2" d="M52.38,36.44h0a.12.12,0,0,1-.08-.16,2.17,2.17,0,0,1,.81-1.07.12.12,0,0,1,.17.06.12.12,0,0,1-.06.16,2.07,2.07,0,0,0-.69.93A.12.12,0,0,1,52.38,36.44Zm-.26-.13a2.75,2.75,0,0,1,.47-1.54.12.12,0,0,0,0-.18.12.12,0,0,0-.17,0,3,3,0,0,0-.53,1.71.12.12,0,1,0,.24,0Zm-.5,0a3.79,3.79,0,0,0-.38-1.8.13.13,0,1,0-.23.11,3.46,3.46,0,0,1,.37,1.69.12.12,0,1,0,.24,0Zm-.46.12a.13.13,0,0,0,.09-.15,2,2,0,0,0-.54-1.06.14.14,0,0,0-.17,0,.13.13,0,0,0,0,.18,1.76,1.76,0,0,1,.46.94.14.14,0,0,0,.12.1Zm1.93.47c.06-.06.09-.09.16-.09a.12.12,0,0,0,.13-.12.13.13,0,0,0-.13-.13.48.48,0,0,0-.34.16c-.06.07-.09.09-.16.09s-.1,0-.16-.09a.44.44,0,0,0-.68,0c-.06.07-.09.09-.16.09s-.1,0-.16-.09a.44.44,0,0,0-.68,0c-.06.07-.09.09-.16.09s-.1,0-.16-.09a.48.48,0,0,0-.34-.16.13.13,0,0,0-.13.13.12.12,0,0,0,.13.12c.07,0,.1,0,.16.09a.44.44,0,0,0,.68,0c.06-.06.09-.09.16-.09s.1,0,.16.09a.44.44,0,0,0,.68,0c.06-.06.09-.09.16-.09s.1,0,.16.09a.44.44,0,0,0,.68,0Zm6.79.79h0a.12.12,0,0,1-.08-.16,2.17,2.17,0,0,1,.81-1.07.12.12,0,0,1,.17.06.12.12,0,0,1-.06.16,2.07,2.07,0,0,0-.69.93A.12.12,0,0,1,59.88,37.69Zm-.26-.13A2.75,2.75,0,0,1,60.09,36a.12.12,0,0,0,0-.18.12.12,0,0,0-.17,0,3,3,0,0,0-.53,1.71.12.12,0,1,0,.24,0Zm-.5,0a3.79,3.79,0,0,0-.38-1.8.13.13,0,1,0-.23.11,3.46,3.46,0,0,1,.37,1.69.12.12,0,1,0,.24,0Zm-.46.12a.13.13,0,0,0,.09-.15,2,2,0,0,0-.54-1.06.14.14,0,0,0-.17,0,.13.13,0,0,0,0,.18,1.76,1.76,0,0,1,.46.94.14.14,0,0,0,.12.1Zm1.93.47c.06-.06.09-.09.16-.09a.12.12,0,0,0,.13-.12.13.13,0,0,0-.13-.13.48.48,0,0,0-.34.16c-.06.07-.09.09-.16.09s-.1,0-.16-.09a.44.44,0,0,0-.68,0c-.06.07-.09.09-.16.09s-.1,0-.16-.09a.44.44,0,0,0-.68,0c-.06.07-.09.09-.16.09s-.1,0-.16-.09a.48.48,0,0,0-.34-.16.13.13,0,0,0-.13.13.12.12,0,0,0,.13.12c.07,0,.1,0,.16.09a.44.44,0,0,0,.68,0c.06-.06.09-.09.16-.09s.1,0,.16.09a.44.44,0,0,0,.68,0c.06-.06.09-.09.16-.09s.1,0,.16.09a.44.44,0,0,0,.68,0Zm-6,4.54h0a.12.12,0,0,1-.08-.16,2.17,2.17,0,0,1,.81-1.07.12.12,0,0,1,.17.06.12.12,0,0,1-.06.16,2.07,2.07,0,0,0-.69.93A.12.12,0,0,1,54.62,42.69Zm-.24-.13A2.76,2.76,0,0,1,54.84,41a.12.12,0,0,0,0-.18.12.12,0,0,0-.17,0,3,3,0,0,0-.54,1.71.13.13,0,0,0,.26,0Zm-.5,0a3.79,3.79,0,0,0-.39-1.8.13.13,0,1,0-.23.11,3.46,3.46,0,0,1,.36,1.69.13.13,0,0,0,.26,0Zm-.47.12a.13.13,0,0,0,.09-.15A2,2,0,0,0,53,41.47a.14.14,0,0,0-.17,0,.13.13,0,0,0,0,.18,1.76,1.76,0,0,1,.46.94.14.14,0,0,0,.12.1Zm1.93.47c.06-.06.09-.09.16-.09a.12.12,0,0,0,.12-.12.12.12,0,0,0-.12-.13.48.48,0,0,0-.34.16c-.06.07-.09.09-.16.09s-.1,0-.16-.09a.44.44,0,0,0-.68,0c-.06.07-.09.09-.16.09s-.1,0-.16-.09a.44.44,0,0,0-.68,0c-.06.07-.09.09-.16.09s-.1,0-.16-.09a.48.48,0,0,0-.34-.16.12.12,0,0,0-.12.13.12.12,0,0,0,.12.12c.07,0,.1,0,.16.09a.44.44,0,0,0,.68,0c.06-.06.09-.09.16-.09s.1,0,.16.09a.44.44,0,0,0,.68,0c.06-.06.09-.09.16-.09s.1,0,.16.09a.44.44,0,0,0,.68,0Zm5.78,2h0A.12.12,0,0,1,61,45,2.17,2.17,0,0,1,61.82,44,.12.12,0,0,1,62,44a.12.12,0,0,1-.06.16,2.07,2.07,0,0,0-.69.93A.12.12,0,0,1,61.12,45.19Zm-.24-.13a2.76,2.76,0,0,1,.46-1.54.12.12,0,0,0,0-.18.12.12,0,0,0-.17,0,3,3,0,0,0-.54,1.71.13.13,0,0,0,.26,0Zm-.5,0a3.79,3.79,0,0,0-.39-1.8.13.13,0,1,0-.23.11,3.46,3.46,0,0,1,.36,1.69.13.13,0,0,0,.26,0Zm-.47.12A.13.13,0,0,0,60,45,2,2,0,0,0,59.46,44a.14.14,0,0,0-.17,0,.13.13,0,0,0,0,.18,1.76,1.76,0,0,1,.46.94.14.14,0,0,0,.12.1Zm1.93.47c.06-.06.09-.09.16-.09a.12.12,0,0,0,.12-.12.12.12,0,0,0-.12-.13.48.48,0,0,0-.34.16c-.06.07-.09.09-.16.09s-.1,0-.16-.09a.44.44,0,0,0-.68,0c-.06.07-.09.09-.16.09s-.1,0-.16-.09a.44.44,0,0,0-.68,0c-.06.07-.09.09-.16.09s-.1,0-.16-.09a.48.48,0,0,0-.34-.16.12.12,0,0,0-.12.13.12.12,0,0,0,.12.12c.07,0,.1,0,.16.09a.44.44,0,0,0,.68,0c.06-.06.09-.09.16-.09s.1,0,.16.09a.44.44,0,0,0,.68,0c.06-.06.09-.09.16-.09s.1,0,.16.09a.44.44,0,0,0,.68,0Z"/><path id="swamp_sparse-16" data-name="swamp_sparse" class="cls-2" d="M52.38,52.44h0a.12.12,0,0,1-.08-.16,2.17,2.17,0,0,1,.81-1.07.12.12,0,0,1,.17.06.12.12,0,0,1-.06.16,2.07,2.07,0,0,0-.69.93A.12.12,0,0,1,52.38,52.44Zm-.26-.13a2.75,2.75,0,0,1,.47-1.54.12.12,0,0,0,0-.18.12.12,0,0,0-.17,0,3,3,0,0,0-.53,1.71.12.12,0,1,0,.24,0Zm-.5,0a3.79,3.79,0,0,0-.38-1.8.13.13,0,1,0-.23.11,3.46,3.46,0,0,1,.37,1.69.12.12,0,1,0,.24,0Zm-.46.12a.13.13,0,0,0,.09-.15,2,2,0,0,0-.54-1.06.14.14,0,0,0-.17,0,.13.13,0,0,0,0,.18,1.76,1.76,0,0,1,.46.94.14.14,0,0,0,.12.1Zm1.93.47c.06-.06.09-.09.16-.09a.12.12,0,0,0,.13-.12.13.13,0,0,0-.13-.13.48.48,0,0,0-.34.16c-.06.07-.09.09-.16.09s-.1,0-.16-.09a.44.44,0,0,0-.68,0c-.06.07-.09.09-.16.09s-.1,0-.16-.09a.44.44,0,0,0-.68,0c-.06.07-.09.09-.16.09s-.1,0-.16-.09a.48.48,0,0,0-.34-.16.13.13,0,0,0-.13.13.12.12,0,0,0,.13.12c.07,0,.1,0,.16.09a.44.44,0,0,0,.68,0c.06-.06.09-.09.16-.09s.1,0,.16.09a.44.44,0,0,0,.68,0c.06-.06.09-.09.16-.09s.1,0,.16.09a.44.44,0,0,0,.68,0Zm6.79.79h0a.12.12,0,0,1-.08-.16,2.17,2.17,0,0,1,.81-1.07.12.12,0,0,1,.17.06.12.12,0,0,1-.06.16,2.07,2.07,0,0,0-.69.93A.12.12,0,0,1,59.88,53.69Zm-.26-.13A2.75,2.75,0,0,1,60.09,52a.12.12,0,0,0,0-.18.12.12,0,0,0-.17,0,3,3,0,0,0-.53,1.71.12.12,0,1,0,.24,0Zm-.5,0a3.79,3.79,0,0,0-.38-1.8.13.13,0,1,0-.23.11,3.46,3.46,0,0,1,.37,1.69.12.12,0,1,0,.24,0Zm-.46.12a.13.13,0,0,0,.09-.15,2,2,0,0,0-.54-1.06.14.14,0,0,0-.17,0,.13.13,0,0,0,0,.18,1.76,1.76,0,0,1,.46.94.14.14,0,0,0,.12.1Zm1.93.47c.06-.06.09-.09.16-.09a.12.12,0,0,0,.13-.12.13.13,0,0,0-.13-.13.48.48,0,0,0-.34.16c-.06.07-.09.09-.16.09s-.1,0-.16-.09a.44.44,0,0,0-.68,0c-.06.07-.09.09-.16.09s-.1,0-.16-.09a.44.44,0,0,0-.68,0c-.06.07-.09.09-.16.09s-.1,0-.16-.09a.48.48,0,0,0-.34-.16.13.13,0,0,0-.13.13.12.12,0,0,0,.13.12c.07,0,.1,0,.16.09a.44.44,0,0,0,.68,0c.06-.06.09-.09.16-.09s.1,0,.16.09a.44.44,0,0,0,.68,0c.06-.06.09-.09.16-.09s.1,0,.16.09a.44.44,0,0,0,.68,0Zm-6,4.54h0a.12.12,0,0,1-.08-.16,2.17,2.17,0,0,1,.81-1.07.12.12,0,0,1,.17.06.12.12,0,0,1-.06.16,2.07,2.07,0,0,0-.69.93A.12.12,0,0,1,54.62,58.69Zm-.24-.13A2.76,2.76,0,0,1,54.84,57a.12.12,0,0,0,0-.18.12.12,0,0,0-.17,0,3,3,0,0,0-.54,1.71.13.13,0,0,0,.26,0Zm-.5,0a3.79,3.79,0,0,0-.39-1.8.13.13,0,1,0-.23.11,3.46,3.46,0,0,1,.36,1.69.13.13,0,0,0,.26,0Zm-.47.12a.13.13,0,0,0,.09-.15A2,2,0,0,0,53,57.47a.14.14,0,0,0-.17,0,.13.13,0,0,0,0,.18,1.76,1.76,0,0,1,.46.94.14.14,0,0,0,.12.1Zm1.93.47c.06-.06.09-.09.16-.09a.12.12,0,0,0,.12-.12.12.12,0,0,0-.12-.13.48.48,0,0,0-.34.16c-.06.07-.09.09-.16.09s-.1,0-.16-.09a.44.44,0,0,0-.68,0c-.06.07-.09.09-.16.09s-.1,0-.16-.09a.44.44,0,0,0-.68,0c-.06.07-.09.09-.16.09s-.1,0-.16-.09a.48.48,0,0,0-.34-.16.12.12,0,0,0-.12.13.12.12,0,0,0,.12.12c.07,0,.1,0,.16.09a.44.44,0,0,0,.68,0c.06-.06.09-.09.16-.09s.1,0,.16.09a.44.44,0,0,0,.68,0c.06-.06.09-.09.16-.09s.1,0,.16.09a.44.44,0,0,0,.68,0Zm5.78,2h0A.12.12,0,0,1,61,61,2.17,2.17,0,0,1,61.82,60,.12.12,0,0,1,62,60a.12.12,0,0,1-.06.16,2.07,2.07,0,0,0-.69.93A.12.12,0,0,1,61.12,61.19Zm-.24-.13a2.76,2.76,0,0,1,.46-1.54.12.12,0,0,0,0-.18.12.12,0,0,0-.17,0,3,3,0,0,0-.54,1.71.13.13,0,0,0,.26,0Zm-.5,0a3.79,3.79,0,0,0-.39-1.8.13.13,0,1,0-.23.11,3.46,3.46,0,0,1,.36,1.69.13.13,0,0,0,.26,0Zm-.47.12A.13.13,0,0,0,60,61,2,2,0,0,0,59.46,60a.14.14,0,0,0-.17,0,.13.13,0,0,0,0,.18,1.76,1.76,0,0,1,.46.94.14.14,0,0,0,.12.1Zm1.93.47c.06-.06.09-.09.16-.09a.12.12,0,0,0,.12-.12.12.12,0,0,0-.12-.13.48.48,0,0,0-.34.16c-.06.07-.09.09-.16.09s-.1,0-.16-.09a.44.44,0,0,0-.68,0c-.06.07-.09.09-.16.09s-.1,0-.16-.09a.44.44,0,0,0-.68,0c-.06.07-.09.09-.16.09s-.1,0-.16-.09a.48.48,0,0,0-.34-.16.12.12,0,0,0-.12.13.12.12,0,0,0,.12.12c.07,0,.1,0,.16.09a.44.44,0,0,0,.68,0c.06-.06.09-.09.16-.09s.1,0,.16.09a.44.44,0,0,0,.68,0c.06-.06.09-.09.16-.09s.1,0,.16.09a.44.44,0,0,0,.68,0Z"/></g></svg>