<svg id="Sprites" xmlns="http://www.w3.org/2000/svg" viewBox="0 0 64 64"><defs><style>.cls-1{fill:#0984ba;}</style></defs><path id="swamp_poly_dense" class="cls-1" d="M21,13a.51.51,0,0,0-.67-.23A8.77,8.77,0,0,0,17,17.09a.49.49,0,0,0,.31.63.45.45,0,0,0,.16,0,.49.49,0,0,0,.47-.34,8.06,8.06,0,0,1,2.75-3.71A.51.51,0,0,0,21,13Zm-2.62-2.65a.48.48,0,0,0-.7,0c-1.17,1.3-2.13,4.37-2.13,6.83a.5.5,0,0,0,1,0,10.86,10.86,0,0,1,1.87-6.16A.5.5,0,0,0,18.33,10.38ZM13,10a.5.5,0,1,0-.9.44,14.07,14.07,0,0,1,1.45,6.78.5.5,0,0,0,1,0A15,15,0,0,0,13,10Zm0,7.1a7.93,7.93,0,0,0-2.13-4.23.49.49,0,0,0-.7.7A7.1,7.1,0,0,1,12,17.37a.49.49,0,0,0,.48.38h.12A.5.5,0,0,0,13,17.13Zm8,1.12a1.74,1.74,0,0,0-1.35.65c-.25.24-.37.35-.65.35s-.4-.11-.65-.35a1.73,1.73,0,0,0-2.7,0c-.25.24-.37.35-.65.35s-.4-.11-.65-.35a1.73,1.73,0,0,0-2.7,0c-.25.24-.37.35-.65.35s-.4-.11-.65-.35A1.74,1.74,0,0,0,9,18.25a.5.5,0,0,0,0,1c.28,0,.4.11.65.35a1.73,1.73,0,0,0,2.7,0c.25-.24.37-.35.65-.35s.4.11.65.35a1.73,1.73,0,0,0,2.7,0c.25-.24.37-.35.65-.35s.4.11.65.35a1.73,1.73,0,0,0,2.7,0c.25-.24.37-.35.65-.35a.5.5,0,0,0,0-1ZM51,18a.51.51,0,0,0-.67-.23A8.77,8.77,0,0,0,47,22.09a.49.49,0,0,0,.31.63.45.45,0,0,0,.16,0,.49.49,0,0,0,.47-.34,8.06,8.06,0,0,1,2.75-3.71A.51.51,0,0,0,51,18Zm-2.62-2.65a.48.48,0,0,0-.7,0c-1.17,1.3-2.13,4.37-2.13,6.83a.5.5,0,0,0,1,0,10.86,10.86,0,0,1,1.87-6.16A.5.5,0,0,0,48.33,15.38ZM43,15a.5.5,0,1,0-.9.44,14.07,14.07,0,0,1,1.45,6.78.5.5,0,0,0,1,0A15,15,0,0,0,43,15Zm0,7.1a7.93,7.93,0,0,0-2.13-4.23.49.49,0,0,0-.7.7A7.1,7.1,0,0,1,42,22.37a.49.49,0,0,0,.48.38h.12A.5.5,0,0,0,43,22.13Zm8,1.12a1.74,1.74,0,0,0-1.35.65c-.25.24-.37.35-.65.35s-.4-.11-.65-.35a1.73,1.73,0,0,0-2.7,0c-.25.24-.37.35-.65.35s-.4-.11-.65-.35a1.73,1.73,0,0,0-2.7,0c-.25.24-.37.35-.65.35s-.4-.11-.65-.35A1.74,1.74,0,0,0,39,23.25a.5.5,0,0,0,0,1c.28,0,.4.11.65.35a1.73,1.73,0,0,0,2.7,0c.25-.24.37-.35.65-.35s.4.11.65.35a1.73,1.73,0,0,0,2.7,0c.25-.24.37-.35.65-.35s.4.11.65.35a1.73,1.73,0,0,0,2.7,0c.25-.24.37-.35.65-.35a.5.5,0,0,0,0-1ZM30,38a.51.51,0,0,0-.67-.23A8.77,8.77,0,0,0,26,42.09a.49.49,0,0,0,.31.63.45.45,0,0,0,.16,0,.49.49,0,0,0,.47-.34,8.06,8.06,0,0,1,2.75-3.71A.51.51,0,0,0,30,38Zm-2.62-2.65a.48.48,0,0,0-.7,0c-1.17,1.3-2.13,4.37-2.13,6.83a.5.5,0,0,0,1,0,10.86,10.86,0,0,1,1.87-6.16A.5.5,0,0,0,27.33,35.38ZM22,35a.5.5,0,1,0-.9.44,14.07,14.07,0,0,1,1.45,6.78.5.5,0,0,0,1,0A15,15,0,0,0,22,35Zm0,7.1a7.93,7.93,0,0,0-2.13-4.23.49.49,0,0,0-.7.7A7.1,7.1,0,0,1,21,42.37a.49.49,0,0,0,.48.38h.12A.5.5,0,0,0,22,42.13Zm8,1.12a1.74,1.74,0,0,0-1.35.65c-.25.24-.37.35-.65.35s-.4-.11-.65-.35a1.73,1.73,0,0,0-2.7,0c-.25.24-.37.35-.65.35s-.4-.11-.65-.35a1.73,1.73,0,0,0-2.7,0c-.25.24-.37.35-.65.35s-.4-.11-.65-.35A1.74,1.74,0,0,0,18,43.25a.5.5,0,0,0,0,1c.28,0,.4.11.65.35a1.73,1.73,0,0,0,2.7,0c.25-.24.37-.35.65-.35s.4.11.65.35a1.73,1.73,0,0,0,2.7,0c.25-.24.37-.35.65-.35s.4.11.65.35a1.73,1.73,0,0,0,2.7,0c.25-.24.37-.35.65-.35a.5.5,0,0,0,0-1ZM56,48a.51.51,0,0,0-.67-.23A8.77,8.77,0,0,0,52,52.09a.49.49,0,0,0,.31.63.45.45,0,0,0,.16,0,.49.49,0,0,0,.47-.34,8.06,8.06,0,0,1,2.75-3.71A.51.51,0,0,0,56,48Zm-2.62-2.65a.48.48,0,0,0-.7,0c-1.17,1.3-2.13,4.37-2.13,6.83a.5.5,0,0,0,1,0,10.86,10.86,0,0,1,1.87-6.16A.5.5,0,0,0,53.33,45.38ZM48,45a.5.5,0,0,0-.9.44,14.07,14.07,0,0,1,1.45,6.78.5.5,0,0,0,1,0A15,15,0,0,0,48,45Zm0,7.1a7.93,7.93,0,0,0-2.13-4.23.49.49,0,0,0-.7.7A7.1,7.1,0,0,1,47,52.37a.49.49,0,0,0,.48.38h.12A.5.5,0,0,0,48,52.13Zm8,1.12a1.74,1.74,0,0,0-1.35.65c-.25.24-.37.35-.65.35s-.4-.11-.65-.35a1.73,1.73,0,0,0-2.7,0c-.25.24-.37.35-.65.35s-.4-.11-.65-.35a1.73,1.73,0,0,0-2.7,0c-.25.24-.37.35-.65.35s-.4-.11-.65-.35A1.74,1.74,0,0,0,44,53.25a.5.5,0,0,0,0,1c.28,0,.4.11.65.35a1.73,1.73,0,0,0,2.7,0c.25-.24.37-.35.65-.35s.4.11.65.35a1.73,1.73,0,0,0,2.7,0c.25-.24.37-.35.65-.35s.4.11.65.35a1.73,1.73,0,0,0,2.7,0c.25-.24.37-.35.65-.35a.5.5,0,0,0,0-1ZM21,13a.51.51,0,0,0-.67-.23A8.77,8.77,0,0,0,17,17.09a.49.49,0,0,0,.31.63.45.45,0,0,0,.16,0,.49.49,0,0,0,.47-.34,8.06,8.06,0,0,1,2.75-3.71A.51.51,0,0,0,21,13Zm-2.62-2.65a.48.48,0,0,0-.7,0c-1.17,1.3-2.13,4.37-2.13,6.83a.5.5,0,0,0,1,0,10.86,10.86,0,0,1,1.87-6.16A.5.5,0,0,0,18.33,10.38ZM13,10a.5.5,0,1,0-.9.44,14.07,14.07,0,0,1,1.45,6.78.5.5,0,0,0,1,0A15,15,0,0,0,13,10Zm0,7.1a7.93,7.93,0,0,0-2.13-4.23.49.49,0,0,0-.7.7A7.1,7.1,0,0,1,12,17.37a.49.49,0,0,0,.48.38h.12A.5.5,0,0,0,13,17.13Zm8,1.12a1.74,1.74,0,0,0-1.35.65c-.25.24-.37.35-.65.35s-.4-.11-.65-.35a1.73,1.73,0,0,0-2.7,0c-.25.24-.37.35-.65.35s-.4-.11-.65-.35a1.73,1.73,0,0,0-2.7,0c-.25.24-.37.35-.65.35s-.4-.11-.65-.35A1.74,1.74,0,0,0,9,18.25a.5.5,0,0,0,0,1c.28,0,.4.11.65.35a1.73,1.73,0,0,0,2.7,0c.25-.24.37-.35.65-.35s.4.11.65.35a1.73,1.73,0,0,0,2.7,0c.25-.24.37-.35.65-.35s.4.11.65.35a1.73,1.73,0,0,0,2.7,0c.25-.24.37-.35.65-.35a.5.5,0,0,0,0-1ZM51,18a.51.51,0,0,0-.67-.23A8.77,8.77,0,0,0,47,22.09a.49.49,0,0,0,.31.63.45.45,0,0,0,.16,0,.49.49,0,0,0,.47-.34,8.06,8.06,0,0,1,2.75-3.71A.51.51,0,0,0,51,18Zm-2.62-2.65a.48.48,0,0,0-.7,0c-1.17,1.3-2.13,4.37-2.13,6.83a.5.5,0,0,0,1,0,10.86,10.86,0,0,1,1.87-6.16A.5.5,0,0,0,48.33,15.38ZM43,15a.5.5,0,1,0-.9.44,14.07,14.07,0,0,1,1.45,6.78.5.5,0,0,0,1,0A15,15,0,0,0,43,15Zm0,7.1a7.93,7.93,0,0,0-2.13-4.23.49.49,0,0,0-.7.7A7.1,7.1,0,0,1,42,22.37a.49.49,0,0,0,.48.38h.12A.5.5,0,0,0,43,22.13Zm8,1.12a1.74,1.74,0,0,0-1.35.65c-.25.24-.37.35-.65.35s-.4-.11-.65-.35a1.73,1.73,0,0,0-2.7,0c-.25.24-.37.35-.65.35s-.4-.11-.65-.35a1.73,1.73,0,0,0-2.7,0c-.25.24-.37.35-.65.35s-.4-.11-.65-.35A1.74,1.74,0,0,0,39,23.25a.5.5,0,0,0,0,1c.28,0,.4.11.65.35a1.73,1.73,0,0,0,2.7,0c.25-.24.37-.35.65-.35s.4.11.65.35a1.73,1.73,0,0,0,2.7,0c.25-.24.37-.35.65-.35s.4.11.65.35a1.73,1.73,0,0,0,2.7,0c.25-.24.37-.35.65-.35a.5.5,0,0,0,0-1ZM30,38a.51.51,0,0,0-.67-.23A8.77,8.77,0,0,0,26,42.09a.49.49,0,0,0,.31.63.45.45,0,0,0,.16,0,.49.49,0,0,0,.47-.34,8.06,8.06,0,0,1,2.75-3.71A.51.51,0,0,0,30,38Zm-2.62-2.65a.48.48,0,0,0-.7,0c-1.17,1.3-2.13,4.37-2.13,6.83a.5.5,0,0,0,1,0,10.86,10.86,0,0,1,1.87-6.16A.5.5,0,0,0,27.33,35.38ZM22,35a.5.5,0,1,0-.9.44,14.07,14.07,0,0,1,1.45,6.78.5.5,0,0,0,1,0A15,15,0,0,0,22,35Zm0,7.1a7.93,7.93,0,0,0-2.13-4.23.49.49,0,0,0-.7.7A7.1,7.1,0,0,1,21,42.37a.49.49,0,0,0,.48.38h.12A.5.5,0,0,0,22,42.13Zm8,1.12a1.74,1.74,0,0,0-1.35.65c-.25.24-.37.35-.65.35s-.4-.11-.65-.35a1.73,1.73,0,0,0-2.7,0c-.25.24-.37.35-.65.35s-.4-.11-.65-.35a1.73,1.73,0,0,0-2.7,0c-.25.24-.37.35-.65.35s-.4-.11-.65-.35A1.74,1.74,0,0,0,18,43.25a.5.5,0,0,0,0,1c.28,0,.4.11.65.35a1.73,1.73,0,0,0,2.7,0c.25-.24.37-.35.65-.35s.4.11.65.35a1.73,1.73,0,0,0,2.7,0c.25-.24.37-.35.65-.35s.4.11.65.35a1.73,1.73,0,0,0,2.7,0c.25-.24.37-.35.65-.35a.5.5,0,0,0,0-1ZM56,48a.51.51,0,0,0-.67-.23A8.77,8.77,0,0,0,52,52.09a.49.49,0,0,0,.31.63.45.45,0,0,0,.16,0,.49.49,0,0,0,.47-.34,8.06,8.06,0,0,1,2.75-3.71A.51.51,0,0,0,56,48Zm-2.62-2.65a.48.48,0,0,0-.7,0c-1.17,1.3-2.13,4.37-2.13,6.83a.5.5,0,0,0,1,0,10.86,10.86,0,0,1,1.87-6.16A.5.5,0,0,0,53.33,45.38ZM48,45a.5.5,0,0,0-.9.44,14.07,14.07,0,0,1,1.45,6.78.5.5,0,0,0,1,0A15,15,0,0,0,48,45Zm0,7.1a7.93,7.93,0,0,0-2.13-4.23.49.49,0,0,0-.7.7A7.1,7.1,0,0,1,47,52.37a.49.49,0,0,0,.48.38h.12A.5.5,0,0,0,48,52.13Zm8,1.12a1.74,1.74,0,0,0-1.35.65c-.25.24-.37.35-.65.35s-.4-.11-.65-.35a1.73,1.73,0,0,0-2.7,0c-.25.24-.37.35-.65.35s-.4-.11-.65-.35a1.73,1.73,0,0,0-2.7,0c-.25.24-.37.35-.65.35s-.4-.11-.65-.35A1.74,1.74,0,0,0,44,53.25a.5.5,0,0,0,0,1c.28,0,.4.11.65.35a1.73,1.73,0,0,0,2.7,0c.25-.24.37-.35.65-.35s.4.11.65.35a1.73,1.73,0,0,0,2.7,0c.25-.24.37-.35.65-.35s.4.11.65.35a1.73,1.73,0,0,0,2.7,0c.25-.24.37-.35.65-.35a.5.5,0,0,0,0-1ZM30,26.5H18a.5.5,0,0,1,0-1H30a.5.5,0,0,1,0,1Zm24,14H42a.5.5,0,0,1,0-1H54a.5.5,0,0,1,0,1ZM64,6.75v1H58.75a.5.5,0,0,1,0-1ZM56,30.5H48a.5.5,0,0,1,0-1h8a.5.5,0,0,1,0,1ZM11,36H3a.5.5,0,0,1,0-1h8a.5.5,0,0,1,0,1ZM25,55.5H13a.5.5,0,0,1,0-1H25a.5.5,0,0,1,0,1ZM36.25,2.75h-8a.5.5,0,0,1,0-1h8a.5.5,0,0,1,0,1Zm-33,4.5a.5.5,0,0,1-.5.5H0v-1H2.75A.5.5,0,0,1,3.25,7.25ZM21,13a.51.51,0,0,0-.67-.23A8.77,8.77,0,0,0,17,17.09a.49.49,0,0,0,.31.63.45.45,0,0,0,.16,0,.49.49,0,0,0,.47-.34,8.06,8.06,0,0,1,2.75-3.71A.51.51,0,0,0,21,13Zm-2.62-2.65a.48.48,0,0,0-.7,0c-1.17,1.3-2.13,4.37-2.13,6.83a.5.5,0,0,0,1,0,10.86,10.86,0,0,1,1.87-6.16A.5.5,0,0,0,18.33,10.38ZM13,10a.5.5,0,1,0-.9.44,14.07,14.07,0,0,1,1.45,6.78.5.5,0,0,0,1,0A15,15,0,0,0,13,10Zm0,7.1a7.93,7.93,0,0,0-2.13-4.23.49.49,0,0,0-.7.7A7.1,7.1,0,0,1,12,17.37a.49.49,0,0,0,.48.38h.12A.5.5,0,0,0,13,17.13Zm8,1.12a1.74,1.74,0,0,0-1.35.65c-.25.24-.37.35-.65.35s-.4-.11-.65-.35a1.73,1.73,0,0,0-2.7,0c-.25.24-.37.35-.65.35s-.4-.11-.65-.35a1.73,1.73,0,0,0-2.7,0c-.25.24-.37.35-.65.35s-.4-.11-.65-.35A1.74,1.74,0,0,0,9,18.25a.5.5,0,0,0,0,1c.28,0,.4.11.65.35a1.73,1.73,0,0,0,2.7,0c.25-.24.37-.35.65-.35s.4.11.65.35a1.73,1.73,0,0,0,2.7,0c.25-.24.37-.35.65-.35s.4.11.65.35a1.73,1.73,0,0,0,2.7,0c.25-.24.37-.35.65-.35a.5.5,0,0,0,0-1ZM51,18a.51.51,0,0,0-.67-.23A8.77,8.77,0,0,0,47,22.09a.49.49,0,0,0,.31.63.45.45,0,0,0,.16,0,.49.49,0,0,0,.47-.34,8.06,8.06,0,0,1,2.75-3.71A.51.51,0,0,0,51,18Zm-2.62-2.65a.48.48,0,0,0-.7,0c-1.17,1.3-2.13,4.37-2.13,6.83a.5.5,0,0,0,1,0,10.86,10.86,0,0,1,1.87-6.16A.5.5,0,0,0,48.33,15.38ZM43,15a.5.5,0,1,0-.9.44,14.07,14.07,0,0,1,1.45,6.78.5.5,0,0,0,1,0A15,15,0,0,0,43,15Zm0,7.1a7.93,7.93,0,0,0-2.13-4.23.49.49,0,0,0-.7.7A7.1,7.1,0,0,1,42,22.37a.49.49,0,0,0,.48.38h.12A.5.5,0,0,0,43,22.13Zm8,1.12a1.74,1.74,0,0,0-1.35.65c-.25.24-.37.35-.65.35s-.4-.11-.65-.35a1.73,1.73,0,0,0-2.7,0c-.25.24-.37.35-.65.35s-.4-.11-.65-.35a1.73,1.73,0,0,0-2.7,0c-.25.24-.37.35-.65.35s-.4-.11-.65-.35A1.74,1.74,0,0,0,39,23.25a.5.5,0,0,0,0,1c.28,0,.4.11.65.35a1.73,1.73,0,0,0,2.7,0c.25-.24.37-.35.65-.35s.4.11.65.35a1.73,1.73,0,0,0,2.7,0c.25-.24.37-.35.65-.35s.4.11.65.35a1.73,1.73,0,0,0,2.7,0c.25-.24.37-.35.65-.35a.5.5,0,0,0,0-1ZM30,38a.51.51,0,0,0-.67-.23A8.77,8.77,0,0,0,26,42.09a.49.49,0,0,0,.31.63.45.45,0,0,0,.16,0,.49.49,0,0,0,.47-.34,8.06,8.06,0,0,1,2.75-3.71A.51.51,0,0,0,30,38Zm-2.62-2.65a.48.48,0,0,0-.7,0c-1.17,1.3-2.13,4.37-2.13,6.83a.5.5,0,0,0,1,0,10.86,10.86,0,0,1,1.87-6.16A.5.5,0,0,0,27.33,35.38ZM22,35a.5.5,0,1,0-.9.44,14.07,14.07,0,0,1,1.45,6.78.5.5,0,0,0,1,0A15,15,0,0,0,22,35Zm0,7.1a7.93,7.93,0,0,0-2.13-4.23.49.49,0,0,0-.7.7A7.1,7.1,0,0,1,21,42.37a.49.49,0,0,0,.48.38h.12A.5.5,0,0,0,22,42.13Zm8,1.12a1.74,1.74,0,0,0-1.35.65c-.25.24-.37.35-.65.35s-.4-.11-.65-.35a1.73,1.73,0,0,0-2.7,0c-.25.24-.37.35-.65.35s-.4-.11-.65-.35a1.73,1.73,0,0,0-2.7,0c-.25.24-.37.35-.65.35s-.4-.11-.65-.35A1.74,1.74,0,0,0,18,43.25a.5.5,0,0,0,0,1c.28,0,.4.11.65.35a1.73,1.73,0,0,0,2.7,0c.25-.24.37-.35.65-.35s.4.11.65.35a1.73,1.73,0,0,0,2.7,0c.25-.24.37-.35.65-.35s.4.11.65.35a1.73,1.73,0,0,0,2.7,0c.25-.24.37-.35.65-.35a.5.5,0,0,0,0-1ZM56,48a.51.51,0,0,0-.67-.23A8.77,8.77,0,0,0,52,52.09a.49.49,0,0,0,.31.63.45.45,0,0,0,.16,0,.49.49,0,0,0,.47-.34,8.06,8.06,0,0,1,2.75-3.71A.51.51,0,0,0,56,48Zm-2.62-2.65a.48.48,0,0,0-.7,0c-1.17,1.3-2.13,4.37-2.13,6.83a.5.5,0,0,0,1,0,10.86,10.86,0,0,1,1.87-6.16A.5.5,0,0,0,53.33,45.38ZM48,45a.5.5,0,0,0-.9.44,14.07,14.07,0,0,1,1.45,6.78.5.5,0,0,0,1,0A15,15,0,0,0,48,45Zm0,7.1a7.93,7.93,0,0,0-2.13-4.23.49.49,0,0,0-.7.7A7.1,7.1,0,0,1,47,52.37a.49.49,0,0,0,.48.38h.12A.5.5,0,0,0,48,52.13Zm8,1.12a1.74,1.74,0,0,0-1.35.65c-.25.24-.37.35-.65.35s-.4-.11-.65-.35a1.73,1.73,0,0,0-2.7,0c-.25.24-.37.35-.65.35s-.4-.11-.65-.35a1.73,1.73,0,0,0-2.7,0c-.25.24-.37.35-.65.35s-.4-.11-.65-.35A1.74,1.74,0,0,0,44,53.25a.5.5,0,0,0,0,1c.28,0,.4.11.65.35a1.73,1.73,0,0,0,2.7,0c.25-.24.37-.35.65-.35s.4.11.65.35a1.73,1.73,0,0,0,2.7,0c.25-.24.37-.35.65-.35s.4.11.65.35a1.73,1.73,0,0,0,2.7,0c.25-.24.37-.35.65-.35a.5.5,0,0,0,0-1ZM21,13a.51.51,0,0,0-.67-.23A8.77,8.77,0,0,0,17,17.09a.49.49,0,0,0,.31.63.45.45,0,0,0,.16,0,.49.49,0,0,0,.47-.34,8.06,8.06,0,0,1,2.75-3.71A.51.51,0,0,0,21,13Zm-2.62-2.65a.48.48,0,0,0-.7,0c-1.17,1.3-2.13,4.37-2.13,6.83a.5.5,0,0,0,1,0,10.86,10.86,0,0,1,1.87-6.16A.5.5,0,0,0,18.33,10.38ZM13,10a.5.5,0,1,0-.9.44,14.07,14.07,0,0,1,1.45,6.78.5.5,0,0,0,1,0A15,15,0,0,0,13,10Zm0,7.1a7.93,7.93,0,0,0-2.13-4.23.49.49,0,0,0-.7.7A7.1,7.1,0,0,1,12,17.37a.49.49,0,0,0,.48.38h.12A.5.5,0,0,0,13,17.13Zm8,1.12a1.74,1.74,0,0,0-1.35.65c-.25.24-.37.35-.65.35s-.4-.11-.65-.35a1.73,1.73,0,0,0-2.7,0c-.25.24-.37.35-.65.35s-.4-.11-.65-.35a1.73,1.73,0,0,0-2.7,0c-.25.24-.37.35-.65.35s-.4-.11-.65-.35A1.74,1.74,0,0,0,9,18.25a.5.5,0,0,0,0,1c.28,0,.4.11.65.35a1.73,1.73,0,0,0,2.7,0c.25-.24.37-.35.65-.35s.4.11.65.35a1.73,1.73,0,0,0,2.7,0c.25-.24.37-.35.65-.35s.4.11.65.35a1.73,1.73,0,0,0,2.7,0c.25-.24.37-.35.65-.35a.5.5,0,0,0,0-1ZM51,18a.51.51,0,0,0-.67-.23A8.77,8.77,0,0,0,47,22.09a.49.49,0,0,0,.31.63.45.45,0,0,0,.16,0,.49.49,0,0,0,.47-.34,8.06,8.06,0,0,1,2.75-3.71A.51.51,0,0,0,51,18Zm-2.62-2.65a.48.48,0,0,0-.7,0c-1.17,1.3-2.13,4.37-2.13,6.83a.5.5,0,0,0,1,0,10.86,10.86,0,0,1,1.87-6.16A.5.5,0,0,0,48.33,15.38ZM43,15a.5.5,0,1,0-.9.44,14.07,14.07,0,0,1,1.45,6.78.5.5,0,0,0,1,0A15,15,0,0,0,43,15Zm0,7.1a7.93,7.93,0,0,0-2.13-4.23.49.49,0,0,0-.7.7A7.1,7.1,0,0,1,42,22.37a.49.49,0,0,0,.48.38h.12A.5.5,0,0,0,43,22.13Zm8,1.12a1.74,1.74,0,0,0-1.35.65c-.25.24-.37.35-.65.35s-.4-.11-.65-.35a1.73,1.73,0,0,0-2.7,0c-.25.24-.37.35-.65.35s-.4-.11-.65-.35a1.73,1.73,0,0,0-2.7,0c-.25.24-.37.35-.65.35s-.4-.11-.65-.35A1.74,1.74,0,0,0,39,23.25a.5.5,0,0,0,0,1c.28,0,.4.11.65.35a1.73,1.73,0,0,0,2.7,0c.25-.24.37-.35.65-.35s.4.11.65.35a1.73,1.73,0,0,0,2.7,0c.25-.24.37-.35.65-.35s.4.11.65.35a1.73,1.73,0,0,0,2.7,0c.25-.24.37-.35.65-.35a.5.5,0,0,0,0-1ZM30,38a.51.51,0,0,0-.67-.23A8.77,8.77,0,0,0,26,42.09a.49.49,0,0,0,.31.63.45.45,0,0,0,.16,0,.49.49,0,0,0,.47-.34,8.06,8.06,0,0,1,2.75-3.71A.51.51,0,0,0,30,38Zm-2.62-2.65a.48.48,0,0,0-.7,0c-1.17,1.3-2.13,4.37-2.13,6.83a.5.5,0,0,0,1,0,10.86,10.86,0,0,1,1.87-6.16A.5.5,0,0,0,27.33,35.38ZM22,35a.5.5,0,1,0-.9.44,14.07,14.07,0,0,1,1.45,6.78.5.5,0,0,0,1,0A15,15,0,0,0,22,35Zm0,7.1a7.93,7.93,0,0,0-2.13-4.23.49.49,0,0,0-.7.7A7.1,7.1,0,0,1,21,42.37a.49.49,0,0,0,.48.38h.12A.5.5,0,0,0,22,42.13Zm8,1.12a1.74,1.74,0,0,0-1.35.65c-.25.24-.37.35-.65.35s-.4-.11-.65-.35a1.73,1.73,0,0,0-2.7,0c-.25.24-.37.35-.65.35s-.4-.11-.65-.35a1.73,1.73,0,0,0-2.7,0c-.25.24-.37.35-.65.35s-.4-.11-.65-.35A1.74,1.74,0,0,0,18,43.25a.5.5,0,0,0,0,1c.28,0,.4.11.65.35a1.73,1.73,0,0,0,2.7,0c.25-.24.37-.35.65-.35s.4.11.65.35a1.73,1.73,0,0,0,2.7,0c.25-.24.37-.35.65-.35s.4.11.65.35a1.73,1.73,0,0,0,2.7,0c.25-.24.37-.35.65-.35a.5.5,0,0,0,0-1ZM56,48a.51.51,0,0,0-.67-.23A8.77,8.77,0,0,0,52,52.09a.49.49,0,0,0,.31.63.45.45,0,0,0,.16,0,.49.49,0,0,0,.47-.34,8.06,8.06,0,0,1,2.75-3.71A.51.51,0,0,0,56,48Zm-2.62-2.65a.48.48,0,0,0-.7,0c-1.17,1.3-2.13,4.37-2.13,6.83a.5.5,0,0,0,1,0,10.86,10.86,0,0,1,1.87-6.16A.5.5,0,0,0,53.33,45.38ZM48,45a.5.5,0,0,0-.9.44,14.07,14.07,0,0,1,1.45,6.78.5.5,0,0,0,1,0A15,15,0,0,0,48,45Zm0,7.1a7.93,7.93,0,0,0-2.13-4.23.49.49,0,0,0-.7.7A7.1,7.1,0,0,1,47,52.37a.49.49,0,0,0,.48.38h.12A.5.5,0,0,0,48,52.13Zm8,1.12a1.74,1.74,0,0,0-1.35.65c-.25.24-.37.35-.65.35s-.4-.11-.65-.35a1.73,1.73,0,0,0-2.7,0c-.25.24-.37.35-.65.35s-.4-.11-.65-.35a1.73,1.73,0,0,0-2.7,0c-.25.24-.37.35-.65.35s-.4-.11-.65-.35A1.74,1.74,0,0,0,44,53.25a.5.5,0,0,0,0,1c.28,0,.4.11.65.35a1.73,1.73,0,0,0,2.7,0c.25-.24.37-.35.65-.35s.4.11.65.35a1.73,1.73,0,0,0,2.7,0c.25-.24.37-.35.65-.35s.4.11.65.35a1.73,1.73,0,0,0,2.7,0c.25-.24.37-.35.65-.35a.5.5,0,0,0,0-1ZM30,26.5H18a.5.5,0,0,1,0-1H30a.5.5,0,0,1,0,1Zm24,14H42a.5.5,0,0,1,0-1H54a.5.5,0,0,1,0,1ZM64,6.75v1H58.75a.5.5,0,0,1,0-1ZM56,30.5H48a.5.5,0,0,1,0-1h8a.5.5,0,0,1,0,1ZM11,36H3a.5.5,0,0,1,0-1h8a.5.5,0,0,1,0,1ZM25,55.5H13a.5.5,0,0,1,0-1H25a.5.5,0,0,1,0,1ZM36.25,2.75h-8a.5.5,0,0,1,0-1h8a.5.5,0,0,1,0,1Zm-33,4.5a.5.5,0,0,1-.5.5H0v-1H2.75A.5.5,0,0,1,3.25,7.25Z"/></svg>