<svg id="Sprites" xmlns="http://www.w3.org/2000/svg" viewBox="0 0 16 16"><defs><style>.cls-1{fill:none;}.cls-2{fill:#0984ba;}</style></defs><g id="swamp_pnt_blue"><rect id="bbox_16" class="cls-1" width="16" height="16"/><path id="swamp" class="cls-2" d="M10.5,10a.45.45,0,0,1-.16,0A.49.49,0,0,1,10,9.34a8.77,8.77,0,0,1,3.25-4.29.5.5,0,0,1,.44.9A8.06,8.06,0,0,0,11,9.66.49.49,0,0,1,10.5,10Zm-1-.5a10.92,10.92,0,0,1,1.87-6.17.5.5,0,0,0-.74-.66C9.46,4,8.5,7,8.5,9.5a.5.5,0,0,0,1,0Zm-2,0A15,15,0,0,0,6,2.28a.5.5,0,0,0-.9.44A14.07,14.07,0,0,1,6.5,9.5a.5.5,0,0,0,1,0ZM5.62,10A.5.5,0,0,0,6,9.38,7.93,7.93,0,0,0,3.85,5.15a.49.49,0,0,0-.7.7A7.1,7.1,0,0,1,5,9.62.49.49,0,0,0,5.5,10Zm7.73,1.86c.25-.24.37-.35.65-.35a.5.5,0,0,0,0-1,1.74,1.74,0,0,0-1.35.65c-.25.24-.37.35-.65.35s-.4-.11-.65-.35a1.73,1.73,0,0,0-2.7,0c-.25.24-.37.35-.65.35s-.4-.11-.65-.35a1.73,1.73,0,0,0-2.7,0c-.25.24-.37.35-.65.35s-.4-.11-.65-.35A1.74,1.74,0,0,0,2,10.5a.5.5,0,0,0,0,1c.28,0,.4.11.65.35a1.73,1.73,0,0,0,2.7,0c.25-.24.37-.35.65-.35s.4.11.65.35a1.73,1.73,0,0,0,2.7,0c.25-.24.37-.35.65-.35s.4.11.65.35a1.73,1.73,0,0,0,2.7,0Z"/></g></svg>