<svg id="Sprites" xmlns="http://www.w3.org/2000/svg" viewBox="0 0 16 16"><defs><style>.cls-1{fill:none;}.cls-2{fill:#fff;}</style></defs><g id="track_walking_pnt_fill"><rect id="bbox_16" class="cls-1" width="16" height="16"/><circle class="cls-2" cx="8" cy="8" r="7"/><path d="M8,15a7,7,0,1,1,7-7A7,7,0,0,1,8,15ZM8,2a6,6,0,1,0,6,6A6,6,0,0,0,8,2ZM8,4.25A.75.75,0,1,1,8.75,5,.76.76,0,0,1,8,4.25Zm2.49,7.63a.51.51,0,0,1-.37.61H10a.51.51,0,0,1-.49-.38l-.46-1.86L9,10.2l-.76,1.89a.25.25,0,0,1-.23.16l-.09,0a.24.24,0,0,1-.14-.32l.84-2.1L8,9.21V10a.54.54,0,0,1-.1.3l-1.5,2a.51.51,0,0,1-.4.2.49.49,0,0,1-.3-.1.5.5,0,0,1-.1-.7L7,9.83V8.1a.5.5,0,0,1-.27.35.51.51,0,0,1-.44,0l-1-.5A.5.5,0,0,1,5,7.38l.5-2A.49.49,0,0,1,6,5H7a.53.53,0,0,1,.39.18.56.56,0,0,1,.1.33l0-.11A.49.49,0,0,1,7.82,5a.52.52,0,0,1,.48.07l2,1.5a.5.5,0,0,1-.23.9L9.39,9.19l.46.46a.49.49,0,0,1,.14.23ZM9,8.8,9.6,7.33l-.77-.58L8.48,8.12s0,.06-.06.1Z"/></g></svg>