<svg id="Sprites" xmlns="http://www.w3.org/2000/svg" viewBox="0 0 16 16"><defs><style>.cls-1{fill:none;}.cls-2{fill:#fff;}</style></defs><g id="track_mtb_pnt_fill"><rect id="bbox_16" class="cls-1" width="16" height="16"/><circle class="cls-2" cx="8" cy="8" r="7"/><path d="M8,1A7,7,0,0,0,1,8a2.27,2.27,0,0,0,0,.45A7,7,0,1,0,8,1Zm4.47,11-3-.49L8,11H7L6,10,4,9.5l-1-1L2,7.84A6,6,0,0,1,14,8,5.88,5.88,0,0,1,12.47,12Z"/><path d="M10,5.25a.75.75,0,1,1,.75.75A.76.76,0,0,1,10,5.25ZM12,10a1.5,1.5,0,1,1-1.75-1.47V7.9L8,9a.49.49,0,0,1-.49.47A.49.49,0,0,1,7,9.08l-.74-.3a1.5,1.5,0,1,1,0-1.56l1-.42-.18-.71a.37.37,0,0,1,.15-.4L8.3,5A.4.4,0,0,1,8.56,5l1,.16a.38.38,0,0,1,.32.37v.77l.79.4a.36.36,0,0,1,.16.5.44.44,0,0,1-.08.11V8.53A1.49,1.49,0,0,1,12,10ZM7.93,6.17l.17.68L10,7.16l-.65-.33a.38.38,0,0,1-.21-.33V5.82l-.53-.09ZM5.79,8.59l-.88-.36a.25.25,0,0,1,0-.46l.88-.36A1,1,0,0,0,5,7,1,1,0,0,0,5,9,1,1,0,0,0,5.79,8.59ZM6,7.88,5.67,8,6,8.12S6,8,6,8,6,7.92,6,7.88ZM6.5,8a1.17,1.17,0,0,1,0,.32l.74.29h0l0-.21v-1l-.78.31A1.73,1.73,0,0,1,6.5,8Zm3.2-.38L8.22,7.37a.41.41,0,0,1,0,.11L8,8.47ZM11.5,10a1,1,0,0,0-.75-.95V10a.25.25,0,0,1-.5,0V9.05A1,1,0,0,0,9.5,10a1,1,0,0,0,2,0Z"/></g></svg>