<svg id="Sprites" xmlns="http://www.w3.org/2000/svg" viewBox="0 0 64 64"><defs><style>.cls-1{fill:none;}.cls-2{fill:#236035;}</style></defs><g id="vineyard_poly_grid_sparse_half"><rect id="bbox_64" class="cls-1" width="64" height="64"/><path id="vineyard_grid_sparse" class="cls-2" d="M5.51,5.7a.72.72,0,0,0,.24-.55A.76.76,0,0,0,5,4.4l-.12,0A2.74,2.74,0,0,1,6.33,3.14l-.16-.47A3.08,3.08,0,0,0,5,3.42v0a1.07,1.07,0,0,0-.85-1.1l-.29-.12L3.5,2v.4A1.16,1.16,0,0,0,4.75,3.65h0a3,3,0,0,0-.4.62A.75.75,0,0,0,3,4.65v0a.7.7,0,0,0-.25,0A.76.76,0,0,0,2,5.4a.76.76,0,0,0,.49.71.72.72,0,0,0-.24.54.76.76,0,0,0,.49.71.72.72,0,0,0-.24.54A.75.75,0,0,0,4,7.9v0a.69.69,0,0,0,.25,0A.75.75,0,0,0,5,7.15v0a.69.69,0,0,0,.25,0A.75.75,0,0,0,6,6.4.76.76,0,0,0,5.51,5.7Zm10.66,0a.73.73,0,0,0,.25-.55.76.76,0,0,0-.75-.75l-.12,0A2.74,2.74,0,0,1,17,3.14l-.16-.47a3.08,3.08,0,0,0-1.17.75v0a1.07,1.07,0,0,0-.85-1.1,1.78,1.78,0,0,1-.29-.12L14.17,2v.4a1.16,1.16,0,0,0,1.25,1.25h0a3,3,0,0,0-.4.62.76.76,0,0,0-.64-.37.75.75,0,0,0-.75.75v0a.7.7,0,0,0-.25,0,.75.75,0,0,0-.26,1.46.72.72,0,0,0-.24.54.75.75,0,0,0,.49.71.72.72,0,0,0-.24.54.75.75,0,0,0,1.5,0s0,0,0,0a.77.77,0,0,0,1-.71s0,0,0,0a.77.77,0,0,0,1-.71A.76.76,0,0,0,16.17,5.7Zm10.67,0a.72.72,0,0,0,.24-.55.75.75,0,0,0-.75-.75l-.12,0a2.78,2.78,0,0,1,1.45-1.28l-.16-.47a3.16,3.16,0,0,0-1.17.75v0a1.07,1.07,0,0,0-.85-1.1,1.69,1.69,0,0,1-.28-.12L24.83,2v.4a1.16,1.16,0,0,0,1.25,1.25h.05a3.5,3.5,0,0,0-.41.62.74.74,0,0,0-.64-.37.76.76,0,0,0-.75.75.43.43,0,0,0,0,0,.74.74,0,0,0-1,.7.76.76,0,0,0,.49.71.76.76,0,0,0-.24.54.76.76,0,0,0,.49.71.74.74,0,0,0,.51,1.29.74.74,0,0,0,.75-.75v0a.69.69,0,0,0,.25,0,.74.74,0,0,0,.75-.75v0a.69.69,0,0,0,.25,0,.75.75,0,0,0,.26-1.45ZM5.51,21.7a.72.72,0,0,0,.24-.55A.76.76,0,0,0,5,20.4l-.12,0a2.74,2.74,0,0,1,1.45-1.28l-.16-.47A3.08,3.08,0,0,0,5,19.42v0a1.07,1.07,0,0,0-.85-1.1l-.29-.12L3.5,18v.4a1.16,1.16,0,0,0,1.25,1.25h0a3,3,0,0,0-.4.62A.75.75,0,0,0,3,20.65v.05a.7.7,0,0,0-.25-.05A.76.76,0,0,0,2,21.4a.76.76,0,0,0,.49.71.72.72,0,0,0-.24.54.76.76,0,0,0,.49.71.72.72,0,0,0-.24.54.75.75,0,0,0,1.5,0v0a.69.69,0,0,0,.25,0A.75.75,0,0,0,5,23.15v0a.69.69,0,0,0,.25,0A.75.75,0,0,0,6,22.4.76.76,0,0,0,5.51,21.7Zm10.66,0a.73.73,0,0,0,.25-.55.76.76,0,0,0-.75-.75l-.12,0A2.74,2.74,0,0,1,17,19.14l-.16-.47a3.08,3.08,0,0,0-1.17.75v0a1.07,1.07,0,0,0-.85-1.1,1.78,1.78,0,0,1-.29-.12L14.17,18v.4a1.16,1.16,0,0,0,1.25,1.25h0a3,3,0,0,0-.4.62.76.76,0,0,0-.64-.37.75.75,0,0,0-.75.75v.05a.7.7,0,0,0-.25-.05.75.75,0,0,0-.26,1.46.72.72,0,0,0-.24.54.75.75,0,0,0,.49.71.72.72,0,0,0-.24.54.75.75,0,0,0,1.5,0s0,0,0,0a.77.77,0,0,0,1-.71s0,0,0,0a.77.77,0,0,0,1-.71A.76.76,0,0,0,16.17,21.7Zm10.67,0a.72.72,0,0,0,.24-.55.75.75,0,0,0-.75-.75l-.12,0a2.78,2.78,0,0,1,1.45-1.28l-.16-.47a3.16,3.16,0,0,0-1.17.75v0a1.07,1.07,0,0,0-.85-1.1,1.69,1.69,0,0,1-.28-.12L24.83,18v.4a1.16,1.16,0,0,0,1.25,1.25h.05a3.5,3.5,0,0,0-.41.62.74.74,0,0,0-.64-.37.76.76,0,0,0-.75.75.43.43,0,0,0,0,.05.74.74,0,0,0-1,.7.76.76,0,0,0,.49.71.76.76,0,0,0-.24.54.76.76,0,0,0,.49.71.74.74,0,0,0,.51,1.29.74.74,0,0,0,.75-.75v0a.69.69,0,0,0,.25,0,.74.74,0,0,0,.75-.75v0a.69.69,0,0,0,.25,0,.75.75,0,0,0,.26-1.45Z"/><path id="vineyard_grid_sparse-2" data-name="vineyard_grid_sparse" class="cls-2" d="M5.51,37.7a.72.72,0,0,0,.24-.55A.76.76,0,0,0,5,36.4l-.12,0a2.74,2.74,0,0,1,1.45-1.28l-.16-.47A3.08,3.08,0,0,0,5,35.42v0a1.07,1.07,0,0,0-.85-1.1l-.29-.12L3.5,34v.4a1.16,1.16,0,0,0,1.25,1.25h0a3,3,0,0,0-.4.62A.75.75,0,0,0,3,36.65v.05a.7.7,0,0,0-.25-.05A.76.76,0,0,0,2,37.4a.76.76,0,0,0,.49.71.72.72,0,0,0-.24.54.76.76,0,0,0,.49.71.72.72,0,0,0-.24.54.75.75,0,0,0,1.5,0v0a.69.69,0,0,0,.25,0A.75.75,0,0,0,5,39.15v0a.69.69,0,0,0,.25,0A.75.75,0,0,0,6,38.4.76.76,0,0,0,5.51,37.7Zm10.66,0a.73.73,0,0,0,.25-.55.76.76,0,0,0-.75-.75l-.12,0A2.74,2.74,0,0,1,17,35.14l-.16-.47a3.08,3.08,0,0,0-1.17.75v0a1.07,1.07,0,0,0-.85-1.1,1.78,1.78,0,0,1-.29-.12L14.17,34v.4a1.16,1.16,0,0,0,1.25,1.25h0a3,3,0,0,0-.4.62.76.76,0,0,0-.64-.37.75.75,0,0,0-.75.75v.05a.7.7,0,0,0-.25-.05.75.75,0,0,0-.26,1.46.72.72,0,0,0-.24.54.75.75,0,0,0,.49.71.72.72,0,0,0-.24.54.75.75,0,0,0,1.5,0v0a.77.77,0,0,0,1-.71v0a.77.77,0,0,0,1-.71A.76.76,0,0,0,16.17,37.7Zm10.67,0a.72.72,0,0,0,.24-.55.75.75,0,0,0-.75-.75l-.12,0a2.78,2.78,0,0,1,1.45-1.28l-.16-.47a3.16,3.16,0,0,0-1.17.75v0a1.07,1.07,0,0,0-.85-1.1,1.69,1.69,0,0,1-.28-.12L24.83,34v.4a1.16,1.16,0,0,0,1.25,1.25h.05a3.5,3.5,0,0,0-.41.62.74.74,0,0,0-.64-.37.76.76,0,0,0-.75.75.43.43,0,0,0,0,.05.74.74,0,0,0-1,.7.76.76,0,0,0,.49.71.76.76,0,0,0-.24.54.76.76,0,0,0,.49.71.74.74,0,0,0,.51,1.29.74.74,0,0,0,.75-.75v0a.69.69,0,0,0,.25,0,.74.74,0,0,0,.75-.75v0a.69.69,0,0,0,.25,0,.75.75,0,0,0,.26-1.45ZM5.51,53.7a.72.72,0,0,0,.24-.55A.76.76,0,0,0,5,52.4l-.12,0a2.74,2.74,0,0,1,1.45-1.28l-.16-.47A3.08,3.08,0,0,0,5,51.42v0a1.07,1.07,0,0,0-.85-1.1l-.29-.12L3.5,50v.4a1.16,1.16,0,0,0,1.25,1.25h0a3,3,0,0,0-.4.62A.75.75,0,0,0,3,52.65v.05a.7.7,0,0,0-.25-.05A.76.76,0,0,0,2,53.4a.76.76,0,0,0,.49.71.72.72,0,0,0-.24.54.76.76,0,0,0,.49.71.72.72,0,0,0-.24.54.75.75,0,0,0,1.5,0v0a.69.69,0,0,0,.25,0A.75.75,0,0,0,5,55.15v0a.69.69,0,0,0,.25,0A.75.75,0,0,0,6,54.4.76.76,0,0,0,5.51,53.7Zm10.66,0a.73.73,0,0,0,.25-.55.76.76,0,0,0-.75-.75l-.12,0A2.74,2.74,0,0,1,17,51.14l-.16-.47a3.08,3.08,0,0,0-1.17.75v0a1.07,1.07,0,0,0-.85-1.1,1.78,1.78,0,0,1-.29-.12L14.17,50v.4a1.16,1.16,0,0,0,1.25,1.25h0a3,3,0,0,0-.4.62.76.76,0,0,0-.64-.37.75.75,0,0,0-.75.75v.05a.7.7,0,0,0-.25-.05.75.75,0,0,0-.26,1.46.72.72,0,0,0-.24.54.75.75,0,0,0,.49.71.72.72,0,0,0-.24.54.75.75,0,0,0,1.5,0v0a.77.77,0,0,0,1-.71v0a.77.77,0,0,0,1-.71A.76.76,0,0,0,16.17,53.7Zm10.67,0a.72.72,0,0,0,.24-.55.75.75,0,0,0-.75-.75l-.12,0a2.78,2.78,0,0,1,1.45-1.28l-.16-.47a3.16,3.16,0,0,0-1.17.75v0a1.07,1.07,0,0,0-.85-1.1,1.69,1.69,0,0,1-.28-.12L24.83,50v.4a1.16,1.16,0,0,0,1.25,1.25h.05a3.5,3.5,0,0,0-.41.62.74.74,0,0,0-.64-.37.76.76,0,0,0-.75.75.43.43,0,0,0,0,.05.74.74,0,0,0-1,.7.76.76,0,0,0,.49.71.76.76,0,0,0-.24.54.76.76,0,0,0,.49.71.74.74,0,0,0,.51,1.29.74.74,0,0,0,.75-.75v0a.69.69,0,0,0,.25,0,.74.74,0,0,0,.75-.75v0a.69.69,0,0,0,.25,0,.75.75,0,0,0,.26-1.45Z"/><path id="vineyard_grid_sparse-3" data-name="vineyard_grid_sparse" class="cls-2" d="M37.51,5.7a.72.72,0,0,0,.24-.55A.76.76,0,0,0,37,4.4l-.12,0a2.74,2.74,0,0,1,1.45-1.28l-.16-.47A3.08,3.08,0,0,0,37,3.42v0a1.07,1.07,0,0,0-.85-1.1l-.29-.12L35.5,2v.4a1.16,1.16,0,0,0,1.25,1.25h0a3,3,0,0,0-.4.62A.75.75,0,0,0,35,4.65v0a.7.7,0,0,0-.25,0A.76.76,0,0,0,34,5.4a.76.76,0,0,0,.49.71.72.72,0,0,0-.24.54.76.76,0,0,0,.49.71.72.72,0,0,0-.24.54.75.75,0,0,0,1.5,0v0a.69.69,0,0,0,.25,0A.75.75,0,0,0,37,7.15v0a.69.69,0,0,0,.25,0A.75.75,0,0,0,38,6.4.76.76,0,0,0,37.51,5.7Zm10.66,0a.73.73,0,0,0,.25-.55.76.76,0,0,0-.75-.75l-.12,0A2.74,2.74,0,0,1,49,3.14l-.16-.47a3.08,3.08,0,0,0-1.17.75v0a1.07,1.07,0,0,0-.85-1.1,1.78,1.78,0,0,1-.29-.12L46.17,2v.4a1.16,1.16,0,0,0,1.25,1.25h0a3,3,0,0,0-.4.62.76.76,0,0,0-.64-.37.75.75,0,0,0-.75.75v0a.7.7,0,0,0-.25,0,.75.75,0,0,0-.26,1.46.72.72,0,0,0-.24.54.75.75,0,0,0,.49.71.72.72,0,0,0-.24.54.75.75,0,0,0,1.5,0s0,0,0,0a.77.77,0,0,0,1-.71s0,0,0,0a.77.77,0,0,0,1-.71A.76.76,0,0,0,48.17,5.7Zm10.67,0a.72.72,0,0,0,.24-.55.75.75,0,0,0-.75-.75l-.12,0a2.78,2.78,0,0,1,1.45-1.28l-.16-.47a3.16,3.16,0,0,0-1.17.75v0a1.07,1.07,0,0,0-.85-1.1,1.69,1.69,0,0,1-.28-.12L56.83,2v.4a1.16,1.16,0,0,0,1.25,1.25h.05a3.5,3.5,0,0,0-.41.62.74.74,0,0,0-.64-.37.76.76,0,0,0-.75.75.43.43,0,0,0,0,0,.74.74,0,0,0-1,.7.76.76,0,0,0,.49.71.76.76,0,0,0-.24.54.76.76,0,0,0,.49.71.74.74,0,0,0,.51,1.29.74.74,0,0,0,.75-.75v0a.69.69,0,0,0,.25,0,.74.74,0,0,0,.75-.75v0a.69.69,0,0,0,.25,0,.75.75,0,0,0,.26-1.45Zm-21.33,16a.72.72,0,0,0,.24-.55A.76.76,0,0,0,37,20.4l-.12,0a2.74,2.74,0,0,1,1.45-1.28l-.16-.47a3.08,3.08,0,0,0-1.17.75v0a1.07,1.07,0,0,0-.85-1.1l-.29-.12L35.5,18v.4a1.16,1.16,0,0,0,1.25,1.25h0a3,3,0,0,0-.4.62.75.75,0,0,0-1.39.38v.05a.7.7,0,0,0-.25-.05.76.76,0,0,0-.75.75.76.76,0,0,0,.49.71.72.72,0,0,0-.24.54.76.76,0,0,0,.49.71.72.72,0,0,0-.24.54.75.75,0,0,0,1.5,0v0a.69.69,0,0,0,.25,0,.75.75,0,0,0,.75-.75v0a.69.69,0,0,0,.25,0A.75.75,0,0,0,38,22.4.76.76,0,0,0,37.51,21.7Zm10.66,0a.73.73,0,0,0,.25-.55.76.76,0,0,0-.75-.75l-.12,0A2.74,2.74,0,0,1,49,19.14l-.16-.47a3.08,3.08,0,0,0-1.17.75v0a1.07,1.07,0,0,0-.85-1.1,1.78,1.78,0,0,1-.29-.12L46.17,18v.4a1.16,1.16,0,0,0,1.25,1.25h0a3,3,0,0,0-.4.62.76.76,0,0,0-.64-.37.75.75,0,0,0-.75.75v.05a.7.7,0,0,0-.25-.05.75.75,0,0,0-.26,1.46.72.72,0,0,0-.24.54.75.75,0,0,0,.49.71.72.72,0,0,0-.24.54.75.75,0,0,0,1.5,0s0,0,0,0a.77.77,0,0,0,1-.71s0,0,0,0a.77.77,0,0,0,1-.71A.76.76,0,0,0,48.17,21.7Zm10.67,0a.72.72,0,0,0,.24-.55.75.75,0,0,0-.75-.75l-.12,0a2.78,2.78,0,0,1,1.45-1.28l-.16-.47a3.16,3.16,0,0,0-1.17.75v0a1.07,1.07,0,0,0-.85-1.1,1.69,1.69,0,0,1-.28-.12L56.83,18v.4a1.16,1.16,0,0,0,1.25,1.25h.05a3.5,3.5,0,0,0-.41.62.74.74,0,0,0-.64-.37.76.76,0,0,0-.75.75.43.43,0,0,0,0,.05.74.74,0,0,0-1,.7.76.76,0,0,0,.49.71.76.76,0,0,0-.24.54.76.76,0,0,0,.49.71.74.74,0,0,0,.51,1.29.74.74,0,0,0,.75-.75v0a.69.69,0,0,0,.25,0,.74.74,0,0,0,.75-.75v0a.69.69,0,0,0,.25,0,.75.75,0,0,0,.26-1.45Z"/><path id="vineyard_grid_sparse-4" data-name="vineyard_grid_sparse" class="cls-2" d="M37.51,37.7a.72.72,0,0,0,.24-.55A.76.76,0,0,0,37,36.4l-.12,0a2.74,2.74,0,0,1,1.45-1.28l-.16-.47a3.08,3.08,0,0,0-1.17.75v0a1.07,1.07,0,0,0-.85-1.1l-.29-.12L35.5,34v.4a1.16,1.16,0,0,0,1.25,1.25h0a3,3,0,0,0-.4.62.75.75,0,0,0-1.39.38v.05a.7.7,0,0,0-.25-.05.76.76,0,0,0-.75.75.76.76,0,0,0,.49.71.72.72,0,0,0-.24.54.76.76,0,0,0,.49.71.72.72,0,0,0-.24.54.75.75,0,1,0,1.5,0v0a.69.69,0,0,0,.25,0,.75.75,0,0,0,.75-.75v0a.69.69,0,0,0,.25,0A.75.75,0,0,0,38,38.4.76.76,0,0,0,37.51,37.7Zm10.66,0a.73.73,0,0,0,.25-.55.76.76,0,0,0-.75-.75l-.12,0A2.74,2.74,0,0,1,49,35.14l-.16-.47a3.08,3.08,0,0,0-1.17.75v0a1.07,1.07,0,0,0-.85-1.1,1.78,1.78,0,0,1-.29-.12L46.17,34v.4a1.16,1.16,0,0,0,1.25,1.25h0a3,3,0,0,0-.4.62.76.76,0,0,0-.64-.37.75.75,0,0,0-.75.75v.05a.7.7,0,0,0-.25-.05.75.75,0,0,0-.26,1.46.72.72,0,0,0-.24.54.75.75,0,0,0,.49.71.72.72,0,0,0-.24.54.75.75,0,0,0,1.5,0v0a.77.77,0,0,0,1-.71v0a.77.77,0,0,0,1-.71A.76.76,0,0,0,48.17,37.7Zm10.67,0a.72.72,0,0,0,.24-.55.75.75,0,0,0-.75-.75l-.12,0a2.78,2.78,0,0,1,1.45-1.28l-.16-.47a3.16,3.16,0,0,0-1.17.75v0a1.07,1.07,0,0,0-.85-1.1,1.69,1.69,0,0,1-.28-.12L56.83,34v.4a1.16,1.16,0,0,0,1.25,1.25h.05a3.5,3.5,0,0,0-.41.62.74.74,0,0,0-.64-.37.76.76,0,0,0-.75.75.43.43,0,0,0,0,.05.74.74,0,0,0-1,.7.76.76,0,0,0,.49.71.76.76,0,0,0-.24.54.76.76,0,0,0,.49.71.74.74,0,0,0,.51,1.29.74.74,0,0,0,.75-.75v0a.69.69,0,0,0,.25,0,.74.74,0,0,0,.75-.75v0a.69.69,0,0,0,.25,0,.75.75,0,0,0,.26-1.45Zm-21.33,16a.72.72,0,0,0,.24-.55A.76.76,0,0,0,37,52.4l-.12,0a2.74,2.74,0,0,1,1.45-1.28l-.16-.47a3.08,3.08,0,0,0-1.17.75v0a1.07,1.07,0,0,0-.85-1.1l-.29-.12L35.5,50v.4a1.16,1.16,0,0,0,1.25,1.25h0a3,3,0,0,0-.4.62.75.75,0,0,0-1.39.38v.05a.7.7,0,0,0-.25-.05.76.76,0,0,0-.75.75.76.76,0,0,0,.49.71.72.72,0,0,0-.24.54.76.76,0,0,0,.49.71.72.72,0,0,0-.24.54.75.75,0,1,0,1.5,0v0a.69.69,0,0,0,.25,0,.75.75,0,0,0,.75-.75v0a.69.69,0,0,0,.25,0A.75.75,0,0,0,38,54.4.76.76,0,0,0,37.51,53.7Zm10.66,0a.73.73,0,0,0,.25-.55.76.76,0,0,0-.75-.75l-.12,0A2.74,2.74,0,0,1,49,51.14l-.16-.47a3.08,3.08,0,0,0-1.17.75v0a1.07,1.07,0,0,0-.85-1.1,1.78,1.78,0,0,1-.29-.12L46.17,50v.4a1.16,1.16,0,0,0,1.25,1.25h0a3,3,0,0,0-.4.62.76.76,0,0,0-.64-.37.75.75,0,0,0-.75.75v.05a.7.7,0,0,0-.25-.05.75.75,0,0,0-.26,1.46.72.72,0,0,0-.24.54.75.75,0,0,0,.49.71.72.72,0,0,0-.24.54.75.75,0,0,0,1.5,0v0a.77.77,0,0,0,1-.71v0a.77.77,0,0,0,1-.71A.76.76,0,0,0,48.17,53.7Zm10.67,0a.72.72,0,0,0,.24-.55.75.75,0,0,0-.75-.75l-.12,0a2.78,2.78,0,0,1,1.45-1.28l-.16-.47a3.16,3.16,0,0,0-1.17.75v0a1.07,1.07,0,0,0-.85-1.1,1.69,1.69,0,0,1-.28-.12L56.83,50v.4a1.16,1.16,0,0,0,1.25,1.25h.05a3.5,3.5,0,0,0-.41.62.74.74,0,0,0-.64-.37.76.76,0,0,0-.75.75.43.43,0,0,0,0,.05.74.74,0,0,0-1,.7.76.76,0,0,0,.49.71.76.76,0,0,0-.24.54.76.76,0,0,0,.49.71.74.74,0,0,0,.51,1.29.74.74,0,0,0,.75-.75v0a.69.69,0,0,0,.25,0,.74.74,0,0,0,.75-.75v0a.69.69,0,0,0,.25,0,.75.75,0,0,0,.26-1.45Z"/></g></svg>