<svg id="Sprites" xmlns="http://www.w3.org/2000/svg" viewBox="0 0 16 16"><defs><style>.cls-1{fill:#236035;}</style></defs><path id="vineyard_pnt_green" class="cls-1" d="M11,8.6a1.53,1.53,0,0,0,.48-1.1A1.5,1.5,0,0,0,10,6L9.76,6a5.58,5.58,0,0,1,2.9-2.55l-.32-.94A6,6,0,0,0,10,4V4A2.13,2.13,0,0,0,8.3,1.8a5.64,5.64,0,0,1-.58-.25L7,1.19V2A2.33,2.33,0,0,0,9.5,4.5h.08a6.81,6.81,0,0,0-.8,1.23A1.5,1.5,0,0,0,6,6.5s0,.06,0,.09A1.71,1.71,0,0,0,5.5,6.5,1.5,1.5,0,0,0,5,9.4a1.53,1.53,0,0,0-.48,1.1,1.49,1.49,0,0,0,1,1.4A1.53,1.53,0,0,0,5,13a1.5,1.5,0,0,0,3,0s0-.06,0-.09A1.71,1.71,0,0,0,8.5,13,1.5,1.5,0,0,0,10,11.5s0-.06,0-.09a1.71,1.71,0,0,0,.51.09A1.5,1.5,0,0,0,11,8.6Z"/></svg>