<svg id="Sprites" xmlns="http://www.w3.org/2000/svg" viewBox="0 0 64 64"><defs><style>.cls-1{fill:none;}.cls-2{fill:#236035;}</style></defs><g id="vineyard_poly_grid_dense_half"><rect id="bbox_64" class="cls-1" width="32" height="32"/><path id="orchard_grid_dense" class="cls-2" d="M2.75,2.15a.37.37,0,0,0,.13-.27A.38.38,0,0,0,2.5,1.5H2.44A1.35,1.35,0,0,1,3.16.87L3.09.63A1.57,1.57,0,0,0,2.5,1h0A.54.54,0,0,0,2.08.45L1.93.39,1.75.3V.5a.58.58,0,0,0,.63.62h0a2.11,2.11,0,0,0-.21.31.35.35,0,0,0-.31-.18.38.38,0,0,0-.38.37v0a.27.27,0,0,0-.12,0A.38.38,0,0,0,1,2a.37.37,0,0,0,.25.35.37.37,0,0,0-.13.27A.39.39,0,0,0,1.37,3a.36.36,0,0,0-.12.27.38.38,0,0,0,.75,0v0l.12,0a.38.38,0,0,0,.38-.37v0a.27.27,0,0,0,.12,0A.38.38,0,0,0,3,2.5.37.37,0,0,0,2.75,2.15Zm4,0a.37.37,0,0,0,.13-.27A.38.38,0,0,0,6.5,1.5H6.44A1.35,1.35,0,0,1,7.16.87L7.09.63A1.57,1.57,0,0,0,6.5,1h0A.54.54,0,0,0,6.08.45L5.93.39,5.75.3V.5a.58.58,0,0,0,.63.62h0a2.11,2.11,0,0,0-.21.31.35.35,0,0,0-.31-.18.38.38,0,0,0-.38.37v0a.27.27,0,0,0-.12,0A.38.38,0,0,0,5,2a.37.37,0,0,0,.25.35.37.37,0,0,0-.13.27A.39.39,0,0,0,5.37,3a.36.36,0,0,0-.12.27.38.38,0,0,0,.75,0v0l.12,0a.38.38,0,0,0,.38-.37v0a.27.27,0,0,0,.12,0A.38.38,0,0,0,7,2.5.37.37,0,0,0,6.75,2.15Zm4,0a.37.37,0,0,0,.13-.27.38.38,0,0,0-.38-.38h-.06a1.35,1.35,0,0,1,.72-.64L11.09.63A1.57,1.57,0,0,0,10.5,1h0a.54.54,0,0,0-.42-.55L9.93.39,9.75.3V.5a.58.58,0,0,0,.63.62h0a2.11,2.11,0,0,0-.21.31.35.35,0,0,0-.31-.18.38.38,0,0,0-.38.37v0a.27.27,0,0,0-.12,0A.38.38,0,0,0,9,2a.37.37,0,0,0,.25.35.37.37,0,0,0-.13.27A.39.39,0,0,0,9.37,3a.36.36,0,0,0-.12.27.38.38,0,0,0,.75,0v0l.12,0a.38.38,0,0,0,.38-.37v0a.27.27,0,0,0,.12,0A.38.38,0,0,0,11,2.5.37.37,0,0,0,10.75,2.15Zm4,0a.37.37,0,0,0,.13-.27.38.38,0,0,0-.38-.38h-.06a1.35,1.35,0,0,1,.72-.64L15.09.63A1.57,1.57,0,0,0,14.5,1h0a.54.54,0,0,0-.42-.55L13.93.39,13.75.3V.5a.58.58,0,0,0,.63.62h0a2.11,2.11,0,0,0-.21.31.35.35,0,0,0-.31-.18.38.38,0,0,0-.38.37v0a.27.27,0,0,0-.12,0A.38.38,0,0,0,13,2a.37.37,0,0,0,.25.35.37.37,0,0,0-.13.27.39.39,0,0,0,.25.36.36.36,0,0,0-.12.27.38.38,0,0,0,.75,0v0l.12,0a.38.38,0,0,0,.38-.37v0a.27.27,0,0,0,.12,0A.38.38,0,0,0,15,2.5.37.37,0,0,0,14.75,2.15Zm-12,5.33a.35.35,0,0,0,.13-.27.38.38,0,0,0-.38-.38H2.44a1.44,1.44,0,0,1,.72-.64L3.09,6a1.57,1.57,0,0,0-.59.38h0a.54.54,0,0,0-.42-.55l-.15-.06-.18-.09v.2a.58.58,0,0,0,.63.63h0a2,2,0,0,0-.21.3.37.37,0,0,0-.31-.18A.38.38,0,0,0,1.5,7V7L1.38,7A.38.38,0,0,0,1,7.33a.37.37,0,0,0,.25.35A.37.37,0,0,0,1.12,8a.38.38,0,0,0,.25.35A.38.38,0,1,0,2,8.58v0l.12,0a.37.37,0,0,0,.38-.37v0l.12,0A.38.38,0,0,0,3,7.83.38.38,0,0,0,2.75,7.48Zm4,0a.35.35,0,0,0,.13-.27.38.38,0,0,0-.38-.38H6.44a1.44,1.44,0,0,1,.72-.64L7.09,6a1.57,1.57,0,0,0-.59.38h0a.54.54,0,0,0-.42-.55l-.15-.06-.18-.09v.2a.58.58,0,0,0,.63.63h0a2,2,0,0,0-.21.3.37.37,0,0,0-.31-.18A.38.38,0,0,0,5.5,7V7L5.38,7A.38.38,0,0,0,5,7.33a.37.37,0,0,0,.25.35A.37.37,0,0,0,5.12,8a.38.38,0,0,0,.25.35A.38.38,0,1,0,6,8.58v0l.12,0a.37.37,0,0,0,.38-.37v0l.12,0A.38.38,0,0,0,7,7.83.38.38,0,0,0,6.75,7.48Zm4,0a.35.35,0,0,0,.13-.27.38.38,0,0,0-.38-.38h-.06a1.44,1.44,0,0,1,.72-.64L11.09,6a1.57,1.57,0,0,0-.59.38h0a.54.54,0,0,0-.42-.55l-.15-.06-.18-.09v.2a.58.58,0,0,0,.63.63h0a2,2,0,0,0-.21.3.37.37,0,0,0-.31-.18A.38.38,0,0,0,9.5,7V7L9.38,7A.38.38,0,0,0,9,7.33a.37.37,0,0,0,.25.35A.37.37,0,0,0,9.12,8a.38.38,0,0,0,.25.35.38.38,0,1,0,.63.27v0l.12,0a.37.37,0,0,0,.38-.37v0l.12,0A.38.38,0,0,0,11,7.83.38.38,0,0,0,10.75,7.48Zm4,0a.35.35,0,0,0,.13-.27.38.38,0,0,0-.38-.38h-.06a1.44,1.44,0,0,1,.72-.64L15.09,6a1.57,1.57,0,0,0-.59.38h0a.54.54,0,0,0-.42-.55l-.15-.06-.18-.09v.2a.58.58,0,0,0,.63.63h0a2,2,0,0,0-.21.3.37.37,0,0,0-.31-.18A.38.38,0,0,0,13.5,7V7l-.12,0a.38.38,0,0,0-.38.37.37.37,0,0,0,.25.35.37.37,0,0,0-.13.28.38.38,0,0,0,.25.35.38.38,0,1,0,.63.27v0l.12,0a.37.37,0,0,0,.38-.37v0l.12,0A.38.38,0,0,0,15,7.83.38.38,0,0,0,14.75,7.48Zm-12,5.34a.37.37,0,0,0-.25-.65H2.44a1.38,1.38,0,0,1,.72-.63l-.07-.24a1.46,1.46,0,0,0-.59.38h0a.54.54,0,0,0-.42-.55l-.15-.07L1.75,11v.21a.58.58,0,0,0,.63.62h0a2.11,2.11,0,0,0-.21.31.35.35,0,0,0-.31-.18.37.37,0,0,0-.38.37v0l-.12,0a.38.38,0,0,0-.38.38.38.38,0,0,0,.25.35.35.35,0,0,0-.13.27.38.38,0,0,0,.25.35.4.4,0,0,0-.12.28.38.38,0,0,0,.75,0v0l.12,0a.38.38,0,0,0,.38-.38v0l.12,0A.38.38,0,0,0,3,13.17.37.37,0,0,0,2.75,12.82Zm4,0a.37.37,0,0,0-.25-.65H6.44a1.38,1.38,0,0,1,.72-.63l-.07-.24a1.46,1.46,0,0,0-.59.38h0a.54.54,0,0,0-.42-.55l-.15-.07L5.75,11v.21a.58.58,0,0,0,.63.62h0a2.11,2.11,0,0,0-.21.31.35.35,0,0,0-.31-.18.37.37,0,0,0-.38.37v0l-.12,0a.38.38,0,0,0-.38.38.38.38,0,0,0,.25.35.35.35,0,0,0-.13.27.38.38,0,0,0,.25.35.4.4,0,0,0-.12.28.38.38,0,0,0,.75,0v0l.12,0a.38.38,0,0,0,.38-.38v0l.12,0A.38.38,0,0,0,7,13.17.37.37,0,0,0,6.75,12.82Zm4,0a.37.37,0,0,0-.25-.65h-.06a1.38,1.38,0,0,1,.72-.63l-.07-.24a1.46,1.46,0,0,0-.59.38h0a.54.54,0,0,0-.42-.55l-.15-.07L9.75,11v.21a.58.58,0,0,0,.63.62h0a2.11,2.11,0,0,0-.21.31.35.35,0,0,0-.31-.18.37.37,0,0,0-.38.37v0l-.12,0a.38.38,0,0,0-.38.38.38.38,0,0,0,.25.35.35.35,0,0,0-.13.27.38.38,0,0,0,.25.35.4.4,0,0,0-.12.28.38.38,0,0,0,.75,0v0l.12,0a.38.38,0,0,0,.38-.38v0l.12,0a.38.38,0,0,0,.38-.37A.37.37,0,0,0,10.75,12.82Zm4,0a.37.37,0,0,0-.25-.65h-.06a1.38,1.38,0,0,1,.72-.63l-.07-.24a1.46,1.46,0,0,0-.59.38h0a.54.54,0,0,0-.42-.55l-.15-.07L13.75,11v.21a.58.58,0,0,0,.63.62h0a2.11,2.11,0,0,0-.21.31.35.35,0,0,0-.31-.18.37.37,0,0,0-.38.37v0l-.12,0a.38.38,0,0,0-.38.38.38.38,0,0,0,.25.35.35.35,0,0,0-.13.27.38.38,0,0,0,.25.35.4.4,0,0,0-.12.28.38.38,0,0,0,.75,0v0l.12,0a.38.38,0,0,0,.38-.38v0l.12,0a.38.38,0,0,0,.38-.37A.37.37,0,0,0,14.75,12.82Z"/><path id="orchard_grid_dense-2" data-name="orchard_grid_dense" class="cls-2" d="M2.75,18.15a.37.37,0,0,0,.13-.27.38.38,0,0,0-.38-.38H2.44a1.35,1.35,0,0,1,.72-.64l-.07-.24A1.57,1.57,0,0,0,2.5,17h0a.54.54,0,0,0-.42-.55l-.15-.06-.18-.09v.2a.58.58,0,0,0,.63.62h0a2.11,2.11,0,0,0-.21.31.35.35,0,0,0-.31-.18.38.38,0,0,0-.38.37v0a.27.27,0,0,0-.12,0A.38.38,0,0,0,1,18a.37.37,0,0,0,.25.35.37.37,0,0,0-.13.27.39.39,0,0,0,.25.36.36.36,0,0,0-.12.27.38.38,0,0,0,.75,0v0l.12,0a.38.38,0,0,0,.38-.37v0a.27.27,0,0,0,.12,0A.38.38,0,0,0,3,18.5.37.37,0,0,0,2.75,18.15Zm4,0a.37.37,0,0,0,.13-.27.38.38,0,0,0-.38-.38H6.44a1.35,1.35,0,0,1,.72-.64l-.07-.24A1.57,1.57,0,0,0,6.5,17h0a.54.54,0,0,0-.42-.55l-.15-.06-.18-.09v.2a.58.58,0,0,0,.63.62h0a2.11,2.11,0,0,0-.21.31.35.35,0,0,0-.31-.18.38.38,0,0,0-.38.37v0a.27.27,0,0,0-.12,0A.38.38,0,0,0,5,18a.37.37,0,0,0,.25.35.37.37,0,0,0-.13.27.39.39,0,0,0,.25.36.36.36,0,0,0-.12.27.38.38,0,0,0,.75,0v0l.12,0a.38.38,0,0,0,.38-.37v0a.27.27,0,0,0,.12,0A.38.38,0,0,0,7,18.5.37.37,0,0,0,6.75,18.15Zm4,0a.37.37,0,0,0,.13-.27.38.38,0,0,0-.38-.38h-.06a1.35,1.35,0,0,1,.72-.64l-.07-.24a1.57,1.57,0,0,0-.59.38h0a.54.54,0,0,0-.42-.55l-.15-.06-.18-.09v.2a.58.58,0,0,0,.63.62h0a2.11,2.11,0,0,0-.21.31.35.35,0,0,0-.31-.18.38.38,0,0,0-.38.37v0a.27.27,0,0,0-.12,0A.38.38,0,0,0,9,18a.37.37,0,0,0,.25.35.37.37,0,0,0-.13.27.39.39,0,0,0,.25.36.36.36,0,0,0-.12.27.38.38,0,0,0,.75,0v0l.12,0a.38.38,0,0,0,.38-.37v0a.27.27,0,0,0,.12,0A.38.38,0,0,0,11,18.5.37.37,0,0,0,10.75,18.15Zm4,0a.37.37,0,0,0,.13-.27.38.38,0,0,0-.38-.38h-.06a1.35,1.35,0,0,1,.72-.64l-.07-.24a1.57,1.57,0,0,0-.59.38h0a.54.54,0,0,0-.42-.55l-.15-.06-.18-.09v.2a.58.58,0,0,0,.63.62h0a2.11,2.11,0,0,0-.21.31.35.35,0,0,0-.31-.18.38.38,0,0,0-.38.37v0a.27.27,0,0,0-.12,0A.38.38,0,0,0,13,18a.37.37,0,0,0,.25.35.37.37,0,0,0-.13.27.39.39,0,0,0,.25.36.36.36,0,0,0-.12.27.38.38,0,0,0,.75,0v0l.12,0a.38.38,0,0,0,.38-.37v0a.27.27,0,0,0,.12,0A.38.38,0,0,0,15,18.5.37.37,0,0,0,14.75,18.15Zm-12,5.33a.35.35,0,0,0,.13-.27.38.38,0,0,0-.38-.38H2.44a1.44,1.44,0,0,1,.72-.64L3.09,22a1.57,1.57,0,0,0-.59.38h0a.54.54,0,0,0-.42-.55.47.47,0,0,1-.15-.06l-.18-.09v.2a.58.58,0,0,0,.63.63h0a2,2,0,0,0-.21.3.37.37,0,0,0-.31-.18A.38.38,0,0,0,1.5,23v0l-.12,0a.38.38,0,0,0-.38.37.37.37,0,0,0,.25.35.37.37,0,0,0-.13.28.38.38,0,0,0,.25.35.38.38,0,1,0,.63.27v0l.12,0a.37.37,0,0,0,.38-.37v0a.27.27,0,0,0,.12,0A.38.38,0,0,0,3,23.83.38.38,0,0,0,2.75,23.48Zm4,0a.35.35,0,0,0,.13-.27.38.38,0,0,0-.38-.38H6.44a1.44,1.44,0,0,1,.72-.64L7.09,22a1.57,1.57,0,0,0-.59.38h0a.54.54,0,0,0-.42-.55.47.47,0,0,1-.15-.06l-.18-.09v.2a.58.58,0,0,0,.63.63h0a2,2,0,0,0-.21.3.37.37,0,0,0-.31-.18A.38.38,0,0,0,5.5,23v0l-.12,0a.38.38,0,0,0-.38.37.37.37,0,0,0,.25.35.37.37,0,0,0-.13.28.38.38,0,0,0,.25.35.38.38,0,1,0,.63.27v0l.12,0a.37.37,0,0,0,.38-.37v0a.27.27,0,0,0,.12,0A.38.38,0,0,0,7,23.83.38.38,0,0,0,6.75,23.48Zm4,0a.35.35,0,0,0,.13-.27.38.38,0,0,0-.38-.38h-.06a1.44,1.44,0,0,1,.72-.64L11.09,22a1.57,1.57,0,0,0-.59.38h0a.54.54,0,0,0-.42-.55.47.47,0,0,1-.15-.06l-.18-.09v.2a.58.58,0,0,0,.63.63h0a2,2,0,0,0-.21.3.37.37,0,0,0-.31-.18A.38.38,0,0,0,9.5,23v0l-.12,0a.38.38,0,0,0-.38.37.37.37,0,0,0,.25.35.37.37,0,0,0-.13.28.38.38,0,0,0,.25.35.38.38,0,1,0,.63.27v0l.12,0a.37.37,0,0,0,.38-.37v0a.27.27,0,0,0,.12,0,.38.38,0,0,0,.38-.38A.38.38,0,0,0,10.75,23.48Zm4,0a.35.35,0,0,0,.13-.27.38.38,0,0,0-.38-.38h-.06a1.44,1.44,0,0,1,.72-.64L15.09,22a1.57,1.57,0,0,0-.59.38h0a.54.54,0,0,0-.42-.55.47.47,0,0,1-.15-.06l-.18-.09v.2a.58.58,0,0,0,.63.63h0a2,2,0,0,0-.21.3.37.37,0,0,0-.31-.18.38.38,0,0,0-.38.38v0l-.12,0a.38.38,0,0,0-.38.37.37.37,0,0,0,.25.35.37.37,0,0,0-.13.28.38.38,0,0,0,.25.35.38.38,0,1,0,.63.27v0l.12,0a.37.37,0,0,0,.38-.37v0a.27.27,0,0,0,.12,0,.38.38,0,0,0,.38-.38A.38.38,0,0,0,14.75,23.48Zm-12,5.34a.37.37,0,0,0-.25-.65H2.44a1.38,1.38,0,0,1,.72-.63l-.07-.24a1.46,1.46,0,0,0-.59.38h0a.54.54,0,0,0-.42-.55l-.15-.07L1.75,27v.21a.58.58,0,0,0,.63.62h0a2.11,2.11,0,0,0-.21.31.35.35,0,0,0-.31-.18.37.37,0,0,0-.38.37v0a.27.27,0,0,0-.12,0,.38.38,0,0,0-.38.38.38.38,0,0,0,.25.35.35.35,0,0,0-.13.27.38.38,0,0,0,.25.35.4.4,0,0,0-.12.28.38.38,0,0,0,.75,0v0a.27.27,0,0,0,.12,0,.38.38,0,0,0,.38-.38v0l.12,0A.38.38,0,0,0,3,29.17.37.37,0,0,0,2.75,28.82Zm4,0a.37.37,0,0,0-.25-.65H6.44a1.38,1.38,0,0,1,.72-.63l-.07-.24a1.46,1.46,0,0,0-.59.38h0a.54.54,0,0,0-.42-.55l-.15-.07L5.75,27v.21a.58.58,0,0,0,.63.62h0a2.11,2.11,0,0,0-.21.31.35.35,0,0,0-.31-.18.37.37,0,0,0-.38.37v0a.27.27,0,0,0-.12,0,.38.38,0,0,0-.38.38.38.38,0,0,0,.25.35.35.35,0,0,0-.13.27.38.38,0,0,0,.25.35.4.4,0,0,0-.12.28.38.38,0,0,0,.75,0v0a.27.27,0,0,0,.12,0,.38.38,0,0,0,.38-.38v0l.12,0A.38.38,0,0,0,7,29.17.37.37,0,0,0,6.75,28.82Zm4,0a.37.37,0,0,0-.25-.65h-.06a1.38,1.38,0,0,1,.72-.63l-.07-.24a1.46,1.46,0,0,0-.59.38h0a.54.54,0,0,0-.42-.55l-.15-.07L9.75,27v.21a.58.58,0,0,0,.63.62h0a2.11,2.11,0,0,0-.21.31.35.35,0,0,0-.31-.18.37.37,0,0,0-.38.37v0a.27.27,0,0,0-.12,0,.38.38,0,0,0-.38.38.38.38,0,0,0,.25.35.35.35,0,0,0-.13.27.38.38,0,0,0,.25.35.4.4,0,0,0-.12.28.38.38,0,0,0,.75,0v0a.27.27,0,0,0,.12,0,.38.38,0,0,0,.38-.38v0l.12,0a.38.38,0,0,0,.38-.37A.37.37,0,0,0,10.75,28.82Zm4,0a.37.37,0,0,0-.25-.65h-.06a1.38,1.38,0,0,1,.72-.63l-.07-.24a1.46,1.46,0,0,0-.59.38h0a.54.54,0,0,0-.42-.55l-.15-.07L13.75,27v.21a.58.58,0,0,0,.63.62h0a2.11,2.11,0,0,0-.21.31.35.35,0,0,0-.31-.18.37.37,0,0,0-.38.37v0a.27.27,0,0,0-.12,0,.38.38,0,0,0-.38.38.38.38,0,0,0,.25.35.35.35,0,0,0-.13.27.38.38,0,0,0,.25.35.4.4,0,0,0-.12.28.38.38,0,0,0,.75,0v0a.27.27,0,0,0,.12,0,.38.38,0,0,0,.38-.38v0l.12,0a.38.38,0,0,0,.38-.37A.37.37,0,0,0,14.75,28.82Z"/><path id="orchard_grid_dense-3" data-name="orchard_grid_dense" class="cls-2" d="M18.75,2.15a.37.37,0,0,0,.13-.27.38.38,0,0,0-.38-.38h-.06a1.35,1.35,0,0,1,.72-.64L19.09.63A1.57,1.57,0,0,0,18.5,1h0a.54.54,0,0,0-.42-.55L17.93.39,17.75.3V.5a.58.58,0,0,0,.63.62h0a2.11,2.11,0,0,0-.21.31.35.35,0,0,0-.31-.18.38.38,0,0,0-.38.37v0a.27.27,0,0,0-.12,0A.38.38,0,0,0,17,2a.37.37,0,0,0,.25.35.37.37,0,0,0-.13.27.39.39,0,0,0,.25.36.36.36,0,0,0-.12.27.38.38,0,0,0,.75,0v0l.12,0a.38.38,0,0,0,.38-.37v0a.27.27,0,0,0,.12,0A.38.38,0,0,0,19,2.5.37.37,0,0,0,18.75,2.15Zm4,0a.37.37,0,0,0,.13-.27.38.38,0,0,0-.38-.38h-.06a1.35,1.35,0,0,1,.72-.64L23.09.63A1.57,1.57,0,0,0,22.5,1h0a.54.54,0,0,0-.42-.55L21.93.39,21.75.3V.5a.58.58,0,0,0,.63.62h0a2.11,2.11,0,0,0-.21.31.35.35,0,0,0-.31-.18.38.38,0,0,0-.38.37v0a.27.27,0,0,0-.12,0A.38.38,0,0,0,21,2a.37.37,0,0,0,.25.35.37.37,0,0,0-.13.27.39.39,0,0,0,.25.36.36.36,0,0,0-.12.27.38.38,0,0,0,.75,0v0l.12,0a.38.38,0,0,0,.38-.37v0a.27.27,0,0,0,.12,0A.38.38,0,0,0,23,2.5.37.37,0,0,0,22.75,2.15Zm4,0a.37.37,0,0,0,.13-.27.38.38,0,0,0-.38-.38h-.06a1.35,1.35,0,0,1,.72-.64L27.09.63A1.57,1.57,0,0,0,26.5,1h0a.54.54,0,0,0-.42-.55L25.93.39,25.75.3V.5a.58.58,0,0,0,.63.62h0a2.11,2.11,0,0,0-.21.31.35.35,0,0,0-.31-.18.38.38,0,0,0-.38.37v0a.27.27,0,0,0-.12,0A.38.38,0,0,0,25,2a.37.37,0,0,0,.25.35.37.37,0,0,0-.13.27.39.39,0,0,0,.25.36.36.36,0,0,0-.12.27.38.38,0,0,0,.75,0v0l.12,0a.38.38,0,0,0,.38-.37v0a.27.27,0,0,0,.12,0A.38.38,0,0,0,27,2.5.37.37,0,0,0,26.75,2.15Zm4,0a.37.37,0,0,0,.13-.27.38.38,0,0,0-.38-.38h-.06a1.35,1.35,0,0,1,.72-.64L31.09.63A1.57,1.57,0,0,0,30.5,1h0a.54.54,0,0,0-.42-.55L29.93.39,29.75.3V.5a.58.58,0,0,0,.63.62h0a2.11,2.11,0,0,0-.21.31.35.35,0,0,0-.31-.18.38.38,0,0,0-.38.37v0a.27.27,0,0,0-.12,0A.38.38,0,0,0,29,2a.37.37,0,0,0,.25.35.37.37,0,0,0-.13.27.39.39,0,0,0,.25.36.36.36,0,0,0-.12.27.38.38,0,0,0,.75,0v0l.12,0a.38.38,0,0,0,.38-.37v0a.27.27,0,0,0,.12,0A.38.38,0,0,0,31,2.5.37.37,0,0,0,30.75,2.15Zm-12,5.33a.35.35,0,0,0,.13-.27.38.38,0,0,0-.38-.38h-.06a1.44,1.44,0,0,1,.72-.64L19.09,6a1.57,1.57,0,0,0-.59.38h0a.54.54,0,0,0-.42-.55l-.15-.06-.18-.09v.2a.58.58,0,0,0,.63.63h0a2,2,0,0,0-.21.3.37.37,0,0,0-.31-.18A.38.38,0,0,0,17.5,7V7l-.12,0a.38.38,0,0,0-.38.37.37.37,0,0,0,.25.35.37.37,0,0,0-.13.28.38.38,0,0,0,.25.35.38.38,0,1,0,.63.27v0l.12,0a.37.37,0,0,0,.38-.37v0a.27.27,0,0,0,.12,0A.38.38,0,0,0,19,7.83.38.38,0,0,0,18.75,7.48Zm4,0a.35.35,0,0,0,.13-.27.38.38,0,0,0-.38-.38h-.06a1.44,1.44,0,0,1,.72-.64L23.09,6a1.57,1.57,0,0,0-.59.38h0a.54.54,0,0,0-.42-.55l-.15-.06-.18-.09v.2a.58.58,0,0,0,.63.63h0a2,2,0,0,0-.21.3.37.37,0,0,0-.31-.18A.38.38,0,0,0,21.5,7V7l-.12,0a.38.38,0,0,0-.38.37.37.37,0,0,0,.25.35.37.37,0,0,0-.13.28.38.38,0,0,0,.25.35.38.38,0,1,0,.63.27v0l.12,0a.37.37,0,0,0,.38-.37v0a.27.27,0,0,0,.12,0A.38.38,0,0,0,23,7.83.38.38,0,0,0,22.75,7.48Zm4,0a.35.35,0,0,0,.13-.27.38.38,0,0,0-.38-.38h-.06a1.44,1.44,0,0,1,.72-.64L27.09,6a1.57,1.57,0,0,0-.59.38h0a.54.54,0,0,0-.42-.55l-.15-.06-.18-.09v.2a.58.58,0,0,0,.63.63h0a2,2,0,0,0-.21.3.37.37,0,0,0-.31-.18A.38.38,0,0,0,25.5,7V7l-.12,0a.38.38,0,0,0-.38.37.37.37,0,0,0,.25.35.37.37,0,0,0-.13.28.38.38,0,0,0,.25.35.38.38,0,1,0,.63.27v0l.12,0a.37.37,0,0,0,.38-.37v0a.27.27,0,0,0,.12,0A.38.38,0,0,0,27,7.83.38.38,0,0,0,26.75,7.48Zm4,0a.35.35,0,0,0,.13-.27.38.38,0,0,0-.38-.38h-.06a1.44,1.44,0,0,1,.72-.64L31.09,6a1.57,1.57,0,0,0-.59.38h0a.54.54,0,0,0-.42-.55l-.15-.06-.18-.09v.2a.58.58,0,0,0,.63.63h0a2,2,0,0,0-.21.3.37.37,0,0,0-.31-.18A.38.38,0,0,0,29.5,7V7l-.12,0a.38.38,0,0,0-.38.37.37.37,0,0,0,.25.35.37.37,0,0,0-.13.28.38.38,0,0,0,.25.35.38.38,0,1,0,.63.27v0l.12,0a.37.37,0,0,0,.38-.37v0a.27.27,0,0,0,.12,0A.38.38,0,0,0,31,7.83.38.38,0,0,0,30.75,7.48Zm-12,5.34a.37.37,0,0,0-.25-.65h-.06a1.38,1.38,0,0,1,.72-.63l-.07-.24a1.46,1.46,0,0,0-.59.38h0a.54.54,0,0,0-.42-.55l-.15-.07L17.75,11v.21a.58.58,0,0,0,.63.62h0a2.11,2.11,0,0,0-.21.31.35.35,0,0,0-.31-.18.37.37,0,0,0-.38.37v0a.27.27,0,0,0-.12,0,.38.38,0,0,0-.38.38.38.38,0,0,0,.25.35.35.35,0,0,0-.13.27.38.38,0,0,0,.25.35.4.4,0,0,0-.12.28.38.38,0,0,0,.75,0v0l.12,0a.38.38,0,0,0,.38-.38v0l.12,0a.38.38,0,0,0,.38-.37A.37.37,0,0,0,18.75,12.82Zm4,0a.37.37,0,0,0-.25-.65h-.06a1.38,1.38,0,0,1,.72-.63l-.07-.24a1.46,1.46,0,0,0-.59.38h0a.54.54,0,0,0-.42-.55l-.15-.07L21.75,11v.21a.58.58,0,0,0,.63.62h0a2.11,2.11,0,0,0-.21.31.35.35,0,0,0-.31-.18.37.37,0,0,0-.38.37v0a.27.27,0,0,0-.12,0,.38.38,0,0,0-.38.38.38.38,0,0,0,.25.35.35.35,0,0,0-.13.27.38.38,0,0,0,.25.35.4.4,0,0,0-.12.28.38.38,0,0,0,.75,0v0l.12,0a.38.38,0,0,0,.38-.38v0l.12,0a.38.38,0,0,0,.38-.37A.37.37,0,0,0,22.75,12.82Zm4,0a.37.37,0,0,0-.25-.65h-.06a1.38,1.38,0,0,1,.72-.63l-.07-.24a1.46,1.46,0,0,0-.59.38h0a.54.54,0,0,0-.42-.55l-.15-.07L25.75,11v.21a.58.58,0,0,0,.63.62h0a2.11,2.11,0,0,0-.21.31.35.35,0,0,0-.31-.18.37.37,0,0,0-.38.37v0a.27.27,0,0,0-.12,0,.38.38,0,0,0-.38.38.38.38,0,0,0,.25.35.35.35,0,0,0-.13.27.38.38,0,0,0,.25.35.4.4,0,0,0-.12.28.38.38,0,0,0,.75,0v0l.12,0a.38.38,0,0,0,.38-.38v0l.12,0a.38.38,0,0,0,.38-.37A.37.37,0,0,0,26.75,12.82Zm4,0a.37.37,0,0,0-.25-.65h-.06a1.38,1.38,0,0,1,.72-.63l-.07-.24a1.46,1.46,0,0,0-.59.38h0a.54.54,0,0,0-.42-.55l-.15-.07L29.75,11v.21a.58.58,0,0,0,.63.62h0a2.11,2.11,0,0,0-.21.31.35.35,0,0,0-.31-.18.37.37,0,0,0-.38.37v0a.27.27,0,0,0-.12,0,.38.38,0,0,0-.38.38.38.38,0,0,0,.25.35.35.35,0,0,0-.13.27.38.38,0,0,0,.25.35.4.4,0,0,0-.12.28.38.38,0,0,0,.75,0v0l.12,0a.38.38,0,0,0,.38-.38v0l.12,0a.38.38,0,0,0,.38-.37A.37.37,0,0,0,30.75,12.82Z"/><path id="orchard_grid_dense-4" data-name="orchard_grid_dense" class="cls-2" d="M18.75,18.15a.37.37,0,0,0,.13-.27.38.38,0,0,0-.38-.38h-.06a1.35,1.35,0,0,1,.72-.64l-.07-.24a1.57,1.57,0,0,0-.59.38h0a.54.54,0,0,0-.42-.55l-.15-.06-.18-.09v.2a.58.58,0,0,0,.63.62h0a2.11,2.11,0,0,0-.21.31.35.35,0,0,0-.31-.18.38.38,0,0,0-.38.37v0a.27.27,0,0,0-.12,0A.38.38,0,0,0,17,18a.37.37,0,0,0,.25.35.37.37,0,0,0-.13.27.39.39,0,0,0,.25.36.36.36,0,0,0-.12.27.38.38,0,0,0,.75,0v0l.12,0a.38.38,0,0,0,.38-.37v0a.27.27,0,0,0,.12,0A.38.38,0,0,0,19,18.5.37.37,0,0,0,18.75,18.15Zm4,0a.37.37,0,0,0,.13-.27.38.38,0,0,0-.38-.38h-.06a1.35,1.35,0,0,1,.72-.64l-.07-.24a1.57,1.57,0,0,0-.59.38h0a.54.54,0,0,0-.42-.55l-.15-.06-.18-.09v.2a.58.58,0,0,0,.63.62h0a2.11,2.11,0,0,0-.21.31.35.35,0,0,0-.31-.18.38.38,0,0,0-.38.37v0a.27.27,0,0,0-.12,0A.38.38,0,0,0,21,18a.37.37,0,0,0,.25.35.37.37,0,0,0-.13.27.39.39,0,0,0,.25.36.36.36,0,0,0-.12.27.38.38,0,0,0,.75,0v0l.12,0a.38.38,0,0,0,.38-.37v0a.27.27,0,0,0,.12,0A.38.38,0,0,0,23,18.5.37.37,0,0,0,22.75,18.15Zm4,0a.37.37,0,0,0,.13-.27.38.38,0,0,0-.38-.38h-.06a1.35,1.35,0,0,1,.72-.64l-.07-.24a1.57,1.57,0,0,0-.59.38h0a.54.54,0,0,0-.42-.55l-.15-.06-.18-.09v.2a.58.58,0,0,0,.63.62h0a2.11,2.11,0,0,0-.21.31.35.35,0,0,0-.31-.18.38.38,0,0,0-.38.37v0a.27.27,0,0,0-.12,0A.38.38,0,0,0,25,18a.37.37,0,0,0,.25.35.37.37,0,0,0-.13.27.39.39,0,0,0,.25.36.36.36,0,0,0-.12.27.38.38,0,0,0,.75,0v0l.12,0a.38.38,0,0,0,.38-.37v0a.27.27,0,0,0,.12,0A.38.38,0,0,0,27,18.5.37.37,0,0,0,26.75,18.15Zm4,0a.37.37,0,0,0,.13-.27.38.38,0,0,0-.38-.38h-.06a1.35,1.35,0,0,1,.72-.64l-.07-.24a1.57,1.57,0,0,0-.59.38h0a.54.54,0,0,0-.42-.55l-.15-.06-.18-.09v.2a.58.58,0,0,0,.63.62h0a2.11,2.11,0,0,0-.21.31.35.35,0,0,0-.31-.18.38.38,0,0,0-.38.37v0a.27.27,0,0,0-.12,0A.38.38,0,0,0,29,18a.37.37,0,0,0,.25.35.37.37,0,0,0-.13.27.39.39,0,0,0,.25.36.36.36,0,0,0-.12.27.38.38,0,0,0,.75,0v0l.12,0a.38.38,0,0,0,.38-.37v0a.27.27,0,0,0,.12,0A.38.38,0,0,0,31,18.5.37.37,0,0,0,30.75,18.15Zm-12,5.33a.35.35,0,0,0,.13-.27.38.38,0,0,0-.38-.38h-.06a1.44,1.44,0,0,1,.72-.64L19.09,22a1.57,1.57,0,0,0-.59.38h0a.54.54,0,0,0-.42-.55.47.47,0,0,1-.15-.06l-.18-.09v.2a.58.58,0,0,0,.63.63h0a2,2,0,0,0-.21.3.37.37,0,0,0-.31-.18.38.38,0,0,0-.38.38v0l-.12,0a.38.38,0,0,0-.38.37.37.37,0,0,0,.25.35.37.37,0,0,0-.13.28.38.38,0,0,0,.25.35.38.38,0,1,0,.63.27v0l.12,0a.37.37,0,0,0,.38-.37v0a.27.27,0,0,0,.12,0,.38.38,0,0,0,.38-.38A.38.38,0,0,0,18.75,23.48Zm4,0a.35.35,0,0,0,.13-.27.38.38,0,0,0-.38-.38h-.06a1.44,1.44,0,0,1,.72-.64L23.09,22a1.57,1.57,0,0,0-.59.38h0a.54.54,0,0,0-.42-.55.47.47,0,0,1-.15-.06l-.18-.09v.2a.58.58,0,0,0,.63.63h0a2,2,0,0,0-.21.3.37.37,0,0,0-.31-.18.38.38,0,0,0-.38.38v0l-.12,0a.38.38,0,0,0-.38.37.37.37,0,0,0,.25.35.37.37,0,0,0-.13.28.38.38,0,0,0,.25.35.38.38,0,1,0,.63.27v0l.12,0a.37.37,0,0,0,.38-.37v0a.27.27,0,0,0,.12,0,.38.38,0,0,0,.38-.38A.38.38,0,0,0,22.75,23.48Zm4,0a.35.35,0,0,0,.13-.27.38.38,0,0,0-.38-.38h-.06a1.44,1.44,0,0,1,.72-.64L27.09,22a1.57,1.57,0,0,0-.59.38h0a.54.54,0,0,0-.42-.55.47.47,0,0,1-.15-.06l-.18-.09v.2a.58.58,0,0,0,.63.63h0a2,2,0,0,0-.21.3.37.37,0,0,0-.31-.18.38.38,0,0,0-.38.38v0l-.12,0a.38.38,0,0,0-.38.37.37.37,0,0,0,.25.35.37.37,0,0,0-.13.28.38.38,0,0,0,.25.35.38.38,0,1,0,.63.27v0l.12,0a.37.37,0,0,0,.38-.37v0a.27.27,0,0,0,.12,0,.38.38,0,0,0,.38-.38A.38.38,0,0,0,26.75,23.48Zm4,0a.35.35,0,0,0,.13-.27.38.38,0,0,0-.38-.38h-.06a1.44,1.44,0,0,1,.72-.64L31.09,22a1.57,1.57,0,0,0-.59.38h0a.54.54,0,0,0-.42-.55.47.47,0,0,1-.15-.06l-.18-.09v.2a.58.58,0,0,0,.63.63h0a2,2,0,0,0-.21.3.37.37,0,0,0-.31-.18.38.38,0,0,0-.38.38v0l-.12,0a.38.38,0,0,0-.38.37.37.37,0,0,0,.25.35.37.37,0,0,0-.13.28.38.38,0,0,0,.25.35.38.38,0,1,0,.63.27v0l.12,0a.37.37,0,0,0,.38-.37v0a.27.27,0,0,0,.12,0,.38.38,0,0,0,.38-.38A.38.38,0,0,0,30.75,23.48Zm-12,5.34a.37.37,0,0,0-.25-.65h-.06a1.38,1.38,0,0,1,.72-.63l-.07-.24a1.46,1.46,0,0,0-.59.38h0a.54.54,0,0,0-.42-.55l-.15-.07L17.75,27v.21a.58.58,0,0,0,.63.62h0a2.11,2.11,0,0,0-.21.31.35.35,0,0,0-.31-.18.37.37,0,0,0-.38.37v0a.27.27,0,0,0-.12,0,.38.38,0,0,0-.38.38.38.38,0,0,0,.25.35.35.35,0,0,0-.13.27.38.38,0,0,0,.25.35.4.4,0,0,0-.12.28.38.38,0,0,0,.75,0v0a.27.27,0,0,0,.12,0,.38.38,0,0,0,.38-.38v0l.12,0a.38.38,0,0,0,.38-.37A.37.37,0,0,0,18.75,28.82Zm4,0a.37.37,0,0,0-.25-.65h-.06a1.38,1.38,0,0,1,.72-.63l-.07-.24a1.46,1.46,0,0,0-.59.38h0a.54.54,0,0,0-.42-.55l-.15-.07L21.75,27v.21a.58.58,0,0,0,.63.62h0a2.11,2.11,0,0,0-.21.31.35.35,0,0,0-.31-.18.37.37,0,0,0-.38.37v0a.27.27,0,0,0-.12,0,.38.38,0,0,0-.38.38.38.38,0,0,0,.25.35.35.35,0,0,0-.13.27.38.38,0,0,0,.25.35.4.4,0,0,0-.12.28.38.38,0,0,0,.75,0v0a.27.27,0,0,0,.12,0,.38.38,0,0,0,.38-.38v0l.12,0a.38.38,0,0,0,.38-.37A.37.37,0,0,0,22.75,28.82Zm4,0a.37.37,0,0,0-.25-.65h-.06a1.38,1.38,0,0,1,.72-.63l-.07-.24a1.46,1.46,0,0,0-.59.38h0a.54.54,0,0,0-.42-.55l-.15-.07L25.75,27v.21a.58.58,0,0,0,.63.62h0a2.11,2.11,0,0,0-.21.31.35.35,0,0,0-.31-.18.37.37,0,0,0-.38.37v0a.27.27,0,0,0-.12,0,.38.38,0,0,0-.38.38.38.38,0,0,0,.25.35.35.35,0,0,0-.13.27.38.38,0,0,0,.25.35.4.4,0,0,0-.12.28.38.38,0,0,0,.75,0v0a.27.27,0,0,0,.12,0,.38.38,0,0,0,.38-.38v0l.12,0a.38.38,0,0,0,.38-.37A.37.37,0,0,0,26.75,28.82Zm4,0a.37.37,0,0,0-.25-.65h-.06a1.38,1.38,0,0,1,.72-.63l-.07-.24a1.46,1.46,0,0,0-.59.38h0a.54.54,0,0,0-.42-.55l-.15-.07L29.75,27v.21a.58.58,0,0,0,.63.62h0a2.11,2.11,0,0,0-.21.31.35.35,0,0,0-.31-.18.37.37,0,0,0-.38.37v0a.27.27,0,0,0-.12,0,.38.38,0,0,0-.38.38.38.38,0,0,0,.25.35.35.35,0,0,0-.13.27.38.38,0,0,0,.25.35.4.4,0,0,0-.12.28.38.38,0,0,0,.75,0v0a.27.27,0,0,0,.12,0,.38.38,0,0,0,.38-.38v0l.12,0a.38.38,0,0,0,.38-.37A.37.37,0,0,0,30.75,28.82Z"/></g><g id="vineyard_poly_grid_dense_half-2" data-name="vineyard_poly_grid_dense_half"><rect id="bbox_64-2" data-name="bbox_64" class="cls-1" x="32" width="32" height="32"/><path id="orchard_grid_dense-5" data-name="orchard_grid_dense" class="cls-2" d="M34.75,2.15a.37.37,0,0,0,.13-.27.38.38,0,0,0-.38-.38h-.06a1.35,1.35,0,0,1,.72-.64L35.09.63A1.57,1.57,0,0,0,34.5,1h0a.54.54,0,0,0-.42-.55L33.93.39,33.75.3V.5a.58.58,0,0,0,.63.62h0a2.11,2.11,0,0,0-.21.31.35.35,0,0,0-.31-.18.38.38,0,0,0-.38.37v0a.27.27,0,0,0-.12,0A.38.38,0,0,0,33,2a.37.37,0,0,0,.25.35.37.37,0,0,0-.13.27.39.39,0,0,0,.25.36.36.36,0,0,0-.12.27.38.38,0,0,0,.75,0v0l.12,0a.38.38,0,0,0,.38-.37v0a.27.27,0,0,0,.12,0A.38.38,0,0,0,35,2.5.37.37,0,0,0,34.75,2.15Zm4,0a.37.37,0,0,0,.13-.27.38.38,0,0,0-.38-.38h-.06a1.35,1.35,0,0,1,.72-.64L39.09.63A1.57,1.57,0,0,0,38.5,1h0a.54.54,0,0,0-.42-.55L37.93.39,37.75.3V.5a.58.58,0,0,0,.63.62h0a2.11,2.11,0,0,0-.21.31.35.35,0,0,0-.31-.18.38.38,0,0,0-.38.37v0a.27.27,0,0,0-.12,0A.38.38,0,0,0,37,2a.37.37,0,0,0,.25.35.37.37,0,0,0-.13.27.39.39,0,0,0,.25.36.36.36,0,0,0-.12.27.38.38,0,0,0,.75,0v0l.12,0a.38.38,0,0,0,.38-.37v0a.27.27,0,0,0,.12,0A.38.38,0,0,0,39,2.5.37.37,0,0,0,38.75,2.15Zm4,0a.37.37,0,0,0,.13-.27.38.38,0,0,0-.38-.38h-.06a1.35,1.35,0,0,1,.72-.64L43.09.63A1.57,1.57,0,0,0,42.5,1h0a.54.54,0,0,0-.42-.55L41.93.39,41.75.3V.5a.58.58,0,0,0,.63.62h0a2.11,2.11,0,0,0-.21.31.35.35,0,0,0-.31-.18.38.38,0,0,0-.38.37v0a.27.27,0,0,0-.12,0A.38.38,0,0,0,41,2a.37.37,0,0,0,.25.35.37.37,0,0,0-.13.27.39.39,0,0,0,.25.36.36.36,0,0,0-.12.27.38.38,0,0,0,.75,0v0l.12,0a.38.38,0,0,0,.38-.37v0a.27.27,0,0,0,.12,0A.38.38,0,0,0,43,2.5.37.37,0,0,0,42.75,2.15Zm4,0a.37.37,0,0,0,.13-.27.38.38,0,0,0-.38-.38h-.06a1.35,1.35,0,0,1,.72-.64L47.09.63A1.57,1.57,0,0,0,46.5,1h0a.54.54,0,0,0-.42-.55L45.93.39,45.75.3V.5a.58.58,0,0,0,.63.62h0a2.11,2.11,0,0,0-.21.31.35.35,0,0,0-.31-.18.38.38,0,0,0-.38.37v0a.27.27,0,0,0-.12,0A.38.38,0,0,0,45,2a.37.37,0,0,0,.25.35.37.37,0,0,0-.13.27.39.39,0,0,0,.25.36.36.36,0,0,0-.12.27.38.38,0,0,0,.75,0v0l.12,0a.38.38,0,0,0,.38-.37v0a.27.27,0,0,0,.12,0A.38.38,0,0,0,47,2.5.37.37,0,0,0,46.75,2.15Zm-12,5.33a.35.35,0,0,0,.13-.27.38.38,0,0,0-.38-.38h-.06a1.44,1.44,0,0,1,.72-.64L35.09,6a1.57,1.57,0,0,0-.59.38h0a.54.54,0,0,0-.42-.55.47.47,0,0,1-.15-.06l-.18-.09v.2a.58.58,0,0,0,.63.63h0a2,2,0,0,0-.21.3.37.37,0,0,0-.31-.18A.38.38,0,0,0,33.5,7V7l-.12,0a.38.38,0,0,0-.38.37.37.37,0,0,0,.25.35.37.37,0,0,0-.13.28.38.38,0,0,0,.25.35.38.38,0,1,0,.63.27v0l.12,0a.37.37,0,0,0,.38-.37v0l.12,0A.38.38,0,0,0,35,7.83.38.38,0,0,0,34.75,7.48Zm4,0a.35.35,0,0,0,.13-.27.38.38,0,0,0-.38-.38h-.06a1.44,1.44,0,0,1,.72-.64L39.09,6a1.57,1.57,0,0,0-.59.38h0a.54.54,0,0,0-.42-.55.47.47,0,0,1-.15-.06l-.18-.09v.2a.58.58,0,0,0,.63.63h0a2,2,0,0,0-.21.3.37.37,0,0,0-.31-.18A.38.38,0,0,0,37.5,7V7l-.12,0a.38.38,0,0,0-.38.37.37.37,0,0,0,.25.35.37.37,0,0,0-.13.28.38.38,0,0,0,.25.35.38.38,0,1,0,.63.27v0l.12,0a.37.37,0,0,0,.38-.37v0l.12,0A.38.38,0,0,0,39,7.83.38.38,0,0,0,38.75,7.48Zm4,0a.35.35,0,0,0,.13-.27.38.38,0,0,0-.38-.38h-.06a1.44,1.44,0,0,1,.72-.64L43.09,6a1.57,1.57,0,0,0-.59.38h0a.54.54,0,0,0-.42-.55.47.47,0,0,1-.15-.06l-.18-.09v.2a.58.58,0,0,0,.63.63h0a2,2,0,0,0-.21.3.37.37,0,0,0-.31-.18A.38.38,0,0,0,41.5,7V7l-.12,0a.38.38,0,0,0-.38.37.37.37,0,0,0,.25.35.37.37,0,0,0-.13.28.38.38,0,0,0,.25.35.38.38,0,1,0,.63.27v0l.12,0a.37.37,0,0,0,.38-.37v0l.12,0A.38.38,0,0,0,43,7.83.38.38,0,0,0,42.75,7.48Zm4,0a.35.35,0,0,0,.13-.27.38.38,0,0,0-.38-.38h-.06a1.44,1.44,0,0,1,.72-.64L47.09,6a1.57,1.57,0,0,0-.59.38h0a.54.54,0,0,0-.42-.55.47.47,0,0,1-.15-.06l-.18-.09v.2a.58.58,0,0,0,.63.63h0a2,2,0,0,0-.21.3.37.37,0,0,0-.31-.18A.38.38,0,0,0,45.5,7V7l-.12,0a.38.38,0,0,0-.38.37.37.37,0,0,0,.25.35.37.37,0,0,0-.13.28.38.38,0,0,0,.25.35.38.38,0,1,0,.63.27v0l.12,0a.37.37,0,0,0,.38-.37v0l.12,0A.38.38,0,0,0,47,7.83.38.38,0,0,0,46.75,7.48Zm-12,5.34a.37.37,0,0,0-.25-.65h-.06a1.38,1.38,0,0,1,.72-.63l-.07-.24a1.46,1.46,0,0,0-.59.38h0a.54.54,0,0,0-.42-.55l-.15-.07L33.75,11v.21a.58.58,0,0,0,.63.62h0a2.11,2.11,0,0,0-.21.31.35.35,0,0,0-.31-.18.37.37,0,0,0-.38.37v0l-.12,0a.38.38,0,0,0-.38.38.38.38,0,0,0,.25.35.35.35,0,0,0-.13.27.38.38,0,0,0,.25.35.4.4,0,0,0-.12.28.38.38,0,0,0,.75,0v0l.12,0a.38.38,0,0,0,.38-.38v0l.12,0a.38.38,0,0,0,.38-.37A.37.37,0,0,0,34.75,12.82Zm4,0a.37.37,0,0,0-.25-.65h-.06a1.38,1.38,0,0,1,.72-.63l-.07-.24a1.46,1.46,0,0,0-.59.38h0a.54.54,0,0,0-.42-.55l-.15-.07L37.75,11v.21a.58.58,0,0,0,.63.62h0a2.11,2.11,0,0,0-.21.31.35.35,0,0,0-.31-.18.37.37,0,0,0-.38.37v0l-.12,0a.38.38,0,0,0-.38.38.38.38,0,0,0,.25.35.35.35,0,0,0-.13.27.38.38,0,0,0,.25.35.4.4,0,0,0-.12.28.38.38,0,0,0,.75,0v0l.12,0a.38.38,0,0,0,.38-.38v0l.12,0a.38.38,0,0,0,.38-.37A.37.37,0,0,0,38.75,12.82Zm4,0a.37.37,0,0,0-.25-.65h-.06a1.38,1.38,0,0,1,.72-.63l-.07-.24a1.46,1.46,0,0,0-.59.38h0a.54.54,0,0,0-.42-.55l-.15-.07L41.75,11v.21a.58.58,0,0,0,.63.62h0a2.11,2.11,0,0,0-.21.31.35.35,0,0,0-.31-.18.37.37,0,0,0-.38.37v0l-.12,0a.38.38,0,0,0-.38.38.38.38,0,0,0,.25.35.35.35,0,0,0-.13.27.38.38,0,0,0,.25.35.4.4,0,0,0-.12.28.38.38,0,0,0,.75,0v0l.12,0a.38.38,0,0,0,.38-.38v0l.12,0a.38.38,0,0,0,.38-.37A.37.37,0,0,0,42.75,12.82Zm4,0a.37.37,0,0,0-.25-.65h-.06a1.38,1.38,0,0,1,.72-.63l-.07-.24a1.46,1.46,0,0,0-.59.38h0a.54.54,0,0,0-.42-.55l-.15-.07L45.75,11v.21a.58.58,0,0,0,.63.62h0a2.11,2.11,0,0,0-.21.31.35.35,0,0,0-.31-.18.37.37,0,0,0-.38.37v0l-.12,0a.38.38,0,0,0-.38.38.38.38,0,0,0,.25.35.35.35,0,0,0-.13.27.38.38,0,0,0,.25.35.4.4,0,0,0-.12.28.38.38,0,0,0,.75,0v0l.12,0a.38.38,0,0,0,.38-.38v0l.12,0a.38.38,0,0,0,.38-.37A.37.37,0,0,0,46.75,12.82Z"/><path id="orchard_grid_dense-6" data-name="orchard_grid_dense" class="cls-2" d="M34.75,18.15a.37.37,0,0,0,.13-.27.38.38,0,0,0-.38-.38h-.06a1.35,1.35,0,0,1,.72-.64l-.07-.24a1.57,1.57,0,0,0-.59.38h0a.54.54,0,0,0-.42-.55l-.15-.06-.18-.09v.2a.58.58,0,0,0,.63.62h0a2.11,2.11,0,0,0-.21.31.35.35,0,0,0-.31-.18.38.38,0,0,0-.38.37v0a.27.27,0,0,0-.12,0A.38.38,0,0,0,33,18a.37.37,0,0,0,.25.35.37.37,0,0,0-.13.27.39.39,0,0,0,.25.36.36.36,0,0,0-.12.27.38.38,0,0,0,.75,0v0l.12,0a.38.38,0,0,0,.38-.37v0a.27.27,0,0,0,.12,0A.38.38,0,0,0,35,18.5.37.37,0,0,0,34.75,18.15Zm4,0a.37.37,0,0,0,.13-.27.38.38,0,0,0-.38-.38h-.06a1.35,1.35,0,0,1,.72-.64l-.07-.24a1.57,1.57,0,0,0-.59.38h0a.54.54,0,0,0-.42-.55l-.15-.06-.18-.09v.2a.58.58,0,0,0,.63.62h0a2.11,2.11,0,0,0-.21.31.35.35,0,0,0-.31-.18.38.38,0,0,0-.38.37v0a.27.27,0,0,0-.12,0A.38.38,0,0,0,37,18a.37.37,0,0,0,.25.35.37.37,0,0,0-.13.27.39.39,0,0,0,.25.36.36.36,0,0,0-.12.27.38.38,0,0,0,.75,0v0l.12,0a.38.38,0,0,0,.38-.37v0a.27.27,0,0,0,.12,0A.38.38,0,0,0,39,18.5.37.37,0,0,0,38.75,18.15Zm4,0a.37.37,0,0,0,.13-.27.38.38,0,0,0-.38-.38h-.06a1.35,1.35,0,0,1,.72-.64l-.07-.24a1.57,1.57,0,0,0-.59.38h0a.54.54,0,0,0-.42-.55l-.15-.06-.18-.09v.2a.58.58,0,0,0,.63.62h0a2.11,2.11,0,0,0-.21.31.35.35,0,0,0-.31-.18.38.38,0,0,0-.38.37v0a.27.27,0,0,0-.12,0A.38.38,0,0,0,41,18a.37.37,0,0,0,.25.35.37.37,0,0,0-.13.27.39.39,0,0,0,.25.36.36.36,0,0,0-.12.27.38.38,0,0,0,.75,0v0l.12,0a.38.38,0,0,0,.38-.37v0a.27.27,0,0,0,.12,0A.38.38,0,0,0,43,18.5.37.37,0,0,0,42.75,18.15Zm4,0a.37.37,0,0,0,.13-.27.38.38,0,0,0-.38-.38h-.06a1.35,1.35,0,0,1,.72-.64l-.07-.24a1.57,1.57,0,0,0-.59.38h0a.54.54,0,0,0-.42-.55l-.15-.06-.18-.09v.2a.58.58,0,0,0,.63.62h0a2.11,2.11,0,0,0-.21.31.35.35,0,0,0-.31-.18.38.38,0,0,0-.38.37v0a.27.27,0,0,0-.12,0A.38.38,0,0,0,45,18a.37.37,0,0,0,.25.35.37.37,0,0,0-.13.27.39.39,0,0,0,.25.36.36.36,0,0,0-.12.27.38.38,0,0,0,.75,0v0l.12,0a.38.38,0,0,0,.38-.37v0a.27.27,0,0,0,.12,0A.38.38,0,0,0,47,18.5.37.37,0,0,0,46.75,18.15Zm-12,5.33a.35.35,0,0,0,.13-.27.38.38,0,0,0-.38-.38h-.06a1.44,1.44,0,0,1,.72-.64L35.09,22a1.57,1.57,0,0,0-.59.38h0a.54.54,0,0,0-.42-.55.47.47,0,0,1-.15-.06l-.18-.09v.2a.58.58,0,0,0,.63.63h0a2,2,0,0,0-.21.3.37.37,0,0,0-.31-.18.38.38,0,0,0-.38.38v0l-.12,0a.38.38,0,0,0-.38.37.37.37,0,0,0,.25.35.37.37,0,0,0-.13.28.38.38,0,0,0,.25.35.38.38,0,1,0,.63.27v0l.12,0a.37.37,0,0,0,.38-.37v0a.27.27,0,0,0,.12,0,.38.38,0,0,0,.38-.38A.38.38,0,0,0,34.75,23.48Zm4,0a.35.35,0,0,0,.13-.27.38.38,0,0,0-.38-.38h-.06a1.44,1.44,0,0,1,.72-.64L39.09,22a1.57,1.57,0,0,0-.59.38h0a.54.54,0,0,0-.42-.55.47.47,0,0,1-.15-.06l-.18-.09v.2a.58.58,0,0,0,.63.63h0a2,2,0,0,0-.21.3.37.37,0,0,0-.31-.18.38.38,0,0,0-.38.38v0l-.12,0a.38.38,0,0,0-.38.37.37.37,0,0,0,.25.35.37.37,0,0,0-.13.28.38.38,0,0,0,.25.35.38.38,0,1,0,.63.27v0l.12,0a.37.37,0,0,0,.38-.37v0a.27.27,0,0,0,.12,0,.38.38,0,0,0,.38-.38A.38.38,0,0,0,38.75,23.48Zm4,0a.35.35,0,0,0,.13-.27.38.38,0,0,0-.38-.38h-.06a1.44,1.44,0,0,1,.72-.64L43.09,22a1.57,1.57,0,0,0-.59.38h0a.54.54,0,0,0-.42-.55.47.47,0,0,1-.15-.06l-.18-.09v.2a.58.58,0,0,0,.63.63h0a2,2,0,0,0-.21.3.37.37,0,0,0-.31-.18.38.38,0,0,0-.38.38v0l-.12,0a.38.38,0,0,0-.38.37.37.37,0,0,0,.25.35.37.37,0,0,0-.13.28.38.38,0,0,0,.25.35.38.38,0,1,0,.63.27v0l.12,0a.37.37,0,0,0,.38-.37v0a.27.27,0,0,0,.12,0,.38.38,0,0,0,.38-.38A.38.38,0,0,0,42.75,23.48Zm4,0a.35.35,0,0,0,.13-.27.38.38,0,0,0-.38-.38h-.06a1.44,1.44,0,0,1,.72-.64L47.09,22a1.57,1.57,0,0,0-.59.38h0a.54.54,0,0,0-.42-.55.47.47,0,0,1-.15-.06l-.18-.09v.2a.58.58,0,0,0,.63.63h0a2,2,0,0,0-.21.3.37.37,0,0,0-.31-.18.38.38,0,0,0-.38.38v0l-.12,0a.38.38,0,0,0-.38.37.37.37,0,0,0,.25.35.37.37,0,0,0-.13.28.38.38,0,0,0,.25.35.38.38,0,1,0,.63.27v0l.12,0a.37.37,0,0,0,.38-.37v0a.27.27,0,0,0,.12,0,.38.38,0,0,0,.38-.38A.38.38,0,0,0,46.75,23.48Zm-12,5.34a.37.37,0,0,0-.25-.65h-.06a1.38,1.38,0,0,1,.72-.63l-.07-.24a1.46,1.46,0,0,0-.59.38h0a.54.54,0,0,0-.42-.55l-.15-.07L33.75,27v.21a.58.58,0,0,0,.63.62h0a2.11,2.11,0,0,0-.21.31.35.35,0,0,0-.31-.18.37.37,0,0,0-.38.37v0a.27.27,0,0,0-.12,0,.38.38,0,0,0-.38.38.38.38,0,0,0,.25.35.35.35,0,0,0-.13.27.38.38,0,0,0,.25.35.4.4,0,0,0-.12.28.38.38,0,0,0,.75,0v0a.27.27,0,0,0,.12,0,.38.38,0,0,0,.38-.38v0l.12,0a.38.38,0,0,0,.38-.37A.37.37,0,0,0,34.75,28.82Zm4,0a.37.37,0,0,0-.25-.65h-.06a1.38,1.38,0,0,1,.72-.63l-.07-.24a1.46,1.46,0,0,0-.59.38h0a.54.54,0,0,0-.42-.55l-.15-.07L37.75,27v.21a.58.58,0,0,0,.63.62h0a2.11,2.11,0,0,0-.21.31.35.35,0,0,0-.31-.18.37.37,0,0,0-.38.37v0a.27.27,0,0,0-.12,0,.38.38,0,0,0-.38.38.38.38,0,0,0,.25.35.35.35,0,0,0-.13.27.38.38,0,0,0,.25.35.4.4,0,0,0-.12.28.38.38,0,0,0,.75,0v0a.27.27,0,0,0,.12,0,.38.38,0,0,0,.38-.38v0l.12,0a.38.38,0,0,0,.38-.37A.37.37,0,0,0,38.75,28.82Zm4,0a.37.37,0,0,0-.25-.65h-.06a1.38,1.38,0,0,1,.72-.63l-.07-.24a1.46,1.46,0,0,0-.59.38h0a.54.54,0,0,0-.42-.55l-.15-.07L41.75,27v.21a.58.58,0,0,0,.63.62h0a2.11,2.11,0,0,0-.21.31.35.35,0,0,0-.31-.18.37.37,0,0,0-.38.37v0a.27.27,0,0,0-.12,0,.38.38,0,0,0-.38.38.38.38,0,0,0,.25.35.35.35,0,0,0-.13.27.38.38,0,0,0,.25.35.4.4,0,0,0-.12.28.38.38,0,0,0,.75,0v0a.27.27,0,0,0,.12,0,.38.38,0,0,0,.38-.38v0l.12,0a.38.38,0,0,0,.38-.37A.37.37,0,0,0,42.75,28.82Zm4,0a.37.37,0,0,0-.25-.65h-.06a1.38,1.38,0,0,1,.72-.63l-.07-.24a1.46,1.46,0,0,0-.59.38h0a.54.54,0,0,0-.42-.55l-.15-.07L45.75,27v.21a.58.58,0,0,0,.63.62h0a2.11,2.11,0,0,0-.21.31.35.35,0,0,0-.31-.18.37.37,0,0,0-.38.37v0a.27.27,0,0,0-.12,0,.38.38,0,0,0-.38.38.38.38,0,0,0,.25.35.35.35,0,0,0-.13.27.38.38,0,0,0,.25.35.4.4,0,0,0-.12.28.38.38,0,0,0,.75,0v0a.27.27,0,0,0,.12,0,.38.38,0,0,0,.38-.38v0l.12,0a.38.38,0,0,0,.38-.37A.37.37,0,0,0,46.75,28.82Z"/><path id="orchard_grid_dense-7" data-name="orchard_grid_dense" class="cls-2" d="M50.75,2.15a.37.37,0,0,0,.13-.27.38.38,0,0,0-.38-.38h-.06a1.35,1.35,0,0,1,.72-.64L51.09.63A1.57,1.57,0,0,0,50.5,1h0a.54.54,0,0,0-.42-.55L49.93.39,49.75.3V.5a.58.58,0,0,0,.63.62h0a2.11,2.11,0,0,0-.21.31.35.35,0,0,0-.31-.18.38.38,0,0,0-.38.37v0a.27.27,0,0,0-.12,0A.38.38,0,0,0,49,2a.37.37,0,0,0,.25.35.37.37,0,0,0-.13.27.39.39,0,0,0,.25.36.36.36,0,0,0-.12.27.38.38,0,0,0,.75,0v0l.12,0a.38.38,0,0,0,.38-.37v0a.27.27,0,0,0,.12,0A.38.38,0,0,0,51,2.5.37.37,0,0,0,50.75,2.15Zm4,0a.37.37,0,0,0,.13-.27.38.38,0,0,0-.38-.38h-.06a1.35,1.35,0,0,1,.72-.64L55.09.63A1.57,1.57,0,0,0,54.5,1h0a.54.54,0,0,0-.42-.55L53.93.39,53.75.3V.5a.58.58,0,0,0,.63.62h0a2.11,2.11,0,0,0-.21.31.35.35,0,0,0-.31-.18.38.38,0,0,0-.38.37v0a.27.27,0,0,0-.12,0A.38.38,0,0,0,53,2a.37.37,0,0,0,.25.35.37.37,0,0,0-.13.27.39.39,0,0,0,.25.36.36.36,0,0,0-.12.27.38.38,0,0,0,.75,0v0l.12,0a.38.38,0,0,0,.38-.37v0a.27.27,0,0,0,.12,0A.38.38,0,0,0,55,2.5.37.37,0,0,0,54.75,2.15Zm4,0a.37.37,0,0,0,.13-.27.38.38,0,0,0-.38-.38h-.06a1.35,1.35,0,0,1,.72-.64L59.09.63A1.57,1.57,0,0,0,58.5,1h0a.54.54,0,0,0-.42-.55L57.93.39,57.75.3V.5a.58.58,0,0,0,.63.62h0a2.11,2.11,0,0,0-.21.31.35.35,0,0,0-.31-.18.38.38,0,0,0-.38.37v0a.27.27,0,0,0-.12,0A.38.38,0,0,0,57,2a.37.37,0,0,0,.25.35.37.37,0,0,0-.13.27.39.39,0,0,0,.25.36.36.36,0,0,0-.12.27.38.38,0,0,0,.75,0v0l.12,0a.38.38,0,0,0,.38-.37v0a.27.27,0,0,0,.12,0A.38.38,0,0,0,59,2.5.37.37,0,0,0,58.75,2.15Zm4,0a.37.37,0,0,0,.13-.27.38.38,0,0,0-.38-.38h-.06a1.35,1.35,0,0,1,.72-.64L63.09.63A1.57,1.57,0,0,0,62.5,1h0a.54.54,0,0,0-.42-.55L61.93.39,61.75.3V.5a.58.58,0,0,0,.63.62h0a2.11,2.11,0,0,0-.21.31.35.35,0,0,0-.31-.18.38.38,0,0,0-.38.37v0a.27.27,0,0,0-.12,0A.38.38,0,0,0,61,2a.37.37,0,0,0,.25.35.37.37,0,0,0-.13.27.39.39,0,0,0,.25.36.36.36,0,0,0-.12.27.38.38,0,0,0,.75,0v0l.12,0a.38.38,0,0,0,.38-.37v0a.27.27,0,0,0,.12,0A.38.38,0,0,0,63,2.5.37.37,0,0,0,62.75,2.15Zm-12,5.33a.35.35,0,0,0,.13-.27.38.38,0,0,0-.38-.38h-.06a1.44,1.44,0,0,1,.72-.64L51.09,6a1.57,1.57,0,0,0-.59.38h0a.54.54,0,0,0-.42-.55.47.47,0,0,1-.15-.06l-.18-.09v.2a.58.58,0,0,0,.63.63h0a2,2,0,0,0-.21.3.37.37,0,0,0-.31-.18A.38.38,0,0,0,49.5,7V7l-.12,0a.38.38,0,0,0-.38.37.37.37,0,0,0,.25.35.37.37,0,0,0-.13.28.38.38,0,0,0,.25.35.38.38,0,1,0,.63.27v0l.12,0a.37.37,0,0,0,.38-.37v0l.12,0A.38.38,0,0,0,51,7.83.38.38,0,0,0,50.75,7.48Zm4,0a.35.35,0,0,0,.13-.27.38.38,0,0,0-.38-.38h-.06a1.44,1.44,0,0,1,.72-.64L55.09,6a1.57,1.57,0,0,0-.59.38h0a.54.54,0,0,0-.42-.55.47.47,0,0,1-.15-.06l-.18-.09v.2a.58.58,0,0,0,.63.63h0a2,2,0,0,0-.21.3.37.37,0,0,0-.31-.18A.38.38,0,0,0,53.5,7V7l-.12,0a.38.38,0,0,0-.38.37.37.37,0,0,0,.25.35.37.37,0,0,0-.13.28.38.38,0,0,0,.25.35.38.38,0,1,0,.63.27v0l.12,0a.37.37,0,0,0,.38-.37v0l.12,0A.38.38,0,0,0,55,7.83.38.38,0,0,0,54.75,7.48Zm4,0a.35.35,0,0,0,.13-.27.38.38,0,0,0-.38-.38h-.06a1.44,1.44,0,0,1,.72-.64L59.09,6a1.57,1.57,0,0,0-.59.38h0a.54.54,0,0,0-.42-.55.47.47,0,0,1-.15-.06l-.18-.09v.2a.58.58,0,0,0,.63.63h0a2,2,0,0,0-.21.3.37.37,0,0,0-.31-.18A.38.38,0,0,0,57.5,7V7l-.12,0a.38.38,0,0,0-.38.37.37.37,0,0,0,.25.35.37.37,0,0,0-.13.28.38.38,0,0,0,.25.35.38.38,0,1,0,.63.27v0l.12,0a.37.37,0,0,0,.38-.37v0l.12,0A.38.38,0,0,0,59,7.83.38.38,0,0,0,58.75,7.48Zm4,0a.35.35,0,0,0,.13-.27.38.38,0,0,0-.38-.38h-.06a1.44,1.44,0,0,1,.72-.64L63.09,6a1.57,1.57,0,0,0-.59.38h0a.54.54,0,0,0-.42-.55.47.47,0,0,1-.15-.06l-.18-.09v.2a.58.58,0,0,0,.63.63h0a2,2,0,0,0-.21.3.37.37,0,0,0-.31-.18A.38.38,0,0,0,61.5,7V7l-.12,0a.38.38,0,0,0-.38.37.37.37,0,0,0,.25.35.37.37,0,0,0-.13.28.38.38,0,0,0,.25.35.38.38,0,1,0,.63.27v0l.12,0a.37.37,0,0,0,.38-.37v0l.12,0A.38.38,0,0,0,63,7.83.38.38,0,0,0,62.75,7.48Zm-12,5.34a.37.37,0,0,0-.25-.65h-.06a1.38,1.38,0,0,1,.72-.63l-.07-.24a1.46,1.46,0,0,0-.59.38h0a.54.54,0,0,0-.42-.55l-.15-.07L49.75,11v.21a.58.58,0,0,0,.63.62h0a2.11,2.11,0,0,0-.21.31.35.35,0,0,0-.31-.18.37.37,0,0,0-.38.37v0l-.12,0a.38.38,0,0,0-.38.38.38.38,0,0,0,.25.35.35.35,0,0,0-.13.27.38.38,0,0,0,.25.35.4.4,0,0,0-.12.28.38.38,0,0,0,.75,0v0l.12,0a.38.38,0,0,0,.38-.38v0l.12,0a.38.38,0,0,0,.38-.37A.37.37,0,0,0,50.75,12.82Zm4,0a.37.37,0,0,0-.25-.65h-.06a1.38,1.38,0,0,1,.72-.63l-.07-.24a1.46,1.46,0,0,0-.59.38h0a.54.54,0,0,0-.42-.55l-.15-.07L53.75,11v.21a.58.58,0,0,0,.63.62h0a2.11,2.11,0,0,0-.21.31.35.35,0,0,0-.31-.18.37.37,0,0,0-.38.37v0l-.12,0a.38.38,0,0,0-.38.38.38.38,0,0,0,.25.35.35.35,0,0,0-.13.27.38.38,0,0,0,.25.35.4.4,0,0,0-.12.28.38.38,0,0,0,.75,0v0l.12,0a.38.38,0,0,0,.38-.38v0l.12,0a.38.38,0,0,0,.38-.37A.37.37,0,0,0,54.75,12.82Zm4,0a.37.37,0,0,0-.25-.65h-.06a1.38,1.38,0,0,1,.72-.63l-.07-.24a1.46,1.46,0,0,0-.59.38h0a.54.54,0,0,0-.42-.55l-.15-.07L57.75,11v.21a.58.58,0,0,0,.63.62h0a2.11,2.11,0,0,0-.21.31.35.35,0,0,0-.31-.18.37.37,0,0,0-.38.37v0l-.12,0a.38.38,0,0,0-.38.38.38.38,0,0,0,.25.35.35.35,0,0,0-.13.27.38.38,0,0,0,.25.35.4.4,0,0,0-.12.28.38.38,0,0,0,.75,0v0l.12,0a.38.38,0,0,0,.38-.38v0l.12,0a.38.38,0,0,0,.38-.37A.37.37,0,0,0,58.75,12.82Zm4,0a.37.37,0,0,0-.25-.65h-.06a1.38,1.38,0,0,1,.72-.63l-.07-.24a1.46,1.46,0,0,0-.59.38h0a.54.54,0,0,0-.42-.55l-.15-.07L61.75,11v.21a.58.58,0,0,0,.63.62h0a2.11,2.11,0,0,0-.21.31.35.35,0,0,0-.31-.18.37.37,0,0,0-.38.37v0l-.12,0a.38.38,0,0,0-.38.38.38.38,0,0,0,.25.35.35.35,0,0,0-.13.27.38.38,0,0,0,.25.35.4.4,0,0,0-.12.28.38.38,0,0,0,.75,0v0l.12,0a.38.38,0,0,0,.38-.38v0l.12,0a.38.38,0,0,0,.38-.37A.37.37,0,0,0,62.75,12.82Z"/><path id="orchard_grid_dense-8" data-name="orchard_grid_dense" class="cls-2" d="M50.75,18.15a.37.37,0,0,0,.13-.27.38.38,0,0,0-.38-.38h-.06a1.35,1.35,0,0,1,.72-.64l-.07-.24a1.57,1.57,0,0,0-.59.38h0a.54.54,0,0,0-.42-.55l-.15-.06-.18-.09v.2a.58.58,0,0,0,.63.62h0a2.11,2.11,0,0,0-.21.31.35.35,0,0,0-.31-.18.38.38,0,0,0-.38.37v0a.27.27,0,0,0-.12,0A.38.38,0,0,0,49,18a.37.37,0,0,0,.25.35.37.37,0,0,0-.13.27.39.39,0,0,0,.25.36.36.36,0,0,0-.12.27.38.38,0,0,0,.75,0v0l.12,0a.38.38,0,0,0,.38-.37v0a.27.27,0,0,0,.12,0A.38.38,0,0,0,51,18.5.37.37,0,0,0,50.75,18.15Zm4,0a.37.37,0,0,0,.13-.27.38.38,0,0,0-.38-.38h-.06a1.35,1.35,0,0,1,.72-.64l-.07-.24a1.57,1.57,0,0,0-.59.38h0a.54.54,0,0,0-.42-.55l-.15-.06-.18-.09v.2a.58.58,0,0,0,.63.62h0a2.11,2.11,0,0,0-.21.31.35.35,0,0,0-.31-.18.38.38,0,0,0-.38.37v0a.27.27,0,0,0-.12,0A.38.38,0,0,0,53,18a.37.37,0,0,0,.25.35.37.37,0,0,0-.13.27.39.39,0,0,0,.25.36.36.36,0,0,0-.12.27.38.38,0,0,0,.75,0v0l.12,0a.38.38,0,0,0,.38-.37v0a.27.27,0,0,0,.12,0A.38.38,0,0,0,55,18.5.37.37,0,0,0,54.75,18.15Zm4,0a.37.37,0,0,0,.13-.27.38.38,0,0,0-.38-.38h-.06a1.35,1.35,0,0,1,.72-.64l-.07-.24a1.57,1.57,0,0,0-.59.38h0a.54.54,0,0,0-.42-.55l-.15-.06-.18-.09v.2a.58.58,0,0,0,.63.62h0a2.11,2.11,0,0,0-.21.31.35.35,0,0,0-.31-.18.38.38,0,0,0-.38.37v0a.27.27,0,0,0-.12,0A.38.38,0,0,0,57,18a.37.37,0,0,0,.25.35.37.37,0,0,0-.13.27.39.39,0,0,0,.25.36.36.36,0,0,0-.12.27.38.38,0,0,0,.75,0v0l.12,0a.38.38,0,0,0,.38-.37v0a.27.27,0,0,0,.12,0A.38.38,0,0,0,59,18.5.37.37,0,0,0,58.75,18.15Zm4,0a.37.37,0,0,0,.13-.27.38.38,0,0,0-.38-.38h-.06a1.35,1.35,0,0,1,.72-.64l-.07-.24a1.57,1.57,0,0,0-.59.38h0a.54.54,0,0,0-.42-.55l-.15-.06-.18-.09v.2a.58.58,0,0,0,.63.62h0a2.11,2.11,0,0,0-.21.31.35.35,0,0,0-.31-.18.38.38,0,0,0-.38.37v0a.27.27,0,0,0-.12,0A.38.38,0,0,0,61,18a.37.37,0,0,0,.25.35.37.37,0,0,0-.13.27.39.39,0,0,0,.25.36.36.36,0,0,0-.12.27.38.38,0,0,0,.75,0v0l.12,0a.38.38,0,0,0,.38-.37v0a.27.27,0,0,0,.12,0A.38.38,0,0,0,63,18.5.37.37,0,0,0,62.75,18.15Zm-12,5.33a.35.35,0,0,0,.13-.27.38.38,0,0,0-.38-.38h-.06a1.44,1.44,0,0,1,.72-.64L51.09,22a1.57,1.57,0,0,0-.59.38h0a.54.54,0,0,0-.42-.55.47.47,0,0,1-.15-.06l-.18-.09v.2a.58.58,0,0,0,.63.63h0a2,2,0,0,0-.21.3.37.37,0,0,0-.31-.18.38.38,0,0,0-.38.38v0l-.12,0a.38.38,0,0,0-.38.37.37.37,0,0,0,.25.35.37.37,0,0,0-.13.28.38.38,0,0,0,.25.35.38.38,0,1,0,.63.27v0l.12,0a.37.37,0,0,0,.38-.37v0a.27.27,0,0,0,.12,0,.38.38,0,0,0,.38-.38A.38.38,0,0,0,50.75,23.48Zm4,0a.35.35,0,0,0,.13-.27.38.38,0,0,0-.38-.38h-.06a1.44,1.44,0,0,1,.72-.64L55.09,22a1.57,1.57,0,0,0-.59.38h0a.54.54,0,0,0-.42-.55.47.47,0,0,1-.15-.06l-.18-.09v.2a.58.58,0,0,0,.63.63h0a2,2,0,0,0-.21.3.37.37,0,0,0-.31-.18.38.38,0,0,0-.38.38v0l-.12,0a.38.38,0,0,0-.38.37.37.37,0,0,0,.25.35.37.37,0,0,0-.13.28.38.38,0,0,0,.25.35.38.38,0,1,0,.63.27v0l.12,0a.37.37,0,0,0,.38-.37v0a.27.27,0,0,0,.12,0,.38.38,0,0,0,.38-.38A.38.38,0,0,0,54.75,23.48Zm4,0a.35.35,0,0,0,.13-.27.38.38,0,0,0-.38-.38h-.06a1.44,1.44,0,0,1,.72-.64L59.09,22a1.57,1.57,0,0,0-.59.38h0a.54.54,0,0,0-.42-.55.47.47,0,0,1-.15-.06l-.18-.09v.2a.58.58,0,0,0,.63.63h0a2,2,0,0,0-.21.3.37.37,0,0,0-.31-.18.38.38,0,0,0-.38.38v0l-.12,0a.38.38,0,0,0-.38.37.37.37,0,0,0,.25.35.37.37,0,0,0-.13.28.38.38,0,0,0,.25.35.38.38,0,1,0,.63.27v0l.12,0a.37.37,0,0,0,.38-.37v0a.27.27,0,0,0,.12,0,.38.38,0,0,0,.38-.38A.38.38,0,0,0,58.75,23.48Zm4,0a.35.35,0,0,0,.13-.27.38.38,0,0,0-.38-.38h-.06a1.44,1.44,0,0,1,.72-.64L63.09,22a1.57,1.57,0,0,0-.59.38h0a.54.54,0,0,0-.42-.55.47.47,0,0,1-.15-.06l-.18-.09v.2a.58.58,0,0,0,.63.63h0a2,2,0,0,0-.21.3.37.37,0,0,0-.31-.18.38.38,0,0,0-.38.38v0l-.12,0a.38.38,0,0,0-.38.37.37.37,0,0,0,.25.35.37.37,0,0,0-.13.28.38.38,0,0,0,.25.35.38.38,0,1,0,.63.27v0l.12,0a.37.37,0,0,0,.38-.37v0a.27.27,0,0,0,.12,0,.38.38,0,0,0,.38-.38A.38.38,0,0,0,62.75,23.48Zm-12,5.34a.37.37,0,0,0-.25-.65h-.06a1.38,1.38,0,0,1,.72-.63l-.07-.24a1.46,1.46,0,0,0-.59.38h0a.54.54,0,0,0-.42-.55l-.15-.07L49.75,27v.21a.58.58,0,0,0,.63.62h0a2.11,2.11,0,0,0-.21.31.35.35,0,0,0-.31-.18.37.37,0,0,0-.38.37v0a.27.27,0,0,0-.12,0,.38.38,0,0,0-.38.38.38.38,0,0,0,.25.35.35.35,0,0,0-.13.27.38.38,0,0,0,.25.35.4.4,0,0,0-.12.28.38.38,0,0,0,.75,0v0a.27.27,0,0,0,.12,0,.38.38,0,0,0,.38-.38v0l.12,0a.38.38,0,0,0,.38-.37A.37.37,0,0,0,50.75,28.82Zm4,0a.37.37,0,0,0-.25-.65h-.06a1.38,1.38,0,0,1,.72-.63l-.07-.24a1.46,1.46,0,0,0-.59.38h0a.54.54,0,0,0-.42-.55l-.15-.07L53.75,27v.21a.58.58,0,0,0,.63.62h0a2.11,2.11,0,0,0-.21.31.35.35,0,0,0-.31-.18.37.37,0,0,0-.38.37v0a.27.27,0,0,0-.12,0,.38.38,0,0,0-.38.38.38.38,0,0,0,.25.35.35.35,0,0,0-.13.27.38.38,0,0,0,.25.35.4.4,0,0,0-.12.28.38.38,0,0,0,.75,0v0a.27.27,0,0,0,.12,0,.38.38,0,0,0,.38-.38v0l.12,0a.38.38,0,0,0,.38-.37A.37.37,0,0,0,54.75,28.82Zm4,0a.37.37,0,0,0-.25-.65h-.06a1.38,1.38,0,0,1,.72-.63l-.07-.24a1.46,1.46,0,0,0-.59.38h0a.54.54,0,0,0-.42-.55l-.15-.07L57.75,27v.21a.58.58,0,0,0,.63.62h0a2.11,2.11,0,0,0-.21.31.35.35,0,0,0-.31-.18.37.37,0,0,0-.38.37v0a.27.27,0,0,0-.12,0,.38.38,0,0,0-.38.38.38.38,0,0,0,.25.35.35.35,0,0,0-.13.27.38.38,0,0,0,.25.35.4.4,0,0,0-.12.28.38.38,0,0,0,.75,0v0a.27.27,0,0,0,.12,0,.38.38,0,0,0,.38-.38v0l.12,0a.38.38,0,0,0,.38-.37A.37.37,0,0,0,58.75,28.82Zm4,0a.37.37,0,0,0-.25-.65h-.06a1.38,1.38,0,0,1,.72-.63l-.07-.24a1.46,1.46,0,0,0-.59.38h0a.54.54,0,0,0-.42-.55l-.15-.07L61.75,27v.21a.58.58,0,0,0,.63.62h0a2.11,2.11,0,0,0-.21.31.35.35,0,0,0-.31-.18.37.37,0,0,0-.38.37v0a.27.27,0,0,0-.12,0,.38.38,0,0,0-.38.38.38.38,0,0,0,.25.35.35.35,0,0,0-.13.27.38.38,0,0,0,.25.35.4.4,0,0,0-.12.28.38.38,0,0,0,.75,0v0a.27.27,0,0,0,.12,0,.38.38,0,0,0,.38-.38v0l.12,0a.38.38,0,0,0,.38-.37A.37.37,0,0,0,62.75,28.82Z"/></g><g id="vineyard_poly_grid_dense_half-3" data-name="vineyard_poly_grid_dense_half"><rect id="bbox_64-3" data-name="bbox_64" class="cls-1" y="32" width="32" height="32"/><path id="orchard_grid_dense-9" data-name="orchard_grid_dense" class="cls-2" d="M2.75,34.15a.37.37,0,0,0,.13-.27.38.38,0,0,0-.38-.38H2.44a1.35,1.35,0,0,1,.72-.64l-.07-.24A1.57,1.57,0,0,0,2.5,33h0a.54.54,0,0,0-.42-.55l-.15-.06-.18-.09v.2a.58.58,0,0,0,.63.62h0a2.11,2.11,0,0,0-.21.31.35.35,0,0,0-.31-.18.38.38,0,0,0-.38.37v0l-.12,0A.38.38,0,0,0,1,34a.37.37,0,0,0,.25.35.37.37,0,0,0-.13.27.39.39,0,0,0,.25.36.36.36,0,0,0-.12.27.38.38,0,0,0,.75,0v0l.12,0a.38.38,0,0,0,.38-.37v0l.12,0A.38.38,0,0,0,3,34.5.37.37,0,0,0,2.75,34.15Zm4,0a.37.37,0,0,0,.13-.27.38.38,0,0,0-.38-.38H6.44a1.35,1.35,0,0,1,.72-.64l-.07-.24A1.57,1.57,0,0,0,6.5,33h0a.54.54,0,0,0-.42-.55l-.15-.06-.18-.09v.2a.58.58,0,0,0,.63.62h0a2.11,2.11,0,0,0-.21.31.35.35,0,0,0-.31-.18.38.38,0,0,0-.38.37v0l-.12,0A.38.38,0,0,0,5,34a.37.37,0,0,0,.25.35.37.37,0,0,0-.13.27.39.39,0,0,0,.25.36.36.36,0,0,0-.12.27.38.38,0,0,0,.75,0v0l.12,0a.38.38,0,0,0,.38-.37v0l.12,0A.38.38,0,0,0,7,34.5.37.37,0,0,0,6.75,34.15Zm4,0a.37.37,0,0,0,.13-.27.38.38,0,0,0-.38-.38h-.06a1.35,1.35,0,0,1,.72-.64l-.07-.24a1.57,1.57,0,0,0-.59.38h0a.54.54,0,0,0-.42-.55l-.15-.06-.18-.09v.2a.58.58,0,0,0,.63.62h0a2.11,2.11,0,0,0-.21.31.35.35,0,0,0-.31-.18.38.38,0,0,0-.38.37v0l-.12,0A.38.38,0,0,0,9,34a.37.37,0,0,0,.25.35.37.37,0,0,0-.13.27.39.39,0,0,0,.25.36.36.36,0,0,0-.12.27.38.38,0,0,0,.75,0v0l.12,0a.38.38,0,0,0,.38-.37v0l.12,0A.38.38,0,0,0,11,34.5.37.37,0,0,0,10.75,34.15Zm4,0a.37.37,0,0,0,.13-.27.38.38,0,0,0-.38-.38h-.06a1.35,1.35,0,0,1,.72-.64l-.07-.24a1.57,1.57,0,0,0-.59.38h0a.54.54,0,0,0-.42-.55l-.15-.06-.18-.09v.2a.58.58,0,0,0,.63.62h0a2.11,2.11,0,0,0-.21.31.35.35,0,0,0-.31-.18.38.38,0,0,0-.38.37v0l-.12,0A.38.38,0,0,0,13,34a.37.37,0,0,0,.25.35.37.37,0,0,0-.13.27.39.39,0,0,0,.25.36.36.36,0,0,0-.12.27.38.38,0,0,0,.75,0v0l.12,0a.38.38,0,0,0,.38-.37v0l.12,0A.38.38,0,0,0,15,34.5.37.37,0,0,0,14.75,34.15Zm-12,5.33a.35.35,0,0,0,.13-.27.38.38,0,0,0-.38-.38H2.44a1.44,1.44,0,0,1,.72-.64L3.09,38a1.57,1.57,0,0,0-.59.38h0a.54.54,0,0,0-.42-.55.47.47,0,0,1-.15-.06l-.18-.09v.2a.58.58,0,0,0,.63.63h0a2,2,0,0,0-.21.3.37.37,0,0,0-.31-.18A.38.38,0,0,0,1.5,39v0l-.12,0a.38.38,0,0,0-.38.37.37.37,0,0,0,.25.35.37.37,0,0,0-.13.28.38.38,0,0,0,.25.35.38.38,0,1,0,.63.27v0l.12,0a.37.37,0,0,0,.38-.37v0a.27.27,0,0,0,.12,0A.38.38,0,0,0,3,39.83.38.38,0,0,0,2.75,39.48Zm4,0a.35.35,0,0,0,.13-.27.38.38,0,0,0-.38-.38H6.44a1.44,1.44,0,0,1,.72-.64L7.09,38a1.57,1.57,0,0,0-.59.38h0a.54.54,0,0,0-.42-.55.47.47,0,0,1-.15-.06l-.18-.09v.2a.58.58,0,0,0,.63.63h0a2,2,0,0,0-.21.3.37.37,0,0,0-.31-.18A.38.38,0,0,0,5.5,39v0l-.12,0a.38.38,0,0,0-.38.37.37.37,0,0,0,.25.35.37.37,0,0,0-.13.28.38.38,0,0,0,.25.35.38.38,0,1,0,.63.27v0l.12,0a.37.37,0,0,0,.38-.37v0a.27.27,0,0,0,.12,0A.38.38,0,0,0,7,39.83.38.38,0,0,0,6.75,39.48Zm4,0a.35.35,0,0,0,.13-.27.38.38,0,0,0-.38-.38h-.06a1.44,1.44,0,0,1,.72-.64L11.09,38a1.57,1.57,0,0,0-.59.38h0a.54.54,0,0,0-.42-.55.47.47,0,0,1-.15-.06l-.18-.09v.2a.58.58,0,0,0,.63.63h0a2,2,0,0,0-.21.3.37.37,0,0,0-.31-.18A.38.38,0,0,0,9.5,39v0l-.12,0a.38.38,0,0,0-.38.37.37.37,0,0,0,.25.35.37.37,0,0,0-.13.28.38.38,0,0,0,.25.35.38.38,0,1,0,.63.27v0l.12,0a.37.37,0,0,0,.38-.37v0a.27.27,0,0,0,.12,0,.38.38,0,0,0,.38-.38A.38.38,0,0,0,10.75,39.48Zm4,0a.35.35,0,0,0,.13-.27.38.38,0,0,0-.38-.38h-.06a1.44,1.44,0,0,1,.72-.64L15.09,38a1.57,1.57,0,0,0-.59.38h0a.54.54,0,0,0-.42-.55.47.47,0,0,1-.15-.06l-.18-.09v.2a.58.58,0,0,0,.63.63h0a2,2,0,0,0-.21.3.37.37,0,0,0-.31-.18.38.38,0,0,0-.38.38v0l-.12,0a.38.38,0,0,0-.38.37.37.37,0,0,0,.25.35.37.37,0,0,0-.13.28.38.38,0,0,0,.25.35.38.38,0,1,0,.63.27v0l.12,0a.37.37,0,0,0,.38-.37v0a.27.27,0,0,0,.12,0,.38.38,0,0,0,.38-.38A.38.38,0,0,0,14.75,39.48Zm-12,5.34a.37.37,0,0,0-.25-.65H2.44a1.38,1.38,0,0,1,.72-.63l-.07-.24a1.46,1.46,0,0,0-.59.38h0a.54.54,0,0,0-.42-.55l-.15-.07L1.75,43v.21a.58.58,0,0,0,.63.62h0a2.11,2.11,0,0,0-.21.31.35.35,0,0,0-.31-.18.37.37,0,0,0-.38.37v0a.27.27,0,0,0-.12,0,.38.38,0,0,0-.38.38.38.38,0,0,0,.25.35.35.35,0,0,0-.13.27.38.38,0,0,0,.25.35.4.4,0,0,0-.12.28.38.38,0,0,0,.75,0v0l.12,0a.38.38,0,0,0,.38-.38v0l.12,0A.38.38,0,0,0,3,45.17.37.37,0,0,0,2.75,44.82Zm4,0a.37.37,0,0,0-.25-.65H6.44a1.38,1.38,0,0,1,.72-.63l-.07-.24a1.46,1.46,0,0,0-.59.38h0a.54.54,0,0,0-.42-.55l-.15-.07L5.75,43v.21a.58.58,0,0,0,.63.62h0a2.11,2.11,0,0,0-.21.31.35.35,0,0,0-.31-.18.37.37,0,0,0-.38.37v0a.27.27,0,0,0-.12,0,.38.38,0,0,0-.38.38.38.38,0,0,0,.25.35.35.35,0,0,0-.13.27.38.38,0,0,0,.25.35.4.4,0,0,0-.12.28.38.38,0,0,0,.75,0v0l.12,0a.38.38,0,0,0,.38-.38v0l.12,0A.38.38,0,0,0,7,45.17.37.37,0,0,0,6.75,44.82Zm4,0a.37.37,0,0,0-.25-.65h-.06a1.38,1.38,0,0,1,.72-.63l-.07-.24a1.46,1.46,0,0,0-.59.38h0a.54.54,0,0,0-.42-.55l-.15-.07L9.75,43v.21a.58.58,0,0,0,.63.62h0a2.11,2.11,0,0,0-.21.31.35.35,0,0,0-.31-.18.37.37,0,0,0-.38.37v0a.27.27,0,0,0-.12,0,.38.38,0,0,0-.38.38.38.38,0,0,0,.25.35.35.35,0,0,0-.13.27.38.38,0,0,0,.25.35.4.4,0,0,0-.12.28.38.38,0,0,0,.75,0v0l.12,0a.38.38,0,0,0,.38-.38v0l.12,0a.38.38,0,0,0,.38-.37A.37.37,0,0,0,10.75,44.82Zm4,0a.37.37,0,0,0-.25-.65h-.06a1.38,1.38,0,0,1,.72-.63l-.07-.24a1.46,1.46,0,0,0-.59.38h0a.54.54,0,0,0-.42-.55l-.15-.07L13.75,43v.21a.58.58,0,0,0,.63.62h0a2.11,2.11,0,0,0-.21.31.35.35,0,0,0-.31-.18.37.37,0,0,0-.38.37v0a.27.27,0,0,0-.12,0,.38.38,0,0,0-.38.38.38.38,0,0,0,.25.35.35.35,0,0,0-.13.27.38.38,0,0,0,.25.35.4.4,0,0,0-.12.28.38.38,0,0,0,.75,0v0l.12,0a.38.38,0,0,0,.38-.38v0l.12,0a.38.38,0,0,0,.38-.37A.37.37,0,0,0,14.75,44.82Z"/><path id="orchard_grid_dense-10" data-name="orchard_grid_dense" class="cls-2" d="M2.75,50.15a.37.37,0,0,0,.13-.27.38.38,0,0,0-.38-.38H2.44a1.35,1.35,0,0,1,.72-.64l-.07-.24A1.57,1.57,0,0,0,2.5,49h0a.54.54,0,0,0-.42-.55l-.15-.06-.18-.09v.2a.58.58,0,0,0,.63.62h0a2.11,2.11,0,0,0-.21.31.35.35,0,0,0-.31-.18.38.38,0,0,0-.38.37v0l-.12,0A.38.38,0,0,0,1,50a.37.37,0,0,0,.25.35.37.37,0,0,0-.13.27.39.39,0,0,0,.25.36.36.36,0,0,0-.12.27.38.38,0,0,0,.75,0v0l.12,0a.38.38,0,0,0,.38-.37v0l.12,0A.38.38,0,0,0,3,50.5.37.37,0,0,0,2.75,50.15Zm4,0a.37.37,0,0,0,.13-.27.38.38,0,0,0-.38-.38H6.44a1.35,1.35,0,0,1,.72-.64l-.07-.24A1.57,1.57,0,0,0,6.5,49h0a.54.54,0,0,0-.42-.55l-.15-.06-.18-.09v.2a.58.58,0,0,0,.63.62h0a2.11,2.11,0,0,0-.21.31.35.35,0,0,0-.31-.18.38.38,0,0,0-.38.37v0l-.12,0A.38.38,0,0,0,5,50a.37.37,0,0,0,.25.35.37.37,0,0,0-.13.27.39.39,0,0,0,.25.36.36.36,0,0,0-.12.27.38.38,0,0,0,.75,0v0l.12,0a.38.38,0,0,0,.38-.37v0l.12,0A.38.38,0,0,0,7,50.5.37.37,0,0,0,6.75,50.15Zm4,0a.37.37,0,0,0,.13-.27.38.38,0,0,0-.38-.38h-.06a1.35,1.35,0,0,1,.72-.64l-.07-.24a1.57,1.57,0,0,0-.59.38h0a.54.54,0,0,0-.42-.55l-.15-.06-.18-.09v.2a.58.58,0,0,0,.63.62h0a2.11,2.11,0,0,0-.21.31.35.35,0,0,0-.31-.18.38.38,0,0,0-.38.37v0l-.12,0A.38.38,0,0,0,9,50a.37.37,0,0,0,.25.35.37.37,0,0,0-.13.27.39.39,0,0,0,.25.36.36.36,0,0,0-.12.27.38.38,0,0,0,.75,0v0l.12,0a.38.38,0,0,0,.38-.37v0l.12,0A.38.38,0,0,0,11,50.5.37.37,0,0,0,10.75,50.15Zm4,0a.37.37,0,0,0,.13-.27.38.38,0,0,0-.38-.38h-.06a1.35,1.35,0,0,1,.72-.64l-.07-.24a1.57,1.57,0,0,0-.59.38h0a.54.54,0,0,0-.42-.55l-.15-.06-.18-.09v.2a.58.58,0,0,0,.63.62h0a2.11,2.11,0,0,0-.21.31.35.35,0,0,0-.31-.18.38.38,0,0,0-.38.37v0l-.12,0A.38.38,0,0,0,13,50a.37.37,0,0,0,.25.35.37.37,0,0,0-.13.27.39.39,0,0,0,.25.36.36.36,0,0,0-.12.27.38.38,0,0,0,.75,0v0l.12,0a.38.38,0,0,0,.38-.37v0l.12,0A.38.38,0,0,0,15,50.5.37.37,0,0,0,14.75,50.15Zm-12,5.33a.35.35,0,0,0,.13-.27.38.38,0,0,0-.38-.38H2.44a1.44,1.44,0,0,1,.72-.64L3.09,54a1.57,1.57,0,0,0-.59.38h0a.54.54,0,0,0-.42-.55.47.47,0,0,1-.15-.06l-.18-.09v.2a.58.58,0,0,0,.63.63h0a2,2,0,0,0-.21.3.37.37,0,0,0-.31-.18A.38.38,0,0,0,1.5,55v0l-.12,0a.38.38,0,0,0-.38.37.37.37,0,0,0,.25.35.37.37,0,0,0-.13.28.38.38,0,0,0,.25.35.38.38,0,1,0,.63.27v0l.12,0a.37.37,0,0,0,.38-.37v0a.27.27,0,0,0,.12,0A.38.38,0,0,0,3,55.83.38.38,0,0,0,2.75,55.48Zm4,0a.35.35,0,0,0,.13-.27.38.38,0,0,0-.38-.38H6.44a1.44,1.44,0,0,1,.72-.64L7.09,54a1.57,1.57,0,0,0-.59.38h0a.54.54,0,0,0-.42-.55.47.47,0,0,1-.15-.06l-.18-.09v.2a.58.58,0,0,0,.63.63h0a2,2,0,0,0-.21.3.37.37,0,0,0-.31-.18A.38.38,0,0,0,5.5,55v0l-.12,0a.38.38,0,0,0-.38.37.37.37,0,0,0,.25.35.37.37,0,0,0-.13.28.38.38,0,0,0,.25.35.38.38,0,1,0,.63.27v0l.12,0a.37.37,0,0,0,.38-.37v0a.27.27,0,0,0,.12,0A.38.38,0,0,0,7,55.83.38.38,0,0,0,6.75,55.48Zm4,0a.35.35,0,0,0,.13-.27.38.38,0,0,0-.38-.38h-.06a1.44,1.44,0,0,1,.72-.64L11.09,54a1.57,1.57,0,0,0-.59.38h0a.54.54,0,0,0-.42-.55.47.47,0,0,1-.15-.06l-.18-.09v.2a.58.58,0,0,0,.63.63h0a2,2,0,0,0-.21.3.37.37,0,0,0-.31-.18A.38.38,0,0,0,9.5,55v0l-.12,0a.38.38,0,0,0-.38.37.37.37,0,0,0,.25.35.37.37,0,0,0-.13.28.38.38,0,0,0,.25.35.38.38,0,1,0,.63.27v0l.12,0a.37.37,0,0,0,.38-.37v0a.27.27,0,0,0,.12,0,.38.38,0,0,0,.38-.38A.38.38,0,0,0,10.75,55.48Zm4,0a.35.35,0,0,0,.13-.27.38.38,0,0,0-.38-.38h-.06a1.44,1.44,0,0,1,.72-.64L15.09,54a1.57,1.57,0,0,0-.59.38h0a.54.54,0,0,0-.42-.55.47.47,0,0,1-.15-.06l-.18-.09v.2a.58.58,0,0,0,.63.63h0a2,2,0,0,0-.21.3.37.37,0,0,0-.31-.18.38.38,0,0,0-.38.38v0l-.12,0a.38.38,0,0,0-.38.37.37.37,0,0,0,.25.35.37.37,0,0,0-.13.28.38.38,0,0,0,.25.35.38.38,0,1,0,.63.27v0l.12,0a.37.37,0,0,0,.38-.37v0a.27.27,0,0,0,.12,0,.38.38,0,0,0,.38-.38A.38.38,0,0,0,14.75,55.48Zm-12,5.34a.37.37,0,0,0-.25-.65H2.44a1.38,1.38,0,0,1,.72-.63l-.07-.24a1.46,1.46,0,0,0-.59.38h0a.54.54,0,0,0-.42-.55l-.15-.07L1.75,59v.21a.58.58,0,0,0,.63.62h0a2.11,2.11,0,0,0-.21.31.35.35,0,0,0-.31-.18.37.37,0,0,0-.38.37v0a.27.27,0,0,0-.12,0,.38.38,0,0,0-.38.38.38.38,0,0,0,.25.35.35.35,0,0,0-.13.27.38.38,0,0,0,.25.35.4.4,0,0,0-.12.28.38.38,0,0,0,.75,0v0l.12,0a.38.38,0,0,0,.38-.38v0l.12,0A.38.38,0,0,0,3,61.17.37.37,0,0,0,2.75,60.82Zm4,0a.37.37,0,0,0-.25-.65H6.44a1.38,1.38,0,0,1,.72-.63l-.07-.24a1.46,1.46,0,0,0-.59.38h0a.54.54,0,0,0-.42-.55l-.15-.07L5.75,59v.21a.58.58,0,0,0,.63.62h0a2.11,2.11,0,0,0-.21.31.35.35,0,0,0-.31-.18.37.37,0,0,0-.38.37v0a.27.27,0,0,0-.12,0,.38.38,0,0,0-.38.38.38.38,0,0,0,.25.35.35.35,0,0,0-.13.27.38.38,0,0,0,.25.35.4.4,0,0,0-.12.28.38.38,0,0,0,.75,0v0l.12,0a.38.38,0,0,0,.38-.38v0l.12,0A.38.38,0,0,0,7,61.17.37.37,0,0,0,6.75,60.82Zm4,0a.37.37,0,0,0-.25-.65h-.06a1.38,1.38,0,0,1,.72-.63l-.07-.24a1.46,1.46,0,0,0-.59.38h0a.54.54,0,0,0-.42-.55l-.15-.07L9.75,59v.21a.58.58,0,0,0,.63.62h0a2.11,2.11,0,0,0-.21.31.35.35,0,0,0-.31-.18.37.37,0,0,0-.38.37v0a.27.27,0,0,0-.12,0,.38.38,0,0,0-.38.38.38.38,0,0,0,.25.35.35.35,0,0,0-.13.27.38.38,0,0,0,.25.35.4.4,0,0,0-.12.28.38.38,0,0,0,.75,0v0l.12,0a.38.38,0,0,0,.38-.38v0l.12,0a.38.38,0,0,0,.38-.37A.37.37,0,0,0,10.75,60.82Zm4,0a.37.37,0,0,0-.25-.65h-.06a1.38,1.38,0,0,1,.72-.63l-.07-.24a1.46,1.46,0,0,0-.59.38h0a.54.54,0,0,0-.42-.55l-.15-.07L13.75,59v.21a.58.58,0,0,0,.63.62h0a2.11,2.11,0,0,0-.21.31.35.35,0,0,0-.31-.18.37.37,0,0,0-.38.37v0a.27.27,0,0,0-.12,0,.38.38,0,0,0-.38.38.38.38,0,0,0,.25.35.35.35,0,0,0-.13.27.38.38,0,0,0,.25.35.4.4,0,0,0-.12.28.38.38,0,0,0,.75,0v0l.12,0a.38.38,0,0,0,.38-.38v0l.12,0a.38.38,0,0,0,.38-.37A.37.37,0,0,0,14.75,60.82Z"/><path id="orchard_grid_dense-11" data-name="orchard_grid_dense" class="cls-2" d="M18.75,34.15a.37.37,0,0,0,.13-.27.38.38,0,0,0-.38-.38h-.06a1.35,1.35,0,0,1,.72-.64l-.07-.24a1.57,1.57,0,0,0-.59.38h0a.54.54,0,0,0-.42-.55l-.15-.06-.18-.09v.2a.58.58,0,0,0,.63.62h0a2.11,2.11,0,0,0-.21.31.35.35,0,0,0-.31-.18.38.38,0,0,0-.38.37v0l-.12,0A.38.38,0,0,0,17,34a.37.37,0,0,0,.25.35.37.37,0,0,0-.13.27.39.39,0,0,0,.25.36.36.36,0,0,0-.12.27.38.38,0,0,0,.75,0v0l.12,0a.38.38,0,0,0,.38-.37v0l.12,0A.38.38,0,0,0,19,34.5.37.37,0,0,0,18.75,34.15Zm4,0a.37.37,0,0,0,.13-.27.38.38,0,0,0-.38-.38h-.06a1.35,1.35,0,0,1,.72-.64l-.07-.24a1.57,1.57,0,0,0-.59.38h0a.54.54,0,0,0-.42-.55l-.15-.06-.18-.09v.2a.58.58,0,0,0,.63.62h0a2.11,2.11,0,0,0-.21.31.35.35,0,0,0-.31-.18.38.38,0,0,0-.38.37v0l-.12,0A.38.38,0,0,0,21,34a.37.37,0,0,0,.25.35.37.37,0,0,0-.13.27.39.39,0,0,0,.25.36.36.36,0,0,0-.12.27.38.38,0,0,0,.75,0v0l.12,0a.38.38,0,0,0,.38-.37v0l.12,0A.38.38,0,0,0,23,34.5.37.37,0,0,0,22.75,34.15Zm4,0a.37.37,0,0,0,.13-.27.38.38,0,0,0-.38-.38h-.06a1.35,1.35,0,0,1,.72-.64l-.07-.24a1.57,1.57,0,0,0-.59.38h0a.54.54,0,0,0-.42-.55l-.15-.06-.18-.09v.2a.58.58,0,0,0,.63.62h0a2.11,2.11,0,0,0-.21.31.35.35,0,0,0-.31-.18.38.38,0,0,0-.38.37v0l-.12,0A.38.38,0,0,0,25,34a.37.37,0,0,0,.25.35.37.37,0,0,0-.13.27.39.39,0,0,0,.25.36.36.36,0,0,0-.12.27.38.38,0,0,0,.75,0v0l.12,0a.38.38,0,0,0,.38-.37v0l.12,0A.38.38,0,0,0,27,34.5.37.37,0,0,0,26.75,34.15Zm4,0a.37.37,0,0,0,.13-.27.38.38,0,0,0-.38-.38h-.06a1.35,1.35,0,0,1,.72-.64l-.07-.24a1.57,1.57,0,0,0-.59.38h0a.54.54,0,0,0-.42-.55l-.15-.06-.18-.09v.2a.58.58,0,0,0,.63.62h0a2.11,2.11,0,0,0-.21.31.35.35,0,0,0-.31-.18.38.38,0,0,0-.38.37v0l-.12,0A.38.38,0,0,0,29,34a.37.37,0,0,0,.25.35.37.37,0,0,0-.13.27.39.39,0,0,0,.25.36.36.36,0,0,0-.12.27.38.38,0,0,0,.75,0v0l.12,0a.38.38,0,0,0,.38-.37v0l.12,0A.38.38,0,0,0,31,34.5.37.37,0,0,0,30.75,34.15Zm-12,5.33a.35.35,0,0,0,.13-.27.38.38,0,0,0-.38-.38h-.06a1.44,1.44,0,0,1,.72-.64L19.09,38a1.57,1.57,0,0,0-.59.38h0a.54.54,0,0,0-.42-.55.47.47,0,0,1-.15-.06l-.18-.09v.2a.58.58,0,0,0,.63.63h0a2,2,0,0,0-.21.3.37.37,0,0,0-.31-.18.38.38,0,0,0-.38.38v0l-.12,0a.38.38,0,0,0-.38.37.37.37,0,0,0,.25.35.37.37,0,0,0-.13.28.38.38,0,0,0,.25.35.38.38,0,1,0,.63.27v0l.12,0a.37.37,0,0,0,.38-.37v0a.27.27,0,0,0,.12,0,.38.38,0,0,0,.38-.38A.38.38,0,0,0,18.75,39.48Zm4,0a.35.35,0,0,0,.13-.27.38.38,0,0,0-.38-.38h-.06a1.44,1.44,0,0,1,.72-.64L23.09,38a1.57,1.57,0,0,0-.59.38h0a.54.54,0,0,0-.42-.55.47.47,0,0,1-.15-.06l-.18-.09v.2a.58.58,0,0,0,.63.63h0a2,2,0,0,0-.21.3.37.37,0,0,0-.31-.18.38.38,0,0,0-.38.38v0l-.12,0a.38.38,0,0,0-.38.37.37.37,0,0,0,.25.35.37.37,0,0,0-.13.28.38.38,0,0,0,.25.35.38.38,0,1,0,.63.27v0l.12,0a.37.37,0,0,0,.38-.37v0a.27.27,0,0,0,.12,0,.38.38,0,0,0,.38-.38A.38.38,0,0,0,22.75,39.48Zm4,0a.35.35,0,0,0,.13-.27.38.38,0,0,0-.38-.38h-.06a1.44,1.44,0,0,1,.72-.64L27.09,38a1.57,1.57,0,0,0-.59.38h0a.54.54,0,0,0-.42-.55.47.47,0,0,1-.15-.06l-.18-.09v.2a.58.58,0,0,0,.63.63h0a2,2,0,0,0-.21.3.37.37,0,0,0-.31-.18.38.38,0,0,0-.38.38v0l-.12,0a.38.38,0,0,0-.38.37.37.37,0,0,0,.25.35.37.37,0,0,0-.13.28.38.38,0,0,0,.25.35.38.38,0,1,0,.63.27v0l.12,0a.37.37,0,0,0,.38-.37v0a.27.27,0,0,0,.12,0,.38.38,0,0,0,.38-.38A.38.38,0,0,0,26.75,39.48Zm4,0a.35.35,0,0,0,.13-.27.38.38,0,0,0-.38-.38h-.06a1.44,1.44,0,0,1,.72-.64L31.09,38a1.57,1.57,0,0,0-.59.38h0a.54.54,0,0,0-.42-.55.47.47,0,0,1-.15-.06l-.18-.09v.2a.58.58,0,0,0,.63.63h0a2,2,0,0,0-.21.3.37.37,0,0,0-.31-.18.38.38,0,0,0-.38.38v0l-.12,0a.38.38,0,0,0-.38.37.37.37,0,0,0,.25.35.37.37,0,0,0-.13.28.38.38,0,0,0,.25.35.38.38,0,1,0,.63.27v0l.12,0a.37.37,0,0,0,.38-.37v0a.27.27,0,0,0,.12,0,.38.38,0,0,0,.38-.38A.38.38,0,0,0,30.75,39.48Zm-12,5.34a.37.37,0,0,0-.25-.65h-.06a1.38,1.38,0,0,1,.72-.63l-.07-.24a1.46,1.46,0,0,0-.59.38h0a.54.54,0,0,0-.42-.55l-.15-.07L17.75,43v.21a.58.58,0,0,0,.63.62h0a2.11,2.11,0,0,0-.21.31.35.35,0,0,0-.31-.18.37.37,0,0,0-.38.37v0a.27.27,0,0,0-.12,0,.38.38,0,0,0-.38.38.38.38,0,0,0,.25.35.35.35,0,0,0-.13.27.38.38,0,0,0,.25.35.4.4,0,0,0-.12.28.38.38,0,0,0,.75,0v0l.12,0a.38.38,0,0,0,.38-.38v0l.12,0a.38.38,0,0,0,.38-.37A.37.37,0,0,0,18.75,44.82Zm4,0a.37.37,0,0,0-.25-.65h-.06a1.38,1.38,0,0,1,.72-.63l-.07-.24a1.46,1.46,0,0,0-.59.38h0a.54.54,0,0,0-.42-.55l-.15-.07L21.75,43v.21a.58.58,0,0,0,.63.62h0a2.11,2.11,0,0,0-.21.31.35.35,0,0,0-.31-.18.37.37,0,0,0-.38.37v0a.27.27,0,0,0-.12,0,.38.38,0,0,0-.38.38.38.38,0,0,0,.25.35.35.35,0,0,0-.13.27.38.38,0,0,0,.25.35.4.4,0,0,0-.12.28.38.38,0,0,0,.75,0v0l.12,0a.38.38,0,0,0,.38-.38v0l.12,0a.38.38,0,0,0,.38-.37A.37.37,0,0,0,22.75,44.82Zm4,0a.37.37,0,0,0-.25-.65h-.06a1.38,1.38,0,0,1,.72-.63l-.07-.24a1.46,1.46,0,0,0-.59.38h0a.54.54,0,0,0-.42-.55l-.15-.07L25.75,43v.21a.58.58,0,0,0,.63.62h0a2.11,2.11,0,0,0-.21.31.35.35,0,0,0-.31-.18.37.37,0,0,0-.38.37v0a.27.27,0,0,0-.12,0,.38.38,0,0,0-.38.38.38.38,0,0,0,.25.35.35.35,0,0,0-.13.27.38.38,0,0,0,.25.35.4.4,0,0,0-.12.28.38.38,0,0,0,.75,0v0l.12,0a.38.38,0,0,0,.38-.38v0l.12,0a.38.38,0,0,0,.38-.37A.37.37,0,0,0,26.75,44.82Zm4,0a.37.37,0,0,0-.25-.65h-.06a1.38,1.38,0,0,1,.72-.63l-.07-.24a1.46,1.46,0,0,0-.59.38h0a.54.54,0,0,0-.42-.55l-.15-.07L29.75,43v.21a.58.58,0,0,0,.63.62h0a2.11,2.11,0,0,0-.21.31.35.35,0,0,0-.31-.18.37.37,0,0,0-.38.37v0a.27.27,0,0,0-.12,0,.38.38,0,0,0-.38.38.38.38,0,0,0,.25.35.35.35,0,0,0-.13.27.38.38,0,0,0,.25.35.4.4,0,0,0-.12.28.38.38,0,0,0,.75,0v0l.12,0a.38.38,0,0,0,.38-.38v0l.12,0a.38.38,0,0,0,.38-.37A.37.37,0,0,0,30.75,44.82Z"/><path id="orchard_grid_dense-12" data-name="orchard_grid_dense" class="cls-2" d="M18.75,50.15a.37.37,0,0,0,.13-.27.38.38,0,0,0-.38-.38h-.06a1.35,1.35,0,0,1,.72-.64l-.07-.24a1.57,1.57,0,0,0-.59.38h0a.54.54,0,0,0-.42-.55l-.15-.06-.18-.09v.2a.58.58,0,0,0,.63.62h0a2.11,2.11,0,0,0-.21.31.35.35,0,0,0-.31-.18.38.38,0,0,0-.38.37v0l-.12,0A.38.38,0,0,0,17,50a.37.37,0,0,0,.25.35.37.37,0,0,0-.13.27.39.39,0,0,0,.25.36.36.36,0,0,0-.12.27.38.38,0,0,0,.75,0v0l.12,0a.38.38,0,0,0,.38-.37v0l.12,0A.38.38,0,0,0,19,50.5.37.37,0,0,0,18.75,50.15Zm4,0a.37.37,0,0,0,.13-.27.38.38,0,0,0-.38-.38h-.06a1.35,1.35,0,0,1,.72-.64l-.07-.24a1.57,1.57,0,0,0-.59.38h0a.54.54,0,0,0-.42-.55l-.15-.06-.18-.09v.2a.58.58,0,0,0,.63.62h0a2.11,2.11,0,0,0-.21.31.35.35,0,0,0-.31-.18.38.38,0,0,0-.38.37v0l-.12,0A.38.38,0,0,0,21,50a.37.37,0,0,0,.25.35.37.37,0,0,0-.13.27.39.39,0,0,0,.25.36.36.36,0,0,0-.12.27.38.38,0,0,0,.75,0v0l.12,0a.38.38,0,0,0,.38-.37v0l.12,0A.38.38,0,0,0,23,50.5.37.37,0,0,0,22.75,50.15Zm4,0a.37.37,0,0,0,.13-.27.38.38,0,0,0-.38-.38h-.06a1.35,1.35,0,0,1,.72-.64l-.07-.24a1.57,1.57,0,0,0-.59.38h0a.54.54,0,0,0-.42-.55l-.15-.06-.18-.09v.2a.58.58,0,0,0,.63.62h0a2.11,2.11,0,0,0-.21.31.35.35,0,0,0-.31-.18.38.38,0,0,0-.38.37v0l-.12,0A.38.38,0,0,0,25,50a.37.37,0,0,0,.25.35.37.37,0,0,0-.13.27.39.39,0,0,0,.25.36.36.36,0,0,0-.12.27.38.38,0,0,0,.75,0v0l.12,0a.38.38,0,0,0,.38-.37v0l.12,0A.38.38,0,0,0,27,50.5.37.37,0,0,0,26.75,50.15Zm4,0a.37.37,0,0,0,.13-.27.38.38,0,0,0-.38-.38h-.06a1.35,1.35,0,0,1,.72-.64l-.07-.24a1.57,1.57,0,0,0-.59.38h0a.54.54,0,0,0-.42-.55l-.15-.06-.18-.09v.2a.58.58,0,0,0,.63.62h0a2.11,2.11,0,0,0-.21.31.35.35,0,0,0-.31-.18.38.38,0,0,0-.38.37v0l-.12,0A.38.38,0,0,0,29,50a.37.37,0,0,0,.25.35.37.37,0,0,0-.13.27.39.39,0,0,0,.25.36.36.36,0,0,0-.12.27.38.38,0,0,0,.75,0v0l.12,0a.38.38,0,0,0,.38-.37v0l.12,0A.38.38,0,0,0,31,50.5.37.37,0,0,0,30.75,50.15Zm-12,5.33a.35.35,0,0,0,.13-.27.38.38,0,0,0-.38-.38h-.06a1.44,1.44,0,0,1,.72-.64L19.09,54a1.57,1.57,0,0,0-.59.38h0a.54.54,0,0,0-.42-.55.47.47,0,0,1-.15-.06l-.18-.09v.2a.58.58,0,0,0,.63.63h0a2,2,0,0,0-.21.3.37.37,0,0,0-.31-.18.38.38,0,0,0-.38.38v0l-.12,0a.38.38,0,0,0-.38.37.37.37,0,0,0,.25.35.37.37,0,0,0-.13.28.38.38,0,0,0,.25.35.38.38,0,1,0,.63.27v0l.12,0a.37.37,0,0,0,.38-.37v0a.27.27,0,0,0,.12,0,.38.38,0,0,0,.38-.38A.38.38,0,0,0,18.75,55.48Zm4,0a.35.35,0,0,0,.13-.27.38.38,0,0,0-.38-.38h-.06a1.44,1.44,0,0,1,.72-.64L23.09,54a1.57,1.57,0,0,0-.59.38h0a.54.54,0,0,0-.42-.55.47.47,0,0,1-.15-.06l-.18-.09v.2a.58.58,0,0,0,.63.63h0a2,2,0,0,0-.21.3.37.37,0,0,0-.31-.18.38.38,0,0,0-.38.38v0l-.12,0a.38.38,0,0,0-.38.37.37.37,0,0,0,.25.35.37.37,0,0,0-.13.28.38.38,0,0,0,.25.35.38.38,0,1,0,.63.27v0l.12,0a.37.37,0,0,0,.38-.37v0a.27.27,0,0,0,.12,0,.38.38,0,0,0,.38-.38A.38.38,0,0,0,22.75,55.48Zm4,0a.35.35,0,0,0,.13-.27.38.38,0,0,0-.38-.38h-.06a1.44,1.44,0,0,1,.72-.64L27.09,54a1.57,1.57,0,0,0-.59.38h0a.54.54,0,0,0-.42-.55.47.47,0,0,1-.15-.06l-.18-.09v.2a.58.58,0,0,0,.63.63h0a2,2,0,0,0-.21.3.37.37,0,0,0-.31-.18.38.38,0,0,0-.38.38v0l-.12,0a.38.38,0,0,0-.38.37.37.37,0,0,0,.25.35.37.37,0,0,0-.13.28.38.38,0,0,0,.25.35.38.38,0,1,0,.63.27v0l.12,0a.37.37,0,0,0,.38-.37v0a.27.27,0,0,0,.12,0,.38.38,0,0,0,.38-.38A.38.38,0,0,0,26.75,55.48Zm4,0a.35.35,0,0,0,.13-.27.38.38,0,0,0-.38-.38h-.06a1.44,1.44,0,0,1,.72-.64L31.09,54a1.57,1.57,0,0,0-.59.38h0a.54.54,0,0,0-.42-.55.47.47,0,0,1-.15-.06l-.18-.09v.2a.58.58,0,0,0,.63.63h0a2,2,0,0,0-.21.3.37.37,0,0,0-.31-.18.38.38,0,0,0-.38.38v0l-.12,0a.38.38,0,0,0-.38.37.37.37,0,0,0,.25.35.37.37,0,0,0-.13.28.38.38,0,0,0,.25.35.38.38,0,1,0,.63.27v0l.12,0a.37.37,0,0,0,.38-.37v0a.27.27,0,0,0,.12,0,.38.38,0,0,0,.38-.38A.38.38,0,0,0,30.75,55.48Zm-12,5.34a.37.37,0,0,0-.25-.65h-.06a1.38,1.38,0,0,1,.72-.63l-.07-.24a1.46,1.46,0,0,0-.59.38h0a.54.54,0,0,0-.42-.55l-.15-.07L17.75,59v.21a.58.58,0,0,0,.63.62h0a2.11,2.11,0,0,0-.21.31.35.35,0,0,0-.31-.18.37.37,0,0,0-.38.37v0a.27.27,0,0,0-.12,0,.38.38,0,0,0-.38.38.38.38,0,0,0,.25.35.35.35,0,0,0-.13.27.38.38,0,0,0,.25.35.4.4,0,0,0-.12.28.38.38,0,0,0,.75,0v0l.12,0a.38.38,0,0,0,.38-.38v0l.12,0a.38.38,0,0,0,.38-.37A.37.37,0,0,0,18.75,60.82Zm4,0a.37.37,0,0,0-.25-.65h-.06a1.38,1.38,0,0,1,.72-.63l-.07-.24a1.46,1.46,0,0,0-.59.38h0a.54.54,0,0,0-.42-.55l-.15-.07L21.75,59v.21a.58.58,0,0,0,.63.62h0a2.11,2.11,0,0,0-.21.31.35.35,0,0,0-.31-.18.37.37,0,0,0-.38.37v0a.27.27,0,0,0-.12,0,.38.38,0,0,0-.38.38.38.38,0,0,0,.25.35.35.35,0,0,0-.13.27.38.38,0,0,0,.25.35.4.4,0,0,0-.12.28.38.38,0,0,0,.75,0v0l.12,0a.38.38,0,0,0,.38-.38v0l.12,0a.38.38,0,0,0,.38-.37A.37.37,0,0,0,22.75,60.82Zm4,0a.37.37,0,0,0-.25-.65h-.06a1.38,1.38,0,0,1,.72-.63l-.07-.24a1.46,1.46,0,0,0-.59.38h0a.54.54,0,0,0-.42-.55l-.15-.07L25.75,59v.21a.58.58,0,0,0,.63.62h0a2.11,2.11,0,0,0-.21.31.35.35,0,0,0-.31-.18.37.37,0,0,0-.38.37v0a.27.27,0,0,0-.12,0,.38.38,0,0,0-.38.38.38.38,0,0,0,.25.35.35.35,0,0,0-.13.27.38.38,0,0,0,.25.35.4.4,0,0,0-.12.28.38.38,0,0,0,.75,0v0l.12,0a.38.38,0,0,0,.38-.38v0l.12,0a.38.38,0,0,0,.38-.37A.37.37,0,0,0,26.75,60.82Zm4,0a.37.37,0,0,0-.25-.65h-.06a1.38,1.38,0,0,1,.72-.63l-.07-.24a1.46,1.46,0,0,0-.59.38h0a.54.54,0,0,0-.42-.55l-.15-.07L29.75,59v.21a.58.58,0,0,0,.63.62h0a2.11,2.11,0,0,0-.21.31.35.35,0,0,0-.31-.18.37.37,0,0,0-.38.37v0a.27.27,0,0,0-.12,0,.38.38,0,0,0-.38.38.38.38,0,0,0,.25.35.35.35,0,0,0-.13.27.38.38,0,0,0,.25.35.4.4,0,0,0-.12.28.38.38,0,0,0,.75,0v0l.12,0a.38.38,0,0,0,.38-.38v0l.12,0a.38.38,0,0,0,.38-.37A.37.37,0,0,0,30.75,60.82Z"/></g><g id="vineyard_poly_grid_dense_half-4" data-name="vineyard_poly_grid_dense_half"><rect id="bbox_64-4" data-name="bbox_64" class="cls-1" x="32" y="32" width="32" height="32"/><path id="orchard_grid_dense-13" data-name="orchard_grid_dense" class="cls-2" d="M34.75,34.15a.37.37,0,0,0,.13-.27.38.38,0,0,0-.38-.38h-.06a1.35,1.35,0,0,1,.72-.64l-.07-.24a1.57,1.57,0,0,0-.59.38h0a.54.54,0,0,0-.42-.55l-.15-.06-.18-.09v.2a.58.58,0,0,0,.63.62h0a2.11,2.11,0,0,0-.21.31.35.35,0,0,0-.31-.18.38.38,0,0,0-.38.37v0l-.12,0A.38.38,0,0,0,33,34a.37.37,0,0,0,.25.35.37.37,0,0,0-.13.27.39.39,0,0,0,.25.36.36.36,0,0,0-.12.27.38.38,0,0,0,.75,0v0l.12,0a.38.38,0,0,0,.38-.37v0l.12,0A.38.38,0,0,0,35,34.5.37.37,0,0,0,34.75,34.15Zm4,0a.37.37,0,0,0,.13-.27.38.38,0,0,0-.38-.38h-.06a1.35,1.35,0,0,1,.72-.64l-.07-.24a1.57,1.57,0,0,0-.59.38h0a.54.54,0,0,0-.42-.55l-.15-.06-.18-.09v.2a.58.58,0,0,0,.63.62h0a2.11,2.11,0,0,0-.21.31.35.35,0,0,0-.31-.18.38.38,0,0,0-.38.37v0l-.12,0A.38.38,0,0,0,37,34a.37.37,0,0,0,.25.35.37.37,0,0,0-.13.27.39.39,0,0,0,.25.36.36.36,0,0,0-.12.27.38.38,0,0,0,.75,0v0l.12,0a.38.38,0,0,0,.38-.37v0l.12,0A.38.38,0,0,0,39,34.5.37.37,0,0,0,38.75,34.15Zm4,0a.37.37,0,0,0,.13-.27.38.38,0,0,0-.38-.38h-.06a1.35,1.35,0,0,1,.72-.64l-.07-.24a1.57,1.57,0,0,0-.59.38h0a.54.54,0,0,0-.42-.55l-.15-.06-.18-.09v.2a.58.58,0,0,0,.63.62h0a2.11,2.11,0,0,0-.21.31.35.35,0,0,0-.31-.18.38.38,0,0,0-.38.37v0l-.12,0A.38.38,0,0,0,41,34a.37.37,0,0,0,.25.35.37.37,0,0,0-.13.27.39.39,0,0,0,.25.36.36.36,0,0,0-.12.27.38.38,0,0,0,.75,0v0l.12,0a.38.38,0,0,0,.38-.37v0l.12,0A.38.38,0,0,0,43,34.5.37.37,0,0,0,42.75,34.15Zm4,0a.37.37,0,0,0,.13-.27.38.38,0,0,0-.38-.38h-.06a1.35,1.35,0,0,1,.72-.64l-.07-.24a1.57,1.57,0,0,0-.59.38h0a.54.54,0,0,0-.42-.55l-.15-.06-.18-.09v.2a.58.58,0,0,0,.63.62h0a2.11,2.11,0,0,0-.21.31.35.35,0,0,0-.31-.18.38.38,0,0,0-.38.37v0l-.12,0A.38.38,0,0,0,45,34a.37.37,0,0,0,.25.35.37.37,0,0,0-.13.27.39.39,0,0,0,.25.36.36.36,0,0,0-.12.27.38.38,0,0,0,.75,0v0l.12,0a.38.38,0,0,0,.38-.37v0l.12,0A.38.38,0,0,0,47,34.5.37.37,0,0,0,46.75,34.15Zm-12,5.33a.35.35,0,0,0,.13-.27.38.38,0,0,0-.38-.38h-.06a1.44,1.44,0,0,1,.72-.64L35.09,38a1.57,1.57,0,0,0-.59.38h0a.54.54,0,0,0-.42-.55.47.47,0,0,1-.15-.06l-.18-.09v.2a.58.58,0,0,0,.63.63h0a2,2,0,0,0-.21.3.37.37,0,0,0-.31-.18.38.38,0,0,0-.38.38v0l-.12,0a.38.38,0,0,0-.38.37.37.37,0,0,0,.25.35.37.37,0,0,0-.13.28.38.38,0,0,0,.25.35.38.38,0,1,0,.63.27v0l.12,0a.37.37,0,0,0,.38-.37v0a.27.27,0,0,0,.12,0,.38.38,0,0,0,.38-.38A.38.38,0,0,0,34.75,39.48Zm4,0a.35.35,0,0,0,.13-.27.38.38,0,0,0-.38-.38h-.06a1.44,1.44,0,0,1,.72-.64L39.09,38a1.57,1.57,0,0,0-.59.38h0a.54.54,0,0,0-.42-.55.47.47,0,0,1-.15-.06l-.18-.09v.2a.58.58,0,0,0,.63.63h0a2,2,0,0,0-.21.3.37.37,0,0,0-.31-.18.38.38,0,0,0-.38.38v0l-.12,0a.38.38,0,0,0-.38.37.37.37,0,0,0,.25.35.37.37,0,0,0-.13.28.38.38,0,0,0,.25.35.38.38,0,1,0,.63.27v0l.12,0a.37.37,0,0,0,.38-.37v0a.27.27,0,0,0,.12,0,.38.38,0,0,0,.38-.38A.38.38,0,0,0,38.75,39.48Zm4,0a.35.35,0,0,0,.13-.27.38.38,0,0,0-.38-.38h-.06a1.44,1.44,0,0,1,.72-.64L43.09,38a1.57,1.57,0,0,0-.59.38h0a.54.54,0,0,0-.42-.55.47.47,0,0,1-.15-.06l-.18-.09v.2a.58.58,0,0,0,.63.63h0a2,2,0,0,0-.21.3.37.37,0,0,0-.31-.18.38.38,0,0,0-.38.38v0l-.12,0a.38.38,0,0,0-.38.37.37.37,0,0,0,.25.35.37.37,0,0,0-.13.28.38.38,0,0,0,.25.35.38.38,0,1,0,.63.27v0l.12,0a.37.37,0,0,0,.38-.37v0a.27.27,0,0,0,.12,0,.38.38,0,0,0,.38-.38A.38.38,0,0,0,42.75,39.48Zm4,0a.35.35,0,0,0,.13-.27.38.38,0,0,0-.38-.38h-.06a1.44,1.44,0,0,1,.72-.64L47.09,38a1.57,1.57,0,0,0-.59.38h0a.54.54,0,0,0-.42-.55.47.47,0,0,1-.15-.06l-.18-.09v.2a.58.58,0,0,0,.63.63h0a2,2,0,0,0-.21.3.37.37,0,0,0-.31-.18.38.38,0,0,0-.38.38v0l-.12,0a.38.38,0,0,0-.38.37.37.37,0,0,0,.25.35.37.37,0,0,0-.13.28.38.38,0,0,0,.25.35.38.38,0,1,0,.63.27v0l.12,0a.37.37,0,0,0,.38-.37v0a.27.27,0,0,0,.12,0,.38.38,0,0,0,.38-.38A.38.38,0,0,0,46.75,39.48Zm-12,5.34a.37.37,0,0,0-.25-.65h-.06a1.38,1.38,0,0,1,.72-.63l-.07-.24a1.46,1.46,0,0,0-.59.38h0a.54.54,0,0,0-.42-.55l-.15-.07L33.75,43v.21a.58.58,0,0,0,.63.62h0a2.11,2.11,0,0,0-.21.31.35.35,0,0,0-.31-.18.37.37,0,0,0-.38.37v0a.27.27,0,0,0-.12,0,.38.38,0,0,0-.38.38.38.38,0,0,0,.25.35.35.35,0,0,0-.13.27.38.38,0,0,0,.25.35.4.4,0,0,0-.12.28.38.38,0,0,0,.75,0v0l.12,0a.38.38,0,0,0,.38-.38v0l.12,0a.38.38,0,0,0,.38-.37A.37.37,0,0,0,34.75,44.82Zm4,0a.37.37,0,0,0-.25-.65h-.06a1.38,1.38,0,0,1,.72-.63l-.07-.24a1.46,1.46,0,0,0-.59.38h0a.54.54,0,0,0-.42-.55l-.15-.07L37.75,43v.21a.58.58,0,0,0,.63.62h0a2.11,2.11,0,0,0-.21.31.35.35,0,0,0-.31-.18.37.37,0,0,0-.38.37v0a.27.27,0,0,0-.12,0,.38.38,0,0,0-.38.38.38.38,0,0,0,.25.35.35.35,0,0,0-.13.27.38.38,0,0,0,.25.35.4.4,0,0,0-.12.28.38.38,0,0,0,.75,0v0l.12,0a.38.38,0,0,0,.38-.38v0l.12,0a.38.38,0,0,0,.38-.37A.37.37,0,0,0,38.75,44.82Zm4,0a.37.37,0,0,0-.25-.65h-.06a1.38,1.38,0,0,1,.72-.63l-.07-.24a1.46,1.46,0,0,0-.59.38h0a.54.54,0,0,0-.42-.55l-.15-.07L41.75,43v.21a.58.58,0,0,0,.63.62h0a2.11,2.11,0,0,0-.21.31.35.35,0,0,0-.31-.18.37.37,0,0,0-.38.37v0a.27.27,0,0,0-.12,0,.38.38,0,0,0-.38.38.38.38,0,0,0,.25.35.35.35,0,0,0-.13.27.38.38,0,0,0,.25.35.4.4,0,0,0-.12.28.38.38,0,0,0,.75,0v0l.12,0a.38.38,0,0,0,.38-.38v0l.12,0a.38.38,0,0,0,.38-.37A.37.37,0,0,0,42.75,44.82Zm4,0a.37.37,0,0,0-.25-.65h-.06a1.38,1.38,0,0,1,.72-.63l-.07-.24a1.46,1.46,0,0,0-.59.38h0a.54.54,0,0,0-.42-.55l-.15-.07L45.75,43v.21a.58.58,0,0,0,.63.62h0a2.11,2.11,0,0,0-.21.31.35.35,0,0,0-.31-.18.37.37,0,0,0-.38.37v0a.27.27,0,0,0-.12,0,.38.38,0,0,0-.38.38.38.38,0,0,0,.25.35.35.35,0,0,0-.13.27.38.38,0,0,0,.25.35.4.4,0,0,0-.12.28.38.38,0,0,0,.75,0v0l.12,0a.38.38,0,0,0,.38-.38v0l.12,0a.38.38,0,0,0,.38-.37A.37.37,0,0,0,46.75,44.82Z"/><path id="orchard_grid_dense-14" data-name="orchard_grid_dense" class="cls-2" d="M34.75,50.15a.37.37,0,0,0,.13-.27.38.38,0,0,0-.38-.38h-.06a1.35,1.35,0,0,1,.72-.64l-.07-.24a1.57,1.57,0,0,0-.59.38h0a.54.54,0,0,0-.42-.55l-.15-.06-.18-.09v.2a.58.58,0,0,0,.63.62h0a2.11,2.11,0,0,0-.21.31.35.35,0,0,0-.31-.18.38.38,0,0,0-.38.37v0l-.12,0A.38.38,0,0,0,33,50a.37.37,0,0,0,.25.35.37.37,0,0,0-.13.27.39.39,0,0,0,.25.36.36.36,0,0,0-.12.27.38.38,0,0,0,.75,0v0l.12,0a.38.38,0,0,0,.38-.37v0l.12,0A.38.38,0,0,0,35,50.5.37.37,0,0,0,34.75,50.15Zm4,0a.37.37,0,0,0,.13-.27.38.38,0,0,0-.38-.38h-.06a1.35,1.35,0,0,1,.72-.64l-.07-.24a1.57,1.57,0,0,0-.59.38h0a.54.54,0,0,0-.42-.55l-.15-.06-.18-.09v.2a.58.58,0,0,0,.63.62h0a2.11,2.11,0,0,0-.21.31.35.35,0,0,0-.31-.18.38.38,0,0,0-.38.37v0l-.12,0A.38.38,0,0,0,37,50a.37.37,0,0,0,.25.35.37.37,0,0,0-.13.27.39.39,0,0,0,.25.36.36.36,0,0,0-.12.27.38.38,0,0,0,.75,0v0l.12,0a.38.38,0,0,0,.38-.37v0l.12,0A.38.38,0,0,0,39,50.5.37.37,0,0,0,38.75,50.15Zm4,0a.37.37,0,0,0,.13-.27.38.38,0,0,0-.38-.38h-.06a1.35,1.35,0,0,1,.72-.64l-.07-.24a1.57,1.57,0,0,0-.59.38h0a.54.54,0,0,0-.42-.55l-.15-.06-.18-.09v.2a.58.58,0,0,0,.63.62h0a2.11,2.11,0,0,0-.21.31.35.35,0,0,0-.31-.18.38.38,0,0,0-.38.37v0l-.12,0A.38.38,0,0,0,41,50a.37.37,0,0,0,.25.35.37.37,0,0,0-.13.27.39.39,0,0,0,.25.36.36.36,0,0,0-.12.27.38.38,0,0,0,.75,0v0l.12,0a.38.38,0,0,0,.38-.37v0l.12,0A.38.38,0,0,0,43,50.5.37.37,0,0,0,42.75,50.15Zm4,0a.37.37,0,0,0,.13-.27.38.38,0,0,0-.38-.38h-.06a1.35,1.35,0,0,1,.72-.64l-.07-.24a1.57,1.57,0,0,0-.59.38h0a.54.54,0,0,0-.42-.55l-.15-.06-.18-.09v.2a.58.58,0,0,0,.63.62h0a2.11,2.11,0,0,0-.21.31.35.35,0,0,0-.31-.18.38.38,0,0,0-.38.37v0l-.12,0A.38.38,0,0,0,45,50a.37.37,0,0,0,.25.35.37.37,0,0,0-.13.27.39.39,0,0,0,.25.36.36.36,0,0,0-.12.27.38.38,0,0,0,.75,0v0l.12,0a.38.38,0,0,0,.38-.37v0l.12,0A.38.38,0,0,0,47,50.5.37.37,0,0,0,46.75,50.15Zm-12,5.33a.35.35,0,0,0,.13-.27.38.38,0,0,0-.38-.38h-.06a1.44,1.44,0,0,1,.72-.64L35.09,54a1.57,1.57,0,0,0-.59.38h0a.54.54,0,0,0-.42-.55.47.47,0,0,1-.15-.06l-.18-.09v.2a.58.58,0,0,0,.63.63h0a2,2,0,0,0-.21.3.37.37,0,0,0-.31-.18.38.38,0,0,0-.38.38v0l-.12,0a.38.38,0,0,0-.38.37.37.37,0,0,0,.25.35.37.37,0,0,0-.13.28.38.38,0,0,0,.25.35.38.38,0,1,0,.63.27v0l.12,0a.37.37,0,0,0,.38-.37v0a.27.27,0,0,0,.12,0,.38.38,0,0,0,.38-.38A.38.38,0,0,0,34.75,55.48Zm4,0a.35.35,0,0,0,.13-.27.38.38,0,0,0-.38-.38h-.06a1.44,1.44,0,0,1,.72-.64L39.09,54a1.57,1.57,0,0,0-.59.38h0a.54.54,0,0,0-.42-.55.47.47,0,0,1-.15-.06l-.18-.09v.2a.58.58,0,0,0,.63.63h0a2,2,0,0,0-.21.3.37.37,0,0,0-.31-.18.38.38,0,0,0-.38.38v0l-.12,0a.38.38,0,0,0-.38.37.37.37,0,0,0,.25.35.37.37,0,0,0-.13.28.38.38,0,0,0,.25.35.38.38,0,1,0,.63.27v0l.12,0a.37.37,0,0,0,.38-.37v0a.27.27,0,0,0,.12,0,.38.38,0,0,0,.38-.38A.38.38,0,0,0,38.75,55.48Zm4,0a.35.35,0,0,0,.13-.27.38.38,0,0,0-.38-.38h-.06a1.44,1.44,0,0,1,.72-.64L43.09,54a1.57,1.57,0,0,0-.59.38h0a.54.54,0,0,0-.42-.55.47.47,0,0,1-.15-.06l-.18-.09v.2a.58.58,0,0,0,.63.63h0a2,2,0,0,0-.21.3.37.37,0,0,0-.31-.18.38.38,0,0,0-.38.38v0l-.12,0a.38.38,0,0,0-.38.37.37.37,0,0,0,.25.35.37.37,0,0,0-.13.28.38.38,0,0,0,.25.35.38.38,0,1,0,.63.27v0l.12,0a.37.37,0,0,0,.38-.37v0a.27.27,0,0,0,.12,0,.38.38,0,0,0,.38-.38A.38.38,0,0,0,42.75,55.48Zm4,0a.35.35,0,0,0,.13-.27.38.38,0,0,0-.38-.38h-.06a1.44,1.44,0,0,1,.72-.64L47.09,54a1.57,1.57,0,0,0-.59.38h0a.54.54,0,0,0-.42-.55.47.47,0,0,1-.15-.06l-.18-.09v.2a.58.58,0,0,0,.63.63h0a2,2,0,0,0-.21.3.37.37,0,0,0-.31-.18.38.38,0,0,0-.38.38v0l-.12,0a.38.38,0,0,0-.38.37.37.37,0,0,0,.25.35.37.37,0,0,0-.13.28.38.38,0,0,0,.25.35.38.38,0,1,0,.63.27v0l.12,0a.37.37,0,0,0,.38-.37v0a.27.27,0,0,0,.12,0,.38.38,0,0,0,.38-.38A.38.38,0,0,0,46.75,55.48Zm-12,5.34a.37.37,0,0,0-.25-.65h-.06a1.38,1.38,0,0,1,.72-.63l-.07-.24a1.46,1.46,0,0,0-.59.38h0a.54.54,0,0,0-.42-.55l-.15-.07L33.75,59v.21a.58.58,0,0,0,.63.62h0a2.11,2.11,0,0,0-.21.31.35.35,0,0,0-.31-.18.37.37,0,0,0-.38.37v0a.27.27,0,0,0-.12,0,.38.38,0,0,0-.38.38.38.38,0,0,0,.25.35.35.35,0,0,0-.13.27.38.38,0,0,0,.25.35.4.4,0,0,0-.12.28.38.38,0,0,0,.75,0v0l.12,0a.38.38,0,0,0,.38-.38v0l.12,0a.38.38,0,0,0,.38-.37A.37.37,0,0,0,34.75,60.82Zm4,0a.37.37,0,0,0-.25-.65h-.06a1.38,1.38,0,0,1,.72-.63l-.07-.24a1.46,1.46,0,0,0-.59.38h0a.54.54,0,0,0-.42-.55l-.15-.07L37.75,59v.21a.58.58,0,0,0,.63.62h0a2.11,2.11,0,0,0-.21.31.35.35,0,0,0-.31-.18.37.37,0,0,0-.38.37v0a.27.27,0,0,0-.12,0,.38.38,0,0,0-.38.38.38.38,0,0,0,.25.35.35.35,0,0,0-.13.27.38.38,0,0,0,.25.35.4.4,0,0,0-.12.28.38.38,0,0,0,.75,0v0l.12,0a.38.38,0,0,0,.38-.38v0l.12,0a.38.38,0,0,0,.38-.37A.37.37,0,0,0,38.75,60.82Zm4,0a.37.37,0,0,0-.25-.65h-.06a1.38,1.38,0,0,1,.72-.63l-.07-.24a1.46,1.46,0,0,0-.59.38h0a.54.54,0,0,0-.42-.55l-.15-.07L41.75,59v.21a.58.58,0,0,0,.63.62h0a2.11,2.11,0,0,0-.21.31.35.35,0,0,0-.31-.18.37.37,0,0,0-.38.37v0a.27.27,0,0,0-.12,0,.38.38,0,0,0-.38.38.38.38,0,0,0,.25.35.35.35,0,0,0-.13.27.38.38,0,0,0,.25.35.4.4,0,0,0-.12.28.38.38,0,0,0,.75,0v0l.12,0a.38.38,0,0,0,.38-.38v0l.12,0a.38.38,0,0,0,.38-.37A.37.37,0,0,0,42.75,60.82Zm4,0a.37.37,0,0,0-.25-.65h-.06a1.38,1.38,0,0,1,.72-.63l-.07-.24a1.46,1.46,0,0,0-.59.38h0a.54.54,0,0,0-.42-.55l-.15-.07L45.75,59v.21a.58.58,0,0,0,.63.62h0a2.11,2.11,0,0,0-.21.31.35.35,0,0,0-.31-.18.37.37,0,0,0-.38.37v0a.27.27,0,0,0-.12,0,.38.38,0,0,0-.38.38.38.38,0,0,0,.25.35.35.35,0,0,0-.13.27.38.38,0,0,0,.25.35.4.4,0,0,0-.12.28.38.38,0,0,0,.75,0v0l.12,0a.38.38,0,0,0,.38-.38v0l.12,0a.38.38,0,0,0,.38-.37A.37.37,0,0,0,46.75,60.82Z"/><path id="orchard_grid_dense-15" data-name="orchard_grid_dense" class="cls-2" d="M50.75,34.15a.37.37,0,0,0,.13-.27.38.38,0,0,0-.38-.38h-.06a1.35,1.35,0,0,1,.72-.64l-.07-.24a1.57,1.57,0,0,0-.59.38h0a.54.54,0,0,0-.42-.55l-.15-.06-.18-.09v.2a.58.58,0,0,0,.63.62h0a2.11,2.11,0,0,0-.21.31.35.35,0,0,0-.31-.18.38.38,0,0,0-.38.37v0l-.12,0A.38.38,0,0,0,49,34a.37.37,0,0,0,.25.35.37.37,0,0,0-.13.27.39.39,0,0,0,.25.36.36.36,0,0,0-.12.27.38.38,0,0,0,.75,0v0l.12,0a.38.38,0,0,0,.38-.37v0l.12,0A.38.38,0,0,0,51,34.5.37.37,0,0,0,50.75,34.15Zm4,0a.37.37,0,0,0,.13-.27.38.38,0,0,0-.38-.38h-.06a1.35,1.35,0,0,1,.72-.64l-.07-.24a1.57,1.57,0,0,0-.59.38h0a.54.54,0,0,0-.42-.55l-.15-.06-.18-.09v.2a.58.58,0,0,0,.63.62h0a2.11,2.11,0,0,0-.21.31.35.35,0,0,0-.31-.18.38.38,0,0,0-.38.37v0l-.12,0A.38.38,0,0,0,53,34a.37.37,0,0,0,.25.35.37.37,0,0,0-.13.27.39.39,0,0,0,.25.36.36.36,0,0,0-.12.27.38.38,0,0,0,.75,0v0l.12,0a.38.38,0,0,0,.38-.37v0l.12,0A.38.38,0,0,0,55,34.5.37.37,0,0,0,54.75,34.15Zm4,0a.37.37,0,0,0,.13-.27.38.38,0,0,0-.38-.38h-.06a1.35,1.35,0,0,1,.72-.64l-.07-.24a1.57,1.57,0,0,0-.59.38h0a.54.54,0,0,0-.42-.55l-.15-.06-.18-.09v.2a.58.58,0,0,0,.63.62h0a2.11,2.11,0,0,0-.21.31.35.35,0,0,0-.31-.18.38.38,0,0,0-.38.37v0l-.12,0A.38.38,0,0,0,57,34a.37.37,0,0,0,.25.35.37.37,0,0,0-.13.27.39.39,0,0,0,.25.36.36.36,0,0,0-.12.27.38.38,0,0,0,.75,0v0l.12,0a.38.38,0,0,0,.38-.37v0l.12,0A.38.38,0,0,0,59,34.5.37.37,0,0,0,58.75,34.15Zm4,0a.37.37,0,0,0,.13-.27.38.38,0,0,0-.38-.38h-.06a1.35,1.35,0,0,1,.72-.64l-.07-.24a1.57,1.57,0,0,0-.59.38h0a.54.54,0,0,0-.42-.55l-.15-.06-.18-.09v.2a.58.58,0,0,0,.63.62h0a2.11,2.11,0,0,0-.21.31.35.35,0,0,0-.31-.18.38.38,0,0,0-.38.37v0l-.12,0A.38.38,0,0,0,61,34a.37.37,0,0,0,.25.35.37.37,0,0,0-.13.27.39.39,0,0,0,.25.36.36.36,0,0,0-.12.27.38.38,0,0,0,.75,0v0l.12,0a.38.38,0,0,0,.38-.37v0l.12,0A.38.38,0,0,0,63,34.5.37.37,0,0,0,62.75,34.15Zm-12,5.33a.35.35,0,0,0,.13-.27.38.38,0,0,0-.38-.38h-.06a1.44,1.44,0,0,1,.72-.64L51.09,38a1.57,1.57,0,0,0-.59.38h0a.54.54,0,0,0-.42-.55.47.47,0,0,1-.15-.06l-.18-.09v.2a.58.58,0,0,0,.63.63h0a2,2,0,0,0-.21.3.37.37,0,0,0-.31-.18.38.38,0,0,0-.38.38v0l-.12,0a.38.38,0,0,0-.38.37.37.37,0,0,0,.25.35.37.37,0,0,0-.13.28.38.38,0,0,0,.25.35.38.38,0,1,0,.63.27v0l.12,0a.37.37,0,0,0,.38-.37v0a.27.27,0,0,0,.12,0,.38.38,0,0,0,.38-.38A.38.38,0,0,0,50.75,39.48Zm4,0a.35.35,0,0,0,.13-.27.38.38,0,0,0-.38-.38h-.06a1.44,1.44,0,0,1,.72-.64L55.09,38a1.57,1.57,0,0,0-.59.38h0a.54.54,0,0,0-.42-.55.47.47,0,0,1-.15-.06l-.18-.09v.2a.58.58,0,0,0,.63.63h0a2,2,0,0,0-.21.3.37.37,0,0,0-.31-.18.38.38,0,0,0-.38.38v0l-.12,0a.38.38,0,0,0-.38.37.37.37,0,0,0,.25.35.37.37,0,0,0-.13.28.38.38,0,0,0,.25.35.38.38,0,1,0,.63.27v0l.12,0a.37.37,0,0,0,.38-.37v0a.27.27,0,0,0,.12,0,.38.38,0,0,0,.38-.38A.38.38,0,0,0,54.75,39.48Zm4,0a.35.35,0,0,0,.13-.27.38.38,0,0,0-.38-.38h-.06a1.44,1.44,0,0,1,.72-.64L59.09,38a1.57,1.57,0,0,0-.59.38h0a.54.54,0,0,0-.42-.55.47.47,0,0,1-.15-.06l-.18-.09v.2a.58.58,0,0,0,.63.63h0a2,2,0,0,0-.21.3.37.37,0,0,0-.31-.18.38.38,0,0,0-.38.38v0l-.12,0a.38.38,0,0,0-.38.37.37.37,0,0,0,.25.35.37.37,0,0,0-.13.28.38.38,0,0,0,.25.35.38.38,0,1,0,.63.27v0l.12,0a.37.37,0,0,0,.38-.37v0a.27.27,0,0,0,.12,0,.38.38,0,0,0,.38-.38A.38.38,0,0,0,58.75,39.48Zm4,0a.35.35,0,0,0,.13-.27.38.38,0,0,0-.38-.38h-.06a1.44,1.44,0,0,1,.72-.64L63.09,38a1.57,1.57,0,0,0-.59.38h0a.54.54,0,0,0-.42-.55.47.47,0,0,1-.15-.06l-.18-.09v.2a.58.58,0,0,0,.63.63h0a2,2,0,0,0-.21.3.37.37,0,0,0-.31-.18.38.38,0,0,0-.38.38v0l-.12,0a.38.38,0,0,0-.38.37.37.37,0,0,0,.25.35.37.37,0,0,0-.13.28.38.38,0,0,0,.25.35.38.38,0,1,0,.63.27v0l.12,0a.37.37,0,0,0,.38-.37v0a.27.27,0,0,0,.12,0,.38.38,0,0,0,.38-.38A.38.38,0,0,0,62.75,39.48Zm-12,5.34a.37.37,0,0,0-.25-.65h-.06a1.38,1.38,0,0,1,.72-.63l-.07-.24a1.46,1.46,0,0,0-.59.38h0a.54.54,0,0,0-.42-.55l-.15-.07L49.75,43v.21a.58.58,0,0,0,.63.62h0a2.11,2.11,0,0,0-.21.31.35.35,0,0,0-.31-.18.37.37,0,0,0-.38.37v0a.27.27,0,0,0-.12,0,.38.38,0,0,0-.38.38.38.38,0,0,0,.25.35.35.35,0,0,0-.13.27.38.38,0,0,0,.25.35.4.4,0,0,0-.12.28.38.38,0,0,0,.75,0v0l.12,0a.38.38,0,0,0,.38-.38v0l.12,0a.38.38,0,0,0,.38-.37A.37.37,0,0,0,50.75,44.82Zm4,0a.37.37,0,0,0-.25-.65h-.06a1.38,1.38,0,0,1,.72-.63l-.07-.24a1.46,1.46,0,0,0-.59.38h0a.54.54,0,0,0-.42-.55l-.15-.07L53.75,43v.21a.58.58,0,0,0,.63.62h0a2.11,2.11,0,0,0-.21.31.35.35,0,0,0-.31-.18.37.37,0,0,0-.38.37v0a.27.27,0,0,0-.12,0,.38.38,0,0,0-.38.38.38.38,0,0,0,.25.35.35.35,0,0,0-.13.27.38.38,0,0,0,.25.35.4.4,0,0,0-.12.28.38.38,0,0,0,.75,0v0l.12,0a.38.38,0,0,0,.38-.38v0l.12,0a.38.38,0,0,0,.38-.37A.37.37,0,0,0,54.75,44.82Zm4,0a.37.37,0,0,0-.25-.65h-.06a1.38,1.38,0,0,1,.72-.63l-.07-.24a1.46,1.46,0,0,0-.59.38h0a.54.54,0,0,0-.42-.55l-.15-.07L57.75,43v.21a.58.58,0,0,0,.63.62h0a2.11,2.11,0,0,0-.21.31.35.35,0,0,0-.31-.18.37.37,0,0,0-.38.37v0a.27.27,0,0,0-.12,0,.38.38,0,0,0-.38.38.38.38,0,0,0,.25.35.35.35,0,0,0-.13.27.38.38,0,0,0,.25.35.4.4,0,0,0-.12.28.38.38,0,0,0,.75,0v0l.12,0a.38.38,0,0,0,.38-.38v0l.12,0a.38.38,0,0,0,.38-.37A.37.37,0,0,0,58.75,44.82Zm4,0a.37.37,0,0,0-.25-.65h-.06a1.38,1.38,0,0,1,.72-.63l-.07-.24a1.46,1.46,0,0,0-.59.38h0a.54.54,0,0,0-.42-.55l-.15-.07L61.75,43v.21a.58.58,0,0,0,.63.62h0a2.11,2.11,0,0,0-.21.31.35.35,0,0,0-.31-.18.37.37,0,0,0-.38.37v0a.27.27,0,0,0-.12,0,.38.38,0,0,0-.38.38.38.38,0,0,0,.25.35.35.35,0,0,0-.13.27.38.38,0,0,0,.25.35.4.4,0,0,0-.12.28.38.38,0,0,0,.75,0v0l.12,0a.38.38,0,0,0,.38-.38v0l.12,0a.38.38,0,0,0,.38-.37A.37.37,0,0,0,62.75,44.82Z"/><path id="orchard_grid_dense-16" data-name="orchard_grid_dense" class="cls-2" d="M50.75,50.15a.37.37,0,0,0,.13-.27.38.38,0,0,0-.38-.38h-.06a1.35,1.35,0,0,1,.72-.64l-.07-.24a1.57,1.57,0,0,0-.59.38h0a.54.54,0,0,0-.42-.55l-.15-.06-.18-.09v.2a.58.58,0,0,0,.63.62h0a2.11,2.11,0,0,0-.21.31.35.35,0,0,0-.31-.18.38.38,0,0,0-.38.37v0l-.12,0A.38.38,0,0,0,49,50a.37.37,0,0,0,.25.35.37.37,0,0,0-.13.27.39.39,0,0,0,.25.36.36.36,0,0,0-.12.27.38.38,0,0,0,.75,0v0l.12,0a.38.38,0,0,0,.38-.37v0l.12,0A.38.38,0,0,0,51,50.5.37.37,0,0,0,50.75,50.15Zm4,0a.37.37,0,0,0,.13-.27.38.38,0,0,0-.38-.38h-.06a1.35,1.35,0,0,1,.72-.64l-.07-.24a1.57,1.57,0,0,0-.59.38h0a.54.54,0,0,0-.42-.55l-.15-.06-.18-.09v.2a.58.58,0,0,0,.63.62h0a2.11,2.11,0,0,0-.21.31.35.35,0,0,0-.31-.18.38.38,0,0,0-.38.37v0l-.12,0A.38.38,0,0,0,53,50a.37.37,0,0,0,.25.35.37.37,0,0,0-.13.27.39.39,0,0,0,.25.36.36.36,0,0,0-.12.27.38.38,0,0,0,.75,0v0l.12,0a.38.38,0,0,0,.38-.37v0l.12,0A.38.38,0,0,0,55,50.5.37.37,0,0,0,54.75,50.15Zm4,0a.37.37,0,0,0,.13-.27.38.38,0,0,0-.38-.38h-.06a1.35,1.35,0,0,1,.72-.64l-.07-.24a1.57,1.57,0,0,0-.59.38h0a.54.54,0,0,0-.42-.55l-.15-.06-.18-.09v.2a.58.58,0,0,0,.63.62h0a2.11,2.11,0,0,0-.21.31.35.35,0,0,0-.31-.18.38.38,0,0,0-.38.37v0l-.12,0A.38.38,0,0,0,57,50a.37.37,0,0,0,.25.35.37.37,0,0,0-.13.27.39.39,0,0,0,.25.36.36.36,0,0,0-.12.27.38.38,0,0,0,.75,0v0l.12,0a.38.38,0,0,0,.38-.37v0l.12,0A.38.38,0,0,0,59,50.5.37.37,0,0,0,58.75,50.15Zm4,0a.37.37,0,0,0,.13-.27.38.38,0,0,0-.38-.38h-.06a1.35,1.35,0,0,1,.72-.64l-.07-.24a1.57,1.57,0,0,0-.59.38h0a.54.54,0,0,0-.42-.55l-.15-.06-.18-.09v.2a.58.58,0,0,0,.63.62h0a2.11,2.11,0,0,0-.21.31.35.35,0,0,0-.31-.18.38.38,0,0,0-.38.37v0l-.12,0A.38.38,0,0,0,61,50a.37.37,0,0,0,.25.35.37.37,0,0,0-.13.27.39.39,0,0,0,.25.36.36.36,0,0,0-.12.27.38.38,0,0,0,.75,0v0l.12,0a.38.38,0,0,0,.38-.37v0l.12,0A.38.38,0,0,0,63,50.5.37.37,0,0,0,62.75,50.15Zm-12,5.33a.35.35,0,0,0,.13-.27.38.38,0,0,0-.38-.38h-.06a1.44,1.44,0,0,1,.72-.64L51.09,54a1.57,1.57,0,0,0-.59.38h0a.54.54,0,0,0-.42-.55.47.47,0,0,1-.15-.06l-.18-.09v.2a.58.58,0,0,0,.63.63h0a2,2,0,0,0-.21.3.37.37,0,0,0-.31-.18.38.38,0,0,0-.38.38v0l-.12,0a.38.38,0,0,0-.38.37.37.37,0,0,0,.25.35.37.37,0,0,0-.13.28.38.38,0,0,0,.25.35.38.38,0,1,0,.63.27v0l.12,0a.37.37,0,0,0,.38-.37v0a.27.27,0,0,0,.12,0,.38.38,0,0,0,.38-.38A.38.38,0,0,0,50.75,55.48Zm4,0a.35.35,0,0,0,.13-.27.38.38,0,0,0-.38-.38h-.06a1.44,1.44,0,0,1,.72-.64L55.09,54a1.57,1.57,0,0,0-.59.38h0a.54.54,0,0,0-.42-.55.47.47,0,0,1-.15-.06l-.18-.09v.2a.58.58,0,0,0,.63.63h0a2,2,0,0,0-.21.3.37.37,0,0,0-.31-.18.38.38,0,0,0-.38.38v0l-.12,0a.38.38,0,0,0-.38.37.37.37,0,0,0,.25.35.37.37,0,0,0-.13.28.38.38,0,0,0,.25.35.38.38,0,1,0,.63.27v0l.12,0a.37.37,0,0,0,.38-.37v0a.27.27,0,0,0,.12,0,.38.38,0,0,0,.38-.38A.38.38,0,0,0,54.75,55.48Zm4,0a.35.35,0,0,0,.13-.27.38.38,0,0,0-.38-.38h-.06a1.44,1.44,0,0,1,.72-.64L59.09,54a1.57,1.57,0,0,0-.59.38h0a.54.54,0,0,0-.42-.55.47.47,0,0,1-.15-.06l-.18-.09v.2a.58.58,0,0,0,.63.63h0a2,2,0,0,0-.21.3.37.37,0,0,0-.31-.18.38.38,0,0,0-.38.38v0l-.12,0a.38.38,0,0,0-.38.37.37.37,0,0,0,.25.35.37.37,0,0,0-.13.28.38.38,0,0,0,.25.35.38.38,0,1,0,.63.27v0l.12,0a.37.37,0,0,0,.38-.37v0a.27.27,0,0,0,.12,0,.38.38,0,0,0,.38-.38A.38.38,0,0,0,58.75,55.48Zm4,0a.35.35,0,0,0,.13-.27.38.38,0,0,0-.38-.38h-.06a1.44,1.44,0,0,1,.72-.64L63.09,54a1.57,1.57,0,0,0-.59.38h0a.54.54,0,0,0-.42-.55.47.47,0,0,1-.15-.06l-.18-.09v.2a.58.58,0,0,0,.63.63h0a2,2,0,0,0-.21.3.37.37,0,0,0-.31-.18.38.38,0,0,0-.38.38v0l-.12,0a.38.38,0,0,0-.38.37.37.37,0,0,0,.25.35.37.37,0,0,0-.13.28.38.38,0,0,0,.25.35.38.38,0,1,0,.63.27v0l.12,0a.37.37,0,0,0,.38-.37v0a.27.27,0,0,0,.12,0,.38.38,0,0,0,.38-.38A.38.38,0,0,0,62.75,55.48Zm-12,5.34a.37.37,0,0,0-.25-.65h-.06a1.38,1.38,0,0,1,.72-.63l-.07-.24a1.46,1.46,0,0,0-.59.38h0a.54.54,0,0,0-.42-.55l-.15-.07L49.75,59v.21a.58.58,0,0,0,.63.62h0a2.11,2.11,0,0,0-.21.31.35.35,0,0,0-.31-.18.37.37,0,0,0-.38.37v0a.27.27,0,0,0-.12,0,.38.38,0,0,0-.38.38.38.38,0,0,0,.25.35.35.35,0,0,0-.13.27.38.38,0,0,0,.25.35.4.4,0,0,0-.12.28.38.38,0,0,0,.75,0v0l.12,0a.38.38,0,0,0,.38-.38v0l.12,0a.38.38,0,0,0,.38-.37A.37.37,0,0,0,50.75,60.82Zm4,0a.37.37,0,0,0-.25-.65h-.06a1.38,1.38,0,0,1,.72-.63l-.07-.24a1.46,1.46,0,0,0-.59.38h0a.54.54,0,0,0-.42-.55l-.15-.07L53.75,59v.21a.58.58,0,0,0,.63.62h0a2.11,2.11,0,0,0-.21.31.35.35,0,0,0-.31-.18.37.37,0,0,0-.38.37v0a.27.27,0,0,0-.12,0,.38.38,0,0,0-.38.38.38.38,0,0,0,.25.35.35.35,0,0,0-.13.27.38.38,0,0,0,.25.35.4.4,0,0,0-.12.28.38.38,0,0,0,.75,0v0l.12,0a.38.38,0,0,0,.38-.38v0l.12,0a.38.38,0,0,0,.38-.37A.37.37,0,0,0,54.75,60.82Zm4,0a.37.37,0,0,0-.25-.65h-.06a1.38,1.38,0,0,1,.72-.63l-.07-.24a1.46,1.46,0,0,0-.59.38h0a.54.54,0,0,0-.42-.55l-.15-.07L57.75,59v.21a.58.58,0,0,0,.63.62h0a2.11,2.11,0,0,0-.21.31.35.35,0,0,0-.31-.18.37.37,0,0,0-.38.37v0a.27.27,0,0,0-.12,0,.38.38,0,0,0-.38.38.38.38,0,0,0,.25.35.35.35,0,0,0-.13.27.38.38,0,0,0,.25.35.4.4,0,0,0-.12.28.38.38,0,0,0,.75,0v0l.12,0a.38.38,0,0,0,.38-.38v0l.12,0a.38.38,0,0,0,.38-.37A.37.37,0,0,0,58.75,60.82Zm4,0a.37.37,0,0,0-.25-.65h-.06a1.38,1.38,0,0,1,.72-.63l-.07-.24a1.46,1.46,0,0,0-.59.38h0a.54.54,0,0,0-.42-.55l-.15-.07L61.75,59v.21a.58.58,0,0,0,.63.62h0a2.11,2.11,0,0,0-.21.31.35.35,0,0,0-.31-.18.37.37,0,0,0-.38.37v0a.27.27,0,0,0-.12,0,.38.38,0,0,0-.38.38.38.38,0,0,0,.25.35.35.35,0,0,0-.13.27.38.38,0,0,0,.25.35.4.4,0,0,0-.12.28.38.38,0,0,0,.75,0v0l.12,0a.38.38,0,0,0,.38-.38v0l.12,0a.38.38,0,0,0,.38-.37A.37.37,0,0,0,62.75,60.82Z"/></g></svg>