<svg id="Sprites" xmlns="http://www.w3.org/2000/svg" viewBox="0 0 64 64"><defs><style>.cls-1{fill:none;}.cls-2{fill:#236035;}</style></defs><g id="vineyard_poly_grid_sparse_half"><rect id="bbox_64" class="cls-1" width="32" height="32"/><path id="vineyard_grid_sparse" class="cls-2" d="M2.75,2.85a.35.35,0,0,0,.13-.27A.38.38,0,0,0,2.5,2.2H2.44a1.44,1.44,0,0,1,.72-.64l-.07-.24a1.57,1.57,0,0,0-.59.38h0a.54.54,0,0,0-.42-.55l-.15-.06L1.75,1v.2a.58.58,0,0,0,.63.63h0a2,2,0,0,0-.21.3A.37.37,0,0,0,1.88,2a.38.38,0,0,0-.38.38v0l-.12,0A.38.38,0,0,0,1,2.7a.37.37,0,0,0,.25.35.37.37,0,0,0-.13.28.38.38,0,0,0,.25.35A.38.38,0,1,0,2,4v0l.12,0a.38.38,0,0,0,.38-.37v0a.27.27,0,0,0,.12,0A.38.38,0,0,0,3,3.2.37.37,0,0,0,2.75,2.85Zm5.34,0a.38.38,0,0,0-.26-.65H7.77a1.42,1.42,0,0,1,.73-.64l-.08-.24a1.57,1.57,0,0,0-.59.38h0a.54.54,0,0,0-.42-.55l-.15-.06L7.08,1v.2a.59.59,0,0,0,.63.63h0a1.43,1.43,0,0,0-.2.3A.41.41,0,0,0,7.21,2a.38.38,0,0,0-.38.38v0l-.13,0a.37.37,0,0,0-.13.72.4.4,0,0,0-.12.28.37.37,0,0,0,.24.35A.38.38,0,0,0,7,4.33.37.37,0,0,0,7.33,4v0l.13,0a.37.37,0,0,0,.37-.37v0a.28.28,0,0,0,.13,0,.38.38,0,0,0,.13-.73Zm5.33,0a.38.38,0,0,0-.25-.65h-.06a1.4,1.4,0,0,1,.72-.64l-.08-.24a1.54,1.54,0,0,0-.58.38h0a.54.54,0,0,0-.43-.55l-.14-.06L12.42,1v.2a.58.58,0,0,0,.62.63h0a1.43,1.43,0,0,0-.2.3A.38.38,0,0,0,12.54,2a.37.37,0,0,0-.37.38v0l-.13,0a.37.37,0,0,0-.13.72.4.4,0,0,0-.12.28.37.37,0,0,0,.25.35.34.34,0,0,0-.12.27.37.37,0,0,0,.37.38A.38.38,0,0,0,12.67,4v0l.13,0a.38.38,0,0,0,.38-.37v0a.31.31,0,0,0,.13,0,.38.38,0,0,0,.13-.73Zm-10.67,8a.35.35,0,0,0,.13-.27.38.38,0,0,0-.38-.38H2.44a1.44,1.44,0,0,1,.72-.64l-.07-.24a1.57,1.57,0,0,0-.59.38h0a.54.54,0,0,0-.42-.55l-.15-.06L1.75,9v.2a.58.58,0,0,0,.63.63h0a2,2,0,0,0-.21.3A.37.37,0,0,0,1.88,10a.38.38,0,0,0-.38.38v0l-.12,0A.38.38,0,0,0,1,10.7a.37.37,0,0,0,.25.35.37.37,0,0,0-.13.28.38.38,0,0,0,.25.35A.38.38,0,1,0,2,12v0l.12,0a.38.38,0,0,0,.38-.37v0l.12,0A.38.38,0,0,0,3,11.2.37.37,0,0,0,2.75,10.85Zm5.34,0a.38.38,0,0,0-.26-.65H7.77a1.42,1.42,0,0,1,.73-.64l-.08-.24a1.57,1.57,0,0,0-.59.38h0a.54.54,0,0,0-.42-.55l-.15-.06L7.08,9v.2a.59.59,0,0,0,.63.63h0a1.43,1.43,0,0,0-.2.3A.41.41,0,0,0,7.21,10a.38.38,0,0,0-.38.38v0l-.13,0a.37.37,0,0,0-.13.72.4.4,0,0,0-.12.28.37.37,0,0,0,.24.35.38.38,0,0,0,.26.65A.37.37,0,0,0,7.33,12v0l.13,0a.37.37,0,0,0,.37-.37v0a.28.28,0,0,0,.13,0,.38.38,0,0,0,.13-.73Zm5.33,0a.38.38,0,0,0-.25-.65h-.06a1.4,1.4,0,0,1,.72-.64l-.08-.24a1.54,1.54,0,0,0-.58.38h0a.54.54,0,0,0-.43-.55l-.14-.06L12.42,9v.2a.58.58,0,0,0,.62.63h0a1.43,1.43,0,0,0-.2.3.38.38,0,0,0-.32-.18.37.37,0,0,0-.37.38v0l-.13,0a.37.37,0,0,0-.13.72.4.4,0,0,0-.12.28.37.37,0,0,0,.25.35.34.34,0,0,0-.12.27.37.37,0,0,0,.37.38.38.38,0,0,0,.38-.38v0l.13,0a.38.38,0,0,0,.38-.37v0a.31.31,0,0,0,.13,0,.38.38,0,0,0,.13-.73Z"/><path id="vineyard_grid_sparse-2" data-name="vineyard_grid_sparse" class="cls-2" d="M2.75,18.85a.35.35,0,0,0,.13-.27.38.38,0,0,0-.38-.38H2.44a1.44,1.44,0,0,1,.72-.64l-.07-.24a1.57,1.57,0,0,0-.59.38h0a.54.54,0,0,0-.42-.55l-.15-.06L1.75,17v.2a.58.58,0,0,0,.63.63h0a2,2,0,0,0-.21.3A.37.37,0,0,0,1.88,18a.38.38,0,0,0-.38.38v0l-.12,0A.38.38,0,0,0,1,18.7a.37.37,0,0,0,.25.35.37.37,0,0,0-.13.28.38.38,0,0,0,.25.35A.38.38,0,1,0,2,20v0l.12,0a.38.38,0,0,0,.38-.37v0a.27.27,0,0,0,.12,0A.38.38,0,0,0,3,19.2.37.37,0,0,0,2.75,18.85Zm5.34,0a.38.38,0,0,0-.26-.65H7.77a1.42,1.42,0,0,1,.73-.64l-.08-.24a1.57,1.57,0,0,0-.59.38h0a.54.54,0,0,0-.42-.55l-.15-.06L7.08,17v.2a.59.59,0,0,0,.63.63h0a1.43,1.43,0,0,0-.2.3A.41.41,0,0,0,7.21,18a.38.38,0,0,0-.38.38v0l-.13,0a.37.37,0,0,0-.13.72.4.4,0,0,0-.12.28.37.37,0,0,0,.24.35.38.38,0,0,0,.26.65A.37.37,0,0,0,7.33,20v0l.13,0a.37.37,0,0,0,.37-.37v0a.28.28,0,0,0,.13,0,.38.38,0,0,0,.13-.73Zm5.33,0a.38.38,0,0,0-.25-.65h-.06a1.4,1.4,0,0,1,.72-.64l-.08-.24a1.54,1.54,0,0,0-.58.38h0a.54.54,0,0,0-.43-.55l-.14-.06L12.42,17v.2a.58.58,0,0,0,.62.63h0a1.43,1.43,0,0,0-.2.3.38.38,0,0,0-.32-.18.37.37,0,0,0-.37.38v0l-.13,0a.37.37,0,0,0-.13.72.4.4,0,0,0-.12.28.37.37,0,0,0,.25.35.34.34,0,0,0-.12.27.37.37,0,0,0,.37.38.38.38,0,0,0,.38-.38v0l.13,0a.38.38,0,0,0,.38-.37v0a.31.31,0,0,0,.13,0,.38.38,0,0,0,.13-.73Zm-10.67,8a.35.35,0,0,0,.13-.27.38.38,0,0,0-.38-.38H2.44a1.44,1.44,0,0,1,.72-.64l-.07-.24a1.57,1.57,0,0,0-.59.38h0a.54.54,0,0,0-.42-.55l-.15-.06L1.75,25v.2a.58.58,0,0,0,.63.63h0a2,2,0,0,0-.21.3A.37.37,0,0,0,1.88,26a.38.38,0,0,0-.38.38v0l-.12,0A.38.38,0,0,0,1,26.7a.37.37,0,0,0,.25.35.37.37,0,0,0-.13.28.38.38,0,0,0,.25.35A.38.38,0,1,0,2,28v0l.12,0a.38.38,0,0,0,.38-.37v0a.27.27,0,0,0,.12,0A.38.38,0,0,0,3,27.2.37.37,0,0,0,2.75,26.85Zm5.34,0a.38.38,0,0,0-.26-.65H7.77a1.42,1.42,0,0,1,.73-.64l-.08-.24a1.57,1.57,0,0,0-.59.38h0a.54.54,0,0,0-.42-.55l-.15-.06L7.08,25v.2a.59.59,0,0,0,.63.63h0a1.43,1.43,0,0,0-.2.3A.41.41,0,0,0,7.21,26a.38.38,0,0,0-.38.38v0l-.13,0a.37.37,0,0,0-.13.72.4.4,0,0,0-.12.28.37.37,0,0,0,.24.35.38.38,0,0,0,.26.65A.37.37,0,0,0,7.33,28v0l.13,0a.37.37,0,0,0,.37-.37v0a.28.28,0,0,0,.13,0,.38.38,0,0,0,.13-.73Zm5.33,0a.38.38,0,0,0-.25-.65h-.06a1.4,1.4,0,0,1,.72-.64l-.08-.24a1.54,1.54,0,0,0-.58.38h0a.54.54,0,0,0-.43-.55l-.14-.06L12.42,25v.2a.58.58,0,0,0,.62.63h0a1.43,1.43,0,0,0-.2.3.38.38,0,0,0-.32-.18.37.37,0,0,0-.37.38v0l-.13,0a.37.37,0,0,0-.13.72.4.4,0,0,0-.12.28.37.37,0,0,0,.25.35.34.34,0,0,0-.12.27.37.37,0,0,0,.37.38.38.38,0,0,0,.38-.38v0l.13,0a.38.38,0,0,0,.38-.37v0a.31.31,0,0,0,.13,0,.38.38,0,0,0,.13-.73Z"/><path id="vineyard_grid_sparse-3" data-name="vineyard_grid_sparse" class="cls-2" d="M18.75,2.85a.35.35,0,0,0,.13-.27.38.38,0,0,0-.38-.38h-.06a1.44,1.44,0,0,1,.72-.64l-.07-.24a1.57,1.57,0,0,0-.59.38h0a.54.54,0,0,0-.42-.55l-.15-.06L17.75,1v.2a.58.58,0,0,0,.63.63h0a2,2,0,0,0-.21.3A.37.37,0,0,0,17.88,2a.38.38,0,0,0-.38.38v0l-.12,0A.38.38,0,0,0,17,2.7a.37.37,0,0,0,.25.35.37.37,0,0,0-.13.28.38.38,0,0,0,.25.35A.38.38,0,1,0,18,4v0l.12,0a.38.38,0,0,0,.38-.37v0a.27.27,0,0,0,.12,0A.38.38,0,0,0,19,3.2.37.37,0,0,0,18.75,2.85Zm5.34,0a.38.38,0,0,0-.26-.65h-.06a1.42,1.42,0,0,1,.73-.64l-.08-.24a1.57,1.57,0,0,0-.59.38h0a.54.54,0,0,0-.42-.55l-.15-.06L23.08,1v.2a.59.59,0,0,0,.63.63h0a1.43,1.43,0,0,0-.2.3A.41.41,0,0,0,23.21,2a.38.38,0,0,0-.38.38v0l-.13,0a.37.37,0,0,0-.13.72.4.4,0,0,0-.12.28.37.37,0,0,0,.24.35.38.38,0,0,0,.26.65A.37.37,0,0,0,23.33,4v0l.13,0a.37.37,0,0,0,.37-.37v0a.28.28,0,0,0,.13,0,.38.38,0,0,0,.13-.73Zm5.33,0a.38.38,0,0,0-.25-.65h-.06a1.4,1.4,0,0,1,.72-.64l-.08-.24a1.54,1.54,0,0,0-.58.38h0a.54.54,0,0,0-.43-.55l-.14-.06L28.42,1v.2a.58.58,0,0,0,.62.63h0a1.43,1.43,0,0,0-.2.3A.38.38,0,0,0,28.54,2a.37.37,0,0,0-.37.38v0l-.13,0a.37.37,0,0,0-.13.72.4.4,0,0,0-.12.28.37.37,0,0,0,.25.35.34.34,0,0,0-.12.27.37.37,0,0,0,.37.38A.38.38,0,0,0,28.67,4v0l.13,0a.38.38,0,0,0,.38-.37v0a.31.31,0,0,0,.13,0,.38.38,0,0,0,.13-.73Zm-10.67,8a.35.35,0,0,0,.13-.27.38.38,0,0,0-.38-.38h-.06a1.44,1.44,0,0,1,.72-.64l-.07-.24a1.57,1.57,0,0,0-.59.38h0a.54.54,0,0,0-.42-.55l-.15-.06L17.75,9v.2a.58.58,0,0,0,.63.63h0a2,2,0,0,0-.21.3.37.37,0,0,0-.31-.18.38.38,0,0,0-.38.38v0l-.12,0a.38.38,0,0,0-.38.37.37.37,0,0,0,.25.35.37.37,0,0,0-.13.28.38.38,0,0,0,.25.35A.38.38,0,1,0,18,12v0l.12,0a.38.38,0,0,0,.38-.37v0l.12,0A.38.38,0,0,0,19,11.2.37.37,0,0,0,18.75,10.85Zm5.34,0a.38.38,0,0,0-.26-.65h-.06a1.42,1.42,0,0,1,.73-.64l-.08-.24a1.57,1.57,0,0,0-.59.38h0a.54.54,0,0,0-.42-.55l-.15-.06L23.08,9v.2a.59.59,0,0,0,.63.63h0a1.43,1.43,0,0,0-.2.3.41.41,0,0,0-.32-.18.38.38,0,0,0-.38.38v0l-.13,0a.37.37,0,0,0-.13.72.4.4,0,0,0-.12.28.37.37,0,0,0,.24.35.38.38,0,0,0,.26.65.37.37,0,0,0,.37-.38v0l.13,0a.37.37,0,0,0,.37-.37v0a.28.28,0,0,0,.13,0,.38.38,0,0,0,.13-.73Zm5.33,0a.38.38,0,0,0-.25-.65h-.06a1.4,1.4,0,0,1,.72-.64l-.08-.24a1.54,1.54,0,0,0-.58.38h0a.54.54,0,0,0-.43-.55l-.14-.06L28.42,9v.2a.58.58,0,0,0,.62.63h0a1.43,1.43,0,0,0-.2.3.38.38,0,0,0-.32-.18.37.37,0,0,0-.37.38v0l-.13,0a.37.37,0,0,0-.13.72.4.4,0,0,0-.12.28.37.37,0,0,0,.25.35.34.34,0,0,0-.12.27.37.37,0,0,0,.37.38.38.38,0,0,0,.38-.38v0l.13,0a.38.38,0,0,0,.38-.37v0a.31.31,0,0,0,.13,0,.38.38,0,0,0,.13-.73Z"/><path id="vineyard_grid_sparse-4" data-name="vineyard_grid_sparse" class="cls-2" d="M18.75,18.85a.35.35,0,0,0,.13-.27.38.38,0,0,0-.38-.38h-.06a1.44,1.44,0,0,1,.72-.64l-.07-.24a1.57,1.57,0,0,0-.59.38h0a.54.54,0,0,0-.42-.55l-.15-.06L17.75,17v.2a.58.58,0,0,0,.63.63h0a2,2,0,0,0-.21.3.37.37,0,0,0-.31-.18.38.38,0,0,0-.38.38v0l-.12,0a.38.38,0,0,0-.38.37.37.37,0,0,0,.25.35.37.37,0,0,0-.13.28.38.38,0,0,0,.25.35A.38.38,0,1,0,18,20v0l.12,0a.38.38,0,0,0,.38-.37v0a.27.27,0,0,0,.12,0A.38.38,0,0,0,19,19.2.37.37,0,0,0,18.75,18.85Zm5.34,0a.38.38,0,0,0-.26-.65h-.06a1.42,1.42,0,0,1,.73-.64l-.08-.24a1.57,1.57,0,0,0-.59.38h0a.54.54,0,0,0-.42-.55l-.15-.06L23.08,17v.2a.59.59,0,0,0,.63.63h0a1.43,1.43,0,0,0-.2.3.41.41,0,0,0-.32-.18.38.38,0,0,0-.38.38v0l-.13,0a.37.37,0,0,0-.13.72.4.4,0,0,0-.12.28.37.37,0,0,0,.24.35.38.38,0,0,0,.26.65.37.37,0,0,0,.37-.38v0l.13,0a.37.37,0,0,0,.37-.37v0a.28.28,0,0,0,.13,0,.38.38,0,0,0,.13-.73Zm5.33,0a.38.38,0,0,0-.25-.65h-.06a1.4,1.4,0,0,1,.72-.64l-.08-.24a1.54,1.54,0,0,0-.58.38h0a.54.54,0,0,0-.43-.55l-.14-.06L28.42,17v.2a.58.58,0,0,0,.62.63h0a1.43,1.43,0,0,0-.2.3.38.38,0,0,0-.32-.18.37.37,0,0,0-.37.38v0l-.13,0a.37.37,0,0,0-.13.72.4.4,0,0,0-.12.28.37.37,0,0,0,.25.35.34.34,0,0,0-.12.27.37.37,0,0,0,.37.38.38.38,0,0,0,.38-.38v0l.13,0a.38.38,0,0,0,.38-.37v0a.31.31,0,0,0,.13,0,.38.38,0,0,0,.13-.73Zm-10.67,8a.35.35,0,0,0,.13-.27.38.38,0,0,0-.38-.38h-.06a1.44,1.44,0,0,1,.72-.64l-.07-.24a1.57,1.57,0,0,0-.59.38h0a.54.54,0,0,0-.42-.55l-.15-.06L17.75,25v.2a.58.58,0,0,0,.63.63h0a2,2,0,0,0-.21.3.37.37,0,0,0-.31-.18.38.38,0,0,0-.38.38v0l-.12,0a.38.38,0,0,0-.38.37.37.37,0,0,0,.25.35.37.37,0,0,0-.13.28.38.38,0,0,0,.25.35A.38.38,0,1,0,18,28v0l.12,0a.38.38,0,0,0,.38-.37v0a.27.27,0,0,0,.12,0A.38.38,0,0,0,19,27.2.37.37,0,0,0,18.75,26.85Zm5.34,0a.38.38,0,0,0-.26-.65h-.06a1.42,1.42,0,0,1,.73-.64l-.08-.24a1.57,1.57,0,0,0-.59.38h0a.54.54,0,0,0-.42-.55l-.15-.06L23.08,25v.2a.59.59,0,0,0,.63.63h0a1.43,1.43,0,0,0-.2.3.41.41,0,0,0-.32-.18.38.38,0,0,0-.38.38v0l-.13,0a.37.37,0,0,0-.13.72.4.4,0,0,0-.12.28.37.37,0,0,0,.24.35.38.38,0,0,0,.26.65.37.37,0,0,0,.37-.38v0l.13,0a.37.37,0,0,0,.37-.37v0a.28.28,0,0,0,.13,0,.38.38,0,0,0,.13-.73Zm5.33,0a.38.38,0,0,0-.25-.65h-.06a1.4,1.4,0,0,1,.72-.64l-.08-.24a1.54,1.54,0,0,0-.58.38h0a.54.54,0,0,0-.43-.55l-.14-.06L28.42,25v.2a.58.58,0,0,0,.62.63h0a1.43,1.43,0,0,0-.2.3.38.38,0,0,0-.32-.18.37.37,0,0,0-.37.38v0l-.13,0a.37.37,0,0,0-.13.72.4.4,0,0,0-.12.28.37.37,0,0,0,.25.35.34.34,0,0,0-.12.27.37.37,0,0,0,.37.38.38.38,0,0,0,.38-.38v0l.13,0a.38.38,0,0,0,.38-.37v0a.31.31,0,0,0,.13,0,.38.38,0,0,0,.13-.73Z"/></g><g id="vineyard_poly_grid_sparse_half-2" data-name="vineyard_poly_grid_sparse_half"><rect id="bbox_64-2" data-name="bbox_64" class="cls-1" x="32" width="32" height="32"/><path id="vineyard_grid_sparse-5" data-name="vineyard_grid_sparse" class="cls-2" d="M34.75,2.85a.35.35,0,0,0,.13-.27.38.38,0,0,0-.38-.38h-.06a1.44,1.44,0,0,1,.72-.64l-.07-.24a1.57,1.57,0,0,0-.59.38h0a.54.54,0,0,0-.42-.55l-.15-.06L33.75,1v.2a.58.58,0,0,0,.63.63h0a2,2,0,0,0-.21.3A.37.37,0,0,0,33.88,2a.38.38,0,0,0-.38.38v0l-.12,0A.38.38,0,0,0,33,2.7a.37.37,0,0,0,.25.35.37.37,0,0,0-.13.28.38.38,0,0,0,.25.35A.38.38,0,1,0,34,4v0l.12,0a.38.38,0,0,0,.38-.37v0a.27.27,0,0,0,.12,0A.38.38,0,0,0,35,3.2.37.37,0,0,0,34.75,2.85Zm5.34,0a.38.38,0,0,0-.26-.65h-.06a1.42,1.42,0,0,1,.73-.64l-.08-.24a1.57,1.57,0,0,0-.59.38h0a.54.54,0,0,0-.42-.55l-.15-.06L39.08,1v.2a.59.59,0,0,0,.63.63h0a1.43,1.43,0,0,0-.2.3A.41.41,0,0,0,39.21,2a.38.38,0,0,0-.38.38v0l-.13,0a.37.37,0,0,0-.13.72.4.4,0,0,0-.12.28.37.37,0,0,0,.24.35.38.38,0,0,0,.26.65A.37.37,0,0,0,39.33,4v0l.13,0a.37.37,0,0,0,.37-.37v0a.28.28,0,0,0,.13,0,.38.38,0,0,0,.13-.73Zm5.33,0a.38.38,0,0,0-.25-.65h-.06a1.4,1.4,0,0,1,.72-.64l-.08-.24a1.54,1.54,0,0,0-.58.38h0a.54.54,0,0,0-.43-.55l-.14-.06L44.42,1v.2a.58.58,0,0,0,.62.63h0a1.43,1.43,0,0,0-.2.3A.38.38,0,0,0,44.54,2a.37.37,0,0,0-.37.38v0l-.13,0a.37.37,0,0,0-.13.72.4.4,0,0,0-.12.28.37.37,0,0,0,.25.35.34.34,0,0,0-.12.27.37.37,0,0,0,.37.38A.38.38,0,0,0,44.67,4v0l.13,0a.38.38,0,0,0,.38-.37v0a.31.31,0,0,0,.13,0,.38.38,0,0,0,.13-.73Zm-10.67,8a.35.35,0,0,0,.13-.27.38.38,0,0,0-.38-.38h-.06a1.44,1.44,0,0,1,.72-.64l-.07-.24a1.57,1.57,0,0,0-.59.38h0a.54.54,0,0,0-.42-.55l-.15-.06L33.75,9v.2a.58.58,0,0,0,.63.63h0a2,2,0,0,0-.21.3.37.37,0,0,0-.31-.18.38.38,0,0,0-.38.38v0l-.12,0a.38.38,0,0,0-.38.37.37.37,0,0,0,.25.35.37.37,0,0,0-.13.28.38.38,0,0,0,.25.35A.38.38,0,1,0,34,12v0l.12,0a.38.38,0,0,0,.38-.37v0l.12,0A.38.38,0,0,0,35,11.2.37.37,0,0,0,34.75,10.85Zm5.34,0a.38.38,0,0,0-.26-.65h-.06a1.42,1.42,0,0,1,.73-.64l-.08-.24a1.57,1.57,0,0,0-.59.38h0a.54.54,0,0,0-.42-.55l-.15-.06L39.08,9v.2a.59.59,0,0,0,.63.63h0a1.43,1.43,0,0,0-.2.3.41.41,0,0,0-.32-.18.38.38,0,0,0-.38.38v0l-.13,0a.37.37,0,0,0-.13.72.4.4,0,0,0-.12.28.37.37,0,0,0,.24.35.38.38,0,0,0,.26.65.37.37,0,0,0,.37-.38v0l.13,0a.37.37,0,0,0,.37-.37v0a.28.28,0,0,0,.13,0,.38.38,0,0,0,.13-.73Zm5.33,0a.38.38,0,0,0-.25-.65h-.06a1.4,1.4,0,0,1,.72-.64l-.08-.24a1.54,1.54,0,0,0-.58.38h0a.54.54,0,0,0-.43-.55l-.14-.06L44.42,9v.2a.58.58,0,0,0,.62.63h0a1.43,1.43,0,0,0-.2.3.38.38,0,0,0-.32-.18.37.37,0,0,0-.37.38v0l-.13,0a.37.37,0,0,0-.13.72.4.4,0,0,0-.12.28.37.37,0,0,0,.25.35.34.34,0,0,0-.12.27.37.37,0,0,0,.37.38.38.38,0,0,0,.38-.38v0l.13,0a.38.38,0,0,0,.38-.37v0a.31.31,0,0,0,.13,0,.38.38,0,0,0,.13-.73Z"/><path id="vineyard_grid_sparse-6" data-name="vineyard_grid_sparse" class="cls-2" d="M34.75,18.85a.35.35,0,0,0,.13-.27.38.38,0,0,0-.38-.38h-.06a1.44,1.44,0,0,1,.72-.64l-.07-.24a1.57,1.57,0,0,0-.59.38h0a.54.54,0,0,0-.42-.55l-.15-.06L33.75,17v.2a.58.58,0,0,0,.63.63h0a2,2,0,0,0-.21.3.37.37,0,0,0-.31-.18.38.38,0,0,0-.38.38v0l-.12,0a.38.38,0,0,0-.38.37.37.37,0,0,0,.25.35.37.37,0,0,0-.13.28.38.38,0,0,0,.25.35A.38.38,0,1,0,34,20v0l.12,0a.38.38,0,0,0,.38-.37v0a.27.27,0,0,0,.12,0A.38.38,0,0,0,35,19.2.37.37,0,0,0,34.75,18.85Zm5.34,0a.38.38,0,0,0-.26-.65h-.06a1.42,1.42,0,0,1,.73-.64l-.08-.24a1.57,1.57,0,0,0-.59.38h0a.54.54,0,0,0-.42-.55l-.15-.06L39.08,17v.2a.59.59,0,0,0,.63.63h0a1.43,1.43,0,0,0-.2.3.41.41,0,0,0-.32-.18.38.38,0,0,0-.38.38v0l-.13,0a.37.37,0,0,0-.13.72.4.4,0,0,0-.12.28.37.37,0,0,0,.24.35.38.38,0,0,0,.26.65.37.37,0,0,0,.37-.38v0l.13,0a.37.37,0,0,0,.37-.37v0a.28.28,0,0,0,.13,0,.38.38,0,0,0,.13-.73Zm5.33,0a.38.38,0,0,0-.25-.65h-.06a1.4,1.4,0,0,1,.72-.64l-.08-.24a1.54,1.54,0,0,0-.58.38h0a.54.54,0,0,0-.43-.55l-.14-.06L44.42,17v.2a.58.58,0,0,0,.62.63h0a1.43,1.43,0,0,0-.2.3.38.38,0,0,0-.32-.18.37.37,0,0,0-.37.38v0l-.13,0a.37.37,0,0,0-.13.72.4.4,0,0,0-.12.28.37.37,0,0,0,.25.35.34.34,0,0,0-.12.27.37.37,0,0,0,.37.38.38.38,0,0,0,.38-.38v0l.13,0a.38.38,0,0,0,.38-.37v0a.31.31,0,0,0,.13,0,.38.38,0,0,0,.13-.73Zm-10.67,8a.35.35,0,0,0,.13-.27.38.38,0,0,0-.38-.38h-.06a1.44,1.44,0,0,1,.72-.64l-.07-.24a1.57,1.57,0,0,0-.59.38h0a.54.54,0,0,0-.42-.55l-.15-.06L33.75,25v.2a.58.58,0,0,0,.63.63h0a2,2,0,0,0-.21.3.37.37,0,0,0-.31-.18.38.38,0,0,0-.38.38v0l-.12,0a.38.38,0,0,0-.38.37.37.37,0,0,0,.25.35.37.37,0,0,0-.13.28.38.38,0,0,0,.25.35A.38.38,0,1,0,34,28v0l.12,0a.38.38,0,0,0,.38-.37v0a.27.27,0,0,0,.12,0A.38.38,0,0,0,35,27.2.37.37,0,0,0,34.75,26.85Zm5.34,0a.38.38,0,0,0-.26-.65h-.06a1.42,1.42,0,0,1,.73-.64l-.08-.24a1.57,1.57,0,0,0-.59.38h0a.54.54,0,0,0-.42-.55l-.15-.06L39.08,25v.2a.59.59,0,0,0,.63.63h0a1.43,1.43,0,0,0-.2.3.41.41,0,0,0-.32-.18.38.38,0,0,0-.38.38v0l-.13,0a.37.37,0,0,0-.13.72.4.4,0,0,0-.12.28.37.37,0,0,0,.24.35.38.38,0,0,0,.26.65.37.37,0,0,0,.37-.38v0l.13,0a.37.37,0,0,0,.37-.37v0a.28.28,0,0,0,.13,0,.38.38,0,0,0,.13-.73Zm5.33,0a.38.38,0,0,0-.25-.65h-.06a1.4,1.4,0,0,1,.72-.64l-.08-.24a1.54,1.54,0,0,0-.58.38h0a.54.54,0,0,0-.43-.55l-.14-.06L44.42,25v.2a.58.58,0,0,0,.62.63h0a1.43,1.43,0,0,0-.2.3.38.38,0,0,0-.32-.18.37.37,0,0,0-.37.38v0l-.13,0a.37.37,0,0,0-.13.72.4.4,0,0,0-.12.28.37.37,0,0,0,.25.35.34.34,0,0,0-.12.27.37.37,0,0,0,.37.38.38.38,0,0,0,.38-.38v0l.13,0a.38.38,0,0,0,.38-.37v0a.31.31,0,0,0,.13,0,.38.38,0,0,0,.13-.73Z"/><path id="vineyard_grid_sparse-7" data-name="vineyard_grid_sparse" class="cls-2" d="M50.75,2.85a.35.35,0,0,0,.13-.27.38.38,0,0,0-.38-.38h-.06a1.44,1.44,0,0,1,.72-.64l-.07-.24a1.57,1.57,0,0,0-.59.38h0a.54.54,0,0,0-.42-.55l-.15-.06L49.75,1v.2a.58.58,0,0,0,.63.63h0a2,2,0,0,0-.21.3A.37.37,0,0,0,49.88,2a.38.38,0,0,0-.38.38v0l-.12,0A.38.38,0,0,0,49,2.7a.37.37,0,0,0,.25.35.37.37,0,0,0-.13.28.38.38,0,0,0,.25.35A.38.38,0,1,0,50,4v0l.12,0a.38.38,0,0,0,.38-.37v0a.27.27,0,0,0,.12,0A.38.38,0,0,0,51,3.2.37.37,0,0,0,50.75,2.85Zm5.34,0a.38.38,0,0,0-.26-.65h-.06a1.42,1.42,0,0,1,.73-.64l-.08-.24a1.57,1.57,0,0,0-.59.38h0a.54.54,0,0,0-.42-.55l-.15-.06L55.08,1v.2a.59.59,0,0,0,.63.63h0a1.43,1.43,0,0,0-.2.3A.41.41,0,0,0,55.21,2a.38.38,0,0,0-.38.38v0l-.13,0a.37.37,0,0,0-.13.72.4.4,0,0,0-.12.28.37.37,0,0,0,.24.35.38.38,0,0,0,.26.65A.37.37,0,0,0,55.33,4v0l.13,0a.37.37,0,0,0,.37-.37v0a.28.28,0,0,0,.13,0,.38.38,0,0,0,.13-.73Zm5.33,0a.38.38,0,0,0-.25-.65h-.06a1.4,1.4,0,0,1,.72-.64l-.08-.24a1.54,1.54,0,0,0-.58.38h0a.54.54,0,0,0-.43-.55l-.14-.06L60.42,1v.2a.58.58,0,0,0,.62.63h0a1.43,1.43,0,0,0-.2.3A.38.38,0,0,0,60.54,2a.37.37,0,0,0-.37.38v0l-.13,0a.37.37,0,0,0-.13.72.4.4,0,0,0-.12.28.37.37,0,0,0,.25.35.34.34,0,0,0-.12.27.37.37,0,0,0,.37.38A.38.38,0,0,0,60.67,4v0l.13,0a.38.38,0,0,0,.38-.37v0a.31.31,0,0,0,.13,0,.38.38,0,0,0,.13-.73Zm-10.67,8a.35.35,0,0,0,.13-.27.38.38,0,0,0-.38-.38h-.06a1.44,1.44,0,0,1,.72-.64l-.07-.24a1.57,1.57,0,0,0-.59.38h0a.54.54,0,0,0-.42-.55l-.15-.06L49.75,9v.2a.58.58,0,0,0,.63.63h0a2,2,0,0,0-.21.3.37.37,0,0,0-.31-.18.38.38,0,0,0-.38.38v0l-.12,0a.38.38,0,0,0-.38.37.37.37,0,0,0,.25.35.37.37,0,0,0-.13.28.38.38,0,0,0,.25.35A.38.38,0,1,0,50,12v0l.12,0a.38.38,0,0,0,.38-.37v0l.12,0A.38.38,0,0,0,51,11.2.37.37,0,0,0,50.75,10.85Zm5.34,0a.38.38,0,0,0-.26-.65h-.06a1.42,1.42,0,0,1,.73-.64l-.08-.24a1.57,1.57,0,0,0-.59.38h0a.54.54,0,0,0-.42-.55l-.15-.06L55.08,9v.2a.59.59,0,0,0,.63.63h0a1.43,1.43,0,0,0-.2.3.41.41,0,0,0-.32-.18.38.38,0,0,0-.38.38v0l-.13,0a.37.37,0,0,0-.13.72.4.4,0,0,0-.12.28.37.37,0,0,0,.24.35.38.38,0,0,0,.26.65.37.37,0,0,0,.37-.38v0l.13,0a.37.37,0,0,0,.37-.37v0a.28.28,0,0,0,.13,0,.38.38,0,0,0,.13-.73Zm5.33,0a.38.38,0,0,0-.25-.65h-.06a1.4,1.4,0,0,1,.72-.64l-.08-.24a1.54,1.54,0,0,0-.58.38h0a.54.54,0,0,0-.43-.55l-.14-.06L60.42,9v.2a.58.58,0,0,0,.62.63h0a1.43,1.43,0,0,0-.2.3.38.38,0,0,0-.32-.18.37.37,0,0,0-.37.38v0l-.13,0a.37.37,0,0,0-.13.72.4.4,0,0,0-.12.28.37.37,0,0,0,.25.35.34.34,0,0,0-.12.27.37.37,0,0,0,.37.38.38.38,0,0,0,.38-.38v0l.13,0a.38.38,0,0,0,.38-.37v0a.31.31,0,0,0,.13,0,.38.38,0,0,0,.13-.73Z"/><path id="vineyard_grid_sparse-8" data-name="vineyard_grid_sparse" class="cls-2" d="M50.75,18.85a.35.35,0,0,0,.13-.27.38.38,0,0,0-.38-.38h-.06a1.44,1.44,0,0,1,.72-.64l-.07-.24a1.57,1.57,0,0,0-.59.38h0a.54.54,0,0,0-.42-.55l-.15-.06L49.75,17v.2a.58.58,0,0,0,.63.63h0a2,2,0,0,0-.21.3.37.37,0,0,0-.31-.18.38.38,0,0,0-.38.38v0l-.12,0a.38.38,0,0,0-.38.37.37.37,0,0,0,.25.35.37.37,0,0,0-.13.28.38.38,0,0,0,.25.35A.38.38,0,1,0,50,20v0l.12,0a.38.38,0,0,0,.38-.37v0a.27.27,0,0,0,.12,0A.38.38,0,0,0,51,19.2.37.37,0,0,0,50.75,18.85Zm5.34,0a.38.38,0,0,0-.26-.65h-.06a1.42,1.42,0,0,1,.73-.64l-.08-.24a1.57,1.57,0,0,0-.59.38h0a.54.54,0,0,0-.42-.55l-.15-.06L55.08,17v.2a.59.59,0,0,0,.63.63h0a1.43,1.43,0,0,0-.2.3.41.41,0,0,0-.32-.18.38.38,0,0,0-.38.38v0l-.13,0a.37.37,0,0,0-.13.72.4.4,0,0,0-.12.28.37.37,0,0,0,.24.35.38.38,0,0,0,.26.65.37.37,0,0,0,.37-.38v0l.13,0a.37.37,0,0,0,.37-.37v0a.28.28,0,0,0,.13,0,.38.38,0,0,0,.13-.73Zm5.33,0a.38.38,0,0,0-.25-.65h-.06a1.4,1.4,0,0,1,.72-.64l-.08-.24a1.54,1.54,0,0,0-.58.38h0a.54.54,0,0,0-.43-.55l-.14-.06L60.42,17v.2a.58.58,0,0,0,.62.63h0a1.43,1.43,0,0,0-.2.3.38.38,0,0,0-.32-.18.37.37,0,0,0-.37.38v0l-.13,0a.37.37,0,0,0-.13.72.4.4,0,0,0-.12.28.37.37,0,0,0,.25.35.34.34,0,0,0-.12.27.37.37,0,0,0,.37.38.38.38,0,0,0,.38-.38v0l.13,0a.38.38,0,0,0,.38-.37v0a.31.31,0,0,0,.13,0,.38.38,0,0,0,.13-.73Zm-10.67,8a.35.35,0,0,0,.13-.27.38.38,0,0,0-.38-.38h-.06a1.44,1.44,0,0,1,.72-.64l-.07-.24a1.57,1.57,0,0,0-.59.38h0a.54.54,0,0,0-.42-.55l-.15-.06L49.75,25v.2a.58.58,0,0,0,.63.63h0a2,2,0,0,0-.21.3.37.37,0,0,0-.31-.18.38.38,0,0,0-.38.38v0l-.12,0a.38.38,0,0,0-.38.37.37.37,0,0,0,.25.35.37.37,0,0,0-.13.28.38.38,0,0,0,.25.35A.38.38,0,1,0,50,28v0l.12,0a.38.38,0,0,0,.38-.37v0a.27.27,0,0,0,.12,0A.38.38,0,0,0,51,27.2.37.37,0,0,0,50.75,26.85Zm5.34,0a.38.38,0,0,0-.26-.65h-.06a1.42,1.42,0,0,1,.73-.64l-.08-.24a1.57,1.57,0,0,0-.59.38h0a.54.54,0,0,0-.42-.55l-.15-.06L55.08,25v.2a.59.59,0,0,0,.63.63h0a1.43,1.43,0,0,0-.2.3.41.41,0,0,0-.32-.18.38.38,0,0,0-.38.38v0l-.13,0a.37.37,0,0,0-.13.72.4.4,0,0,0-.12.28.37.37,0,0,0,.24.35.38.38,0,0,0,.26.65.37.37,0,0,0,.37-.38v0l.13,0a.37.37,0,0,0,.37-.37v0a.28.28,0,0,0,.13,0,.38.38,0,0,0,.13-.73Zm5.33,0a.38.38,0,0,0-.25-.65h-.06a1.4,1.4,0,0,1,.72-.64l-.08-.24a1.54,1.54,0,0,0-.58.38h0a.54.54,0,0,0-.43-.55l-.14-.06L60.42,25v.2a.58.58,0,0,0,.62.63h0a1.43,1.43,0,0,0-.2.3.38.38,0,0,0-.32-.18.37.37,0,0,0-.37.38v0l-.13,0a.37.37,0,0,0-.13.72.4.4,0,0,0-.12.28.37.37,0,0,0,.25.35.34.34,0,0,0-.12.27.37.37,0,0,0,.37.38.38.38,0,0,0,.38-.38v0l.13,0a.38.38,0,0,0,.38-.37v0a.31.31,0,0,0,.13,0,.38.38,0,0,0,.13-.73Z"/></g><g id="vineyard_poly_grid_sparse_half-3" data-name="vineyard_poly_grid_sparse_half"><rect id="bbox_64-3" data-name="bbox_64" class="cls-1" y="32" width="32" height="32"/><path id="vineyard_grid_sparse-9" data-name="vineyard_grid_sparse" class="cls-2" d="M2.75,34.85a.35.35,0,0,0,.13-.27.38.38,0,0,0-.38-.38H2.44a1.44,1.44,0,0,1,.72-.64l-.07-.24a1.57,1.57,0,0,0-.59.38h0a.54.54,0,0,0-.42-.55l-.15-.06L1.75,33v.2a.58.58,0,0,0,.63.63h0a2,2,0,0,0-.21.3A.37.37,0,0,0,1.88,34a.38.38,0,0,0-.38.38v0l-.12,0A.38.38,0,0,0,1,34.7a.37.37,0,0,0,.25.35.37.37,0,0,0-.13.28.38.38,0,0,0,.25.35A.38.38,0,1,0,2,36v0l.12,0a.38.38,0,0,0,.38-.37v0a.27.27,0,0,0,.12,0A.38.38,0,0,0,3,35.2.37.37,0,0,0,2.75,34.85Zm5.34,0a.38.38,0,0,0-.26-.65H7.77a1.42,1.42,0,0,1,.73-.64l-.08-.24a1.57,1.57,0,0,0-.59.38h0a.54.54,0,0,0-.42-.55l-.15-.06L7.08,33v.2a.59.59,0,0,0,.63.63h0a1.43,1.43,0,0,0-.2.3A.41.41,0,0,0,7.21,34a.38.38,0,0,0-.38.38v0l-.13,0a.37.37,0,0,0-.13.72.4.4,0,0,0-.12.28.37.37,0,0,0,.24.35.38.38,0,0,0,.26.65A.37.37,0,0,0,7.33,36v0l.13,0a.37.37,0,0,0,.37-.37v0a.28.28,0,0,0,.13,0,.38.38,0,0,0,.13-.73Zm5.33,0a.38.38,0,0,0-.25-.65h-.06a1.4,1.4,0,0,1,.72-.64l-.08-.24a1.54,1.54,0,0,0-.58.38h0a.54.54,0,0,0-.43-.55l-.14-.06L12.42,33v.2a.58.58,0,0,0,.62.63h0a1.43,1.43,0,0,0-.2.3.38.38,0,0,0-.32-.18.37.37,0,0,0-.37.38v0l-.13,0a.37.37,0,0,0-.13.72.4.4,0,0,0-.12.28.37.37,0,0,0,.25.35.34.34,0,0,0-.12.27.37.37,0,0,0,.37.38.38.38,0,0,0,.38-.38v0l.13,0a.38.38,0,0,0,.38-.37v0a.31.31,0,0,0,.13,0,.38.38,0,0,0,.13-.73Zm-10.67,8a.35.35,0,0,0,.13-.27.38.38,0,0,0-.38-.38H2.44a1.44,1.44,0,0,1,.72-.64l-.07-.24a1.57,1.57,0,0,0-.59.38h0a.54.54,0,0,0-.42-.55l-.15-.06L1.75,41v.2a.58.58,0,0,0,.63.63h0a2,2,0,0,0-.21.3A.37.37,0,0,0,1.88,42a.38.38,0,0,0-.38.38v0l-.12,0A.38.38,0,0,0,1,42.7a.37.37,0,0,0,.25.35.37.37,0,0,0-.13.28.38.38,0,0,0,.25.35A.38.38,0,1,0,2,44v0l.12,0a.38.38,0,0,0,.38-.37v0a.27.27,0,0,0,.12,0A.38.38,0,0,0,3,43.2.37.37,0,0,0,2.75,42.85Zm5.34,0a.38.38,0,0,0-.26-.65H7.77a1.42,1.42,0,0,1,.73-.64l-.08-.24a1.57,1.57,0,0,0-.59.38h0a.54.54,0,0,0-.42-.55l-.15-.06L7.08,41v.2a.59.59,0,0,0,.63.63h0a1.43,1.43,0,0,0-.2.3A.41.41,0,0,0,7.21,42a.38.38,0,0,0-.38.38v0l-.13,0a.37.37,0,0,0-.13.72.4.4,0,0,0-.12.28.37.37,0,0,0,.24.35.38.38,0,0,0,.26.65A.37.37,0,0,0,7.33,44v0l.13,0a.37.37,0,0,0,.37-.37v0a.28.28,0,0,0,.13,0,.38.38,0,0,0,.13-.73Zm5.33,0a.38.38,0,0,0-.25-.65h-.06a1.4,1.4,0,0,1,.72-.64l-.08-.24a1.54,1.54,0,0,0-.58.38h0a.54.54,0,0,0-.43-.55l-.14-.06L12.42,41v.2a.58.58,0,0,0,.62.63h0a1.43,1.43,0,0,0-.2.3.38.38,0,0,0-.32-.18.37.37,0,0,0-.37.38v0l-.13,0a.37.37,0,0,0-.13.72.4.4,0,0,0-.12.28.37.37,0,0,0,.25.35.34.34,0,0,0-.12.27.37.37,0,0,0,.37.38.38.38,0,0,0,.38-.38v0l.13,0a.38.38,0,0,0,.38-.37v0a.31.31,0,0,0,.13,0,.38.38,0,0,0,.13-.73Z"/><path id="vineyard_grid_sparse-10" data-name="vineyard_grid_sparse" class="cls-2" d="M2.75,50.85a.35.35,0,0,0,.13-.27.38.38,0,0,0-.38-.38H2.44a1.44,1.44,0,0,1,.72-.64l-.07-.24a1.57,1.57,0,0,0-.59.38h0a.54.54,0,0,0-.42-.55l-.15-.06L1.75,49v.2a.58.58,0,0,0,.63.63h0a2,2,0,0,0-.21.3A.37.37,0,0,0,1.88,50a.38.38,0,0,0-.38.38v0l-.12,0A.38.38,0,0,0,1,50.7a.37.37,0,0,0,.25.35.37.37,0,0,0-.13.28.38.38,0,0,0,.25.35A.38.38,0,1,0,2,52v0l.12,0a.38.38,0,0,0,.38-.37v0a.27.27,0,0,0,.12,0A.38.38,0,0,0,3,51.2.37.37,0,0,0,2.75,50.85Zm5.34,0a.38.38,0,0,0-.26-.65H7.77a1.42,1.42,0,0,1,.73-.64l-.08-.24a1.57,1.57,0,0,0-.59.38h0a.54.54,0,0,0-.42-.55l-.15-.06L7.08,49v.2a.59.59,0,0,0,.63.63h0a1.43,1.43,0,0,0-.2.3A.41.41,0,0,0,7.21,50a.38.38,0,0,0-.38.38v0l-.13,0a.37.37,0,0,0-.13.72.4.4,0,0,0-.12.28.37.37,0,0,0,.24.35.38.38,0,0,0,.26.65A.37.37,0,0,0,7.33,52v0l.13,0a.37.37,0,0,0,.37-.37v0a.28.28,0,0,0,.13,0,.38.38,0,0,0,.13-.73Zm5.33,0a.38.38,0,0,0-.25-.65h-.06a1.4,1.4,0,0,1,.72-.64l-.08-.24a1.54,1.54,0,0,0-.58.38h0a.54.54,0,0,0-.43-.55l-.14-.06L12.42,49v.2a.58.58,0,0,0,.62.63h0a1.43,1.43,0,0,0-.2.3.38.38,0,0,0-.32-.18.37.37,0,0,0-.37.38v0l-.13,0a.37.37,0,0,0-.13.72.4.4,0,0,0-.12.28.37.37,0,0,0,.25.35.34.34,0,0,0-.12.27.37.37,0,0,0,.37.38.38.38,0,0,0,.38-.38v0l.13,0a.38.38,0,0,0,.38-.37v0a.31.31,0,0,0,.13,0,.38.38,0,0,0,.13-.73Zm-10.67,8a.35.35,0,0,0,.13-.27.38.38,0,0,0-.38-.38H2.44a1.44,1.44,0,0,1,.72-.64l-.07-.24a1.57,1.57,0,0,0-.59.38h0a.54.54,0,0,0-.42-.55l-.15-.06L1.75,57v.2a.58.58,0,0,0,.63.63h0a2,2,0,0,0-.21.3A.37.37,0,0,0,1.88,58a.38.38,0,0,0-.38.38v0l-.12,0A.38.38,0,0,0,1,58.7a.37.37,0,0,0,.25.35.37.37,0,0,0-.13.28.38.38,0,0,0,.25.35A.38.38,0,1,0,2,60v0l.12,0a.38.38,0,0,0,.38-.37v0a.27.27,0,0,0,.12,0A.38.38,0,0,0,3,59.2.37.37,0,0,0,2.75,58.85Zm5.34,0a.38.38,0,0,0-.26-.65H7.77a1.42,1.42,0,0,1,.73-.64l-.08-.24a1.57,1.57,0,0,0-.59.38h0a.54.54,0,0,0-.42-.55l-.15-.06L7.08,57v.2a.59.59,0,0,0,.63.63h0a1.43,1.43,0,0,0-.2.3A.41.41,0,0,0,7.21,58a.38.38,0,0,0-.38.38v0l-.13,0a.37.37,0,0,0-.13.72.4.4,0,0,0-.12.28.37.37,0,0,0,.24.35.38.38,0,0,0,.26.65A.37.37,0,0,0,7.33,60v0l.13,0a.37.37,0,0,0,.37-.37v0a.28.28,0,0,0,.13,0,.38.38,0,0,0,.13-.73Zm5.33,0a.38.38,0,0,0-.25-.65h-.06a1.4,1.4,0,0,1,.72-.64l-.08-.24a1.54,1.54,0,0,0-.58.38h0a.54.54,0,0,0-.43-.55l-.14-.06L12.42,57v.2a.58.58,0,0,0,.62.63h0a1.43,1.43,0,0,0-.2.3.38.38,0,0,0-.32-.18.37.37,0,0,0-.37.38v0l-.13,0a.37.37,0,0,0-.13.72.4.4,0,0,0-.12.28.37.37,0,0,0,.25.35.34.34,0,0,0-.12.27.37.37,0,0,0,.37.38.38.38,0,0,0,.38-.38v0l.13,0a.38.38,0,0,0,.38-.37v0a.31.31,0,0,0,.13,0,.38.38,0,0,0,.13-.73Z"/><path id="vineyard_grid_sparse-11" data-name="vineyard_grid_sparse" class="cls-2" d="M18.75,34.85a.35.35,0,0,0,.13-.27.38.38,0,0,0-.38-.38h-.06a1.44,1.44,0,0,1,.72-.64l-.07-.24a1.57,1.57,0,0,0-.59.38h0a.54.54,0,0,0-.42-.55l-.15-.06L17.75,33v.2a.58.58,0,0,0,.63.63h0a2,2,0,0,0-.21.3.37.37,0,0,0-.31-.18.38.38,0,0,0-.38.38v0l-.12,0a.38.38,0,0,0-.38.37.37.37,0,0,0,.25.35.37.37,0,0,0-.13.28.38.38,0,0,0,.25.35A.38.38,0,1,0,18,36v0l.12,0a.38.38,0,0,0,.38-.37v0a.27.27,0,0,0,.12,0A.38.38,0,0,0,19,35.2.37.37,0,0,0,18.75,34.85Zm5.34,0a.38.38,0,0,0-.26-.65h-.06a1.42,1.42,0,0,1,.73-.64l-.08-.24a1.57,1.57,0,0,0-.59.38h0a.54.54,0,0,0-.42-.55l-.15-.06L23.08,33v.2a.59.59,0,0,0,.63.63h0a1.43,1.43,0,0,0-.2.3.41.41,0,0,0-.32-.18.38.38,0,0,0-.38.38v0l-.13,0a.37.37,0,0,0-.13.72.4.4,0,0,0-.12.28.37.37,0,0,0,.24.35.38.38,0,0,0,.26.65.37.37,0,0,0,.37-.38v0l.13,0a.37.37,0,0,0,.37-.37v0a.28.28,0,0,0,.13,0,.38.38,0,0,0,.13-.73Zm5.33,0a.38.38,0,0,0-.25-.65h-.06a1.4,1.4,0,0,1,.72-.64l-.08-.24a1.54,1.54,0,0,0-.58.38h0a.54.54,0,0,0-.43-.55l-.14-.06L28.42,33v.2a.58.58,0,0,0,.62.63h0a1.43,1.43,0,0,0-.2.3.38.38,0,0,0-.32-.18.37.37,0,0,0-.37.38v0l-.13,0a.37.37,0,0,0-.13.72.4.4,0,0,0-.12.28.37.37,0,0,0,.25.35.34.34,0,0,0-.12.27.37.37,0,0,0,.37.38.38.38,0,0,0,.38-.38v0l.13,0a.38.38,0,0,0,.38-.37v0a.31.31,0,0,0,.13,0,.38.38,0,0,0,.13-.73Zm-10.67,8a.35.35,0,0,0,.13-.27.38.38,0,0,0-.38-.38h-.06a1.44,1.44,0,0,1,.72-.64l-.07-.24a1.57,1.57,0,0,0-.59.38h0a.54.54,0,0,0-.42-.55l-.15-.06L17.75,41v.2a.58.58,0,0,0,.63.63h0a2,2,0,0,0-.21.3.37.37,0,0,0-.31-.18.38.38,0,0,0-.38.38v0l-.12,0a.38.38,0,0,0-.38.37.37.37,0,0,0,.25.35.37.37,0,0,0-.13.28.38.38,0,0,0,.25.35A.38.38,0,1,0,18,44v0l.12,0a.38.38,0,0,0,.38-.37v0a.27.27,0,0,0,.12,0A.38.38,0,0,0,19,43.2.37.37,0,0,0,18.75,42.85Zm5.34,0a.38.38,0,0,0-.26-.65h-.06a1.42,1.42,0,0,1,.73-.64l-.08-.24a1.57,1.57,0,0,0-.59.38h0a.54.54,0,0,0-.42-.55l-.15-.06L23.08,41v.2a.59.59,0,0,0,.63.63h0a1.43,1.43,0,0,0-.2.3.41.41,0,0,0-.32-.18.38.38,0,0,0-.38.38v0l-.13,0a.37.37,0,0,0-.13.72.4.4,0,0,0-.12.28.37.37,0,0,0,.24.35.38.38,0,0,0,.26.65.37.37,0,0,0,.37-.38v0l.13,0a.37.37,0,0,0,.37-.37v0a.28.28,0,0,0,.13,0,.38.38,0,0,0,.13-.73Zm5.33,0a.38.38,0,0,0-.25-.65h-.06a1.4,1.4,0,0,1,.72-.64l-.08-.24a1.54,1.54,0,0,0-.58.38h0a.54.54,0,0,0-.43-.55l-.14-.06L28.42,41v.2a.58.58,0,0,0,.62.63h0a1.43,1.43,0,0,0-.2.3.38.38,0,0,0-.32-.18.37.37,0,0,0-.37.38v0l-.13,0a.37.37,0,0,0-.13.72.4.4,0,0,0-.12.28.37.37,0,0,0,.25.35.34.34,0,0,0-.12.27.37.37,0,0,0,.37.38.38.38,0,0,0,.38-.38v0l.13,0a.38.38,0,0,0,.38-.37v0a.31.31,0,0,0,.13,0,.38.38,0,0,0,.13-.73Z"/><path id="vineyard_grid_sparse-12" data-name="vineyard_grid_sparse" class="cls-2" d="M18.75,50.85a.35.35,0,0,0,.13-.27.38.38,0,0,0-.38-.38h-.06a1.44,1.44,0,0,1,.72-.64l-.07-.24a1.57,1.57,0,0,0-.59.38h0a.54.54,0,0,0-.42-.55l-.15-.06L17.75,49v.2a.58.58,0,0,0,.63.63h0a2,2,0,0,0-.21.3.37.37,0,0,0-.31-.18.38.38,0,0,0-.38.38v0l-.12,0a.38.38,0,0,0-.38.37.37.37,0,0,0,.25.35.37.37,0,0,0-.13.28.38.38,0,0,0,.25.35A.38.38,0,1,0,18,52v0l.12,0a.38.38,0,0,0,.38-.37v0a.27.27,0,0,0,.12,0A.38.38,0,0,0,19,51.2.37.37,0,0,0,18.75,50.85Zm5.34,0a.38.38,0,0,0-.26-.65h-.06a1.42,1.42,0,0,1,.73-.64l-.08-.24a1.57,1.57,0,0,0-.59.38h0a.54.54,0,0,0-.42-.55l-.15-.06L23.08,49v.2a.59.59,0,0,0,.63.63h0a1.43,1.43,0,0,0-.2.3.41.41,0,0,0-.32-.18.38.38,0,0,0-.38.38v0l-.13,0a.37.37,0,0,0-.13.72.4.4,0,0,0-.12.28.37.37,0,0,0,.24.35.38.38,0,0,0,.26.65.37.37,0,0,0,.37-.38v0l.13,0a.37.37,0,0,0,.37-.37v0a.28.28,0,0,0,.13,0,.38.38,0,0,0,.13-.73Zm5.33,0a.38.38,0,0,0-.25-.65h-.06a1.4,1.4,0,0,1,.72-.64l-.08-.24a1.54,1.54,0,0,0-.58.38h0a.54.54,0,0,0-.43-.55l-.14-.06L28.42,49v.2a.58.58,0,0,0,.62.63h0a1.43,1.43,0,0,0-.2.3.38.38,0,0,0-.32-.18.37.37,0,0,0-.37.38v0l-.13,0a.37.37,0,0,0-.13.72.4.4,0,0,0-.12.28.37.37,0,0,0,.25.35.34.34,0,0,0-.12.27.37.37,0,0,0,.37.38.38.38,0,0,0,.38-.38v0l.13,0a.38.38,0,0,0,.38-.37v0a.31.31,0,0,0,.13,0,.38.38,0,0,0,.13-.73Zm-10.67,8a.35.35,0,0,0,.13-.27.38.38,0,0,0-.38-.38h-.06a1.44,1.44,0,0,1,.72-.64l-.07-.24a1.57,1.57,0,0,0-.59.38h0a.54.54,0,0,0-.42-.55l-.15-.06L17.75,57v.2a.58.58,0,0,0,.63.63h0a2,2,0,0,0-.21.3.37.37,0,0,0-.31-.18.38.38,0,0,0-.38.38v0l-.12,0a.38.38,0,0,0-.38.37.37.37,0,0,0,.25.35.37.37,0,0,0-.13.28.38.38,0,0,0,.25.35A.38.38,0,1,0,18,60v0l.12,0a.38.38,0,0,0,.38-.37v0a.27.27,0,0,0,.12,0A.38.38,0,0,0,19,59.2.37.37,0,0,0,18.75,58.85Zm5.34,0a.38.38,0,0,0-.26-.65h-.06a1.42,1.42,0,0,1,.73-.64l-.08-.24a1.57,1.57,0,0,0-.59.38h0a.54.54,0,0,0-.42-.55l-.15-.06L23.08,57v.2a.59.59,0,0,0,.63.63h0a1.43,1.43,0,0,0-.2.3.41.41,0,0,0-.32-.18.38.38,0,0,0-.38.38v0l-.13,0a.37.37,0,0,0-.13.72.4.4,0,0,0-.12.28.37.37,0,0,0,.24.35.38.38,0,0,0,.26.65.37.37,0,0,0,.37-.38v0l.13,0a.37.37,0,0,0,.37-.37v0a.28.28,0,0,0,.13,0,.38.38,0,0,0,.13-.73Zm5.33,0a.38.38,0,0,0-.25-.65h-.06a1.4,1.4,0,0,1,.72-.64l-.08-.24a1.54,1.54,0,0,0-.58.38h0a.54.54,0,0,0-.43-.55l-.14-.06L28.42,57v.2a.58.58,0,0,0,.62.63h0a1.43,1.43,0,0,0-.2.3.38.38,0,0,0-.32-.18.37.37,0,0,0-.37.38v0l-.13,0a.37.37,0,0,0-.13.72.4.4,0,0,0-.12.28.37.37,0,0,0,.25.35.34.34,0,0,0-.12.27.37.37,0,0,0,.37.38.38.38,0,0,0,.38-.38v0l.13,0a.38.38,0,0,0,.38-.37v0a.31.31,0,0,0,.13,0,.38.38,0,0,0,.13-.73Z"/></g><g id="vineyard_poly_grid_sparse_half-4" data-name="vineyard_poly_grid_sparse_half"><rect id="bbox_64-4" data-name="bbox_64" class="cls-1" x="32" y="32" width="32" height="32"/><path id="vineyard_grid_sparse-13" data-name="vineyard_grid_sparse" class="cls-2" d="M34.75,34.85a.35.35,0,0,0,.13-.27.38.38,0,0,0-.38-.38h-.06a1.44,1.44,0,0,1,.72-.64l-.07-.24a1.57,1.57,0,0,0-.59.38h0a.54.54,0,0,0-.42-.55l-.15-.06L33.75,33v.2a.58.58,0,0,0,.63.63h0a2,2,0,0,0-.21.3.37.37,0,0,0-.31-.18.38.38,0,0,0-.38.38v0l-.12,0a.38.38,0,0,0-.38.37.37.37,0,0,0,.25.35.37.37,0,0,0-.13.28.38.38,0,0,0,.25.35A.38.38,0,1,0,34,36v0l.12,0a.38.38,0,0,0,.38-.37v0a.27.27,0,0,0,.12,0A.38.38,0,0,0,35,35.2.37.37,0,0,0,34.75,34.85Zm5.34,0a.38.38,0,0,0-.26-.65h-.06a1.42,1.42,0,0,1,.73-.64l-.08-.24a1.57,1.57,0,0,0-.59.38h0a.54.54,0,0,0-.42-.55l-.15-.06L39.08,33v.2a.59.59,0,0,0,.63.63h0a1.43,1.43,0,0,0-.2.3.41.41,0,0,0-.32-.18.38.38,0,0,0-.38.38v0l-.13,0a.37.37,0,0,0-.13.72.4.4,0,0,0-.12.28.37.37,0,0,0,.24.35.38.38,0,0,0,.26.65.37.37,0,0,0,.37-.38v0l.13,0a.37.37,0,0,0,.37-.37v0a.28.28,0,0,0,.13,0,.38.38,0,0,0,.13-.73Zm5.33,0a.38.38,0,0,0-.25-.65h-.06a1.4,1.4,0,0,1,.72-.64l-.08-.24a1.54,1.54,0,0,0-.58.38h0a.54.54,0,0,0-.43-.55l-.14-.06L44.42,33v.2a.58.58,0,0,0,.62.63h0a1.43,1.43,0,0,0-.2.3.38.38,0,0,0-.32-.18.37.37,0,0,0-.37.38v0l-.13,0a.37.37,0,0,0-.13.72.4.4,0,0,0-.12.28.37.37,0,0,0,.25.35.34.34,0,0,0-.12.27.37.37,0,0,0,.37.38.38.38,0,0,0,.38-.38v0l.13,0a.38.38,0,0,0,.38-.37v0a.31.31,0,0,0,.13,0,.38.38,0,0,0,.13-.73Zm-10.67,8a.35.35,0,0,0,.13-.27.38.38,0,0,0-.38-.38h-.06a1.44,1.44,0,0,1,.72-.64l-.07-.24a1.57,1.57,0,0,0-.59.38h0a.54.54,0,0,0-.42-.55l-.15-.06L33.75,41v.2a.58.58,0,0,0,.63.63h0a2,2,0,0,0-.21.3.37.37,0,0,0-.31-.18.38.38,0,0,0-.38.38v0l-.12,0a.38.38,0,0,0-.38.37.37.37,0,0,0,.25.35.37.37,0,0,0-.13.28.38.38,0,0,0,.25.35A.38.38,0,1,0,34,44v0l.12,0a.38.38,0,0,0,.38-.37v0a.27.27,0,0,0,.12,0A.38.38,0,0,0,35,43.2.37.37,0,0,0,34.75,42.85Zm5.34,0a.38.38,0,0,0-.26-.65h-.06a1.42,1.42,0,0,1,.73-.64l-.08-.24a1.57,1.57,0,0,0-.59.38h0a.54.54,0,0,0-.42-.55l-.15-.06L39.08,41v.2a.59.59,0,0,0,.63.63h0a1.43,1.43,0,0,0-.2.3.41.41,0,0,0-.32-.18.38.38,0,0,0-.38.38v0l-.13,0a.37.37,0,0,0-.13.72.4.4,0,0,0-.12.28.37.37,0,0,0,.24.35.38.38,0,0,0,.26.65.37.37,0,0,0,.37-.38v0l.13,0a.37.37,0,0,0,.37-.37v0a.28.28,0,0,0,.13,0,.38.38,0,0,0,.13-.73Zm5.33,0a.38.38,0,0,0-.25-.65h-.06a1.4,1.4,0,0,1,.72-.64l-.08-.24a1.54,1.54,0,0,0-.58.38h0a.54.54,0,0,0-.43-.55l-.14-.06L44.42,41v.2a.58.58,0,0,0,.62.63h0a1.43,1.43,0,0,0-.2.3.38.38,0,0,0-.32-.18.37.37,0,0,0-.37.38v0l-.13,0a.37.37,0,0,0-.13.72.4.4,0,0,0-.12.28.37.37,0,0,0,.25.35.34.34,0,0,0-.12.27.37.37,0,0,0,.37.38.38.38,0,0,0,.38-.38v0l.13,0a.38.38,0,0,0,.38-.37v0a.31.31,0,0,0,.13,0,.38.38,0,0,0,.13-.73Z"/><path id="vineyard_grid_sparse-14" data-name="vineyard_grid_sparse" class="cls-2" d="M34.75,50.85a.35.35,0,0,0,.13-.27.38.38,0,0,0-.38-.38h-.06a1.44,1.44,0,0,1,.72-.64l-.07-.24a1.57,1.57,0,0,0-.59.38h0a.54.54,0,0,0-.42-.55l-.15-.06L33.75,49v.2a.58.58,0,0,0,.63.63h0a2,2,0,0,0-.21.3.37.37,0,0,0-.31-.18.38.38,0,0,0-.38.38v0l-.12,0a.38.38,0,0,0-.38.37.37.37,0,0,0,.25.35.37.37,0,0,0-.13.28.38.38,0,0,0,.25.35A.38.38,0,1,0,34,52v0l.12,0a.38.38,0,0,0,.38-.37v0a.27.27,0,0,0,.12,0A.38.38,0,0,0,35,51.2.37.37,0,0,0,34.75,50.85Zm5.34,0a.38.38,0,0,0-.26-.65h-.06a1.42,1.42,0,0,1,.73-.64l-.08-.24a1.57,1.57,0,0,0-.59.38h0a.54.54,0,0,0-.42-.55l-.15-.06L39.08,49v.2a.59.59,0,0,0,.63.63h0a1.43,1.43,0,0,0-.2.3.41.41,0,0,0-.32-.18.38.38,0,0,0-.38.38v0l-.13,0a.37.37,0,0,0-.13.72.4.4,0,0,0-.12.28.37.37,0,0,0,.24.35.38.38,0,0,0,.26.65.37.37,0,0,0,.37-.38v0l.13,0a.37.37,0,0,0,.37-.37v0a.28.28,0,0,0,.13,0,.38.38,0,0,0,.13-.73Zm5.33,0a.38.38,0,0,0-.25-.65h-.06a1.4,1.4,0,0,1,.72-.64l-.08-.24a1.54,1.54,0,0,0-.58.38h0a.54.54,0,0,0-.43-.55l-.14-.06L44.42,49v.2a.58.58,0,0,0,.62.63h0a1.43,1.43,0,0,0-.2.3.38.38,0,0,0-.32-.18.37.37,0,0,0-.37.38v0l-.13,0a.37.37,0,0,0-.13.72.4.4,0,0,0-.12.28.37.37,0,0,0,.25.35.34.34,0,0,0-.12.27.37.37,0,0,0,.37.38.38.38,0,0,0,.38-.38v0l.13,0a.38.38,0,0,0,.38-.37v0a.31.31,0,0,0,.13,0,.38.38,0,0,0,.13-.73Zm-10.67,8a.35.35,0,0,0,.13-.27.38.38,0,0,0-.38-.38h-.06a1.44,1.44,0,0,1,.72-.64l-.07-.24a1.57,1.57,0,0,0-.59.38h0a.54.54,0,0,0-.42-.55l-.15-.06L33.75,57v.2a.58.58,0,0,0,.63.63h0a2,2,0,0,0-.21.3.37.37,0,0,0-.31-.18.38.38,0,0,0-.38.38v0l-.12,0a.38.38,0,0,0-.38.37.37.37,0,0,0,.25.35.37.37,0,0,0-.13.28.38.38,0,0,0,.25.35A.38.38,0,1,0,34,60v0l.12,0a.38.38,0,0,0,.38-.37v0a.27.27,0,0,0,.12,0A.38.38,0,0,0,35,59.2.37.37,0,0,0,34.75,58.85Zm5.34,0a.38.38,0,0,0-.26-.65h-.06a1.42,1.42,0,0,1,.73-.64l-.08-.24a1.57,1.57,0,0,0-.59.38h0a.54.54,0,0,0-.42-.55l-.15-.06L39.08,57v.2a.59.59,0,0,0,.63.63h0a1.43,1.43,0,0,0-.2.3.41.41,0,0,0-.32-.18.38.38,0,0,0-.38.38v0l-.13,0a.37.37,0,0,0-.13.72.4.4,0,0,0-.12.28.37.37,0,0,0,.24.35.38.38,0,0,0,.26.65.37.37,0,0,0,.37-.38v0l.13,0a.37.37,0,0,0,.37-.37v0a.28.28,0,0,0,.13,0,.38.38,0,0,0,.13-.73Zm5.33,0a.38.38,0,0,0-.25-.65h-.06a1.4,1.4,0,0,1,.72-.64l-.08-.24a1.54,1.54,0,0,0-.58.38h0a.54.54,0,0,0-.43-.55l-.14-.06L44.42,57v.2a.58.58,0,0,0,.62.63h0a1.43,1.43,0,0,0-.2.3.38.38,0,0,0-.32-.18.37.37,0,0,0-.37.38v0l-.13,0a.37.37,0,0,0-.13.72.4.4,0,0,0-.12.28.37.37,0,0,0,.25.35.34.34,0,0,0-.12.27.37.37,0,0,0,.37.38.38.38,0,0,0,.38-.38v0l.13,0a.38.38,0,0,0,.38-.37v0a.31.31,0,0,0,.13,0,.38.38,0,0,0,.13-.73Z"/><path id="vineyard_grid_sparse-15" data-name="vineyard_grid_sparse" class="cls-2" d="M50.75,34.85a.35.35,0,0,0,.13-.27.38.38,0,0,0-.38-.38h-.06a1.44,1.44,0,0,1,.72-.64l-.07-.24a1.57,1.57,0,0,0-.59.38h0a.54.54,0,0,0-.42-.55l-.15-.06L49.75,33v.2a.58.58,0,0,0,.63.63h0a2,2,0,0,0-.21.3.37.37,0,0,0-.31-.18.38.38,0,0,0-.38.38v0l-.12,0a.38.38,0,0,0-.38.37.37.37,0,0,0,.25.35.37.37,0,0,0-.13.28.38.38,0,0,0,.25.35A.38.38,0,1,0,50,36v0l.12,0a.38.38,0,0,0,.38-.37v0a.27.27,0,0,0,.12,0A.38.38,0,0,0,51,35.2.37.37,0,0,0,50.75,34.85Zm5.34,0a.38.38,0,0,0-.26-.65h-.06a1.42,1.42,0,0,1,.73-.64l-.08-.24a1.57,1.57,0,0,0-.59.38h0a.54.54,0,0,0-.42-.55l-.15-.06L55.08,33v.2a.59.59,0,0,0,.63.63h0a1.43,1.43,0,0,0-.2.3.41.41,0,0,0-.32-.18.38.38,0,0,0-.38.38v0l-.13,0a.37.37,0,0,0-.13.72.4.4,0,0,0-.12.28.37.37,0,0,0,.24.35.38.38,0,0,0,.26.65.37.37,0,0,0,.37-.38v0l.13,0a.37.37,0,0,0,.37-.37v0a.28.28,0,0,0,.13,0,.38.38,0,0,0,.13-.73Zm5.33,0a.38.38,0,0,0-.25-.65h-.06a1.4,1.4,0,0,1,.72-.64l-.08-.24a1.54,1.54,0,0,0-.58.38h0a.54.54,0,0,0-.43-.55l-.14-.06L60.42,33v.2a.58.58,0,0,0,.62.63h0a1.43,1.43,0,0,0-.2.3.38.38,0,0,0-.32-.18.37.37,0,0,0-.37.38v0l-.13,0a.37.37,0,0,0-.13.72.4.4,0,0,0-.12.28.37.37,0,0,0,.25.35.34.34,0,0,0-.12.27.37.37,0,0,0,.37.38.38.38,0,0,0,.38-.38v0l.13,0a.38.38,0,0,0,.38-.37v0a.31.31,0,0,0,.13,0,.38.38,0,0,0,.13-.73Zm-10.67,8a.35.35,0,0,0,.13-.27.38.38,0,0,0-.38-.38h-.06a1.44,1.44,0,0,1,.72-.64l-.07-.24a1.57,1.57,0,0,0-.59.38h0a.54.54,0,0,0-.42-.55l-.15-.06L49.75,41v.2a.58.58,0,0,0,.63.63h0a2,2,0,0,0-.21.3.37.37,0,0,0-.31-.18.38.38,0,0,0-.38.38v0l-.12,0a.38.38,0,0,0-.38.37.37.37,0,0,0,.25.35.37.37,0,0,0-.13.28.38.38,0,0,0,.25.35A.38.38,0,1,0,50,44v0l.12,0a.38.38,0,0,0,.38-.37v0a.27.27,0,0,0,.12,0A.38.38,0,0,0,51,43.2.37.37,0,0,0,50.75,42.85Zm5.34,0a.38.38,0,0,0-.26-.65h-.06a1.42,1.42,0,0,1,.73-.64l-.08-.24a1.57,1.57,0,0,0-.59.38h0a.54.54,0,0,0-.42-.55l-.15-.06L55.08,41v.2a.59.59,0,0,0,.63.63h0a1.43,1.43,0,0,0-.2.3.41.41,0,0,0-.32-.18.38.38,0,0,0-.38.38v0l-.13,0a.37.37,0,0,0-.13.72.4.4,0,0,0-.12.28.37.37,0,0,0,.24.35.38.38,0,0,0,.26.65.37.37,0,0,0,.37-.38v0l.13,0a.37.37,0,0,0,.37-.37v0a.28.28,0,0,0,.13,0,.38.38,0,0,0,.13-.73Zm5.33,0a.38.38,0,0,0-.25-.65h-.06a1.4,1.4,0,0,1,.72-.64l-.08-.24a1.54,1.54,0,0,0-.58.38h0a.54.54,0,0,0-.43-.55l-.14-.06L60.42,41v.2a.58.58,0,0,0,.62.63h0a1.43,1.43,0,0,0-.2.3.38.38,0,0,0-.32-.18.37.37,0,0,0-.37.38v0l-.13,0a.37.37,0,0,0-.13.72.4.4,0,0,0-.12.28.37.37,0,0,0,.25.35.34.34,0,0,0-.12.27.37.37,0,0,0,.37.38.38.38,0,0,0,.38-.38v0l.13,0a.38.38,0,0,0,.38-.37v0a.31.31,0,0,0,.13,0,.38.38,0,0,0,.13-.73Z"/><path id="vineyard_grid_sparse-16" data-name="vineyard_grid_sparse" class="cls-2" d="M50.75,50.85a.35.35,0,0,0,.13-.27.38.38,0,0,0-.38-.38h-.06a1.44,1.44,0,0,1,.72-.64l-.07-.24a1.57,1.57,0,0,0-.59.38h0a.54.54,0,0,0-.42-.55l-.15-.06L49.75,49v.2a.58.58,0,0,0,.63.63h0a2,2,0,0,0-.21.3.37.37,0,0,0-.31-.18.38.38,0,0,0-.38.38v0l-.12,0a.38.38,0,0,0-.38.37.37.37,0,0,0,.25.35.37.37,0,0,0-.13.28.38.38,0,0,0,.25.35A.38.38,0,1,0,50,52v0l.12,0a.38.38,0,0,0,.38-.37v0a.27.27,0,0,0,.12,0A.38.38,0,0,0,51,51.2.37.37,0,0,0,50.75,50.85Zm5.34,0a.38.38,0,0,0-.26-.65h-.06a1.42,1.42,0,0,1,.73-.64l-.08-.24a1.57,1.57,0,0,0-.59.38h0a.54.54,0,0,0-.42-.55l-.15-.06L55.08,49v.2a.59.59,0,0,0,.63.63h0a1.43,1.43,0,0,0-.2.3.41.41,0,0,0-.32-.18.38.38,0,0,0-.38.38v0l-.13,0a.37.37,0,0,0-.13.72.4.4,0,0,0-.12.28.37.37,0,0,0,.24.35.38.38,0,0,0,.26.65.37.37,0,0,0,.37-.38v0l.13,0a.37.37,0,0,0,.37-.37v0a.28.28,0,0,0,.13,0,.38.38,0,0,0,.13-.73Zm5.33,0a.38.38,0,0,0-.25-.65h-.06a1.4,1.4,0,0,1,.72-.64l-.08-.24a1.54,1.54,0,0,0-.58.38h0a.54.54,0,0,0-.43-.55l-.14-.06L60.42,49v.2a.58.58,0,0,0,.62.63h0a1.43,1.43,0,0,0-.2.3.38.38,0,0,0-.32-.18.37.37,0,0,0-.37.38v0l-.13,0a.37.37,0,0,0-.13.72.4.4,0,0,0-.12.28.37.37,0,0,0,.25.35.34.34,0,0,0-.12.27.37.37,0,0,0,.37.38.38.38,0,0,0,.38-.38v0l.13,0a.38.38,0,0,0,.38-.37v0a.31.31,0,0,0,.13,0,.38.38,0,0,0,.13-.73Zm-10.67,8a.35.35,0,0,0,.13-.27.38.38,0,0,0-.38-.38h-.06a1.44,1.44,0,0,1,.72-.64l-.07-.24a1.57,1.57,0,0,0-.59.38h0a.54.54,0,0,0-.42-.55l-.15-.06L49.75,57v.2a.58.58,0,0,0,.63.63h0a2,2,0,0,0-.21.3.37.37,0,0,0-.31-.18.38.38,0,0,0-.38.38v0l-.12,0a.38.38,0,0,0-.38.37.37.37,0,0,0,.25.35.37.37,0,0,0-.13.28.38.38,0,0,0,.25.35A.38.38,0,1,0,50,60v0l.12,0a.38.38,0,0,0,.38-.37v0a.27.27,0,0,0,.12,0A.38.38,0,0,0,51,59.2.37.37,0,0,0,50.75,58.85Zm5.34,0a.38.38,0,0,0-.26-.65h-.06a1.42,1.42,0,0,1,.73-.64l-.08-.24a1.57,1.57,0,0,0-.59.38h0a.54.54,0,0,0-.42-.55l-.15-.06L55.08,57v.2a.59.59,0,0,0,.63.63h0a1.43,1.43,0,0,0-.2.3.41.41,0,0,0-.32-.18.38.38,0,0,0-.38.38v0l-.13,0a.37.37,0,0,0-.13.72.4.4,0,0,0-.12.28.37.37,0,0,0,.24.35.38.38,0,0,0,.26.65.37.37,0,0,0,.37-.38v0l.13,0a.37.37,0,0,0,.37-.37v0a.28.28,0,0,0,.13,0,.38.38,0,0,0,.13-.73Zm5.33,0a.38.38,0,0,0-.25-.65h-.06a1.4,1.4,0,0,1,.72-.64l-.08-.24a1.54,1.54,0,0,0-.58.38h0a.54.54,0,0,0-.43-.55l-.14-.06L60.42,57v.2a.58.58,0,0,0,.62.63h0a1.43,1.43,0,0,0-.2.3.38.38,0,0,0-.32-.18.37.37,0,0,0-.37.38v0l-.13,0a.37.37,0,0,0-.13.72.4.4,0,0,0-.12.28.37.37,0,0,0,.25.35.34.34,0,0,0-.12.27.37.37,0,0,0,.37.38.38.38,0,0,0,.38-.38v0l.13,0a.38.38,0,0,0,.38-.37v0a.31.31,0,0,0,.13,0,.38.38,0,0,0,.13-.73Z"/></g></svg>