<svg id="Sprites" xmlns="http://www.w3.org/2000/svg" viewBox="0 0 64 64"><defs><style>.cls-1{fill:none;}.cls-2{fill:#236035;}</style></defs><g id="vineyard_poly_random_dense_half"><rect id="bbox_64" class="cls-1" width="32" height="32"/><path id="vineyard_random_dense" class="cls-2" d="M2.13,15.65a.4.4,0,0,0,.12-.27A.38.38,0,0,0,1.88,15H1.82a1.31,1.31,0,0,1,.72-.63l-.08-.24a1.46,1.46,0,0,0-.58.38h0A.53.53,0,0,0,1.45,14l-.15-.06-.18-.09V14a.58.58,0,0,0,.63.62h0a1.49,1.49,0,0,0-.2.31.37.37,0,0,0-.69.19v0a.31.31,0,0,0-.13,0,.38.38,0,0,0-.13.73.4.4,0,0,0-.1.15H2.38A.38.38,0,0,0,2.13,15.65Zm5.46.23a.36.36,0,0,0-.28.12h.55A.34.34,0,0,0,7.59,15.88Zm1.2-.62a1.47,1.47,0,0,0-.58.37h0a.54.54,0,0,0-.42-.55L7.64,15l-.18-.09v.2a.58.58,0,0,0,.63.63h0a1.44,1.44,0,0,0-.18.25h.3a1.34,1.34,0,0,1,.65-.51ZM.52,0A.5.5,0,0,0,.5.12.36.36,0,0,0,.74.47.4.4,0,0,0,.62.75.37.37,0,0,0,1,1.12.37.37,0,0,0,1.38.75v0l.13,0A.38.38,0,0,0,1.88.38v0L2,.38A.38.38,0,0,0,2.38,0ZM13.17,12.69a.4.4,0,0,0,.12-.28.38.38,0,0,0-.37-.37h-.06a1.34,1.34,0,0,1,.72-.63l-.08-.24a1.54,1.54,0,0,0-.58.38h0a.53.53,0,0,0-.43-.55l-.14-.06-.18-.09V11a.57.57,0,0,0,.62.62h0a1.54,1.54,0,0,0-.21.31.36.36,0,0,0-.32-.18.38.38,0,0,0-.37.37v0a.28.28,0,0,0-.13,0,.38.38,0,0,0-.37.38.37.37,0,0,0,.24.35.37.37,0,0,0,.13.62.36.36,0,0,0-.12.28.38.38,0,0,0,.75,0v0l.13,0a.38.38,0,0,0,.38-.38v0l.13,0a.38.38,0,0,0,.38-.37A.37.37,0,0,0,13.17,12.69Zm-6.5-2.5a.4.4,0,0,0,.12-.28.38.38,0,0,0-.37-.37H6.36a1.34,1.34,0,0,1,.72-.63L7,8.67a1.54,1.54,0,0,0-.58.38h0A.53.53,0,0,0,6,8.49l-.14-.06-.18-.09v.2a.57.57,0,0,0,.62.62h0a1.54,1.54,0,0,0-.21.31.36.36,0,0,0-.32-.18.38.38,0,0,0-.37.37v0a.28.28,0,0,0-.13,0,.38.38,0,0,0-.37.38.37.37,0,0,0,.24.35.37.37,0,0,0,.13.62.36.36,0,0,0-.12.28.38.38,0,0,0,.75,0v0l.13,0a.38.38,0,0,0,.38-.38v0l.13,0a.38.38,0,0,0,.38-.37A.37.37,0,0,0,6.67,10.19Zm5.25-5A.4.4,0,0,0,12,4.91a.37.37,0,0,0-.37-.37h-.06a1.34,1.34,0,0,1,.72-.63l-.08-.24a1.54,1.54,0,0,0-.58.38h0a.53.53,0,0,0-.43-.55l-.14-.06-.18-.09v.2a.57.57,0,0,0,.62.62h0a1.54,1.54,0,0,0-.21.31A.36.36,0,0,0,11,4.29a.38.38,0,0,0-.37.37v0a.28.28,0,0,0-.13,0,.38.38,0,0,0-.37.38.37.37,0,0,0,.24.35.37.37,0,0,0,.13.62.36.36,0,0,0-.12.28.38.38,0,0,0,.75,0v0l.13,0a.38.38,0,0,0,.38-.38v0l.13,0a.38.38,0,0,0,.38-.37A.37.37,0,0,0,11.92,5.19Zm3.67,3.19a.4.4,0,0,0,.12-.28.37.37,0,0,0-.37-.37h-.07A1.37,1.37,0,0,1,16,7.1l-.08-.24a1.54,1.54,0,0,0-.58.38h0a.53.53,0,0,0-.43-.55l-.14-.06-.18-.1v.21a.57.57,0,0,0,.62.62h0a1.49,1.49,0,0,0-.2.31.37.37,0,0,0-.32-.18.36.36,0,0,0-.37.37v0a.28.28,0,0,0-.13,0,.37.37,0,0,0-.37.38.38.38,0,0,0,.24.35.38.38,0,0,0-.12.27.39.39,0,0,0,.25.36.33.33,0,0,0-.12.27.37.37,0,0,0,.37.37.38.38,0,0,0,.38-.37v0l.13,0a.38.38,0,0,0,.38-.38v0a.27.27,0,0,0,.13,0,.37.37,0,0,0,.13-.72ZM8.46.77A.34.34,0,0,0,8.59.5.38.38,0,0,0,8.21.12H8.15A.57.57,0,0,1,8.23,0h-.3s0,0,0,.06l0-.06H7.31a.37.37,0,0,0-.1.25v0l-.12,0a.38.38,0,0,0-.38.37A.36.36,0,0,0,7,1a.36.36,0,0,0-.12.28.37.37,0,0,0,.24.35A.4.4,0,0,0,7,1.88a.38.38,0,0,0,.75,0v0a.5.5,0,0,0,.13,0,.38.38,0,0,0,.37-.38v0l.13,0A.38.38,0,0,0,8.46.77Zm-4,3.17a.4.4,0,0,0,.12-.28.37.37,0,0,0-.37-.37H4.11a1.34,1.34,0,0,1,.72-.63l-.08-.24a1.54,1.54,0,0,0-.58.38h0a.53.53,0,0,0-.43-.55L3.6,2.18l-.18-.09v.2A.57.57,0,0,0,4,2.91h0a1.54,1.54,0,0,0-.21.31A.36.36,0,0,0,3.54,3a.38.38,0,0,0-.37.37v0a.28.28,0,0,0-.13,0,.38.38,0,0,0-.37.38.37.37,0,0,0,.24.35A.37.37,0,0,0,3,4.76.36.36,0,0,0,2.92,5a.38.38,0,0,0,.75,0V5l.13,0a.38.38,0,0,0,.38-.38v0l.13,0a.38.38,0,0,0,.38-.37A.37.37,0,0,0,4.42,3.94Z"/><path id="vineyard_random_dense-2" data-name="vineyard_random_dense" class="cls-2" d="M2.13,31.65a.4.4,0,0,0,.12-.27A.38.38,0,0,0,1.88,31H1.82a1.31,1.31,0,0,1,.72-.63l-.08-.24a1.46,1.46,0,0,0-.58.38h0A.53.53,0,0,0,1.45,30l-.15-.06-.18-.09V30a.58.58,0,0,0,.63.62h0a1.49,1.49,0,0,0-.2.31.37.37,0,0,0-.69.19v0a.31.31,0,0,0-.13,0,.38.38,0,0,0-.13.73.4.4,0,0,0-.1.15H2.38A.38.38,0,0,0,2.13,31.65Zm5.46.23a.36.36,0,0,0-.28.12h.55A.34.34,0,0,0,7.59,31.88Zm1.2-.62a1.47,1.47,0,0,0-.58.37h0a.54.54,0,0,0-.42-.55L7.64,31l-.18-.09v.2a.58.58,0,0,0,.63.63h0a1.44,1.44,0,0,0-.18.25h.3a1.34,1.34,0,0,1,.65-.51ZM.52,16a.5.5,0,0,0,0,.12.36.36,0,0,0,.24.35.4.4,0,0,0-.12.28.37.37,0,0,0,.38.37.37.37,0,0,0,.38-.37v0l.13,0a.38.38,0,0,0,.38-.37v0l.13,0A.38.38,0,0,0,2.38,16ZM13.17,28.69a.4.4,0,0,0,.12-.28.38.38,0,0,0-.37-.37h-.06a1.34,1.34,0,0,1,.72-.63l-.08-.24a1.54,1.54,0,0,0-.58.38h0a.53.53,0,0,0-.43-.55l-.14-.06-.18-.09V27a.57.57,0,0,0,.62.62h0a1.54,1.54,0,0,0-.21.31.36.36,0,0,0-.32-.18.38.38,0,0,0-.37.37v0a.28.28,0,0,0-.13,0,.38.38,0,0,0-.37.38.37.37,0,0,0,.24.35.37.37,0,0,0,.13.62.36.36,0,0,0-.12.28.38.38,0,0,0,.75,0v0l.13,0a.38.38,0,0,0,.38-.38v0l.13,0a.38.38,0,0,0,.38-.37A.37.37,0,0,0,13.17,28.69Zm-6.5-2.5a.4.4,0,0,0,.12-.28.38.38,0,0,0-.37-.37H6.36a1.34,1.34,0,0,1,.72-.63L7,24.67a1.54,1.54,0,0,0-.58.38h0A.53.53,0,0,0,6,24.49l-.14-.06-.18-.09v.2a.57.57,0,0,0,.62.62h0a1.54,1.54,0,0,0-.21.31.36.36,0,0,0-.32-.18.38.38,0,0,0-.37.37v0a.28.28,0,0,0-.13,0,.38.38,0,0,0-.37.38.37.37,0,0,0,.24.35.37.37,0,0,0,.13.62.36.36,0,0,0-.12.28.38.38,0,0,0,.75,0v0l.13,0a.38.38,0,0,0,.38-.38v0l.13,0a.38.38,0,0,0,.38-.37A.37.37,0,0,0,6.67,26.19Zm5.25-5a.4.4,0,0,0,.12-.28.37.37,0,0,0-.37-.37h-.06a1.34,1.34,0,0,1,.72-.63l-.08-.24a1.54,1.54,0,0,0-.58.38h0a.53.53,0,0,0-.43-.55l-.14-.06-.18-.09v.2a.57.57,0,0,0,.62.62h0a1.54,1.54,0,0,0-.21.31.36.36,0,0,0-.32-.18.38.38,0,0,0-.37.37v0a.28.28,0,0,0-.13,0,.38.38,0,0,0-.37.38.37.37,0,0,0,.24.35.37.37,0,0,0,.13.62.36.36,0,0,0-.12.28.38.38,0,0,0,.75,0v0l.13,0a.38.38,0,0,0,.38-.38v0l.13,0a.38.38,0,0,0,.38-.37A.37.37,0,0,0,11.92,21.19Zm3.67,3.19a.4.4,0,0,0,.12-.28.37.37,0,0,0-.37-.37h-.07A1.37,1.37,0,0,1,16,23.1l-.08-.24a1.54,1.54,0,0,0-.58.38h0a.53.53,0,0,0-.43-.55l-.14-.06-.18-.1v.21a.57.57,0,0,0,.62.62h0a1.49,1.49,0,0,0-.2.31.37.37,0,0,0-.32-.18.36.36,0,0,0-.37.37v0a.28.28,0,0,0-.13,0,.37.37,0,0,0-.37.38.38.38,0,0,0,.24.35.38.38,0,0,0-.12.27.39.39,0,0,0,.25.36.33.33,0,0,0-.12.27.37.37,0,0,0,.37.37.38.38,0,0,0,.38-.37v0l.13,0a.38.38,0,0,0,.38-.38v0a.27.27,0,0,0,.13,0,.37.37,0,0,0,.13-.72ZM8.46,16.77a.34.34,0,0,0,.13-.27.38.38,0,0,0-.38-.38H8.15A.57.57,0,0,1,8.23,16h-.3s0,0,0,.06l0-.06H7.31a.37.37,0,0,0-.1.25v0l-.12,0a.38.38,0,0,0-.38.37A.36.36,0,0,0,7,17a.36.36,0,0,0-.12.28.37.37,0,0,0,.24.35.4.4,0,0,0-.12.28.38.38,0,0,0,.75,0v0a.5.5,0,0,0,.13,0,.38.38,0,0,0,.37-.38v0l.13,0a.38.38,0,0,0,.12-.73Zm-4,3.17a.4.4,0,0,0,.12-.28.37.37,0,0,0-.37-.37H4.11a1.34,1.34,0,0,1,.72-.63l-.08-.24a1.54,1.54,0,0,0-.58.38h0a.53.53,0,0,0-.43-.55l-.14-.06-.18-.09v.2a.57.57,0,0,0,.62.62h0a1.54,1.54,0,0,0-.21.31A.36.36,0,0,0,3.54,19a.38.38,0,0,0-.37.37v0a.28.28,0,0,0-.13,0,.38.38,0,0,0-.37.38.37.37,0,0,0,.24.35.37.37,0,0,0,.13.62.36.36,0,0,0-.12.28.38.38,0,0,0,.75,0v0l.13,0a.38.38,0,0,0,.38-.38v0l.13,0a.38.38,0,0,0,.38-.37A.37.37,0,0,0,4.42,19.94Z"/><path id="vineyard_random_dense-3" data-name="vineyard_random_dense" class="cls-2" d="M18.13,15.65a.4.4,0,0,0,.12-.27.38.38,0,0,0-.37-.38h-.06a1.31,1.31,0,0,1,.72-.63l-.08-.24a1.46,1.46,0,0,0-.58.38h0a.53.53,0,0,0-.43-.55l-.15-.06-.18-.09V14a.58.58,0,0,0,.63.62h0a1.49,1.49,0,0,0-.2.31.37.37,0,0,0-.69.19v0a.31.31,0,0,0-.13,0,.38.38,0,0,0-.13.73.4.4,0,0,0-.1.15h1.86A.38.38,0,0,0,18.13,15.65Zm5.46.23a.36.36,0,0,0-.28.12h.55A.34.34,0,0,0,23.59,15.88Zm1.2-.62a1.47,1.47,0,0,0-.58.37h0a.54.54,0,0,0-.42-.55.47.47,0,0,1-.15-.06l-.18-.09v.2a.58.58,0,0,0,.63.63h0a1.44,1.44,0,0,0-.18.25h.3a1.34,1.34,0,0,1,.65-.51ZM16.52,0a.5.5,0,0,0,0,.12.36.36,0,0,0,.24.35.4.4,0,0,0-.12.28.38.38,0,0,0,.76,0v0l.13,0a.38.38,0,0,0,.38-.37v0l.13,0A.38.38,0,0,0,18.38,0ZM29.17,12.69a.4.4,0,0,0,.12-.28.38.38,0,0,0-.37-.37h-.06a1.34,1.34,0,0,1,.72-.63l-.08-.24a1.54,1.54,0,0,0-.58.38h0a.53.53,0,0,0-.43-.55l-.14-.06-.18-.09V11a.57.57,0,0,0,.62.62h0a1.54,1.54,0,0,0-.21.31.36.36,0,0,0-.32-.18.38.38,0,0,0-.37.37v0a.28.28,0,0,0-.13,0,.38.38,0,0,0-.37.38.37.37,0,0,0,.24.35.37.37,0,0,0,.13.62.36.36,0,0,0-.12.28.38.38,0,0,0,.75,0v0l.13,0a.38.38,0,0,0,.38-.38v0l.13,0a.38.38,0,0,0,.38-.37A.37.37,0,0,0,29.17,12.69Zm-6.5-2.5a.4.4,0,0,0,.12-.28.38.38,0,0,0-.37-.37h-.06a1.34,1.34,0,0,1,.72-.63L23,8.67a1.54,1.54,0,0,0-.58.38h0A.53.53,0,0,0,22,8.49l-.14-.06-.18-.09v.2a.57.57,0,0,0,.62.62h0a1.54,1.54,0,0,0-.21.31.36.36,0,0,0-.32-.18.38.38,0,0,0-.37.37v0a.28.28,0,0,0-.13,0,.38.38,0,0,0-.37.38.37.37,0,0,0,.24.35.37.37,0,0,0,.13.62.36.36,0,0,0-.12.28.38.38,0,0,0,.75,0v0l.13,0a.38.38,0,0,0,.38-.38v0l.13,0a.38.38,0,0,0,.38-.37A.37.37,0,0,0,22.67,10.19Zm5.25-5A.4.4,0,0,0,28,4.91a.37.37,0,0,0-.37-.37h-.06a1.34,1.34,0,0,1,.72-.63l-.08-.24a1.54,1.54,0,0,0-.58.38h0a.53.53,0,0,0-.43-.55l-.14-.06-.18-.09v.2a.57.57,0,0,0,.62.62h0a1.54,1.54,0,0,0-.21.31A.36.36,0,0,0,27,4.29a.38.38,0,0,0-.37.37v0a.28.28,0,0,0-.13,0,.38.38,0,0,0-.37.38.37.37,0,0,0,.24.35.37.37,0,0,0,.13.62.36.36,0,0,0-.12.28.38.38,0,0,0,.75,0v0l.13,0a.38.38,0,0,0,.38-.38v0l.13,0a.38.38,0,0,0,.38-.37A.37.37,0,0,0,27.92,5.19Zm3.67,3.19a.4.4,0,0,0,.12-.28.37.37,0,0,0-.37-.37h-.07A1.37,1.37,0,0,1,32,7.1l-.08-.24a1.54,1.54,0,0,0-.58.38h0a.53.53,0,0,0-.43-.55l-.14-.06-.18-.1v.21a.57.57,0,0,0,.62.62h0a1.49,1.49,0,0,0-.2.31.37.37,0,0,0-.32-.18.36.36,0,0,0-.37.37v0a.28.28,0,0,0-.13,0,.37.37,0,0,0-.37.38.38.38,0,0,0,.24.35.38.38,0,0,0-.12.27.39.39,0,0,0,.25.36.33.33,0,0,0-.12.27.37.37,0,0,0,.37.37.38.38,0,0,0,.38-.37v0l.13,0a.38.38,0,0,0,.38-.38v0a.27.27,0,0,0,.13,0,.37.37,0,0,0,.13-.72ZM24.46.77A.34.34,0,0,0,24.59.5a.38.38,0,0,0-.38-.38h-.06A.57.57,0,0,1,24.23,0h-.3s0,0,0,.06l0-.06h-.55a.37.37,0,0,0-.1.25v0l-.12,0a.38.38,0,0,0-.38.37A.36.36,0,0,0,23,1a.36.36,0,0,0-.12.28.37.37,0,0,0,.24.35.4.4,0,0,0-.12.28.38.38,0,0,0,.75,0v0a.5.5,0,0,0,.13,0,.38.38,0,0,0,.37-.38v0l.13,0a.38.38,0,0,0,.12-.73Zm-4,3.17a.4.4,0,0,0,.12-.28.37.37,0,0,0-.37-.37h-.06a1.34,1.34,0,0,1,.72-.63l-.08-.24a1.54,1.54,0,0,0-.58.38h0a.53.53,0,0,0-.43-.55l-.14-.06-.18-.09v.2a.57.57,0,0,0,.62.62h0a1.54,1.54,0,0,0-.21.31A.36.36,0,0,0,19.54,3a.38.38,0,0,0-.37.37v0a.28.28,0,0,0-.13,0,.38.38,0,0,0-.37.38.37.37,0,0,0,.24.35.37.37,0,0,0,.13.62.36.36,0,0,0-.12.28.38.38,0,0,0,.75,0V5l.13,0a.38.38,0,0,0,.38-.38v0l.13,0a.38.38,0,0,0,.38-.37A.37.37,0,0,0,20.42,3.94Z"/><path id="vineyard_random_dense-4" data-name="vineyard_random_dense" class="cls-2" d="M18.13,31.65a.4.4,0,0,0,.12-.27.38.38,0,0,0-.37-.38h-.06a1.31,1.31,0,0,1,.72-.63l-.08-.24a1.46,1.46,0,0,0-.58.38h0a.53.53,0,0,0-.43-.55l-.15-.06-.18-.09V30a.58.58,0,0,0,.63.62h0a1.49,1.49,0,0,0-.2.31.37.37,0,0,0-.69.19v0a.31.31,0,0,0-.13,0,.38.38,0,0,0-.13.73.4.4,0,0,0-.1.15h1.86A.38.38,0,0,0,18.13,31.65Zm5.46.23a.36.36,0,0,0-.28.12h.55A.34.34,0,0,0,23.59,31.88Zm1.2-.62a1.47,1.47,0,0,0-.58.37h0a.54.54,0,0,0-.42-.55L23.64,31l-.18-.09v.2a.58.58,0,0,0,.63.63h0a1.44,1.44,0,0,0-.18.25h.3a1.34,1.34,0,0,1,.65-.51ZM16.52,16a.5.5,0,0,0,0,.12.36.36,0,0,0,.24.35.4.4,0,0,0-.12.28.38.38,0,0,0,.76,0v0l.13,0a.38.38,0,0,0,.38-.37v0l.13,0a.38.38,0,0,0,.38-.38ZM29.17,28.69a.4.4,0,0,0,.12-.28.38.38,0,0,0-.37-.37h-.06a1.34,1.34,0,0,1,.72-.63l-.08-.24a1.54,1.54,0,0,0-.58.38h0a.53.53,0,0,0-.43-.55l-.14-.06-.18-.09V27a.57.57,0,0,0,.62.62h0a1.54,1.54,0,0,0-.21.31.36.36,0,0,0-.32-.18.38.38,0,0,0-.37.37v0a.28.28,0,0,0-.13,0,.38.38,0,0,0-.37.38.37.37,0,0,0,.24.35.37.37,0,0,0,.13.62.36.36,0,0,0-.12.28.38.38,0,0,0,.75,0v0l.13,0a.38.38,0,0,0,.38-.38v0l.13,0a.38.38,0,0,0,.38-.37A.37.37,0,0,0,29.17,28.69Zm-6.5-2.5a.4.4,0,0,0,.12-.28.38.38,0,0,0-.37-.37h-.06a1.34,1.34,0,0,1,.72-.63L23,24.67a1.54,1.54,0,0,0-.58.38h0a.53.53,0,0,0-.43-.55l-.14-.06-.18-.09v.2a.57.57,0,0,0,.62.62h0a1.54,1.54,0,0,0-.21.31.36.36,0,0,0-.32-.18.38.38,0,0,0-.37.37v0a.28.28,0,0,0-.13,0,.38.38,0,0,0-.37.38.37.37,0,0,0,.24.35.37.37,0,0,0,.13.62.36.36,0,0,0-.12.28.38.38,0,0,0,.75,0v0l.13,0a.38.38,0,0,0,.38-.38v0l.13,0a.38.38,0,0,0,.38-.37A.37.37,0,0,0,22.67,26.19Zm5.25-5a.4.4,0,0,0,.12-.28.37.37,0,0,0-.37-.37h-.06a1.34,1.34,0,0,1,.72-.63l-.08-.24a1.54,1.54,0,0,0-.58.38h0a.53.53,0,0,0-.43-.55l-.14-.06-.18-.09v.2a.57.57,0,0,0,.62.62h0a1.54,1.54,0,0,0-.21.31.36.36,0,0,0-.32-.18.38.38,0,0,0-.37.37v0a.28.28,0,0,0-.13,0,.38.38,0,0,0-.37.38.37.37,0,0,0,.24.35.37.37,0,0,0,.13.62.36.36,0,0,0-.12.28.38.38,0,0,0,.75,0v0l.13,0a.38.38,0,0,0,.38-.38v0l.13,0a.38.38,0,0,0,.38-.37A.37.37,0,0,0,27.92,21.19Zm3.67,3.19a.4.4,0,0,0,.12-.28.37.37,0,0,0-.37-.37h-.07A1.37,1.37,0,0,1,32,23.1l-.08-.24a1.54,1.54,0,0,0-.58.38h0a.53.53,0,0,0-.43-.55l-.14-.06-.18-.1v.21a.57.57,0,0,0,.62.62h0a1.49,1.49,0,0,0-.2.31.37.37,0,0,0-.32-.18.36.36,0,0,0-.37.37v0a.28.28,0,0,0-.13,0,.37.37,0,0,0-.37.38.38.38,0,0,0,.24.35.38.38,0,0,0-.12.27.39.39,0,0,0,.25.36.33.33,0,0,0-.12.27.37.37,0,0,0,.37.37.38.38,0,0,0,.38-.37v0l.13,0a.38.38,0,0,0,.38-.38v0a.27.27,0,0,0,.13,0,.37.37,0,0,0,.13-.72Zm-7.13-7.61a.34.34,0,0,0,.13-.27.38.38,0,0,0-.38-.38h-.06a.57.57,0,0,1,.08-.13h-.3s0,0,0,.06a.21.21,0,0,0,0-.06h-.55a.37.37,0,0,0-.1.25v0l-.12,0a.38.38,0,0,0-.38.37A.36.36,0,0,0,23,17a.36.36,0,0,0-.12.28.37.37,0,0,0,.24.35.4.4,0,0,0-.12.28.38.38,0,0,0,.75,0v0a.5.5,0,0,0,.13,0,.38.38,0,0,0,.37-.38v0l.13,0a.38.38,0,0,0,.12-.73Zm-4,3.17a.4.4,0,0,0,.12-.28.37.37,0,0,0-.37-.37h-.06a1.34,1.34,0,0,1,.72-.63l-.08-.24a1.54,1.54,0,0,0-.58.38h0a.53.53,0,0,0-.43-.55l-.14-.06-.18-.09v.2a.57.57,0,0,0,.62.62h0a1.54,1.54,0,0,0-.21.31.36.36,0,0,0-.32-.18.38.38,0,0,0-.37.37v0a.28.28,0,0,0-.13,0,.38.38,0,0,0-.37.38.37.37,0,0,0,.24.35.37.37,0,0,0,.13.62.36.36,0,0,0-.12.28.38.38,0,0,0,.75,0v0l.13,0a.38.38,0,0,0,.38-.38v0l.13,0a.38.38,0,0,0,.38-.37A.37.37,0,0,0,20.42,19.94Z"/></g><g id="vineyard_poly_random_dense_half-2" data-name="vineyard_poly_random_dense_half"><rect id="bbox_64-2" data-name="bbox_64" class="cls-1" x="32" width="32" height="32"/><path id="vineyard_random_dense-5" data-name="vineyard_random_dense" class="cls-2" d="M34.13,15.65a.4.4,0,0,0,.12-.27.38.38,0,0,0-.37-.38h-.06a1.31,1.31,0,0,1,.72-.63l-.08-.24a1.46,1.46,0,0,0-.58.38h0a.53.53,0,0,0-.43-.55l-.15-.06-.18-.09V14a.58.58,0,0,0,.63.62h0a1.49,1.49,0,0,0-.2.31.37.37,0,0,0-.69.19v0a.31.31,0,0,0-.13,0,.38.38,0,0,0-.13.73.4.4,0,0,0-.1.15h1.86A.38.38,0,0,0,34.13,15.65Zm5.46.23a.36.36,0,0,0-.28.12h.55A.34.34,0,0,0,39.59,15.88Zm1.2-.62a1.47,1.47,0,0,0-.58.37h0a.54.54,0,0,0-.42-.55L39.64,15l-.18-.09v.2a.58.58,0,0,0,.63.63h0a1.44,1.44,0,0,0-.18.25h.3a1.34,1.34,0,0,1,.65-.51ZM32.52,0a.5.5,0,0,0,0,.12.36.36,0,0,0,.24.35.4.4,0,0,0-.12.28.38.38,0,0,0,.76,0v0l.13,0a.38.38,0,0,0,.38-.37v0l.13,0A.38.38,0,0,0,34.38,0ZM45.17,12.69a.4.4,0,0,0,.12-.28.38.38,0,0,0-.37-.37h-.06a1.34,1.34,0,0,1,.72-.63l-.08-.24a1.54,1.54,0,0,0-.58.38h0a.53.53,0,0,0-.43-.55l-.14-.06-.18-.09V11a.57.57,0,0,0,.62.62h0a1.54,1.54,0,0,0-.21.31.36.36,0,0,0-.32-.18.38.38,0,0,0-.37.37v0a.28.28,0,0,0-.13,0,.38.38,0,0,0-.37.38.37.37,0,0,0,.24.35.37.37,0,0,0,.13.62.36.36,0,0,0-.12.28.38.38,0,0,0,.75,0v0l.13,0a.38.38,0,0,0,.38-.38v0l.13,0a.38.38,0,0,0,.38-.37A.37.37,0,0,0,45.17,12.69Zm-6.5-2.5a.4.4,0,0,0,.12-.28.38.38,0,0,0-.37-.37h-.06a1.34,1.34,0,0,1,.72-.63L39,8.67a1.54,1.54,0,0,0-.58.38h0A.53.53,0,0,0,38,8.49l-.14-.06-.18-.09v.2a.57.57,0,0,0,.62.62h0a1.54,1.54,0,0,0-.21.31.36.36,0,0,0-.32-.18.38.38,0,0,0-.37.37v0a.28.28,0,0,0-.13,0,.38.38,0,0,0-.37.38.37.37,0,0,0,.24.35.37.37,0,0,0,.13.62.36.36,0,0,0-.12.28.38.38,0,0,0,.75,0v0l.13,0a.38.38,0,0,0,.38-.38v0l.13,0a.38.38,0,0,0,.38-.37A.37.37,0,0,0,38.67,10.19Zm5.25-5A.4.4,0,0,0,44,4.91a.37.37,0,0,0-.37-.37h-.06a1.34,1.34,0,0,1,.72-.63l-.08-.24a1.54,1.54,0,0,0-.58.38h0a.53.53,0,0,0-.43-.55l-.14-.06-.18-.09v.2a.57.57,0,0,0,.62.62h0a1.54,1.54,0,0,0-.21.31A.36.36,0,0,0,43,4.29a.38.38,0,0,0-.37.37v0a.28.28,0,0,0-.13,0,.38.38,0,0,0-.37.38.37.37,0,0,0,.24.35.37.37,0,0,0,.13.62.36.36,0,0,0-.12.28.38.38,0,0,0,.75,0v0l.13,0a.38.38,0,0,0,.38-.38v0l.13,0a.38.38,0,0,0,.38-.37A.37.37,0,0,0,43.92,5.19Zm3.67,3.19a.4.4,0,0,0,.12-.28.37.37,0,0,0-.37-.37h-.07A1.37,1.37,0,0,1,48,7.1l-.08-.24a1.54,1.54,0,0,0-.58.38h0a.53.53,0,0,0-.43-.55l-.14-.06-.18-.1v.21a.57.57,0,0,0,.62.62h0a1.49,1.49,0,0,0-.2.31.37.37,0,0,0-.32-.18.36.36,0,0,0-.37.37v0a.28.28,0,0,0-.13,0,.37.37,0,0,0-.37.38.38.38,0,0,0,.24.35.38.38,0,0,0-.12.27.39.39,0,0,0,.25.36.33.33,0,0,0-.12.27.37.37,0,0,0,.37.37.38.38,0,0,0,.38-.37v0l.13,0a.38.38,0,0,0,.38-.38v0a.27.27,0,0,0,.13,0,.37.37,0,0,0,.13-.72ZM40.46.77A.34.34,0,0,0,40.59.5a.38.38,0,0,0-.38-.38h-.06A.57.57,0,0,1,40.23,0h-.3s0,0,0,.06a.21.21,0,0,0,0-.06h-.55a.37.37,0,0,0-.1.25v0l-.12,0a.38.38,0,0,0-.38.37A.36.36,0,0,0,39,1a.36.36,0,0,0-.12.28.37.37,0,0,0,.24.35.4.4,0,0,0-.12.28.38.38,0,0,0,.75,0v0a.5.5,0,0,0,.13,0,.38.38,0,0,0,.37-.38v0l.13,0a.38.38,0,0,0,.12-.73Zm-4,3.17a.4.4,0,0,0,.12-.28.37.37,0,0,0-.37-.37h-.06a1.34,1.34,0,0,1,.72-.63l-.08-.24a1.54,1.54,0,0,0-.58.38h0a.53.53,0,0,0-.43-.55l-.14-.06-.18-.09v.2a.57.57,0,0,0,.62.62h0a1.54,1.54,0,0,0-.21.31A.36.36,0,0,0,35.54,3a.38.38,0,0,0-.37.37v0a.28.28,0,0,0-.13,0,.38.38,0,0,0-.37.38.37.37,0,0,0,.24.35.37.37,0,0,0,.13.62.36.36,0,0,0-.12.28.38.38,0,0,0,.75,0V5l.13,0a.38.38,0,0,0,.38-.38v0l.13,0a.38.38,0,0,0,.38-.37A.37.37,0,0,0,36.42,3.94Z"/><path id="vineyard_random_dense-6" data-name="vineyard_random_dense" class="cls-2" d="M34.13,31.65a.4.4,0,0,0,.12-.27.38.38,0,0,0-.37-.38h-.06a1.31,1.31,0,0,1,.72-.63l-.08-.24a1.46,1.46,0,0,0-.58.38h0a.53.53,0,0,0-.43-.55l-.15-.06-.18-.09V30a.58.58,0,0,0,.63.62h0a1.49,1.49,0,0,0-.2.31.37.37,0,0,0-.69.19v0a.31.31,0,0,0-.13,0,.38.38,0,0,0-.13.73.4.4,0,0,0-.1.15h1.86A.38.38,0,0,0,34.13,31.65Zm5.46.23a.36.36,0,0,0-.28.12h.55A.34.34,0,0,0,39.59,31.88Zm1.2-.62a1.47,1.47,0,0,0-.58.37h0a.54.54,0,0,0-.42-.55L39.64,31l-.18-.09v.2a.58.58,0,0,0,.63.63h0a1.44,1.44,0,0,0-.18.25h.3a1.34,1.34,0,0,1,.65-.51ZM32.52,16a.5.5,0,0,0,0,.12.36.36,0,0,0,.24.35.4.4,0,0,0-.12.28.38.38,0,0,0,.76,0v0l.13,0a.38.38,0,0,0,.38-.37v0l.13,0a.38.38,0,0,0,.38-.38ZM45.17,28.69a.4.4,0,0,0,.12-.28.38.38,0,0,0-.37-.37h-.06a1.34,1.34,0,0,1,.72-.63l-.08-.24a1.54,1.54,0,0,0-.58.38h0a.53.53,0,0,0-.43-.55l-.14-.06-.18-.09V27a.57.57,0,0,0,.62.62h0a1.54,1.54,0,0,0-.21.31.36.36,0,0,0-.32-.18.38.38,0,0,0-.37.37v0a.28.28,0,0,0-.13,0,.38.38,0,0,0-.37.38.37.37,0,0,0,.24.35.37.37,0,0,0,.13.62.36.36,0,0,0-.12.28.38.38,0,0,0,.75,0v0l.13,0a.38.38,0,0,0,.38-.38v0l.13,0a.38.38,0,0,0,.38-.37A.37.37,0,0,0,45.17,28.69Zm-6.5-2.5a.4.4,0,0,0,.12-.28.38.38,0,0,0-.37-.37h-.06a1.34,1.34,0,0,1,.72-.63L39,24.67a1.54,1.54,0,0,0-.58.38h0a.53.53,0,0,0-.43-.55l-.14-.06-.18-.09v.2a.57.57,0,0,0,.62.62h0a1.54,1.54,0,0,0-.21.31.36.36,0,0,0-.32-.18.38.38,0,0,0-.37.37v0a.28.28,0,0,0-.13,0,.38.38,0,0,0-.37.38.37.37,0,0,0,.24.35.37.37,0,0,0,.13.62.36.36,0,0,0-.12.28.38.38,0,0,0,.75,0v0l.13,0a.38.38,0,0,0,.38-.38v0l.13,0a.38.38,0,0,0,.38-.37A.37.37,0,0,0,38.67,26.19Zm5.25-5a.4.4,0,0,0,.12-.28.37.37,0,0,0-.37-.37h-.06a1.34,1.34,0,0,1,.72-.63l-.08-.24a1.54,1.54,0,0,0-.58.38h0a.53.53,0,0,0-.43-.55l-.14-.06-.18-.09v.2a.57.57,0,0,0,.62.62h0a1.54,1.54,0,0,0-.21.31.36.36,0,0,0-.32-.18.38.38,0,0,0-.37.37v0a.28.28,0,0,0-.13,0,.38.38,0,0,0-.37.38.37.37,0,0,0,.24.35.37.37,0,0,0,.13.62.36.36,0,0,0-.12.28.38.38,0,0,0,.75,0v0l.13,0a.38.38,0,0,0,.38-.38v0l.13,0a.38.38,0,0,0,.38-.37A.37.37,0,0,0,43.92,21.19Zm3.67,3.19a.4.4,0,0,0,.12-.28.37.37,0,0,0-.37-.37h-.07A1.37,1.37,0,0,1,48,23.1l-.08-.24a1.54,1.54,0,0,0-.58.38h0a.53.53,0,0,0-.43-.55l-.14-.06-.18-.1v.21a.57.57,0,0,0,.62.62h0a1.49,1.49,0,0,0-.2.31.37.37,0,0,0-.32-.18.36.36,0,0,0-.37.37v0a.28.28,0,0,0-.13,0,.37.37,0,0,0-.37.38.38.38,0,0,0,.24.35.38.38,0,0,0-.12.27.39.39,0,0,0,.25.36.33.33,0,0,0-.12.27.37.37,0,0,0,.37.37.38.38,0,0,0,.38-.37v0l.13,0a.38.38,0,0,0,.38-.38v0a.27.27,0,0,0,.13,0,.37.37,0,0,0,.13-.72Zm-7.13-7.61a.34.34,0,0,0,.13-.27.38.38,0,0,0-.38-.38h-.06a.57.57,0,0,1,.08-.13h-.3s0,0,0,.06a.21.21,0,0,0,0-.06h-.55a.37.37,0,0,0-.1.25v0l-.12,0a.38.38,0,0,0-.38.37A.36.36,0,0,0,39,17a.36.36,0,0,0-.12.28.37.37,0,0,0,.24.35.4.4,0,0,0-.12.28.38.38,0,0,0,.75,0v0a.5.5,0,0,0,.13,0,.38.38,0,0,0,.37-.38v0l.13,0a.38.38,0,0,0,.12-.73Zm-4,3.17a.4.4,0,0,0,.12-.28.37.37,0,0,0-.37-.37h-.06a1.34,1.34,0,0,1,.72-.63l-.08-.24a1.54,1.54,0,0,0-.58.38h0a.53.53,0,0,0-.43-.55l-.14-.06-.18-.09v.2a.57.57,0,0,0,.62.62h0a1.54,1.54,0,0,0-.21.31.36.36,0,0,0-.32-.18.38.38,0,0,0-.37.37v0a.28.28,0,0,0-.13,0,.38.38,0,0,0-.37.38.37.37,0,0,0,.24.35.37.37,0,0,0,.13.62.36.36,0,0,0-.12.28.38.38,0,0,0,.75,0v0l.13,0a.38.38,0,0,0,.38-.38v0l.13,0a.38.38,0,0,0,.38-.37A.37.37,0,0,0,36.42,19.94Z"/><path id="vineyard_random_dense-7" data-name="vineyard_random_dense" class="cls-2" d="M50.13,15.65a.4.4,0,0,0,.12-.27.38.38,0,0,0-.37-.38h-.06a1.31,1.31,0,0,1,.72-.63l-.08-.24a1.46,1.46,0,0,0-.58.38h0a.53.53,0,0,0-.43-.55l-.15-.06-.18-.09V14a.58.58,0,0,0,.63.62h0a1.49,1.49,0,0,0-.2.31.37.37,0,0,0-.69.19v0a.31.31,0,0,0-.13,0,.38.38,0,0,0-.13.73.4.4,0,0,0-.1.15h1.86A.38.38,0,0,0,50.13,15.65Zm5.46.23a.36.36,0,0,0-.28.12h.55A.34.34,0,0,0,55.59,15.88Zm1.2-.62a1.47,1.47,0,0,0-.58.37h0a.54.54,0,0,0-.42-.55L55.64,15l-.18-.09v.2a.58.58,0,0,0,.63.63h0a1.44,1.44,0,0,0-.18.25h.3a1.34,1.34,0,0,1,.65-.51ZM48.52,0a.5.5,0,0,0,0,.12.36.36,0,0,0,.24.35.4.4,0,0,0-.12.28.38.38,0,0,0,.76,0v0l.13,0a.38.38,0,0,0,.38-.37v0l.13,0A.38.38,0,0,0,50.38,0ZM61.17,12.69a.4.4,0,0,0,.12-.28.38.38,0,0,0-.37-.37h-.06a1.34,1.34,0,0,1,.72-.63l-.08-.24a1.54,1.54,0,0,0-.58.38h0a.53.53,0,0,0-.43-.55l-.14-.06-.18-.09V11a.57.57,0,0,0,.62.62h0a1.54,1.54,0,0,0-.21.31.36.36,0,0,0-.32-.18.38.38,0,0,0-.37.37v0a.28.28,0,0,0-.13,0,.38.38,0,0,0-.37.38.37.37,0,0,0,.24.35.37.37,0,0,0,.13.62.36.36,0,0,0-.12.28.38.38,0,0,0,.75,0v0l.13,0a.38.38,0,0,0,.38-.38v0l.13,0a.38.38,0,0,0,.38-.37A.37.37,0,0,0,61.17,12.69Zm-6.5-2.5a.4.4,0,0,0,.12-.28.38.38,0,0,0-.37-.37h-.06a1.34,1.34,0,0,1,.72-.63L55,8.67a1.54,1.54,0,0,0-.58.38h0A.53.53,0,0,0,54,8.49l-.14-.06-.18-.09v.2a.57.57,0,0,0,.62.62h0a1.54,1.54,0,0,0-.21.31.36.36,0,0,0-.32-.18.38.38,0,0,0-.37.37v0a.28.28,0,0,0-.13,0,.38.38,0,0,0-.37.38.37.37,0,0,0,.24.35.37.37,0,0,0,.13.62.36.36,0,0,0-.12.28.38.38,0,0,0,.75,0v0l.13,0a.38.38,0,0,0,.38-.38v0l.13,0a.38.38,0,0,0,.38-.37A.37.37,0,0,0,54.67,10.19Zm5.25-5A.4.4,0,0,0,60,4.91a.37.37,0,0,0-.37-.37h-.06a1.34,1.34,0,0,1,.72-.63l-.08-.24a1.54,1.54,0,0,0-.58.38h0a.53.53,0,0,0-.43-.55l-.14-.06-.18-.09v.2a.57.57,0,0,0,.62.62h0a1.54,1.54,0,0,0-.21.31A.36.36,0,0,0,59,4.29a.38.38,0,0,0-.37.37v0a.28.28,0,0,0-.13,0,.38.38,0,0,0-.37.38.37.37,0,0,0,.24.35.37.37,0,0,0,.13.62.36.36,0,0,0-.12.28.38.38,0,0,0,.75,0v0l.13,0a.38.38,0,0,0,.38-.38v0l.13,0a.38.38,0,0,0,.38-.37A.37.37,0,0,0,59.92,5.19Zm3.67,3.19a.4.4,0,0,0,.12-.28.37.37,0,0,0-.37-.37h-.07A1.37,1.37,0,0,1,64,7.1l-.08-.24a1.54,1.54,0,0,0-.58.38h0a.53.53,0,0,0-.43-.55l-.14-.06-.18-.1v.21a.57.57,0,0,0,.62.62h0a1.49,1.49,0,0,0-.2.31.37.37,0,0,0-.32-.18.36.36,0,0,0-.37.37v0a.28.28,0,0,0-.13,0,.37.37,0,0,0-.37.38.38.38,0,0,0,.24.35.38.38,0,0,0-.12.27.39.39,0,0,0,.25.36.33.33,0,0,0-.12.27.37.37,0,0,0,.37.37.38.38,0,0,0,.38-.37v0l.13,0a.38.38,0,0,0,.38-.38v0a.27.27,0,0,0,.13,0,.37.37,0,0,0,.13-.72ZM56.46.77A.34.34,0,0,0,56.59.5a.38.38,0,0,0-.38-.38h-.06A.57.57,0,0,1,56.23,0h-.3s0,0,0,.06a.21.21,0,0,0,0-.06h-.55a.37.37,0,0,0-.1.25v0l-.12,0a.38.38,0,0,0-.38.37A.36.36,0,0,0,55,1a.36.36,0,0,0-.12.28.37.37,0,0,0,.24.35.4.4,0,0,0-.12.28.38.38,0,0,0,.75,0v0a.5.5,0,0,0,.13,0,.38.38,0,0,0,.37-.38v0l.13,0a.38.38,0,0,0,.12-.73Zm-4,3.17a.4.4,0,0,0,.12-.28.37.37,0,0,0-.37-.37h-.06a1.34,1.34,0,0,1,.72-.63l-.08-.24a1.54,1.54,0,0,0-.58.38h0a.53.53,0,0,0-.43-.55l-.14-.06-.18-.09v.2a.57.57,0,0,0,.62.62h0a1.54,1.54,0,0,0-.21.31A.36.36,0,0,0,51.54,3a.38.38,0,0,0-.37.37v0a.28.28,0,0,0-.13,0,.38.38,0,0,0-.37.38.37.37,0,0,0,.24.35.37.37,0,0,0,.13.62.36.36,0,0,0-.12.28.38.38,0,0,0,.75,0V5l.13,0a.38.38,0,0,0,.38-.38v0l.13,0a.38.38,0,0,0,.38-.37A.37.37,0,0,0,52.42,3.94Z"/><path id="vineyard_random_dense-8" data-name="vineyard_random_dense" class="cls-2" d="M50.13,31.65a.4.4,0,0,0,.12-.27.38.38,0,0,0-.37-.38h-.06a1.31,1.31,0,0,1,.72-.63l-.08-.24a1.46,1.46,0,0,0-.58.38h0a.53.53,0,0,0-.43-.55l-.15-.06-.18-.09V30a.58.58,0,0,0,.63.62h0a1.49,1.49,0,0,0-.2.31.37.37,0,0,0-.69.19v0a.31.31,0,0,0-.13,0,.38.38,0,0,0-.13.73.4.4,0,0,0-.1.15h1.86A.38.38,0,0,0,50.13,31.65Zm5.46.23a.36.36,0,0,0-.28.12h.55A.34.34,0,0,0,55.59,31.88Zm1.2-.62a1.47,1.47,0,0,0-.58.37h0a.54.54,0,0,0-.42-.55L55.64,31l-.18-.09v.2a.58.58,0,0,0,.63.63h0a1.44,1.44,0,0,0-.18.25h.3a1.34,1.34,0,0,1,.65-.51ZM48.52,16a.5.5,0,0,0,0,.12.36.36,0,0,0,.24.35.4.4,0,0,0-.12.28.38.38,0,0,0,.76,0v0l.13,0a.38.38,0,0,0,.38-.37v0l.13,0a.38.38,0,0,0,.38-.38ZM61.17,28.69a.4.4,0,0,0,.12-.28.38.38,0,0,0-.37-.37h-.06a1.34,1.34,0,0,1,.72-.63l-.08-.24a1.54,1.54,0,0,0-.58.38h0a.53.53,0,0,0-.43-.55l-.14-.06-.18-.09V27a.57.57,0,0,0,.62.62h0a1.54,1.54,0,0,0-.21.31.36.36,0,0,0-.32-.18.38.38,0,0,0-.37.37v0a.28.28,0,0,0-.13,0,.38.38,0,0,0-.37.38.37.37,0,0,0,.24.35.37.37,0,0,0,.13.62.36.36,0,0,0-.12.28.38.38,0,0,0,.75,0v0l.13,0a.38.38,0,0,0,.38-.38v0l.13,0a.38.38,0,0,0,.38-.37A.37.37,0,0,0,61.17,28.69Zm-6.5-2.5a.4.4,0,0,0,.12-.28.38.38,0,0,0-.37-.37h-.06a1.34,1.34,0,0,1,.72-.63L55,24.67a1.54,1.54,0,0,0-.58.38h0a.53.53,0,0,0-.43-.55l-.14-.06-.18-.09v.2a.57.57,0,0,0,.62.62h0a1.54,1.54,0,0,0-.21.31.36.36,0,0,0-.32-.18.38.38,0,0,0-.37.37v0a.28.28,0,0,0-.13,0,.38.38,0,0,0-.37.38.37.37,0,0,0,.24.35.37.37,0,0,0,.13.62.36.36,0,0,0-.12.28.38.38,0,0,0,.75,0v0l.13,0a.38.38,0,0,0,.38-.38v0l.13,0a.38.38,0,0,0,.38-.37A.37.37,0,0,0,54.67,26.19Zm5.25-5a.4.4,0,0,0,.12-.28.37.37,0,0,0-.37-.37h-.06a1.34,1.34,0,0,1,.72-.63l-.08-.24a1.54,1.54,0,0,0-.58.38h0a.53.53,0,0,0-.43-.55l-.14-.06-.18-.09v.2a.57.57,0,0,0,.62.62h0a1.54,1.54,0,0,0-.21.31.36.36,0,0,0-.32-.18.38.38,0,0,0-.37.37v0a.28.28,0,0,0-.13,0,.38.38,0,0,0-.37.38.37.37,0,0,0,.24.35.37.37,0,0,0,.13.62.36.36,0,0,0-.12.28.38.38,0,0,0,.75,0v0l.13,0a.38.38,0,0,0,.38-.38v0l.13,0a.38.38,0,0,0,.38-.37A.37.37,0,0,0,59.92,21.19Zm3.67,3.19a.4.4,0,0,0,.12-.28.37.37,0,0,0-.37-.37h-.07A1.37,1.37,0,0,1,64,23.1l-.08-.24a1.54,1.54,0,0,0-.58.38h0a.53.53,0,0,0-.43-.55l-.14-.06-.18-.1v.21a.57.57,0,0,0,.62.62h0a1.49,1.49,0,0,0-.2.31.37.37,0,0,0-.32-.18.36.36,0,0,0-.37.37v0a.28.28,0,0,0-.13,0,.37.37,0,0,0-.37.38.38.38,0,0,0,.24.35.38.38,0,0,0-.12.27.39.39,0,0,0,.25.36.33.33,0,0,0-.12.27.37.37,0,0,0,.37.37.38.38,0,0,0,.38-.37v0l.13,0a.38.38,0,0,0,.38-.38v0a.27.27,0,0,0,.13,0,.37.37,0,0,0,.13-.72Zm-7.13-7.61a.34.34,0,0,0,.13-.27.38.38,0,0,0-.38-.38h-.06a.57.57,0,0,1,.08-.13h-.3s0,0,0,.06a.21.21,0,0,0,0-.06h-.55a.37.37,0,0,0-.1.25v0l-.12,0a.38.38,0,0,0-.38.37A.36.36,0,0,0,55,17a.36.36,0,0,0-.12.28.37.37,0,0,0,.24.35.4.4,0,0,0-.12.28.38.38,0,0,0,.75,0v0a.5.5,0,0,0,.13,0,.38.38,0,0,0,.37-.38v0l.13,0a.38.38,0,0,0,.12-.73Zm-4,3.17a.4.4,0,0,0,.12-.28.37.37,0,0,0-.37-.37h-.06a1.34,1.34,0,0,1,.72-.63l-.08-.24a1.54,1.54,0,0,0-.58.38h0a.53.53,0,0,0-.43-.55l-.14-.06-.18-.09v.2a.57.57,0,0,0,.62.62h0a1.54,1.54,0,0,0-.21.31.36.36,0,0,0-.32-.18.38.38,0,0,0-.37.37v0a.28.28,0,0,0-.13,0,.38.38,0,0,0-.37.38.37.37,0,0,0,.24.35.37.37,0,0,0,.13.62.36.36,0,0,0-.12.28.38.38,0,0,0,.75,0v0l.13,0a.38.38,0,0,0,.38-.38v0l.13,0a.38.38,0,0,0,.38-.37A.37.37,0,0,0,52.42,19.94Z"/></g><g id="vineyard_poly_random_dense_half-3" data-name="vineyard_poly_random_dense_half"><rect id="bbox_64-3" data-name="bbox_64" class="cls-1" y="32" width="32" height="32"/><path id="vineyard_random_dense-9" data-name="vineyard_random_dense" class="cls-2" d="M2.13,47.65a.4.4,0,0,0,.12-.27A.38.38,0,0,0,1.88,47H1.82a1.31,1.31,0,0,1,.72-.63l-.08-.24a1.46,1.46,0,0,0-.58.38h0A.53.53,0,0,0,1.45,46l-.15-.06-.18-.09V46a.58.58,0,0,0,.63.62h0a1.49,1.49,0,0,0-.2.31.37.37,0,0,0-.69.19v0a.31.31,0,0,0-.13,0,.38.38,0,0,0-.13.73.4.4,0,0,0-.1.15H2.38A.38.38,0,0,0,2.13,47.65Zm5.46.23a.36.36,0,0,0-.28.12h.55A.34.34,0,0,0,7.59,47.88Zm1.2-.62a1.47,1.47,0,0,0-.58.37h0a.54.54,0,0,0-.42-.55A.47.47,0,0,1,7.64,47l-.18-.09v.2a.58.58,0,0,0,.63.63h0a1.44,1.44,0,0,0-.18.25h.3a1.34,1.34,0,0,1,.65-.51ZM.52,32a.5.5,0,0,0,0,.12.36.36,0,0,0,.24.35.4.4,0,0,0-.12.28.37.37,0,0,0,.38.37.37.37,0,0,0,.38-.37v0l.13,0a.38.38,0,0,0,.38-.37v0l.13,0A.38.38,0,0,0,2.38,32ZM13.17,44.69a.4.4,0,0,0,.12-.28.38.38,0,0,0-.37-.37h-.06a1.34,1.34,0,0,1,.72-.63l-.08-.24a1.54,1.54,0,0,0-.58.38h0a.53.53,0,0,0-.43-.55l-.14-.06-.18-.09V43a.57.57,0,0,0,.62.62h0a1.54,1.54,0,0,0-.21.31.36.36,0,0,0-.32-.18.38.38,0,0,0-.37.37v0a.28.28,0,0,0-.13,0,.38.38,0,0,0-.37.38.37.37,0,0,0,.24.35.37.37,0,0,0,.13.62.36.36,0,0,0-.12.28.38.38,0,0,0,.75,0v0l.13,0a.38.38,0,0,0,.38-.38v0l.13,0a.38.38,0,0,0,.38-.37A.37.37,0,0,0,13.17,44.69Zm-6.5-2.5a.4.4,0,0,0,.12-.28.38.38,0,0,0-.37-.37H6.36a1.34,1.34,0,0,1,.72-.63L7,40.67a1.54,1.54,0,0,0-.58.38h0A.53.53,0,0,0,6,40.49l-.14-.06-.18-.09v.2a.57.57,0,0,0,.62.62h0a1.54,1.54,0,0,0-.21.31.36.36,0,0,0-.32-.18.38.38,0,0,0-.37.37v0a.28.28,0,0,0-.13,0,.38.38,0,0,0-.37.38.37.37,0,0,0,.24.35.37.37,0,0,0,.13.62.36.36,0,0,0-.12.28.38.38,0,0,0,.75,0v0l.13,0a.38.38,0,0,0,.38-.38v0l.13,0a.38.38,0,0,0,.38-.37A.37.37,0,0,0,6.67,42.19Zm5.25-5a.4.4,0,0,0,.12-.28.37.37,0,0,0-.37-.37h-.06a1.34,1.34,0,0,1,.72-.63l-.08-.24a1.54,1.54,0,0,0-.58.38h0a.53.53,0,0,0-.43-.55l-.14-.06-.18-.09v.2a.57.57,0,0,0,.62.62h0a1.54,1.54,0,0,0-.21.31.36.36,0,0,0-.32-.18.38.38,0,0,0-.37.37v0a.28.28,0,0,0-.13,0,.38.38,0,0,0-.37.38.37.37,0,0,0,.24.35.37.37,0,0,0,.13.62.36.36,0,0,0-.12.28.38.38,0,0,0,.75,0v0l.13,0a.38.38,0,0,0,.38-.38v0l.13,0a.38.38,0,0,0,.38-.37A.37.37,0,0,0,11.92,37.19Zm3.67,3.19a.4.4,0,0,0,.12-.28.37.37,0,0,0-.37-.37h-.07A1.37,1.37,0,0,1,16,39.1l-.08-.24a1.54,1.54,0,0,0-.58.38h0a.53.53,0,0,0-.43-.55l-.14-.06-.18-.1v.21a.57.57,0,0,0,.62.62h0a1.49,1.49,0,0,0-.2.31.37.37,0,0,0-.32-.18.36.36,0,0,0-.37.37v0a.28.28,0,0,0-.13,0,.37.37,0,0,0-.37.38.38.38,0,0,0,.24.35.38.38,0,0,0-.12.27.39.39,0,0,0,.25.36.33.33,0,0,0-.12.27.37.37,0,0,0,.37.37.38.38,0,0,0,.38-.37v0l.13,0a.38.38,0,0,0,.38-.38v0a.27.27,0,0,0,.13,0,.37.37,0,0,0,.13-.72ZM8.46,32.77a.34.34,0,0,0,.13-.27.38.38,0,0,0-.38-.38H8.15A.57.57,0,0,1,8.23,32h-.3s0,0,0,.06l0-.06H7.31a.37.37,0,0,0-.1.25v0l-.12,0a.38.38,0,0,0-.38.37A.36.36,0,0,0,7,33a.36.36,0,0,0-.12.28.37.37,0,0,0,.24.35.4.4,0,0,0-.12.28.38.38,0,0,0,.75,0v0a.5.5,0,0,0,.13,0,.38.38,0,0,0,.37-.38v0l.13,0a.38.38,0,0,0,.12-.73Zm-4,3.17a.4.4,0,0,0,.12-.28.37.37,0,0,0-.37-.37H4.11a1.34,1.34,0,0,1,.72-.63l-.08-.24a1.54,1.54,0,0,0-.58.38h0a.53.53,0,0,0-.43-.55l-.14-.06-.18-.09v.2a.57.57,0,0,0,.62.62h0a1.54,1.54,0,0,0-.21.31A.36.36,0,0,0,3.54,35a.38.38,0,0,0-.37.37v0a.28.28,0,0,0-.13,0,.38.38,0,0,0-.37.38.37.37,0,0,0,.24.35.37.37,0,0,0,.13.62.36.36,0,0,0-.12.28.38.38,0,0,0,.75,0v0l.13,0a.38.38,0,0,0,.38-.38v0l.13,0a.38.38,0,0,0,.38-.37A.37.37,0,0,0,4.42,35.94Z"/><path id="vineyard_random_dense-10" data-name="vineyard_random_dense" class="cls-2" d="M2.13,63.65a.4.4,0,0,0,.12-.27A.38.38,0,0,0,1.88,63H1.82a1.31,1.31,0,0,1,.72-.63l-.08-.24a1.46,1.46,0,0,0-.58.38h0A.53.53,0,0,0,1.45,62l-.15-.06-.18-.09V62a.58.58,0,0,0,.63.62h0a1.49,1.49,0,0,0-.2.31.37.37,0,0,0-.69.19v0a.31.31,0,0,0-.13,0,.38.38,0,0,0-.13.73.4.4,0,0,0-.1.15H2.38A.38.38,0,0,0,2.13,63.65Zm5.46.23a.36.36,0,0,0-.28.12h.55A.34.34,0,0,0,7.59,63.88Zm1.2-.62a1.47,1.47,0,0,0-.58.37h0a.54.54,0,0,0-.42-.55A.47.47,0,0,1,7.64,63l-.18-.09v.2a.58.58,0,0,0,.63.63h0a1.44,1.44,0,0,0-.18.25h.3a1.34,1.34,0,0,1,.65-.51ZM.52,48a.5.5,0,0,0,0,.12.36.36,0,0,0,.24.35.4.4,0,0,0-.12.28.37.37,0,0,0,.38.37.37.37,0,0,0,.38-.37v0l.13,0a.38.38,0,0,0,.38-.37v0l.13,0A.38.38,0,0,0,2.38,48ZM13.17,60.69a.4.4,0,0,0,.12-.28.38.38,0,0,0-.37-.37h-.06a1.34,1.34,0,0,1,.72-.63l-.08-.24a1.54,1.54,0,0,0-.58.38h0a.53.53,0,0,0-.43-.55l-.14-.06-.18-.09V59a.57.57,0,0,0,.62.62h0a1.54,1.54,0,0,0-.21.31.36.36,0,0,0-.32-.18.38.38,0,0,0-.37.37v0a.28.28,0,0,0-.13,0,.38.38,0,0,0-.37.38.37.37,0,0,0,.24.35.37.37,0,0,0,.13.62.36.36,0,0,0-.12.28.38.38,0,0,0,.75,0v0l.13,0a.38.38,0,0,0,.38-.38v0l.13,0a.38.38,0,0,0,.38-.37A.37.37,0,0,0,13.17,60.69Zm-6.5-2.5a.4.4,0,0,0,.12-.28.38.38,0,0,0-.37-.37H6.36a1.34,1.34,0,0,1,.72-.63L7,56.67a1.54,1.54,0,0,0-.58.38h0A.53.53,0,0,0,6,56.49l-.14-.06-.18-.09v.2a.57.57,0,0,0,.62.62h0a1.54,1.54,0,0,0-.21.31.36.36,0,0,0-.32-.18.38.38,0,0,0-.37.37v0a.28.28,0,0,0-.13,0,.38.38,0,0,0-.37.38.37.37,0,0,0,.24.35.37.37,0,0,0,.13.62.36.36,0,0,0-.12.28.38.38,0,0,0,.75,0v0l.13,0a.38.38,0,0,0,.38-.38v0l.13,0a.38.38,0,0,0,.38-.37A.37.37,0,0,0,6.67,58.19Zm5.25-5a.4.4,0,0,0,.12-.28.37.37,0,0,0-.37-.37h-.06a1.34,1.34,0,0,1,.72-.63l-.08-.24a1.54,1.54,0,0,0-.58.38h0a.53.53,0,0,0-.43-.55l-.14-.06-.18-.09v.2a.57.57,0,0,0,.62.62h0a1.54,1.54,0,0,0-.21.31.36.36,0,0,0-.32-.18.38.38,0,0,0-.37.37v0a.28.28,0,0,0-.13,0,.38.38,0,0,0-.37.38.37.37,0,0,0,.24.35.37.37,0,0,0,.13.62.36.36,0,0,0-.12.28.38.38,0,0,0,.75,0v0l.13,0a.38.38,0,0,0,.38-.38v0l.13,0a.38.38,0,0,0,.38-.37A.37.37,0,0,0,11.92,53.19Zm3.67,3.19a.4.4,0,0,0,.12-.28.37.37,0,0,0-.37-.37h-.07A1.37,1.37,0,0,1,16,55.1l-.08-.24a1.54,1.54,0,0,0-.58.38h0a.53.53,0,0,0-.43-.55l-.14-.06-.18-.1v.21a.57.57,0,0,0,.62.62h0a1.49,1.49,0,0,0-.2.31.37.37,0,0,0-.32-.18.36.36,0,0,0-.37.37v0a.28.28,0,0,0-.13,0,.37.37,0,0,0-.37.38.38.38,0,0,0,.24.35.38.38,0,0,0-.12.27.39.39,0,0,0,.25.36.33.33,0,0,0-.12.27.37.37,0,0,0,.37.37.38.38,0,0,0,.38-.37v0l.13,0a.38.38,0,0,0,.38-.38v0a.27.27,0,0,0,.13,0,.37.37,0,0,0,.13-.72ZM8.46,48.77a.34.34,0,0,0,.13-.27.38.38,0,0,0-.38-.38H8.15A.57.57,0,0,1,8.23,48h-.3s0,0,0,.06l0-.06H7.31a.37.37,0,0,0-.1.25v0l-.12,0a.38.38,0,0,0-.38.37A.36.36,0,0,0,7,49a.36.36,0,0,0-.12.28.37.37,0,0,0,.24.35.4.4,0,0,0-.12.28.38.38,0,0,0,.75,0v0a.5.5,0,0,0,.13,0,.38.38,0,0,0,.37-.38v0l.13,0a.38.38,0,0,0,.12-.73Zm-4,3.17a.4.4,0,0,0,.12-.28.37.37,0,0,0-.37-.37H4.11a1.34,1.34,0,0,1,.72-.63l-.08-.24a1.54,1.54,0,0,0-.58.38h0a.53.53,0,0,0-.43-.55l-.14-.06-.18-.09v.2a.57.57,0,0,0,.62.62h0a1.54,1.54,0,0,0-.21.31A.36.36,0,0,0,3.54,51a.38.38,0,0,0-.37.37v0a.28.28,0,0,0-.13,0,.38.38,0,0,0-.37.38.37.37,0,0,0,.24.35.37.37,0,0,0,.13.62.36.36,0,0,0-.12.28.38.38,0,0,0,.75,0v0l.13,0a.38.38,0,0,0,.38-.38v0l.13,0a.38.38,0,0,0,.38-.37A.37.37,0,0,0,4.42,51.94Z"/><path id="vineyard_random_dense-11" data-name="vineyard_random_dense" class="cls-2" d="M18.13,47.65a.4.4,0,0,0,.12-.27.38.38,0,0,0-.37-.38h-.06a1.31,1.31,0,0,1,.72-.63l-.08-.24a1.46,1.46,0,0,0-.58.38h0a.53.53,0,0,0-.43-.55l-.15-.06-.18-.09V46a.58.58,0,0,0,.63.62h0a1.49,1.49,0,0,0-.2.31.37.37,0,0,0-.69.19v0a.31.31,0,0,0-.13,0,.38.38,0,0,0-.13.73.4.4,0,0,0-.1.15h1.86A.38.38,0,0,0,18.13,47.65Zm5.46.23a.36.36,0,0,0-.28.12h.55A.34.34,0,0,0,23.59,47.88Zm1.2-.62a1.47,1.47,0,0,0-.58.37h0a.54.54,0,0,0-.42-.55.47.47,0,0,1-.15-.06l-.18-.09v.2a.58.58,0,0,0,.63.63h0a1.44,1.44,0,0,0-.18.25h.3a1.34,1.34,0,0,1,.65-.51ZM16.52,32a.5.5,0,0,0,0,.12.36.36,0,0,0,.24.35.4.4,0,0,0-.12.28.38.38,0,0,0,.76,0v0l.13,0a.38.38,0,0,0,.38-.37v0l.13,0a.38.38,0,0,0,.38-.38ZM29.17,44.69a.4.4,0,0,0,.12-.28.38.38,0,0,0-.37-.37h-.06a1.34,1.34,0,0,1,.72-.63l-.08-.24a1.54,1.54,0,0,0-.58.38h0a.53.53,0,0,0-.43-.55l-.14-.06-.18-.09V43a.57.57,0,0,0,.62.62h0a1.54,1.54,0,0,0-.21.31.36.36,0,0,0-.32-.18.38.38,0,0,0-.37.37v0a.28.28,0,0,0-.13,0,.38.38,0,0,0-.37.38.37.37,0,0,0,.24.35.37.37,0,0,0,.13.62.36.36,0,0,0-.12.28.38.38,0,0,0,.75,0v0l.13,0a.38.38,0,0,0,.38-.38v0l.13,0a.38.38,0,0,0,.38-.37A.37.37,0,0,0,29.17,44.69Zm-6.5-2.5a.4.4,0,0,0,.12-.28.38.38,0,0,0-.37-.37h-.06a1.34,1.34,0,0,1,.72-.63L23,40.67a1.54,1.54,0,0,0-.58.38h0a.53.53,0,0,0-.43-.55l-.14-.06-.18-.09v.2a.57.57,0,0,0,.62.62h0a1.54,1.54,0,0,0-.21.31.36.36,0,0,0-.32-.18.38.38,0,0,0-.37.37v0a.28.28,0,0,0-.13,0,.38.38,0,0,0-.37.38.37.37,0,0,0,.24.35.37.37,0,0,0,.13.62.36.36,0,0,0-.12.28.38.38,0,0,0,.75,0v0l.13,0a.38.38,0,0,0,.38-.38v0l.13,0a.38.38,0,0,0,.38-.37A.37.37,0,0,0,22.67,42.19Zm5.25-5a.4.4,0,0,0,.12-.28.37.37,0,0,0-.37-.37h-.06a1.34,1.34,0,0,1,.72-.63l-.08-.24a1.54,1.54,0,0,0-.58.38h0a.53.53,0,0,0-.43-.55l-.14-.06-.18-.09v.2a.57.57,0,0,0,.62.62h0a1.54,1.54,0,0,0-.21.31.36.36,0,0,0-.32-.18.38.38,0,0,0-.37.37v0a.28.28,0,0,0-.13,0,.38.38,0,0,0-.37.38.37.37,0,0,0,.24.35.37.37,0,0,0,.13.62.36.36,0,0,0-.12.28.38.38,0,0,0,.75,0v0l.13,0a.38.38,0,0,0,.38-.38v0l.13,0a.38.38,0,0,0,.38-.37A.37.37,0,0,0,27.92,37.19Zm3.67,3.19a.4.4,0,0,0,.12-.28.37.37,0,0,0-.37-.37h-.07A1.37,1.37,0,0,1,32,39.1l-.08-.24a1.54,1.54,0,0,0-.58.38h0a.53.53,0,0,0-.43-.55l-.14-.06-.18-.1v.21a.57.57,0,0,0,.62.62h0a1.49,1.49,0,0,0-.2.31.37.37,0,0,0-.32-.18.36.36,0,0,0-.37.37v0a.28.28,0,0,0-.13,0,.37.37,0,0,0-.37.38.38.38,0,0,0,.24.35.38.38,0,0,0-.12.27.39.39,0,0,0,.25.36.33.33,0,0,0-.12.27.37.37,0,0,0,.37.37.38.38,0,0,0,.38-.37v0l.13,0a.38.38,0,0,0,.38-.38v0a.27.27,0,0,0,.13,0,.37.37,0,0,0,.13-.72Zm-7.13-7.61a.34.34,0,0,0,.13-.27.38.38,0,0,0-.38-.38h-.06a.57.57,0,0,1,.08-.13h-.3s0,0,0,.06l0-.06h-.55a.37.37,0,0,0-.1.25v0l-.12,0a.38.38,0,0,0-.38.37A.36.36,0,0,0,23,33a.36.36,0,0,0-.12.28.37.37,0,0,0,.24.35.4.4,0,0,0-.12.28.38.38,0,0,0,.75,0v0a.5.5,0,0,0,.13,0,.38.38,0,0,0,.37-.38v0l.13,0a.38.38,0,0,0,.12-.73Zm-4,3.17a.4.4,0,0,0,.12-.28.37.37,0,0,0-.37-.37h-.06a1.34,1.34,0,0,1,.72-.63l-.08-.24a1.54,1.54,0,0,0-.58.38h0a.53.53,0,0,0-.43-.55l-.14-.06-.18-.09v.2a.57.57,0,0,0,.62.62h0a1.54,1.54,0,0,0-.21.31.36.36,0,0,0-.32-.18.38.38,0,0,0-.37.37v0a.28.28,0,0,0-.13,0,.38.38,0,0,0-.37.38.37.37,0,0,0,.24.35.37.37,0,0,0,.13.62.36.36,0,0,0-.12.28.38.38,0,0,0,.75,0v0l.13,0a.38.38,0,0,0,.38-.38v0l.13,0a.38.38,0,0,0,.38-.37A.37.37,0,0,0,20.42,35.94Z"/><path id="vineyard_random_dense-12" data-name="vineyard_random_dense" class="cls-2" d="M18.13,63.65a.4.4,0,0,0,.12-.27.38.38,0,0,0-.37-.38h-.06a1.31,1.31,0,0,1,.72-.63l-.08-.24a1.46,1.46,0,0,0-.58.38h0a.53.53,0,0,0-.43-.55l-.15-.06-.18-.09V62a.58.58,0,0,0,.63.62h0a1.49,1.49,0,0,0-.2.31.37.37,0,0,0-.69.19v0a.31.31,0,0,0-.13,0,.38.38,0,0,0-.13.73.4.4,0,0,0-.1.15h1.86A.38.38,0,0,0,18.13,63.65Zm5.46.23a.36.36,0,0,0-.28.12h.55A.34.34,0,0,0,23.59,63.88Zm1.2-.62a1.47,1.47,0,0,0-.58.37h0a.54.54,0,0,0-.42-.55.47.47,0,0,1-.15-.06l-.18-.09v.2a.58.58,0,0,0,.63.63h0a1.44,1.44,0,0,0-.18.25h.3a1.34,1.34,0,0,1,.65-.51ZM16.52,48a.5.5,0,0,0,0,.12.36.36,0,0,0,.24.35.4.4,0,0,0-.12.28.38.38,0,0,0,.76,0v0l.13,0a.38.38,0,0,0,.38-.37v0l.13,0a.38.38,0,0,0,.38-.38ZM29.17,60.69a.4.4,0,0,0,.12-.28.38.38,0,0,0-.37-.37h-.06a1.34,1.34,0,0,1,.72-.63l-.08-.24a1.54,1.54,0,0,0-.58.38h0a.53.53,0,0,0-.43-.55l-.14-.06-.18-.09V59a.57.57,0,0,0,.62.62h0a1.54,1.54,0,0,0-.21.31.36.36,0,0,0-.32-.18.38.38,0,0,0-.37.37v0a.28.28,0,0,0-.13,0,.38.38,0,0,0-.37.38.37.37,0,0,0,.24.35.37.37,0,0,0,.13.62.36.36,0,0,0-.12.28.38.38,0,0,0,.75,0v0l.13,0a.38.38,0,0,0,.38-.38v0l.13,0a.38.38,0,0,0,.38-.37A.37.37,0,0,0,29.17,60.69Zm-6.5-2.5a.4.4,0,0,0,.12-.28.38.38,0,0,0-.37-.37h-.06a1.34,1.34,0,0,1,.72-.63L23,56.67a1.54,1.54,0,0,0-.58.38h0a.53.53,0,0,0-.43-.55l-.14-.06-.18-.09v.2a.57.57,0,0,0,.62.62h0a1.54,1.54,0,0,0-.21.31.36.36,0,0,0-.32-.18.38.38,0,0,0-.37.37v0a.28.28,0,0,0-.13,0,.38.38,0,0,0-.37.38.37.37,0,0,0,.24.35.37.37,0,0,0,.13.62.36.36,0,0,0-.12.28.38.38,0,0,0,.75,0v0l.13,0a.38.38,0,0,0,.38-.38v0l.13,0a.38.38,0,0,0,.38-.37A.37.37,0,0,0,22.67,58.19Zm5.25-5a.4.4,0,0,0,.12-.28.37.37,0,0,0-.37-.37h-.06a1.34,1.34,0,0,1,.72-.63l-.08-.24a1.54,1.54,0,0,0-.58.38h0a.53.53,0,0,0-.43-.55l-.14-.06-.18-.09v.2a.57.57,0,0,0,.62.62h0a1.54,1.54,0,0,0-.21.31.36.36,0,0,0-.32-.18.38.38,0,0,0-.37.37v0a.28.28,0,0,0-.13,0,.38.38,0,0,0-.37.38.37.37,0,0,0,.24.35.37.37,0,0,0,.13.62.36.36,0,0,0-.12.28.38.38,0,0,0,.75,0v0l.13,0a.38.38,0,0,0,.38-.38v0l.13,0a.38.38,0,0,0,.38-.37A.37.37,0,0,0,27.92,53.19Zm3.67,3.19a.4.4,0,0,0,.12-.28.37.37,0,0,0-.37-.37h-.07A1.37,1.37,0,0,1,32,55.1l-.08-.24a1.54,1.54,0,0,0-.58.38h0a.53.53,0,0,0-.43-.55l-.14-.06-.18-.1v.21a.57.57,0,0,0,.62.62h0a1.49,1.49,0,0,0-.2.31.37.37,0,0,0-.32-.18.36.36,0,0,0-.37.37v0a.28.28,0,0,0-.13,0,.37.37,0,0,0-.37.38.38.38,0,0,0,.24.35.38.38,0,0,0-.12.27.39.39,0,0,0,.25.36.33.33,0,0,0-.12.27.37.37,0,0,0,.37.37.38.38,0,0,0,.38-.37v0l.13,0a.38.38,0,0,0,.38-.38v0a.27.27,0,0,0,.13,0,.37.37,0,0,0,.13-.72Zm-7.13-7.61a.34.34,0,0,0,.13-.27.38.38,0,0,0-.38-.38h-.06a.57.57,0,0,1,.08-.13h-.3s0,0,0,.06l0-.06h-.55a.37.37,0,0,0-.1.25v0l-.12,0a.38.38,0,0,0-.38.37A.36.36,0,0,0,23,49a.36.36,0,0,0-.12.28.37.37,0,0,0,.24.35.4.4,0,0,0-.12.28.38.38,0,0,0,.75,0v0a.5.5,0,0,0,.13,0,.38.38,0,0,0,.37-.38v0l.13,0a.38.38,0,0,0,.12-.73Zm-4,3.17a.4.4,0,0,0,.12-.28.37.37,0,0,0-.37-.37h-.06a1.34,1.34,0,0,1,.72-.63l-.08-.24a1.54,1.54,0,0,0-.58.38h0a.53.53,0,0,0-.43-.55l-.14-.06-.18-.09v.2a.57.57,0,0,0,.62.62h0a1.54,1.54,0,0,0-.21.31.36.36,0,0,0-.32-.18.38.38,0,0,0-.37.37v0a.28.28,0,0,0-.13,0,.38.38,0,0,0-.37.38.37.37,0,0,0,.24.35.37.37,0,0,0,.13.62.36.36,0,0,0-.12.28.38.38,0,0,0,.75,0v0l.13,0a.38.38,0,0,0,.38-.38v0l.13,0a.38.38,0,0,0,.38-.37A.37.37,0,0,0,20.42,51.94Z"/></g><g id="vineyard_poly_random_dense_half-4" data-name="vineyard_poly_random_dense_half"><rect id="bbox_64-4" data-name="bbox_64" class="cls-1" x="32" y="32" width="32" height="32"/><path id="vineyard_random_dense-13" data-name="vineyard_random_dense" class="cls-2" d="M34.13,47.65a.4.4,0,0,0,.12-.27.38.38,0,0,0-.37-.38h-.06a1.31,1.31,0,0,1,.72-.63l-.08-.24a1.46,1.46,0,0,0-.58.38h0a.53.53,0,0,0-.43-.55l-.15-.06-.18-.09V46a.58.58,0,0,0,.63.62h0a1.49,1.49,0,0,0-.2.31.37.37,0,0,0-.69.19v0a.31.31,0,0,0-.13,0,.38.38,0,0,0-.13.73.4.4,0,0,0-.1.15h1.86A.38.38,0,0,0,34.13,47.65Zm5.46.23a.36.36,0,0,0-.28.12h.55A.34.34,0,0,0,39.59,47.88Zm1.2-.62a1.47,1.47,0,0,0-.58.37h0a.54.54,0,0,0-.42-.55.47.47,0,0,1-.15-.06l-.18-.09v.2a.58.58,0,0,0,.63.63h0a1.44,1.44,0,0,0-.18.25h.3a1.34,1.34,0,0,1,.65-.51ZM32.52,32a.5.5,0,0,0,0,.12.36.36,0,0,0,.24.35.4.4,0,0,0-.12.28.38.38,0,0,0,.76,0v0l.13,0a.38.38,0,0,0,.38-.37v0l.13,0a.38.38,0,0,0,.38-.38ZM45.17,44.69a.4.4,0,0,0,.12-.28.38.38,0,0,0-.37-.37h-.06a1.34,1.34,0,0,1,.72-.63l-.08-.24a1.54,1.54,0,0,0-.58.38h0a.53.53,0,0,0-.43-.55l-.14-.06-.18-.09V43a.57.57,0,0,0,.62.62h0a1.54,1.54,0,0,0-.21.31.36.36,0,0,0-.32-.18.38.38,0,0,0-.37.37v0a.28.28,0,0,0-.13,0,.38.38,0,0,0-.37.38.37.37,0,0,0,.24.35.37.37,0,0,0,.13.62.36.36,0,0,0-.12.28.38.38,0,0,0,.75,0v0l.13,0a.38.38,0,0,0,.38-.38v0l.13,0a.38.38,0,0,0,.38-.37A.37.37,0,0,0,45.17,44.69Zm-6.5-2.5a.4.4,0,0,0,.12-.28.38.38,0,0,0-.37-.37h-.06a1.34,1.34,0,0,1,.72-.63L39,40.67a1.54,1.54,0,0,0-.58.38h0a.53.53,0,0,0-.43-.55l-.14-.06-.18-.09v.2a.57.57,0,0,0,.62.62h0a1.54,1.54,0,0,0-.21.31.36.36,0,0,0-.32-.18.38.38,0,0,0-.37.37v0a.28.28,0,0,0-.13,0,.38.38,0,0,0-.37.38.37.37,0,0,0,.24.35.37.37,0,0,0,.13.62.36.36,0,0,0-.12.28.38.38,0,0,0,.75,0v0l.13,0a.38.38,0,0,0,.38-.38v0l.13,0a.38.38,0,0,0,.38-.37A.37.37,0,0,0,38.67,42.19Zm5.25-5a.4.4,0,0,0,.12-.28.37.37,0,0,0-.37-.37h-.06a1.34,1.34,0,0,1,.72-.63l-.08-.24a1.54,1.54,0,0,0-.58.38h0a.53.53,0,0,0-.43-.55l-.14-.06-.18-.09v.2a.57.57,0,0,0,.62.62h0a1.54,1.54,0,0,0-.21.31.36.36,0,0,0-.32-.18.38.38,0,0,0-.37.37v0a.28.28,0,0,0-.13,0,.38.38,0,0,0-.37.38.37.37,0,0,0,.24.35.37.37,0,0,0,.13.62.36.36,0,0,0-.12.28.38.38,0,0,0,.75,0v0l.13,0a.38.38,0,0,0,.38-.38v0l.13,0a.38.38,0,0,0,.38-.37A.37.37,0,0,0,43.92,37.19Zm3.67,3.19a.4.4,0,0,0,.12-.28.37.37,0,0,0-.37-.37h-.07A1.37,1.37,0,0,1,48,39.1l-.08-.24a1.54,1.54,0,0,0-.58.38h0a.53.53,0,0,0-.43-.55l-.14-.06-.18-.1v.21a.57.57,0,0,0,.62.62h0a1.49,1.49,0,0,0-.2.31.37.37,0,0,0-.32-.18.36.36,0,0,0-.37.37v0a.28.28,0,0,0-.13,0,.37.37,0,0,0-.37.38.38.38,0,0,0,.24.35.38.38,0,0,0-.12.27.39.39,0,0,0,.25.36.33.33,0,0,0-.12.27.37.37,0,0,0,.37.37.38.38,0,0,0,.38-.37v0l.13,0a.38.38,0,0,0,.38-.38v0a.27.27,0,0,0,.13,0,.37.37,0,0,0,.13-.72Zm-7.13-7.61a.34.34,0,0,0,.13-.27.38.38,0,0,0-.38-.38h-.06a.57.57,0,0,1,.08-.13h-.3s0,0,0,.06a.21.21,0,0,0,0-.06h-.55a.37.37,0,0,0-.1.25v0l-.12,0a.38.38,0,0,0-.38.37A.36.36,0,0,0,39,33a.36.36,0,0,0-.12.28.37.37,0,0,0,.24.35.4.4,0,0,0-.12.28.38.38,0,0,0,.75,0v0a.5.5,0,0,0,.13,0,.38.38,0,0,0,.37-.38v0l.13,0a.38.38,0,0,0,.12-.73Zm-4,3.17a.4.4,0,0,0,.12-.28.37.37,0,0,0-.37-.37h-.06a1.34,1.34,0,0,1,.72-.63l-.08-.24a1.54,1.54,0,0,0-.58.38h0a.53.53,0,0,0-.43-.55l-.14-.06-.18-.09v.2a.57.57,0,0,0,.62.62h0a1.54,1.54,0,0,0-.21.31.36.36,0,0,0-.32-.18.38.38,0,0,0-.37.37v0a.28.28,0,0,0-.13,0,.38.38,0,0,0-.37.38.37.37,0,0,0,.24.35.37.37,0,0,0,.13.62.36.36,0,0,0-.12.28.38.38,0,0,0,.75,0v0l.13,0a.38.38,0,0,0,.38-.38v0l.13,0a.38.38,0,0,0,.38-.37A.37.37,0,0,0,36.42,35.94Z"/><path id="vineyard_random_dense-14" data-name="vineyard_random_dense" class="cls-2" d="M34.13,63.65a.4.4,0,0,0,.12-.27.38.38,0,0,0-.37-.38h-.06a1.31,1.31,0,0,1,.72-.63l-.08-.24a1.46,1.46,0,0,0-.58.38h0a.53.53,0,0,0-.43-.55l-.15-.06-.18-.09V62a.58.58,0,0,0,.63.62h0a1.49,1.49,0,0,0-.2.31.37.37,0,0,0-.69.19v0a.31.31,0,0,0-.13,0,.38.38,0,0,0-.13.73.4.4,0,0,0-.1.15h1.86A.38.38,0,0,0,34.13,63.65Zm5.46.23a.36.36,0,0,0-.28.12h.55A.34.34,0,0,0,39.59,63.88Zm1.2-.62a1.47,1.47,0,0,0-.58.37h0a.54.54,0,0,0-.42-.55.47.47,0,0,1-.15-.06l-.18-.09v.2a.58.58,0,0,0,.63.63h0a1.44,1.44,0,0,0-.18.25h.3a1.34,1.34,0,0,1,.65-.51ZM32.52,48a.5.5,0,0,0,0,.12.36.36,0,0,0,.24.35.4.4,0,0,0-.12.28.38.38,0,0,0,.76,0v0l.13,0a.38.38,0,0,0,.38-.37v0l.13,0a.38.38,0,0,0,.38-.38ZM45.17,60.69a.4.4,0,0,0,.12-.28.38.38,0,0,0-.37-.37h-.06a1.34,1.34,0,0,1,.72-.63l-.08-.24a1.54,1.54,0,0,0-.58.38h0a.53.53,0,0,0-.43-.55l-.14-.06-.18-.09V59a.57.57,0,0,0,.62.62h0a1.54,1.54,0,0,0-.21.31.36.36,0,0,0-.32-.18.38.38,0,0,0-.37.37v0a.28.28,0,0,0-.13,0,.38.38,0,0,0-.37.38.37.37,0,0,0,.24.35.37.37,0,0,0,.13.62.36.36,0,0,0-.12.28.38.38,0,0,0,.75,0v0l.13,0a.38.38,0,0,0,.38-.38v0l.13,0a.38.38,0,0,0,.38-.37A.37.37,0,0,0,45.17,60.69Zm-6.5-2.5a.4.4,0,0,0,.12-.28.38.38,0,0,0-.37-.37h-.06a1.34,1.34,0,0,1,.72-.63L39,56.67a1.54,1.54,0,0,0-.58.38h0a.53.53,0,0,0-.43-.55l-.14-.06-.18-.09v.2a.57.57,0,0,0,.62.62h0a1.54,1.54,0,0,0-.21.31.36.36,0,0,0-.32-.18.38.38,0,0,0-.37.37v0a.28.28,0,0,0-.13,0,.38.38,0,0,0-.37.38.37.37,0,0,0,.24.35.37.37,0,0,0,.13.62.36.36,0,0,0-.12.28.38.38,0,0,0,.75,0v0l.13,0a.38.38,0,0,0,.38-.38v0l.13,0a.38.38,0,0,0,.38-.37A.37.37,0,0,0,38.67,58.19Zm5.25-5a.4.4,0,0,0,.12-.28.37.37,0,0,0-.37-.37h-.06a1.34,1.34,0,0,1,.72-.63l-.08-.24a1.54,1.54,0,0,0-.58.38h0a.53.53,0,0,0-.43-.55l-.14-.06-.18-.09v.2a.57.57,0,0,0,.62.62h0a1.54,1.54,0,0,0-.21.31.36.36,0,0,0-.32-.18.38.38,0,0,0-.37.37v0a.28.28,0,0,0-.13,0,.38.38,0,0,0-.37.38.37.37,0,0,0,.24.35.37.37,0,0,0,.13.62.36.36,0,0,0-.12.28.38.38,0,0,0,.75,0v0l.13,0a.38.38,0,0,0,.38-.38v0l.13,0a.38.38,0,0,0,.38-.37A.37.37,0,0,0,43.92,53.19Zm3.67,3.19a.4.4,0,0,0,.12-.28.37.37,0,0,0-.37-.37h-.07A1.37,1.37,0,0,1,48,55.1l-.08-.24a1.54,1.54,0,0,0-.58.38h0a.53.53,0,0,0-.43-.55l-.14-.06-.18-.1v.21a.57.57,0,0,0,.62.62h0a1.49,1.49,0,0,0-.2.31.37.37,0,0,0-.32-.18.36.36,0,0,0-.37.37v0a.28.28,0,0,0-.13,0,.37.37,0,0,0-.37.38.38.38,0,0,0,.24.35.38.38,0,0,0-.12.27.39.39,0,0,0,.25.36.33.33,0,0,0-.12.27.37.37,0,0,0,.37.37.38.38,0,0,0,.38-.37v0l.13,0a.38.38,0,0,0,.38-.38v0a.27.27,0,0,0,.13,0,.37.37,0,0,0,.13-.72Zm-7.13-7.61a.34.34,0,0,0,.13-.27.38.38,0,0,0-.38-.38h-.06a.57.57,0,0,1,.08-.13h-.3s0,0,0,.06a.21.21,0,0,0,0-.06h-.55a.37.37,0,0,0-.1.25v0l-.12,0a.38.38,0,0,0-.38.37A.36.36,0,0,0,39,49a.36.36,0,0,0-.12.28.37.37,0,0,0,.24.35.4.4,0,0,0-.12.28.38.38,0,0,0,.75,0v0a.5.5,0,0,0,.13,0,.38.38,0,0,0,.37-.38v0l.13,0a.38.38,0,0,0,.12-.73Zm-4,3.17a.4.4,0,0,0,.12-.28.37.37,0,0,0-.37-.37h-.06a1.34,1.34,0,0,1,.72-.63l-.08-.24a1.54,1.54,0,0,0-.58.38h0a.53.53,0,0,0-.43-.55l-.14-.06-.18-.09v.2a.57.57,0,0,0,.62.62h0a1.54,1.54,0,0,0-.21.31.36.36,0,0,0-.32-.18.38.38,0,0,0-.37.37v0a.28.28,0,0,0-.13,0,.38.38,0,0,0-.37.38.37.37,0,0,0,.24.35.37.37,0,0,0,.13.62.36.36,0,0,0-.12.28.38.38,0,0,0,.75,0v0l.13,0a.38.38,0,0,0,.38-.38v0l.13,0a.38.38,0,0,0,.38-.37A.37.37,0,0,0,36.42,51.94Z"/><path id="vineyard_random_dense-15" data-name="vineyard_random_dense" class="cls-2" d="M50.13,47.65a.4.4,0,0,0,.12-.27.38.38,0,0,0-.37-.38h-.06a1.31,1.31,0,0,1,.72-.63l-.08-.24a1.46,1.46,0,0,0-.58.38h0a.53.53,0,0,0-.43-.55l-.15-.06-.18-.09V46a.58.58,0,0,0,.63.62h0a1.49,1.49,0,0,0-.2.31.37.37,0,0,0-.69.19v0a.31.31,0,0,0-.13,0,.38.38,0,0,0-.13.73.4.4,0,0,0-.1.15h1.86A.38.38,0,0,0,50.13,47.65Zm5.46.23a.36.36,0,0,0-.28.12h.55A.34.34,0,0,0,55.59,47.88Zm1.2-.62a1.47,1.47,0,0,0-.58.37h0a.54.54,0,0,0-.42-.55.47.47,0,0,1-.15-.06l-.18-.09v.2a.58.58,0,0,0,.63.63h0a1.44,1.44,0,0,0-.18.25h.3a1.34,1.34,0,0,1,.65-.51ZM48.52,32a.5.5,0,0,0,0,.12.36.36,0,0,0,.24.35.4.4,0,0,0-.12.28.38.38,0,0,0,.76,0v0l.13,0a.38.38,0,0,0,.38-.37v0l.13,0a.38.38,0,0,0,.38-.38ZM61.17,44.69a.4.4,0,0,0,.12-.28.38.38,0,0,0-.37-.37h-.06a1.34,1.34,0,0,1,.72-.63l-.08-.24a1.54,1.54,0,0,0-.58.38h0a.53.53,0,0,0-.43-.55l-.14-.06-.18-.09V43a.57.57,0,0,0,.62.62h0a1.54,1.54,0,0,0-.21.31.36.36,0,0,0-.32-.18.38.38,0,0,0-.37.37v0a.28.28,0,0,0-.13,0,.38.38,0,0,0-.37.38.37.37,0,0,0,.24.35.37.37,0,0,0,.13.62.36.36,0,0,0-.12.28.38.38,0,0,0,.75,0v0l.13,0a.38.38,0,0,0,.38-.38v0l.13,0a.38.38,0,0,0,.38-.37A.37.37,0,0,0,61.17,44.69Zm-6.5-2.5a.4.4,0,0,0,.12-.28.38.38,0,0,0-.37-.37h-.06a1.34,1.34,0,0,1,.72-.63L55,40.67a1.54,1.54,0,0,0-.58.38h0a.53.53,0,0,0-.43-.55l-.14-.06-.18-.09v.2a.57.57,0,0,0,.62.62h0a1.54,1.54,0,0,0-.21.31.36.36,0,0,0-.32-.18.38.38,0,0,0-.37.37v0a.28.28,0,0,0-.13,0,.38.38,0,0,0-.37.38.37.37,0,0,0,.24.35.37.37,0,0,0,.13.62.36.36,0,0,0-.12.28.38.38,0,0,0,.75,0v0l.13,0a.38.38,0,0,0,.38-.38v0l.13,0a.38.38,0,0,0,.38-.37A.37.37,0,0,0,54.67,42.19Zm5.25-5a.4.4,0,0,0,.12-.28.37.37,0,0,0-.37-.37h-.06a1.34,1.34,0,0,1,.72-.63l-.08-.24a1.54,1.54,0,0,0-.58.38h0a.53.53,0,0,0-.43-.55l-.14-.06-.18-.09v.2a.57.57,0,0,0,.62.62h0a1.54,1.54,0,0,0-.21.31.36.36,0,0,0-.32-.18.38.38,0,0,0-.37.37v0a.28.28,0,0,0-.13,0,.38.38,0,0,0-.37.38.37.37,0,0,0,.24.35.37.37,0,0,0,.13.62.36.36,0,0,0-.12.28.38.38,0,0,0,.75,0v0l.13,0a.38.38,0,0,0,.38-.38v0l.13,0a.38.38,0,0,0,.38-.37A.37.37,0,0,0,59.92,37.19Zm3.67,3.19a.4.4,0,0,0,.12-.28.37.37,0,0,0-.37-.37h-.07A1.37,1.37,0,0,1,64,39.1l-.08-.24a1.54,1.54,0,0,0-.58.38h0a.53.53,0,0,0-.43-.55l-.14-.06-.18-.1v.21a.57.57,0,0,0,.62.62h0a1.49,1.49,0,0,0-.2.31.37.37,0,0,0-.32-.18.36.36,0,0,0-.37.37v0a.28.28,0,0,0-.13,0,.37.37,0,0,0-.37.38.38.38,0,0,0,.24.35.38.38,0,0,0-.12.27.39.39,0,0,0,.25.36.33.33,0,0,0-.12.27.37.37,0,0,0,.37.37.38.38,0,0,0,.38-.37v0l.13,0a.38.38,0,0,0,.38-.38v0a.27.27,0,0,0,.13,0,.37.37,0,0,0,.13-.72Zm-7.13-7.61a.34.34,0,0,0,.13-.27.38.38,0,0,0-.38-.38h-.06a.57.57,0,0,1,.08-.13h-.3s0,0,0,.06a.21.21,0,0,0,0-.06h-.55a.37.37,0,0,0-.1.25v0l-.12,0a.38.38,0,0,0-.38.37A.36.36,0,0,0,55,33a.36.36,0,0,0-.12.28.37.37,0,0,0,.24.35.4.4,0,0,0-.12.28.38.38,0,0,0,.75,0v0a.5.5,0,0,0,.13,0,.38.38,0,0,0,.37-.38v0l.13,0a.38.38,0,0,0,.12-.73Zm-4,3.17a.4.4,0,0,0,.12-.28.37.37,0,0,0-.37-.37h-.06a1.34,1.34,0,0,1,.72-.63l-.08-.24a1.54,1.54,0,0,0-.58.38h0a.53.53,0,0,0-.43-.55l-.14-.06-.18-.09v.2a.57.57,0,0,0,.62.62h0a1.54,1.54,0,0,0-.21.31.36.36,0,0,0-.32-.18.38.38,0,0,0-.37.37v0a.28.28,0,0,0-.13,0,.38.38,0,0,0-.37.38.37.37,0,0,0,.24.35.37.37,0,0,0,.13.62.36.36,0,0,0-.12.28.38.38,0,0,0,.75,0v0l.13,0a.38.38,0,0,0,.38-.38v0l.13,0a.38.38,0,0,0,.38-.37A.37.37,0,0,0,52.42,35.94Z"/><path id="vineyard_random_dense-16" data-name="vineyard_random_dense" class="cls-2" d="M50.13,63.65a.4.4,0,0,0,.12-.27.38.38,0,0,0-.37-.38h-.06a1.31,1.31,0,0,1,.72-.63l-.08-.24a1.46,1.46,0,0,0-.58.38h0a.53.53,0,0,0-.43-.55l-.15-.06-.18-.09V62a.58.58,0,0,0,.63.62h0a1.49,1.49,0,0,0-.2.31.37.37,0,0,0-.69.19v0a.31.31,0,0,0-.13,0,.38.38,0,0,0-.13.73.4.4,0,0,0-.1.15h1.86A.38.38,0,0,0,50.13,63.65Zm5.46.23a.36.36,0,0,0-.28.12h.55A.34.34,0,0,0,55.59,63.88Zm1.2-.62a1.47,1.47,0,0,0-.58.37h0a.54.54,0,0,0-.42-.55.47.47,0,0,1-.15-.06l-.18-.09v.2a.58.58,0,0,0,.63.63h0a1.44,1.44,0,0,0-.18.25h.3a1.34,1.34,0,0,1,.65-.51ZM48.52,48a.5.5,0,0,0,0,.12.36.36,0,0,0,.24.35.4.4,0,0,0-.12.28.38.38,0,0,0,.76,0v0l.13,0a.38.38,0,0,0,.38-.37v0l.13,0a.38.38,0,0,0,.38-.38ZM61.17,60.69a.4.4,0,0,0,.12-.28.38.38,0,0,0-.37-.37h-.06a1.34,1.34,0,0,1,.72-.63l-.08-.24a1.54,1.54,0,0,0-.58.38h0a.53.53,0,0,0-.43-.55l-.14-.06-.18-.09V59a.57.57,0,0,0,.62.62h0a1.54,1.54,0,0,0-.21.31.36.36,0,0,0-.32-.18.38.38,0,0,0-.37.37v0a.28.28,0,0,0-.13,0,.38.38,0,0,0-.37.38.37.37,0,0,0,.24.35.37.37,0,0,0,.13.62.36.36,0,0,0-.12.28.38.38,0,0,0,.75,0v0l.13,0a.38.38,0,0,0,.38-.38v0l.13,0a.38.38,0,0,0,.38-.37A.37.37,0,0,0,61.17,60.69Zm-6.5-2.5a.4.4,0,0,0,.12-.28.38.38,0,0,0-.37-.37h-.06a1.34,1.34,0,0,1,.72-.63L55,56.67a1.54,1.54,0,0,0-.58.38h0a.53.53,0,0,0-.43-.55l-.14-.06-.18-.09v.2a.57.57,0,0,0,.62.62h0a1.54,1.54,0,0,0-.21.31.36.36,0,0,0-.32-.18.38.38,0,0,0-.37.37v0a.28.28,0,0,0-.13,0,.38.38,0,0,0-.37.38.37.37,0,0,0,.24.35.37.37,0,0,0,.13.62.36.36,0,0,0-.12.28.38.38,0,0,0,.75,0v0l.13,0a.38.38,0,0,0,.38-.38v0l.13,0a.38.38,0,0,0,.38-.37A.37.37,0,0,0,54.67,58.19Zm5.25-5a.4.4,0,0,0,.12-.28.37.37,0,0,0-.37-.37h-.06a1.34,1.34,0,0,1,.72-.63l-.08-.24a1.54,1.54,0,0,0-.58.38h0a.53.53,0,0,0-.43-.55l-.14-.06-.18-.09v.2a.57.57,0,0,0,.62.62h0a1.54,1.54,0,0,0-.21.31.36.36,0,0,0-.32-.18.38.38,0,0,0-.37.37v0a.28.28,0,0,0-.13,0,.38.38,0,0,0-.37.38.37.37,0,0,0,.24.35.37.37,0,0,0,.13.62.36.36,0,0,0-.12.28.38.38,0,0,0,.75,0v0l.13,0a.38.38,0,0,0,.38-.38v0l.13,0a.38.38,0,0,0,.38-.37A.37.37,0,0,0,59.92,53.19Zm3.67,3.19a.4.4,0,0,0,.12-.28.37.37,0,0,0-.37-.37h-.07A1.37,1.37,0,0,1,64,55.1l-.08-.24a1.54,1.54,0,0,0-.58.38h0a.53.53,0,0,0-.43-.55l-.14-.06-.18-.1v.21a.57.57,0,0,0,.62.62h0a1.49,1.49,0,0,0-.2.31.37.37,0,0,0-.32-.18.36.36,0,0,0-.37.37v0a.28.28,0,0,0-.13,0,.37.37,0,0,0-.37.38.38.38,0,0,0,.24.35.38.38,0,0,0-.12.27.39.39,0,0,0,.25.36.33.33,0,0,0-.12.27.37.37,0,0,0,.37.37.38.38,0,0,0,.38-.37v0l.13,0a.38.38,0,0,0,.38-.38v0a.27.27,0,0,0,.13,0,.37.37,0,0,0,.13-.72Zm-7.13-7.61a.34.34,0,0,0,.13-.27.38.38,0,0,0-.38-.38h-.06a.57.57,0,0,1,.08-.13h-.3s0,0,0,.06a.21.21,0,0,0,0-.06h-.55a.37.37,0,0,0-.1.25v0l-.12,0a.38.38,0,0,0-.38.37A.36.36,0,0,0,55,49a.36.36,0,0,0-.12.28.37.37,0,0,0,.24.35.4.4,0,0,0-.12.28.38.38,0,0,0,.75,0v0a.5.5,0,0,0,.13,0,.38.38,0,0,0,.37-.38v0l.13,0a.38.38,0,0,0,.12-.73Zm-4,3.17a.4.4,0,0,0,.12-.28.37.37,0,0,0-.37-.37h-.06a1.34,1.34,0,0,1,.72-.63l-.08-.24a1.54,1.54,0,0,0-.58.38h0a.53.53,0,0,0-.43-.55l-.14-.06-.18-.09v.2a.57.57,0,0,0,.62.62h0a1.54,1.54,0,0,0-.21.31.36.36,0,0,0-.32-.18.38.38,0,0,0-.37.37v0a.28.28,0,0,0-.13,0,.38.38,0,0,0-.37.38.37.37,0,0,0,.24.35.37.37,0,0,0,.13.62.36.36,0,0,0-.12.28.38.38,0,0,0,.75,0v0l.13,0a.38.38,0,0,0,.38-.38v0l.13,0a.38.38,0,0,0,.38-.37A.37.37,0,0,0,52.42,51.94Z"/></g></svg>