<svg id="Sprites" xmlns="http://www.w3.org/2000/svg" viewBox="0 0 64 64"><defs><style>.cls-1{fill:#236035;}</style></defs><path id="orchard_poly_grid_dense" class="cls-1" d="M11,8.6a1.53,1.53,0,0,0,.48-1.1A1.5,1.5,0,0,0,10,6L9.76,6a5.58,5.58,0,0,1,2.9-2.55l-.32-.94A6,6,0,0,0,10,4V4A2.13,2.13,0,0,0,8.3,1.8a5.64,5.64,0,0,1-.58-.25L7,1.19V2A2.33,2.33,0,0,0,9.5,4.5h.08a6.81,6.81,0,0,0-.8,1.23A1.5,1.5,0,0,0,6,6.5s0,.06,0,.09A1.71,1.71,0,0,0,5.5,6.5,1.5,1.5,0,0,0,5,9.4a1.53,1.53,0,0,0-.48,1.1,1.49,1.49,0,0,0,1,1.4A1.53,1.53,0,0,0,5,13a1.5,1.5,0,0,0,3,0s0-.06,0-.09A1.71,1.71,0,0,0,8.5,13,1.5,1.5,0,0,0,10,11.5s0-.06,0-.09a1.71,1.71,0,0,0,.51.09A1.5,1.5,0,0,0,11,8.6Zm16,0a1.53,1.53,0,0,0,.48-1.1A1.5,1.5,0,0,0,26,6l-.24,0a5.58,5.58,0,0,1,2.9-2.55l-.32-.94A6,6,0,0,0,26,4V4a2.13,2.13,0,0,0-1.7-2.2,5.64,5.64,0,0,1-.58-.25L23,1.19V2a2.33,2.33,0,0,0,2.5,2.5h.08a6.81,6.81,0,0,0-.8,1.23A1.5,1.5,0,0,0,22,6.5s0,.06,0,.09a1.71,1.71,0,0,0-.51-.09A1.5,1.5,0,0,0,21,9.4a1.53,1.53,0,0,0-.48,1.1,1.49,1.49,0,0,0,1,1.4A1.53,1.53,0,0,0,21,13a1.5,1.5,0,0,0,3,0s0-.06,0-.09a1.71,1.71,0,0,0,.51.09A1.5,1.5,0,0,0,26,11.5s0-.06,0-.09a1.71,1.71,0,0,0,.51.09A1.5,1.5,0,0,0,27,8.6Zm16,0a1.53,1.53,0,0,0,.48-1.1A1.5,1.5,0,0,0,42,6l-.24,0a5.58,5.58,0,0,1,2.9-2.55l-.32-.94A6,6,0,0,0,42,4V4a2.13,2.13,0,0,0-1.7-2.2,5.64,5.64,0,0,1-.58-.25L39,1.19V2a2.33,2.33,0,0,0,2.5,2.5h.08a6.81,6.81,0,0,0-.8,1.23A1.5,1.5,0,0,0,38,6.5s0,.06,0,.09a1.71,1.71,0,0,0-.51-.09A1.5,1.5,0,0,0,37,9.4a1.53,1.53,0,0,0-.48,1.1,1.49,1.49,0,0,0,1,1.4A1.53,1.53,0,0,0,37,13a1.5,1.5,0,0,0,3,0s0-.06,0-.09a1.71,1.71,0,0,0,.51.09A1.5,1.5,0,0,0,42,11.5s0-.06,0-.09a1.71,1.71,0,0,0,.51.09A1.5,1.5,0,0,0,43,8.6Zm16,0a1.53,1.53,0,0,0,.48-1.1A1.5,1.5,0,0,0,58,6l-.24,0a5.58,5.58,0,0,1,2.9-2.55l-.32-.94A6,6,0,0,0,58,4V4a2.13,2.13,0,0,0-1.7-2.2,5.64,5.64,0,0,1-.58-.25L55,1.19V2a2.33,2.33,0,0,0,2.5,2.5h.08a6.81,6.81,0,0,0-.8,1.23A1.5,1.5,0,0,0,54,6.5s0,.06,0,.09a1.71,1.71,0,0,0-.51-.09A1.5,1.5,0,0,0,53,9.4a1.53,1.53,0,0,0-.48,1.1,1.49,1.49,0,0,0,1,1.4A1.53,1.53,0,0,0,53,13a1.5,1.5,0,0,0,3,0s0-.06,0-.09a1.71,1.71,0,0,0,.51.09A1.5,1.5,0,0,0,58,11.5s0-.06,0-.09a1.71,1.71,0,0,0,.51.09A1.5,1.5,0,0,0,59,8.6ZM11,29.93a1.5,1.5,0,0,0-1-2.6,1,1,0,0,0-.24,0,5.54,5.54,0,0,1,2.9-2.55l-.32-.95A6.19,6.19,0,0,0,10,25.37v0a2.14,2.14,0,0,0-1.7-2.2l-.58-.24L7,22.52v.81a2.33,2.33,0,0,0,2.5,2.5h.08a6.81,6.81,0,0,0-.8,1.23A1.5,1.5,0,0,0,6,27.83s0,.07,0,.1a1.45,1.45,0,0,0-.51-.1A1.5,1.5,0,0,0,5,30.74a1.49,1.49,0,0,0,.5,2.5A1.5,1.5,0,1,0,8,34.33s0-.06,0-.09a1.44,1.44,0,0,0,.51.09,1.5,1.5,0,0,0,1.5-1.5s0-.06,0-.09a1.44,1.44,0,0,0,.51.09,1.5,1.5,0,0,0,.52-2.9Zm16,0a1.5,1.5,0,0,0-1-2.6,1,1,0,0,0-.24,0,5.54,5.54,0,0,1,2.9-2.55l-.32-.95A6.19,6.19,0,0,0,26,25.37v0a2.14,2.14,0,0,0-1.7-2.2l-.58-.24L23,22.52v.81a2.33,2.33,0,0,0,2.5,2.5h.08a6.81,6.81,0,0,0-.8,1.23,1.5,1.5,0,0,0-2.78.77s0,.07,0,.1a1.45,1.45,0,0,0-.51-.1A1.5,1.5,0,0,0,21,30.74a1.49,1.49,0,0,0,.5,2.5A1.5,1.5,0,1,0,24,34.33s0-.06,0-.09a1.44,1.44,0,0,0,.51.09,1.5,1.5,0,0,0,1.5-1.5s0-.06,0-.09a1.44,1.44,0,0,0,.51.09,1.5,1.5,0,0,0,.52-2.9Zm16,0a1.5,1.5,0,0,0-1-2.6,1,1,0,0,0-.24,0,5.54,5.54,0,0,1,2.9-2.55l-.32-.95A6.19,6.19,0,0,0,42,25.37v0a2.14,2.14,0,0,0-1.7-2.2l-.58-.24L39,22.52v.81a2.33,2.33,0,0,0,2.5,2.5h.08a6.81,6.81,0,0,0-.8,1.23,1.5,1.5,0,0,0-2.78.77s0,.07,0,.1a1.45,1.45,0,0,0-.51-.1A1.5,1.5,0,0,0,37,30.74a1.49,1.49,0,0,0,.5,2.5A1.5,1.5,0,1,0,40,34.33s0-.06,0-.09a1.44,1.44,0,0,0,.51.09,1.5,1.5,0,0,0,1.5-1.5s0-.06,0-.09a1.44,1.44,0,0,0,.51.09,1.5,1.5,0,0,0,.52-2.9Zm16,0a1.5,1.5,0,0,0-1-2.6,1,1,0,0,0-.24,0,5.54,5.54,0,0,1,2.9-2.55l-.32-.95A6.19,6.19,0,0,0,58,25.37v0a2.14,2.14,0,0,0-1.7-2.2l-.58-.24L55,22.52v.81a2.33,2.33,0,0,0,2.5,2.5h.08a6.81,6.81,0,0,0-.8,1.23,1.5,1.5,0,0,0-2.78.77s0,.07,0,.1a1.45,1.45,0,0,0-.51-.1A1.5,1.5,0,0,0,53,30.74a1.49,1.49,0,0,0,.5,2.5A1.5,1.5,0,1,0,56,34.33s0-.06,0-.09a1.44,1.44,0,0,0,.51.09,1.5,1.5,0,0,0,1.5-1.5s0-.06,0-.09a1.44,1.44,0,0,0,.51.09,1.5,1.5,0,0,0,.52-2.9ZM11,51.26a1.49,1.49,0,0,0-1-2.59l-.24,0a5.54,5.54,0,0,1,2.9-2.55l-.32-1A6.1,6.1,0,0,0,10,46.71v0a2.13,2.13,0,0,0-1.7-2.2c-.19-.08-.38-.15-.58-.25L7,43.86v.81a2.33,2.33,0,0,0,2.5,2.5h.08a6.74,6.74,0,0,0-.8,1.22A1.5,1.5,0,0,0,6,49.17s0,.06,0,.09a1.44,1.44,0,0,0-.51-.09A1.5,1.5,0,0,0,5,52.07a1.49,1.49,0,0,0,.5,2.5A1.5,1.5,0,1,0,8,55.67s0-.07,0-.1a1.45,1.45,0,0,0,.51.1,1.5,1.5,0,0,0,1.5-1.5s0-.07,0-.1a1.45,1.45,0,0,0,.51.1A1.5,1.5,0,0,0,11,51.26Zm16,0a1.49,1.49,0,0,0-1-2.59l-.24,0a5.54,5.54,0,0,1,2.9-2.55l-.32-1A6.1,6.1,0,0,0,26,46.71v0a2.13,2.13,0,0,0-1.7-2.2c-.19-.08-.38-.15-.58-.25L23,43.86v.81a2.33,2.33,0,0,0,2.5,2.5h.08a6.74,6.74,0,0,0-.8,1.22,1.5,1.5,0,0,0-2.78.78s0,.06,0,.09a1.44,1.44,0,0,0-.51-.09,1.5,1.5,0,0,0-.52,2.9,1.49,1.49,0,0,0,.5,2.5A1.5,1.5,0,1,0,24,55.67s0-.07,0-.1a1.45,1.45,0,0,0,.51.1,1.5,1.5,0,0,0,1.5-1.5s0-.07,0-.1a1.45,1.45,0,0,0,.51.1A1.5,1.5,0,0,0,27,51.26Zm16,0a1.49,1.49,0,0,0-1-2.59l-.24,0a5.54,5.54,0,0,1,2.9-2.55l-.32-1A6.1,6.1,0,0,0,42,46.71v0a2.13,2.13,0,0,0-1.7-2.2c-.19-.08-.38-.15-.58-.25L39,43.86v.81a2.33,2.33,0,0,0,2.5,2.5h.08a6.74,6.74,0,0,0-.8,1.22,1.5,1.5,0,0,0-2.78.78s0,.06,0,.09a1.44,1.44,0,0,0-.51-.09,1.5,1.5,0,0,0-.52,2.9,1.49,1.49,0,0,0,.5,2.5A1.5,1.5,0,1,0,40,55.67s0-.07,0-.1a1.45,1.45,0,0,0,.51.1,1.5,1.5,0,0,0,1.5-1.5s0-.07,0-.1a1.45,1.45,0,0,0,.51.1A1.5,1.5,0,0,0,43,51.26Zm16,0a1.49,1.49,0,0,0-1-2.59l-.24,0a5.54,5.54,0,0,1,2.9-2.55l-.32-1A6.1,6.1,0,0,0,58,46.71v0a2.13,2.13,0,0,0-1.7-2.2c-.19-.08-.38-.15-.58-.25L55,43.86v.81a2.33,2.33,0,0,0,2.5,2.5h.08a6.74,6.74,0,0,0-.8,1.22,1.5,1.5,0,0,0-2.78.78s0,.06,0,.09a1.44,1.44,0,0,0-.51-.09,1.5,1.5,0,0,0-.52,2.9,1.49,1.49,0,0,0,.5,2.5A1.5,1.5,0,1,0,56,55.67s0-.07,0-.1a1.45,1.45,0,0,0,.51.1,1.5,1.5,0,0,0,1.5-1.5s0-.07,0-.1a1.45,1.45,0,0,0,.51.1A1.5,1.5,0,0,0,59,51.26Z"/></svg>