<svg id="Sprites" xmlns="http://www.w3.org/2000/svg" viewBox="0 0 64 64"><defs><style>.cls-1{fill:none;}.cls-2{fill:#236035;}</style></defs><g id="vineyard_poly_random_dense_half"><rect id="bbox_64" class="cls-1" width="64" height="64"/><path id="vineyard_random_dense" class="cls-2" d="M4.26,31.3a.8.8,0,0,0,.24-.55A.74.74,0,0,0,3.75,30H3.63a2.86,2.86,0,0,1,1.45-1.28l-.16-.47A3,3,0,0,0,3.75,29v0a1.06,1.06,0,0,0-.85-1.1l-.29-.13-.36-.17V28A1.16,1.16,0,0,0,3.5,29.25h0a3.76,3.76,0,0,0-.4.61.75.75,0,0,0-1.39.39s0,0,0,0a1.17,1.17,0,0,0-.26,0,.75.75,0,0,0-.26,1.45.64.64,0,0,0-.19.3h3.7A.73.73,0,0,0,4.26,31.3Zm10.91.45a.77.77,0,0,0-.56.25h1.12A.77.77,0,0,0,15.17,31.75Zm2.42-1.24a3,3,0,0,0-1.17.76v0a1.06,1.06,0,0,0-.85-1.1L15.29,30l-.37-.17v.4a1.16,1.16,0,0,0,1.25,1.25h0a2.76,2.76,0,0,0-.34.5h.59a2.82,2.82,0,0,1,1.29-1ZM1.05,0A.7.7,0,0,0,1,.25a.74.74,0,0,0,.49.7.8.8,0,0,0-.24.55.75.75,0,0,0,1.5,0s0,0,0-.05A.8.8,0,0,0,3,1.5.75.75,0,0,0,3.75.75s0,0,0-.05A.8.8,0,0,0,4,.75.75.75,0,0,0,4.75,0Zm25.3,25.38a.79.79,0,0,0,.23-.56.75.75,0,0,0-.75-.75l-.12,0a2.78,2.78,0,0,1,1.46-1.27L27,22.34a3.14,3.14,0,0,0-1.18.76v0A1.06,1.06,0,0,0,25,22l-.28-.13-.37-.18v.4a1.17,1.17,0,0,0,1.25,1.25h.05a3.26,3.26,0,0,0-.4.62.77.77,0,0,0-.65-.37.76.76,0,0,0-.75.75s0,0,0,.06a.75.75,0,1,0-.51,1.4.73.73,0,0,0-.25.54.76.76,0,0,0,.5.71.73.73,0,0,0-.25.54.75.75,0,0,0,1.5,0v0a.69.69,0,0,0,.25,0,.74.74,0,0,0,.75-.75v0a.69.69,0,0,0,.25,0,.74.74,0,0,0,.27-1.44Zm-13-5a.79.79,0,0,0,.23-.56.75.75,0,0,0-.75-.75l-.12,0a2.78,2.78,0,0,1,1.46-1.27L14,17.34a3.14,3.14,0,0,0-1.18.76v0A1.06,1.06,0,0,0,12,17l-.28-.13-.37-.18v.4a1.17,1.17,0,0,0,1.25,1.25h.05a3.26,3.26,0,0,0-.4.62.77.77,0,0,0-.65-.37.76.76,0,0,0-.75.75s0,0,0,.06a.75.75,0,1,0-.51,1.4.73.73,0,0,0-.25.54.76.76,0,0,0,.5.71.73.73,0,0,0-.25.54.75.75,0,0,0,1.5,0v0a.69.69,0,0,0,.25,0,.74.74,0,0,0,.75-.75v0a.69.69,0,0,0,.25,0,.74.74,0,0,0,.27-1.44Zm10.5-10a.79.79,0,0,0,.23-.56.75.75,0,0,0-.75-.75l-.12,0a2.78,2.78,0,0,1,1.46-1.27l-.16-.48a3.14,3.14,0,0,0-1.18.76v0A1.06,1.06,0,0,0,22.48,7l-.28-.13-.37-.18v.4a1.17,1.17,0,0,0,1.25,1.25h.05a3.26,3.26,0,0,0-.4.62.77.77,0,0,0-.65-.37.76.76,0,0,0-.75.75s0,0,0,.06a.75.75,0,1,0-.51,1.4.73.73,0,0,0-.25.54.76.76,0,0,0,.5.71.73.73,0,0,0-.25.54.75.75,0,0,0,1.5,0v0a.69.69,0,0,0,.25,0,.74.74,0,0,0,.75-.75v0a.69.69,0,0,0,.25,0,.74.74,0,0,0,.27-1.44Zm7.33,6.38a.76.76,0,0,0-.51-1.31l-.12,0A2.68,2.68,0,0,1,32,14.2l-.16-.48a3,3,0,0,0-1.17.76v0a1.09,1.09,0,0,0-.85-1.1,1.69,1.69,0,0,1-.28-.12l-.37-.18v.4a1.16,1.16,0,0,0,1.25,1.25h0a3.44,3.44,0,0,0-.4.62.74.74,0,0,0-.64-.37.76.76,0,0,0-.75.75v.06a.66.66,0,0,0-.25-.06.75.75,0,0,0-.25,1.46.73.73,0,0,0-.25.54.75.75,0,0,0,.5.71.73.73,0,0,0-.25.54.75.75,0,1,0,1.5,0v0a.66.66,0,0,0,.25,0,.75.75,0,0,0,.75-.75v0a.66.66,0,0,0,.25,0,.75.75,0,0,0,.75-.75A.74.74,0,0,0,31.18,16.76ZM16.93,1.55a.75.75,0,0,0-.51-1.3H16.3A2.26,2.26,0,0,1,16.46,0h-.59l-.06.11A.76.76,0,0,0,15.73,0H14.61a.72.72,0,0,0-.19.5v0a.93.93,0,0,0-.25,0,.75.75,0,0,0-.75.75.73.73,0,0,0,.5.7.77.77,0,0,0-.25.55.75.75,0,0,0,.5.7.77.77,0,0,0-.25.55.75.75,0,1,0,1.5,0v0a.66.66,0,0,0,.25,0A.76.76,0,0,0,16.42,3V3a.66.66,0,0,0,.25,0,.76.76,0,0,0,.75-.75A.74.74,0,0,0,16.93,1.55ZM8.85,7.88a.79.79,0,0,0,.23-.56.75.75,0,0,0-.75-.75l-.12,0A2.78,2.78,0,0,1,9.67,5.32l-.16-.48a3.14,3.14,0,0,0-1.18.76v0a1.06,1.06,0,0,0-.85-1.09L7.2,4.35l-.37-.18v.4A1.17,1.17,0,0,0,8.08,5.82h.05a3.26,3.26,0,0,0-.4.62.77.77,0,0,0-.65-.37.76.76,0,0,0-.75.75s0,0,0,.06a.75.75,0,1,0-.51,1.4.73.73,0,0,0-.25.54.76.76,0,0,0,.5.71.73.73,0,0,0-.25.54.75.75,0,0,0,1.5,0v0a.69.69,0,0,0,.25,0,.74.74,0,0,0,.75-.75v0a.69.69,0,0,0,.25,0,.74.74,0,0,0,.27-1.44Z"/><path id="vineyard_random_dense-2" data-name="vineyard_random_dense" class="cls-2" d="M4.26,63.3a.8.8,0,0,0,.24-.55A.74.74,0,0,0,3.75,62H3.63a2.86,2.86,0,0,1,1.45-1.28l-.16-.47A3,3,0,0,0,3.75,61v0a1.06,1.06,0,0,0-.85-1.1l-.29-.13-.36-.17V60A1.16,1.16,0,0,0,3.5,61.25h0a3.76,3.76,0,0,0-.4.61.75.75,0,0,0-1.39.39v0a1.17,1.17,0,0,0-.26,0,.75.75,0,0,0-.26,1.45.64.64,0,0,0-.19.3h3.7A.73.73,0,0,0,4.26,63.3Zm10.91.45a.77.77,0,0,0-.56.25h1.12A.77.77,0,0,0,15.17,63.75Zm2.42-1.24a3,3,0,0,0-1.17.76v0a1.06,1.06,0,0,0-.85-1.1L15.29,62l-.37-.17v.4a1.16,1.16,0,0,0,1.25,1.25h0a2.76,2.76,0,0,0-.34.5h.59a2.82,2.82,0,0,1,1.29-1ZM1.05,32a.7.7,0,0,0-.05.25.74.74,0,0,0,.49.7.8.8,0,0,0-.24.55.75.75,0,0,0,1.5,0s0,0,0,0a.8.8,0,0,0,.26,0,.75.75,0,0,0,.75-.75s0,0,0,0a.8.8,0,0,0,.26,0A.75.75,0,0,0,4.75,32Zm25.3,25.38a.79.79,0,0,0,.23-.56.75.75,0,0,0-.75-.75l-.12,0a2.78,2.78,0,0,1,1.46-1.27L27,54.34a3.14,3.14,0,0,0-1.18.76v0A1.06,1.06,0,0,0,25,54l-.28-.13-.37-.18v.4a1.17,1.17,0,0,0,1.25,1.25h.05a3.26,3.26,0,0,0-.4.62.77.77,0,0,0-.65-.37.76.76,0,0,0-.75.75s0,0,0,.06a.75.75,0,1,0-.51,1.4.73.73,0,0,0-.25.54.76.76,0,0,0,.5.71.73.73,0,0,0-.25.54.75.75,0,1,0,1.5,0v0a.69.69,0,0,0,.25,0,.74.74,0,0,0,.75-.75v0a.69.69,0,0,0,.25,0,.74.74,0,0,0,.27-1.44Zm-13-5a.79.79,0,0,0,.23-.56.75.75,0,0,0-.75-.75l-.12,0a2.78,2.78,0,0,1,1.46-1.27L14,49.34a3.14,3.14,0,0,0-1.18.76v0A1.06,1.06,0,0,0,12,49l-.28-.13-.37-.18v.4a1.17,1.17,0,0,0,1.25,1.25h.05a3.26,3.26,0,0,0-.4.62.77.77,0,0,0-.65-.37.76.76,0,0,0-.75.75s0,0,0,.06a.75.75,0,1,0-.51,1.4.73.73,0,0,0-.25.54.76.76,0,0,0,.5.71.73.73,0,0,0-.25.54.75.75,0,1,0,1.5,0v0a.69.69,0,0,0,.25,0,.74.74,0,0,0,.75-.75v0a.69.69,0,0,0,.25,0,.74.74,0,0,0,.27-1.44Zm10.5-10a.79.79,0,0,0,.23-.56.75.75,0,0,0-.75-.75l-.12,0a2.78,2.78,0,0,1,1.46-1.27l-.16-.48a3.14,3.14,0,0,0-1.18.76v0A1.06,1.06,0,0,0,22.48,39l-.28-.13-.37-.18v.4a1.17,1.17,0,0,0,1.25,1.25h.05a3.26,3.26,0,0,0-.4.62.77.77,0,0,0-.65-.37.76.76,0,0,0-.75.75s0,0,0,.06a.75.75,0,1,0-.51,1.4.73.73,0,0,0-.25.54.76.76,0,0,0,.5.71.73.73,0,0,0-.25.54.75.75,0,1,0,1.5,0v0a.69.69,0,0,0,.25,0,.74.74,0,0,0,.75-.75v0a.69.69,0,0,0,.25,0,.74.74,0,0,0,.27-1.44Zm7.33,6.38a.76.76,0,0,0-.51-1.31l-.12,0A2.68,2.68,0,0,1,32,46.2l-.16-.48a3,3,0,0,0-1.17.76v0a1.09,1.09,0,0,0-.85-1.1,1.69,1.69,0,0,1-.28-.12l-.37-.18v.4a1.16,1.16,0,0,0,1.25,1.25h0a3.44,3.44,0,0,0-.4.62.74.74,0,0,0-.64-.37.76.76,0,0,0-.75.75v.06a.66.66,0,0,0-.25-.06.75.75,0,0,0-.25,1.46.73.73,0,0,0-.25.54.75.75,0,0,0,.5.71.73.73,0,0,0-.25.54.75.75,0,0,0,1.5,0v0a.66.66,0,0,0,.25,0,.75.75,0,0,0,.75-.75v0a.66.66,0,0,0,.25,0,.75.75,0,0,0,.75-.75A.74.74,0,0,0,31.18,48.76ZM16.93,33.55a.75.75,0,0,0-.51-1.3H16.3a2.26,2.26,0,0,1,.16-.26h-.59l-.06.11a.76.76,0,0,0-.08-.11H14.61a.72.72,0,0,0-.19.5v0a.93.93,0,0,0-.25,0,.75.75,0,0,0-.75.75.73.73,0,0,0,.5.7.77.77,0,0,0-.25.55.75.75,0,0,0,.5.7.77.77,0,0,0-.25.55.75.75,0,0,0,1.5,0v0a.66.66,0,0,0,.25,0,.76.76,0,0,0,.75-.75v0a.66.66,0,0,0,.25,0,.76.76,0,0,0,.75-.75A.74.74,0,0,0,16.93,33.55ZM8.85,39.88a.79.79,0,0,0,.23-.56.75.75,0,0,0-.75-.75l-.12,0a2.78,2.78,0,0,1,1.46-1.27l-.16-.48a3.14,3.14,0,0,0-1.18.76v0a1.06,1.06,0,0,0-.85-1.09l-.28-.13-.37-.18v.4a1.17,1.17,0,0,0,1.25,1.25h.05a3.26,3.26,0,0,0-.4.62.77.77,0,0,0-.65-.37.76.76,0,0,0-.75.75s0,0,0,.06a.75.75,0,1,0-.51,1.4.73.73,0,0,0-.25.54.76.76,0,0,0,.5.71.73.73,0,0,0-.25.54.75.75,0,0,0,1.5,0v0a.69.69,0,0,0,.25,0,.74.74,0,0,0,.75-.75v0a.69.69,0,0,0,.25,0,.74.74,0,0,0,.27-1.44Z"/><path id="vineyard_random_dense-3" data-name="vineyard_random_dense" class="cls-2" d="M36.26,31.3a.8.8,0,0,0,.24-.55.74.74,0,0,0-.75-.75h-.12a2.86,2.86,0,0,1,1.45-1.28l-.16-.47a3,3,0,0,0-1.17.76v0a1.06,1.06,0,0,0-.85-1.1l-.29-.13-.36-.17V28a1.16,1.16,0,0,0,1.25,1.25h0a3.76,3.76,0,0,0-.4.61.75.75,0,0,0-1.39.39s0,0,0,0a1.17,1.17,0,0,0-.26,0,.75.75,0,0,0-.26,1.45.64.64,0,0,0-.19.3h3.7A.73.73,0,0,0,36.26,31.3Zm10.91.45a.77.77,0,0,0-.56.25h1.12A.77.77,0,0,0,47.17,31.75Zm2.42-1.24a3,3,0,0,0-1.17.76v0a1.06,1.06,0,0,0-.85-1.1L47.29,30l-.37-.17v.4a1.16,1.16,0,0,0,1.25,1.25h0a2.76,2.76,0,0,0-.34.5h.59a2.82,2.82,0,0,1,1.29-1ZM33.05,0a.7.7,0,0,0,0,.25.74.74,0,0,0,.49.7.8.8,0,0,0-.24.55.75.75,0,0,0,1.5,0s0,0,0-.05A.8.8,0,0,0,35,1.5a.75.75,0,0,0,.75-.75s0,0,0-.05A.8.8,0,0,0,36,.75.75.75,0,0,0,36.75,0Zm25.3,25.38a.79.79,0,0,0,.23-.56.75.75,0,0,0-.75-.75l-.12,0a2.78,2.78,0,0,1,1.46-1.27L59,22.34a3.14,3.14,0,0,0-1.18.76v0A1.06,1.06,0,0,0,57,22l-.28-.13-.37-.18v.4a1.17,1.17,0,0,0,1.25,1.25h.05a3.26,3.26,0,0,0-.4.62.77.77,0,0,0-.65-.37.76.76,0,0,0-.75.75s0,0,0,.06a.75.75,0,1,0-.51,1.4.73.73,0,0,0-.25.54.76.76,0,0,0,.5.71.73.73,0,0,0-.25.54.75.75,0,1,0,1.5,0v0a.69.69,0,0,0,.25,0,.74.74,0,0,0,.75-.75v0a.69.69,0,0,0,.25,0,.74.74,0,0,0,.27-1.44Zm-13-5a.79.79,0,0,0,.23-.56.75.75,0,0,0-.75-.75l-.12,0a2.78,2.78,0,0,1,1.46-1.27L46,17.34a3.14,3.14,0,0,0-1.18.76v0A1.06,1.06,0,0,0,44,17l-.28-.13-.37-.18v.4a1.17,1.17,0,0,0,1.25,1.25h.05a3.26,3.26,0,0,0-.4.62.77.77,0,0,0-.65-.37.76.76,0,0,0-.75.75s0,0,0,.06a.75.75,0,1,0-.51,1.4.73.73,0,0,0-.25.54.76.76,0,0,0,.5.71.73.73,0,0,0-.25.54.75.75,0,1,0,1.5,0v0a.69.69,0,0,0,.25,0,.74.74,0,0,0,.75-.75v0a.69.69,0,0,0,.25,0,.74.74,0,0,0,.27-1.44Zm10.5-10a.79.79,0,0,0,.23-.56.75.75,0,0,0-.75-.75l-.12,0a2.78,2.78,0,0,1,1.46-1.27l-.16-.48a3.14,3.14,0,0,0-1.18.76v0A1.06,1.06,0,0,0,54.48,7l-.28-.13-.37-.18v.4a1.17,1.17,0,0,0,1.25,1.25h.05a3.26,3.26,0,0,0-.4.62.77.77,0,0,0-.65-.37.76.76,0,0,0-.75.75s0,0,0,.06a.75.75,0,1,0-.51,1.4.73.73,0,0,0-.25.54.76.76,0,0,0,.5.71.73.73,0,0,0-.25.54.75.75,0,1,0,1.5,0v0a.69.69,0,0,0,.25,0,.74.74,0,0,0,.75-.75v0a.69.69,0,0,0,.25,0,.74.74,0,0,0,.27-1.44Zm7.33,6.38a.76.76,0,0,0-.51-1.31l-.12,0A2.68,2.68,0,0,1,64,14.2l-.16-.48a3,3,0,0,0-1.17.76v0a1.09,1.09,0,0,0-.85-1.1,1.69,1.69,0,0,1-.28-.12l-.37-.18v.4a1.16,1.16,0,0,0,1.25,1.25h0a3.44,3.44,0,0,0-.4.62.74.74,0,0,0-.64-.37.76.76,0,0,0-.75.75v.06a.66.66,0,0,0-.25-.06.75.75,0,0,0-.25,1.46.73.73,0,0,0-.25.54.75.75,0,0,0,.5.71.73.73,0,0,0-.25.54.75.75,0,1,0,1.5,0v0a.66.66,0,0,0,.25,0,.75.75,0,0,0,.75-.75v0a.66.66,0,0,0,.25,0,.75.75,0,0,0,.75-.75A.74.74,0,0,0,63.18,16.76ZM48.93,1.55a.75.75,0,0,0-.51-1.3H48.3A2.26,2.26,0,0,1,48.46,0h-.59l-.06.11A.76.76,0,0,0,47.73,0H46.61a.72.72,0,0,0-.19.5v0a.93.93,0,0,0-.25,0,.75.75,0,0,0-.75.75.73.73,0,0,0,.5.7.77.77,0,0,0-.25.55.75.75,0,0,0,.5.7.77.77,0,0,0-.25.55.75.75,0,0,0,1.5,0v0a.66.66,0,0,0,.25,0A.76.76,0,0,0,48.42,3V3a.66.66,0,0,0,.25,0,.76.76,0,0,0,.75-.75A.74.74,0,0,0,48.93,1.55ZM40.85,7.88a.79.79,0,0,0,.23-.56.75.75,0,0,0-.75-.75l-.12,0a2.78,2.78,0,0,1,1.46-1.27l-.16-.48a3.14,3.14,0,0,0-1.18.76v0a1.06,1.06,0,0,0-.85-1.09l-.28-.13-.37-.18v.4a1.17,1.17,0,0,0,1.25,1.25h.05a3.26,3.26,0,0,0-.4.62.77.77,0,0,0-.65-.37.76.76,0,0,0-.75.75s0,0,0,.06a.75.75,0,1,0-.51,1.4.73.73,0,0,0-.25.54.76.76,0,0,0,.5.71.73.73,0,0,0-.25.54.75.75,0,0,0,1.5,0v0a.69.69,0,0,0,.25,0,.74.74,0,0,0,.75-.75v0a.69.69,0,0,0,.25,0,.74.74,0,0,0,.27-1.44Z"/><path id="vineyard_random_dense-4" data-name="vineyard_random_dense" class="cls-2" d="M36.26,63.3a.8.8,0,0,0,.24-.55.74.74,0,0,0-.75-.75h-.12a2.86,2.86,0,0,1,1.45-1.28l-.16-.47a3,3,0,0,0-1.17.76v0a1.06,1.06,0,0,0-.85-1.1l-.29-.13-.36-.17V60a1.16,1.16,0,0,0,1.25,1.25h0a3.76,3.76,0,0,0-.4.61.75.75,0,0,0-1.39.39v0a1.17,1.17,0,0,0-.26,0,.75.75,0,0,0-.26,1.45.64.64,0,0,0-.19.3h3.7A.73.73,0,0,0,36.26,63.3Zm10.91.45a.77.77,0,0,0-.56.25h1.12A.77.77,0,0,0,47.17,63.75Zm2.42-1.24a3,3,0,0,0-1.17.76v0a1.06,1.06,0,0,0-.85-1.1L47.29,62l-.37-.17v.4a1.16,1.16,0,0,0,1.25,1.25h0a2.76,2.76,0,0,0-.34.5h.59a2.82,2.82,0,0,1,1.29-1ZM33.05,32a.7.7,0,0,0,0,.25.74.74,0,0,0,.49.7.8.8,0,0,0-.24.55.75.75,0,0,0,1.5,0s0,0,0,0a.8.8,0,0,0,.26,0,.75.75,0,0,0,.75-.75s0,0,0,0a.8.8,0,0,0,.26,0,.75.75,0,0,0,.75-.75Zm25.3,25.38a.79.79,0,0,0,.23-.56.75.75,0,0,0-.75-.75l-.12,0a2.78,2.78,0,0,1,1.46-1.27L59,54.34a3.14,3.14,0,0,0-1.18.76v0A1.06,1.06,0,0,0,57,54l-.28-.13-.37-.18v.4a1.17,1.17,0,0,0,1.25,1.25h.05a3.26,3.26,0,0,0-.4.62.77.77,0,0,0-.65-.37.76.76,0,0,0-.75.75s0,0,0,.06a.75.75,0,1,0-.51,1.4.73.73,0,0,0-.25.54.76.76,0,0,0,.5.71.73.73,0,0,0-.25.54.75.75,0,1,0,1.5,0v0a.69.69,0,0,0,.25,0,.74.74,0,0,0,.75-.75v0a.69.69,0,0,0,.25,0,.74.74,0,0,0,.27-1.44Zm-13-5a.79.79,0,0,0,.23-.56.75.75,0,0,0-.75-.75l-.12,0a2.78,2.78,0,0,1,1.46-1.27L46,49.34a3.14,3.14,0,0,0-1.18.76v0A1.06,1.06,0,0,0,44,49l-.28-.13-.37-.18v.4a1.17,1.17,0,0,0,1.25,1.25h.05a3.26,3.26,0,0,0-.4.62.77.77,0,0,0-.65-.37.76.76,0,0,0-.75.75s0,0,0,.06a.75.75,0,1,0-.51,1.4.73.73,0,0,0-.25.54.76.76,0,0,0,.5.71.73.73,0,0,0-.25.54.75.75,0,1,0,1.5,0v0a.69.69,0,0,0,.25,0,.74.74,0,0,0,.75-.75v0a.69.69,0,0,0,.25,0,.74.74,0,0,0,.27-1.44Zm10.5-10a.79.79,0,0,0,.23-.56.75.75,0,0,0-.75-.75l-.12,0a2.78,2.78,0,0,1,1.46-1.27l-.16-.48a3.14,3.14,0,0,0-1.18.76v0A1.06,1.06,0,0,0,54.48,39l-.28-.13-.37-.18v.4a1.17,1.17,0,0,0,1.25,1.25h.05a3.26,3.26,0,0,0-.4.62.77.77,0,0,0-.65-.37.76.76,0,0,0-.75.75s0,0,0,.06a.75.75,0,1,0-.51,1.4.73.73,0,0,0-.25.54.76.76,0,0,0,.5.71.73.73,0,0,0-.25.54.75.75,0,1,0,1.5,0v0a.69.69,0,0,0,.25,0,.74.74,0,0,0,.75-.75v0a.69.69,0,0,0,.25,0,.74.74,0,0,0,.27-1.44Zm7.33,6.38a.76.76,0,0,0-.51-1.31l-.12,0A2.68,2.68,0,0,1,64,46.2l-.16-.48a3,3,0,0,0-1.17.76v0a1.09,1.09,0,0,0-.85-1.1,1.69,1.69,0,0,1-.28-.12l-.37-.18v.4a1.16,1.16,0,0,0,1.25,1.25h0a3.44,3.44,0,0,0-.4.62.74.74,0,0,0-.64-.37.76.76,0,0,0-.75.75v.06a.66.66,0,0,0-.25-.06.75.75,0,0,0-.25,1.46.73.73,0,0,0-.25.54.75.75,0,0,0,.5.71.73.73,0,0,0-.25.54.75.75,0,0,0,1.5,0v0a.66.66,0,0,0,.25,0,.75.75,0,0,0,.75-.75v0a.66.66,0,0,0,.25,0,.75.75,0,0,0,.75-.75A.74.74,0,0,0,63.18,48.76ZM48.93,33.55a.75.75,0,0,0-.51-1.3H48.3a2.26,2.26,0,0,1,.16-.26h-.59l-.06.11a.76.76,0,0,0-.08-.11H46.61a.72.72,0,0,0-.19.5v0a.93.93,0,0,0-.25,0,.75.75,0,0,0-.75.75.73.73,0,0,0,.5.7.77.77,0,0,0-.25.55.75.75,0,0,0,.5.7.77.77,0,0,0-.25.55.75.75,0,0,0,1.5,0v0a.66.66,0,0,0,.25,0,.76.76,0,0,0,.75-.75v0a.66.66,0,0,0,.25,0,.76.76,0,0,0,.75-.75A.74.74,0,0,0,48.93,33.55Zm-8.08,6.33a.79.79,0,0,0,.23-.56.75.75,0,0,0-.75-.75l-.12,0a2.78,2.78,0,0,1,1.46-1.27l-.16-.48a3.14,3.14,0,0,0-1.18.76v0a1.06,1.06,0,0,0-.85-1.09l-.28-.13-.37-.18v.4a1.17,1.17,0,0,0,1.25,1.25h.05a3.26,3.26,0,0,0-.4.62.77.77,0,0,0-.65-.37.76.76,0,0,0-.75.75s0,0,0,.06a.75.75,0,1,0-.51,1.4.73.73,0,0,0-.25.54.76.76,0,0,0,.5.71.73.73,0,0,0-.25.54.75.75,0,1,0,1.5,0v0a.69.69,0,0,0,.25,0,.74.74,0,0,0,.75-.75v0a.69.69,0,0,0,.25,0,.74.74,0,0,0,.27-1.44Z"/></g></svg>