<svg id="Sprites" xmlns="http://www.w3.org/2000/svg" viewBox="0 0 64 64"><defs><style>.cls-1{fill:#236035;}</style></defs><path id="vineyard_poly_random_dense" class="cls-1" d="M17.69,15.75a1.5,1.5,0,0,0-1-2.6l-.24,0a5.54,5.54,0,0,1,2.9-2.55l-.32-1a6.27,6.27,0,0,0-2.34,1.51v0A2.12,2.12,0,0,0,15,9l-.58-.25-.72-.36v.8a2.33,2.33,0,0,0,2.5,2.5h.09a6.37,6.37,0,0,0-.81,1.23,1.5,1.5,0,0,0-2.78.77s0,.07,0,.1a1.45,1.45,0,0,0-.51-.1,1.5,1.5,0,0,0-.52,2.91,1.49,1.49,0,0,0,.5,2.5,1.5,1.5,0,1,0,2.52,1.09s0-.06,0-.09a1.44,1.44,0,0,0,.51.09,1.5,1.5,0,0,0,1.5-1.5s0-.06,0-.09a1.44,1.44,0,0,0,.51.09,1.5,1.5,0,0,0,.52-2.9ZM33.86,3.1A1.53,1.53,0,0,0,34.34,2,1.5,1.5,0,0,0,32.84.5l-.24,0A4,4,0,0,1,32.92,0H31.74l-.12.23A1.24,1.24,0,0,0,31.45,0a1.45,1.45,0,0,0-1.11-.5,1.47,1.47,0,0,0-1.11.5,1.47,1.47,0,0,0-.39,1s0,.06,0,.09A1.71,1.71,0,0,0,28.34,1a1.49,1.49,0,0,0-.51,2.9A1.51,1.51,0,0,0,27.34,5a1.48,1.48,0,0,0,1,1.4,1.5,1.5,0,1,0,2.51,1.1s0-.06,0-.09a1.71,1.71,0,0,0,.51.09A1.5,1.5,0,0,0,32.84,6s0-.06,0-.09a1.71,1.71,0,0,0,.51.09,1.5,1.5,0,0,0,.52-2.9Zm28.5,30.41a1.5,1.5,0,0,0-1-2.6,1,1,0,0,0-.24,0A5.54,5.54,0,0,1,64,28.39l-.32-.95A6.27,6.27,0,0,0,61.34,29v0a2.14,2.14,0,0,0-1.7-2.2c-.18-.07-.38-.15-.57-.24l-.73-.37v.81a2.33,2.33,0,0,0,2.5,2.5h.09a6.37,6.37,0,0,0-.81,1.23,1.5,1.5,0,0,0-2.78.77s0,.07,0,.1a1.45,1.45,0,0,0-.51-.1,1.5,1.5,0,0,0-.51,2.91,1.47,1.47,0,0,0-.49,1.09,1.51,1.51,0,0,0,1,1.41,1.47,1.47,0,0,0-.49,1.09,1.5,1.5,0,0,0,3,0s0-.06,0-.09a1.44,1.44,0,0,0,.51.09,1.5,1.5,0,0,0,1.5-1.5s0-.06,0-.09a1.44,1.44,0,0,0,.51.09,1.5,1.5,0,0,0,.52-2.9ZM47.69,20.75a1.5,1.5,0,0,0-1-2.6,2,2,0,0,0-.24,0,5.54,5.54,0,0,1,2.9-2.55l-.32-1a6.27,6.27,0,0,0-2.34,1.51v0A2.12,2.12,0,0,0,45,14l-.58-.25-.72-.36v.8a2.33,2.33,0,0,0,2.5,2.5h.09a6.37,6.37,0,0,0-.81,1.23,1.5,1.5,0,0,0-2.78.77s0,.07,0,.1a1.45,1.45,0,0,0-.51-.1,1.5,1.5,0,0,0-.52,2.91,1.49,1.49,0,0,0,.5,2.5,1.5,1.5,0,1,0,2.52,1.09s0-.06,0-.09a1.44,1.44,0,0,0,.51.09,1.5,1.5,0,0,0,1.5-1.5s0-.06,0-.09a1.44,1.44,0,0,0,.51.09,1.5,1.5,0,0,0,.52-2.9Zm-21,20a1.5,1.5,0,0,0-1-2.6l-.24,0a5.54,5.54,0,0,1,2.9-2.55l-.32-1a6.27,6.27,0,0,0-2.34,1.51v0A2.12,2.12,0,0,0,24,34l-.58-.25-.72-.36v.8a2.33,2.33,0,0,0,2.5,2.5h.09a6.37,6.37,0,0,0-.81,1.23,1.5,1.5,0,0,0-2.78.77s0,.07,0,.1a1.45,1.45,0,0,0-.51-.1,1.5,1.5,0,0,0-.52,2.91,1.49,1.49,0,0,0,.5,2.5,1.5,1.5,0,1,0,2.52,1.09s0-.06,0-.09a1.44,1.44,0,0,0,.51.09,1.5,1.5,0,0,0,1.5-1.5s0-.06,0-.09a1.44,1.44,0,0,0,.51.09,1.5,1.5,0,0,0,.52-2.9Zm26,10a1.5,1.5,0,0,0-1-2.6l-.24,0a5.54,5.54,0,0,1,2.9-2.55l-.32-1a6.27,6.27,0,0,0-2.34,1.51v0A2.12,2.12,0,0,0,50,44l-.58-.25-.72-.36v.8a2.33,2.33,0,0,0,2.5,2.5h.09a6.37,6.37,0,0,0-.81,1.23,1.5,1.5,0,0,0-2.78.77s0,.07,0,.1a1.45,1.45,0,0,0-.51-.1,1.5,1.5,0,0,0-.52,2.91,1.49,1.49,0,0,0,.5,2.5,1.5,1.5,0,1,0,2.52,1.09s0-.06,0-.09a1.44,1.44,0,0,0,.51.09,1.5,1.5,0,0,0,1.5-1.5s0-.06,0-.09a1.44,1.44,0,0,0,.51.09,1.5,1.5,0,0,0,.52-2.9ZM2.09,0A1.39,1.39,0,0,0,2,.5,1.49,1.49,0,0,0,3,1.9,1.53,1.53,0,0,0,2.5,3a1.5,1.5,0,0,0,3,0s0-.06,0-.09A1.71,1.71,0,0,0,6,3,1.5,1.5,0,0,0,7.5,1.5s0-.06,0-.09A1.71,1.71,0,0,0,8,1.5,1.5,1.5,0,0,0,9.5,0ZM35.18,61a6,6,0,0,0-2.34,1.51v0a2.13,2.13,0,0,0-1.7-2.2,5.51,5.51,0,0,1-.57-.25l-.73-.36v.81a2.33,2.33,0,0,0,2.5,2.5h.09a6.6,6.6,0,0,0-.69,1h1.18a5.5,5.5,0,0,1,2.58-2Zm-5.95,3h2.22a1.45,1.45,0,0,0-1.11-.5A1.47,1.47,0,0,0,29.23,64ZM8.52,62.6A1.53,1.53,0,0,0,9,61.5,1.5,1.5,0,0,0,7.5,60l-.24,0a5.58,5.58,0,0,1,2.9-2.55l-.32-.94A6,6,0,0,0,7.5,58v0a2.13,2.13,0,0,0-1.7-2.2,5.64,5.64,0,0,1-.58-.25l-.72-.36V56A2.33,2.33,0,0,0,7,58.5h.08a6.81,6.81,0,0,0-.8,1.23,1.5,1.5,0,0,0-2.78.77s0,.06,0,.09A1.71,1.71,0,0,0,3,60.5a1.5,1.5,0,0,0-.52,2.9,1.6,1.6,0,0,0-.39.6H9.5A1.49,1.49,0,0,0,8.52,62.6Z"/></svg>