<svg id="Sprites" xmlns="http://www.w3.org/2000/svg" viewBox="0 0 64 64"><defs><style>.cls-1{fill:none;}.cls-2{fill:#236035;}</style></defs><g id="vineyard_poly_random_sparse_half"><rect id="bbox_64" class="cls-1" width="64" height="64"/><path id="vineyard_random_sparse" class="cls-2" d="M8.84,7.88a.77.77,0,0,0,.25-.55.75.75,0,0,0-.75-.75H8.21A2.86,2.86,0,0,1,9.66,5.31l-.15-.47a3,3,0,0,0-1.17.76v0a1.07,1.07,0,0,0-.85-1.1L7.2,4.35l-.36-.18v.41A1.16,1.16,0,0,0,8.09,5.83h0a2.91,2.91,0,0,0-.4.61.75.75,0,0,0-.64-.36.74.74,0,0,0-.75.75v0a1,1,0,0,0-.25,0,.75.75,0,0,0-.26,1.45.75.75,0,0,0,.25,1.25.74.74,0,0,0-.24.55.75.75,0,1,0,1.5,0s0,0,0-.05a.74.74,0,0,0,1-.7s0,0,0-.05a.74.74,0,0,0,1-.7A.74.74,0,0,0,8.84,7.88Zm15,2.5a.77.77,0,0,0,.25-.55.75.75,0,0,0-.75-.75h-.13a2.86,2.86,0,0,1,1.45-1.28l-.15-.47a3,3,0,0,0-1.17.76v0A1.07,1.07,0,0,0,22.49,7l-.29-.13-.36-.18v.41a1.16,1.16,0,0,0,1.25,1.25h0a2.91,2.91,0,0,0-.4.61.75.75,0,0,0-.64-.36.74.74,0,0,0-.75.75v0a1,1,0,0,0-.25,0,.75.75,0,0,0-.26,1.45A.75.75,0,0,0,21.08,12a.74.74,0,0,0-.24.55.75.75,0,1,0,1.5,0s0,0,0-.05a.74.74,0,0,0,1-.7s0,0,0-.05a.74.74,0,0,0,1-.7A.74.74,0,0,0,23.84,10.38Zm-10.5,10a.77.77,0,0,0,.25-.55.75.75,0,0,0-.75-.75h-.13a2.86,2.86,0,0,1,1.45-1.28L14,17.34a3,3,0,0,0-1.17.76v0A1.07,1.07,0,0,0,12,17l-.29-.13-.36-.18v.41a1.16,1.16,0,0,0,1.25,1.25h0a2.91,2.91,0,0,0-.4.61.75.75,0,0,0-.64-.36.74.74,0,0,0-.75.75v0a1,1,0,0,0-.25,0,.75.75,0,0,0-.26,1.45A.75.75,0,0,0,10.58,22a.74.74,0,0,0-.24.55.75.75,0,0,0,1.5,0s0,0,0,0a.74.74,0,0,0,1-.7s0,0,0,0a.74.74,0,0,0,1-.7A.74.74,0,0,0,13.34,20.38Zm13,5a.77.77,0,0,0,.25-.55.75.75,0,0,0-.75-.75h-.13a2.86,2.86,0,0,1,1.45-1.28L27,22.34a3,3,0,0,0-1.17.76v0A1.07,1.07,0,0,0,25,22l-.29-.13-.36-.18v.41a1.16,1.16,0,0,0,1.25,1.25h0a2.91,2.91,0,0,0-.4.61.75.75,0,0,0-.64-.36.74.74,0,0,0-.75.75v0a1,1,0,0,0-.25,0,.75.75,0,0,0-.26,1.45A.75.75,0,0,0,23.58,27a.74.74,0,0,0-.24.55.75.75,0,0,0,1.5,0s0,0,0,0a.74.74,0,0,0,1-.7s0,0,0,0a.74.74,0,0,0,1-.7A.74.74,0,0,0,26.34,25.38Z"/><path id="vineyard_random_sparse-2" data-name="vineyard_random_sparse" class="cls-2" d="M8.84,39.88a.77.77,0,0,0,.25-.55.75.75,0,0,0-.75-.75H8.21a2.86,2.86,0,0,1,1.45-1.28l-.15-.47a3,3,0,0,0-1.17.76v0a1.07,1.07,0,0,0-.85-1.1l-.29-.13-.36-.18v.41a1.16,1.16,0,0,0,1.25,1.25h0a2.91,2.91,0,0,0-.4.61.75.75,0,0,0-.64-.36.74.74,0,0,0-.75.75v0a1,1,0,0,0-.25,0,.75.75,0,0,0-.26,1.45.75.75,0,0,0,.25,1.25.74.74,0,0,0-.24.55.75.75,0,0,0,1.5,0s0,0,0,0a.74.74,0,0,0,1-.7s0,0,0,0a.74.74,0,0,0,1-.7A.74.74,0,0,0,8.84,39.88Zm15,2.5a.77.77,0,0,0,.25-.55.75.75,0,0,0-.75-.75h-.13a2.86,2.86,0,0,1,1.45-1.28l-.15-.47a3,3,0,0,0-1.17.76v0a1.07,1.07,0,0,0-.85-1.1l-.29-.13-.36-.18v.41a1.16,1.16,0,0,0,1.25,1.25h0a2.91,2.91,0,0,0-.4.61.75.75,0,0,0-.64-.36.74.74,0,0,0-.75.75v0a1,1,0,0,0-.25,0,.75.75,0,0,0-.26,1.45A.75.75,0,0,0,21.08,44a.74.74,0,0,0-.24.55.75.75,0,0,0,1.5,0s0,0,0,0a.74.74,0,0,0,1-.7s0,0,0,0a.74.74,0,0,0,1-.7A.74.74,0,0,0,23.84,42.38Zm-10.5,10a.77.77,0,0,0,.25-.55.75.75,0,0,0-.75-.75h-.13a2.86,2.86,0,0,1,1.45-1.28L14,49.34a3,3,0,0,0-1.17.76v0A1.07,1.07,0,0,0,12,49l-.29-.13-.36-.18v.41a1.16,1.16,0,0,0,1.25,1.25h0a2.91,2.91,0,0,0-.4.61.75.75,0,0,0-.64-.36.74.74,0,0,0-.75.75v0a1,1,0,0,0-.25,0,.75.75,0,0,0-.26,1.45A.75.75,0,0,0,10.58,54a.74.74,0,0,0-.24.55.75.75,0,0,0,1.5,0s0,0,0,0a.74.74,0,0,0,1-.7s0,0,0,0a.74.74,0,0,0,1-.7A.74.74,0,0,0,13.34,52.38Zm13,5a.77.77,0,0,0,.25-.55.75.75,0,0,0-.75-.75h-.13a2.86,2.86,0,0,1,1.45-1.28L27,54.34a3,3,0,0,0-1.17.76v0A1.07,1.07,0,0,0,25,54l-.29-.13-.36-.18v.41a1.16,1.16,0,0,0,1.25,1.25h0a2.91,2.91,0,0,0-.4.61.75.75,0,0,0-.64-.36.74.74,0,0,0-.75.75v0a1,1,0,0,0-.25,0,.75.75,0,0,0-.26,1.45A.75.75,0,0,0,23.58,59a.74.74,0,0,0-.24.55.75.75,0,0,0,1.5,0s0,0,0,0a.74.74,0,0,0,1-.7s0,0,0,0a.74.74,0,0,0,1-.7A.74.74,0,0,0,26.34,57.38Z"/><path id="vineyard_random_sparse-3" data-name="vineyard_random_sparse" class="cls-2" d="M40.84,7.88a.77.77,0,0,0,.25-.55.75.75,0,0,0-.75-.75h-.13a2.86,2.86,0,0,1,1.45-1.28l-.15-.47a3,3,0,0,0-1.17.76v0a1.07,1.07,0,0,0-.85-1.1l-.29-.13-.36-.18v.41a1.16,1.16,0,0,0,1.25,1.25h0a2.91,2.91,0,0,0-.4.61.75.75,0,0,0-.64-.36.74.74,0,0,0-.75.75v0a1,1,0,0,0-.25,0,.75.75,0,0,0-.26,1.45.75.75,0,0,0,.25,1.25.74.74,0,0,0-.24.55.75.75,0,0,0,1.5,0s0,0,0-.05a.74.74,0,0,0,1-.7s0,0,0-.05a.74.74,0,0,0,1-.7A.74.74,0,0,0,40.84,7.88Zm15,2.5a.77.77,0,0,0,.25-.55.75.75,0,0,0-.75-.75h-.13a2.86,2.86,0,0,1,1.45-1.28l-.15-.47a3,3,0,0,0-1.17.76v0A1.07,1.07,0,0,0,54.49,7l-.29-.13-.36-.18v.41a1.16,1.16,0,0,0,1.25,1.25h0a2.91,2.91,0,0,0-.4.61.75.75,0,0,0-.64-.36.74.74,0,0,0-.75.75v0a1,1,0,0,0-.25,0,.75.75,0,0,0-.26,1.45A.75.75,0,0,0,53.08,12a.74.74,0,0,0-.24.55.75.75,0,0,0,1.5,0s0,0,0-.05a.74.74,0,0,0,1-.7s0,0,0-.05a.74.74,0,0,0,1-.7A.74.74,0,0,0,55.84,10.38Zm-10.5,10a.77.77,0,0,0,.25-.55.75.75,0,0,0-.75-.75h-.13a2.86,2.86,0,0,1,1.45-1.28L46,17.34a3,3,0,0,0-1.17.76v0A1.07,1.07,0,0,0,44,17l-.29-.13-.36-.18v.41a1.16,1.16,0,0,0,1.25,1.25h0a2.91,2.91,0,0,0-.4.61.75.75,0,0,0-.64-.36.74.74,0,0,0-.75.75v0a1,1,0,0,0-.25,0,.75.75,0,0,0-.26,1.45A.75.75,0,0,0,42.58,22a.74.74,0,0,0-.24.55.75.75,0,0,0,1.5,0s0,0,0,0a.74.74,0,0,0,1-.7s0,0,0,0a.74.74,0,0,0,1-.7A.74.74,0,0,0,45.34,20.38Zm13,5a.77.77,0,0,0,.25-.55.75.75,0,0,0-.75-.75h-.13a2.86,2.86,0,0,1,1.45-1.28L59,22.34a3,3,0,0,0-1.17.76v0A1.07,1.07,0,0,0,57,22l-.29-.13-.36-.18v.41a1.16,1.16,0,0,0,1.25,1.25h0a2.91,2.91,0,0,0-.4.61.75.75,0,0,0-.64-.36.74.74,0,0,0-.75.75v0a1,1,0,0,0-.25,0,.75.75,0,0,0-.26,1.45A.75.75,0,0,0,55.58,27a.74.74,0,0,0-.24.55.75.75,0,0,0,1.5,0s0,0,0,0a.74.74,0,0,0,1-.7s0,0,0,0a.74.74,0,0,0,1-.7A.74.74,0,0,0,58.34,25.38Z"/><path id="vineyard_random_sparse-4" data-name="vineyard_random_sparse" class="cls-2" d="M40.84,39.88a.77.77,0,0,0,.25-.55.75.75,0,0,0-.75-.75h-.13a2.86,2.86,0,0,1,1.45-1.28l-.15-.47a3,3,0,0,0-1.17.76v0a1.07,1.07,0,0,0-.85-1.1l-.29-.13-.36-.18v.41a1.16,1.16,0,0,0,1.25,1.25h0a2.91,2.91,0,0,0-.4.61.75.75,0,0,0-.64-.36.74.74,0,0,0-.75.75v0a1,1,0,0,0-.25,0,.75.75,0,0,0-.26,1.45.75.75,0,0,0,.25,1.25.74.74,0,0,0-.24.55.75.75,0,0,0,1.5,0s0,0,0,0a.74.74,0,0,0,1-.7s0,0,0,0a.74.74,0,0,0,1-.7A.74.74,0,0,0,40.84,39.88Zm15,2.5a.77.77,0,0,0,.25-.55.75.75,0,0,0-.75-.75h-.13a2.86,2.86,0,0,1,1.45-1.28l-.15-.47a3,3,0,0,0-1.17.76v0a1.07,1.07,0,0,0-.85-1.1l-.29-.13-.36-.18v.41a1.16,1.16,0,0,0,1.25,1.25h0a2.91,2.91,0,0,0-.4.61.75.75,0,0,0-.64-.36.74.74,0,0,0-.75.75v0a1,1,0,0,0-.25,0,.75.75,0,0,0-.26,1.45A.75.75,0,0,0,53.08,44a.74.74,0,0,0-.24.55.75.75,0,0,0,1.5,0s0,0,0,0a.74.74,0,0,0,1-.7s0,0,0,0a.74.74,0,0,0,1-.7A.74.74,0,0,0,55.84,42.38Zm-10.5,10a.77.77,0,0,0,.25-.55.75.75,0,0,0-.75-.75h-.13a2.86,2.86,0,0,1,1.45-1.28L46,49.34a3,3,0,0,0-1.17.76v0A1.07,1.07,0,0,0,44,49l-.29-.13-.36-.18v.41a1.16,1.16,0,0,0,1.25,1.25h0a2.91,2.91,0,0,0-.4.61.75.75,0,0,0-.64-.36.74.74,0,0,0-.75.75v0a1,1,0,0,0-.25,0,.75.75,0,0,0-.26,1.45A.75.75,0,0,0,42.58,54a.74.74,0,0,0-.24.55.75.75,0,0,0,1.5,0s0,0,0,0a.74.74,0,0,0,1-.7s0,0,0,0a.74.74,0,0,0,1-.7A.74.74,0,0,0,45.34,52.38Zm13,5a.77.77,0,0,0,.25-.55.75.75,0,0,0-.75-.75h-.13a2.86,2.86,0,0,1,1.45-1.28L59,54.34a3,3,0,0,0-1.17.76v0A1.07,1.07,0,0,0,57,54l-.29-.13-.36-.18v.41a1.16,1.16,0,0,0,1.25,1.25h0a2.91,2.91,0,0,0-.4.61.75.75,0,0,0-.64-.36.74.74,0,0,0-.75.75v0a1,1,0,0,0-.25,0,.75.75,0,0,0-.26,1.45A.75.75,0,0,0,55.58,59a.74.74,0,0,0-.24.55.75.75,0,0,0,1.5,0s0,0,0,0a.74.74,0,0,0,1-.7s0,0,0,0a.74.74,0,0,0,1-.7A.74.74,0,0,0,58.34,57.38Z"/></g></svg>