<svg id="Sprites" xmlns="http://www.w3.org/2000/svg" viewBox="0 0 64 64"><defs><style>.cls-1{fill:none;}.cls-2{fill:#236035;}</style></defs><g id="vineyard_poly_green_grid_sparse"><rect id="bbox_64" class="cls-1" width="64" height="64"/><path id="vineyard_grid_sparse" class="cls-2" d="M11,11.41a1.53,1.53,0,0,0,.48-1.1A1.5,1.5,0,0,0,10,8.81l-.24,0a5.58,5.58,0,0,1,2.9-2.55l-.32-1A6.1,6.1,0,0,0,10,6.85v0a2.13,2.13,0,0,0-1.7-2.2,5.64,5.64,0,0,1-.58-.25L7,4v.81a2.33,2.33,0,0,0,2.5,2.5h.08a6.48,6.48,0,0,0-.8,1.23A1.5,1.5,0,0,0,6,9.31s0,.06,0,.09a1.71,1.71,0,0,0-.51-.09A1.5,1.5,0,0,0,5,12.21a1.52,1.52,0,0,0-.48,1.1,1.5,1.5,0,0,0,1,1.4A1.52,1.52,0,0,0,5,15.81a1.5,1.5,0,1,0,3,0s0-.06,0-.1a1.45,1.45,0,0,0,.51.1,1.5,1.5,0,0,0,1.5-1.5s0-.06,0-.1a1.45,1.45,0,0,0,.51.1,1.5,1.5,0,0,0,.52-2.9Zm21.33,0a1.5,1.5,0,0,0-1-2.6l-.24,0A5.62,5.62,0,0,1,34,6.28l-.31-1a6.21,6.21,0,0,0-2.35,1.52v0a2.13,2.13,0,0,0-1.7-2.2,5.51,5.51,0,0,1-.57-.25L28.33,4v.81a2.33,2.33,0,0,0,2.5,2.5h.09a6.08,6.08,0,0,0-.81,1.23,1.47,1.47,0,0,0-1.28-.73,1.5,1.5,0,0,0-1.5,1.5s0,.06,0,.09a1.71,1.71,0,0,0-.51-.09,1.49,1.49,0,0,0-.51,2.9,1.48,1.48,0,0,0,.5,2.5,1.5,1.5,0,1,0,2.51,1.1.38.38,0,0,0,0-.1,1.45,1.45,0,0,0,.51.1,1.5,1.5,0,0,0,1.5-1.5.38.38,0,0,0,0-.1,1.45,1.45,0,0,0,.51.1,1.5,1.5,0,0,0,.52-2.9Zm21.33,0a1.49,1.49,0,0,0-1-2.6l-.25,0a5.66,5.66,0,0,1,2.9-2.55l-.31-1a6.1,6.1,0,0,0-2.34,1.52v0A2.14,2.14,0,0,0,51,4.61a5.64,5.64,0,0,1-.58-.25L49.67,4v.81a2.32,2.32,0,0,0,2.5,2.5h.08a6,6,0,0,0-.8,1.23,1.5,1.5,0,0,0-2.78.77.28.28,0,0,0,0,.09,1.71,1.71,0,0,0-.51-.09,1.5,1.5,0,0,0-.52,2.9,1.48,1.48,0,0,0-.48,1.1,1.5,1.5,0,0,0,1,1.4,1.48,1.48,0,0,0-.48,1.1,1.5,1.5,0,1,0,3,0s0-.06,0-.1a1.45,1.45,0,0,0,.51.1,1.5,1.5,0,0,0,1.5-1.5s0-.06,0-.1a1.45,1.45,0,0,0,.51.1,1.49,1.49,0,0,0,.51-2.9ZM11,43.41a1.53,1.53,0,0,0,.48-1.1,1.5,1.5,0,0,0-1.5-1.5l-.24,0a5.58,5.58,0,0,1,2.9-2.55l-.32-1A6.1,6.1,0,0,0,10,38.85v0a2.13,2.13,0,0,0-1.7-2.2,5.64,5.64,0,0,1-.58-.25L7,36v.81a2.33,2.33,0,0,0,2.5,2.5h.08a6.48,6.48,0,0,0-.8,1.23A1.5,1.5,0,0,0,6,41.31s0,.06,0,.09a1.71,1.71,0,0,0-.51-.09A1.5,1.5,0,0,0,5,44.21a1.52,1.52,0,0,0-.48,1.1,1.5,1.5,0,0,0,1,1.4A1.52,1.52,0,0,0,5,47.81a1.5,1.5,0,0,0,3,0s0-.06,0-.1a1.45,1.45,0,0,0,.51.1,1.5,1.5,0,0,0,1.5-1.5s0-.06,0-.1a1.45,1.45,0,0,0,.51.1,1.5,1.5,0,0,0,.52-2.9Zm21.33,0a1.5,1.5,0,0,0-1-2.6l-.24,0A5.62,5.62,0,0,1,34,38.28l-.31-1a6.21,6.21,0,0,0-2.35,1.52v0a2.13,2.13,0,0,0-1.7-2.2,5.51,5.51,0,0,1-.57-.25L28.33,36v.81a2.33,2.33,0,0,0,2.5,2.5h.09a6.08,6.08,0,0,0-.81,1.23,1.47,1.47,0,0,0-1.28-.73,1.5,1.5,0,0,0-1.5,1.5s0,.06,0,.09a1.71,1.71,0,0,0-.51-.09,1.49,1.49,0,0,0-.51,2.9,1.48,1.48,0,0,0,.5,2.5,1.5,1.5,0,1,0,2.51,1.1.38.38,0,0,0,0-.1,1.45,1.45,0,0,0,.51.1,1.5,1.5,0,0,0,1.5-1.5.38.38,0,0,0,0-.1,1.45,1.45,0,0,0,.51.1,1.5,1.5,0,0,0,.52-2.9Zm21.33,0a1.49,1.49,0,0,0-1-2.6l-.25,0a5.66,5.66,0,0,1,2.9-2.55l-.31-1a6.1,6.1,0,0,0-2.34,1.52v0a2.14,2.14,0,0,0-1.7-2.2,5.64,5.64,0,0,1-.58-.25L49.67,36v.81a2.32,2.32,0,0,0,2.5,2.5h.08a6,6,0,0,0-.8,1.23,1.5,1.5,0,0,0-2.78.77.28.28,0,0,0,0,.09,1.71,1.71,0,0,0-.51-.09,1.5,1.5,0,0,0-.52,2.9,1.48,1.48,0,0,0-.48,1.1,1.5,1.5,0,0,0,1,1.4,1.48,1.48,0,0,0-.48,1.1,1.5,1.5,0,0,0,3,0s0-.06,0-.1a1.45,1.45,0,0,0,.51.1,1.5,1.5,0,0,0,1.5-1.5s0-.06,0-.1a1.45,1.45,0,0,0,.51.1,1.49,1.49,0,0,0,.51-2.9Z"/></g></svg>