<svg id="Sprites" xmlns="http://www.w3.org/2000/svg" viewBox="0 0 64 64"><defs><style>.cls-1{fill:none;}.cls-2{fill:#236035;}</style></defs><g id="vineyard_poly_grid_dense_half"><rect id="bbox_64" class="cls-1" width="64" height="64"/><path id="orchard_grid_dense" class="cls-2" d="M5.51,4.3a.74.74,0,0,0,.24-.55A.76.76,0,0,0,5,3H4.88A2.76,2.76,0,0,1,6.33,1.74l-.16-.48A3.11,3.11,0,0,0,5,2V2A1.07,1.07,0,0,0,4.15.9L3.86.78,3.5.6V1A1.16,1.16,0,0,0,4.75,2.25h0a2.91,2.91,0,0,0-.4.61A.75.75,0,0,0,3,3.25v0a.7.7,0,0,0-.25,0A.75.75,0,0,0,2.49,4.7a.74.74,0,0,0-.24.55.75.75,0,0,0,.49.7.74.74,0,0,0-.24.55A.75.75,0,0,0,4,6.5v0a.7.7,0,0,0,.25,0A.76.76,0,0,0,5,5.75v0a.7.7,0,0,0,.25,0A.75.75,0,0,0,5.51,4.3Zm8,0a.74.74,0,0,0,.24-.55A.76.76,0,0,0,13,3h-.12a2.76,2.76,0,0,1,1.45-1.27l-.16-.48A3.11,3.11,0,0,0,13,2V2A1.07,1.07,0,0,0,12.15.9L11.86.78,11.5.6V1a1.16,1.16,0,0,0,1.25,1.25h0a2.91,2.91,0,0,0-.4.61A.75.75,0,0,0,11,3.25v0a.7.7,0,0,0-.25,0,.75.75,0,0,0-.26,1.45.74.74,0,0,0-.24.55.75.75,0,0,0,.49.7.74.74,0,0,0-.24.55.75.75,0,0,0,1.5,0v0a.7.7,0,0,0,.25,0A.76.76,0,0,0,13,5.75v0a.7.7,0,0,0,.25,0,.75.75,0,0,0,.26-1.45Zm8,0a.74.74,0,0,0,.24-.55A.76.76,0,0,0,21,3h-.12a2.76,2.76,0,0,1,1.45-1.27l-.16-.48A3.11,3.11,0,0,0,21,2V2A1.07,1.07,0,0,0,20.15.9L19.86.78,19.5.6V1a1.16,1.16,0,0,0,1.25,1.25h0a2.91,2.91,0,0,0-.4.61A.75.75,0,0,0,19,3.25v0a.7.7,0,0,0-.25,0,.75.75,0,0,0-.26,1.45.74.74,0,0,0-.24.55.75.75,0,0,0,.49.7.74.74,0,0,0-.24.55.75.75,0,0,0,1.5,0v0a.7.7,0,0,0,.25,0A.76.76,0,0,0,21,5.75v0a.7.7,0,0,0,.25,0,.75.75,0,0,0,.26-1.45Zm8,0a.74.74,0,0,0,.24-.55A.76.76,0,0,0,29,3h-.12a2.76,2.76,0,0,1,1.45-1.27l-.16-.48A3.11,3.11,0,0,0,29,2V2A1.07,1.07,0,0,0,28.15.9L27.86.78,27.5.6V1a1.16,1.16,0,0,0,1.25,1.25h0a2.91,2.91,0,0,0-.4.61A.75.75,0,0,0,27,3.25v0a.7.7,0,0,0-.25,0,.75.75,0,0,0-.26,1.45.74.74,0,0,0-.24.55.75.75,0,0,0,.49.7.74.74,0,0,0-.24.55.75.75,0,0,0,1.5,0v0a.7.7,0,0,0,.25,0A.76.76,0,0,0,29,5.75v0a.7.7,0,0,0,.25,0,.75.75,0,0,0,.26-1.45ZM5.51,15A.75.75,0,0,0,5,13.67H4.88A2.78,2.78,0,0,1,6.33,12.4l-.16-.47A3,3,0,0,0,5,12.69v0a1.06,1.06,0,0,0-.85-1.1l-.29-.13-.36-.18v.41a1.16,1.16,0,0,0,1.25,1.25h0a2.91,2.91,0,0,0-.4.61.74.74,0,0,0-.64-.36.75.75,0,0,0-.75.75v0a1,1,0,0,0-.25,0,.75.75,0,0,0-.75.75.76.76,0,0,0,.49.7.74.74,0,0,0-.24.55.76.76,0,0,0,.49.7.74.74,0,0,0-.24.55.75.75,0,0,0,1.5,0v-.05a.7.7,0,0,0,.25.05A.76.76,0,0,0,5,16.42v-.05a.7.7,0,0,0,.25.05A.76.76,0,0,0,6,15.67.74.74,0,0,0,5.51,15Zm8,0a.75.75,0,0,0-.51-1.3h-.12a2.78,2.78,0,0,1,1.45-1.28l-.16-.47a3,3,0,0,0-1.17.76v0a1.06,1.06,0,0,0-.85-1.1l-.29-.13-.36-.18v.41a1.16,1.16,0,0,0,1.25,1.25h0a2.91,2.91,0,0,0-.4.61.74.74,0,0,0-.64-.36.75.75,0,0,0-.75.75v0a1,1,0,0,0-.25,0,.75.75,0,0,0-.75.75.76.76,0,0,0,.49.7.74.74,0,0,0-.24.55.76.76,0,0,0,.49.7.74.74,0,0,0-.24.55.75.75,0,0,0,1.5,0v-.05a.7.7,0,0,0,.25.05.76.76,0,0,0,.75-.75v-.05a.7.7,0,0,0,.25.05.76.76,0,0,0,.75-.75A.74.74,0,0,0,13.51,15Zm8,0a.75.75,0,0,0-.51-1.3h-.12a2.78,2.78,0,0,1,1.45-1.28l-.16-.47a3,3,0,0,0-1.17.76v0a1.06,1.06,0,0,0-.85-1.1l-.29-.13-.36-.18v.41a1.16,1.16,0,0,0,1.25,1.25h0a2.91,2.91,0,0,0-.4.61.74.74,0,0,0-.64-.36.75.75,0,0,0-.75.75v0a1,1,0,0,0-.25,0,.75.75,0,0,0-.75.75.76.76,0,0,0,.49.7.74.74,0,0,0-.24.55.76.76,0,0,0,.49.7.74.74,0,0,0-.24.55.75.75,0,0,0,1.5,0v-.05a.7.7,0,0,0,.25.05.76.76,0,0,0,.75-.75v-.05a.7.7,0,0,0,.25.05.76.76,0,0,0,.75-.75A.74.74,0,0,0,21.51,15Zm8,0a.75.75,0,0,0-.51-1.3h-.12a2.78,2.78,0,0,1,1.45-1.28l-.16-.47a3,3,0,0,0-1.17.76v0a1.06,1.06,0,0,0-.85-1.1l-.29-.13-.36-.18v.41a1.16,1.16,0,0,0,1.25,1.25h0a2.91,2.91,0,0,0-.4.61.74.74,0,0,0-.64-.36.75.75,0,0,0-.75.75v0a1,1,0,0,0-.25,0,.75.75,0,0,0-.75.75.76.76,0,0,0,.49.7.74.74,0,0,0-.24.55.76.76,0,0,0,.49.7.74.74,0,0,0-.24.55.75.75,0,0,0,1.5,0v-.05a.7.7,0,0,0,.25.05.76.76,0,0,0,.75-.75v-.05a.7.7,0,0,0,.25.05.76.76,0,0,0,.75-.75A.74.74,0,0,0,29.51,15Zm-24,10.66a.74.74,0,0,0,.24-.55A.76.76,0,0,0,5,24.33l-.12,0a2.74,2.74,0,0,1,1.45-1.28l-.16-.47A3.08,3.08,0,0,0,5,23.35v0a1.07,1.07,0,0,0-.85-1.1l-.29-.12-.36-.18v.4a1.16,1.16,0,0,0,1.25,1.25h0a3,3,0,0,0-.4.62A.75.75,0,0,0,3,24.58v.05a.7.7,0,0,0-.25-.05.76.76,0,0,0-.75.75.74.74,0,0,0,.49.7.76.76,0,0,0-.24.55.74.74,0,0,0,.49.7A.75.75,0,1,0,4,27.83v0a1,1,0,0,0,.25,0A.75.75,0,0,0,5,27.08v0a1,1,0,0,0,.25,0A.75.75,0,0,0,6,26.33.76.76,0,0,0,5.51,25.63Zm8,0a.74.74,0,0,0,.24-.55.76.76,0,0,0-.75-.75l-.12,0a2.74,2.74,0,0,1,1.45-1.28l-.16-.47a3.08,3.08,0,0,0-1.17.75v0a1.07,1.07,0,0,0-.85-1.1l-.29-.12-.36-.18v.4a1.16,1.16,0,0,0,1.25,1.25h0a3,3,0,0,0-.4.62.75.75,0,0,0-1.39.38v.05a.7.7,0,0,0-.25-.05.76.76,0,0,0-.75.75.74.74,0,0,0,.49.7.76.76,0,0,0-.24.55.74.74,0,0,0,.49.7.75.75,0,1,0,1.26.55v0a1,1,0,0,0,.25,0,.75.75,0,0,0,.75-.75v0a1,1,0,0,0,.25,0,.75.75,0,0,0,.75-.75A.76.76,0,0,0,13.51,25.63Zm8,0a.74.74,0,0,0,.24-.55.76.76,0,0,0-.75-.75l-.12,0a2.74,2.74,0,0,1,1.45-1.28l-.16-.47a3.08,3.08,0,0,0-1.17.75v0a1.07,1.07,0,0,0-.85-1.1l-.29-.12-.36-.18v.4a1.16,1.16,0,0,0,1.25,1.25h0a3,3,0,0,0-.4.62.75.75,0,0,0-1.39.38v.05a.7.7,0,0,0-.25-.05.76.76,0,0,0-.75.75.74.74,0,0,0,.49.7.76.76,0,0,0-.24.55.74.74,0,0,0,.49.7.75.75,0,1,0,1.26.55v0a1,1,0,0,0,.25,0,.75.75,0,0,0,.75-.75v0a1,1,0,0,0,.25,0,.75.75,0,0,0,.75-.75A.76.76,0,0,0,21.51,25.63Zm8,0a.74.74,0,0,0,.24-.55.76.76,0,0,0-.75-.75l-.12,0a2.74,2.74,0,0,1,1.45-1.28l-.16-.47a3.08,3.08,0,0,0-1.17.75v0a1.07,1.07,0,0,0-.85-1.1l-.29-.12-.36-.18v.4a1.16,1.16,0,0,0,1.25,1.25h0a3,3,0,0,0-.4.62.75.75,0,0,0-1.39.38v.05a.7.7,0,0,0-.25-.05.76.76,0,0,0-.75.75.74.74,0,0,0,.49.7.76.76,0,0,0-.24.55.74.74,0,0,0,.49.7.75.75,0,1,0,1.26.55v0a1,1,0,0,0,.25,0,.75.75,0,0,0,.75-.75v0a1,1,0,0,0,.25,0,.75.75,0,0,0,.75-.75A.76.76,0,0,0,29.51,25.63Z"/><path id="orchard_grid_dense-2" data-name="orchard_grid_dense" class="cls-2" d="M5.51,36.3a.74.74,0,0,0,.24-.55A.76.76,0,0,0,5,35H4.88a2.76,2.76,0,0,1,1.45-1.27l-.16-.48A3.11,3.11,0,0,0,5,34v0a1.07,1.07,0,0,0-.85-1.1l-.29-.12L3.5,32.6V33a1.16,1.16,0,0,0,1.25,1.25h0a2.91,2.91,0,0,0-.4.61A.75.75,0,0,0,3,35.25v0a.7.7,0,0,0-.25,0,.75.75,0,0,0-.26,1.45.74.74,0,0,0-.24.55.75.75,0,0,0,.49.7.74.74,0,0,0-.24.55.75.75,0,0,0,1.5,0v0a.7.7,0,0,0,.25,0A.76.76,0,0,0,5,37.75v0a.7.7,0,0,0,.25,0,.75.75,0,0,0,.26-1.45Zm8,0a.74.74,0,0,0,.24-.55A.76.76,0,0,0,13,35h-.12a2.76,2.76,0,0,1,1.45-1.27l-.16-.48A3.11,3.11,0,0,0,13,34v0a1.07,1.07,0,0,0-.85-1.1l-.29-.12-.36-.18V33a1.16,1.16,0,0,0,1.25,1.25h0a2.91,2.91,0,0,0-.4.61.75.75,0,0,0-1.39.39v0a.7.7,0,0,0-.25,0,.75.75,0,0,0-.26,1.45.74.74,0,0,0-.24.55.75.75,0,0,0,.49.7.74.74,0,0,0-.24.55.75.75,0,0,0,1.5,0v0a.7.7,0,0,0,.25,0,.76.76,0,0,0,.75-.75v0a.7.7,0,0,0,.25,0,.75.75,0,0,0,.26-1.45Zm8,0a.74.74,0,0,0,.24-.55A.76.76,0,0,0,21,35h-.12a2.76,2.76,0,0,1,1.45-1.27l-.16-.48A3.11,3.11,0,0,0,21,34v0a1.07,1.07,0,0,0-.85-1.1l-.29-.12-.36-.18V33a1.16,1.16,0,0,0,1.25,1.25h0a2.91,2.91,0,0,0-.4.61.75.75,0,0,0-1.39.39v0a.7.7,0,0,0-.25,0,.75.75,0,0,0-.26,1.45.74.74,0,0,0-.24.55.75.75,0,0,0,.49.7.74.74,0,0,0-.24.55.75.75,0,0,0,1.5,0v0a.7.7,0,0,0,.25,0,.76.76,0,0,0,.75-.75v0a.7.7,0,0,0,.25,0,.75.75,0,0,0,.26-1.45Zm8,0a.74.74,0,0,0,.24-.55A.76.76,0,0,0,29,35h-.12a2.76,2.76,0,0,1,1.45-1.27l-.16-.48A3.11,3.11,0,0,0,29,34v0a1.07,1.07,0,0,0-.85-1.1l-.29-.12-.36-.18V33a1.16,1.16,0,0,0,1.25,1.25h0a2.91,2.91,0,0,0-.4.61.75.75,0,0,0-1.39.39v0a.7.7,0,0,0-.25,0,.75.75,0,0,0-.26,1.45.74.74,0,0,0-.24.55.75.75,0,0,0,.49.7.74.74,0,0,0-.24.55.75.75,0,0,0,1.5,0v0a.7.7,0,0,0,.25,0,.76.76,0,0,0,.75-.75v0a.7.7,0,0,0,.25,0,.75.75,0,0,0,.26-1.45ZM5.51,47A.75.75,0,0,0,5,45.67H4.88A2.78,2.78,0,0,1,6.33,44.4l-.16-.47A3,3,0,0,0,5,44.69v0a1.06,1.06,0,0,0-.85-1.1l-.29-.13-.36-.18v.41a1.16,1.16,0,0,0,1.25,1.25h0a2.91,2.91,0,0,0-.4.61.74.74,0,0,0-.64-.36.75.75,0,0,0-.75.75v0a1,1,0,0,0-.25,0,.75.75,0,0,0-.75.75.76.76,0,0,0,.49.7.74.74,0,0,0-.24.55.76.76,0,0,0,.49.7.74.74,0,0,0-.24.55.75.75,0,0,0,1.5,0v-.05a.7.7,0,0,0,.25.05A.76.76,0,0,0,5,48.42v-.05a.7.7,0,0,0,.25.05A.76.76,0,0,0,6,47.67.74.74,0,0,0,5.51,47Zm8,0a.75.75,0,0,0-.51-1.3h-.12a2.78,2.78,0,0,1,1.45-1.28l-.16-.47a3,3,0,0,0-1.17.76v0a1.06,1.06,0,0,0-.85-1.1l-.29-.13-.36-.18v.41a1.16,1.16,0,0,0,1.25,1.25h0a2.91,2.91,0,0,0-.4.61.74.74,0,0,0-.64-.36.75.75,0,0,0-.75.75v0a1,1,0,0,0-.25,0,.75.75,0,0,0-.75.75.76.76,0,0,0,.49.7.74.74,0,0,0-.24.55.76.76,0,0,0,.49.7.74.74,0,0,0-.24.55.75.75,0,0,0,1.5,0v-.05a.7.7,0,0,0,.25.05.76.76,0,0,0,.75-.75v-.05a.7.7,0,0,0,.25.05.76.76,0,0,0,.75-.75A.74.74,0,0,0,13.51,47Zm8,0a.75.75,0,0,0-.51-1.3h-.12a2.78,2.78,0,0,1,1.45-1.28l-.16-.47a3,3,0,0,0-1.17.76v0a1.06,1.06,0,0,0-.85-1.1l-.29-.13-.36-.18v.41a1.16,1.16,0,0,0,1.25,1.25h0a2.91,2.91,0,0,0-.4.61.74.74,0,0,0-.64-.36.75.75,0,0,0-.75.75v0a1,1,0,0,0-.25,0,.75.75,0,0,0-.75.75.76.76,0,0,0,.49.7.74.74,0,0,0-.24.55.76.76,0,0,0,.49.7.74.74,0,0,0-.24.55.75.75,0,0,0,1.5,0v-.05a.7.7,0,0,0,.25.05.76.76,0,0,0,.75-.75v-.05a.7.7,0,0,0,.25.05.76.76,0,0,0,.75-.75A.74.74,0,0,0,21.51,47Zm8,0a.75.75,0,0,0-.51-1.3h-.12a2.78,2.78,0,0,1,1.45-1.28l-.16-.47a3,3,0,0,0-1.17.76v0a1.06,1.06,0,0,0-.85-1.1l-.29-.13-.36-.18v.41a1.16,1.16,0,0,0,1.25,1.25h0a2.91,2.91,0,0,0-.4.61.74.74,0,0,0-.64-.36.75.75,0,0,0-.75.75v0a1,1,0,0,0-.25,0,.75.75,0,0,0-.75.75.76.76,0,0,0,.49.7.74.74,0,0,0-.24.55.76.76,0,0,0,.49.7.74.74,0,0,0-.24.55.75.75,0,0,0,1.5,0v-.05a.7.7,0,0,0,.25.05.76.76,0,0,0,.75-.75v-.05a.7.7,0,0,0,.25.05.76.76,0,0,0,.75-.75A.74.74,0,0,0,29.51,47Zm-24,10.66a.74.74,0,0,0,.24-.55A.76.76,0,0,0,5,56.33l-.12,0a2.74,2.74,0,0,1,1.45-1.28l-.16-.47A3.08,3.08,0,0,0,5,55.35v0a1.07,1.07,0,0,0-.85-1.1l-.29-.12-.36-.18v.4a1.16,1.16,0,0,0,1.25,1.25h0a3,3,0,0,0-.4.62A.75.75,0,0,0,3,56.58v.05a.7.7,0,0,0-.25-.05.76.76,0,0,0-.75.75.74.74,0,0,0,.49.7.76.76,0,0,0-.24.55.74.74,0,0,0,.49.7A.75.75,0,1,0,4,59.83v0a1,1,0,0,0,.25,0A.75.75,0,0,0,5,59.08v0a1,1,0,0,0,.25,0A.75.75,0,0,0,6,58.33.76.76,0,0,0,5.51,57.63Zm8,0a.74.74,0,0,0,.24-.55.76.76,0,0,0-.75-.75l-.12,0a2.74,2.74,0,0,1,1.45-1.28l-.16-.47a3.08,3.08,0,0,0-1.17.75v0a1.07,1.07,0,0,0-.85-1.1l-.29-.12-.36-.18v.4a1.16,1.16,0,0,0,1.25,1.25h0a3,3,0,0,0-.4.62.75.75,0,0,0-1.39.38v.05a.7.7,0,0,0-.25-.05.76.76,0,0,0-.75.75.74.74,0,0,0,.49.7.76.76,0,0,0-.24.55.74.74,0,0,0,.49.7.75.75,0,1,0,1.26.55v0a1,1,0,0,0,.25,0,.75.75,0,0,0,.75-.75v0a1,1,0,0,0,.25,0,.75.75,0,0,0,.75-.75A.76.76,0,0,0,13.51,57.63Zm8,0a.74.74,0,0,0,.24-.55.76.76,0,0,0-.75-.75l-.12,0a2.74,2.74,0,0,1,1.45-1.28l-.16-.47a3.08,3.08,0,0,0-1.17.75v0a1.07,1.07,0,0,0-.85-1.1l-.29-.12-.36-.18v.4a1.16,1.16,0,0,0,1.25,1.25h0a3,3,0,0,0-.4.62.75.75,0,0,0-1.39.38v.05a.7.7,0,0,0-.25-.05.76.76,0,0,0-.75.75.74.74,0,0,0,.49.7.76.76,0,0,0-.24.55.74.74,0,0,0,.49.7.75.75,0,1,0,1.26.55v0a1,1,0,0,0,.25,0,.75.75,0,0,0,.75-.75v0a1,1,0,0,0,.25,0,.75.75,0,0,0,.75-.75A.76.76,0,0,0,21.51,57.63Zm8,0a.74.74,0,0,0,.24-.55.76.76,0,0,0-.75-.75l-.12,0a2.74,2.74,0,0,1,1.45-1.28l-.16-.47a3.08,3.08,0,0,0-1.17.75v0a1.07,1.07,0,0,0-.85-1.1l-.29-.12-.36-.18v.4a1.16,1.16,0,0,0,1.25,1.25h0a3,3,0,0,0-.4.62.75.75,0,0,0-1.39.38v.05a.7.7,0,0,0-.25-.05.76.76,0,0,0-.75.75.74.74,0,0,0,.49.7.76.76,0,0,0-.24.55.74.74,0,0,0,.49.7.75.75,0,1,0,1.26.55v0a1,1,0,0,0,.25,0,.75.75,0,0,0,.75-.75v0a1,1,0,0,0,.25,0,.75.75,0,0,0,.75-.75A.76.76,0,0,0,29.51,57.63Z"/><path id="orchard_grid_dense-3" data-name="orchard_grid_dense" class="cls-2" d="M37.51,4.3a.74.74,0,0,0,.24-.55A.76.76,0,0,0,37,3h-.12a2.76,2.76,0,0,1,1.45-1.27l-.16-.48A3.11,3.11,0,0,0,37,2V2A1.07,1.07,0,0,0,36.15.9L35.86.78,35.5.6V1a1.16,1.16,0,0,0,1.25,1.25h0a2.91,2.91,0,0,0-.4.61A.75.75,0,0,0,35,3.25v0a.7.7,0,0,0-.25,0,.75.75,0,0,0-.26,1.45.74.74,0,0,0-.24.55.75.75,0,0,0,.49.7.74.74,0,0,0-.24.55.75.75,0,0,0,1.5,0v0a.7.7,0,0,0,.25,0A.76.76,0,0,0,37,5.75v0a.7.7,0,0,0,.25,0,.75.75,0,0,0,.26-1.45Zm8,0a.74.74,0,0,0,.24-.55A.76.76,0,0,0,45,3h-.12a2.76,2.76,0,0,1,1.45-1.27l-.16-.48A3.11,3.11,0,0,0,45,2V2A1.07,1.07,0,0,0,44.15.9L43.86.78,43.5.6V1a1.16,1.16,0,0,0,1.25,1.25h0a2.91,2.91,0,0,0-.4.61A.75.75,0,0,0,43,3.25v0a.7.7,0,0,0-.25,0,.75.75,0,0,0-.26,1.45.74.74,0,0,0-.24.55.75.75,0,0,0,.49.7.74.74,0,0,0-.24.55.75.75,0,0,0,1.5,0v0a.7.7,0,0,0,.25,0A.76.76,0,0,0,45,5.75v0a.7.7,0,0,0,.25,0,.75.75,0,0,0,.26-1.45Zm8,0a.74.74,0,0,0,.24-.55A.76.76,0,0,0,53,3h-.12a2.76,2.76,0,0,1,1.45-1.27l-.16-.48A3.11,3.11,0,0,0,53,2V2A1.07,1.07,0,0,0,52.15.9L51.86.78,51.5.6V1a1.16,1.16,0,0,0,1.25,1.25h0a2.91,2.91,0,0,0-.4.61A.75.75,0,0,0,51,3.25v0a.7.7,0,0,0-.25,0,.75.75,0,0,0-.26,1.45.74.74,0,0,0-.24.55.75.75,0,0,0,.49.7.74.74,0,0,0-.24.55.75.75,0,0,0,1.5,0v0a.7.7,0,0,0,.25,0A.76.76,0,0,0,53,5.75v0a.7.7,0,0,0,.25,0,.75.75,0,0,0,.26-1.45Zm8,0a.74.74,0,0,0,.24-.55A.76.76,0,0,0,61,3h-.12a2.76,2.76,0,0,1,1.45-1.27l-.16-.48A3.11,3.11,0,0,0,61,2V2A1.07,1.07,0,0,0,60.15.9L59.86.78,59.5.6V1a1.16,1.16,0,0,0,1.25,1.25h0a2.91,2.91,0,0,0-.4.61A.75.75,0,0,0,59,3.25v0a.7.7,0,0,0-.25,0,.75.75,0,0,0-.26,1.45.74.74,0,0,0-.24.55.75.75,0,0,0,.49.7.74.74,0,0,0-.24.55.75.75,0,0,0,1.5,0v0a.7.7,0,0,0,.25,0A.76.76,0,0,0,61,5.75v0a.7.7,0,0,0,.25,0,.75.75,0,0,0,.26-1.45ZM37.51,15a.75.75,0,0,0-.51-1.3h-.12a2.78,2.78,0,0,1,1.45-1.28l-.16-.47a3,3,0,0,0-1.17.76v0a1.06,1.06,0,0,0-.85-1.1l-.29-.13-.36-.18v.41a1.16,1.16,0,0,0,1.25,1.25h0a2.91,2.91,0,0,0-.4.61.74.74,0,0,0-.64-.36.75.75,0,0,0-.75.75v0a1,1,0,0,0-.25,0,.75.75,0,0,0-.75.75.76.76,0,0,0,.49.7.74.74,0,0,0-.24.55.76.76,0,0,0,.49.7.74.74,0,0,0-.24.55.75.75,0,0,0,1.5,0v-.05a.7.7,0,0,0,.25.05.76.76,0,0,0,.75-.75v-.05a.7.7,0,0,0,.25.05.76.76,0,0,0,.75-.75A.74.74,0,0,0,37.51,15Zm8,0a.75.75,0,0,0-.51-1.3h-.12a2.78,2.78,0,0,1,1.45-1.28l-.16-.47a3,3,0,0,0-1.17.76v0a1.06,1.06,0,0,0-.85-1.1l-.29-.13-.36-.18v.41a1.16,1.16,0,0,0,1.25,1.25h0a2.91,2.91,0,0,0-.4.61.74.74,0,0,0-.64-.36.75.75,0,0,0-.75.75v0a1,1,0,0,0-.25,0,.75.75,0,0,0-.75.75.76.76,0,0,0,.49.7.74.74,0,0,0-.24.55.76.76,0,0,0,.49.7.74.74,0,0,0-.24.55.75.75,0,0,0,1.5,0v-.05a.7.7,0,0,0,.25.05.76.76,0,0,0,.75-.75v-.05a.7.7,0,0,0,.25.05.76.76,0,0,0,.75-.75A.74.74,0,0,0,45.51,15Zm8,0a.75.75,0,0,0-.51-1.3h-.12a2.78,2.78,0,0,1,1.45-1.28l-.16-.47a3,3,0,0,0-1.17.76v0a1.06,1.06,0,0,0-.85-1.1l-.29-.13-.36-.18v.41a1.16,1.16,0,0,0,1.25,1.25h0a2.91,2.91,0,0,0-.4.61.74.74,0,0,0-.64-.36.75.75,0,0,0-.75.75v0a1,1,0,0,0-.25,0,.75.75,0,0,0-.75.75.76.76,0,0,0,.49.7.74.74,0,0,0-.24.55.76.76,0,0,0,.49.7.74.74,0,0,0-.24.55.75.75,0,0,0,1.5,0v-.05a.7.7,0,0,0,.25.05.76.76,0,0,0,.75-.75v-.05a.7.7,0,0,0,.25.05.76.76,0,0,0,.75-.75A.74.74,0,0,0,53.51,15Zm8,0a.75.75,0,0,0-.51-1.3h-.12a2.78,2.78,0,0,1,1.45-1.28l-.16-.47a3,3,0,0,0-1.17.76v0a1.06,1.06,0,0,0-.85-1.1l-.29-.13-.36-.18v.41a1.16,1.16,0,0,0,1.25,1.25h0a2.91,2.91,0,0,0-.4.61.74.74,0,0,0-.64-.36.75.75,0,0,0-.75.75v0a1,1,0,0,0-.25,0,.75.75,0,0,0-.75.75.76.76,0,0,0,.49.7.74.74,0,0,0-.24.55.76.76,0,0,0,.49.7.74.74,0,0,0-.24.55.75.75,0,0,0,1.5,0v-.05a.7.7,0,0,0,.25.05.76.76,0,0,0,.75-.75v-.05a.7.7,0,0,0,.25.05.76.76,0,0,0,.75-.75A.74.74,0,0,0,61.51,15Zm-24,10.66a.74.74,0,0,0,.24-.55.76.76,0,0,0-.75-.75l-.12,0a2.74,2.74,0,0,1,1.45-1.28l-.16-.47a3.08,3.08,0,0,0-1.17.75v0a1.07,1.07,0,0,0-.85-1.1l-.29-.12-.36-.18v.4a1.16,1.16,0,0,0,1.25,1.25h0a3,3,0,0,0-.4.62.75.75,0,0,0-1.39.38v.05a.7.7,0,0,0-.25-.05.76.76,0,0,0-.75.75.74.74,0,0,0,.49.7.76.76,0,0,0-.24.55.74.74,0,0,0,.49.7.75.75,0,1,0,1.26.55v0a1,1,0,0,0,.25,0,.75.75,0,0,0,.75-.75v0a1,1,0,0,0,.25,0,.75.75,0,0,0,.75-.75A.76.76,0,0,0,37.51,25.63Zm8,0a.74.74,0,0,0,.24-.55.76.76,0,0,0-.75-.75l-.12,0a2.74,2.74,0,0,1,1.45-1.28l-.16-.47a3.08,3.08,0,0,0-1.17.75v0a1.07,1.07,0,0,0-.85-1.1l-.29-.12-.36-.18v.4a1.16,1.16,0,0,0,1.25,1.25h0a3,3,0,0,0-.4.62.75.75,0,0,0-1.39.38v.05a.7.7,0,0,0-.25-.05.76.76,0,0,0-.75.75.74.74,0,0,0,.49.7.76.76,0,0,0-.24.55.74.74,0,0,0,.49.7.75.75,0,1,0,1.26.55v0a1,1,0,0,0,.25,0,.75.75,0,0,0,.75-.75v0a1,1,0,0,0,.25,0,.75.75,0,0,0,.75-.75A.76.76,0,0,0,45.51,25.63Zm8,0a.74.74,0,0,0,.24-.55.76.76,0,0,0-.75-.75l-.12,0a2.74,2.74,0,0,1,1.45-1.28l-.16-.47a3.08,3.08,0,0,0-1.17.75v0a1.07,1.07,0,0,0-.85-1.1l-.29-.12-.36-.18v.4a1.16,1.16,0,0,0,1.25,1.25h0a3,3,0,0,0-.4.62.75.75,0,0,0-1.39.38v.05a.7.7,0,0,0-.25-.05.76.76,0,0,0-.75.75.74.74,0,0,0,.49.7.76.76,0,0,0-.24.55.74.74,0,0,0,.49.7.75.75,0,1,0,1.26.55v0a1,1,0,0,0,.25,0,.75.75,0,0,0,.75-.75v0a1,1,0,0,0,.25,0,.75.75,0,0,0,.75-.75A.76.76,0,0,0,53.51,25.63Zm8,0a.74.74,0,0,0,.24-.55.76.76,0,0,0-.75-.75l-.12,0a2.74,2.74,0,0,1,1.45-1.28l-.16-.47a3.08,3.08,0,0,0-1.17.75v0a1.07,1.07,0,0,0-.85-1.1l-.29-.12-.36-.18v.4a1.16,1.16,0,0,0,1.25,1.25h0a3,3,0,0,0-.4.62.75.75,0,0,0-1.39.38v.05a.7.7,0,0,0-.25-.05.76.76,0,0,0-.75.75.74.74,0,0,0,.49.7.76.76,0,0,0-.24.55.74.74,0,0,0,.49.7.75.75,0,1,0,1.26.55v0a1,1,0,0,0,.25,0,.75.75,0,0,0,.75-.75v0a1,1,0,0,0,.25,0,.75.75,0,0,0,.75-.75A.76.76,0,0,0,61.51,25.63Z"/><path id="orchard_grid_dense-4" data-name="orchard_grid_dense" class="cls-2" d="M37.51,36.3a.74.74,0,0,0,.24-.55A.76.76,0,0,0,37,35h-.12a2.76,2.76,0,0,1,1.45-1.27l-.16-.48A3.11,3.11,0,0,0,37,34v0a1.07,1.07,0,0,0-.85-1.1l-.29-.12-.36-.18V33a1.16,1.16,0,0,0,1.25,1.25h0a2.91,2.91,0,0,0-.4.61.75.75,0,0,0-1.39.39v0a.7.7,0,0,0-.25,0,.75.75,0,0,0-.26,1.45.74.74,0,0,0-.24.55.75.75,0,0,0,.49.7.74.74,0,0,0-.24.55.75.75,0,0,0,1.5,0v0a.7.7,0,0,0,.25,0,.76.76,0,0,0,.75-.75v0a.7.7,0,0,0,.25,0,.75.75,0,0,0,.26-1.45Zm8,0a.74.74,0,0,0,.24-.55A.76.76,0,0,0,45,35h-.12a2.76,2.76,0,0,1,1.45-1.27l-.16-.48A3.11,3.11,0,0,0,45,34v0a1.07,1.07,0,0,0-.85-1.1l-.29-.12-.36-.18V33a1.16,1.16,0,0,0,1.25,1.25h0a2.91,2.91,0,0,0-.4.61.75.75,0,0,0-1.39.39v0a.7.7,0,0,0-.25,0,.75.75,0,0,0-.26,1.45.74.74,0,0,0-.24.55.75.75,0,0,0,.49.7.74.74,0,0,0-.24.55.75.75,0,0,0,1.5,0v0a.7.7,0,0,0,.25,0,.76.76,0,0,0,.75-.75v0a.7.7,0,0,0,.25,0,.75.75,0,0,0,.26-1.45Zm8,0a.74.74,0,0,0,.24-.55A.76.76,0,0,0,53,35h-.12a2.76,2.76,0,0,1,1.45-1.27l-.16-.48A3.11,3.11,0,0,0,53,34v0a1.07,1.07,0,0,0-.85-1.1l-.29-.12-.36-.18V33a1.16,1.16,0,0,0,1.25,1.25h0a2.91,2.91,0,0,0-.4.61.75.75,0,0,0-1.39.39v0a.7.7,0,0,0-.25,0,.75.75,0,0,0-.26,1.45.74.74,0,0,0-.24.55.75.75,0,0,0,.49.7.74.74,0,0,0-.24.55.75.75,0,0,0,1.5,0v0a.7.7,0,0,0,.25,0,.76.76,0,0,0,.75-.75v0a.7.7,0,0,0,.25,0,.75.75,0,0,0,.26-1.45Zm8,0a.74.74,0,0,0,.24-.55A.76.76,0,0,0,61,35h-.12a2.76,2.76,0,0,1,1.45-1.27l-.16-.48A3.11,3.11,0,0,0,61,34v0a1.07,1.07,0,0,0-.85-1.1l-.29-.12-.36-.18V33a1.16,1.16,0,0,0,1.25,1.25h0a2.91,2.91,0,0,0-.4.61.75.75,0,0,0-1.39.39v0a.7.7,0,0,0-.25,0,.75.75,0,0,0-.26,1.45.74.74,0,0,0-.24.55.75.75,0,0,0,.49.7.74.74,0,0,0-.24.55.75.75,0,0,0,1.5,0v0a.7.7,0,0,0,.25,0,.76.76,0,0,0,.75-.75v0a.7.7,0,0,0,.25,0,.75.75,0,0,0,.26-1.45ZM37.51,47a.75.75,0,0,0-.51-1.3h-.12a2.78,2.78,0,0,1,1.45-1.28l-.16-.47a3,3,0,0,0-1.17.76v0a1.06,1.06,0,0,0-.85-1.1l-.29-.13-.36-.18v.41a1.16,1.16,0,0,0,1.25,1.25h0a2.91,2.91,0,0,0-.4.61.74.74,0,0,0-.64-.36.75.75,0,0,0-.75.75v0a1,1,0,0,0-.25,0,.75.75,0,0,0-.75.75.76.76,0,0,0,.49.7.74.74,0,0,0-.24.55.76.76,0,0,0,.49.7.74.74,0,0,0-.24.55.75.75,0,0,0,1.5,0v-.05a.7.7,0,0,0,.25.05.76.76,0,0,0,.75-.75v-.05a.7.7,0,0,0,.25.05.76.76,0,0,0,.75-.75A.74.74,0,0,0,37.51,47Zm8,0a.75.75,0,0,0-.51-1.3h-.12a2.78,2.78,0,0,1,1.45-1.28l-.16-.47a3,3,0,0,0-1.17.76v0a1.06,1.06,0,0,0-.85-1.1l-.29-.13-.36-.18v.41a1.16,1.16,0,0,0,1.25,1.25h0a2.91,2.91,0,0,0-.4.61.74.74,0,0,0-.64-.36.75.75,0,0,0-.75.75v0a1,1,0,0,0-.25,0,.75.75,0,0,0-.75.75.76.76,0,0,0,.49.7.74.74,0,0,0-.24.55.76.76,0,0,0,.49.7.74.74,0,0,0-.24.55.75.75,0,0,0,1.5,0v-.05a.7.7,0,0,0,.25.05.76.76,0,0,0,.75-.75v-.05a.7.7,0,0,0,.25.05.76.76,0,0,0,.75-.75A.74.74,0,0,0,45.51,47Zm8,0a.75.75,0,0,0-.51-1.3h-.12a2.78,2.78,0,0,1,1.45-1.28l-.16-.47a3,3,0,0,0-1.17.76v0a1.06,1.06,0,0,0-.85-1.1l-.29-.13-.36-.18v.41a1.16,1.16,0,0,0,1.25,1.25h0a2.91,2.91,0,0,0-.4.61.74.74,0,0,0-.64-.36.75.75,0,0,0-.75.75v0a1,1,0,0,0-.25,0,.75.75,0,0,0-.75.75.76.76,0,0,0,.49.7.74.74,0,0,0-.24.55.76.76,0,0,0,.49.7.74.74,0,0,0-.24.55.75.75,0,0,0,1.5,0v-.05a.7.7,0,0,0,.25.05.76.76,0,0,0,.75-.75v-.05a.7.7,0,0,0,.25.05.76.76,0,0,0,.75-.75A.74.74,0,0,0,53.51,47Zm8,0a.75.75,0,0,0-.51-1.3h-.12a2.78,2.78,0,0,1,1.45-1.28l-.16-.47a3,3,0,0,0-1.17.76v0a1.06,1.06,0,0,0-.85-1.1l-.29-.13-.36-.18v.41a1.16,1.16,0,0,0,1.25,1.25h0a2.91,2.91,0,0,0-.4.61.74.74,0,0,0-.64-.36.75.75,0,0,0-.75.75v0a1,1,0,0,0-.25,0,.75.75,0,0,0-.75.75.76.76,0,0,0,.49.7.74.74,0,0,0-.24.55.76.76,0,0,0,.49.7.74.74,0,0,0-.24.55.75.75,0,0,0,1.5,0v-.05a.7.7,0,0,0,.25.05.76.76,0,0,0,.75-.75v-.05a.7.7,0,0,0,.25.05.76.76,0,0,0,.75-.75A.74.74,0,0,0,61.51,47Zm-24,10.66a.74.74,0,0,0,.24-.55.76.76,0,0,0-.75-.75l-.12,0a2.74,2.74,0,0,1,1.45-1.28l-.16-.47a3.08,3.08,0,0,0-1.17.75v0a1.07,1.07,0,0,0-.85-1.1l-.29-.12-.36-.18v.4a1.16,1.16,0,0,0,1.25,1.25h0a3,3,0,0,0-.4.62.75.75,0,0,0-1.39.38v.05a.7.7,0,0,0-.25-.05.76.76,0,0,0-.75.75.74.74,0,0,0,.49.7.76.76,0,0,0-.24.55.74.74,0,0,0,.49.7.75.75,0,1,0,1.26.55v0a1,1,0,0,0,.25,0,.75.75,0,0,0,.75-.75v0a1,1,0,0,0,.25,0,.75.75,0,0,0,.75-.75A.76.76,0,0,0,37.51,57.63Zm8,0a.74.74,0,0,0,.24-.55.76.76,0,0,0-.75-.75l-.12,0a2.74,2.74,0,0,1,1.45-1.28l-.16-.47a3.08,3.08,0,0,0-1.17.75v0a1.07,1.07,0,0,0-.85-1.1l-.29-.12-.36-.18v.4a1.16,1.16,0,0,0,1.25,1.25h0a3,3,0,0,0-.4.62.75.75,0,0,0-1.39.38v.05a.7.7,0,0,0-.25-.05.76.76,0,0,0-.75.75.74.74,0,0,0,.49.7.76.76,0,0,0-.24.55.74.74,0,0,0,.49.7.75.75,0,1,0,1.26.55v0a1,1,0,0,0,.25,0,.75.75,0,0,0,.75-.75v0a1,1,0,0,0,.25,0,.75.75,0,0,0,.75-.75A.76.76,0,0,0,45.51,57.63Zm8,0a.74.74,0,0,0,.24-.55.76.76,0,0,0-.75-.75l-.12,0a2.74,2.74,0,0,1,1.45-1.28l-.16-.47a3.08,3.08,0,0,0-1.17.75v0a1.07,1.07,0,0,0-.85-1.1l-.29-.12-.36-.18v.4a1.16,1.16,0,0,0,1.25,1.25h0a3,3,0,0,0-.4.62.75.75,0,0,0-1.39.38v.05a.7.7,0,0,0-.25-.05.76.76,0,0,0-.75.75.74.74,0,0,0,.49.7.76.76,0,0,0-.24.55.74.74,0,0,0,.49.7.75.75,0,1,0,1.26.55v0a1,1,0,0,0,.25,0,.75.75,0,0,0,.75-.75v0a1,1,0,0,0,.25,0,.75.75,0,0,0,.75-.75A.76.76,0,0,0,53.51,57.63Zm8,0a.74.74,0,0,0,.24-.55.76.76,0,0,0-.75-.75l-.12,0a2.74,2.74,0,0,1,1.45-1.28l-.16-.47a3.08,3.08,0,0,0-1.17.75v0a1.07,1.07,0,0,0-.85-1.1l-.29-.12-.36-.18v.4a1.16,1.16,0,0,0,1.25,1.25h0a3,3,0,0,0-.4.62.75.75,0,0,0-1.39.38v.05a.7.7,0,0,0-.25-.05.76.76,0,0,0-.75.75.74.74,0,0,0,.49.7.76.76,0,0,0-.24.55.74.74,0,0,0,.49.7.75.75,0,1,0,1.26.55v0a1,1,0,0,0,.25,0,.75.75,0,0,0,.75-.75v0a1,1,0,0,0,.25,0,.75.75,0,0,0,.75-.75A.76.76,0,0,0,61.51,57.63Z"/></g></svg>