<svg id="Sprites" xmlns="http://www.w3.org/2000/svg" viewBox="0 0 16 16"><defs><style>.cls-1{fill:none;}.cls-2{fill:#236035;}</style></defs><g id="vineyard_pnt_dual"><rect id="bbox_16" class="cls-1" width="16" height="16"/><path id="vineyard_stalk" d="M12.66,3.47A5.62,5.62,0,0,0,9.75,6,1.43,1.43,0,0,0,9,6.4a1.55,1.55,0,0,0-.21-.67,5.88,5.88,0,0,1,.8-1.23A6,6,0,0,1,10,4a6.07,6.07,0,0,1,2.34-1.51Z"/><path id="vineyard_grape" class="cls-2" d="M12,10a1.5,1.5,0,0,1-1.5,1.5,1.71,1.71,0,0,1-.51-.09s0,.06,0,.09A1.5,1.5,0,0,1,8.5,13,1.71,1.71,0,0,1,8,12.91S8,13,8,13a1.5,1.5,0,0,1-3,0,1.53,1.53,0,0,1,.48-1.1,1.49,1.49,0,0,1-1-1.4A1.53,1.53,0,0,1,5,9.4,1.5,1.5,0,0,1,5.5,6.5,1.71,1.71,0,0,1,6,6.59s0-.06,0-.09a1.5,1.5,0,0,1,2.78-.77A1.55,1.55,0,0,1,9,6.4,1.43,1.43,0,0,1,9.75,6,1,1,0,0,1,10,6a1.5,1.5,0,0,1,1.5,1.5A1.53,1.53,0,0,1,11,8.6,1.49,1.49,0,0,1,12,10ZM10,4V4a6,6,0,0,0-.42.46H9.5A2.33,2.33,0,0,1,7,2V1.19l.72.36a5.64,5.64,0,0,0,.58.25A2.13,2.13,0,0,1,10,4Z"/></g></svg>