<svg id="Sprites" xmlns="http://www.w3.org/2000/svg" viewBox="0 0 64 64"><defs><style>.cls-1{fill:#236035;}</style></defs><path id="vineyard_poly_random_sparse" class="cls-1" d="M17.69,15.75a1.5,1.5,0,0,0-1-2.6l-.24,0a5.54,5.54,0,0,1,2.9-2.55l-.32-1a6.27,6.27,0,0,0-2.34,1.51v0A2.12,2.12,0,0,0,15,9l-.58-.25-.72-.36v.8a2.33,2.33,0,0,0,2.5,2.5h.09a6.37,6.37,0,0,0-.81,1.23,1.5,1.5,0,0,0-2.78.77s0,.07,0,.1a1.45,1.45,0,0,0-.51-.1,1.5,1.5,0,0,0-.52,2.91,1.49,1.49,0,0,0,.5,2.5,1.5,1.5,0,1,0,2.52,1.09s0-.06,0-.09a1.44,1.44,0,0,0,.51.09,1.5,1.5,0,0,0,1.5-1.5s0-.06,0-.09a1.44,1.44,0,0,0,.51.09,1.5,1.5,0,0,0,.52-2.9Zm30,5a1.5,1.5,0,0,0-1-2.6,2,2,0,0,0-.24,0,5.54,5.54,0,0,1,2.9-2.55l-.32-1a6.27,6.27,0,0,0-2.34,1.51v0A2.12,2.12,0,0,0,45,14l-.58-.25-.72-.36v.8a2.33,2.33,0,0,0,2.5,2.5h.09a6.37,6.37,0,0,0-.81,1.23,1.5,1.5,0,0,0-2.78.77s0,.07,0,.1a1.45,1.45,0,0,0-.51-.1,1.5,1.5,0,0,0-.52,2.91,1.49,1.49,0,0,0,.5,2.5,1.5,1.5,0,1,0,2.52,1.09s0-.06,0-.09a1.44,1.44,0,0,0,.51.09,1.5,1.5,0,0,0,1.5-1.5s0-.06,0-.09a1.44,1.44,0,0,0,.51.09,1.5,1.5,0,0,0,.52-2.9Zm-21,20a1.5,1.5,0,0,0-1-2.6l-.24,0a5.54,5.54,0,0,1,2.9-2.55l-.32-1a6.27,6.27,0,0,0-2.34,1.51v0A2.12,2.12,0,0,0,24,34l-.58-.25-.72-.36v.8a2.33,2.33,0,0,0,2.5,2.5h.09a6.37,6.37,0,0,0-.81,1.23,1.5,1.5,0,0,0-2.78.77s0,.07,0,.1a1.45,1.45,0,0,0-.51-.1,1.5,1.5,0,0,0-.52,2.91,1.49,1.49,0,0,0,.5,2.5,1.5,1.5,0,1,0,2.52,1.09s0-.06,0-.09a1.44,1.44,0,0,0,.51.09,1.5,1.5,0,0,0,1.5-1.5s0-.06,0-.09a1.44,1.44,0,0,0,.51.09,1.5,1.5,0,0,0,.52-2.9Zm26,10a1.5,1.5,0,0,0-1-2.6l-.24,0a5.54,5.54,0,0,1,2.9-2.55l-.32-1a6.27,6.27,0,0,0-2.34,1.51v0A2.12,2.12,0,0,0,50,44l-.58-.25-.72-.36v.8a2.33,2.33,0,0,0,2.5,2.5h.09a6.37,6.37,0,0,0-.81,1.23,1.5,1.5,0,0,0-2.78.77s0,.07,0,.1a1.45,1.45,0,0,0-.51-.1,1.5,1.5,0,0,0-.52,2.91,1.49,1.49,0,0,0,.5,2.5,1.5,1.5,0,1,0,2.52,1.09s0-.06,0-.09a1.44,1.44,0,0,0,.51.09,1.5,1.5,0,0,0,1.5-1.5s0-.06,0-.09a1.44,1.44,0,0,0,.51.09,1.5,1.5,0,0,0,.52-2.9Z"/></svg>