<svg id="Sprites" xmlns="http://www.w3.org/2000/svg" viewBox="0 0 16 16"><defs><style>.cls-1{fill:#236035;}</style></defs><g id="vineyard_pnt_dual"><path id="vineyard_pnt_dual_grapes" class="cls-1" d="M11,8.6a1.53,1.53,0,0,0,.48-1.1A1.5,1.5,0,0,0,10,6a1,1,0,0,0-.25,0A1.43,1.43,0,0,0,9,6.4a1.55,1.55,0,0,0-.21-.67A1.5,1.5,0,0,0,6,6.5s0,.06,0,.09A1.71,1.71,0,0,0,5.5,6.5,1.5,1.5,0,0,0,5,9.4a1.53,1.53,0,0,0-.48,1.1,1.49,1.49,0,0,0,1,1.4A1.53,1.53,0,0,0,5,13a1.5,1.5,0,0,0,3,0s0-.06,0-.09A1.71,1.71,0,0,0,8.5,13,1.5,1.5,0,0,0,10,11.5s0-.06,0-.09a1.71,1.71,0,0,0,.51.09A1.5,1.5,0,0,0,11,8.6Z"/><path id="vineyard_pnt_dual_stalk" d="M12.66,3.47A5.62,5.62,0,0,0,9.75,6,1.43,1.43,0,0,0,9,6.4a1.55,1.55,0,0,0-.21-.67,5.88,5.88,0,0,1,.8-1.23A6,6,0,0,1,10,4a6.07,6.07,0,0,1,2.34-1.51Z"/><path id="vineyard_pnt_dual_leaf" class="cls-1" d="M8.3,1.8a5.64,5.64,0,0,1-.58-.25L7,1.19V2A2.33,2.33,0,0,0,9.5,4.5h.08A6,6,0,0,1,10,4V4A2.13,2.13,0,0,0,8.3,1.8Z"/></g></svg>