<svg id="Sprites" xmlns="http://www.w3.org/2000/svg" viewBox="0 0 64 64"><defs><style>.cls-1{fill:none;}.cls-2{fill:#236035;}</style></defs><g id="vineyard_poly_random_sparse_half"><rect id="bbox_64" class="cls-1" width="32" height="32"/><path id="vineyard_random_sparse" class="cls-2" d="M4.42,3.94a.36.36,0,0,0,.12-.28.38.38,0,0,0-.37-.37H4.11a1.38,1.38,0,0,1,.72-.63l-.08-.24a1.54,1.54,0,0,0-.58.38h0a.53.53,0,0,0-.43-.55L3.6,2.18l-.18-.09v.2A.57.57,0,0,0,4,2.91h0a1.49,1.49,0,0,0-.2.31A.36.36,0,0,0,3.54,3a.38.38,0,0,0-.37.37v0a.28.28,0,0,0-.13,0,.38.38,0,0,0-.37.38.37.37,0,0,0,.24.35.38.38,0,0,0-.12.27A.37.37,0,0,0,3,4.76.36.36,0,0,0,2.92,5a.38.38,0,0,0,.75,0V5a.27.27,0,0,0,.12,0,.38.38,0,0,0,.38-.38v0l.12,0a.37.37,0,0,0,.38-.37A.37.37,0,0,0,4.42,3.94Zm7.5,1.25A.36.36,0,0,0,12,4.91a.38.38,0,0,0-.37-.37h-.06a1.38,1.38,0,0,1,.72-.63l-.08-.24a1.54,1.54,0,0,0-.58.38h0a.53.53,0,0,0-.43-.55l-.14-.06-.18-.09v.2a.57.57,0,0,0,.62.62h0a1.49,1.49,0,0,0-.2.31A.36.36,0,0,0,11,4.29a.38.38,0,0,0-.37.37v0a.28.28,0,0,0-.13,0,.38.38,0,0,0-.37.38.37.37,0,0,0,.24.35.38.38,0,0,0-.12.27.37.37,0,0,0,.25.35.36.36,0,0,0-.12.28.38.38,0,0,0,.75,0v0l.12,0a.38.38,0,0,0,.38-.38v0l.12,0a.37.37,0,0,0,.38-.37A.37.37,0,0,0,11.92,5.19Zm-5.25,5a.36.36,0,0,0,.12-.28.38.38,0,0,0-.37-.37H6.36a1.38,1.38,0,0,1,.72-.63L7,8.67a1.54,1.54,0,0,0-.58.38h0A.53.53,0,0,0,6,8.49l-.14-.06-.18-.09v.2a.57.57,0,0,0,.62.62h0a1.49,1.49,0,0,0-.2.31.36.36,0,0,0-.32-.18.38.38,0,0,0-.37.37v0a.28.28,0,0,0-.13,0,.38.38,0,0,0-.37.38.37.37,0,0,0,.24.35.38.38,0,0,0-.12.27.37.37,0,0,0,.25.35.36.36,0,0,0-.12.28.38.38,0,0,0,.75,0v0l.12,0a.38.38,0,0,0,.38-.38v0l.12,0a.37.37,0,0,0,.38-.37A.37.37,0,0,0,6.67,10.19Zm6.5,2.5a.36.36,0,0,0,.12-.28.38.38,0,0,0-.37-.37h-.06a1.38,1.38,0,0,1,.72-.63l-.08-.24a1.54,1.54,0,0,0-.58.38h0a.53.53,0,0,0-.43-.55l-.14-.06-.18-.09V11a.57.57,0,0,0,.62.62h0a1.49,1.49,0,0,0-.2.31.36.36,0,0,0-.32-.18.38.38,0,0,0-.37.37v0a.28.28,0,0,0-.13,0,.38.38,0,0,0-.37.38.37.37,0,0,0,.24.35.38.38,0,0,0-.12.27.37.37,0,0,0,.25.35.36.36,0,0,0-.12.28.38.38,0,0,0,.75,0v0l.12,0a.38.38,0,0,0,.38-.38v0l.12,0a.37.37,0,0,0,.38-.37A.37.37,0,0,0,13.17,12.69Z"/><path id="vineyard_random_sparse-2" data-name="vineyard_random_sparse" class="cls-2" d="M4.42,19.94a.36.36,0,0,0,.12-.28.38.38,0,0,0-.37-.37H4.11a1.38,1.38,0,0,1,.72-.63l-.08-.24a1.54,1.54,0,0,0-.58.38h0a.53.53,0,0,0-.43-.55l-.14-.06-.18-.09v.2a.57.57,0,0,0,.62.62h0a1.49,1.49,0,0,0-.2.31A.36.36,0,0,0,3.54,19a.38.38,0,0,0-.37.37v0a.28.28,0,0,0-.13,0,.38.38,0,0,0-.37.38.37.37,0,0,0,.24.35.38.38,0,0,0-.12.27.37.37,0,0,0,.25.35.36.36,0,0,0-.12.28.38.38,0,0,0,.75,0v0a.27.27,0,0,0,.12,0,.38.38,0,0,0,.38-.38v0l.12,0a.37.37,0,0,0,.38-.37A.37.37,0,0,0,4.42,19.94Zm7.5,1.25a.36.36,0,0,0,.12-.28.38.38,0,0,0-.37-.37h-.06a1.38,1.38,0,0,1,.72-.63l-.08-.24a1.54,1.54,0,0,0-.58.38h0a.53.53,0,0,0-.43-.55l-.14-.06-.18-.09v.2a.57.57,0,0,0,.62.62h0a1.49,1.49,0,0,0-.2.31.36.36,0,0,0-.32-.18.38.38,0,0,0-.37.37v0a.28.28,0,0,0-.13,0,.38.38,0,0,0-.37.38.37.37,0,0,0,.24.35.38.38,0,0,0-.12.27.37.37,0,0,0,.25.35.36.36,0,0,0-.12.28.38.38,0,0,0,.75,0v0a.27.27,0,0,0,.12,0,.38.38,0,0,0,.38-.38v0l.12,0a.37.37,0,0,0,.38-.37A.37.37,0,0,0,11.92,21.19Zm-5.25,5a.36.36,0,0,0,.12-.28.38.38,0,0,0-.37-.37H6.36a1.38,1.38,0,0,1,.72-.63L7,24.67a1.54,1.54,0,0,0-.58.38h0A.53.53,0,0,0,6,24.49l-.14-.06-.18-.09v.2a.57.57,0,0,0,.62.62h0a1.49,1.49,0,0,0-.2.31.36.36,0,0,0-.32-.18.38.38,0,0,0-.37.37v0a.28.28,0,0,0-.13,0,.38.38,0,0,0-.37.38.37.37,0,0,0,.24.35.38.38,0,0,0-.12.27.37.37,0,0,0,.25.35.36.36,0,0,0-.12.28.38.38,0,0,0,.75,0v0a.27.27,0,0,0,.12,0,.38.38,0,0,0,.38-.38v0l.12,0a.37.37,0,0,0,.38-.37A.37.37,0,0,0,6.67,26.19Zm6.5,2.5a.36.36,0,0,0,.12-.28.38.38,0,0,0-.37-.37h-.06a1.38,1.38,0,0,1,.72-.63l-.08-.24a1.54,1.54,0,0,0-.58.38h0a.53.53,0,0,0-.43-.55l-.14-.06-.18-.09V27a.57.57,0,0,0,.62.62h0a1.49,1.49,0,0,0-.2.31.36.36,0,0,0-.32-.18.38.38,0,0,0-.37.37v0a.28.28,0,0,0-.13,0,.38.38,0,0,0-.37.38.37.37,0,0,0,.24.35.38.38,0,0,0-.12.27.37.37,0,0,0,.25.35.36.36,0,0,0-.12.28.38.38,0,0,0,.75,0v0a.27.27,0,0,0,.12,0,.38.38,0,0,0,.38-.38v0l.12,0a.37.37,0,0,0,.38-.37A.37.37,0,0,0,13.17,28.69Z"/><path id="vineyard_random_sparse-3" data-name="vineyard_random_sparse" class="cls-2" d="M20.42,3.94a.36.36,0,0,0,.12-.28.38.38,0,0,0-.37-.37h-.06a1.38,1.38,0,0,1,.72-.63l-.08-.24a1.54,1.54,0,0,0-.58.38h0a.53.53,0,0,0-.43-.55l-.14-.06-.18-.09v.2a.57.57,0,0,0,.62.62h0a1.49,1.49,0,0,0-.2.31A.36.36,0,0,0,19.54,3a.38.38,0,0,0-.37.37v0a.28.28,0,0,0-.13,0,.38.38,0,0,0-.37.38.37.37,0,0,0,.24.35.38.38,0,0,0-.12.27.37.37,0,0,0,.25.35.36.36,0,0,0-.12.28.38.38,0,0,0,.75,0V5a.27.27,0,0,0,.12,0,.38.38,0,0,0,.38-.38v0l.12,0a.37.37,0,0,0,.38-.37A.37.37,0,0,0,20.42,3.94Zm7.5,1.25A.36.36,0,0,0,28,4.91a.38.38,0,0,0-.37-.37h-.06a1.38,1.38,0,0,1,.72-.63l-.08-.24a1.54,1.54,0,0,0-.58.38h0a.53.53,0,0,0-.43-.55l-.14-.06-.18-.09v.2a.57.57,0,0,0,.62.62h0a1.49,1.49,0,0,0-.2.31A.36.36,0,0,0,27,4.29a.38.38,0,0,0-.37.37v0a.28.28,0,0,0-.13,0,.38.38,0,0,0-.37.38.37.37,0,0,0,.24.35.38.38,0,0,0-.12.27.37.37,0,0,0,.25.35.36.36,0,0,0-.12.28.38.38,0,0,0,.75,0v0a.27.27,0,0,0,.12,0,.38.38,0,0,0,.38-.38v0l.12,0a.37.37,0,0,0,.38-.37A.37.37,0,0,0,27.92,5.19Zm-5.25,5a.36.36,0,0,0,.12-.28.38.38,0,0,0-.37-.37h-.06a1.38,1.38,0,0,1,.72-.63L23,8.67a1.54,1.54,0,0,0-.58.38h0A.53.53,0,0,0,22,8.49l-.14-.06-.18-.09v.2a.57.57,0,0,0,.62.62h0a1.49,1.49,0,0,0-.2.31.36.36,0,0,0-.32-.18.38.38,0,0,0-.37.37v0a.28.28,0,0,0-.13,0,.38.38,0,0,0-.37.38.37.37,0,0,0,.24.35.38.38,0,0,0-.12.27.37.37,0,0,0,.25.35.36.36,0,0,0-.12.28.38.38,0,0,0,.75,0v0l.12,0a.38.38,0,0,0,.38-.38v0l.12,0a.37.37,0,0,0,.38-.37A.37.37,0,0,0,22.67,10.19Zm6.5,2.5a.36.36,0,0,0,.12-.28.38.38,0,0,0-.37-.37h-.06a1.38,1.38,0,0,1,.72-.63l-.08-.24a1.54,1.54,0,0,0-.58.38h0a.53.53,0,0,0-.43-.55l-.14-.06-.18-.09V11a.57.57,0,0,0,.62.62h0a1.49,1.49,0,0,0-.2.31.36.36,0,0,0-.32-.18.38.38,0,0,0-.37.37v0a.28.28,0,0,0-.13,0,.38.38,0,0,0-.37.38.37.37,0,0,0,.24.35.38.38,0,0,0-.12.27.37.37,0,0,0,.25.35.36.36,0,0,0-.12.28.38.38,0,0,0,.75,0v0l.12,0a.38.38,0,0,0,.38-.38v0l.12,0a.37.37,0,0,0,.38-.37A.37.37,0,0,0,29.17,12.69Z"/><path id="vineyard_random_sparse-4" data-name="vineyard_random_sparse" class="cls-2" d="M20.42,19.94a.36.36,0,0,0,.12-.28.38.38,0,0,0-.37-.37h-.06a1.38,1.38,0,0,1,.72-.63l-.08-.24a1.54,1.54,0,0,0-.58.38h0a.53.53,0,0,0-.43-.55l-.14-.06-.18-.09v.2a.57.57,0,0,0,.62.62h0a1.49,1.49,0,0,0-.2.31.36.36,0,0,0-.32-.18.38.38,0,0,0-.37.37v0a.28.28,0,0,0-.13,0,.38.38,0,0,0-.37.38.37.37,0,0,0,.24.35.38.38,0,0,0-.12.27.37.37,0,0,0,.25.35.36.36,0,0,0-.12.28.38.38,0,0,0,.75,0v0a.27.27,0,0,0,.12,0,.38.38,0,0,0,.38-.38v0l.12,0a.37.37,0,0,0,.38-.37A.37.37,0,0,0,20.42,19.94Zm7.5,1.25a.36.36,0,0,0,.12-.28.38.38,0,0,0-.37-.37h-.06a1.38,1.38,0,0,1,.72-.63l-.08-.24a1.54,1.54,0,0,0-.58.38h0a.53.53,0,0,0-.43-.55l-.14-.06-.18-.09v.2a.57.57,0,0,0,.62.62h0a1.49,1.49,0,0,0-.2.31.36.36,0,0,0-.32-.18.38.38,0,0,0-.37.37v0a.28.28,0,0,0-.13,0,.38.38,0,0,0-.37.38.37.37,0,0,0,.24.35.38.38,0,0,0-.12.27.37.37,0,0,0,.25.35.36.36,0,0,0-.12.28.38.38,0,0,0,.75,0v0a.27.27,0,0,0,.12,0,.38.38,0,0,0,.38-.38v0l.12,0a.37.37,0,0,0,.38-.37A.37.37,0,0,0,27.92,21.19Zm-5.25,5a.36.36,0,0,0,.12-.28.38.38,0,0,0-.37-.37h-.06a1.38,1.38,0,0,1,.72-.63L23,24.67a1.54,1.54,0,0,0-.58.38h0a.53.53,0,0,0-.43-.55l-.14-.06-.18-.09v.2a.57.57,0,0,0,.62.62h0a1.49,1.49,0,0,0-.2.31.36.36,0,0,0-.32-.18.38.38,0,0,0-.37.37v0a.28.28,0,0,0-.13,0,.38.38,0,0,0-.37.38.37.37,0,0,0,.24.35.38.38,0,0,0-.12.27.37.37,0,0,0,.25.35.36.36,0,0,0-.12.28.38.38,0,0,0,.75,0v0a.27.27,0,0,0,.12,0,.38.38,0,0,0,.38-.38v0l.12,0a.37.37,0,0,0,.38-.37A.37.37,0,0,0,22.67,26.19Zm6.5,2.5a.36.36,0,0,0,.12-.28.38.38,0,0,0-.37-.37h-.06a1.38,1.38,0,0,1,.72-.63l-.08-.24a1.54,1.54,0,0,0-.58.38h0a.53.53,0,0,0-.43-.55l-.14-.06-.18-.09V27a.57.57,0,0,0,.62.62h0a1.49,1.49,0,0,0-.2.31.36.36,0,0,0-.32-.18.38.38,0,0,0-.37.37v0a.28.28,0,0,0-.13,0,.38.38,0,0,0-.37.38.37.37,0,0,0,.24.35.38.38,0,0,0-.12.27.37.37,0,0,0,.25.35.36.36,0,0,0-.12.28.38.38,0,0,0,.75,0v0a.27.27,0,0,0,.12,0,.38.38,0,0,0,.38-.38v0l.12,0a.37.37,0,0,0,.38-.37A.37.37,0,0,0,29.17,28.69Z"/></g><g id="vineyard_poly_random_sparse_half-2" data-name="vineyard_poly_random_sparse_half"><rect id="bbox_64-2" data-name="bbox_64" class="cls-1" x="32" width="32" height="32"/><path id="vineyard_random_sparse-5" data-name="vineyard_random_sparse" class="cls-2" d="M36.42,3.94a.36.36,0,0,0,.12-.28.38.38,0,0,0-.37-.37h-.06a1.38,1.38,0,0,1,.72-.63l-.08-.24a1.54,1.54,0,0,0-.58.38h0a.53.53,0,0,0-.43-.55l-.14-.06-.18-.09v.2a.57.57,0,0,0,.62.62h0a1.49,1.49,0,0,0-.2.31A.36.36,0,0,0,35.54,3a.38.38,0,0,0-.37.37v0a.28.28,0,0,0-.13,0,.38.38,0,0,0-.37.38.37.37,0,0,0,.24.35.38.38,0,0,0-.12.27.37.37,0,0,0,.25.35.36.36,0,0,0-.12.28.38.38,0,0,0,.75,0V5a.27.27,0,0,0,.12,0,.38.38,0,0,0,.38-.38v0l.12,0a.37.37,0,0,0,.38-.37A.37.37,0,0,0,36.42,3.94Zm7.5,1.25A.36.36,0,0,0,44,4.91a.38.38,0,0,0-.37-.37h-.06a1.38,1.38,0,0,1,.72-.63l-.08-.24a1.54,1.54,0,0,0-.58.38h0a.53.53,0,0,0-.43-.55l-.14-.06-.18-.09v.2a.57.57,0,0,0,.62.62h0a1.49,1.49,0,0,0-.2.31A.36.36,0,0,0,43,4.29a.38.38,0,0,0-.37.37v0a.28.28,0,0,0-.13,0,.38.38,0,0,0-.37.38.37.37,0,0,0,.24.35.38.38,0,0,0-.12.27.37.37,0,0,0,.25.35.36.36,0,0,0-.12.28.38.38,0,0,0,.75,0v0a.27.27,0,0,0,.12,0,.38.38,0,0,0,.38-.38v0l.12,0a.37.37,0,0,0,.38-.37A.37.37,0,0,0,43.92,5.19Zm-5.25,5a.36.36,0,0,0,.12-.28.38.38,0,0,0-.37-.37h-.06a1.38,1.38,0,0,1,.72-.63L39,8.67a1.54,1.54,0,0,0-.58.38h0A.53.53,0,0,0,38,8.49l-.14-.06-.18-.09v.2a.57.57,0,0,0,.62.62h0a1.49,1.49,0,0,0-.2.31.36.36,0,0,0-.32-.18.38.38,0,0,0-.37.37v0a.28.28,0,0,0-.13,0,.38.38,0,0,0-.37.38.37.37,0,0,0,.24.35.38.38,0,0,0-.12.27.37.37,0,0,0,.25.35.36.36,0,0,0-.12.28.38.38,0,0,0,.75,0v0l.12,0a.38.38,0,0,0,.38-.38v0l.12,0a.37.37,0,0,0,.38-.37A.37.37,0,0,0,38.67,10.19Zm6.5,2.5a.36.36,0,0,0,.12-.28.38.38,0,0,0-.37-.37h-.06a1.38,1.38,0,0,1,.72-.63l-.08-.24a1.54,1.54,0,0,0-.58.38h0a.53.53,0,0,0-.43-.55l-.14-.06-.18-.09V11a.57.57,0,0,0,.62.62h0a1.49,1.49,0,0,0-.2.31.36.36,0,0,0-.32-.18.38.38,0,0,0-.37.37v0a.28.28,0,0,0-.13,0,.38.38,0,0,0-.37.38.37.37,0,0,0,.24.35.38.38,0,0,0-.12.27.37.37,0,0,0,.25.35.36.36,0,0,0-.12.28.38.38,0,0,0,.75,0v0l.12,0a.38.38,0,0,0,.38-.38v0l.12,0a.37.37,0,0,0,.38-.37A.37.37,0,0,0,45.17,12.69Z"/><path id="vineyard_random_sparse-6" data-name="vineyard_random_sparse" class="cls-2" d="M36.42,19.94a.36.36,0,0,0,.12-.28.38.38,0,0,0-.37-.37h-.06a1.38,1.38,0,0,1,.72-.63l-.08-.24a1.54,1.54,0,0,0-.58.38h0a.53.53,0,0,0-.43-.55l-.14-.06-.18-.09v.2a.57.57,0,0,0,.62.62h0a1.49,1.49,0,0,0-.2.31.36.36,0,0,0-.32-.18.38.38,0,0,0-.37.37v0a.28.28,0,0,0-.13,0,.38.38,0,0,0-.37.38.37.37,0,0,0,.24.35.38.38,0,0,0-.12.27.37.37,0,0,0,.25.35.36.36,0,0,0-.12.28.38.38,0,0,0,.75,0v0a.27.27,0,0,0,.12,0,.38.38,0,0,0,.38-.38v0l.12,0a.37.37,0,0,0,.38-.37A.37.37,0,0,0,36.42,19.94Zm7.5,1.25a.36.36,0,0,0,.12-.28.38.38,0,0,0-.37-.37h-.06a1.38,1.38,0,0,1,.72-.63l-.08-.24a1.54,1.54,0,0,0-.58.38h0a.53.53,0,0,0-.43-.55l-.14-.06-.18-.09v.2a.57.57,0,0,0,.62.62h0a1.49,1.49,0,0,0-.2.31.36.36,0,0,0-.32-.18.38.38,0,0,0-.37.37v0a.28.28,0,0,0-.13,0,.38.38,0,0,0-.37.38.37.37,0,0,0,.24.35.38.38,0,0,0-.12.27.37.37,0,0,0,.25.35.36.36,0,0,0-.12.28.38.38,0,0,0,.75,0v0a.27.27,0,0,0,.12,0,.38.38,0,0,0,.38-.38v0l.12,0a.37.37,0,0,0,.38-.37A.37.37,0,0,0,43.92,21.19Zm-5.25,5a.36.36,0,0,0,.12-.28.38.38,0,0,0-.37-.37h-.06a1.38,1.38,0,0,1,.72-.63L39,24.67a1.54,1.54,0,0,0-.58.38h0a.53.53,0,0,0-.43-.55l-.14-.06-.18-.09v.2a.57.57,0,0,0,.62.62h0a1.49,1.49,0,0,0-.2.31.36.36,0,0,0-.32-.18.38.38,0,0,0-.37.37v0a.28.28,0,0,0-.13,0,.38.38,0,0,0-.37.38.37.37,0,0,0,.24.35.38.38,0,0,0-.12.27.37.37,0,0,0,.25.35.36.36,0,0,0-.12.28.38.38,0,0,0,.75,0v0a.27.27,0,0,0,.12,0,.38.38,0,0,0,.38-.38v0l.12,0a.37.37,0,0,0,.38-.37A.37.37,0,0,0,38.67,26.19Zm6.5,2.5a.36.36,0,0,0,.12-.28.38.38,0,0,0-.37-.37h-.06a1.38,1.38,0,0,1,.72-.63l-.08-.24a1.54,1.54,0,0,0-.58.38h0a.53.53,0,0,0-.43-.55l-.14-.06-.18-.09V27a.57.57,0,0,0,.62.62h0a1.49,1.49,0,0,0-.2.31.36.36,0,0,0-.32-.18.38.38,0,0,0-.37.37v0a.28.28,0,0,0-.13,0,.38.38,0,0,0-.37.38.37.37,0,0,0,.24.35.38.38,0,0,0-.12.27.37.37,0,0,0,.25.35.36.36,0,0,0-.12.28.38.38,0,0,0,.75,0v0a.27.27,0,0,0,.12,0,.38.38,0,0,0,.38-.38v0l.12,0a.37.37,0,0,0,.38-.37A.37.37,0,0,0,45.17,28.69Z"/><path id="vineyard_random_sparse-7" data-name="vineyard_random_sparse" class="cls-2" d="M52.42,3.94a.36.36,0,0,0,.12-.28.38.38,0,0,0-.37-.37h-.06a1.38,1.38,0,0,1,.72-.63l-.08-.24a1.54,1.54,0,0,0-.58.38h0a.53.53,0,0,0-.43-.55l-.14-.06-.18-.09v.2a.57.57,0,0,0,.62.62h0a1.49,1.49,0,0,0-.2.31A.36.36,0,0,0,51.54,3a.38.38,0,0,0-.37.37v0a.28.28,0,0,0-.13,0,.38.38,0,0,0-.37.38.37.37,0,0,0,.24.35.38.38,0,0,0-.12.27.37.37,0,0,0,.25.35.36.36,0,0,0-.12.28.38.38,0,0,0,.75,0V5a.27.27,0,0,0,.12,0,.38.38,0,0,0,.38-.38v0l.12,0a.37.37,0,0,0,.38-.37A.37.37,0,0,0,52.42,3.94Zm7.5,1.25A.36.36,0,0,0,60,4.91a.38.38,0,0,0-.37-.37h-.06a1.38,1.38,0,0,1,.72-.63l-.08-.24a1.54,1.54,0,0,0-.58.38h0a.53.53,0,0,0-.43-.55l-.14-.06-.18-.09v.2a.57.57,0,0,0,.62.62h0a1.49,1.49,0,0,0-.2.31A.36.36,0,0,0,59,4.29a.38.38,0,0,0-.37.37v0a.28.28,0,0,0-.13,0,.38.38,0,0,0-.37.38.37.37,0,0,0,.24.35.38.38,0,0,0-.12.27.37.37,0,0,0,.25.35.36.36,0,0,0-.12.28.38.38,0,0,0,.75,0v0a.27.27,0,0,0,.12,0,.38.38,0,0,0,.38-.38v0l.12,0a.37.37,0,0,0,.38-.37A.37.37,0,0,0,59.92,5.19Zm-5.25,5a.36.36,0,0,0,.12-.28.38.38,0,0,0-.37-.37h-.06a1.38,1.38,0,0,1,.72-.63L55,8.67a1.54,1.54,0,0,0-.58.38h0A.53.53,0,0,0,54,8.49l-.14-.06-.18-.09v.2a.57.57,0,0,0,.62.62h0a1.49,1.49,0,0,0-.2.31.36.36,0,0,0-.32-.18.38.38,0,0,0-.37.37v0a.28.28,0,0,0-.13,0,.38.38,0,0,0-.37.38.37.37,0,0,0,.24.35.38.38,0,0,0-.12.27.37.37,0,0,0,.25.35.36.36,0,0,0-.12.28.38.38,0,0,0,.75,0v0l.12,0a.38.38,0,0,0,.38-.38v0l.12,0a.37.37,0,0,0,.38-.37A.37.37,0,0,0,54.67,10.19Zm6.5,2.5a.36.36,0,0,0,.12-.28.38.38,0,0,0-.37-.37h-.06a1.38,1.38,0,0,1,.72-.63l-.08-.24a1.54,1.54,0,0,0-.58.38h0a.53.53,0,0,0-.43-.55l-.14-.06-.18-.09V11a.57.57,0,0,0,.62.62h0a1.49,1.49,0,0,0-.2.31.36.36,0,0,0-.32-.18.38.38,0,0,0-.37.37v0a.28.28,0,0,0-.13,0,.38.38,0,0,0-.37.38.37.37,0,0,0,.24.35.38.38,0,0,0-.12.27.37.37,0,0,0,.25.35.36.36,0,0,0-.12.28.38.38,0,0,0,.75,0v0l.12,0a.38.38,0,0,0,.38-.38v0l.12,0a.37.37,0,0,0,.38-.37A.37.37,0,0,0,61.17,12.69Z"/><path id="vineyard_random_sparse-8" data-name="vineyard_random_sparse" class="cls-2" d="M52.42,19.94a.36.36,0,0,0,.12-.28.38.38,0,0,0-.37-.37h-.06a1.38,1.38,0,0,1,.72-.63l-.08-.24a1.54,1.54,0,0,0-.58.38h0a.53.53,0,0,0-.43-.55l-.14-.06-.18-.09v.2a.57.57,0,0,0,.62.62h0a1.49,1.49,0,0,0-.2.31.36.36,0,0,0-.32-.18.38.38,0,0,0-.37.37v0a.28.28,0,0,0-.13,0,.38.38,0,0,0-.37.38.37.37,0,0,0,.24.35.38.38,0,0,0-.12.27.37.37,0,0,0,.25.35.36.36,0,0,0-.12.28.38.38,0,0,0,.75,0v0a.27.27,0,0,0,.12,0,.38.38,0,0,0,.38-.38v0l.12,0a.37.37,0,0,0,.38-.37A.37.37,0,0,0,52.42,19.94Zm7.5,1.25a.36.36,0,0,0,.12-.28.38.38,0,0,0-.37-.37h-.06a1.38,1.38,0,0,1,.72-.63l-.08-.24a1.54,1.54,0,0,0-.58.38h0a.53.53,0,0,0-.43-.55l-.14-.06-.18-.09v.2a.57.57,0,0,0,.62.62h0a1.49,1.49,0,0,0-.2.31.36.36,0,0,0-.32-.18.38.38,0,0,0-.37.37v0a.28.28,0,0,0-.13,0,.38.38,0,0,0-.37.38.37.37,0,0,0,.24.35.38.38,0,0,0-.12.27.37.37,0,0,0,.25.35.36.36,0,0,0-.12.28.38.38,0,0,0,.75,0v0a.27.27,0,0,0,.12,0,.38.38,0,0,0,.38-.38v0l.12,0a.37.37,0,0,0,.38-.37A.37.37,0,0,0,59.92,21.19Zm-5.25,5a.36.36,0,0,0,.12-.28.38.38,0,0,0-.37-.37h-.06a1.38,1.38,0,0,1,.72-.63L55,24.67a1.54,1.54,0,0,0-.58.38h0a.53.53,0,0,0-.43-.55l-.14-.06-.18-.09v.2a.57.57,0,0,0,.62.62h0a1.49,1.49,0,0,0-.2.31.36.36,0,0,0-.32-.18.38.38,0,0,0-.37.37v0a.28.28,0,0,0-.13,0,.38.38,0,0,0-.37.38.37.37,0,0,0,.24.35.38.38,0,0,0-.12.27.37.37,0,0,0,.25.35.36.36,0,0,0-.12.28.38.38,0,0,0,.75,0v0a.27.27,0,0,0,.12,0,.38.38,0,0,0,.38-.38v0l.12,0a.37.37,0,0,0,.38-.37A.37.37,0,0,0,54.67,26.19Zm6.5,2.5a.36.36,0,0,0,.12-.28.38.38,0,0,0-.37-.37h-.06a1.38,1.38,0,0,1,.72-.63l-.08-.24a1.54,1.54,0,0,0-.58.38h0a.53.53,0,0,0-.43-.55l-.14-.06-.18-.09V27a.57.57,0,0,0,.62.62h0a1.49,1.49,0,0,0-.2.31.36.36,0,0,0-.32-.18.38.38,0,0,0-.37.37v0a.28.28,0,0,0-.13,0,.38.38,0,0,0-.37.38.37.37,0,0,0,.24.35.38.38,0,0,0-.12.27.37.37,0,0,0,.25.35.36.36,0,0,0-.12.28.38.38,0,0,0,.75,0v0a.27.27,0,0,0,.12,0,.38.38,0,0,0,.38-.38v0l.12,0a.37.37,0,0,0,.38-.37A.37.37,0,0,0,61.17,28.69Z"/></g><g id="vineyard_poly_random_sparse_half-3" data-name="vineyard_poly_random_sparse_half"><rect id="bbox_64-3" data-name="bbox_64" class="cls-1" y="32" width="32" height="32"/><path id="vineyard_random_sparse-9" data-name="vineyard_random_sparse" class="cls-2" d="M4.42,35.94a.36.36,0,0,0,.12-.28.38.38,0,0,0-.37-.37H4.11a1.38,1.38,0,0,1,.72-.63l-.08-.24a1.54,1.54,0,0,0-.58.38h0a.53.53,0,0,0-.43-.55l-.14-.06-.18-.09v.2a.57.57,0,0,0,.62.62h0a1.49,1.49,0,0,0-.2.31A.36.36,0,0,0,3.54,35a.38.38,0,0,0-.37.37v0a.28.28,0,0,0-.13,0,.38.38,0,0,0-.37.38.37.37,0,0,0,.24.35.38.38,0,0,0-.12.27.37.37,0,0,0,.25.35.36.36,0,0,0-.12.28.38.38,0,0,0,.75,0v0a.27.27,0,0,0,.12,0,.38.38,0,0,0,.38-.38v0l.12,0a.37.37,0,0,0,.38-.37A.37.37,0,0,0,4.42,35.94Zm7.5,1.25a.36.36,0,0,0,.12-.28.38.38,0,0,0-.37-.37h-.06a1.38,1.38,0,0,1,.72-.63l-.08-.24a1.54,1.54,0,0,0-.58.38h0a.53.53,0,0,0-.43-.55l-.14-.06-.18-.09v.2a.57.57,0,0,0,.62.62h0a1.49,1.49,0,0,0-.2.31.36.36,0,0,0-.32-.18.38.38,0,0,0-.37.37v0a.28.28,0,0,0-.13,0,.38.38,0,0,0-.37.38.37.37,0,0,0,.24.35.38.38,0,0,0-.12.27.37.37,0,0,0,.25.35.36.36,0,0,0-.12.28.38.38,0,0,0,.75,0v0a.27.27,0,0,0,.12,0,.38.38,0,0,0,.38-.38v0l.12,0a.37.37,0,0,0,.38-.37A.37.37,0,0,0,11.92,37.19Zm-5.25,5a.36.36,0,0,0,.12-.28.38.38,0,0,0-.37-.37H6.36a1.38,1.38,0,0,1,.72-.63L7,40.67a1.54,1.54,0,0,0-.58.38h0A.53.53,0,0,0,6,40.49l-.14-.06-.18-.09v.2a.57.57,0,0,0,.62.62h0a1.49,1.49,0,0,0-.2.31.36.36,0,0,0-.32-.18.38.38,0,0,0-.37.37v0a.28.28,0,0,0-.13,0,.38.38,0,0,0-.37.38.37.37,0,0,0,.24.35.38.38,0,0,0-.12.27.37.37,0,0,0,.25.35.36.36,0,0,0-.12.28.38.38,0,0,0,.75,0v0a.27.27,0,0,0,.12,0,.38.38,0,0,0,.38-.38v0l.12,0a.37.37,0,0,0,.38-.37A.37.37,0,0,0,6.67,42.19Zm6.5,2.5a.36.36,0,0,0,.12-.28.38.38,0,0,0-.37-.37h-.06a1.38,1.38,0,0,1,.72-.63l-.08-.24a1.54,1.54,0,0,0-.58.38h0a.53.53,0,0,0-.43-.55l-.14-.06-.18-.09V43a.57.57,0,0,0,.62.62h0a1.49,1.49,0,0,0-.2.31.36.36,0,0,0-.32-.18.38.38,0,0,0-.37.37v0a.28.28,0,0,0-.13,0,.38.38,0,0,0-.37.38.37.37,0,0,0,.24.35.38.38,0,0,0-.12.27.37.37,0,0,0,.25.35.36.36,0,0,0-.12.28.38.38,0,0,0,.75,0v0a.27.27,0,0,0,.12,0,.38.38,0,0,0,.38-.38v0l.12,0a.37.37,0,0,0,.38-.37A.37.37,0,0,0,13.17,44.69Z"/><path id="vineyard_random_sparse-10" data-name="vineyard_random_sparse" class="cls-2" d="M4.42,51.94a.36.36,0,0,0,.12-.28.38.38,0,0,0-.37-.37H4.11a1.38,1.38,0,0,1,.72-.63l-.08-.24a1.54,1.54,0,0,0-.58.38h0a.53.53,0,0,0-.43-.55l-.14-.06-.18-.09v.2a.57.57,0,0,0,.62.62h0a1.49,1.49,0,0,0-.2.31A.36.36,0,0,0,3.54,51a.38.38,0,0,0-.37.37v0a.28.28,0,0,0-.13,0,.38.38,0,0,0-.37.38.37.37,0,0,0,.24.35.38.38,0,0,0-.12.27.37.37,0,0,0,.25.35.36.36,0,0,0-.12.28.38.38,0,0,0,.75,0v0a.27.27,0,0,0,.12,0,.38.38,0,0,0,.38-.38v0l.12,0a.37.37,0,0,0,.38-.37A.37.37,0,0,0,4.42,51.94Zm7.5,1.25a.36.36,0,0,0,.12-.28.38.38,0,0,0-.37-.37h-.06a1.38,1.38,0,0,1,.72-.63l-.08-.24a1.54,1.54,0,0,0-.58.38h0a.53.53,0,0,0-.43-.55l-.14-.06-.18-.09v.2a.57.57,0,0,0,.62.62h0a1.49,1.49,0,0,0-.2.31.36.36,0,0,0-.32-.18.38.38,0,0,0-.37.37v0a.28.28,0,0,0-.13,0,.38.38,0,0,0-.37.38.37.37,0,0,0,.24.35.38.38,0,0,0-.12.27.37.37,0,0,0,.25.35.36.36,0,0,0-.12.28.38.38,0,0,0,.75,0v0a.27.27,0,0,0,.12,0,.38.38,0,0,0,.38-.38v0l.12,0a.37.37,0,0,0,.38-.37A.37.37,0,0,0,11.92,53.19Zm-5.25,5a.36.36,0,0,0,.12-.28.38.38,0,0,0-.37-.37H6.36a1.38,1.38,0,0,1,.72-.63L7,56.67a1.54,1.54,0,0,0-.58.38h0A.53.53,0,0,0,6,56.49l-.14-.06-.18-.09v.2a.57.57,0,0,0,.62.62h0a1.49,1.49,0,0,0-.2.31.36.36,0,0,0-.32-.18.38.38,0,0,0-.37.37v0a.28.28,0,0,0-.13,0,.38.38,0,0,0-.37.38.37.37,0,0,0,.24.35.38.38,0,0,0-.12.27.37.37,0,0,0,.25.35.36.36,0,0,0-.12.28.38.38,0,0,0,.75,0v0a.27.27,0,0,0,.12,0,.38.38,0,0,0,.38-.38v0l.12,0a.37.37,0,0,0,.38-.37A.37.37,0,0,0,6.67,58.19Zm6.5,2.5a.36.36,0,0,0,.12-.28.38.38,0,0,0-.37-.37h-.06a1.38,1.38,0,0,1,.72-.63l-.08-.24a1.54,1.54,0,0,0-.58.38h0a.53.53,0,0,0-.43-.55l-.14-.06-.18-.09V59a.57.57,0,0,0,.62.62h0a1.49,1.49,0,0,0-.2.31.36.36,0,0,0-.32-.18.38.38,0,0,0-.37.37v0a.28.28,0,0,0-.13,0,.38.38,0,0,0-.37.38.37.37,0,0,0,.24.35.38.38,0,0,0-.12.27.37.37,0,0,0,.25.35.36.36,0,0,0-.12.28.38.38,0,0,0,.75,0v0a.27.27,0,0,0,.12,0,.38.38,0,0,0,.38-.38v0l.12,0a.37.37,0,0,0,.38-.37A.37.37,0,0,0,13.17,60.69Z"/><path id="vineyard_random_sparse-11" data-name="vineyard_random_sparse" class="cls-2" d="M20.42,35.94a.36.36,0,0,0,.12-.28.38.38,0,0,0-.37-.37h-.06a1.38,1.38,0,0,1,.72-.63l-.08-.24a1.54,1.54,0,0,0-.58.38h0a.53.53,0,0,0-.43-.55l-.14-.06-.18-.09v.2a.57.57,0,0,0,.62.62h0a1.49,1.49,0,0,0-.2.31.36.36,0,0,0-.32-.18.38.38,0,0,0-.37.37v0a.28.28,0,0,0-.13,0,.38.38,0,0,0-.37.38.37.37,0,0,0,.24.35.38.38,0,0,0-.12.27.37.37,0,0,0,.25.35.36.36,0,0,0-.12.28.38.38,0,0,0,.75,0v0a.27.27,0,0,0,.12,0,.38.38,0,0,0,.38-.38v0l.12,0a.37.37,0,0,0,.38-.37A.37.37,0,0,0,20.42,35.94Zm7.5,1.25a.36.36,0,0,0,.12-.28.38.38,0,0,0-.37-.37h-.06a1.38,1.38,0,0,1,.72-.63l-.08-.24a1.54,1.54,0,0,0-.58.38h0a.53.53,0,0,0-.43-.55l-.14-.06-.18-.09v.2a.57.57,0,0,0,.62.62h0a1.49,1.49,0,0,0-.2.31.36.36,0,0,0-.32-.18.38.38,0,0,0-.37.37v0a.28.28,0,0,0-.13,0,.38.38,0,0,0-.37.38.37.37,0,0,0,.24.35.38.38,0,0,0-.12.27.37.37,0,0,0,.25.35.36.36,0,0,0-.12.28.38.38,0,0,0,.75,0v0a.27.27,0,0,0,.12,0,.38.38,0,0,0,.38-.38v0l.12,0a.37.37,0,0,0,.38-.37A.37.37,0,0,0,27.92,37.19Zm-5.25,5a.36.36,0,0,0,.12-.28.38.38,0,0,0-.37-.37h-.06a1.38,1.38,0,0,1,.72-.63L23,40.67a1.54,1.54,0,0,0-.58.38h0a.53.53,0,0,0-.43-.55l-.14-.06-.18-.09v.2a.57.57,0,0,0,.62.62h0a1.49,1.49,0,0,0-.2.31.36.36,0,0,0-.32-.18.38.38,0,0,0-.37.37v0a.28.28,0,0,0-.13,0,.38.38,0,0,0-.37.38.37.37,0,0,0,.24.35.38.38,0,0,0-.12.27.37.37,0,0,0,.25.35.36.36,0,0,0-.12.28.38.38,0,0,0,.75,0v0a.27.27,0,0,0,.12,0,.38.38,0,0,0,.38-.38v0l.12,0a.37.37,0,0,0,.38-.37A.37.37,0,0,0,22.67,42.19Zm6.5,2.5a.36.36,0,0,0,.12-.28.38.38,0,0,0-.37-.37h-.06a1.38,1.38,0,0,1,.72-.63l-.08-.24a1.54,1.54,0,0,0-.58.38h0a.53.53,0,0,0-.43-.55l-.14-.06-.18-.09V43a.57.57,0,0,0,.62.62h0a1.49,1.49,0,0,0-.2.31.36.36,0,0,0-.32-.18.38.38,0,0,0-.37.37v0a.28.28,0,0,0-.13,0,.38.38,0,0,0-.37.38.37.37,0,0,0,.24.35.38.38,0,0,0-.12.27.37.37,0,0,0,.25.35.36.36,0,0,0-.12.28.38.38,0,0,0,.75,0v0a.27.27,0,0,0,.12,0,.38.38,0,0,0,.38-.38v0l.12,0a.37.37,0,0,0,.38-.37A.37.37,0,0,0,29.17,44.69Z"/><path id="vineyard_random_sparse-12" data-name="vineyard_random_sparse" class="cls-2" d="M20.42,51.94a.36.36,0,0,0,.12-.28.38.38,0,0,0-.37-.37h-.06a1.38,1.38,0,0,1,.72-.63l-.08-.24a1.54,1.54,0,0,0-.58.38h0a.53.53,0,0,0-.43-.55l-.14-.06-.18-.09v.2a.57.57,0,0,0,.62.62h0a1.49,1.49,0,0,0-.2.31.36.36,0,0,0-.32-.18.38.38,0,0,0-.37.37v0a.28.28,0,0,0-.13,0,.38.38,0,0,0-.37.38.37.37,0,0,0,.24.35.38.38,0,0,0-.12.27.37.37,0,0,0,.25.35.36.36,0,0,0-.12.28.38.38,0,0,0,.75,0v0a.27.27,0,0,0,.12,0,.38.38,0,0,0,.38-.38v0l.12,0a.37.37,0,0,0,.38-.37A.37.37,0,0,0,20.42,51.94Zm7.5,1.25a.36.36,0,0,0,.12-.28.38.38,0,0,0-.37-.37h-.06a1.38,1.38,0,0,1,.72-.63l-.08-.24a1.54,1.54,0,0,0-.58.38h0a.53.53,0,0,0-.43-.55l-.14-.06-.18-.09v.2a.57.57,0,0,0,.62.62h0a1.49,1.49,0,0,0-.2.31.36.36,0,0,0-.32-.18.38.38,0,0,0-.37.37v0a.28.28,0,0,0-.13,0,.38.38,0,0,0-.37.38.37.37,0,0,0,.24.35.38.38,0,0,0-.12.27.37.37,0,0,0,.25.35.36.36,0,0,0-.12.28.38.38,0,0,0,.75,0v0a.27.27,0,0,0,.12,0,.38.38,0,0,0,.38-.38v0l.12,0a.37.37,0,0,0,.38-.37A.37.37,0,0,0,27.92,53.19Zm-5.25,5a.36.36,0,0,0,.12-.28.38.38,0,0,0-.37-.37h-.06a1.38,1.38,0,0,1,.72-.63L23,56.67a1.54,1.54,0,0,0-.58.38h0a.53.53,0,0,0-.43-.55l-.14-.06-.18-.09v.2a.57.57,0,0,0,.62.62h0a1.49,1.49,0,0,0-.2.31.36.36,0,0,0-.32-.18.38.38,0,0,0-.37.37v0a.28.28,0,0,0-.13,0,.38.38,0,0,0-.37.38.37.37,0,0,0,.24.35.38.38,0,0,0-.12.27.37.37,0,0,0,.25.35.36.36,0,0,0-.12.28.38.38,0,0,0,.75,0v0a.27.27,0,0,0,.12,0,.38.38,0,0,0,.38-.38v0l.12,0a.37.37,0,0,0,.38-.37A.37.37,0,0,0,22.67,58.19Zm6.5,2.5a.36.36,0,0,0,.12-.28.38.38,0,0,0-.37-.37h-.06a1.38,1.38,0,0,1,.72-.63l-.08-.24a1.54,1.54,0,0,0-.58.38h0a.53.53,0,0,0-.43-.55l-.14-.06-.18-.09V59a.57.57,0,0,0,.62.62h0a1.49,1.49,0,0,0-.2.31.36.36,0,0,0-.32-.18.38.38,0,0,0-.37.37v0a.28.28,0,0,0-.13,0,.38.38,0,0,0-.37.38.37.37,0,0,0,.24.35.38.38,0,0,0-.12.27.37.37,0,0,0,.25.35.36.36,0,0,0-.12.28.38.38,0,0,0,.75,0v0a.27.27,0,0,0,.12,0,.38.38,0,0,0,.38-.38v0l.12,0a.37.37,0,0,0,.38-.37A.37.37,0,0,0,29.17,60.69Z"/></g><g id="vineyard_poly_random_sparse_half-4" data-name="vineyard_poly_random_sparse_half"><rect id="bbox_64-4" data-name="bbox_64" class="cls-1" x="32" y="32" width="32" height="32"/><path id="vineyard_random_sparse-13" data-name="vineyard_random_sparse" class="cls-2" d="M36.42,35.94a.36.36,0,0,0,.12-.28.38.38,0,0,0-.37-.37h-.06a1.38,1.38,0,0,1,.72-.63l-.08-.24a1.54,1.54,0,0,0-.58.38h0a.53.53,0,0,0-.43-.55l-.14-.06-.18-.09v.2a.57.57,0,0,0,.62.62h0a1.49,1.49,0,0,0-.2.31.36.36,0,0,0-.32-.18.38.38,0,0,0-.37.37v0a.28.28,0,0,0-.13,0,.38.38,0,0,0-.37.38.37.37,0,0,0,.24.35.38.38,0,0,0-.12.27.37.37,0,0,0,.25.35.36.36,0,0,0-.12.28.38.38,0,0,0,.75,0v0a.27.27,0,0,0,.12,0,.38.38,0,0,0,.38-.38v0l.12,0a.37.37,0,0,0,.38-.37A.37.37,0,0,0,36.42,35.94Zm7.5,1.25a.36.36,0,0,0,.12-.28.38.38,0,0,0-.37-.37h-.06a1.38,1.38,0,0,1,.72-.63l-.08-.24a1.54,1.54,0,0,0-.58.38h0a.53.53,0,0,0-.43-.55l-.14-.06-.18-.09v.2a.57.57,0,0,0,.62.62h0a1.49,1.49,0,0,0-.2.31.36.36,0,0,0-.32-.18.38.38,0,0,0-.37.37v0a.28.28,0,0,0-.13,0,.38.38,0,0,0-.37.38.37.37,0,0,0,.24.35.38.38,0,0,0-.12.27.37.37,0,0,0,.25.35.36.36,0,0,0-.12.28.38.38,0,0,0,.75,0v0a.27.27,0,0,0,.12,0,.38.38,0,0,0,.38-.38v0l.12,0a.37.37,0,0,0,.38-.37A.37.37,0,0,0,43.92,37.19Zm-5.25,5a.36.36,0,0,0,.12-.28.38.38,0,0,0-.37-.37h-.06a1.38,1.38,0,0,1,.72-.63L39,40.67a1.54,1.54,0,0,0-.58.38h0a.53.53,0,0,0-.43-.55l-.14-.06-.18-.09v.2a.57.57,0,0,0,.62.62h0a1.49,1.49,0,0,0-.2.31.36.36,0,0,0-.32-.18.38.38,0,0,0-.37.37v0a.28.28,0,0,0-.13,0,.38.38,0,0,0-.37.38.37.37,0,0,0,.24.35.38.38,0,0,0-.12.27.37.37,0,0,0,.25.35.36.36,0,0,0-.12.28.38.38,0,0,0,.75,0v0a.27.27,0,0,0,.12,0,.38.38,0,0,0,.38-.38v0l.12,0a.37.37,0,0,0,.38-.37A.37.37,0,0,0,38.67,42.19Zm6.5,2.5a.36.36,0,0,0,.12-.28.38.38,0,0,0-.37-.37h-.06a1.38,1.38,0,0,1,.72-.63l-.08-.24a1.54,1.54,0,0,0-.58.38h0a.53.53,0,0,0-.43-.55l-.14-.06-.18-.09V43a.57.57,0,0,0,.62.62h0a1.49,1.49,0,0,0-.2.31.36.36,0,0,0-.32-.18.38.38,0,0,0-.37.37v0a.28.28,0,0,0-.13,0,.38.38,0,0,0-.37.38.37.37,0,0,0,.24.35.38.38,0,0,0-.12.27.37.37,0,0,0,.25.35.36.36,0,0,0-.12.28.38.38,0,0,0,.75,0v0a.27.27,0,0,0,.12,0,.38.38,0,0,0,.38-.38v0l.12,0a.37.37,0,0,0,.38-.37A.37.37,0,0,0,45.17,44.69Z"/><path id="vineyard_random_sparse-14" data-name="vineyard_random_sparse" class="cls-2" d="M36.42,51.94a.36.36,0,0,0,.12-.28.38.38,0,0,0-.37-.37h-.06a1.38,1.38,0,0,1,.72-.63l-.08-.24a1.54,1.54,0,0,0-.58.38h0a.53.53,0,0,0-.43-.55l-.14-.06-.18-.09v.2a.57.57,0,0,0,.62.62h0a1.49,1.49,0,0,0-.2.31.36.36,0,0,0-.32-.18.38.38,0,0,0-.37.37v0a.28.28,0,0,0-.13,0,.38.38,0,0,0-.37.38.37.37,0,0,0,.24.35.38.38,0,0,0-.12.27.37.37,0,0,0,.25.35.36.36,0,0,0-.12.28.38.38,0,0,0,.75,0v0a.27.27,0,0,0,.12,0,.38.38,0,0,0,.38-.38v0l.12,0a.37.37,0,0,0,.38-.37A.37.37,0,0,0,36.42,51.94Zm7.5,1.25a.36.36,0,0,0,.12-.28.38.38,0,0,0-.37-.37h-.06a1.38,1.38,0,0,1,.72-.63l-.08-.24a1.54,1.54,0,0,0-.58.38h0a.53.53,0,0,0-.43-.55l-.14-.06-.18-.09v.2a.57.57,0,0,0,.62.62h0a1.49,1.49,0,0,0-.2.31.36.36,0,0,0-.32-.18.38.38,0,0,0-.37.37v0a.28.28,0,0,0-.13,0,.38.38,0,0,0-.37.38.37.37,0,0,0,.24.35.38.38,0,0,0-.12.27.37.37,0,0,0,.25.35.36.36,0,0,0-.12.28.38.38,0,0,0,.75,0v0a.27.27,0,0,0,.12,0,.38.38,0,0,0,.38-.38v0l.12,0a.37.37,0,0,0,.38-.37A.37.37,0,0,0,43.92,53.19Zm-5.25,5a.36.36,0,0,0,.12-.28.38.38,0,0,0-.37-.37h-.06a1.38,1.38,0,0,1,.72-.63L39,56.67a1.54,1.54,0,0,0-.58.38h0a.53.53,0,0,0-.43-.55l-.14-.06-.18-.09v.2a.57.57,0,0,0,.62.62h0a1.49,1.49,0,0,0-.2.31.36.36,0,0,0-.32-.18.38.38,0,0,0-.37.37v0a.28.28,0,0,0-.13,0,.38.38,0,0,0-.37.38.37.37,0,0,0,.24.35.38.38,0,0,0-.12.27.37.37,0,0,0,.25.35.36.36,0,0,0-.12.28.38.38,0,0,0,.75,0v0a.27.27,0,0,0,.12,0,.38.38,0,0,0,.38-.38v0l.12,0a.37.37,0,0,0,.38-.37A.37.37,0,0,0,38.67,58.19Zm6.5,2.5a.36.36,0,0,0,.12-.28.38.38,0,0,0-.37-.37h-.06a1.38,1.38,0,0,1,.72-.63l-.08-.24a1.54,1.54,0,0,0-.58.38h0a.53.53,0,0,0-.43-.55l-.14-.06-.18-.09V59a.57.57,0,0,0,.62.62h0a1.49,1.49,0,0,0-.2.31.36.36,0,0,0-.32-.18.38.38,0,0,0-.37.37v0a.28.28,0,0,0-.13,0,.38.38,0,0,0-.37.38.37.37,0,0,0,.24.35.38.38,0,0,0-.12.27.37.37,0,0,0,.25.35.36.36,0,0,0-.12.28.38.38,0,0,0,.75,0v0a.27.27,0,0,0,.12,0,.38.38,0,0,0,.38-.38v0l.12,0a.37.37,0,0,0,.38-.37A.37.37,0,0,0,45.17,60.69Z"/><path id="vineyard_random_sparse-15" data-name="vineyard_random_sparse" class="cls-2" d="M52.42,35.94a.36.36,0,0,0,.12-.28.38.38,0,0,0-.37-.37h-.06a1.38,1.38,0,0,1,.72-.63l-.08-.24a1.54,1.54,0,0,0-.58.38h0a.53.53,0,0,0-.43-.55l-.14-.06-.18-.09v.2a.57.57,0,0,0,.62.62h0a1.49,1.49,0,0,0-.2.31.36.36,0,0,0-.32-.18.38.38,0,0,0-.37.37v0a.28.28,0,0,0-.13,0,.38.38,0,0,0-.37.38.37.37,0,0,0,.24.35.38.38,0,0,0-.12.27.37.37,0,0,0,.25.35.36.36,0,0,0-.12.28.38.38,0,0,0,.75,0v0a.27.27,0,0,0,.12,0,.38.38,0,0,0,.38-.38v0l.12,0a.37.37,0,0,0,.38-.37A.37.37,0,0,0,52.42,35.94Zm7.5,1.25a.36.36,0,0,0,.12-.28.38.38,0,0,0-.37-.37h-.06a1.38,1.38,0,0,1,.72-.63l-.08-.24a1.54,1.54,0,0,0-.58.38h0a.53.53,0,0,0-.43-.55l-.14-.06-.18-.09v.2a.57.57,0,0,0,.62.62h0a1.49,1.49,0,0,0-.2.31.36.36,0,0,0-.32-.18.38.38,0,0,0-.37.37v0a.28.28,0,0,0-.13,0,.38.38,0,0,0-.37.38.37.37,0,0,0,.24.35.38.38,0,0,0-.12.27.37.37,0,0,0,.25.35.36.36,0,0,0-.12.28.38.38,0,0,0,.75,0v0a.27.27,0,0,0,.12,0,.38.38,0,0,0,.38-.38v0l.12,0a.37.37,0,0,0,.38-.37A.37.37,0,0,0,59.92,37.19Zm-5.25,5a.36.36,0,0,0,.12-.28.38.38,0,0,0-.37-.37h-.06a1.38,1.38,0,0,1,.72-.63L55,40.67a1.54,1.54,0,0,0-.58.38h0a.53.53,0,0,0-.43-.55l-.14-.06-.18-.09v.2a.57.57,0,0,0,.62.62h0a1.49,1.49,0,0,0-.2.31.36.36,0,0,0-.32-.18.38.38,0,0,0-.37.37v0a.28.28,0,0,0-.13,0,.38.38,0,0,0-.37.38.37.37,0,0,0,.24.35.38.38,0,0,0-.12.27.37.37,0,0,0,.25.35.36.36,0,0,0-.12.28.38.38,0,0,0,.75,0v0a.27.27,0,0,0,.12,0,.38.38,0,0,0,.38-.38v0l.12,0a.37.37,0,0,0,.38-.37A.37.37,0,0,0,54.67,42.19Zm6.5,2.5a.36.36,0,0,0,.12-.28.38.38,0,0,0-.37-.37h-.06a1.38,1.38,0,0,1,.72-.63l-.08-.24a1.54,1.54,0,0,0-.58.38h0a.53.53,0,0,0-.43-.55l-.14-.06-.18-.09V43a.57.57,0,0,0,.62.62h0a1.49,1.49,0,0,0-.2.31.36.36,0,0,0-.32-.18.38.38,0,0,0-.37.37v0a.28.28,0,0,0-.13,0,.38.38,0,0,0-.37.38.37.37,0,0,0,.24.35.38.38,0,0,0-.12.27.37.37,0,0,0,.25.35.36.36,0,0,0-.12.28.38.38,0,0,0,.75,0v0a.27.27,0,0,0,.12,0,.38.38,0,0,0,.38-.38v0l.12,0a.37.37,0,0,0,.38-.37A.37.37,0,0,0,61.17,44.69Z"/><path id="vineyard_random_sparse-16" data-name="vineyard_random_sparse" class="cls-2" d="M52.42,51.94a.36.36,0,0,0,.12-.28.38.38,0,0,0-.37-.37h-.06a1.38,1.38,0,0,1,.72-.63l-.08-.24a1.54,1.54,0,0,0-.58.38h0a.53.53,0,0,0-.43-.55l-.14-.06-.18-.09v.2a.57.57,0,0,0,.62.62h0a1.49,1.49,0,0,0-.2.31.36.36,0,0,0-.32-.18.38.38,0,0,0-.37.37v0a.28.28,0,0,0-.13,0,.38.38,0,0,0-.37.38.37.37,0,0,0,.24.35.38.38,0,0,0-.12.27.37.37,0,0,0,.25.35.36.36,0,0,0-.12.28.38.38,0,0,0,.75,0v0a.27.27,0,0,0,.12,0,.38.38,0,0,0,.38-.38v0l.12,0a.37.37,0,0,0,.38-.37A.37.37,0,0,0,52.42,51.94Zm7.5,1.25a.36.36,0,0,0,.12-.28.38.38,0,0,0-.37-.37h-.06a1.38,1.38,0,0,1,.72-.63l-.08-.24a1.54,1.54,0,0,0-.58.38h0a.53.53,0,0,0-.43-.55l-.14-.06-.18-.09v.2a.57.57,0,0,0,.62.62h0a1.49,1.49,0,0,0-.2.31.36.36,0,0,0-.32-.18.38.38,0,0,0-.37.37v0a.28.28,0,0,0-.13,0,.38.38,0,0,0-.37.38.37.37,0,0,0,.24.35.38.38,0,0,0-.12.27.37.37,0,0,0,.25.35.36.36,0,0,0-.12.28.38.38,0,0,0,.75,0v0a.27.27,0,0,0,.12,0,.38.38,0,0,0,.38-.38v0l.12,0a.37.37,0,0,0,.38-.37A.37.37,0,0,0,59.92,53.19Zm-5.25,5a.36.36,0,0,0,.12-.28.38.38,0,0,0-.37-.37h-.06a1.38,1.38,0,0,1,.72-.63L55,56.67a1.54,1.54,0,0,0-.58.38h0a.53.53,0,0,0-.43-.55l-.14-.06-.18-.09v.2a.57.57,0,0,0,.62.62h0a1.49,1.49,0,0,0-.2.31.36.36,0,0,0-.32-.18.38.38,0,0,0-.37.37v0a.28.28,0,0,0-.13,0,.38.38,0,0,0-.37.38.37.37,0,0,0,.24.35.38.38,0,0,0-.12.27.37.37,0,0,0,.25.35.36.36,0,0,0-.12.28.38.38,0,0,0,.75,0v0a.27.27,0,0,0,.12,0,.38.38,0,0,0,.38-.38v0l.12,0a.37.37,0,0,0,.38-.37A.37.37,0,0,0,54.67,58.19Zm6.5,2.5a.36.36,0,0,0,.12-.28.38.38,0,0,0-.37-.37h-.06a1.38,1.38,0,0,1,.72-.63l-.08-.24a1.54,1.54,0,0,0-.58.38h0a.53.53,0,0,0-.43-.55l-.14-.06-.18-.09V59a.57.57,0,0,0,.62.62h0a1.49,1.49,0,0,0-.2.31.36.36,0,0,0-.32-.18.38.38,0,0,0-.37.37v0a.28.28,0,0,0-.13,0,.38.38,0,0,0-.37.38.37.37,0,0,0,.24.35.38.38,0,0,0-.12.27.37.37,0,0,0,.25.35.36.36,0,0,0-.12.28.38.38,0,0,0,.75,0v0a.27.27,0,0,0,.12,0,.38.38,0,0,0,.38-.38v0l.12,0a.37.37,0,0,0,.38-.37A.37.37,0,0,0,61.17,60.69Z"/></g></svg>