<svg id="Sprites" xmlns="http://www.w3.org/2000/svg" viewBox="0 0 16 16"><defs><style>.cls-1{fill:none;}.cls-2{fill:#0984ba;}.cls-3{fill:#fff;}</style></defs><g id="waterfall_pnt_blue"><rect id="bbox_16" class="cls-1" width="16" height="16"/><path class="cls-2" d="M13.23,10.8A1.74,1.74,0,0,0,11.5,9.25a1.69,1.69,0,0,0-.5.08V4.5A2.5,2.5,0,0,0,8.5,2h-5a.5.5,0,0,0,0,1A1.5,1.5,0,0,1,5,4.5V9.34a1.43,1.43,0,0,0-.5-.09A1.74,1.74,0,0,0,2.77,10.8c-1.08.4-1.77,1-1.77,1.7C1,14.14,4.52,15,8,15s7-.86,7-2.5C15,11.77,14.31,11.2,13.23,10.8ZM6,9.38a1.27,1.27,0,0,1,1.41.27l.09.06V10c-.51,0-1,0-1.5.09Zm4,.75c-.49-.05-1-.07-1.5-.09V8.87a1.17,1.17,0,0,1,1.5.42Zm1.5-.38a1.24,1.24,0,0,1,1.17.86A12.2,12.2,0,0,0,11,10.25V9.87A1.26,1.26,0,0,1,11.5,9.75ZM8.5,3A1.5,1.5,0,0,1,10,4.5V8.58a1.67,1.67,0,0,0-1-.33,1.69,1.69,0,0,0-.5.08V4.5A2.51,2.51,0,0,0,8,3Zm-3,0H6A1.5,1.5,0,0,1,7.5,4.5V9.07A1.77,1.77,0,0,0,6,8.84V4.5A2.51,2.51,0,0,0,5.49,3Zm-1,6.75a1.26,1.26,0,0,1,.5.12v.38a12.2,12.2,0,0,0-1.67.36A1.24,1.24,0,0,1,4.5,9.75Z"/><path class="cls-3" d="M11.5,9.5a1.47,1.47,0,0,0-1,.4A1.49,1.49,0,0,0,7.6,9.48,1.53,1.53,0,0,0,6.5,9a1.48,1.48,0,0,0-1.26.7,1.54,1.54,0,0,0-.74-.2,1.5,1.5,0,0,0-.43,2.93A1.49,1.49,0,0,0,5.5,13.5,1.53,1.53,0,0,0,6.6,13a1.49,1.49,0,0,0,2.4.59,1.49,1.49,0,0,0,2.5-1.11,1.5,1.5,0,0,0,0-3Z"/></g></svg>