<svg id="Sprites" xmlns="http://www.w3.org/2000/svg" viewBox="0 0 16 16"><defs><style>.cls-1{fill:none;}.cls-2{fill:#0984ba;}</style></defs><g id="wreck_ship_pnt_dual"><rect id="bbox_16" class="cls-1" width="16" height="16"/><path id="water_wave" class="cls-2" d="M14.5,12a.5.5,0,0,1-.5.5c-.27,0-.39.1-.62.32l0,0a.46.46,0,0,1-.07.07A1.67,1.67,0,0,1,12,13.5a1.74,1.74,0,0,1-1.35-.65c-.25-.24-.37-.35-.65-.35s-.4.11-.65.35a1.73,1.73,0,0,1-2.7,0c-.25-.24-.37-.35-.65-.35s-.4.11-.65.35a1.76,1.76,0,0,1-1.24.64H4a1.74,1.74,0,0,1-1.35-.65c-.25-.24-.37-.35-.65-.35a.5.5,0,0,1,0-1,1.67,1.67,0,0,1,1.28.58l.07.07c.25.24.37.35.65.35a.66.66,0,0,0,.38-.11c.08-.06.16-.14.27-.24a1.73,1.73,0,0,1,2.7,0c.25.24.37.35.65.35s.4-.11.65-.35a2,2,0,0,1,.76-.55,1.69,1.69,0,0,1,.59-.1,1.74,1.74,0,0,1,1.35.65c.25.24.37.35.65.35s.4-.11.65-.35l.24-.23A1.6,1.6,0,0,1,14,11.5.5.5,0,0,1,14.5,12Z"/><path id="wreck_ship" d="M7.73,9.86,11.9,4.3a.5.5,0,1,0-.8-.6L6.77,9.47,3.19,8a.5.5,0,0,0-.51.08.51.51,0,0,0-.17.49l.77,3.47.07.07c.25.24.37.35.65.35a.66.66,0,0,0,.38-.11L3.69,9.32,9.41,11.6a1.69,1.69,0,0,1,.59-.1,1.74,1.74,0,0,1,1.35.65c.25.24.37.35.65.35s.4-.11.65-.35l.24-.23Z"/></g></svg>